<?xml version="1.0" encoding="UTF-8"?>
<svg xmlns="http://www.w3.org/2000/svg" version="1.1" viewBox="0 0 400 600">
  <!-- Generator: Adobe Illustrator 29.5.1, SVG Export Plug-In . SVG Version: 2.1.0 Build 141)  -->
  <defs>
    <style>
      .st0 {
        fill: #a96f53;
      }

      .st1 {
        isolation: isolate;
      }

      .st2 {
        fill: #e0c2af;
        mix-blend-mode: multiply;
      }
    </style>
  </defs>
  <g class="st1">
    <g id="Eye_Line_Style">
      <g id="underEye_Wrinkles_2">
        <path class="st0" d="M157.08,340.01c-4.64,1.98-9.55,1.19-14.25.04-3.94-.97-7.98-1.79-11.76-3.69-2.07-1.04-4.12-2.36-5.73-4.51-.06-.08-.23.03-.18.14,1.09,2.28,2.7,3.63,4.43,4.81,1.92,1.31,4.04,2.05,6.12,2.68,1.97.6,3.95,1.08,5.93,1.58,2.43.61,4.89,1.13,7.36,1.17,2.72.04,5.6-.37,8.12-1.91.15-.09.12-.4-.06-.32Z"/>
        <path class="st0" d="M161.39,341.52c-1.15,1.21-2.35,2.34-3.68,3.2-1.28.82-2.63,1.52-3.98,2.09-2.87,1.19-5.9,1.73-8.9,1.74-3.05.01-6.14-.51-9.05-1.74-2.41-1.02-4.72-2.45-6.9-4.1-1.26-.95-2.46-2.03-3.57-3.25-1.07-1.16-1.93-2.51-2.88-3.81-.03-.04-.12,0-.11.06.27,1.45,1.03,2.83,1.79,3.92.9,1.31,1.93,2.41,3.03,3.42,2.14,1.96,4.52,3.46,6.97,4.64,6.02,2.9,12.77,2.76,18.86.29,3.16-1.28,6.24-3.25,8.67-6.25.16-.2-.1-.36-.23-.22Z"/>
        <path class="st0" d="M242.92,340.15c4.64,1.98,9.55,1.19,14.25.04,3.94-.97,7.98-1.79,11.76-3.69,2.07-1.04,4.12-2.36,5.73-4.51.06-.08.23.03.18.14-1.09,2.28-2.7,3.63-4.43,4.81-1.92,1.31-4.04,2.05-6.12,2.68-1.97.6-3.95,1.08-5.93,1.58-2.43.61-4.89,1.13-7.36,1.17-2.72.04-5.6-.37-8.12-1.91-.15-.09-.12-.4.06-.32Z"/>
        <path class="st0" d="M239.05,341.66c1.15,1.21,2.35,2.34,3.68,3.2,1.28.82,2.63,1.52,3.98,2.09,2.87,1.19,5.9,1.73,8.9,1.74,3.05.01,6.14-.51,9.05-1.74,2.41-1.02,4.72-2.45,6.9-4.1,1.26-.95,2.46-2.03,3.57-3.25,1.07-1.16,1.93-2.51,2.88-3.81.03-.04.12,0,.11.06-.27,1.45-1.03,2.83-1.79,3.92-.9,1.31-1.93,2.41-3.03,3.42-2.14,1.96-4.52,3.46-6.97,4.64-6.02,2.9-12.77,2.76-18.86.29-3.16-1.28-6.24-3.25-8.67-6.25-.16-.2.1-.36.23-.22Z"/>
      </g>
      <g id="eye_Wrinkles_2">
        <path class="st0" d="M330.62,309.01c-3.26-3.06-7.22-5.63-11.34-7.37-4.96-2.11-10.72-1.77-15.97-1.24-.37.04-.65.67-.15.72,2.66.28,5.33.25,8,.45,2.52.19,5.07.6,7.51,1.26,2.13.58,4.09,1.54,5.95,2.72,1.92,1.22,3.69,2.66,5.61,3.87.22.14.6-.2.38-.4Z"/>
        <path class="st0" d="M312.93,306.68c-.71-1.11-2.01-1.72-3.18-2.24-1.26-.56-2.59-.97-3.94-1.25-2.71-.56-5.49-.55-8.22-.19-.25.03-.46.49-.1.51,2.58.11,5.17.32,7.69.9,1.24.29,2.46.68,3.62,1.21,1.18.54,2.23,1.34,3.45,1.78.35.13.92-.35.68-.71Z"/>
        <path class="st0" d="M326.02,319.28c-1.44-3.25-4.24-5.59-7.25-7.35-3.1-1.82-6.49-3.08-9.99-3.88-1.97-.45-3.93-.65-5.94-.7-.11,0-.28.2-.12.25,6.53,1.82,13.15,3.57,18.51,7.93,1.52,1.24,2.88,2.64,4.18,4.1.2.22.74-.06.61-.35Z"/>
        <path class="st0" d="M316.83,319.31c-.52-.49-1.36-.64-2-.92-.73-.32-1.43-.67-2.15-1.01-1.39-.67-2.77-1.25-4.31-1.48-.26-.04-.62.46-.27.56,1.47.41,2.8,1.21,4.1,1.98.65.38,1.31.75,2,1.07.73.34,1.44.67,2.26.56.33-.04.65-.49.37-.76Z"/>
        <path class="st0" d="M68.71,309.01c3.26-3.06,7.22-5.63,11.34-7.37,4.96-2.11,10.72-1.77,15.97-1.24.37.04.65.67.15.72-2.66.28-5.33.25-8,.45-2.52.19-5.07.6-7.51,1.26-2.13.58-4.09,1.54-5.95,2.72-1.92,1.22-3.69,2.66-5.61,3.87-.22.14-.6-.2-.38-.4Z"/>
        <path class="st0" d="M86.4,306.68c.71-1.11,2.01-1.72,3.18-2.24,1.26-.56,2.59-.97,3.94-1.25,2.71-.56,5.49-.55,8.22-.19.25.03.46.49.1.51-2.58.11-5.17.32-7.69.9-1.24.29-2.46.68-3.62,1.21-1.18.54-2.23,1.34-3.45,1.78-.35.13-.92-.35-.68-.71Z"/>
        <path class="st0" d="M73.31,319.28c1.44-3.25,4.24-5.59,7.25-7.35,3.1-1.82,6.49-3.08,9.99-3.88,1.97-.45,3.93-.65,5.94-.7.11,0,.28.2.12.25-6.53,1.82-13.15,3.57-18.51,7.93-1.52,1.24-2.88,2.64-4.18,4.1-.2.22-.74-.06-.61-.35Z"/>
        <path class="st0" d="M82.5,319.31c.52-.49,1.36-.64,2-.92.73-.32,1.43-.67,2.15-1.01,1.39-.67,2.77-1.25,4.31-1.48.26-.04.62.46.27.56-1.47.41-2.8,1.21-4.1,1.98-.65.38-1.31.75-2,1.07-.73.34-1.44.67-2.26.56-.33-.04-.65-.49-.37-.76Z"/>
      </g>
      <g id="upper_Wrinkles_2">
        <path class="st2" d="M289,243.16c-9.68-3.16-21.06-2.18-31.12-.88-11.24,1.45-22.42,3.3-33.55,5.18-6.22,1.05-12.46,2.02-18.79,2.58-6.32.55-12.73.35-19.01-.42-12.12-1.5-23.61-5.05-35.49-7.33-12.93-2.49-26.23-3.18-38.92.5-.07.02-.09.13.01.1,11.8-2.72,23.86-2.26,35.74-.12,11.74,2.12,23,5.65,34.84,7.43,5.86.88,11.83,1.36,17.8,1.1,6.17-.26,12.27-1.22,18.31-2.19,11.27-1.8,22.49-3.68,33.82-5.27,11.8-1.65,24.36-3.06,36.06-.31.26.06.61-.26.3-.37Z"/>
        <path class="st2" d="M265.28,230.27c-8.8-.6-17.65-1.11-26.46-.32-4.64.41-9.07,1.29-13.55,2.25-4.35.93-8.75,1.72-13.2,2.33-8.83,1.23-17.83,1.61-26.77.96-4.75-.34-9.46-.96-14.09-1.85-4.4-.84-8.73-1.89-13.14-2.72-4.9-.92-9.99-1.43-14.99-1.93-4.86-.49-9.7-.57-14.32.87-.03,0-.03.05,0,.04,4.54-1.05,9.23-.75,13.83-.11,4.42.61,8.9,1.14,13.27,1.93,4.41.79,8.75,1.82,13.13,2.71,4.36.88,8.79,1.54,13.26,1.96,8.68.82,17.46.67,26.11-.31,4.43-.5,8.81-1.23,13.14-2.11,4.39-.9,8.68-2.04,13.14-2.69,10.06-1.47,20.34-1.06,30.51-.74.19,0,.37-.24.12-.26Z"/>
        <path class="st2" d="M262.62,218.29c-8.36-1.01-16.73-1.59-25.2-1.47-8.59.12-17,1.24-25.53,1.96-8.64.73-17.16.38-25.75-.56-8.35-.91-16.63-2.41-25.02-3.05-9.39-.71-18.48.36-27.67,1.77-.2.03-.29.29-.02.26,8.11-1.06,16.42-1.73,24.65-1.24,8.43.51,16.74,2.02,25.08,3.01,8.16.97,16.37,1.57,24.62,1.03,8.58-.56,17.04-1.99,25.65-2.36,9.69-.42,19.47-.09,29.1.79.09,0,.2-.12.09-.14Z"/>
      </g>
    </g>
  </g>
</svg>