<?xml version="1.0" encoding="UTF-8"?>
<svg xmlns="http://www.w3.org/2000/svg" version="1.1" viewBox="0 0 400 600">
  <!-- Generator: Adobe Illustrator 29.5.1, SVG Export Plug-In . SVG Version: 2.1.0 Build 141)  -->
  <defs>
    <style>
      .st0 {
        opacity: .6;
      }

      .st0, .st1 {
        fill: #a96f53;
      }

      .st2 {
        isolation: isolate;
      }

      .st3 {
        fill: #e0c2af;
        mix-blend-mode: multiply;
      }
    </style>
  </defs>
  <g class="st2">
    <g id="Eye_Line_Style">
      <g id="underEye_Wrinkles_1">
        <path class="st1" d="M274.73,335.32c-4.86,2.85-10.09,5.25-15.53,6.74-4.7,1.29-9.69,2-14.56,2.1-2.49.05-5.02-.07-7.45-.63-.2-.05-.41.28-.2.39,1.94,1.02,4.23,1.28,6.39,1.31,2.31.03,4.62-.15,6.92-.43,5.54-.68,10.91-1.98,16.05-4.19,3.04-1.31,5.85-2.97,8.55-4.88.22-.15.14-.6-.17-.42Z"/>
        <path class="st1" d="M280.01,339.67c-1.3,1.61-3.13,2.69-4.92,3.67-2,1.09-4.09,2.13-6.21,2.97-2.72,1.08-5.53,1.7-8.4,2.2-2.76.49-5.6,1-8.41.86-3.01-.16-6.04-.78-8.94-1.57-.1-.03-.2.16-.1.19,2.63.73,5.07,1.98,7.79,2.4,2.86.43,5.83-.05,8.65-.53,2.99-.51,5.94-1.07,8.79-2.14,2.28-.86,4.5-1.94,6.66-3.08,2.08-1.1,4.5-2.5,5.63-4.65.23-.43-.27-.63-.55-.29Z"/>
        <path class="st1" d="M125.02,335.32c4.86,2.85,10.09,5.25,15.53,6.74,4.7,1.29,9.69,2,14.56,2.1,2.49.05,5.02-.07,7.45-.63.2-.05.41.28.2.39-1.94,1.02-4.23,1.28-6.39,1.31-2.31.03-4.62-.15-6.92-.43-5.54-.68-10.91-1.98-16.05-4.19-3.04-1.31-5.85-2.97-8.55-4.88-.22-.15-.14-.6.17-.42Z"/>
        <path class="st1" d="M119.75,339.67c1.3,1.61,3.13,2.69,4.92,3.67,2,1.09,4.09,2.13,6.21,2.97,2.72,1.08,5.53,1.7,8.4,2.2,2.76.49,5.6,1,8.41.86,3.01-.16,6.04-.78,8.94-1.57.1-.03.2.16.1.19-2.63.73-5.07,1.98-7.79,2.4-2.86.43-5.83-.05-8.65-.53-2.99-.51-5.94-1.07-8.79-2.14-2.28-.86-4.5-1.94-6.66-3.08-2.08-1.1-4.5-2.5-5.63-4.65-.23-.43.27-.63.55-.29Z"/>
      </g>
      <g id="eye_Wrinkles_3">
        <path class="st0" d="M326.74,300.73c-4.57,2.35-9.5,3.04-14.38,2.86-4.74-.17-9.44-1.16-14.17-1.19-.6,0-1.58,1.61-.66,1.8,4.94,1,10.01,1.58,15.02,1.49,4.98-.08,9.94-.94,14.37-4.06.45-.32.42-1.21-.18-.9Z"/>
        <path class="st0" d="M323.67,322.14c-9.55-.74-18.73-4.07-26.64-11.26-.8-.72-2.32,1.11-1.43,1.96,7.98,7.59,18.05,11.08,27.86,10.1.32-.03.69-.77.21-.8Z"/>
        <path class="st0" d="M72.16,301.29c4.57,2.35,9.5,3.04,14.38,2.86,4.74-.17,9.44-1.16,14.17-1.19.6,0,1.58,1.61.66,1.8-4.94,1-10.01,1.58-15.02,1.49-4.98-.08-9.94-.94-14.37-4.06-.45-.32-.42-1.21.18-.9Z"/>
        <path class="st0" d="M75.23,322.7c9.55-.74,18.73-4.07,26.64-11.26.8-.72,2.32,1.11,1.43,1.96-7.98,7.59-18.05,11.08-27.86,10.1-.32-.03-.69-.77-.21-.8Z"/>
      </g>
      <g id="upper_Wrinkles_2">
        <path class="st3" d="M289,243.16c-9.68-3.16-21.06-2.18-31.12-.88-11.24,1.45-22.42,3.3-33.55,5.18-6.22,1.05-12.46,2.02-18.79,2.58-6.32.55-12.73.35-19.01-.42-12.12-1.5-23.61-5.05-35.49-7.33-12.93-2.49-26.23-3.18-38.92.5-.07.02-.09.13.01.1,11.8-2.72,23.86-2.26,35.74-.12,11.74,2.12,23,5.65,34.84,7.43,5.86.88,11.83,1.36,17.8,1.1,6.17-.26,12.27-1.22,18.31-2.19,11.27-1.8,22.49-3.68,33.82-5.27,11.8-1.65,24.36-3.06,36.06-.31.26.06.61-.26.3-.37Z"/>
        <path class="st3" d="M265.28,230.27c-8.8-.6-17.65-1.11-26.46-.32-4.64.41-9.07,1.29-13.55,2.25-4.35.93-8.75,1.72-13.2,2.33-8.83,1.23-17.83,1.61-26.77.96-4.75-.34-9.46-.96-14.09-1.85-4.4-.84-8.73-1.89-13.14-2.72-4.9-.92-9.99-1.43-14.99-1.93-4.86-.49-9.7-.57-14.32.87-.03,0-.03.05,0,.04,4.54-1.05,9.23-.75,13.83-.11,4.42.61,8.9,1.14,13.27,1.93,4.41.79,8.75,1.82,13.13,2.71,4.36.88,8.79,1.54,13.26,1.96,8.68.82,17.46.67,26.11-.31,4.43-.5,8.81-1.23,13.14-2.11,4.39-.9,8.68-2.04,13.14-2.69,10.06-1.47,20.34-1.06,30.51-.74.19,0,.37-.24.12-.26Z"/>
        <path class="st3" d="M262.62,218.29c-8.36-1.01-16.73-1.59-25.2-1.47-8.59.12-17,1.24-25.53,1.96-8.64.73-17.16.38-25.75-.56-8.35-.91-16.63-2.41-25.02-3.05-9.39-.71-18.48.36-27.67,1.77-.2.03-.29.29-.02.26,8.11-1.06,16.42-1.73,24.65-1.24,8.43.51,16.74,2.02,25.08,3.01,8.16.97,16.37,1.57,24.62,1.03,8.58-.56,17.04-1.99,25.65-2.36,9.69-.42,19.47-.09,29.1.79.09,0,.2-.12.09-.14Z"/>
      </g>
    </g>
  </g>
</svg>