<?xml version="1.0" encoding="UTF-8"?>
<svg xmlns="http://www.w3.org/2000/svg" version="1.1" viewBox="0 0 400 600">
  <!-- Generator: Adobe Illustrator 29.5.1, SVG Export Plug-In . SVG Version: 2.1.0 Build 141)  -->
  <defs>
    <style>
      .st0, .st1, .st2 {
        opacity: .6;
      }

      .st1 {
        mix-blend-mode: multiply;
      }

      .st1, .st2, .st3 {
        fill: #a96f53;
      }

      .st4 {
        isolation: isolate;
      }
    </style>
  </defs>
  <g class="st4">
    <g id="Eye_Line_Style">
      <g id="underEye_Wrinkles_1">
        <path class="st3" d="M274.73,335.32c-4.86,2.85-10.09,5.25-15.53,6.74-4.7,1.29-9.69,2-14.56,2.1-2.49.05-5.02-.07-7.45-.63-.2-.05-.41.28-.2.39,1.94,1.02,4.23,1.28,6.39,1.31,2.31.03,4.62-.15,6.92-.43,5.54-.68,10.91-1.98,16.05-4.19,3.04-1.31,5.85-2.97,8.55-4.88.22-.15.14-.6-.17-.42Z"/>
        <path class="st3" d="M280.01,339.67c-1.3,1.61-3.13,2.69-4.92,3.67-2,1.09-4.09,2.13-6.21,2.97-2.72,1.08-5.53,1.7-8.4,2.2-2.76.49-5.6,1-8.41.86-3.01-.16-6.04-.78-8.94-1.57-.1-.03-.2.16-.1.19,2.63.73,5.07,1.98,7.79,2.4,2.86.43,5.83-.05,8.65-.53,2.99-.51,5.94-1.07,8.79-2.14,2.28-.86,4.5-1.94,6.66-3.08,2.08-1.1,4.5-2.5,5.63-4.65.23-.43-.27-.63-.55-.29Z"/>
        <path class="st3" d="M125.02,335.32c4.86,2.85,10.09,5.25,15.53,6.74,4.7,1.29,9.69,2,14.56,2.1,2.49.05,5.02-.07,7.45-.63.2-.05.41.28.2.39-1.94,1.02-4.23,1.28-6.39,1.31-2.31.03-4.62-.15-6.92-.43-5.54-.68-10.91-1.98-16.05-4.19-3.04-1.31-5.85-2.97-8.55-4.88-.22-.15-.14-.6.17-.42Z"/>
        <path class="st3" d="M119.75,339.67c1.3,1.61,3.13,2.69,4.92,3.67,2,1.09,4.09,2.13,6.21,2.97,2.72,1.08,5.53,1.7,8.4,2.2,2.76.49,5.6,1,8.41.86,3.01-.16,6.04-.78,8.94-1.57.1-.03.2.16.1.19-2.63.73-5.07,1.98-7.79,2.4-2.86.43-5.83-.05-8.65-.53-2.99-.51-5.94-1.07-8.79-2.14-2.28-.86-4.5-1.94-6.66-3.08-2.08-1.1-4.5-2.5-5.63-4.65-.23-.43.27-.63.55-.29Z"/>
      </g>
      <g id="eye_Wrinkles_2">
        <path class="st3" d="M330.62,309.01c-3.26-3.06-7.22-5.63-11.34-7.37-4.96-2.11-10.72-1.77-15.97-1.24-.37.04-.65.67-.15.72,2.66.28,5.33.25,8,.45,2.52.19,5.07.6,7.51,1.26,2.13.58,4.09,1.54,5.95,2.72,1.92,1.22,3.69,2.66,5.61,3.87.22.14.6-.2.38-.4Z"/>
        <path class="st3" d="M312.93,306.68c-.71-1.11-2.01-1.72-3.18-2.24-1.26-.56-2.59-.97-3.94-1.25-2.71-.56-5.49-.55-8.22-.19-.25.03-.46.49-.1.51,2.58.11,5.17.32,7.69.9,1.24.29,2.46.68,3.62,1.21,1.18.54,2.23,1.34,3.45,1.78.35.13.92-.35.68-.71Z"/>
        <path class="st3" d="M326.02,319.28c-1.44-3.25-4.24-5.59-7.25-7.35-3.1-1.82-6.49-3.08-9.99-3.88-1.97-.45-3.93-.65-5.94-.7-.11,0-.28.2-.12.25,6.53,1.82,13.15,3.57,18.51,7.93,1.52,1.24,2.88,2.64,4.18,4.1.2.22.74-.06.61-.35Z"/>
        <path class="st3" d="M316.83,319.31c-.52-.49-1.36-.64-2-.92-.73-.32-1.43-.67-2.15-1.01-1.39-.67-2.77-1.25-4.31-1.48-.26-.04-.62.46-.27.56,1.47.41,2.8,1.21,4.1,1.98.65.38,1.31.75,2,1.07.73.34,1.44.67,2.26.56.33-.04.65-.49.37-.76Z"/>
        <path class="st3" d="M68.71,309.01c3.26-3.06,7.22-5.63,11.34-7.37,4.96-2.11,10.72-1.77,15.97-1.24.37.04.65.67.15.72-2.66.28-5.33.25-8,.45-2.52.19-5.07.6-7.51,1.26-2.13.58-4.09,1.54-5.95,2.72-1.92,1.22-3.69,2.66-5.61,3.87-.22.14-.6-.2-.38-.4Z"/>
        <path class="st3" d="M86.4,306.68c.71-1.11,2.01-1.72,3.18-2.24,1.26-.56,2.59-.97,3.94-1.25,2.71-.56,5.49-.55,8.22-.19.25.03.46.49.1.51-2.58.11-5.17.32-7.69.9-1.24.29-2.46.68-3.62,1.21-1.18.54-2.23,1.34-3.45,1.78-.35.13-.92-.35-.68-.71Z"/>
        <path class="st3" d="M73.31,319.28c1.44-3.25,4.24-5.59,7.25-7.35,3.1-1.82,6.49-3.08,9.99-3.88,1.97-.45,3.93-.65,5.94-.7.11,0,.28.2.12.25-6.53,1.82-13.15,3.57-18.51,7.93-1.52,1.24-2.88,2.64-4.18,4.1-.2.22-.74-.06-.61-.35Z"/>
        <path class="st3" d="M82.5,319.31c.52-.49,1.36-.64,2-.92.73-.32,1.43-.67,2.15-1.01,1.39-.67,2.77-1.25,4.31-1.48.26-.04.62.46.27.56-1.47.41-2.8,1.21-4.1,1.98-.65.38-1.31.75-2,1.07-.73.34-1.44.67-2.26.56-.33-.04-.65-.49-.37-.76Z"/>
      </g>
      <g id="upper_Wrinkles_3" class="st0">
        <g>
          <path class="st3" d="M214.2,248.98c-4.74.1-9.41.8-14.15.87-7.18.11-14.16-1.71-21.14-2.86-12.03-1.98-23.49-5.78-35.64-7.18-8.95-1.03-20.57-1.69-29.01,1.58-3.85,1.49-7.18,2.96-10.54,5.16-.91.6-3.18,2.71-4.12,2.97-.47.13-.89,1.06-.14.87,1.2-.3,2.68-1.32,3.27-2.19,1.76-2.56,7.68-3.85,10.61-5.16,3.8-1.69,9.43-2.21,13.66-2.2,6.64.03,13.19.38,19.74,1.26,5.43.73,10.53,2.35,15.76,3.68,6.14,1.56,12.47,2.42,18.72,3.58,6.01,1.1,11.91,2.25,18.09,2.18,4.83-.05,9.97-.89,14.66-1.83.32-.07.77-.76.22-.75Z"/>
          <path class="st3" d="M184.31,248.98c4.73.1,9.41.8,14.14.87,7.19.11,14.16-1.71,21.14-2.86,12.04-1.98,23.5-5.78,35.65-7.18,8.95-1.03,20.57-1.69,29.01,1.58,3.85,1.49,7.18,2.96,10.53,5.16.91.6,3.19,2.71,4.12,2.97.47.13.89,1.06.14.87-1.2-.3-2.68-1.32-3.27-2.19-1.76-2.56-7.68-3.85-10.62-5.16-3.8-1.69-9.43-2.21-13.66-2.2-6.64.03-13.19.38-19.74,1.26-5.42.73-10.53,2.35-15.76,3.68-6.13,1.56-12.47,2.42-18.72,3.58-6.01,1.1-11.91,2.25-18.09,2.18-4.84-.05-9.97-.89-14.66-1.83-.32-.07-.77-.76-.22-.75Z"/>
        </g>
        <g>
          <path class="st3" d="M213.68,229.48c-4.73.07-9.41.53-14.14.58-7.18.07-14.16-1.13-21.14-1.88-10.92-1.18-21.37-3.34-32.29-4.41-3.33.03-6.63.24-9.9.58,3.35.13,6.68.34,10.02.63,5.42.48,10.53,1.54,15.75,2.42,6.13,1.03,12.47,1.6,18.72,2.35,6.01.73,11.91,1.48,18.09,1.44,4.84-.03,9.96-.59,14.65-1.21.32-.04.78-.5.22-.49Z"/>
          <path class="st3" d="M253.28,223.97c-1.83.04-3.65.12-5.48.17-9.65,1.15-19.01,2.97-28.73,4.03-6.98.76-13.96,1.95-21.14,1.88-4.74-.05-9.41-.51-14.15-.58-.55,0-.1.45.22.49,4.69.62,9.82,1.17,14.66,1.21,6.18.04,12.08-.71,18.09-1.44,6.25-.76,12.58-1.32,18.72-2.35,5.22-.88,10.33-1.94,15.75-2.42,3.68-.32,7.36-.53,11.06-.66-3.02-.27-6.04-.41-9.01-.34Z"/>
        </g>
        <g>
          <path class="st3" d="M218.76,213.48c-6.86-.57-13.74.56-20.61.71-7.91.17-15.69-1.01-23.51-1.88-15.01-1.69-29.39,2.14-44.28,2.51-.06,0-.13.14-.05.14,7.13.06,14.12-.94,21.21-1.51,7.79-.63,15.96-.39,23.7.64,6.43.86,12.79,1.73,19.3,1.87,8.04.18,16.07-1.27,24.05-2.05.14-.02.4-.4.19-.41Z"/>
          <path class="st3" d="M179.74,213.48c6.87-.57,13.74.56,20.61.71,7.91.17,15.69-1.01,23.51-1.88,15.01-1.69,29.39,2.14,44.28,2.51.06,0,.13.14.05.14-7.13.06-14.12-.94-21.21-1.51-7.79-.63-15.96-.39-23.7.64-6.42.86-12.78,1.73-19.29,1.87-8.04.18-16.06-1.27-24.05-2.05-.14-.02-.4-.4-.19-.41Z"/>
        </g>
      </g>
      <g id="betweenEyes_Wrinkles_2">
        <path class="st1" d="M187.74,279.06c-.18-1.76-.54-3.51-1.16-5.17-1.24-3.33-3.28-6.24-6.21-8.29-.35-.24-1.28.21-.89.63,2.25,2.39,3.96,5.37,4.96,8.49.51,1.58.88,3.2,1.01,4.86.13,1.6-.06,3.23.19,4.82.12.76,1.34.22,1.54-.19.76-1.57.73-3.44.56-5.14Z"/>
        <path class="st1" d="M212.08,279.06c.18-1.76.54-3.51,1.16-5.17,1.24-3.33,3.28-6.24,6.21-8.29.35-.24,1.28.21.89.63-2.25,2.39-3.96,5.37-4.96,8.49-.51,1.58-.88,3.2-1.01,4.86-.13,1.6.06,3.23-.19,4.82-.12.76-1.34.22-1.54-.19-.76-1.57-.73-3.44-.56-5.14Z"/>
      </g>
      <g id="betweenEyes_Wrinkles_1">
        <path class="st2" d="M181.87,316.57c3.86,2.14,5.6,7.29,6.47,11.33.93,4.32,1.51,9.26.02,13.52-.26.75-1.42.07-1.32-.58.65-4,.39-8.4-.33-12.37-.73-4-1.94-8.49-5.16-11.22-.36-.31-.24-.99.31-.68Z"/>
        <path class="st2" d="M219.26,316.97c-3.86,2.14-5.6,7.29-6.47,11.33-.93,4.32-1.51,9.26-.02,13.52.26.75,1.42.07,1.32-.58-.65-4-.39-8.4.33-12.37.73-4,1.94-8.49,5.16-11.22.36-.31.24-.99-.31-.68Z"/>
      </g>
    </g>
  </g>
</svg>