<?xml version="1.0" encoding="UTF-8"?>
<svg xmlns="http://www.w3.org/2000/svg" version="1.1" viewBox="0 0 400 600">
  <!-- Generator: Adobe Illustrator 29.5.1, SVG Export Plug-In . SVG Version: 2.1.0 Build 141)  -->
  <defs>
    <style>
      .st0 {
        isolation: isolate;
      }

      .st1 {
        mix-blend-mode: multiply;
      }

      .st1, .st2 {
        opacity: .6;
      }

      .st1, .st2, .st3 {
        fill: #673d0f;
      }
    </style>
  </defs>
  <g class="st0">
    <g id="Eye_Line_Style">
      <g id="underEye_Wrinkles_1">
        <path class="st3" d="M274.73,335.32c-4.86,2.85-10.09,5.25-15.53,6.74-4.7,1.29-9.69,2-14.56,2.1-2.49.05-5.02-.07-7.45-.63-.2-.05-.41.28-.2.39,1.94,1.02,4.23,1.28,6.39,1.31,2.31.03,4.62-.15,6.92-.43,5.54-.68,10.91-1.98,16.05-4.19,3.04-1.31,5.85-2.97,8.55-4.88.22-.15.14-.6-.17-.42Z"/>
        <path class="st3" d="M280.01,339.67c-1.3,1.61-3.13,2.69-4.92,3.67-2,1.09-4.09,2.13-6.21,2.97-2.72,1.08-5.53,1.7-8.4,2.2-2.76.49-5.6,1-8.41.86-3.01-.16-6.04-.78-8.94-1.57-.1-.03-.2.16-.1.19,2.63.73,5.07,1.98,7.79,2.4,2.86.43,5.83-.05,8.65-.53,2.99-.51,5.94-1.07,8.79-2.14,2.28-.86,4.5-1.94,6.66-3.08,2.08-1.1,4.5-2.5,5.63-4.65.23-.43-.27-.63-.55-.29Z"/>
        <path class="st3" d="M125.02,335.32c4.86,2.85,10.09,5.25,15.53,6.74,4.7,1.29,9.69,2,14.56,2.1,2.49.05,5.02-.07,7.45-.63.2-.05.41.28.2.39-1.94,1.02-4.23,1.28-6.39,1.31-2.31.03-4.62-.15-6.92-.43-5.54-.68-10.91-1.98-16.05-4.19-3.04-1.31-5.85-2.97-8.55-4.88-.22-.15-.14-.6.17-.42Z"/>
        <path class="st3" d="M119.75,339.67c1.3,1.61,3.13,2.69,4.92,3.67,2,1.09,4.09,2.13,6.21,2.97,2.72,1.08,5.53,1.7,8.4,2.2,2.76.49,5.6,1,8.41.86,3.01-.16,6.04-.78,8.94-1.57.1-.03.2.16.1.19-2.63.73-5.07,1.98-7.79,2.4-2.86.43-5.83-.05-8.65-.53-2.99-.51-5.94-1.07-8.79-2.14-2.28-.86-4.5-1.94-6.66-3.08-2.08-1.1-4.5-2.5-5.63-4.65-.23-.43.27-.63.55-.29Z"/>
      </g>
      <g id="eye_Wrinkles_1">
        <g id="wrinkles">
          <path class="st3" d="M110.31,296.94c-.94-.79-2.18-.96-3.33-1.03-1.32-.08-2.65-.01-3.98.05-2.37.1-5.24.4-7.39-.98-1.22-.79-2.15-1.97-2.41-3.55-.03-.21-.35-.02-.33.16.2,1.41.5,2.82,1.45,3.84.84.88,2.04,1.3,3.15,1.5,2.73.49,5.51.05,8.26.1,1.38.02,2.76.21,4.1.59.28.08.79-.38.46-.66Z"/>
          <path class="st3" d="M108.7,300.08c-1.06-.7-2.36-.89-3.58-.91-1.29-.02-2.58.14-3.85.34-2.51.4-5.06.99-7.6.67-1.56-.2-3.04-.76-4.44-1.55-.15-.08-.4.14-.25.3,4.05,4.3,10.04,1.67,14.89,1.4,1.53-.09,3.03.12,4.56.26.18.02.53-.35.28-.51Z"/>
          <path class="st3" d="M108.29,304.1c-1.45-.34-2.99-.1-4.43.25-1.53.37-3.03.89-4.53,1.38-1.47.48-2.93.99-4.34,1.65-1.38.65-2.72,1.41-4.06,2.15-1.54.85-3.07,1.7-4.61,2.53-.14.08-.2.38.02.32,2.79-.77,5.37-2.37,7.99-3.63,2.76-1.33,5.68-2.25,8.59-3.07,1.73-.49,3.46-.8,5.22-1.07.17-.03.43-.43.15-.5Z"/>
          <path class="st3" d="M110.43,308.11c-.64-.51-1.57-.66-2.33-.76-.9-.12-1.81-.08-2.7.02-1.89.22-3.75.73-5.54,1.42-3.8,1.46-7.36,3.86-10.08,7.18-1.49,1.82-2.81,3.82-4.42,5.52-.17.18.05.38.22.24,1.51-1.25,2.77-2.82,4.06-4.35,1.35-1.59,2.79-2.95,4.45-4.13,3.1-2.2,6.6-3.79,10.23-4.46.97-.18,1.93-.27,2.91-.3.5-.01.99,0,1.48.02.48.03.94.13,1.41.14.2,0,.56-.35.31-.56Z"/>
        </g>
        <g id="wrinkles1" data-name="wrinkles">
          <path class="st3" d="M290.04,296.6c.94-.79,2.18-.96,3.33-1.03,1.32-.08,2.65-.01,3.98.05,2.37.1,5.24.4,7.39-.98,1.22-.79,2.15-1.97,2.41-3.55.03-.21.35-.02.33.16-.2,1.41-.5,2.82-1.45,3.84-.84.88-2.04,1.3-3.15,1.5-2.73.49-5.51.05-8.26.1-1.38.02-2.76.21-4.1.59-.28.08-.79-.38-.46-.66Z"/>
          <path class="st3" d="M291.65,299.74c1.06-.7,2.36-.89,3.58-.91,1.29-.02,2.58.14,3.85.34,2.51.4,5.06.99,7.6.67,1.56-.2,3.04-.76,4.44-1.55.15-.08.4.14.25.3-4.05,4.3-10.04,1.67-14.89,1.4-1.53-.09-3.03.12-4.56.26-.18.02-.53-.35-.28-.51Z"/>
          <path class="st3" d="M292.05,303.76c1.45-.34,2.99-.1,4.43.25,1.53.37,3.03.89,4.53,1.38,1.47.48,2.93.99,4.34,1.65,1.38.65,2.72,1.41,4.06,2.15,1.54.85,3.07,1.7,4.61,2.53.14.08.2.38-.02.32-2.79-.77-5.37-2.37-7.99-3.63-2.76-1.33-5.68-2.25-8.59-3.07-1.73-.49-3.46-.8-5.22-1.07-.17-.03-.43-.43-.15-.5Z"/>
          <path class="st3" d="M289.91,307.77c.64-.51,1.57-.66,2.33-.76.9-.12,1.81-.08,2.7.02,1.89.22,3.75.73,5.54,1.42,3.8,1.46,7.36,3.86,10.08,7.18,1.49,1.82,2.81,3.82,4.42,5.52.17.18-.05.38-.22.24-1.51-1.25-2.77-2.82-4.06-4.35-1.35-1.59-2.79-2.95-4.45-4.13-3.1-2.2-6.6-3.79-10.23-4.46-.97-.18-1.93-.27-2.91-.3-.5-.01-.99,0-1.48.02-.48.03-.94.13-1.41.14-.2,0-.56-.35-.31-.56Z"/>
        </g>
      </g>
      <g id="upper_Wrinkles_1">
        <path class="st3" d="M289.69,247.83c-3.21-6.57-15.48-10.03-25.44-13.24-6.02-1.94-12.16-3.64-18.87-4.77-6.78-1.14-13.99-1.76-21.08-1.33-4.08.24-8.11.68-12.19.89-4.18.22-8.41.31-12.6.12-8.04-.37-15.47-2.26-23.5-2.64-7.63-.36-15.34.23-22.75,1.22-3.68.49-7.32,1.09-10.91,1.76-3.19.59-6.4,1.17-9.43,1.99-10.88,2.93-20.69,8.6-21.77,15.43-.13.8-.05,1.63.08,2.43,0,.05.17,0,.16-.03-.32-7.02,8.34-13.13,19.06-16.56,2.74-.88,5.64-1.53,8.63-2.11,3.48-.68,7-1.31,10.56-1.85,7.28-1.11,14.82-1.88,22.4-1.8,3.69.04,7.38.29,10.95.8,3.87.56,7.67,1.22,11.61,1.61,7.88.78,15.94.38,23.81-.23,3.62-.28,7.17-.62,10.84-.58,3.58.04,7.14.3,10.63.74,6.89.85,13.53,2.31,19.67,4.2,5.19,1.59,10.42,3.24,15.31,5.09,4.81,1.82,9.32,4,12.21,6.8.74.72,1.45,1.42,1.99,2.2.13.18.69.02.61-.14Z"/>
        <path class="st3" d="M284.32,235.9c-1.36-1.6-4.12-2.78-6.43-3.97-2.84-1.47-5.93-2.77-9.26-3.89-6.41-2.17-13.29-4.11-20.56-5.27-7.53-1.2-15.62-1.84-23.46-1.7-4,.07-7.98.36-11.94.67-4.05.32-8.1.7-12.2.73-4.03.03-7.84-.35-11.72-.9-3.49-.5-6.99-.99-10.62-1.04-5.1-.06-10.25.13-15.32.42-10.48.61-21.11,1.87-30.61,4.41-8.94,2.39-16.92,6.1-20.9,11.17-.51.65-.92,1.31-1.26,1.99-.04.09.19.06.23,0,1.82-2.61,4.35-5.03,7.86-7.08,3.38-1.98,7.48-3.6,11.84-4.89,9.12-2.7,19.4-4.1,29.64-4.83,4.98-.36,10-.55,15.02-.6,3.29-.03,6.47.08,9.68.48,3.48.44,6.89,1.06,10.45,1.3,7.83.53,15.52-.51,23.25-1.05,8.06-.56,16.1-.26,24.04.65,7.56.87,14.56,2.44,21.3,4.49,6.36,1.94,12.33,4.27,17.49,7.09,1.11.6,2.18,1.26,2.93,2.02.16.16.69-.05.56-.21Z"/>
        <path class="st3" d="M274.76,222.96c-8.72-3.14-18.46-5.47-28.76-6.54-5.33-.55-10.77-.76-16.19-.63-5.84.14-11.63.62-17.43,1.02-5.91.41-11.81.74-17.75.35-5.69-.37-11.23-1.21-16.84-1.83-5.64-.63-11.37-.95-17.13-.8-5.7.15-11.36.71-16.83,1.58-5.39.86-10.48,2.18-15.36,3.68-2.32.72-4.52,1.48-6.53,2.43-1.9.9-3.65,1.89-5.39,2.88-.91.51-1.82,1.02-2.77,1.52-.1.05.03.11.13.07,3.86-1.8,7.19-3.96,11.48-5.48,2.31-.82,4.82-1.51,7.3-2.18,2.52-.67,5.08-1.3,7.72-1.81,10.77-2.12,22.63-2.72,33.91-1.65,5.53.52,10.95,1.36,16.48,1.87,2.71.25,5.46.43,8.21.47,2.81.04,5.61-.1,8.4-.25,5.87-.33,11.7-.86,17.57-1.15,5.49-.27,11.01-.28,16.48.1,10.35.73,20.26,2.82,29.33,5.59,1.15.35,2.3.7,3.43,1.06.3.1.85-.17.52-.3Z"/>
        <path class="st3" d="M212.69,209.93c-2.44.21-4.87.44-7.32.59-2.45.15-4.92.24-7.39.25-2.4.02-4.78-.06-7.18-.15-2.02-.08-4.05-.11-6.07-.23-2.29-.13-4.55-.41-6.61-.99-.11-.03-.31.06-.19.11,1.57.68,3.56.99,5.52,1.16,2.04.18,4.11.23,6.17.31,2.39.09,4.76.21,7.16.21,2.48,0,4.95-.07,7.41-.2,2.84-.15,5.68-.37,8.45-.75.34-.05.5-.35.04-.31Z"/>
      </g>
      <g id="betweenEyes_Wrinkles_2">
        <path class="st1" d="M187.74,279.06c-.18-1.76-.54-3.51-1.16-5.17-1.24-3.33-3.28-6.24-6.21-8.29-.35-.24-1.28.21-.89.63,2.25,2.39,3.96,5.37,4.96,8.49.51,1.58.88,3.2,1.01,4.86.13,1.6-.06,3.23.19,4.82.12.76,1.34.22,1.54-.19.76-1.57.73-3.44.56-5.14Z"/>
        <path class="st1" d="M212.08,279.06c.18-1.76.54-3.51,1.16-5.17,1.24-3.33,3.28-6.24,6.21-8.29.35-.24,1.28.21.89.63-2.25,2.39-3.96,5.37-4.96,8.49-.51,1.58-.88,3.2-1.01,4.86-.13,1.6.06,3.23-.19,4.82-.12.76-1.34.22-1.54-.19-.76-1.57-.73-3.44-.56-5.14Z"/>
      </g>
      <g id="betweenEyes_Wrinkles_1">
        <path class="st2" d="M181.87,316.57c3.86,2.14,5.6,7.29,6.47,11.33.93,4.32,1.51,9.26.02,13.52-.26.75-1.42.07-1.32-.58.65-4,.39-8.4-.33-12.37-.73-4-1.94-8.49-5.16-11.22-.36-.31-.24-.99.31-.68Z"/>
        <path class="st2" d="M219.26,316.97c-3.86,2.14-5.6,7.29-6.47,11.33-.93,4.32-1.51,9.26-.02,13.52.26.75,1.42.07,1.32-.58-.65-4-.39-8.4.33-12.37.73-4,1.94-8.49,5.16-11.22.36-.31.24-.99-.31-.68Z"/>
      </g>
    </g>
  </g>
</svg>