<?xml version="1.0" encoding="UTF-8"?>
<svg xmlns="http://www.w3.org/2000/svg" version="1.1" viewBox="0 0 400 600">
  <!-- Generator: Adobe Illustrator 29.5.1, SVG Export Plug-In . SVG Version: 2.1.0 Build 141)  -->
  <defs>
    <style>
      .st0 {
        isolation: isolate;
      }

      .st1 {
        mix-blend-mode: multiply;
      }

      .st1, .st2 {
        opacity: .6;
      }

      .st1, .st2, .st3 {
        fill: #673d0f;
      }
    </style>
  </defs>
  <g class="st0">
    <g id="Eye_Line_Style">
      <g id="underEye_Wrinkles_3">
        <path class="st2" d="M295.01,338.06c-6.76,5.35-15.01,8.48-23.62,8.94-4.19.23-8.4-.13-12.48-1.12-4.57-1.11-8.69-3.18-12.69-5.61-2.91-1.76-7.73-5.9-11.16-3.14-.26.21-.06.48.22.32,2.04-1.16,4.57.49,6.28,1.58,1.95,1.24,3.89,2.49,5.89,3.65,3.9,2.25,8.02,3.85,12.45,4.68,7.96,1.49,16.31.85,23.91-1.96,4.28-1.58,8.22-3.87,11.61-6.93.33-.3-.09-.66-.41-.4Z"/>
        <path class="st2" d="M283.12,358.13c-8.51,2.14-17.32,3.1-25.78.18-4.07-1.4-7.64-3.72-10.84-6.57-2.97-2.64-5.56-5.65-8.4-8.41-3.11-3.02-6.68-6.19-10.88-7.53-.13-.04-.38.18-.22.29,3.6,2.33,6.91,4.69,9.93,7.77,2.8,2.85,5.47,5.85,8.43,8.55,3.18,2.89,6.72,5.26,10.76,6.76,4.07,1.51,8.44,2.17,12.77,2.16,4.85,0,9.78-.79,14.27-2.66.28-.12.36-.63-.05-.53Z"/>
        <path class="st2" d="M103.97,338.06c6.76,5.35,15.01,8.48,23.62,8.94,4.19.23,8.4-.13,12.48-1.12,4.57-1.11,8.69-3.18,12.69-5.61,2.91-1.76,7.73-5.9,11.16-3.14.26.21.06.48-.22.32-2.04-1.16-4.57.49-6.28,1.58-1.95,1.24-3.89,2.49-5.89,3.65-3.9,2.25-8.02,3.85-12.45,4.68-7.96,1.49-16.31.85-23.91-1.96-4.28-1.58-8.22-3.87-11.61-6.93-.33-.3.09-.66.41-.4Z"/>
        <path class="st2" d="M115.85,358.13c8.51,2.14,17.32,3.1,25.78.18,4.07-1.4,7.64-3.72,10.84-6.57,2.97-2.64,5.56-5.65,8.4-8.41,3.11-3.02,6.68-6.19,10.88-7.53.13-.04.38.18.22.29-3.6,2.33-6.91,4.69-9.93,7.77-2.8,2.85-5.47,5.85-8.43,8.55-3.18,2.89-6.72,5.26-10.76,6.76-4.07,1.51-8.44,2.17-12.77,2.16-4.85,0-9.78-.79-14.27-2.66-.28-.12-.36-.63.05-.53Z"/>
      </g>
      <g id="eye_Wrinkles_2">
        <path class="st3" d="M85.67,309.01c3.05-3.06,6.76-5.63,10.6-7.37,4.64-2.11,10.03-1.77,14.93-1.24.35.04.61.67.14.72-2.49.28-4.99.25-7.48.45-2.36.19-4.74.6-7.02,1.26-1.99.58-3.83,1.54-5.57,2.72-1.8,1.22-3.45,2.66-5.25,3.87-.21.14-.57-.2-.36-.4Z"/>
        <path class="st3" d="M94.21,308.68c.66-1.11,1.88-1.72,2.98-2.24,1.18-.56,2.42-.97,3.69-1.25,2.53-.56,5.13-.55,7.69-.19.23.03.43.49.1.51-2.41.11-4.84.32-7.19.9-1.16.29-2.3.68-3.39,1.21-1.1.54-2.09,1.34-3.23,1.78-.33.13-.86-.35-.64-.71Z"/>
        <path class="st3" d="M89.97,319.28c1.35-3.25,3.96-5.59,6.78-7.35,2.9-1.82,6.07-3.08,9.34-3.88,1.84-.45,3.67-.65,5.56-.7.1,0,.26.2.11.25-6.11,1.82-12.3,3.57-17.31,7.93-1.42,1.24-2.69,2.64-3.91,4.1-.18.22-.69-.06-.57-.35Z"/>
        <path class="st3" d="M98.57,319.31c.49-.49,1.27-.64,1.87-.92.68-.32,1.34-.67,2.01-1.01,1.3-.67,2.59-1.25,4.03-1.48.25-.04.58.46.25.56-1.37.41-2.62,1.21-3.84,1.98-.61.38-1.23.75-1.87,1.07-.68.34-1.34.67-2.11.56-.31-.04-.61-.49-.34-.76Z"/>
        <path class="st3" d="M314.09,308.42c-3.05-3.06-6.76-5.63-10.6-7.37-4.64-2.11-10.03-1.77-14.93-1.24-.35.04-.61.67-.14.72,2.49.28,4.99.25,7.48.45,2.36.19,4.74.6,7.02,1.26,1.99.58,3.83,1.54,5.57,2.72,1.8,1.22,3.45,2.66,5.25,3.87.21.14.57-.2.36-.4Z"/>
        <path class="st3" d="M305.55,308.08c-.66-1.11-1.88-1.72-2.98-2.24-1.18-.56-2.42-.97-3.69-1.25-2.53-.56-5.13-.55-7.69-.19-.23.03-.43.49-.1.51,2.41.11,4.84.32,7.19.9,1.16.29,2.3.68,3.39,1.21,1.1.54,2.09,1.34,3.23,1.78.33.13.86-.35.64-.71Z"/>
        <path class="st3" d="M309.79,318.68c-1.35-3.25-3.96-5.59-6.78-7.35-2.9-1.82-6.07-3.08-9.34-3.88-1.84-.45-3.67-.65-5.56-.7-.1,0-.26.2-.11.25,6.11,1.82,12.3,3.57,17.31,7.93,1.42,1.24,2.69,2.64,3.91,4.1.18.22.69-.06.57-.35Z"/>
        <path class="st3" d="M301.19,318.72c-.49-.49-1.27-.64-1.87-.92-.68-.32-1.34-.67-2.01-1.01-1.3-.67-2.59-1.25-4.03-1.48-.25-.04-.58.46-.25.56,1.37.41,2.62,1.21,3.84,1.98.61.38,1.23.75,1.87,1.07.68.34,1.34.67,2.11.56.31-.04.61-.49.34-.76Z"/>
      </g>
      <g id="upper_Wrinkles_1">
        <path class="st3" d="M289.69,247.83c-3.21-6.57-15.48-10.03-25.44-13.24-6.02-1.94-12.16-3.64-18.87-4.77-6.78-1.14-13.99-1.76-21.08-1.33-4.08.24-8.11.68-12.19.89-4.18.22-8.41.31-12.6.12-8.04-.37-15.47-2.26-23.5-2.64-7.63-.36-15.34.23-22.75,1.22-3.68.49-7.32,1.09-10.91,1.76-3.19.59-6.4,1.17-9.43,1.99-10.88,2.93-20.69,8.6-21.77,15.43-.13.8-.05,1.63.08,2.43,0,.05.17,0,.16-.03-.32-7.02,8.34-13.13,19.06-16.56,2.74-.88,5.64-1.53,8.63-2.11,3.48-.68,7-1.31,10.56-1.85,7.28-1.11,14.82-1.88,22.4-1.8,3.69.04,7.38.29,10.95.8,3.87.56,7.67,1.22,11.61,1.61,7.88.78,15.94.38,23.81-.23,3.62-.28,7.17-.62,10.84-.58,3.58.04,7.14.3,10.63.74,6.89.85,13.53,2.31,19.67,4.2,5.19,1.59,10.42,3.24,15.31,5.09,4.81,1.82,9.32,4,12.21,6.8.74.72,1.45,1.42,1.99,2.2.13.18.69.02.61-.14Z"/>
        <path class="st3" d="M284.32,235.9c-1.36-1.6-4.12-2.78-6.43-3.97-2.84-1.47-5.93-2.77-9.26-3.89-6.41-2.17-13.29-4.11-20.56-5.27-7.53-1.2-15.62-1.84-23.46-1.7-4,.07-7.98.36-11.94.67-4.05.32-8.1.7-12.2.73-4.03.03-7.84-.35-11.72-.9-3.49-.5-6.99-.99-10.62-1.04-5.1-.06-10.25.13-15.32.42-10.48.61-21.11,1.87-30.61,4.41-8.94,2.39-16.92,6.1-20.9,11.17-.51.65-.92,1.31-1.26,1.99-.04.09.19.06.23,0,1.82-2.61,4.35-5.03,7.86-7.08,3.38-1.98,7.48-3.6,11.84-4.89,9.12-2.7,19.4-4.1,29.64-4.83,4.98-.36,10-.55,15.02-.6,3.29-.03,6.47.08,9.68.48,3.48.44,6.89,1.06,10.45,1.3,7.83.53,15.52-.51,23.25-1.05,8.06-.56,16.1-.26,24.04.65,7.56.87,14.56,2.44,21.3,4.49,6.36,1.94,12.33,4.27,17.49,7.09,1.11.6,2.18,1.26,2.93,2.02.16.16.69-.05.56-.21Z"/>
        <path class="st3" d="M274.76,222.96c-8.72-3.14-18.46-5.47-28.76-6.54-5.33-.55-10.77-.76-16.19-.63-5.84.14-11.63.62-17.43,1.02-5.91.41-11.81.74-17.75.35-5.69-.37-11.23-1.21-16.84-1.83-5.64-.63-11.37-.95-17.13-.8-5.7.15-11.36.71-16.83,1.58-5.39.86-10.48,2.18-15.36,3.68-2.32.72-4.52,1.48-6.53,2.43-1.9.9-3.65,1.89-5.39,2.88-.91.51-1.82,1.02-2.77,1.52-.1.05.03.11.13.07,3.86-1.8,7.19-3.96,11.48-5.48,2.31-.82,4.82-1.51,7.3-2.18,2.52-.67,5.08-1.3,7.72-1.81,10.77-2.12,22.63-2.72,33.91-1.65,5.53.52,10.95,1.36,16.48,1.87,2.71.25,5.46.43,8.21.47,2.81.04,5.61-.1,8.4-.25,5.87-.33,11.7-.86,17.57-1.15,5.49-.27,11.01-.28,16.48.1,10.35.73,20.26,2.82,29.33,5.59,1.15.35,2.3.7,3.43,1.06.3.1.85-.17.52-.3Z"/>
        <path class="st3" d="M212.69,209.93c-2.44.21-4.87.44-7.32.59-2.45.15-4.92.24-7.39.25-2.4.02-4.78-.06-7.18-.15-2.02-.08-4.05-.11-6.07-.23-2.29-.13-4.55-.41-6.61-.99-.11-.03-.31.06-.19.11,1.57.68,3.56.99,5.52,1.16,2.04.18,4.11.23,6.17.31,2.39.09,4.76.21,7.16.21,2.48,0,4.95-.07,7.41-.2,2.84-.15,5.68-.37,8.45-.75.34-.05.5-.35.04-.31Z"/>
      </g>
      <g id="betweenEyes_Wrinkles_2">
        <path class="st1" d="M187.74,279.06c-.18-1.76-.54-3.51-1.16-5.17-1.24-3.33-3.28-6.24-6.21-8.29-.35-.24-1.28.21-.89.63,2.25,2.39,3.96,5.37,4.96,8.49.51,1.58.88,3.2,1.01,4.86.13,1.6-.06,3.23.19,4.82.12.76,1.34.22,1.54-.19.76-1.57.73-3.44.56-5.14Z"/>
        <path class="st1" d="M212.08,279.06c.18-1.76.54-3.51,1.16-5.17,1.24-3.33,3.28-6.24,6.21-8.29.35-.24,1.28.21.89.63-2.25,2.39-3.96,5.37-4.96,8.49-.51,1.58-.88,3.2-1.01,4.86-.13,1.6.06,3.23-.19,4.82-.12.76-1.34.22-1.54-.19-.76-1.57-.73-3.44-.56-5.14Z"/>
      </g>
      <g id="betweenEyes_Wrinkles_1">
        <path class="st2" d="M181.87,316.57c3.86,2.14,5.6,7.29,6.47,11.33.93,4.32,1.51,9.26.02,13.52-.26.75-1.42.07-1.32-.58.65-4,.39-8.4-.33-12.37-.73-4-1.94-8.49-5.16-11.22-.36-.31-.24-.99.31-.68Z"/>
        <path class="st2" d="M219.26,316.97c-3.86,2.14-5.6,7.29-6.47,11.33-.93,4.32-1.51,9.26-.02,13.52.26.75,1.42.07,1.32-.58-.65-4-.39-8.4.33-12.37.73-4,1.94-8.49,5.16-11.22.36-.31.24-.99-.31-.68Z"/>
      </g>
    </g>
  </g>
</svg>