<?xml version="1.0" encoding="UTF-8"?>
<svg id="Eye_Line_Style" xmlns="http://www.w3.org/2000/svg" version="1.1" viewBox="0 0 400 600">
  <!-- Generator: Adobe Illustrator 29.5.1, SVG Export Plug-In . SVG Version: 2.1.0 Build 141)  -->
  <defs>
    <style>
      .st0 {
        opacity: .6;
      }

      .st1 {
        fill: #a96f53;
      }
    </style>
  </defs>
  <g id="underEye_Wrinkles_1">
    <path class="st1" d="M274.73,335.32c-4.86,2.85-10.09,5.25-15.53,6.74-4.7,1.29-9.69,2-14.56,2.1-2.49.05-5.02-.07-7.45-.63-.2-.05-.41.28-.2.39,1.94,1.02,4.23,1.28,6.39,1.31,2.31.03,4.62-.15,6.92-.43,5.54-.68,10.91-1.98,16.05-4.19,3.04-1.31,5.85-2.97,8.55-4.88.22-.15.14-.6-.17-.42Z"/>
    <path class="st1" d="M280.01,339.67c-1.3,1.61-3.13,2.69-4.92,3.67-2,1.09-4.09,2.13-6.21,2.97-2.72,1.08-5.53,1.7-8.4,2.2-2.76.49-5.6,1-8.41.86-3.01-.16-6.04-.78-8.94-1.57-.1-.03-.2.16-.1.19,2.63.73,5.07,1.98,7.79,2.4,2.86.43,5.83-.05,8.65-.53,2.99-.51,5.94-1.07,8.79-2.14,2.28-.86,4.5-1.94,6.66-3.08,2.08-1.1,4.5-2.5,5.63-4.65.23-.43-.27-.63-.55-.29Z"/>
    <path class="st1" d="M125.02,335.32c4.86,2.85,10.09,5.25,15.53,6.74,4.7,1.29,9.69,2,14.56,2.1,2.49.05,5.02-.07,7.45-.63.2-.05.41.28.2.39-1.94,1.02-4.23,1.28-6.39,1.31-2.31.03-4.62-.15-6.92-.43-5.54-.68-10.91-1.98-16.05-4.19-3.04-1.31-5.85-2.97-8.55-4.88-.22-.15-.14-.6.17-.42Z"/>
    <path class="st1" d="M119.75,339.67c1.3,1.61,3.13,2.69,4.92,3.67,2,1.09,4.09,2.13,6.21,2.97,2.72,1.08,5.53,1.7,8.4,2.2,2.76.49,5.6,1,8.41.86,3.01-.16,6.04-.78,8.94-1.57.1-.03.2.16.1.19-2.63.73-5.07,1.98-7.79,2.4-2.86.43-5.83-.05-8.65-.53-2.99-.51-5.94-1.07-8.79-2.14-2.28-.86-4.5-1.94-6.66-3.08-2.08-1.1-4.5-2.5-5.63-4.65-.23-.43.27-.63.55-.29Z"/>
  </g>
  <g id="eye_Wrinkles_1">
    <g id="wrinkles">
      <path class="st1" d="M99.87,296.94c-1.05-.79-2.44-.96-3.72-1.03-1.48-.08-2.96-.01-4.44.05-2.64.1-5.85.4-8.24-.98-1.36-.79-2.4-1.97-2.69-3.55-.04-.21-.4-.02-.37.16.23,1.41.56,2.82,1.62,3.84.93.88,2.28,1.3,3.52,1.5,3.05.49,6.15.05,9.22.1,1.54.02,3.08.21,4.58.59.31.08.88-.38.51-.66Z"/>
      <path class="st1" d="M98.08,300.08c-1.18-.7-2.64-.89-4-.91-1.44-.02-2.88.14-4.3.34-2.8.4-5.65.99-8.49.67-1.75-.2-3.39-.76-4.96-1.55-.17-.08-.45.14-.28.3,4.52,4.3,11.21,1.67,16.62,1.4,1.71-.09,3.39.12,5.09.26.2.02.59-.35.32-.51Z"/>
      <path class="st1" d="M97.62,304.1c-1.62-.34-3.34-.1-4.94.25-1.71.37-3.38.89-5.06,1.38-1.65.48-3.27.99-4.85,1.65-1.54.65-3.04,1.41-4.54,2.15-1.71.85-3.43,1.7-5.15,2.53-.16.08-.22.38.03.32,3.12-.77,5.99-2.37,8.92-3.63,3.08-1.33,6.34-2.25,9.59-3.07,1.93-.49,3.86-.8,5.83-1.07.19-.03.48-.43.17-.5Z"/>
      <path class="st1" d="M100.01,308.11c-.71-.51-1.75-.66-2.6-.76-1-.12-2.02-.08-3.02.02-2.11.22-4.18.73-6.18,1.42-4.24,1.46-8.22,3.86-11.25,7.18-1.67,1.82-3.13,3.82-4.94,5.52-.19.18.05.38.24.24,1.69-1.25,3.09-2.82,4.53-4.35,1.51-1.59,3.12-2.95,4.97-4.13,3.46-2.2,7.37-3.79,11.42-4.46,1.08-.18,2.16-.27,3.25-.3.55-.01,1.1,0,1.66.02.53.03,1.05.13,1.58.14.23,0,.63-.35.35-.56Z"/>
    </g>
    <g id="wrinkles1" data-name="wrinkles">
      <path class="st1" d="M300.53,296.6c1.05-.79,2.44-.96,3.72-1.03,1.48-.08,2.96-.01,4.44.05,2.64.1,5.85.4,8.24-.98,1.36-.79,2.4-1.97,2.69-3.55.04-.21.4-.02.37.16-.23,1.41-.56,2.82-1.62,3.84-.93.88-2.28,1.3-3.52,1.5-3.05.49-6.15.05-9.22.1-1.54.02-3.08.21-4.58.59-.31.08-.88-.38-.51-.66Z"/>
      <path class="st1" d="M302.33,299.74c1.18-.7,2.64-.89,4-.91,1.44-.02,2.88.14,4.3.34,2.8.4,5.65.99,8.49.67,1.75-.2,3.39-.76,4.96-1.55.17-.08.45.14.28.3-4.52,4.3-11.21,1.67-16.62,1.4-1.71-.09-3.39.12-5.09.26-.2.02-.59-.35-.32-.51Z"/>
      <path class="st1" d="M302.78,303.76c1.62-.34,3.34-.1,4.94.25,1.71.37,3.38.89,5.06,1.38,1.65.48,3.27.99,4.85,1.65,1.54.65,3.04,1.41,4.54,2.15,1.71.85,3.43,1.7,5.15,2.53.16.08.22.38-.03.32-3.12-.77-5.99-2.37-8.92-3.63-3.08-1.33-6.34-2.25-9.59-3.07-1.93-.49-3.86-.8-5.83-1.07-.19-.03-.48-.43-.17-.5Z"/>
      <path class="st1" d="M300.39,307.77c.71-.51,1.75-.66,2.6-.76,1-.12,2.02-.08,3.02.02,2.11.22,4.18.73,6.18,1.42,4.24,1.46,8.22,3.86,11.25,7.18,1.67,1.82,3.13,3.82,4.94,5.52.19.18-.05.38-.24.24-1.69-1.25-3.09-2.82-4.53-4.35-1.51-1.59-3.12-2.95-4.97-4.13-3.46-2.2-7.37-3.79-11.42-4.46-1.08-.18-2.16-.27-3.25-.3-.55-.01-1.1,0-1.66.02-.53.03-1.05.13-1.58.14-.23,0-.63-.35-.35-.56Z"/>
    </g>
  </g>
  <g id="upper_Wrinkles_3" class="st0">
    <g>
      <path class="st1" d="M214.2,248.98c-4.74.1-9.41.8-14.15.87-7.18.11-14.16-1.71-21.14-2.86-12.03-1.98-23.49-5.78-35.64-7.18-8.95-1.03-20.57-1.69-29.01,1.58-3.85,1.49-7.18,2.96-10.54,5.16-.91.6-3.18,2.71-4.12,2.97-.47.13-.89,1.06-.14.87,1.2-.3,2.68-1.32,3.27-2.19,1.76-2.56,7.68-3.85,10.61-5.16,3.8-1.69,9.43-2.21,13.66-2.2,6.64.03,13.19.38,19.74,1.26,5.43.73,10.53,2.35,15.76,3.68,6.14,1.56,12.47,2.42,18.72,3.58,6.01,1.1,11.91,2.25,18.09,2.18,4.83-.05,9.97-.89,14.66-1.83.32-.07.77-.76.22-.75Z"/>
      <path class="st1" d="M184.31,248.98c4.73.1,9.41.8,14.14.87,7.19.11,14.16-1.71,21.14-2.86,12.04-1.98,23.5-5.78,35.65-7.18,8.95-1.03,20.57-1.69,29.01,1.58,3.85,1.49,7.18,2.96,10.53,5.16.91.6,3.19,2.71,4.12,2.97.47.13.89,1.06.14.87-1.2-.3-2.68-1.32-3.27-2.19-1.76-2.56-7.68-3.85-10.62-5.16-3.8-1.69-9.43-2.21-13.66-2.2-6.64.03-13.19.38-19.74,1.26-5.42.73-10.53,2.35-15.76,3.68-6.13,1.56-12.47,2.42-18.72,3.58-6.01,1.1-11.91,2.25-18.09,2.18-4.84-.05-9.97-.89-14.66-1.83-.32-.07-.77-.76-.22-.75Z"/>
    </g>
    <g>
      <path class="st1" d="M213.68,229.48c-4.73.07-9.41.53-14.14.58-7.18.07-14.16-1.13-21.14-1.88-10.92-1.18-21.37-3.34-32.29-4.41-3.33.03-6.63.24-9.9.58,3.35.13,6.68.34,10.02.63,5.42.48,10.53,1.54,15.75,2.42,6.13,1.03,12.47,1.6,18.72,2.35,6.01.73,11.91,1.48,18.09,1.44,4.84-.03,9.96-.59,14.65-1.21.32-.04.78-.5.22-.49Z"/>
      <path class="st1" d="M253.28,223.97c-1.83.04-3.65.12-5.48.17-9.65,1.15-19.01,2.97-28.73,4.03-6.98.76-13.96,1.95-21.14,1.88-4.74-.05-9.41-.51-14.15-.58-.55,0-.1.45.22.49,4.69.62,9.82,1.17,14.66,1.21,6.18.04,12.08-.71,18.09-1.44,6.25-.76,12.58-1.32,18.72-2.35,5.22-.88,10.33-1.94,15.75-2.42,3.68-.32,7.36-.53,11.06-.66-3.02-.27-6.04-.41-9.01-.34Z"/>
    </g>
    <g>
      <path class="st1" d="M218.76,213.48c-6.86-.57-13.74.56-20.61.71-7.91.17-15.69-1.01-23.51-1.88-15.01-1.69-29.39,2.14-44.28,2.51-.06,0-.13.14-.05.14,7.13.06,14.12-.94,21.21-1.51,7.79-.63,15.96-.39,23.7.64,6.43.86,12.79,1.73,19.3,1.87,8.04.18,16.07-1.27,24.05-2.05.14-.02.4-.4.19-.41Z"/>
      <path class="st1" d="M179.74,213.48c6.87-.57,13.74.56,20.61.71,7.91.17,15.69-1.01,23.51-1.88,15.01-1.69,29.39,2.14,44.28,2.51.06,0,.13.14.05.14-7.13.06-14.12-.94-21.21-1.51-7.79-.63-15.96-.39-23.7.64-6.42.86-12.78,1.73-19.29,1.87-8.04.18-16.06-1.27-24.05-2.05-.14-.02-.4-.4-.19-.41Z"/>
    </g>
  </g>
</svg>