<?xml version="1.0" encoding="UTF-8"?>
<svg id="Eye_Line_Style" xmlns="http://www.w3.org/2000/svg" version="1.1" viewBox="0 0 400 600">
  <!-- Generator: Adobe Illustrator 29.5.1, SVG Export Plug-In . SVG Version: 2.1.0 Build 141)  -->
  <defs>
    <style>
      .st0, .st1 {
        opacity: .6;
      }

      .st1, .st2 {
        fill: #a96f53;
      }
    </style>
  </defs>
  <g id="underEye_Wrinkles_3">
    <path class="st1" d="M295.01,338.06c-6.76,5.35-15.01,8.48-23.62,8.94-4.19.23-8.4-.13-12.48-1.12-4.57-1.11-8.69-3.18-12.69-5.61-2.91-1.76-7.73-5.9-11.16-3.14-.26.21-.06.48.22.32,2.04-1.16,4.57.49,6.28,1.58,1.95,1.24,3.89,2.49,5.89,3.65,3.9,2.25,8.02,3.85,12.45,4.68,7.96,1.49,16.31.85,23.91-1.96,4.28-1.58,8.22-3.87,11.61-6.93.33-.3-.09-.66-.41-.4Z"/>
    <path class="st1" d="M283.12,358.13c-8.51,2.14-17.32,3.1-25.78.18-4.07-1.4-7.64-3.72-10.84-6.57-2.97-2.64-5.56-5.65-8.4-8.41-3.11-3.02-6.68-6.19-10.88-7.53-.13-.04-.38.18-.22.29,3.6,2.33,6.91,4.69,9.93,7.77,2.8,2.85,5.47,5.85,8.43,8.55,3.18,2.89,6.72,5.26,10.76,6.76,4.07,1.51,8.44,2.17,12.77,2.16,4.85,0,9.78-.79,14.27-2.66.28-.12.36-.63-.05-.53Z"/>
    <path class="st1" d="M103.97,338.06c6.76,5.35,15.01,8.48,23.62,8.94,4.19.23,8.4-.13,12.48-1.12,4.57-1.11,8.69-3.18,12.69-5.61,2.91-1.76,7.73-5.9,11.16-3.14.26.21.06.48-.22.32-2.04-1.16-4.57.49-6.28,1.58-1.95,1.24-3.89,2.49-5.89,3.65-3.9,2.25-8.02,3.85-12.45,4.68-7.96,1.49-16.31.85-23.91-1.96-4.28-1.58-8.22-3.87-11.61-6.93-.33-.3.09-.66.41-.4Z"/>
    <path class="st1" d="M115.85,358.13c8.51,2.14,17.32,3.1,25.78.18,4.07-1.4,7.64-3.72,10.84-6.57,2.97-2.64,5.56-5.65,8.4-8.41,3.11-3.02,6.68-6.19,10.88-7.53.13-.04.38.18.22.29-3.6,2.33-6.91,4.69-9.93,7.77-2.8,2.85-5.47,5.85-8.43,8.55-3.18,2.89-6.72,5.26-10.76,6.76-4.07,1.51-8.44,2.17-12.77,2.16-4.85,0-9.78-.79-14.27-2.66-.28-.12-.36-.63.05-.53Z"/>
  </g>
  <g id="eye_Wrinkles_3">
    <path class="st1" d="M314.61,300.73c-4.11,2.35-8.54,3.04-12.93,2.86-4.26-.17-8.49-1.16-12.74-1.19-.54,0-1.42,1.61-.59,1.8,4.44,1,9,1.58,13.5,1.49,4.48-.08,8.94-.94,12.92-4.06.41-.32.38-1.21-.16-.9Z"/>
    <path class="st1" d="M311.85,322.14c-8.59-.74-16.83-4.07-23.95-11.26-.72-.72-2.09,1.11-1.28,1.96,7.18,7.59,16.22,11.08,25.04,10.1.29-.03.62-.77.19-.8Z"/>
    <path class="st1" d="M85.73,301.29c4.11,2.35,8.54,3.04,12.93,2.86,4.26-.17,8.49-1.16,12.74-1.19.54,0,1.42,1.61.59,1.8-4.44,1-9,1.58-13.5,1.49-4.48-.08-8.94-.94-12.92-4.06-.41-.32-.38-1.21.16-.9Z"/>
    <path class="st1" d="M88.5,322.7c8.59-.74,16.83-4.07,23.95-11.26.72-.72,2.09,1.11,1.28,1.96-7.18,7.59-16.22,11.08-25.04,10.1-.29-.03-.62-.77-.19-.8Z"/>
  </g>
  <g id="upper_Wrinkles_2" class="st0">
    <g>
      <path class="st2" d="M214.2,248.98c-4.74.1-9.41.8-14.15.87-7.18.11-14.16-1.71-21.14-2.86-12.03-1.98-23.49-5.78-35.64-7.18-8.95-1.03-20.57-1.69-29.01,1.58-3.85,1.49-7.18,2.96-10.54,5.16-.91.6-3.18,2.71-4.12,2.97-.47.13-.89,1.06-.14.87,1.2-.3,2.68-1.32,3.27-2.19,1.76-2.56,7.68-3.85,10.61-5.16,3.8-1.69,9.43-2.21,13.66-2.2,6.64.03,13.19.38,19.74,1.26,5.43.73,10.53,2.35,15.76,3.68,6.14,1.56,12.47,2.42,18.72,3.58,6.01,1.1,11.91,2.25,18.09,2.18,4.83-.05,9.97-.89,14.66-1.83.32-.07.77-.76.22-.75Z"/>
      <path class="st2" d="M184.31,248.98c4.73.1,9.41.8,14.14.87,7.19.11,14.16-1.71,21.14-2.86,12.04-1.98,23.5-5.78,35.65-7.18,8.95-1.03,20.57-1.69,29.01,1.58,3.85,1.49,7.18,2.96,10.53,5.16.91.6,3.19,2.71,4.12,2.97.47.13.89,1.06.14.87-1.2-.3-2.68-1.32-3.27-2.19-1.76-2.56-7.68-3.85-10.62-5.16-3.8-1.69-9.43-2.21-13.66-2.2-6.64.03-13.19.38-19.74,1.26-5.42.73-10.53,2.35-15.76,3.68-6.13,1.56-12.47,2.42-18.72,3.58-6.01,1.1-11.91,2.25-18.09,2.18-4.84-.05-9.97-.89-14.66-1.83-.32-.07-.77-.76-.22-.75Z"/>
    </g>
    <g>
      <path class="st2" d="M213.68,229.48c-4.73.07-9.41.53-14.14.58-7.18.07-14.16-1.13-21.14-1.88-10.92-1.18-21.37-3.34-32.29-4.41-3.33.03-6.63.24-9.9.58,3.35.13,6.68.34,10.02.63,5.42.48,10.53,1.54,15.75,2.42,6.13,1.03,12.47,1.6,18.72,2.35,6.01.73,11.91,1.48,18.09,1.44,4.84-.03,9.96-.59,14.65-1.21.32-.04.78-.5.22-.49Z"/>
      <path class="st2" d="M253.28,223.97c-1.83.04-3.65.12-5.48.17-9.65,1.15-19.01,2.97-28.73,4.03-6.98.76-13.96,1.95-21.14,1.88-4.74-.05-9.41-.51-14.15-.58-.55,0-.1.45.22.49,4.69.62,9.82,1.17,14.66,1.21,6.18.04,12.08-.71,18.09-1.44,6.25-.76,12.58-1.32,18.72-2.35,5.22-.88,10.33-1.94,15.75-2.42,3.68-.32,7.36-.53,11.06-.66-3.02-.27-6.04-.41-9.01-.34Z"/>
    </g>
    <g>
      <path class="st2" d="M218.76,213.48c-6.86-.57-13.74.56-20.61.71-7.91.17-15.69-1.01-23.51-1.88-15.01-1.69-29.39,2.14-44.28,2.51-.06,0-.13.14-.05.14,7.13.06,14.12-.94,21.21-1.51,7.79-.63,15.96-.39,23.7.64,6.43.86,12.79,1.73,19.3,1.87,8.04.18,16.07-1.27,24.05-2.05.14-.02.4-.4.19-.41Z"/>
      <path class="st2" d="M179.74,213.48c6.87-.57,13.74.56,20.61.71,7.91.17,15.69-1.01,23.51-1.88,15.01-1.69,29.39,2.14,44.28,2.51.06,0,.13.14.05.14-7.13.06-14.12-.94-21.21-1.51-7.79-.63-15.96-.39-23.7.64-6.42.86-12.78,1.73-19.29,1.87-8.04.18-16.06-1.27-24.05-2.05-.14-.02-.4-.4-.19-.41Z"/>
    </g>
  </g>
</svg>