<?xml version="1.0" encoding="UTF-8"?>
<svg id="Eye_Line_Style" xmlns="http://www.w3.org/2000/svg" version="1.1" viewBox="0 0 400 600">
  <!-- Generator: Adobe Illustrator 29.5.1, SVG Export Plug-In . SVG Version: 2.1.0 Build 141)  -->
  <defs>
    <style>
      .st0 {
        opacity: .6;
      }

      .st1 {
        fill: #673d0f;
      }
    </style>
  </defs>
  <g id="underEye_Wrinkles_2">
    <path class="st1" d="M157.08,340.01c-4.64,1.98-9.55,1.19-14.25.04-3.94-.97-7.98-1.79-11.76-3.69-2.07-1.04-4.12-2.36-5.73-4.51-.06-.08-.23.03-.18.14,1.09,2.28,2.7,3.63,4.43,4.81,1.92,1.31,4.04,2.05,6.12,2.68,1.97.6,3.95,1.08,5.93,1.58,2.43.61,4.89,1.13,7.36,1.17,2.72.04,5.6-.37,8.12-1.91.15-.09.12-.4-.06-.32Z"/>
    <path class="st1" d="M161.39,341.52c-1.15,1.21-2.35,2.34-3.68,3.2-1.28.82-2.63,1.52-3.98,2.09-2.87,1.19-5.9,1.73-8.9,1.74-3.05.01-6.14-.51-9.05-1.74-2.41-1.02-4.72-2.45-6.9-4.1-1.26-.95-2.46-2.03-3.57-3.25-1.07-1.16-1.93-2.51-2.88-3.81-.03-.04-.12,0-.11.06.27,1.45,1.03,2.83,1.79,3.92.9,1.31,1.93,2.41,3.03,3.42,2.14,1.96,4.52,3.46,6.97,4.64,6.02,2.9,12.77,2.76,18.86.29,3.16-1.28,6.24-3.25,8.67-6.25.16-.2-.1-.36-.23-.22Z"/>
    <path class="st1" d="M242.92,340.15c4.64,1.98,9.55,1.19,14.25.04,3.94-.97,7.98-1.79,11.76-3.69,2.07-1.04,4.12-2.36,5.73-4.51.06-.08.23.03.18.14-1.09,2.28-2.7,3.63-4.43,4.81-1.92,1.31-4.04,2.05-6.12,2.68-1.97.6-3.95,1.08-5.93,1.58-2.43.61-4.89,1.13-7.36,1.17-2.72.04-5.6-.37-8.12-1.91-.15-.09-.12-.4.06-.32Z"/>
    <path class="st1" d="M239.05,341.66c1.15,1.21,2.35,2.34,3.68,3.2,1.28.82,2.63,1.52,3.98,2.09,2.87,1.19,5.9,1.73,8.9,1.74,3.05.01,6.14-.51,9.05-1.74,2.41-1.02,4.72-2.45,6.9-4.1,1.26-.95,2.46-2.03,3.57-3.25,1.07-1.16,1.93-2.51,2.88-3.81.03-.04.12,0,.11.06-.27,1.45-1.03,2.83-1.79,3.92-.9,1.31-1.93,2.41-3.03,3.42-2.14,1.96-4.52,3.46-6.97,4.64-6.02,2.9-12.77,2.76-18.86.29-3.16-1.28-6.24-3.25-8.67-6.25-.16-.2.1-.36.23-.22Z"/>
  </g>
  <g id="eye_Wrinkles_2">
    <path class="st1" d="M85.67,309.01c3.05-3.06,6.76-5.63,10.6-7.37,4.64-2.11,10.03-1.77,14.93-1.24.35.04.61.67.14.72-2.49.28-4.99.25-7.48.45-2.36.19-4.74.6-7.02,1.26-1.99.58-3.83,1.54-5.57,2.72-1.8,1.22-3.45,2.66-5.25,3.87-.21.14-.57-.2-.36-.4Z"/>
    <path class="st1" d="M94.21,308.68c.66-1.11,1.88-1.72,2.98-2.24,1.18-.56,2.42-.97,3.69-1.25,2.53-.56,5.13-.55,7.69-.19.23.03.43.49.1.51-2.41.11-4.84.32-7.19.9-1.16.29-2.3.68-3.39,1.21-1.1.54-2.09,1.34-3.23,1.78-.33.13-.86-.35-.64-.71Z"/>
    <path class="st1" d="M89.97,319.28c1.35-3.25,3.96-5.59,6.78-7.35,2.9-1.82,6.07-3.08,9.34-3.88,1.84-.45,3.67-.65,5.56-.7.1,0,.26.2.11.25-6.11,1.82-12.3,3.57-17.31,7.93-1.42,1.24-2.69,2.64-3.91,4.1-.18.22-.69-.06-.57-.35Z"/>
    <path class="st1" d="M98.57,319.31c.49-.49,1.27-.64,1.87-.92.68-.32,1.34-.67,2.01-1.01,1.3-.67,2.59-1.25,4.03-1.48.25-.04.58.46.25.56-1.37.41-2.62,1.21-3.84,1.98-.61.38-1.23.75-1.87,1.07-.68.34-1.34.67-2.11.56-.31-.04-.61-.49-.34-.76Z"/>
    <path class="st1" d="M314.09,308.42c-3.05-3.06-6.76-5.63-10.6-7.37-4.64-2.11-10.03-1.77-14.93-1.24-.35.04-.61.67-.14.72,2.49.28,4.99.25,7.48.45,2.36.19,4.74.6,7.02,1.26,1.99.58,3.83,1.54,5.57,2.72,1.8,1.22,3.45,2.66,5.25,3.87.21.14.57-.2.36-.4Z"/>
    <path class="st1" d="M305.55,308.08c-.66-1.11-1.88-1.72-2.98-2.24-1.18-.56-2.42-.97-3.69-1.25-2.53-.56-5.13-.55-7.69-.19-.23.03-.43.49-.1.51,2.41.11,4.84.32,7.19.9,1.16.29,2.3.68,3.39,1.21,1.1.54,2.09,1.34,3.23,1.78.33.13.86-.35.64-.71Z"/>
    <path class="st1" d="M309.79,318.68c-1.35-3.25-3.96-5.59-6.78-7.35-2.9-1.82-6.07-3.08-9.34-3.88-1.84-.45-3.67-.65-5.56-.7-.1,0-.26.2-.11.25,6.11,1.82,12.3,3.57,17.31,7.93,1.42,1.24,2.69,2.64,3.91,4.1.18.22.69-.06.57-.35Z"/>
    <path class="st1" d="M301.19,318.72c-.49-.49-1.27-.64-1.87-.92-.68-.32-1.34-.67-2.01-1.01-1.3-.67-2.59-1.25-4.03-1.48-.25-.04-.58.46-.25.56,1.37.41,2.62,1.21,3.84,1.98.61.38,1.23.75,1.87,1.07.68.34,1.34.67,2.11.56.31-.04.61-.49.34-.76Z"/>
  </g>
  <g id="upper_Wrinkles_2" class="st0">
    <g>
      <path class="st1" d="M214.2,248.98c-4.74.1-9.41.8-14.15.87-7.18.11-14.16-1.71-21.14-2.86-12.03-1.98-23.49-5.78-35.64-7.18-8.95-1.03-20.57-1.69-29.01,1.58-3.85,1.49-7.18,2.96-10.54,5.16-.91.6-3.18,2.71-4.12,2.97-.47.13-.89,1.06-.14.87,1.2-.3,2.68-1.32,3.27-2.19,1.76-2.56,7.68-3.85,10.61-5.16,3.8-1.69,9.43-2.21,13.66-2.2,6.64.03,13.19.38,19.74,1.26,5.43.73,10.53,2.35,15.76,3.68,6.14,1.56,12.47,2.42,18.72,3.58,6.01,1.1,11.91,2.25,18.09,2.18,4.83-.05,9.97-.89,14.66-1.83.32-.07.77-.76.22-.75Z"/>
      <path class="st1" d="M184.31,248.98c4.73.1,9.41.8,14.14.87,7.19.11,14.16-1.71,21.14-2.86,12.04-1.98,23.5-5.78,35.65-7.18,8.95-1.03,20.57-1.69,29.01,1.58,3.85,1.49,7.18,2.96,10.53,5.16.91.6,3.19,2.71,4.12,2.97.47.13.89,1.06.14.87-1.2-.3-2.68-1.32-3.27-2.19-1.76-2.56-7.68-3.85-10.62-5.16-3.8-1.69-9.43-2.21-13.66-2.2-6.64.03-13.19.38-19.74,1.26-5.42.73-10.53,2.35-15.76,3.68-6.13,1.56-12.47,2.42-18.72,3.58-6.01,1.1-11.91,2.25-18.09,2.18-4.84-.05-9.97-.89-14.66-1.83-.32-.07-.77-.76-.22-.75Z"/>
    </g>
    <g>
      <path class="st1" d="M213.68,229.48c-4.73.07-9.41.53-14.14.58-7.18.07-14.16-1.13-21.14-1.88-10.92-1.18-21.37-3.34-32.29-4.41-3.33.03-6.63.24-9.9.58,3.35.13,6.68.34,10.02.63,5.42.48,10.53,1.54,15.75,2.42,6.13,1.03,12.47,1.6,18.72,2.35,6.01.73,11.91,1.48,18.09,1.44,4.84-.03,9.96-.59,14.65-1.21.32-.04.78-.5.22-.49Z"/>
      <path class="st1" d="M253.28,223.97c-1.83.04-3.65.12-5.48.17-9.65,1.15-19.01,2.97-28.73,4.03-6.98.76-13.96,1.95-21.14,1.88-4.74-.05-9.41-.51-14.15-.58-.55,0-.1.45.22.49,4.69.62,9.82,1.17,14.66,1.21,6.18.04,12.08-.71,18.09-1.44,6.25-.76,12.58-1.32,18.72-2.35,5.22-.88,10.33-1.94,15.75-2.42,3.68-.32,7.36-.53,11.06-.66-3.02-.27-6.04-.41-9.01-.34Z"/>
    </g>
    <g>
      <path class="st1" d="M218.76,213.48c-6.86-.57-13.74.56-20.61.71-7.91.17-15.69-1.01-23.51-1.88-15.01-1.69-29.39,2.14-44.28,2.51-.06,0-.13.14-.05.14,7.13.06,14.12-.94,21.21-1.51,7.79-.63,15.96-.39,23.7.64,6.43.86,12.79,1.73,19.3,1.87,8.04.18,16.07-1.27,24.05-2.05.14-.02.4-.4.19-.41Z"/>
      <path class="st1" d="M179.74,213.48c6.87-.57,13.74.56,20.61.71,7.91.17,15.69-1.01,23.51-1.88,15.01-1.69,29.39,2.14,44.28,2.51.06,0,.13.14.05.14-7.13.06-14.12-.94-21.21-1.51-7.79-.63-15.96-.39-23.7.64-6.42.86-12.78,1.73-19.29,1.87-8.04.18-16.06-1.27-24.05-2.05-.14-.02-.4-.4-.19-.41Z"/>
    </g>
  </g>
</svg>