<?xml version="1.0" encoding="UTF-8"?>
<svg xmlns="http://www.w3.org/2000/svg" version="1.1" viewBox="0 0 400 600">
  <!-- Generator: Adobe Illustrator 29.5.1, SVG Export Plug-In . SVG Version: 2.1.0 Build 141)  -->
  <defs>
    <style>
      .st0 {
        opacity: .6;
      }

      .st0, .st1 {
        fill: #a96f53;
      }

      .st2 {
        isolation: isolate;
      }

      .st3 {
        fill: #e0c2af;
        mix-blend-mode: multiply;
      }
    </style>
  </defs>
  <g class="st2">
    <g id="Eye_Line_Style">
      <g id="underEye_Wrinkles_3">
        <path class="st0" d="M295.01,338.06c-6.76,5.35-15.01,8.48-23.62,8.94-4.19.23-8.4-.13-12.48-1.12-4.57-1.11-8.69-3.18-12.69-5.61-2.91-1.76-7.73-5.9-11.16-3.14-.26.21-.06.48.22.32,2.04-1.16,4.57.49,6.28,1.58,1.95,1.24,3.89,2.49,5.89,3.65,3.9,2.25,8.02,3.85,12.45,4.68,7.96,1.49,16.31.85,23.91-1.96,4.28-1.58,8.22-3.87,11.61-6.93.33-.3-.09-.66-.41-.4Z"/>
        <path class="st0" d="M283.12,358.13c-8.51,2.14-17.32,3.1-25.78.18-4.07-1.4-7.64-3.72-10.84-6.57-2.97-2.64-5.56-5.65-8.4-8.41-3.11-3.02-6.68-6.19-10.88-7.53-.13-.04-.38.18-.22.29,3.6,2.33,6.91,4.69,9.93,7.77,2.8,2.85,5.47,5.85,8.43,8.55,3.18,2.89,6.72,5.26,10.76,6.76,4.07,1.51,8.44,2.17,12.77,2.16,4.85,0,9.78-.79,14.27-2.66.28-.12.36-.63-.05-.53Z"/>
        <path class="st0" d="M103.97,338.06c6.76,5.35,15.01,8.48,23.62,8.94,4.19.23,8.4-.13,12.48-1.12,4.57-1.11,8.69-3.18,12.69-5.61,2.91-1.76,7.73-5.9,11.16-3.14.26.21.06.48-.22.32-2.04-1.16-4.57.49-6.28,1.58-1.95,1.24-3.89,2.49-5.89,3.65-3.9,2.25-8.02,3.85-12.45,4.68-7.96,1.49-16.31.85-23.91-1.96-4.28-1.58-8.22-3.87-11.61-6.93-.33-.3.09-.66.41-.4Z"/>
        <path class="st0" d="M115.85,358.13c8.51,2.14,17.32,3.1,25.78.18,4.07-1.4,7.64-3.72,10.84-6.57,2.97-2.64,5.56-5.65,8.4-8.41,3.11-3.02,6.68-6.19,10.88-7.53.13-.04.38.18.22.29-3.6,2.33-6.91,4.69-9.93,7.77-2.8,2.85-5.47,5.85-8.43,8.55-3.18,2.89-6.72,5.26-10.76,6.76-4.07,1.51-8.44,2.17-12.77,2.16-4.85,0-9.78-.79-14.27-2.66-.28-.12-.36-.63.05-.53Z"/>
      </g>
      <g id="eye_Wrinkles_1">
        <g id="wrinkles">
          <path class="st1" d="M99.87,296.94c-1.05-.79-2.44-.96-3.72-1.03-1.48-.08-2.96-.01-4.44.05-2.64.1-5.85.4-8.24-.98-1.36-.79-2.4-1.97-2.69-3.55-.04-.21-.4-.02-.37.16.23,1.41.56,2.82,1.62,3.84.93.88,2.28,1.3,3.52,1.5,3.05.49,6.15.05,9.22.1,1.54.02,3.08.21,4.58.59.31.08.88-.38.51-.66Z"/>
          <path class="st1" d="M98.08,300.08c-1.18-.7-2.64-.89-4-.91-1.44-.02-2.88.14-4.3.34-2.8.4-5.65.99-8.49.67-1.75-.2-3.39-.76-4.96-1.55-.17-.08-.45.14-.28.3,4.52,4.3,11.21,1.67,16.62,1.4,1.71-.09,3.39.12,5.09.26.2.02.59-.35.32-.51Z"/>
          <path class="st1" d="M97.62,304.1c-1.62-.34-3.34-.1-4.94.25-1.71.37-3.38.89-5.06,1.38-1.65.48-3.27.99-4.85,1.65-1.54.65-3.04,1.41-4.54,2.15-1.71.85-3.43,1.7-5.15,2.53-.16.08-.22.38.03.32,3.12-.77,5.99-2.37,8.92-3.63,3.08-1.33,6.34-2.25,9.59-3.07,1.93-.49,3.86-.8,5.83-1.07.19-.03.48-.43.17-.5Z"/>
          <path class="st1" d="M100.01,308.11c-.71-.51-1.75-.66-2.6-.76-1-.12-2.02-.08-3.02.02-2.11.22-4.18.73-6.18,1.42-4.24,1.46-8.22,3.86-11.25,7.18-1.67,1.82-3.13,3.82-4.94,5.52-.19.18.05.38.24.24,1.69-1.25,3.09-2.82,4.53-4.35,1.51-1.59,3.12-2.95,4.97-4.13,3.46-2.2,7.37-3.79,11.42-4.46,1.08-.18,2.16-.27,3.25-.3.55-.01,1.1,0,1.66.02.53.03,1.05.13,1.58.14.23,0,.63-.35.35-.56Z"/>
        </g>
        <g id="wrinkles1" data-name="wrinkles">
          <path class="st1" d="M300.53,296.6c1.05-.79,2.44-.96,3.72-1.03,1.48-.08,2.96-.01,4.44.05,2.64.1,5.85.4,8.24-.98,1.36-.79,2.4-1.97,2.69-3.55.04-.21.4-.02.37.16-.23,1.41-.56,2.82-1.62,3.84-.93.88-2.28,1.3-3.52,1.5-3.05.49-6.15.05-9.22.1-1.54.02-3.08.21-4.58.59-.31.08-.88-.38-.51-.66Z"/>
          <path class="st1" d="M302.33,299.74c1.18-.7,2.64-.89,4-.91,1.44-.02,2.88.14,4.3.34,2.8.4,5.65.99,8.49.67,1.75-.2,3.39-.76,4.96-1.55.17-.08.45.14.28.3-4.52,4.3-11.21,1.67-16.62,1.4-1.71-.09-3.39.12-5.09.26-.2.02-.59-.35-.32-.51Z"/>
          <path class="st1" d="M302.78,303.76c1.62-.34,3.34-.1,4.94.25,1.71.37,3.38.89,5.06,1.38,1.65.48,3.27.99,4.85,1.65,1.54.65,3.04,1.41,4.54,2.15,1.71.85,3.43,1.7,5.15,2.53.16.08.22.38-.03.32-3.12-.77-5.99-2.37-8.92-3.63-3.08-1.33-6.34-2.25-9.59-3.07-1.93-.49-3.86-.8-5.83-1.07-.19-.03-.48-.43-.17-.5Z"/>
          <path class="st1" d="M300.39,307.77c.71-.51,1.75-.66,2.6-.76,1-.12,2.02-.08,3.02.02,2.11.22,4.18.73,6.18,1.42,4.24,1.46,8.22,3.86,11.25,7.18,1.67,1.82,3.13,3.82,4.94,5.52.19.18-.05.38-.24.24-1.69-1.25-3.09-2.82-4.53-4.35-1.51-1.59-3.12-2.95-4.97-4.13-3.46-2.2-7.37-3.79-11.42-4.46-1.08-.18-2.16-.27-3.25-.3-.55-.01-1.1,0-1.66.02-.53.03-1.05.13-1.58.14-.23,0-.63-.35-.35-.56Z"/>
        </g>
      </g>
      <g id="upper_Wrinkles_2">
        <path class="st3" d="M289,243.16c-9.68-3.16-21.06-2.18-31.12-.88-11.24,1.45-22.42,3.3-33.55,5.18-6.22,1.05-12.46,2.02-18.79,2.58-6.32.55-12.73.35-19.01-.42-12.12-1.5-23.61-5.05-35.49-7.33-12.93-2.49-26.23-3.18-38.92.5-.07.02-.09.13.01.1,11.8-2.72,23.86-2.26,35.74-.12,11.74,2.12,23,5.65,34.84,7.43,5.86.88,11.83,1.36,17.8,1.1,6.17-.26,12.27-1.22,18.31-2.19,11.27-1.8,22.49-3.68,33.82-5.27,11.8-1.65,24.36-3.06,36.06-.31.26.06.61-.26.3-.37Z"/>
        <path class="st3" d="M265.28,230.27c-8.8-.6-17.65-1.11-26.46-.32-4.64.41-9.07,1.29-13.55,2.25-4.35.93-8.75,1.72-13.2,2.33-8.83,1.23-17.83,1.61-26.77.96-4.75-.34-9.46-.96-14.09-1.85-4.4-.84-8.73-1.89-13.14-2.72-4.9-.92-9.99-1.43-14.99-1.93-4.86-.49-9.7-.57-14.32.87-.03,0-.03.05,0,.04,4.54-1.05,9.23-.75,13.83-.11,4.42.61,8.9,1.14,13.27,1.93,4.41.79,8.75,1.82,13.13,2.71,4.36.88,8.79,1.54,13.26,1.96,8.68.82,17.46.67,26.11-.31,4.43-.5,8.81-1.23,13.14-2.11,4.39-.9,8.68-2.04,13.14-2.69,10.06-1.47,20.34-1.06,30.51-.74.19,0,.37-.24.12-.26Z"/>
        <path class="st3" d="M262.62,218.29c-8.36-1.01-16.73-1.59-25.2-1.47-8.59.12-17,1.24-25.53,1.96-8.64.73-17.16.38-25.75-.56-8.35-.91-16.63-2.41-25.02-3.05-9.39-.71-18.48.36-27.67,1.77-.2.03-.29.29-.02.26,8.11-1.06,16.42-1.73,24.65-1.24,8.43.51,16.74,2.02,25.08,3.01,8.16.97,16.37,1.57,24.62,1.03,8.58-.56,17.04-1.99,25.65-2.36,9.69-.42,19.47-.09,29.1.79.09,0,.2-.12.09-.14Z"/>
      </g>
    </g>
  </g>
</svg>