<?xml version="1.0" encoding="UTF-8"?>
<svg xmlns="http://www.w3.org/2000/svg" version="1.1" viewBox="0 0 400 600">
  <!-- Generator: Adobe Illustrator 29.5.1, SVG Export Plug-In . SVG Version: 2.1.0 Build 141)  -->
  <defs>
    <style>
      .st0 {
        mix-blend-mode: multiply;
      }

      .st0, .st1 {
        opacity: .6;
      }

      .st0, .st1, .st2 {
        fill: #a96f53;
      }

      .st3 {
        isolation: isolate;
      }
    </style>
  </defs>
  <g class="st3">
    <g id="Eye_Line_Style">
      <g id="underEye_Wrinkles_2">
        <path class="st2" d="M157.08,340.01c-4.64,1.98-9.55,1.19-14.25.04-3.94-.97-7.98-1.79-11.76-3.69-2.07-1.04-4.12-2.36-5.73-4.51-.06-.08-.23.03-.18.14,1.09,2.28,2.7,3.63,4.43,4.81,1.92,1.31,4.04,2.05,6.12,2.68,1.97.6,3.95,1.08,5.93,1.58,2.43.61,4.89,1.13,7.36,1.17,2.72.04,5.6-.37,8.12-1.91.15-.09.12-.4-.06-.32Z"/>
        <path class="st2" d="M161.39,341.52c-1.15,1.21-2.35,2.34-3.68,3.2-1.28.82-2.63,1.52-3.98,2.09-2.87,1.19-5.9,1.73-8.9,1.74-3.05.01-6.14-.51-9.05-1.74-2.41-1.02-4.72-2.45-6.9-4.1-1.26-.95-2.46-2.03-3.57-3.25-1.07-1.16-1.93-2.51-2.88-3.81-.03-.04-.12,0-.11.06.27,1.45,1.03,2.83,1.79,3.92.9,1.31,1.93,2.41,3.03,3.42,2.14,1.96,4.52,3.46,6.97,4.64,6.02,2.9,12.77,2.76,18.86.29,3.16-1.28,6.24-3.25,8.67-6.25.16-.2-.1-.36-.23-.22Z"/>
        <path class="st2" d="M242.92,340.15c4.64,1.98,9.55,1.19,14.25.04,3.94-.97,7.98-1.79,11.76-3.69,2.07-1.04,4.12-2.36,5.73-4.51.06-.08.23.03.18.14-1.09,2.28-2.7,3.63-4.43,4.81-1.92,1.31-4.04,2.05-6.12,2.68-1.97.6-3.95,1.08-5.93,1.58-2.43.61-4.89,1.13-7.36,1.17-2.72.04-5.6-.37-8.12-1.91-.15-.09-.12-.4.06-.32Z"/>
        <path class="st2" d="M239.05,341.66c1.15,1.21,2.35,2.34,3.68,3.2,1.28.82,2.63,1.52,3.98,2.09,2.87,1.19,5.9,1.73,8.9,1.74,3.05.01,6.14-.51,9.05-1.74,2.41-1.02,4.72-2.45,6.9-4.1,1.26-.95,2.46-2.03,3.57-3.25,1.07-1.16,1.93-2.51,2.88-3.81.03-.04.12,0,.11.06-.27,1.45-1.03,2.83-1.79,3.92-.9,1.31-1.93,2.41-3.03,3.42-2.14,1.96-4.52,3.46-6.97,4.64-6.02,2.9-12.77,2.76-18.86.29-3.16-1.28-6.24-3.25-8.67-6.25-.16-.2.1-.36.23-.22Z"/>
      </g>
      <g id="eye_Wrinkles_2">
        <path class="st2" d="M330.62,309.01c-3.26-3.06-7.22-5.63-11.34-7.37-4.96-2.11-10.72-1.77-15.97-1.24-.37.04-.65.67-.15.72,2.66.28,5.33.25,8,.45,2.52.19,5.07.6,7.51,1.26,2.13.58,4.09,1.54,5.95,2.72,1.92,1.22,3.69,2.66,5.61,3.87.22.14.6-.2.38-.4Z"/>
        <path class="st2" d="M312.93,306.68c-.71-1.11-2.01-1.72-3.18-2.24-1.26-.56-2.59-.97-3.94-1.25-2.71-.56-5.49-.55-8.22-.19-.25.03-.46.49-.1.51,2.58.11,5.17.32,7.69.9,1.24.29,2.46.68,3.62,1.21,1.18.54,2.23,1.34,3.45,1.78.35.13.92-.35.68-.71Z"/>
        <path class="st2" d="M326.02,319.28c-1.44-3.25-4.24-5.59-7.25-7.35-3.1-1.82-6.49-3.08-9.99-3.88-1.97-.45-3.93-.65-5.94-.7-.11,0-.28.2-.12.25,6.53,1.82,13.15,3.57,18.51,7.93,1.52,1.24,2.88,2.64,4.18,4.1.2.22.74-.06.61-.35Z"/>
        <path class="st2" d="M316.83,319.31c-.52-.49-1.36-.64-2-.92-.73-.32-1.43-.67-2.15-1.01-1.39-.67-2.77-1.25-4.31-1.48-.26-.04-.62.46-.27.56,1.47.41,2.8,1.21,4.1,1.98.65.38,1.31.75,2,1.07.73.34,1.44.67,2.26.56.33-.04.65-.49.37-.76Z"/>
        <path class="st2" d="M68.71,309.01c3.26-3.06,7.22-5.63,11.34-7.37,4.96-2.11,10.72-1.77,15.97-1.24.37.04.65.67.15.72-2.66.28-5.33.25-8,.45-2.52.19-5.07.6-7.51,1.26-2.13.58-4.09,1.54-5.95,2.72-1.92,1.22-3.69,2.66-5.61,3.87-.22.14-.6-.2-.38-.4Z"/>
        <path class="st2" d="M86.4,306.68c.71-1.11,2.01-1.72,3.18-2.24,1.26-.56,2.59-.97,3.94-1.25,2.71-.56,5.49-.55,8.22-.19.25.03.46.49.1.51-2.58.11-5.17.32-7.69.9-1.24.29-2.46.68-3.62,1.21-1.18.54-2.23,1.34-3.45,1.78-.35.13-.92-.35-.68-.71Z"/>
        <path class="st2" d="M73.31,319.28c1.44-3.25,4.24-5.59,7.25-7.35,3.1-1.82,6.49-3.08,9.99-3.88,1.97-.45,3.93-.65,5.94-.7.11,0,.28.2.12.25-6.53,1.82-13.15,3.57-18.51,7.93-1.52,1.24-2.88,2.64-4.18,4.1-.2.22-.74-.06-.61-.35Z"/>
        <path class="st2" d="M82.5,319.31c.52-.49,1.36-.64,2-.92.73-.32,1.43-.67,2.15-1.01,1.39-.67,2.77-1.25,4.31-1.48.26-.04.62.46.27.56-1.47.41-2.8,1.21-4.1,1.98-.65.38-1.31.75-2,1.07-.73.34-1.44.67-2.26.56-.33-.04-.65-.49-.37-.76Z"/>
      </g>
      <g id="upper_Wrinkles_1">
        <path class="st2" d="M289.69,247.83c-3.21-6.57-15.48-10.03-25.44-13.24-6.02-1.94-12.16-3.64-18.87-4.77-6.78-1.14-13.99-1.76-21.08-1.33-4.08.24-8.11.68-12.19.89-4.18.22-8.41.31-12.6.12-8.04-.37-15.47-2.26-23.5-2.64-7.63-.36-15.34.23-22.75,1.22-3.68.49-7.32,1.09-10.91,1.76-3.19.59-6.4,1.17-9.43,1.99-10.88,2.93-20.69,8.6-21.77,15.43-.13.8-.05,1.63.08,2.43,0,.05.17,0,.16-.03-.32-7.02,8.34-13.13,19.06-16.56,2.74-.88,5.64-1.53,8.63-2.11,3.48-.68,7-1.31,10.56-1.85,7.28-1.11,14.82-1.88,22.4-1.8,3.69.04,7.38.29,10.95.8,3.87.56,7.67,1.22,11.61,1.61,7.88.78,15.94.38,23.81-.23,3.62-.28,7.17-.62,10.84-.58,3.58.04,7.14.3,10.63.74,6.89.85,13.53,2.31,19.67,4.2,5.19,1.59,10.42,3.24,15.31,5.09,4.81,1.82,9.32,4,12.21,6.8.74.72,1.45,1.42,1.99,2.2.13.18.69.02.61-.14Z"/>
        <path class="st2" d="M284.32,235.9c-1.36-1.6-4.12-2.78-6.43-3.97-2.84-1.47-5.93-2.77-9.26-3.89-6.41-2.17-13.29-4.11-20.56-5.27-7.53-1.2-15.62-1.84-23.46-1.7-4,.07-7.98.36-11.94.67-4.05.32-8.1.7-12.2.73-4.03.03-7.84-.35-11.72-.9-3.49-.5-6.99-.99-10.62-1.04-5.1-.06-10.25.13-15.32.42-10.48.61-21.11,1.87-30.61,4.41-8.94,2.39-16.92,6.1-20.9,11.17-.51.65-.92,1.31-1.26,1.99-.04.09.19.06.23,0,1.82-2.61,4.35-5.03,7.86-7.08,3.38-1.98,7.48-3.6,11.84-4.89,9.12-2.7,19.4-4.1,29.64-4.83,4.98-.36,10-.55,15.02-.6,3.29-.03,6.47.08,9.68.48,3.48.44,6.89,1.06,10.45,1.3,7.83.53,15.52-.51,23.25-1.05,8.06-.56,16.1-.26,24.04.65,7.56.87,14.56,2.44,21.3,4.49,6.36,1.94,12.33,4.27,17.49,7.09,1.11.6,2.18,1.26,2.93,2.02.16.16.69-.05.56-.21Z"/>
        <path class="st2" d="M274.76,222.96c-8.72-3.14-18.46-5.47-28.76-6.54-5.33-.55-10.77-.76-16.19-.63-5.84.14-11.63.62-17.43,1.02-5.91.41-11.81.74-17.75.35-5.69-.37-11.23-1.21-16.84-1.83-5.64-.63-11.37-.95-17.13-.8-5.7.15-11.36.71-16.83,1.58-5.39.86-10.48,2.18-15.36,3.68-2.32.72-4.52,1.48-6.53,2.43-1.9.9-3.65,1.89-5.39,2.88-.91.51-1.82,1.02-2.77,1.52-.1.05.03.11.13.07,3.86-1.8,7.19-3.96,11.48-5.48,2.31-.82,4.82-1.51,7.3-2.18,2.52-.67,5.08-1.3,7.72-1.81,10.77-2.12,22.63-2.72,33.91-1.65,5.53.52,10.95,1.36,16.48,1.87,2.71.25,5.46.43,8.21.47,2.81.04,5.61-.1,8.4-.25,5.87-.33,11.7-.86,17.57-1.15,5.49-.27,11.01-.28,16.48.1,10.35.73,20.26,2.82,29.33,5.59,1.15.35,2.3.7,3.43,1.06.3.1.85-.17.52-.3Z"/>
        <path class="st2" d="M212.69,209.93c-2.44.21-4.87.44-7.32.59-2.45.15-4.92.24-7.39.25-2.4.02-4.78-.06-7.18-.15-2.02-.08-4.05-.11-6.07-.23-2.29-.13-4.55-.41-6.61-.99-.11-.03-.31.06-.19.11,1.57.68,3.56.99,5.52,1.16,2.04.18,4.11.23,6.17.31,2.39.09,4.76.21,7.16.21,2.48,0,4.95-.07,7.41-.2,2.84-.15,5.68-.37,8.45-.75.34-.05.5-.35.04-.31Z"/>
      </g>
      <g id="betweenEyes_Wrinkles_2">
        <path class="st0" d="M187.74,279.06c-.18-1.76-.54-3.51-1.16-5.17-1.24-3.33-3.28-6.24-6.21-8.29-.35-.24-1.28.21-.89.63,2.25,2.39,3.96,5.37,4.96,8.49.51,1.58.88,3.2,1.01,4.86.13,1.6-.06,3.23.19,4.82.12.76,1.34.22,1.54-.19.76-1.57.73-3.44.56-5.14Z"/>
        <path class="st0" d="M212.08,279.06c.18-1.76.54-3.51,1.16-5.17,1.24-3.33,3.28-6.24,6.21-8.29.35-.24,1.28.21.89.63-2.25,2.39-3.96,5.37-4.96,8.49-.51,1.58-.88,3.2-1.01,4.86-.13,1.6.06,3.23-.19,4.82-.12.76-1.34.22-1.54-.19-.76-1.57-.73-3.44-.56-5.14Z"/>
      </g>
      <g id="betweenEyes_Wrinkles_1">
        <path class="st1" d="M181.87,316.57c3.86,2.14,5.6,7.29,6.47,11.33.93,4.32,1.51,9.26.02,13.52-.26.75-1.42.07-1.32-.58.65-4,.39-8.4-.33-12.37-.73-4-1.94-8.49-5.16-11.22-.36-.31-.24-.99.31-.68Z"/>
        <path class="st1" d="M219.26,316.97c-3.86,2.14-5.6,7.29-6.47,11.33-.93,4.32-1.51,9.26-.02,13.52.26.75,1.42.07,1.32-.58-.65-4-.39-8.4.33-12.37.73-4,1.94-8.49,5.16-11.22.36-.31.24-.99-.31-.68Z"/>
      </g>
    </g>
  </g>
</svg>