<?xml version="1.0" encoding="UTF-8"?>
<svg xmlns="http://www.w3.org/2000/svg" version="1.1" viewBox="0 0 400 600">
  <!-- Generator: Adobe Illustrator 29.5.1, SVG Export Plug-In . SVG Version: 2.1.0 Build 141)  -->
  <defs>
    <style>
      .st0, .st1 {
        fill: #a96f53;
        opacity: .6;
      }

      .st0, .st2 {
        mix-blend-mode: multiply;
      }

      .st3 {
        isolation: isolate;
      }

      .st2 {
        fill: #e0c2af;
      }
    </style>
  </defs>
  <g class="st3">
    <g id="Eye_Line_Style">
      <g id="underEye_Wrinkles_3">
        <path class="st1" d="M295.01,338.06c-6.76,5.35-15.01,8.48-23.62,8.94-4.19.23-8.4-.13-12.48-1.12-4.57-1.11-8.69-3.18-12.69-5.61-2.91-1.76-7.73-5.9-11.16-3.14-.26.21-.06.48.22.32,2.04-1.16,4.57.49,6.28,1.58,1.95,1.24,3.89,2.49,5.89,3.65,3.9,2.25,8.02,3.85,12.45,4.68,7.96,1.49,16.31.85,23.91-1.96,4.28-1.58,8.22-3.87,11.61-6.93.33-.3-.09-.66-.41-.4Z"/>
        <path class="st1" d="M283.12,358.13c-8.51,2.14-17.32,3.1-25.78.18-4.07-1.4-7.64-3.72-10.84-6.57-2.97-2.64-5.56-5.65-8.4-8.41-3.11-3.02-6.68-6.19-10.88-7.53-.13-.04-.38.18-.22.29,3.6,2.33,6.91,4.69,9.93,7.77,2.8,2.85,5.47,5.85,8.43,8.55,3.18,2.89,6.72,5.26,10.76,6.76,4.07,1.51,8.44,2.17,12.77,2.16,4.85,0,9.78-.79,14.27-2.66.28-.12.36-.63-.05-.53Z"/>
        <path class="st1" d="M103.97,338.06c6.76,5.35,15.01,8.48,23.62,8.94,4.19.23,8.4-.13,12.48-1.12,4.57-1.11,8.69-3.18,12.69-5.61,2.91-1.76,7.73-5.9,11.16-3.14.26.21.06.48-.22.32-2.04-1.16-4.57.49-6.28,1.58-1.95,1.24-3.89,2.49-5.89,3.65-3.9,2.25-8.02,3.85-12.45,4.68-7.96,1.49-16.31.85-23.91-1.96-4.28-1.58-8.22-3.87-11.61-6.93-.33-.3.09-.66.41-.4Z"/>
        <path class="st1" d="M115.85,358.13c8.51,2.14,17.32,3.1,25.78.18,4.07-1.4,7.64-3.72,10.84-6.57,2.97-2.64,5.56-5.65,8.4-8.41,3.11-3.02,6.68-6.19,10.88-7.53.13-.04.38.18.22.29-3.6,2.33-6.91,4.69-9.93,7.77-2.8,2.85-5.47,5.85-8.43,8.55-3.18,2.89-6.72,5.26-10.76,6.76-4.07,1.51-8.44,2.17-12.77,2.16-4.85,0-9.78-.79-14.27-2.66-.28-.12-.36-.63.05-.53Z"/>
      </g>
      <g id="eye_Wrinkles_3">
        <path class="st1" d="M326.74,300.73c-4.57,2.35-9.5,3.04-14.38,2.86-4.74-.17-9.44-1.16-14.17-1.19-.6,0-1.58,1.61-.66,1.8,4.94,1,10.01,1.58,15.02,1.49,4.98-.08,9.94-.94,14.37-4.06.45-.32.42-1.21-.18-.9Z"/>
        <path class="st1" d="M323.67,322.14c-9.55-.74-18.73-4.07-26.64-11.26-.8-.72-2.32,1.11-1.43,1.96,7.98,7.59,18.05,11.08,27.86,10.1.32-.03.69-.77.21-.8Z"/>
        <path class="st1" d="M72.16,301.29c4.57,2.35,9.5,3.04,14.38,2.86,4.74-.17,9.44-1.16,14.17-1.19.6,0,1.58,1.61.66,1.8-4.94,1-10.01,1.58-15.02,1.49-4.98-.08-9.94-.94-14.37-4.06-.45-.32-.42-1.21.18-.9Z"/>
        <path class="st1" d="M75.23,322.7c9.55-.74,18.73-4.07,26.64-11.26.8-.72,2.32,1.11,1.43,1.96-7.98,7.59-18.05,11.08-27.86,10.1-.32-.03-.69-.77-.21-.8Z"/>
      </g>
      <g id="upper_Wrinkles_2">
        <path class="st2" d="M289,243.16c-9.68-3.16-21.06-2.18-31.12-.88-11.24,1.45-22.42,3.3-33.55,5.18-6.22,1.05-12.46,2.02-18.79,2.58-6.32.55-12.73.35-19.01-.42-12.12-1.5-23.61-5.05-35.49-7.33-12.93-2.49-26.23-3.18-38.92.5-.07.02-.09.13.01.1,11.8-2.72,23.86-2.26,35.74-.12,11.74,2.12,23,5.65,34.84,7.43,5.86.88,11.83,1.36,17.8,1.1,6.17-.26,12.27-1.22,18.31-2.19,11.27-1.8,22.49-3.68,33.82-5.27,11.8-1.65,24.36-3.06,36.06-.31.26.06.61-.26.3-.37Z"/>
        <path class="st2" d="M265.28,230.27c-8.8-.6-17.65-1.11-26.46-.32-4.64.41-9.07,1.29-13.55,2.25-4.35.93-8.75,1.72-13.2,2.33-8.83,1.23-17.83,1.61-26.77.96-4.75-.34-9.46-.96-14.09-1.85-4.4-.84-8.73-1.89-13.14-2.72-4.9-.92-9.99-1.43-14.99-1.93-4.86-.49-9.7-.57-14.32.87-.03,0-.03.05,0,.04,4.54-1.05,9.23-.75,13.83-.11,4.42.61,8.9,1.14,13.27,1.93,4.41.79,8.75,1.82,13.13,2.71,4.36.88,8.79,1.54,13.26,1.96,8.68.82,17.46.67,26.11-.31,4.43-.5,8.81-1.23,13.14-2.11,4.39-.9,8.68-2.04,13.14-2.69,10.06-1.47,20.34-1.06,30.51-.74.19,0,.37-.24.12-.26Z"/>
        <path class="st2" d="M262.62,218.29c-8.36-1.01-16.73-1.59-25.2-1.47-8.59.12-17,1.24-25.53,1.96-8.64.73-17.16.38-25.75-.56-8.35-.91-16.63-2.41-25.02-3.05-9.39-.71-18.48.36-27.67,1.77-.2.03-.29.29-.02.26,8.11-1.06,16.42-1.73,24.65-1.24,8.43.51,16.74,2.02,25.08,3.01,8.16.97,16.37,1.57,24.62,1.03,8.58-.56,17.04-1.99,25.65-2.36,9.69-.42,19.47-.09,29.1.79.09,0,.2-.12.09-.14Z"/>
      </g>
      <g id="betweenEyes_Wrinkles_2">
        <path class="st0" d="M187.74,279.06c-.18-1.76-.54-3.51-1.16-5.17-1.24-3.33-3.28-6.24-6.21-8.29-.35-.24-1.28.21-.89.63,2.25,2.39,3.96,5.37,4.96,8.49.51,1.58.88,3.2,1.01,4.86.13,1.6-.06,3.23.19,4.82.12.76,1.34.22,1.54-.19.76-1.57.73-3.44.56-5.14Z"/>
        <path class="st0" d="M212.08,279.06c.18-1.76.54-3.51,1.16-5.17,1.24-3.33,3.28-6.24,6.21-8.29.35-.24,1.28.21.89.63-2.25,2.39-3.96,5.37-4.96,8.49-.51,1.58-.88,3.2-1.01,4.86-.13,1.6.06,3.23-.19,4.82-.12.76-1.34.22-1.54-.19-.76-1.57-.73-3.44-.56-5.14Z"/>
      </g>
      <g id="betweenEyes_Wrinkles_1">
        <path class="st1" d="M181.87,316.57c3.86,2.14,5.6,7.29,6.47,11.33.93,4.32,1.51,9.26.02,13.52-.26.75-1.42.07-1.32-.58.65-4,.39-8.4-.33-12.37-.73-4-1.94-8.49-5.16-11.22-.36-.31-.24-.99.31-.68Z"/>
        <path class="st1" d="M219.26,316.97c-3.86,2.14-5.6,7.29-6.47,11.33-.93,4.32-1.51,9.26-.02,13.52.26.75,1.42.07,1.32-.58-.65-4-.39-8.4.33-12.37.73-4,1.94-8.49,5.16-11.22.36-.31.24-.99-.31-.68Z"/>
      </g>
    </g>
  </g>
</svg>