<?xml version="1.0" encoding="UTF-8"?>
<svg xmlns="http://www.w3.org/2000/svg" version="1.1" viewBox="0 0 400 600">
  <defs>
    <style>     

      .cls-1, .cls-2 {
        stroke: #000;
        stroke-width: 6px;
      }

      .cls-2 {
        fill: #fff;
      }
    </style>
  </defs>
  <!-- Generator: Adobe Illustrator 28.7.4, SVG Export Plug-In . SVG Version: 1.2.0 Build 166)  -->
  <g>
    <g id="Layer_1">
      <g id="suit2">
        <path id="Shirt" class="cls-2" d="M10,600s0-50,60-70c7.4-2.5,14-5.1,20-7.8,0,0,22.6-12.2,28-15.8.9,5.7,4-23.3-3.3-35.1,19,3.1,58-.9,88.7-.7,42.8.4,50.8-1.1,70.6-1.4,3.1-4.6-4.5,8-1.3,17.6s6.4,22.5,6.7,20.3c5.6,3.7,22.7,11.5,30.6,15l.6.3c5.8,2.6,12.3,5.1,19.4,7.5,60,20,60,70,60,70H10Z"/>
        <g>
          <path class="cls-1" stroke="#000" fill="$[primary]" d="M-.1,599.8s-6.3-40.2,22.5-62.8c8.8-6.9,40.4-10,54.5-14.7,7.4-2.5,40.8-17.1,43.2-18.7,1,6.1,2.5,55.6,20.3,96.3.5,1.1-140.5-.2-140.5-.2Z"/>
          <path class="cls-1" stroke="$[primary]" d="M395.7,599.8s6.3-40.2-22.5-62.8c-8.8-6.9-40.4-10-54.5-14.7-7.4-2.5-40.8-17.1-43.2-18.7-1,6.1-2.5,55.6-20.3,96.3-.5,1.1,140.5-.2,140.5-.2Z"/>
        </g>
      </g>
      <polyline class="cls-2" fill="$[accent]" points="272.7 486.8 277.9 503.7 120 503.7 118.7 488.3"/>
    </g>
  </g>
</svg>