<?xml version="1.0" encoding="UTF-8"?>
<svg id="_x32_4" xmlns="http://www.w3.org/2000/svg" version="1.1" viewBox="0 0 400 600">
  <!-- Generator: Adobe Illustrator 29.4.0, SVG Export Plug-In . SVG Version: 2.1.0 Build 152)  -->
  <defs>
    <style>
      .st0 {
        fill: #1f5700;
      }

      .st1 {
        stroke: #2b3084;
      }

      .st1, .st2, .st3, .st4, .st5 {
        fill: #fff;
      }

      .st1, .st5 {
        stroke-width: 6px;
      }

      .st3, .st6 {
        stroke-miterlimit: 10;
      }

      .st3, .st6, .st5 {
        stroke: #000;
      }

      .st4, .st7, .st8, .st9 {
        fill-rule: evenodd;
      }

      .st7 {
        fill: #3b4890;
      }

      .st10 {
        fill: #ffa80a;
      }

      .st9 {
        fill: #b44533;
      }
    </style>
  </defs>
  <g id="Layer_1">
    <g id="suit2">
      <path id="Shirt" class="st5" d="M281.2,502.8c5.6,3.7,17.7,7.7,28.6,9.9,0,0,30.8,5.3,37.9,7.7,57.4,22.3,50.4,79.7,50.4,79.7l-395.8-.2s-3.8-63.4,37.2-71.5c7.7-1.5,25.9-8.7,35.6-9.4,0,0,37.4-9,42.8-12.6.9,5.7,11.3-29.5,4-41.3,19,3.1,38.2-.2,68.9,0,42.8.4,77.3,2.9,91.1-.5-8.6,16.4-.8,38.2-.8,38.2Z"/>
      <rect class="st10" x="172.1" y="517.9" width="50.8" height="51"/>
      <g>
        <path d="M197.8,520.7c-12.6,0-22.8,10.2-22.8,22.8s10.2,22.8,22.8,22.8,22.8-10.2,22.8-22.8-10.2-22.8-22.8-22.8ZM197.8,564.6c-11.7,0-21.2-9.5-21.2-21.2s9.5-21.2,21.2-21.2,21.2,9.5,21.2,21.2-9.5,21.2-21.2,21.2Z"/>
        <path class="st8" d="M197.8,520.7c-12.6,0-22.8,10.2-22.8,22.8s10.2,22.8,22.8,22.8,22.8-10.2,22.8-22.8-10.2-22.8-22.8-22.8ZM197.8,564.6c-11.7,0-21.2-9.5-21.2-21.2s9.5-21.2,21.2-21.2,21.2,9.5,21.2,21.2-9.5,21.2-21.2,21.2Z"/>
        <path class="st8" d="M197.8,522.2c-11.7,0-21.2,9.5-21.2,21.2s9.5,21.2,21.2,21.2,21.2-9.5,21.2-21.2-9.5-21.2-21.2-21.2ZM197.9,563.6c-6,0-11.1-2.5-14.8-6.7.5-.2,1-.5,2.2-.5,4.5,0,6.3,2.2,12.5,2.2,6.3,0,8.1-2.2,12.7-2.2s1.9.3,2.3.5c-3.7,4.1-8.9,6.6-14.9,6.6ZM214.5,554.7c-.6-.3-1.8-.9-4.1-.9-4.8,0-6.3,2.1-12.6,2.1s-7.7-2.1-12.6-2.1-3.4.6-4.1.9c-.4-.6-.9-1.4-1.3-2.1.7-.4,2.2-1,4.9-1,4.5,0,7,2,13,2,6,0,8.5-2,13-2s4.2.7,4.9,1.1c-.4.7-.8,1.4-1.3,2ZM211.4,548.2c-3.5,0-9.2,2.1-13.5,2.1s-9.9-2.1-13.4-2.1-5.1,1-5.9,1.4c-.6-2-1-4-1-6.2,0-11.2,9.1-20.2,20.2-20.2s20.2,9.1,20.2,20.2-.3,4.3-1,6.2c-.8-.4-3-1.4-5.8-1.4Z"/>
        <path d="M210.9,531.3c-.2.6-.1,1.7-.1,1.7v13h-3.8v-15.8h4.5s-.4.4-.6,1Z"/>
        <path d="M188.6,530.3v15.8h-3.7v-13s0-1.2-.2-1.7c-.2-.6-.6-1-.6-1h4.5Z"/>
        <path d="M204.5,541.4l-.7,4s-2.2,1.4-5.1,1.4-7.9-1.8-7.9-8.6,4.6-8.8,8.3-8.7c3.6,0,4.9,1.7,4.9,1.7l.2,3.7s-1.6-2.5-4.5-2.5-5.1,2.4-5.1,5.7c0,3.3,2,5.8,5.3,5.8,3.3,0,4.7-2.4,4.7-2.4Z"/>
      </g>
      <path d="M196,505.5c-12.2,8.8-5.5,94.8-5.5,94.8h1.8s.1-10.1-.4-19.6-.7-12.2-.9-18.9c-.4-18.4,1.1-37.7,2.7-43.5,3.4-12.1,2.3-12.7,2.3-12.7Z"/>
      <circle cx="200.5" cy="523.5" r="1.2"/>
      <circle cx="199.5" cy="538.7" r="1.2"/>
      <circle cx="198.5" cy="556.7" r="1.2"/>
      <circle cx="199.5" cy="574.6" r="1.2"/>
      <circle cx="200.5" cy="588.7" r="1.2"/>
    </g>
  </g>
  <path id="Shirt-neck" class="st5" d="M118,506.4c3.8-10.5,11.4-29.4,4.1-41.2,19,3.1,38.2-.2,68.9,0,42.8.4,77.2,2.7,91-.6-8.6,16.4,3.1,40.7,3.1,40.7l-167.1,1.2Z"/>
  <path class="st1" d="M381.7,551.4c-25.4-35.1-68.3-29-96-41.4-1.3-.6,3.5,2.4,3.5,2.4l5.1,1.7,9.2,2.6,5.8,1.2,8.6,1.5,11.7,2.7,11,2.7,9.2,3.2,8.7,3.8,6.3,3.9,5.7,4.3,4.7,4.5,4,3.9,2.6,4.2s1.3.5-.1-1.4Z"/>
  <path class="st1" d="M17.4,550.5c11.2-24.5,47.6-17.4,98.7-38.9,0,0,2.6-.2-5.7,3.3-8.3,3.5-9.2,3.5-9.2,3.5l-16.3,4.7-22.4,5.3-13.8,3.7-9.9,2.6-6.3,3.2-8.9,7s-6.9,7.2-6.2,5.7Z"/>
  <path d="M173.1,467.8c-5.5,3.5-2.4,37.7-2.4,37.7h.8s-.9-27.8.6-32.6,1-5.1,1-5.1Z"/>
  <circle cx="175.9" cy="479.2" r="1.2"/>
  <circle cx="175.9" cy="491.3" r="1.2"/>
  <rect class="st3" x="125.2" y="572.3" width="164.5" height="24.9"/>
  <g>
    <path d="M126.3,585v11.7h161.9v-23.3H126.3v11.7ZM187,577c1,.2,1.2.4,1.2,1.8,0,1.2,0,1.3-.4,1.4-1.1.5-2.3.5-3.2,0-.3-.2-.9-.5-1.4-.7-1.3-.5-2.1-.6-5.4-.6s-3,0-3.4.2c-.4.2-.4.3-.4,2.5s0,2.4.1,2.4c0,0,.6.1,1.7,0,1.5,0,1.6,0,1.9-.3.2-.1.4-.4.4-.6.3-1,2.4-1.4,3.6-.7q.5.3.4,1.4c0,.6,0,1.6,0,2.3.2,1.4,0,1.7-1,1.9-.8.2-.9.2-1.7,0-.7-.2-1.3-.7-1.3-1.1s-.2-.4-.6-.6-.7-.3-1.7-.3c-1.9,0-1.8-.2-1.8,2.7v2.5h.4c.2.1,2.2.2,4.4.1,3.7,0,4,0,4.7-.2.8-.2,1.9-.7,2.9-1.4.6-.4.7-.4,1.6-.4s1,0,1.5.3c.8.5.7.6-.4,2.6-.2.4-.6.7-.9.9l-.5.3h-2.3c-2.8-.1-4.6-.1-13.8,0-7.6,0-7.8,0-8.6-.5-.8-.6-.3-1.2,1.3-1.5,1.5-.3,1.4,0,1.3-6.2,0-3-.1-5.5-.2-5.6-.2-.2-.5-.4-1.3-.6-1.6-.4-1.9-1-.8-1.5l.6-.3h10.7c5.9,0,11,0,11.2,0,.3,0,.7,0,1,0h0ZM254.8,577.2c.5.2,1.2.8,1.4,1.1,0,.1.4.6.8,1.1s1,1.4,1.3,2c.4.6,1,1.5,1.3,2,.4.5.9,1.3,1.2,1.7.3.5.6.9.8,1,.2.2.3.2.4,0,.1-.1.3-.4.5-.7.1-.3.4-.8.6-1.1.2-.4.4-.8.5-1,0-.2.2-.5.3-.6.2-.2,1.1-1.8,1.6-2.6.1-.3.5-.9.8-1.5.5-.9.7-1,1.3-1.3l.7-.3h12l.5.3c.7.4.7,1,0,1.3-.3.1-.8.2-1.2.3-.3,0-.8.2-1.1.3l-.5.3v4.7c.2,2.6.3,5.1.3,5.6,0,.8,0,.9.4,1.2.3.2.6.3,1.1.4,1,.1,1.5.3,1.7.7s0,.8-.7,1.1c-.4.2-.8.2-5.9.3-5.9,0-7,0-7.6-.3-.5-.3-.7-.7-.5-1,.2-.3,1.2-.7,1.8-.7s.5-.1.7-.2l.4-.2v-4.3c-.3-2.6-.4-4.3-.5-4.3-.2,0-.4.4-.8,1.2-.4.8-.6,1.2-.8,1.3,0,0-.2.3-.3.5-.4.8-2,3.6-2.7,4.6-.2.3-.5.8-.6,1.1-.5,1.3-1.2,2.1-2,2.4-.4.2-.8.2-1.6.2s-1.8-.1-2.4-.5c-.4-.2-1-.9-1-1.1s-.1-.2-.3-.4c-.3-.3-.7-.9-1.1-1.5-.2-.3-.4-.6-.5-.8-.1-.2-.5-.6-.8-1.1-.3-.5-.6-.9-.7-1s-.2-.3-.3-.5c-.2-.4-1.7-2.5-2.1-2.9-.2-.2-.4-.3-.4-.3,0,0,0,1.7,0,3.8l.2,3.7.4.2c.3,0,.7.2,1,.2.9,0,1.4.4,1.4,1s0,.5-.5.7l-.5.3h-9.7l-.5-.3c-.7-.3-.9-.8-.5-1.1.4-.4,1-.6,1.5-.6s.7-.1,1-.2l.5-.2v-5.5c-.1-5-.2-5.6-.4-5.8-.3-.3-.8-.5-1.4-.5s-.7-.1-1-.3c-.6-.3-.6-.4-.5-.7.1-.6.6-.8,2.3-.9.7,0,3.3,0,5.7,0,3.8,0,4.4,0,4.8.2h0ZM152.9,577.2c.3,0,.8.1,1,.1.5,0,3.2.6,4.3,1,1,.3,2.5,1,3.5,1.6,1,.6,2.3,2.2,2.3,2.8s.1.5.3.7c.3.5.3,2,0,2.8,0,.3-.2.8-.3,1.2-.3,1.2-1.2,2.3-2.8,3.3-1.8,1.2-4,1.9-7.5,2.4-.8.1-3.1.2-9.8.2-9.4.1-10.2,0-11.1-.3-.6-.3-.8-.7-.5-1.1.3-.3,1.3-.7,1.9-.7s.6-.1.8-.3c.4-.2.4-.4.6-1.6.2-2.1.1-9.4,0-9.8-.2-.3-1.1-.7-1.7-.7s-1.2-.4-1.3-.7c-.2-.4.2-.8.9-1,.5-.2.8-.2,9.7-.2s9.2,0,9.8.1ZM202.7,577.2c.8.3,1.2.5,1.9,1.1.3.2.7.5.8.7.1.1.6.5,1.1.9.4.4,1,.8,1.2,1s.4.3.4.3.3.3.8.6c.4.3.9.7,1,.8.6.4,1.8,1.4,1.9,1.6.1,0,.5.4.9.7.4.3.8.6.9.7,1.2,1,1.8,1.4,1.9,1.4s.2-1.7.2-3.8v-3.8l-.6-.2c-.3-.1-.7-.2-.8-.2-.4,0-1.3-.3-1.5-.6-.3-.4,0-.8.5-1.1l.5-.2h9.6l.6.3c.4.2.5.3.5.6,0,.5-.5.7-1.8,1.1l-1,.3v6.3c-.2,7-.1,6.5-1.4,7.3-.7.4-1.3.6-2.4.6-2.4.2-4-.2-5.6-1.5-.5-.4-1.4-1-1.9-1.4-.5-.4-1-.8-1.2-.9s-.6-.5-1.1-.9-.9-.7-1-.8-.4-.3-.5-.4c-.2-.1-.6-.5-1.1-.9s-1.2-.9-1.7-1.3c-1-.8-2.3-1.8-2.6-2.1-.5-.4-.8-.6-1-.5-.1,0-.2,1.3-.2,4v3.9l.5.3c.3.2.7.3,1,.3s.7.1,1.1.3c.5.2.6.4.6.6,0,.6-.6,1-1.9,1-1.7.1-8,.1-8.9,0-2.9-.3-2.5-2,.5-2s1,0,1.3-.2l.4-.2v-5.7s0-5.7,0-5.7l-.6-.3c-.4-.2-.7-.2-1.5-.2s-1.1,0-1.6-.3c-.5-.2-.6-.3-.6-.7s.1-.5.5-.7l.5-.3h5.3c5.3,0,5.3,0,6,.2h0ZM240.3,577.4c.6.4.7.7.2,1.1-.4.3-.7.4-1.7.5-.4,0-.9.2-1.1.3l-.4.2v5.5c0,4.7,0,5.6.3,5.8.4.3.9.5,1.6.5.6,0,1.1.2,1.6.6.6.5,0,1.2-1.1,1.3-.4,0-3.3,0-6.7,0h-6.1s-.5-.3-.5-.3c-.4-.2-.5-.3-.5-.7s0-.5.5-.7c.3-.1.7-.2.9-.2.6,0,1.3-.3,1.5-.7.2-.3.2-4.7-.1-9.3v-1.8c-.1,0-.6-.2-.6-.2-.3-.1-.6-.2-.8-.2-.5,0-1.3-.3-1.6-.6-.4-.4-.2-.7.5-1l.5-.3h13.1l.5.3Z"/>
    <path d="M144.5,579.2l-.4.2v5.7c0,0-.1,5.7-.1,5.7l.4.3c.4.2.5.3,1.6.2,2.5,0,4.4-.5,6.3-1.4,1.6-.8,2.1-1.3,2.6-2.8.3-.9.4-2.9,0-3.6-.4-1-.8-1.7-1.1-2-.8-.8-2.6-1.6-4.2-2-1.7-.4-4.4-.5-5.1-.2h0Z"/>
  </g>
  <rect class="st3" x="91.1" y="525.5" width="54.2" height="42.7"/>
  <g>
    <path class="st9" d="M110.3,538.6c0-3.1,2.5-5.5,5.5-5.5s5.5,2.5,5.5,5.5-2.5,5.5-5.5,5.5-5.5-2.5-5.5-5.5h0ZM115.8,541c1.4,0,2.5-1.1,2.5-2.5s-1.1-2.5-2.5-2.5-2.5,1.1-2.5,2.5,1.1,2.5,2.5,2.5h0Z"/>
    <path class="st7" d="M94.2,529.3h4.6l2.6,9,2.7-9h4.5v14.4h-3v-10l-3,10h-2.7l-2.8-10.1v10.1h-3v-14.5ZM122.4,529.3h3v14.4h-3v-14.4Z"/>
    <path class="st7" d="M123.2,538.6c0-3.1,2.3-5.5,5.2-5.5s5.2,2.5,5.2,5.5-2.3,5.5-5.2,5.5c-2.9,0-5.2-2.5-5.2-5.5ZM128,541.1c1.4,0,2.5-1.1,2.5-2.5,0-1.4-1.1-2.5-2.5-2.5h0c-1.4,0-2.5,1.1-2.5,2.5,0,1.4,1.1,2.5,2.5,2.5ZM139.3,529.3h3v14.4h-3v-14.4ZM134.7,533h3v10.7h-3v-10.7h0ZM137.7,532.3v-3h-3v3h3Z"/>
    <path class="st8" d="M128.2,564.6v-17.3h-17.3v17.3h17.3Z"/>
    <path class="st4" d="M118.8,548.6h2.9v14.4h-3.2v-11.3h-2.2v-2.1s2,.4,2.5-1.1h0Z"/>
  </g>
  <g>
    <path class="st0" d="M183.5,486.9v8.6h87.8v-17.2h-87.8v8.6ZM216.5,481c.6.1.7.3.7,1.4,0,.9,0,.9-.2,1.1-.6.4-1.2.4-1.7,0-.2-.1-.5-.4-.8-.5-.7-.4-1.1-.4-2.9-.4s-1.6,0-1.8.1c-.2.1-.2.2-.2,1.8s0,1.7,0,1.8c0,0,.3,0,.9,0,.8,0,.9,0,1-.2.1,0,.2-.3.2-.5.1-.8,1.3-1.1,1.9-.5q.3.2.2,1c0,.4,0,1.2,0,1.7.1,1,0,1.2-.5,1.4-.4.1-.5.1-.9,0-.4-.1-.7-.5-.7-.8s0-.3-.3-.4-.4-.2-.9-.2c-1,0-1-.1-1,2v1.8h.2c.1,0,1.2.1,2.4.1,2,0,2.2,0,2.6-.2.5-.2,1-.5,1.6-1,.3-.3.4-.3.9-.3s.5,0,.8.2c.4.3.4.5-.2,1.9-.1.3-.3.5-.5.7l-.3.2h-1.3c-1.5-.1-2.5-.1-7.5,0-4.1,0-4.3,0-4.7-.4-.4-.4-.1-.9.7-1.1.8-.2.8,0,.7-4.6,0-2.2,0-4.1-.1-4.2,0-.2-.3-.3-.7-.4-.9-.3-1-.7-.4-1.1l.4-.2h5.8c3.2,0,5.9,0,6.1,0,.1,0,.4,0,.5,0h0ZM253.3,481.1c.3.1.6.6.8.8,0,0,.2.5.4.8s.5,1,.7,1.5c.2.4.5,1.1.7,1.5.2.4.5,1,.6,1.3.2.3.4.7.4.7.1.1.1.1.2,0,0,0,.2-.3.3-.5,0-.2.2-.6.3-.8.1-.3.2-.6.3-.7,0-.1.1-.3.2-.4.1-.2.6-1.3.8-1.9,0-.2.3-.7.5-1.1.3-.7.4-.8.7-1l.4-.2h6.5l.3.2c.4.3.4.7,0,1-.2,0-.4.2-.6.2-.2,0-.4.1-.6.2l-.3.2v3.5c.1,1.9.1,3.7.1,4.1,0,.6,0,.7.2.9.2.2.3.2.6.3.5,0,.8.2.9.5s0,.6-.4.8c-.2.1-.5.1-3.2.2-3.2,0-3.8,0-4.1-.2-.3-.2-.4-.5-.3-.7.1-.2.7-.5,1-.5s.3,0,.4-.2l.2-.2v-3.2c-.1-1.9-.2-3.2-.3-3.2,0,0-.2.3-.4.9-.2.6-.3.9-.4,1,0,0-.1.2-.2.4-.2.6-1.1,2.7-1.4,3.4-.1.3-.3.6-.3.8-.3.9-.7,1.5-1.1,1.7-.2.1-.4.1-.9.1s-1-.1-1.3-.4c-.2-.2-.6-.7-.6-.8s0-.2-.1-.3c-.2-.2-.4-.6-.6-1.1,0-.2-.2-.5-.3-.6,0-.1-.3-.5-.4-.8-.2-.3-.4-.7-.4-.7s-.1-.2-.2-.3c-.1-.3-.9-1.8-1.1-2.2,0-.1-.2-.2-.2-.2,0,0,0,1.3,0,2.8v2.7c.1,0,.4.1.4.1.1,0,.4.1.5.2.5,0,.8.3.8.7s0,.4-.3.5l-.3.2h-5.3l-.3-.2c-.4-.3-.5-.6-.3-.8.2-.3.5-.4.8-.4s.4,0,.5-.2l.3-.2v-4.1c0-3.7,0-4.1-.2-4.3-.2-.2-.4-.4-.8-.4s-.4-.1-.6-.2c-.3-.2-.3-.3-.3-.5,0-.5.3-.6,1.2-.6.4,0,1.8,0,3.1,0,2.1,0,2.4,0,2.6.1h0ZM197.9,481.1c.2,0,.4.1.5.1.3,0,1.8.4,2.3.7.6.2,1.3.8,1.9,1.2.6.5,1.2,1.6,1.2,2s0,.4.1.5c.2.4.2,1.5,0,2.1,0,.2-.1.6-.2.9-.2.9-.6,1.7-1.5,2.5-1,.9-2.2,1.4-4.1,1.7-.4,0-1.7.1-5.3.2-5.1,0-5.5,0-6-.2-.3-.2-.5-.5-.3-.8.2-.2.7-.5,1-.5s.3,0,.4-.2c.2-.2.2-.3.3-1.2.1-1.5,0-7,0-7.2-.1-.2-.6-.5-.9-.5s-.7-.3-.7-.5c0-.3.1-.6.5-.8.3-.1.5-.1,5.3-.1s5,0,5.3.1ZM225,481.1c.4.2.7.4,1,.8.2.2.4.4.4.5,0,0,.3.4.6.6.2.3.5.6.7.7s.2.2.2.2.2.2.4.5c.2.2.5.5.5.6.3.3,1,1.1,1.1,1.2,0,0,.3.3.5.5.2.2.4.5.5.5.6.7,1,1.1,1,1.1s0-1.2,0-2.8v-2.8l-.3-.2c-.2-.1-.4-.2-.4-.2-.2,0-.7-.2-.8-.4-.2-.3,0-.6.3-.8l.3-.2h5.2l.3.2c.2.2.3.3.3.5,0,.3-.3.5-1,.8l-.5.2v4.7c-.1,5.2,0,4.8-.8,5.4-.4.3-.7.4-1.3.5-1.3.1-2.2-.2-3-1.1-.3-.3-.7-.7-1-1-.3-.3-.6-.6-.6-.7s-.3-.4-.6-.6-.5-.5-.6-.6-.2-.2-.3-.3c0-.1-.4-.4-.6-.6s-.6-.7-.9-1c-.5-.6-1.3-1.4-1.4-1.5-.3-.3-.4-.4-.5-.4,0,0-.1.9-.1,2.9v2.9l.3.2c.2.1.4.2.5.2s.4,0,.6.2c.3.2.4.3.4.5,0,.5-.3.7-1,.8-.9,0-4.3,0-4.9,0-1.6-.2-1.3-1.5.3-1.5s.5,0,.7-.2l.2-.2v-4.2s0-4.2,0-4.2l-.3-.2c-.2-.1-.4-.2-.8-.2s-.6,0-.9-.2c-.3-.2-.3-.2-.3-.5s0-.3.3-.5l.3-.2h2.9c2.9,0,2.9,0,3.3.2h0ZM245.4,481.2c.4.3.4.5.1.8-.2.2-.4.3-.9.4-.2,0-.5.1-.6.2h-.2v4.2c0,3.5,0,4.1.1,4.3.2.3.5.4.9.4.3,0,.6.1.9.4.3.3,0,.9-.6,1-.2,0-1.8,0-3.7,0h-3.3s-.3-.2-.3-.2c-.2-.1-.3-.2-.3-.6s0-.4.3-.5c.1,0,.4-.2.5-.2.3,0,.7-.2.8-.5.1-.2,0-3.5,0-6.9v-1.4c0,0-.4-.2-.4-.2-.2,0-.4-.2-.4-.2-.3,0-.7-.2-.9-.5-.2-.3-.1-.5.3-.8l.3-.2h7.1l.3.2Z"/>
    <path class="st0" d="M193.4,482.6h-.2c0,.1,0,4.3,0,4.3v4.2s.2.2.2.2c.2.2.3.2.9.2,1.3,0,2.4-.3,3.4-1,.9-.6,1.1-1,1.4-2.1.2-.6.2-2.2,0-2.7-.2-.7-.4-1.2-.6-1.5-.4-.6-1.4-1.2-2.3-1.5-.9-.3-2.4-.4-2.8-.1h0Z"/>
  </g>
  <rect class="st6" x="249.8" y="524.2" width="57.5" height="42.4"/>
  <g>
    <path id="svg_1" class="st2" d="M258.3,556.6h.8c.4.1.4.4.4.6v.9h-3.7v-.9c0-.2,0-.5.4-.5h.8v-.9h-4.8v.8h.8c.4.1.4.4.4.6v3.1c0,.2,0,.5-.4.5h-.8v.9h4.8v-.8h-.8c-.4-.1-.4-.4-.4-.6v-.9h3.7v.9c0,.2,0,.5-.4.5h-.8v.9h4.8v-.8h-.8c-.4-.1-.4-.4-.4-.6v-3.1c0-.2,0-.5.4-.5h.8v-.9h-4.8v.8h0Z"/>
    <path id="svg_2" class="st2" d="M290.4,555.8h-5.9v.8h.7c.3.1.4.2.4.6v3.2c0,.2,0,.5-.4.5h-.8v.9h6c2.2,0,3.9-.9,3.9-3s-1.8-3-3.9-3M290,560.7h-2v-3.7h2c1.2,0,1.6.6,1.6,1.9s-.4,1.9-1.6,1.9"/>
    <path id="svg_3" class="st2" d="M304.4,560.9c-.4,0-.5-.3-.6-.5l-2.8-4.2c-.2-.3-.3-.4-.6-.4h-4.6v.8h1.1c.2.1.4.3.2.6l-2.1,3.3c0,.1-.2.3-.4.3h-.8v.9h3.8v-.8h-.7c-.3,0-.4-.3-.3-.5l.3-.5h3.7l.3.4c.3.4,0,.5-.3.5h-.7v.9h5.2v-.8h-.8ZM297.7,558.9l1.1-1.9,1.2,1.9h-2.4Z"/>
    <path id="svg_4" class="st2" d="M280.1,556.6h.8c.4.1.4.4.4.6v3l-3.2-4.2c-.1-.2-.3-.3-.6-.3h-4.1v.8h.8c.4.1.4.4.4.6v3.1c0,.2,0,.5-.4.5h-.8v.9h3.9v-.8h-.8c-.4-.1-.4-.4-.4-.6v-3l3.2,4.2c.2.2.3.3.6.3h2.9v-4.6c0-.2,0-.5.4-.5h.8v-.9h-3.8v.8h0Z"/>
    <path id="svg_5" class="st2" d="M268.2,555.6c-3.9,0-4.9,1.7-4.9,3.2s1,3.2,4.9,3.2,4.9-1.7,4.9-3.2-1-3.2-4.9-3.2M268.2,560.9c-1.5,0-2.1-.6-2.1-2.1s.6-2.1,2.1-2.1,2.1.6,2.1,2.1-.6,2.1-2.1,2.1"/>
    <path id="svg_6" class="st2" d="M285.4,530.4c-.7,3-.9,4.3-1.5,6.4-.5,2-.9,4-1.6,4.9-.7.9-1.6,1.1-2.3,1.2-.3,0-.6,0-1.3,0s-1,0-1.3,0c-.6,0-1.6-.3-2.3-1.2-.7-.9-1.1-2.8-1.6-4.9-.5-2.1-.8-3.5-1.5-6.4,0,0-.7,0-.9,0-.4,0-.7,0-1,0,0,0,.4,6.1.6,8.7.2,2.7.5,7.3.8,10.7,0,0,.6,0,1.5.1,1,0,1.4,0,1.4,0,.4-1.5.9-3.6,1.4-4.5.5-.7,1.2-.8,1.6-.9.6,0,1.2,0,1.4,0h0c.3,0,.8,0,1.4,0,.4,0,1.1.1,1.6.9.6.9,1.1,3,1.4,4.5,0,0,.4,0,1.4,0,.9,0,1.5-.1,1.5-.1.3-3.5.6-8,.8-10.7.2-2.6.6-8.7.6-8.7-.3,0-.7,0-1,0-.3,0-.9,0-.9,0"/>
    <path id="svg_7" class="st2" d="M293,534c-.4-3.9-3-4.7-5.2-5.1-1.1-.2-3.2-.3-4.5-.4-1.1,0-3.8-.1-4.6-.1s-3.5,0-4.6.1c-1.3,0-3.3.2-4.5.4-2.3.4-4.8,1.2-5.2,5.1-.1,1.1-.1,2.4-.1,3.9,0,2.5.3,4.1.4,5.3,0,.8.4,3.1.8,4.4.6,1.7,1.1,2.2,1.7,2.7,1.1.9,3,1.2,3.4,1.3,2.1.4,6.3.4,8.2.4s6.1,0,8.2-.4c.4,0,2.2-.3,3.4-1.3.6-.5,1.1-1,1.7-2.7.4-1.2.8-3.6.8-4.4.1-1.1.3-2.8.4-5.3,0-1.5,0-2.9-.2-3.9M291.6,540.5c-.2,3.1-.5,4.9-.9,6.3-.3,1.2-.8,1.9-1.4,2.5-1,.9-2.5,1.1-3.3,1.3-1.8.3-4.9.4-7.3.4s-5.5,0-7.3-.4c-.8-.1-2.3-.3-3.3-1.3-.6-.6-1-1.4-1.4-2.5-.4-1.3-.7-3.2-.9-6.3-.1-1.9-.1-4.9,0-6.5.3-2.4,1.5-3.6,4.1-4.1,1.2-.2,2.8-.4,4.3-.4,1.2,0,3.2-.1,4.4-.1,1.1,0,3.1,0,4.4.1,1.5,0,3.1.2,4.3.4,2.6.5,3.8,1.7,4.1,4.1.2,1.6.2,4.6,0,6.5"/>
  </g>
</svg>