<?xml version="1.0" encoding="UTF-8"?>
<svg xmlns="http://www.w3.org/2000/svg" version="1.1" viewBox="0 0 400 600">
  <defs>
    <style>
      .cls-1 {
        fill: #ffde00;
      }

      .cls-2 {
        fill: #fff;
      }

      .cls-4 {
        stroke: #df2a37;
        stroke-width: 9px;
      }

      .cls-4, .cls-5 {
        fill: #df2a37;
      }

      .cls-4, .cls-6, .cls-7 {
        stroke-miterlimit: 10;
      }

      .cls-6 {
        stroke: #005586;
        stroke-width: 3px;
      }

      .cls-6, .cls-8 {
        fill: #000835;
      }

      .cls-9 {
        fill: silver;
      }

      .cls-7 {
        stroke: #000835;
        stroke-width: 4px;
      }

      .cls-7, .cls-10 {
        fill:$[secondary];
      }

      .cls-3 {
        stroke: $[accent];
        stroke-width: 6px;
		fill:$[primary];
      }

      .cls-10 {
        stroke: #ffde00;
        stroke-width: 2px;
      }
    </style>
  </defs>
  <!-- Generator: Adobe Illustrator 28.7.4, SVG Export Plug-In . SVG Version: 1.2.0 Build 166)  -->
  <g>
    <g id="_x31_8">
      <g id="Layer_1">
        <g id="suit2">
          <path id="Shirt" class="cls-3" d="M281.2,502.8c5.6,3.7,17.7,7.7,28.6,9.9,0,0,30.8,5.3,37.9,7.7,57.4,22.3,50.4,79.7,50.4,79.7l-395.8-.2s-3.8-63.4,37.2-71.5c7.7-1.5,25.9-8.7,35.6-9.4,0,0,37.4-9,42.8-12.6.9,5.7,11.3-29.5,4-41.3,19,3.1,38.2-.2,68.9,0,42.8.4,77.3,2.9,91.1-.5-8.6,16.4-.8,38.2-.8,38.2Z"/>
          <g>
            <path class="cls-7" d="M62,524.7c10.7,57.1-57,70.2-57.1,72.5"/>
            <path class="cls-7" d="M342.1,521.9c-5.2,73,53.4,75.1,53.4,75.1"/>
          </g>
          <path d="M196,505.5c-12.2,8.8-5.5,94.8-5.5,94.8h1.8s.1-10.1-.4-19.6-.7-12.2-.9-18.9c-.4-18.4,1.1-37.7,2.7-43.5,3.4-12.1,2.3-12.7,2.3-12.7Z"/>
          <circle cx="200.5" cy="523.5" r="1.2"/>
          <circle cx="199.5" cy="538.7" r="1.2"/>
          <circle cx="198.5" cy="556.7" r="1.2"/>
          <circle cx="199.5" cy="574.6" r="1.2"/>
          <circle cx="200.5" cy="588.7" r="1.2"/>
        </g>
      </g>
      <path id="Shirt-neck" class="cls-3" d="M118,506.4c3.8-10.5,11.4-29.4,4.1-41.2,19,3.1,38.2-.2,68.9,0,42.8.4,77.2,2.7,91-.6-8.6,16.4,3.1,40.7,3.1,40.7l-167.1,1.2Z"/>
      <path d="M168.4,466.6c-5.5,3.5-2.4,37.7-2.4,37.7h.8s-.9-27.8.6-32.6,1-5.1,1-5.1Z"/>
      <circle cx="171.2" cy="477.9" r="1.2"/>
      <circle cx="171.2" cy="490.1" r="1.2"/>
      <g>
        <path d="M28.1,548.5c-.2.9-.7,2.3-1.4,4.3-.2.5-.4,1-.4,1.2,0,.2-.2.7-.4,1.1-.2.4-.4,1.1-.6,1.6-.1.5-.3,1-.4,1.3-.1.2-.3.7-.3,1-.1.4-.3.6-.8,1-.8.6-2.4,1.9-3.4,3-.5.5-1,1-1.2,1.2s-.5.5-.7.7c-.1.2-.4.5-.6.8-.7,1-2,3-2.1,3.3,0,.1-.1.3-.2.3-.3.2-1.2,3.4-1.4,4.7,0,.7-.4,2.2-.6,3.3-.7,2.9-.5,4.2.8,5.1,1.2.8,2.2.7,4.1-.4.8-.5,1.4-.9,1.7-1.2.2-.3.5-.6.7-.6.3-.2.8-.8,1.4-1.6.2-.2.4-.6.6-.8.2-.2.5-.6.6-.9.2-.3.5-.7.7-.9.2-.2.8-1.1,1.4-2,.6-.9,1.3-1.9,1.5-2.2.2-.3.6-.9.8-1.2.4-.6.4-.6,1.1-.8.4-.1,1.1-.3,1.5-.4,1.2-.3,1.9-.5,3.2-.8.7-.2,1.7-.4,2.2-.5.5-.1,1.1-.3,1.5-.3.3,0,.8-.2,1-.3s.6-.2.8-.2c.2,0,.5,0,.6-.1s.4-.1.6,0c.2,0,.4,0,.6,0,.3-.1.2-.2-.2-.7-.2-.3-1.3-2-2.3-3.7-2-3.3-2.1-3.6-1.6-3.9s.5-.5.8-.9.7-1.1.9-1.4c.2-.4.6-.9.8-1.2s.5-.6.6-.7c.1,0,.2-.3.2-.4s.1-.3.2-.4.6-.8,1.2-1.6,1.6-2.4,2.2-3.3c.6-1,1.8-2.7,2.6-3.9.8-1.2,1.4-2.1,1.5-2.2s.5-.7,1.1-1.6,1.5-2.2,2.1-3.1c1.7-2.4,1.9-2.6,1.8-2.8-.1-.2-.6,0-1,.4-1.3,1.4-3,3-4.4,4.1-.4.3-.8.7-1,.9-.2.2-.8.8-1.5,1.3s-1.5,1.2-1.9,1.6c-.4.4-1.3,1.1-1.9,1.6-1.1.9-1.9,1.6-3.4,3-.4.4-1,.8-1.1.9-.3.2-.8.6-2.9,2.6-.6.5-1.2,1-1.3,1.1-.2,0-.4,0-1.1-1.2-1.4-2.1-2.4-3.6-2.6-3.7-.3-.2-.5,0-.7,1h0ZM30.6,553.2c.7,1.1,1.3,1.9,1.4,2s.4-.2.8-.5c1.4-1.2,3-2.6,4-3.4.6-.5,1.4-1.2,1.9-1.6.5-.4,1.1-1,1.4-1.3.3-.3.7-.6.8-.8,0-.1.3-.3.4-.4s.5-.5.8-.8c.7-.8,1-1,1.4-1,.3,0,.3,0,0,.6-.2.3-.4.6-.5.7s-.4.4-.7.9c-.3.4-.7.9-.8,1.1s-.8,1.1-1.5,2.2c-.7,1-1.3,1.9-1.4,2s-.3.4-.5.7-.4.7-.5.8c-.5.7-.9,1.3-.9,1.5,0,0,0,.2-.2.3s-.6.7-1.1,1.5l-.9,1.4,2,3.1c1.1,1.7,1.9,3.2,1.9,3.3,0,0-.4.2-.9.3-.4,0-1.2.3-1.7.4-.5.1-1.2.3-1.5.4s-1,.2-1.5.4-1.1.2-1.3.3c-.2,0-1,.2-1.7.4-.7.2-1.6.4-1.9.5-.5,0-.6.1-1.1,1-.3.5-.6.9-.7.9s-.6.8-1.2,1.7c-1.7,2.5-2.5,3.7-3.2,4.7-.4.5-.7,1-.7,1.1,0,.1-.2.3-.4.4s-.5.4-.7.6c-.7.9-1.5,1.7-2.4,2.2s-1,.5-1.5.5c-.3,0-.6-.2-.7-.3-.2-.3,0-2.2.5-3.5.3-1,1-2.2,1.6-3.1,0,0,.2-.3.3-.4.4-.6,1.1-1.3,3.1-3.5.3-.3.7-.8.9-1,.2-.2.4-.4.5-.5s.6-.6,1.1-1.2c1-1.2,1.1-1.6.6-2-.2-.1-.4-.1-.6.1-.9.8-2,2.3-2.3,3.1,0,.2-.5.7-.8,1-.7.6-1.6,1.5-2.3,2.3-.7.8-1.2,1.1-1.4.9-.1-.2.7-2.4,1.2-3.1.1-.2.3-.5.5-.8.6-1.3,2.2-3.2,3.9-4.9,1-1,2.8-2.5,3.3-2.8s.7-.5,1-1.3c.2-.5.5-1.2.5-1.3s.2-.9.5-1.5c.2-.6.5-1.4.6-1.6,0-.3.3-1,.5-1.6.2-.6.5-1.4.6-1.8.3-1.2.4-1.1,1.8,1h0Z"/>
        <path d="M21.3,571.5c-.2.3-.7,1-1,1.4-1.1,1.2-1.9,2.9-1.6,3.2.4.3,1.9-1.1,2.5-2.4.2-.4.3-.7.4-.7s.1-.2.1-.3c0-.1.3-.6.5-1.1.2-.4.3-.9.3-1-.1-.2-.7.2-1.2.9Z"/>
      </g>
      <g>
        <path d="M380.3,559.4c-.8-.4-2-1.3-3.8-2.6-.4-.3-.9-.6-1-.7-.1,0-.6-.4-.9-.7-.4-.3-1-.7-1.4-1-.4-.3-.9-.6-1.1-.8-.2-.2-.6-.4-.9-.6-.3-.2-.5-.5-.7-1-.3-1-1.2-2.8-1.9-4.1-.3-.6-.7-1.3-.8-1.5s-.4-.6-.5-.8c-.2-.2-.4-.5-.6-.8-.8-1-2.4-2.8-2.6-2.9-.1,0-.3-.2-.3-.3,0-.3-2.9-2.1-4.1-2.6-.7-.3-2-1-3-1.5-2.6-1.5-3.9-1.6-5.1-.6-1.1.9-1.2,1.9-.7,4,.2.9.5,1.6.7,1.9.2.3.4.7.4.8,0,.3.5,1,1.2,1.8.2.2.5.6.6.8.2.2.5.6.7.9.2.3.5.6.7.9.2.2.9,1.1,1.6,1.9.7.8,1.5,1.7,1.7,2,.2.3.7.8.9,1.1.5.5.5.6.5,1.3,0,.4,0,1.1,0,1.6,0,1.3,0,1.9,0,3.3,0,.7,0,1.7,0,2.2,0,.5,0,1.2,0,1.5,0,.3,0,.8,0,1s0,.6,0,.8c0,.2-.1.5,0,.6s0,.4,0,.6c0,.1-.1.4,0,.6,0,.3.1.3.7,0,.4-.2,2.2-.7,4.2-1.2,3.8-1,4-1,4.2-.4s.4.6.7,1,.9,1,1.1,1.3c.3.3.7.8,1,1.1s.5.6.5.7c0,.1.2.3.3.4s.3.2.3.3.6.8,1.3,1.6,1.8,2.1,2.6,3c.8.9,2.1,2.5,3,3.5.9,1.1,1.7,2,1.7,2s.6.7,1.2,1.5,1.7,2.1,2.4,2.9c1.8,2.3,2,2.6,2.2,2.5.3,0,.2-.5-.1-1.1-1-1.7-2.1-3.7-2.8-5.3-.2-.4-.5-1-.6-1.2-.1-.2-.5-1-.8-1.7s-.8-1.8-1.1-2.3c-.3-.5-.7-1.5-1-2.2-.6-1.3-1-2.2-2-4.1-.3-.5-.5-1.1-.6-1.4,0-.4-.3-.9-1.7-3.5-.4-.7-.7-1.4-.7-1.6,0-.2.2-.3,1.4-.7,2.4-.8,4.1-1.4,4.3-1.5.3-.2,0-.5-.8-.9h0ZM375.1,560.5c-1.2.4-2.2.7-2.3.8s0,.4.3.9c.8,1.7,1.7,3.6,2.2,4.7.3.7.8,1.7,1,2.2.3.5.6,1.3.8,1.7.2.4.4.8.5.9.1.1.2.3.3.5s.3.6.6,1c.6.9.7,1.2.5,1.6-.1.3-.2.3-.6-.3-.3-.3-.5-.6-.5-.7s-.3-.5-.7-.9c-.3-.4-.7-.9-.8-1.1s-.9-1.1-1.7-2.1c-.8-.9-1.5-1.8-1.5-1.9s-.3-.4-.6-.7-.6-.6-.7-.7c-.5-.7-1-1.3-1.2-1.3,0,0-.2-.1-.2-.2s-.5-.8-1.1-1.5l-1.1-1.3-3.6,1c-2,.5-3.6,1-3.6.9,0,0,0-.5,0-.9,0-.4,0-1.2,0-1.7,0-.5,0-1.2,0-1.5s0-1,0-1.5,0-1.1,0-1.3c0-.2,0-1,0-1.8,0-.7,0-1.6,0-1.9,0-.5,0-.6-.6-1.4-.4-.4-.7-.9-.7-.9s-.6-.8-1.3-1.6c-1.9-2.3-2.9-3.4-3.6-4.4-.4-.5-.8-.9-.8-1,0,0-.2-.3-.3-.5s-.2-.6-.4-.8c-.7-.9-1.2-1.9-1.5-3s-.3-1.1,0-1.6c.1-.3.4-.6.5-.6.4,0,2.1.7,3.2,1.4.8.6,1.9,1.5,2.5,2.4,0,.1.2.3.3.4.5.6,1,1.4,2.5,4,.2.4.6.9.7,1.1.2.2.3.5.4.6s.4.7.9,1.4c.9,1.2,1.3,1.5,1.7,1.1.2-.2.2-.3,0-.7-.5-1.1-1.6-2.5-2.4-3.1-.2-.1-.5-.6-.7-1-.4-.9-1-1.9-1.6-2.9-.6-.9-.7-1.5-.5-1.6.2,0,2.1,1.4,2.6,2,.1.2.4.5.6.7,1,1,2.5,3,3.6,5.1.7,1.2,1.6,3.4,1.8,4s.3.8,1,1.3c.5.4,1,.8,1.2.8s.8.5,1.3.9c.5.4,1.2.8,1.4,1,.2.1.9.6,1.4.9.5.4,1.2.9,1.6,1,1.1.6,1,.7-1.5,1.4h0Z"/>
        <path d="M360,546.6c-.3-.3-.8-.9-1.1-1.4-.9-1.4-2.3-2.6-2.7-2.4-.4.3.6,2.1,1.6,3.1.3.3.6.5.6.6s.1.1.3.2c.1,0,.5.4.9.7.4.3.8.6.9.5.3,0,0-.8-.6-1.4Z"/>
      </g>
      <g id="layer1">
        <path id="path917" class="cls-8" d="M189.1,501.7c-.1,0-.3-.1-.3-.2,0,0-.4-.6-.8-1.1-.9-1.3-3.8-5.7-4.8-7.1-1.5-2.1-2.7-3.9-4.8-6.9-.3-.4-.4-.5-.4-.7,0-.3.4-.5.8-.5.2,0,3,1.4,7,3.3.5.2,1,.5,1.1.5.3,0,.8,0,1.1,0,.4-.1.6-.3,1.5-1.2,3.5-3.5,8.4-8,12.7-11.8,3.2-2.8,7.2-6.2,7.5-6.3.2,0,.5,0,.7.1.1.2,0,.3-.6,1.2-5.7,8.1-13,19.6-18.7,29.5-.3.5-.5.9-.6,1,0,0-.2.1-.3.2-.2,0-.2.1-.5.1-.3,0-.3,0-.5,0h0Z"/>
        <path id="path857" class="cls-8" d="M231.4,494.1c0,0,0,0,0-.2,0,0,2.7-3,3.5-3.8l.2-.2-1.7-1.9c-1.1-1.2-1.7-1.9-1.7-2h0c0-.1,1.3-.1,1.3-.1h1.3s1.1,1.2,1.1,1.2c.6.7,1.1,1.2,1.1,1.2,0,0,.5-.6,1.1-1.2l1.1-1.2h1.3c1.3,0,1.3,0,1.4,0,0,0,0,.1,0,.1,0,0-.8.9-1.7,1.9l-1.7,1.9.3.3c1.1,1.2,3.3,3.6,3.4,3.7,0,0,0,.2,0,.2,0,0-.2,0-1.4,0h-1.3l-1.2-1.3c-.7-.7-1.2-1.3-1.3-1.3,0,0-.6.6-1.3,1.3l-1.2,1.3h-1.3c-1.1,0-1.3,0-1.4,0h0ZM270.2,492.7h.4v-1.2c0-.9,0-1.2,0-1.2-.1,0-2.1,0-2.7,0-1,0-1.5.3-1.7.7-.1.3,0,.8,0,1,.3.5.8.6,2.7.7.5,0,1.1,0,1.3,0h0ZM267,494.1c-.6,0-1.4-.2-1.8-.4-.2,0-.5-.2-.7-.4-.6-.5-.8-.9-.9-1.8,0-.7,0-1,.3-1.5.3-.4.5-.6.9-.8.9-.4,1.6-.5,3.8-.6,1.4,0,1.6,0,1.7,0,0,0,0-.4-.2-.6-.5-.8-2.2-.9-4.3-.5-.4.1-.6.1-.7,0-.1,0-.3-.4-.7-1-.3-.5-.3-.5.6-.7,1.6-.4,3.3-.5,4.6-.2.2,0,.6.2.9.3.4.2.6.2,1,.5.5.4.8.7,1,1.3.2.6.3,1,.3,3.7v2.6h-2.8c-1.5,0-3,0-3.2,0h0ZM253.2,494.1c0,0,0-1,0-4.2s0-4.1.1-4.2c0,0,.5,0,1.2,0,.9,0,1.1,0,1.1,0,0,0,0,.2,0,.3v.2s.3-.2.3-.2c.6-.4,1.5-.6,2.6-.6,2.1,0,3.6.8,4.2,2.4.1.3.1.4.1,3.2,0,2.2,0,2.9,0,2.9,0,0-.3,0-1.2,0s-1.2,0-1.3,0c0,0,0-.3,0-2.7s0-2.7,0-2.8c-.2-.6-.6-1-1.2-1.1-.4,0-1.3,0-1.7,0-.6.1-1.1.6-1.2,1.1,0,.2,0,1.1,0,2.8s0,2.6-.1,2.7c0,0-.3,0-1.3,0s-1.2,0-1.2,0h0ZM209.5,494.1c0,0,0-1.3,0-5.8s0-5.7,0-5.8c0,0,.4,0,2.8,0,4.2,0,5,0,6.3.6.4.2.6.3,1,.6.8.6,1.2,1.3,1.3,2.3.2,1.7-.8,3.1-2.8,3.9-.3,0-.5.2-.5.2,0,0,.8.9,1.8,2,1.9,2,2,2.1,1.7,2.2,0,0-.8,0-1.6,0h-1.4s-2.6-2.8-2.6-2.8l-2.6-2.8h1.6c1.7,0,1.9,0,2.5-.3.6-.2,1.1-.7,1.2-1.2.1-.4,0-1.2-.1-1.5-.3-.7-1-1-2.3-1.1-.3,0-1.2,0-2,0-1.4,0-1.5,0-1.6,0,0,0-.2.1-.2.2,0,0,0,1.2,0,4.8v4.7s-1.2,0-1.2,0c-.9,0-1.2,0-1.3,0h0ZM247.4,492.5c1-.2,1.7-.7,2-1.6.2-.4.2-1.2,0-1.7-.3-1.2-1.4-1.9-2.9-1.9s-2.1.4-2.6,1.2c-.3.5-.4.9-.4,1.6,0,.8.3,1.3,1,1.8.3.3.8.5,1.3.6.4,0,1.1,0,1.5,0h0ZM245.5,494.3c-2.4-.4-4.1-1.9-4.3-3.9-.3-2.1,1.3-4.1,3.9-4.7,2.3-.5,4.7.1,6.1,1.6.8.9,1.2,2,1,3.1-.2,1.9-1.7,3.3-4.1,3.8-.6.1-1.9.2-2.6,0h0ZM229.6,489.2c.2-.2-.3-1-.7-1.3-.5-.4-1.1-.6-1.9-.6-.9,0-1.6.2-2.1.6-.5.4-.9,1.1-.8,1.3,0,0,0,0,2.8,0s2.7,0,2.8,0h0ZM225.9,494.3c-1.3-.2-2.2-.5-3-1.2-1.4-1.1-2-2.8-1.4-4.5.5-1.5,2-2.6,4-3,.8-.1,1.9-.1,2.7,0,2.3.5,3.8,2.1,3.8,4.3v.6s-4,0-4,0c-4.3,0-4.2,0-4.1.2.2.6.8,1.2,1.5,1.5.6.2,1.7.3,2.5.2.5,0,1.1-.3,1.6-.5.2-.1.4-.2.5-.2.1,0,1.3,1,1.3,1.2,0,.2-1.1.8-1.9,1-.2,0-.6.2-.8.2-.5,0-2.1.1-2.6,0h0Z"/>
      </g>
      <g id="layer1-2" data-name="layer1">
        <g id="g31225">
          <path id="path38" class="cls-8" d="M86.2,564.1s-3.3-3.3-3.3-3.3c-.2-.2-.5-.3-.8-.3h-5.5v2.1h6.1c.5,0,.9.2,1.2.5.3.3.5.8.5,1.2v6.1h2.1v-5.5c0-.3-.1-.6-.3-.8"/>
          <path id="path42" class="cls-8" d="M92,560.4c-.3,0-.6.1-.8.3l-3.3,3.3c-.2.2-.3.5-.3.8v5.5h2.1v-6.1c0-1,.8-1.7,1.7-1.7h6.1v-2.1h-5.5"/>
          <path id="path46" class="cls-8" d="M112.1,560.2c-1,0-2.1.7-2.6,1.8h0s-.1,0-.1,0v-1.5h-1.6v9.9h1.7v-4.5c0-2.5,1.1-4.2,2.8-4.2s.7,0,1,.2v-1.5c-.4,0-.6-.1-1.2-.1"/>
          <path id="path50" class="cls-8" d="M165,561.2c-.6-.6-1.6-1-3-1s-2.2.3-3.2.9v1.4c.8-.6,1.9-1,2.9-1s1.5.2,1.9.6c.4.4.6,1.1.6,2.1h0c0,0,0,0,0,0-.7,0-1.2,0-2,0-1.2,0-2.9.3-3.8,1.3-.5.5-.8,1.2-.8,2s.3,1.6.8,2.2c.6.6,1.6.9,2.8.9,1.8,0,2.7-1,3.1-1.5h0s.1,0,.1,0v1.3h1.5v-6.1c0-1.4-.3-2.5-1-3.1ZM164.3,565.6v.9c0,.8-.3,1.5-.7,1.9-.5.5-1.2.8-2.1.8-.5,0-1.1-.2-1.5-.6-.3-.3-.5-.7-.5-1.1,0-1.8,2.5-2,3.5-2s.4,0,.6,0c.2,0,.4,0,.6,0h0"/>
          <path id="path54" class="cls-8" d="M120.4,561.2c-.6-.6-1.6-1-3-1s-2.2.3-3.2.9v1.4c.8-.6,1.9-1,2.9-1s1.5.2,1.9.6c.4.4.6,1.1.6,2.1h0c0,0,0,0,0,0-.7,0-1.2,0-2,0-1.2,0-2.9.3-3.8,1.3-.5.5-.8,1.2-.8,2s.3,1.6.8,2.2c.6.6,1.6.9,2.8.9,1.8,0,2.7-1,3.1-1.5h0s.1,0,.1,0v1.3h1.5v-6.1c0-1.4-.3-2.5-1-3.1ZM119.7,565.6v.9c0,.8-.3,1.5-.7,1.9-.5.5-1.2.8-2.1.8-.5,0-1.1-.2-1.5-.6-.3-.3-.5-.7-.5-1.1,0-1.8,2.5-2,3.5-2s.4,0,.6,0c.2,0,.4,0,.6,0h0"/>
          <path id="path58" class="cls-8" d="M130.7,561.1c-.6-.6-1.5-.9-2.6-.9s-2.7.7-3.2,1.8h0s-.1,0-.1,0v-1.6h-1.7v9.9h1.7v-4.6c0-1.3.3-2.3.7-3,.5-.8,1.3-1.2,2.4-1.2,1.6,0,2.2,1.1,2.2,3.6v5.1h1.7v-5.9c0-1.5-.4-2.6-1.1-3.3"/>
          <path id="path62" class="cls-8" d="M147.4,564.6c-.9-.4-1.8-.8-1.8-1.8s.7-1.3,1.8-1.3,1.4.2,1.9.5v-1.5c-.6-.2-1.3-.4-2.1-.4-1.1,0-2.1.3-2.7.9-.5.5-.8,1.2-.8,2.1,0,1.5,1.3,2.2,2.5,2.7,1,.5,1.9.9,1.9,1.8s-.1.7-.4,1c-.5.5-1.3.5-1.6.5-.5,0-1.5-.2-2.2-.7v1.5c.8.5,1.8.5,2.6.5s1.8-.3,2.4-.7c.7-.5,1.1-1.3,1.1-2.3,0-1.8-1.3-2.4-2.5-2.9"/>
          <path id="path66" class="cls-8" d="M155.9,569.2c-.4,0-.8-.2-1.1-.4-.3-.3-.5-.8-.5-1.4v-5.6h2.7v-1.4h-2.7v-2.9l-1.7.6v2.3h-2.3v1.4h2.3v5.9c0,.9.2,1.6.7,2.1.5.5,1.3.8,2.3.8s1.2-.2,1.5-.3v-1.4c-.4.2-.8.3-1.2.3"/>
          <path id="path70" class="cls-8" d="M175.1,555.7v6.1h-.2c-.6-1.1-1.7-1.6-3.3-1.6s-2.1.4-2.9,1.1c-.9.9-1.4,2.3-1.4,3.9s.5,3.4,1.5,4.3c.7.7,1.6,1.1,2.8,1.1,1.7,0,2.9-.8,3.4-1.6h0s.1,0,.1,0v1.4h1.6v-14.6h-1.7ZM175.1,565.4c0,1.2-.4,2.4-1.1,3-.5.5-1.1.8-1.9.8s-1.3-.2-1.7-.7c-.8-.9-1.1-2.2-1.1-3.1,0-1.3.3-2.4,1-3.1.5-.5,1.1-.7,1.8-.7s1.4.3,1.9.8c.7.7,1.1,1.8,1.1,3.1"/>
          <path id="path74" class="cls-8" d="M140.8,555.7v6.1h-.2c-.6-1.1-1.7-1.6-3.3-1.6s-2.1.4-2.9,1.1c-.9.9-1.4,2.3-1.4,3.9s.5,3.4,1.5,4.3c.7.7,1.6,1.1,2.8,1.1,1.7,0,2.9-.8,3.4-1.6h0s.1,0,.1,0v1.4h1.6v-14.6h-1.7ZM140.8,565.4c0,1.2-.4,2.4-1.1,3-.5.5-1.2.8-1.9.8s-1.3-.2-1.7-.7c-.8-.9-1.1-2.2-1.1-3.1,0-1.3.3-2.4,1-3.1.5-.5,1.1-.7,1.8-.7s1.4.3,1.9.8c.7.7,1.1,1.8,1.1,3.1"/>
        </g>
      </g>
      <g>
        <polygon class="cls-9" points="132.2 533.8 133 533.2 144.1 540.8 132.2 533.8"/>
        <polygon class="cls-9" points="131.5 533.3 130.7 532.9 131.6 518.4 131.5 533.3"/>
        <polygon class="cls-9" points="130.5 533.3 126.9 536.3 131.3 533.7 130.5 533.3"/>
        <path class="cls-9" d="M131.7,514.1c-10.9,0-19.8,8.9-19.8,19.8s8.9,19.8,19.8,19.8,19.8-8.9,19.8-19.8-8.9-19.8-19.8-19.8h0ZM131.7,552.6c-4.5,0-8.8-1.5-11.9-4.3-3.1-2.7-5.4-7-6-11.5,1.4,8.7,8.9,15.3,18,15.3s18.2-8.1,18.2-18.2-1.5-8.3-3.9-11.3c2.4,1.9,4.5,7.1,4.5,11.3,0,10.4-8.4,18.7-18.7,18.7h0ZM130,532.4l1.6-16.4h.1l.2,17.3,2.8-1.7-2.8-15.6c9.8,0,17.7,8.1,17.7,17.8s-.8,6.1-2.2,8.7l-12.4-10.4-1.2.7,13.5,9.8c0,0,0,.1-.1.2l-15.2-8.7v3.1l15,5.8c-3.1,5.2-8.8,8.7-15.3,8.7s-12.2-3.5-15.3-8.6l15-5.8v-3.1l-15.2,8.7c0,0,0-.1-.1-.2l13.4-9.8-1.2-.7-12.3,10.3c-1.4-2.6-2.2-5.5-2.2-8.6,0-9.7,7.8-17.6,17.4-17.8l-2.4,15.8,1.1.6h0ZM131.7,515.1c-10.3,0-18.7,8.4-18.7,18.7s1.5,8.2,3.8,11.6c.8,1.5,1.6,2.4,2.8,3.6-4.5-3.6-7.4-9.1-7.4-15.2,0-10.7,8.7-19.4,19.4-19.4s19.6,9.1,19.3,19.4c-.3-10.1-9.1-18.7-19.3-18.7h0Z"/>
      </g>
      <g>
        <path id="path126" class="cls-8" d="M87.5,583.4s0,0,0,0c0,0,0,0,0,0,0,0,0,0,0,0,0,0,0,0,0,0,0,0,0,0,.1,0,0,0,.2,0,.3,0,.9,0,1.6-.2,1.6-.5s-.7-.5-1.6-.5-.2,0-.3,0c0,0,0,0-.1,0h0s0,0,0,0c0,0,0,0,0,0v.9h0ZM87.5,584.6v.6h0c0,.2-.5.4-1.1.4h-1.6c-.6,0-1.1-.2-1.1-.4v-3.6c0-.2.5-.4,1.1-.4h3.5c2.8,0,5.1.7,5.1,1.6s-2.3,1.6-5.1,1.6-.3,0-.4,0c0,0-.1,0-.2,0h0c0,0-.2,0-.2,0"/>
        <path id="path130" class="cls-8" d="M117.2,583.4s0,0,0,0c0,0,0,0,0,0,0,0,0,0,0,0,0,0,0,0,0,0,0,0,0,0,.1,0,0,0,.2,0,.3,0,.9,0,1.6-.2,1.6-.5s-.7-.5-1.6-.5-.2,0-.3,0c0,0,0,0-.1,0h0s0,0,0,0c0,0,0,0,0,0v.9h0ZM117.5,584.5h0s0,0,0,0c0,0,0,0-.1,0,0,0-.2,0-.2,0h0v.7h0c0,.2-.5.4-1.1.4h-1.6c-.6,0-1.1-.2-1.1-.4v-3.6c0-.2.5-.4,1.1-.4h4c2.5,0,4.6.7,4.6,1.5s-.7.9-1.9,1.2l1.4,1.1c0,0,0,0,0,.1,0,.2-.5.4-1.1.4h-1.9c-.5,0-.9,0-1-.2l-1.1-.9h0Z"/>
        <path id="path134" class="cls-8" d="M101,583.2c0-.2-.5-.4-1.1-.4h-1.9c0,0-.2,0-.2,0v-.2s0,0,.2,0h3.2c.6,0,1.1-.2,1.1-.4v-.5c0-.2-.5-.4-1.1-.4h-6.1c-.6,0-1.1.2-1.1.4v1.8h0v1.8c0,.2.5.4,1.1.4h6.1c.6,0,1.1-.2,1.1-.4v-.5c0-.2-.5-.4-1.1-.4h-3.2c0,0-.2,0-.2,0v-.2s0,0,.2,0h1.9c.6,0,1.1-.2,1.1-.4v-.5Z"/>
        <path id="path138" class="cls-8" d="M105.9,582.6v2.6c0,.2.5.4,1.1.4h1.6c.6,0,1.1-.2,1.1-.4h0v-2.6s0,0,.2,0h1.6c.6,0,1.1-.2,1.1-.4v-.5c0-.2-.5-.4-1.1-.4h-7.3c-.6,0-1.1.2-1.1.4v.5c0,.2.5.4,1.1.4h1.6c0,0,.2,0,.2,0"/>
        <path id="path142" class="cls-8" d="M130.5,582.4c-1.8,0-3.3.5-3.3,1.1s1.5,1,3.3,1,3.3-.5,3.3-1-1.5-1.1-3.3-1.1M137.6,583.5c0,1.2-3.2,2.3-7,2.3s-7-1-7-2.3,3.2-2.3,7-2.3,7,1,7,2.3"/>
        <path id="path146" class="cls-8" d="M141.9,583.9s0,0,.2,0,0,0,.1,0l4.8,1.7s0,0,0,0c.1,0,.3,0,.5,0h1c.5,0,.9-.1.9-.3v-3.6c0-.2-.5-.4-1.1-.4h-1.6c-.6,0-1.1.2-1.1.4h0v1.4h0s0,0-.2,0,0,0-.1,0h0l-4.7-1.7s0,0,0,0c-.1,0-.3,0-.5,0h-1.1c-.5,0-.9.1-.9.3v3.6c0,.2.5.4,1.1.4h1.6c.6,0,1.1-.2,1.1-.4h0v-1.4h0Z"/>
        <path id="path150" class="cls-8" d="M157.7,584h-2c0,0-.2,0-.2,0s0,0,0,0l1-.9s0,0,.1,0,.1,0,.2,0l1,.9s0,0,0,0c0,0,0,0-.2,0M163.3,585.3h0l-3.9-3.8c-.1-.1-.4-.2-.8-.2h-3.6c-.4,0-.7,0-.8.2l-3.9,3.8s0,0,0,0c0,.1.4.3.8.3h2.3c.4,0,.7,0,.8-.2h0s0,0,0,0l.2-.2s0,0,.2,0h4.7c0,0,.1,0,.1,0l.2.2s0,0,0,0h0c.1.1.4.2.8.2h2.3c.4,0,.8-.1.8-.3s0,0,0,0"/>
        <path id="path154" class="cls-8" d="M165.6,583.7c-.9-.3-1.5-.6-1.5-1,0-.8,1.9-1.4,4.3-1.4s2.1,0,2.5.1c.4,0,.7.2.7.3v.4c0,.2-.5.3-1,.3s-.8,0-1.3,0-1,.1-1,.3.1.2.3.2c0,0,0,0,.1,0,.4.1,1,.2,1.2.3,0,0,0,0,0,0,.8.3,1.2.6,1.2,1,0,.8-1.9,1.4-4.3,1.4s-2.1,0-2.5-.1c-.4,0-.7-.2-.7-.3v-.4c0-.2.5-.3,1-.3s.8,0,1.3,0,1-.1,1-.3-.2-.2-.4-.3c-.2,0-.8-.2-1-.3"/>
      </g>
      <line class="cls-6" x1="264.4" y1="508.3" x2="264.4" y2="597"/>
      <line class="cls-6" x1="271.1" y1="508.3" x2="271.1" y2="597"/>
      <line class="cls-4" x1="280.1" y1="508.3" x2="280.1" y2="597"/>
      <line class="cls-6" x1="289.5" y1="509.4" x2="289.5" y2="597"/>
      <line class="cls-6" x1="295.9" y1="511.7" x2="295.9" y2="597"/>
      <g>
        <circle class="cls-1" cx="280.1" cy="569.2" r="19.2"/>
        <circle class="cls-5" cx="280.1" cy="569.2" r="17.9"/>
        <polyline class="cls-10" points="295.9 578.6 323.5 578.6 323.5 559.7 296.3 559.7"/>
        <polyline class="cls-10" points="264.4 559.7 236.7 559.7 236.7 578.7 264.4 578.7"/>
        <rect x="237.2" y="560.2" width="85.8" height="18"/>
        <path class="cls-2" d="M241.9,563.4h2.5l3,4.8h0l3.2-4.8h2.9v11.4h-2.9v-5.1h0c0-.1-3,4.3-3,4.3h0l-2.8-4.4h0v5.2h-2.9v-11.4Z"/>
        <path class="cls-2" d="M260.6,563.4h3.4l4.6,11.4h-2.9l-.5-1.2h-5.4l-.5,1.2h-3l4.2-11.4ZM263.9,570.7l-1.5-4.1h0c0-.1-1.6,4.1-1.6,4.1h3.1Z"/>
        <path class="cls-2" d="M271.1,563.4h5.8c3.7.1,4.2,2.4,4.2,4.6s-1.1,2.8-2.1,3.6c.1-.1,1.9,3.3,1.9,3.3h-3.3l-1.9-2.8h-1.8v2.8h-2.9v-11.4ZM274,569.4h2.2c.7,0,2.1-.4,2-1.6-.1-1.3-.9-1.7-2.2-1.7h-2v3.3h0Z"/>
        <path class="cls-2" d="M285.9,566.3h-2.8v-2.9h9.1v2.9h-3.2v8.5h-3.1v-8.5h0Z"/>
        <path class="cls-2" d="M301.5,563.4h3l4,5.2h0v-5.2h3v11.4h-2.8l-4.1-5.8h0v5.8h-3v-11.4h0Z"/>
        <path class="cls-2" d="M315.4,563.4h2.9v11.4h-2.9v-11.4Z"/>
        <path class="cls-2" d="M294.8,563.4h2.9v11.4h-2.9v-11.4Z"/>
      </g>
    </g>
  </g>
</svg>