<?xml version="1.0" encoding="UTF-8"?>
<svg xmlns="http://www.w3.org/2000/svg" version="1.1" xmlns:xlink="http://www.w3.org/1999/xlink" viewBox="0 0 400 600">
  <defs>
    <style>
      .cls-1 {
        fill: url(#linear-gradient-2);
      }

      .cls-2 {
        fill: #32de84;
      }

      .cls-3 {
        fill: #fff;
      }

      .cls-4 {
        fill: #00ff01;
      }

      .cls-5 {
        fill: url(#linear-gradient-4);
      }

      .cls-6 {
        fill: url(#linear-gradient-3);
      }

      .cls-7 {
        fill: url(#linear-gradient-5);
      }

      .cls-8, .cls-9 {
        fill: #231f20;
      }

      .cls-10 {
        fill: url(#linear-gradient-8);
      }

      .cls-11 {
        fill: url(#linear-gradient-7);
      }

      .cls-12 {
        fill: url(#linear-gradient-6);
      }

      .cls-13 {
        fill: #f15f28;
        stroke-width: 6px;
      }

      .cls-13, .cls-9 {
        stroke: #000;
      }

      .cls-14 {
        fill: #969897;
      }

      .cls-9 {
        stroke-width: 2px;
      }

      .cls-15 {
        fill: url(#linear-gradient);
      }
    </style>
    <linearGradient id="linear-gradient" x1="-615.8" y1="724.7" x2="-613.4" y2="724.7" gradientTransform="translate(3984.8 5017.2) scale(6.2 -6.2)" gradientUnits="userSpaceOnUse">
      <stop offset="0" stop-color="#c9d93d"/>
      <stop offset="1" stop-color="#019e49"/>
    </linearGradient>
    <linearGradient id="linear-gradient-2" x1="-613.6" y1="725" x2="-612.5" y2="725" xlink:href="#linear-gradient"/>
    <linearGradient id="linear-gradient-3" x1="-605.8" y1="723.5" x2="-605" y2="723.5" xlink:href="#linear-gradient"/>
    <linearGradient id="linear-gradient-4" x1="-604.1" y1="723.5" x2="-603.2" y2="723.5" xlink:href="#linear-gradient"/>
    <linearGradient id="linear-gradient-5" x1="-602.3" y1="723.5" x2="-601.5" y2="723.5" xlink:href="#linear-gradient"/>
    <linearGradient id="linear-gradient-6" x1="-600.6" y1="723.5" x2="-599.7" y2="723.5" xlink:href="#linear-gradient"/>
    <linearGradient id="linear-gradient-7" x1="-599" y1="723.5" x2="-598" y2="723.5" xlink:href="#linear-gradient"/>
    <linearGradient id="linear-gradient-8" x1="-597.3" y1="723.5" x2="-596.3" y2="723.5" xlink:href="#linear-gradient"/>
  </defs>
  <!-- Generator: Adobe Illustrator 28.7.4, SVG Export Plug-In . SVG Version: 1.2.0 Build 166)  -->
  <g>
    <g id="_x35_">
      <g id="Layer_1">
        <g id="suit2">
          <path id="Shirt" class="cls-13" d="M281.2,502.8c5.6,3.7,17.7,7.7,28.6,9.9,0,0,30.8,5.3,37.9,7.7,57.4,22.3,50.4,79.7,50.4,79.7l-395.8-.2s-3.8-63.4,37.2-71.5c7.7-1.5,25.9-8.7,35.6-9.4,0,0,37.4-9,42.8-12.6.9,5.7,11.3-29.5,4-41.3,19,3.1,38.2-.2,68.9,0,42.8.4,77.3,2.9,91.1-.5-8.6,16.4-.8,38.2-.8,38.2Z"/>
          <g>
            <path class="cls-9" d="M-.1,599.8s-6.3-40.2,22.5-62.8c-8.5,4.2-3.1-.5,62.4,59.9.5,1.1-84.9,2.8-84.9,2.8h0Z"/>
            <path class="cls-9" d="M395.7,599.8s6.3-40.2-22.5-62.8c2.3-1.1,7.4-10.3-52.9,60.2-.5,1.1,75.4,2.5,75.4,2.5h0Z"/>
          </g>
          <path d="M196,505.5c-12.2,8.8-5.5,94.8-5.5,94.8h1.8s.1-10.1-.4-19.6-.7-12.2-.9-18.9c-.4-18.4,1.1-37.7,2.7-43.5,3.4-12.1,2.3-12.7,2.3-12.7Z"/>
          <circle cx="200.5" cy="523.5" r="1.2"/>
          <circle cx="199.5" cy="538.7" r="1.2"/>
          <circle cx="198.5" cy="556.7" r="1.2"/>
          <circle cx="199.5" cy="574.6" r="1.2"/>
          <circle cx="200.5" cy="588.7" r="1.2"/>
        </g>
      </g>
      <path id="Shirt-neck" class="cls-13" d="M118,506.4c3.8-10.5,11.4-29.4,4.1-41.2,19,3.1,38.2-.2,68.9,0,42.8.4,77.2,2.7,91-.6-8.6,16.4,3.1,40.7,3.1,40.7l-167.1,1.2Z"/>
      <path d="M173.1,467.8c-5.5,3.5-2.4,37.7-2.4,37.7h.8s-.9-27.8.6-32.6,1-5.1,1-5.1Z"/>
      <circle cx="175.9" cy="479.2" r="1.2"/>
      <circle cx="175.9" cy="491.3" r="1.2"/>
      <path class="cls-2" d="M40.9,575.6l3.8-6.5c.2-.4,0-.8-.3-1-.4-.2-.8,0-1,.3l-3.8,6.6c-2.9-1.3-6.2-2.1-9.7-2.1s-6.8.7-9.7,2.1l-3.8-6.6c-.2-.4-.7-.5-1-.3-.4.2-.5.7-.3,1l3.8,6.5c-6.5,3.5-10.9,10.1-11.6,17.8h45.5c-.7-7.7-5.1-14.3-11.7-17.8h0ZM19.3,587c-1.1,0-1.9-.9-1.9-1.9s.9-1.9,1.9-1.9,1.9.9,1.9,1.9c0,1.1-.9,1.9-1.9,1.9ZM40.2,587c-1.1,0-1.9-.9-1.9-1.9s.9-1.9,1.9-1.9,1.9.9,1.9,1.9c0,1.1-.9,1.9-1.9,1.9Z"/>
      <path class="cls-2" d="M378.9,575.6l3.8-6.5c.2-.4,0-.8-.3-1-.4-.2-.8,0-1,.3l-3.8,6.6c-2.9-1.3-6.2-2.1-9.7-2.1s-6.8.7-9.7,2.1l-3.8-6.6c-.2-.4-.7-.5-1-.3-.4.2-.5.7-.3,1l3.8,6.5c-6.5,3.5-10.9,10.1-11.6,17.8h45.5c-.7-7.7-5.1-14.3-11.7-17.8h0ZM357.4,587c-1.1,0-1.9-.9-1.9-1.9s.9-1.9,1.9-1.9,1.9.9,1.9,1.9c0,1.1-.9,1.9-1.9,1.9ZM378.3,587c-1.1,0-1.9-.9-1.9-1.9s.9-1.9,1.9-1.9,1.9.9,1.9,1.9c0,1.1-.9,1.9-1.9,1.9Z"/>
      <g>
        <path d="M84.5,578.4c-2,0-4,1.6-4,4.3s1.8,4.3,4,4.3,2.6-1.2,2.6-1.2v.5c0,.3.2.5.5.5h1.3v-8.3h-1.9v1.1s-.8-1.2-2.6-1.2h0ZM84.8,580.1c1.6,0,2.5,1.4,2.5,2.6s-1,2.6-2.5,2.6-2.4-1-2.4-2.7,1-2.6,2.4-2.6Z"/>
        <path d="M91.5,586.8c-.3,0-.5-.2-.5-.5v-7.8h1.9v1c.4-.6,1.2-1.2,2.5-1.2,2.1,0,3.2,1.6,3.2,3.2v5.3h-1.3c-.3,0-.6-.3-.6-.6v-4.3c0-.8-.5-1.9-1.7-1.9s-2.1,1.2-2.1,2.4v4.4h-1.3Z"/>
        <path d="M103.9,578.4c-2,0-4,1.6-4,4.3s1.8,4.3,4,4.3,2.6-1.2,2.6-1.2v.5c0,.3.2.5.5.5h1.3v-12.4h-1.9v5.2s-.8-1.2-2.6-1.2h0ZM104.2,580.1c1.6,0,2.5,1.4,2.5,2.6s-1,2.6-2.5,2.6-2.4-1-2.4-2.7,1-2.6,2.4-2.6Z"/>
        <path d="M110.9,586.8c-.3,0-.5-.2-.5-.5v-7.8h1.9v1.4c.3-.8,1-1.5,2.2-1.5s.7,0,.7,0v1.9s-.4-.2-.9-.2c-1.3,0-2,1.2-2,2.4v4.2h-1.3Z"/>
        <path d="M126.4,586.8c-.3,0-.5-.2-.5-.5v-7.8h1.9v8.3h-1.3Z"/>
        <path d="M133.1,578.4c-2,0-4,1.6-4,4.3s1.8,4.3,4,4.3,2.6-1.2,2.6-1.2v.5c0,.3.2.5.5.5h1.3v-12.4h-1.9v5.2s-.8-1.2-2.6-1.2h0ZM133.5,580.1c1.6,0,2.5,1.4,2.5,2.6s-1,2.6-2.5,2.6-2.4-1-2.4-2.7,1-2.6,2.4-2.6Z"/>
        <circle cx="126.8" cy="575.5" r="1.2"/>
        <path d="M120,578.4c-2.1,0-4.3,1.5-4.3,4.3s1.9,4.3,4.3,4.3,4.4-2.4,4.4-4.3-1.9-4.3-4.4-4.3h0ZM120,580.1c1.4,0,2.5,1.1,2.5,2.6s-1.1,2.6-2.5,2.6-2.5-1-2.5-2.6,1.2-2.6,2.5-2.6h0Z"/>
      </g>
      <g id="_x23_ee2629ff">
        <path d="M323.6,572.4c.7-.1,1.5-.1,2.2-.2.7,0,1.5,0,2.2.4.6.2.9,1,.7,1.6-.3,1-1,1.7-1.7,2.4-1.8,1.8-4,3.1-6.1,4.5.4-.5.6-1.1.9-1.7.2-.5.3-.9.3-1.4,0-.5,0-1.1-.4-1.5-.3-.4-.8-.6-1.3-.7-.7-.2-1.4-.2-2.1-.2-1.6,0-3.2.3-4.8.6-.6,0-1.1.3-1.7.3.5-.2.9-.4,1.3-.7,2.1-1.1,4.3-2,6.6-2.7,1.2-.4,2.5-.7,3.7-.9Z"/>
      </g>
      <g id="_x23_010101ff">
        <path d="M250.4,577.4c0,0,.2,0,.3,0,.9,0,1.8,0,2.7,0,0,1.3,0,2.6,0,3.8,1.6-1.2,3.1-2.6,4.8-3.9,1,0,2,0,3,0,0,2.4,0,4.9,0,7.3-1.3,0-2.6,0-3.8,0h0c0-1.1,0-2.3,0-3.4-1.3,1.1-2.6,2.3-3.9,3.4h-.2c-1.2,0-2.4,0-3.6,0,0-1.1,0-2.3,0-3.4-1.3,1.1-2.6,2.3-3.9,3.4h-4.3c.1-.1.3-.2.4-.3.7-.6,1.4-1.2,2.2-1.7,2.1-1.7,4.3-3.4,6.4-5.2Z"/>
        <path d="M272.9,577.3c1.3,0,2.6,0,3.8,0,0,1.9,0,3.7,0,5.6h2.6c0,.6,0,1.1,0,1.7-2.1,0-4.3,0-6.4,0,0-2.4,0-4.9,0-7.3Z"/>
        <path d="M262.6,579.8c.3-.6,1-1.1,1.8-1.1h7.7c0,.6,0,1.1,0,1.7-1.7,0-3.4,0-5.1,0-.4,0-.8.4-.9.8-.2.5,0,1.2.4,1.6.2.1.3.2.5.2,1.7,0,3.4,0,5.1,0,0,.6,0,1.1,0,1.7-2.6,0-5.2,0-7.8,0-.6,0-1.1-.3-1.4-.8-.8-1.2-.9-2.8-.2-4.1Z"/>
        <path d="M280.6,578.6c2.5,0,5,0,7.5,0,.5,0,1,.2,1.4.6.6.6.9,1.5.9,2.3,0,.8-.2,1.6-.7,2.3-.3.4-.9.7-1.4.8h-7.2c-.5,0-.8-.6-.9-1.1-.1-.6,0-1.3.2-1.8.2-.3.5-.5.9-.5,1.8,0,3.5,0,5.3,0v-.9c-2,0-4,0-6,0,0-.6,0-1.2,0-1.7M283.6,582.1v.9c1,0,2,0,3,0,0-.3,0-.6,0-.9-1,0-2,0-3,0Z"/>
        <path d="M291.4,579.6c0-.5.4-1,.9-.9,1.7,0,3.4,0,5.1,0,0,.6,0,1.1,0,1.7-.7,0-1.4,0-2.2,0,0,1.4,0,2.9,0,4.3-1.3,0-2.6,0-3.8,0,0-1.7,0-3.4,0-5.1Z"/>
        <path d="M299,579c.4-.3.8-.3,1.3-.3,2.3,0,4.6,0,6.9,0,.5.1.7.6.9,1,.2.6.2,1.3-.1,1.8-.2.4-.5.7-.9.6h-5.3v.9c2,0,4,0,6,0,0,.6,0,1.1,0,1.7h-7.8c-.6,0-1.2-.4-1.5-.9-.6-.8-.7-1.9-.5-2.9.1-.7.5-1.4,1.1-1.8M301.7,580.3c0,.3,0,.6,0,.9,1,0,2,0,3,0,0-.3,0-.6,0-.9-1,0-2,0-3,0Z"/>
        <path d="M309,578.6c2.6,0,5.2,0,7.7,0,.4,0,.8,0,1.1.2.5.3,1,.8,1,1.4,0,1.5,0,2.9,0,4.4-1.2,0-2.3,0-3.5,0,0-1,0-2,0-3,0-.4-.2-.8-.6-.9-.6-.3-1.3-.3-2-.4,0,1.4,0,2.9,0,4.3-.2,0-.5,0-.7,0h-2.2c-.3,0-.6,0-1,0,0-2,0-4,0-6Z"/>
      </g>
      <g>
        <path class="cls-8" d="M272.2,546.7h2.3v9.2h-2.3v-9.2ZM293.2,549.4c0,0-.8-.5-2-.5s-2.6,1-2.6,2.4,1,2.4,2.6,2.4,1.8-.4,2-.5v2.5c-.3,0-1.1.3-2.1.3-2.6,0-4.9-1.8-4.9-4.8s2.1-4.8,4.9-4.8,1.9.3,2.1.3v2.6ZM269,549.4c0,0-.8-.5-2-.5s-2.6,1-2.6,2.4,1,2.4,2.6,2.4,1.8-.4,2-.5v2.5c-.3,0-1.1.3-2.1.3-2.6,0-4.9-1.8-4.9-4.8s2.1-4.8,4.9-4.8,1.9.3,2.1.3v2.6ZM305.3,551.3c0,2.6-2.1,4.8-4.8,4.8s-4.8-2.1-4.8-4.8,2.1-4.8,4.8-4.8,4.8,2.1,4.8,4.8ZM300.4,548.9c-1.4,0-2.4,1.1-2.4,2.4s1,2.4,2.4,2.4,2.4-1.1,2.4-2.4-1-2.4-2.4-2.4ZM283.3,548.8s-1-.3-1.8-.3-1.5.3-1.5.7.7.7,1,.9l.7.2c1.5.5,2.2,1.5,2.2,2.6,0,2.3-2.1,3.1-3.8,3.1s-2.4-.2-2.5-.2v-2.1c.2,0,1.2.4,2.2.4s1.7-.4,1.7-.9-.4-.7-1-.9c-.1,0-.4-.1-.5-.1-1.3-.4-2.3-1.2-2.3-2.7s1.3-2.9,3.4-2.9,2.2.3,2.3.3v1.9Z"/>
        <path id="A" class="cls-8" d="M259.5,536.9c0-.6-.5-1.2-1.1-1.2,0,0,0,0,0,0-.6,0-1.2.5-1.2,1.1,0,0,0,0,0,0v2.4c0,.6.5,1.2,1.1,1.2,0,0,0,0,0,0,.6,0,1.2-.5,1.2-1.1,0,0,0,0,0,0v-2.4Z"/>
        <path class="cls-8" d="M265.8,533.8c0-.6-.5-1.2-1.1-1.2,0,0,0,0,0,0-.7,0-1.1.5-1.1,1.2v5.6c0,.6.5,1.2,1.1,1.2,0,0,0,0,0,0,.6,0,1.2-.5,1.2-1.1,0,0,0,0,0,0v-5.6h0ZM272.2,529.4c0-.6-.5-1.2-1.1-1.2,0,0,0,0,0,0-.6,0-1.2.5-1.2,1.1,0,0,0,0,0,0v12.2c0,.6.5,1.2,1.1,1.2,0,0,0,0,0,0,.6,0,1.2-.5,1.2-1.1,0,0,0,0,0,0v-12.2ZM278.5,533.8c0-.6-.5-1.2-1.1-1.2,0,0,0,0,0,0-.6,0-1.2.5-1.2,1.1,0,0,0,0,0,0v5.6c0,.6.5,1.2,1.1,1.2,0,0,0,0,0,0,.6,0,1.2-.5,1.2-1.1,0,0,0,0,0,0v-5.6Z"/>
        <path id="A-2" data-name="A" class="cls-8" d="M284.8,536.9c0-.6-.5-1.2-1.1-1.2,0,0,0,0,0,0-.6,0-1.2.5-1.2,1.1,0,0,0,0,0,0v2.4c0,.6.5,1.2,1.1,1.2,0,0,0,0,0,0,.6,0,1.2-.5,1.2-1.1,0,0,0,0,0,0v-2.4Z"/>
        <path class="cls-8" d="M291.1,533.8c0-.6-.5-1.2-1.2-1.2s-1.2.5-1.2,1.2v5.6c0,.6.5,1.2,1.2,1.2s1.2-.5,1.2-1.2v-5.6ZM297.4,529.4c0-.6-.5-1.2-1.2-1.2s-1.2.5-1.2,1.2v12.2c0,.6.5,1.2,1.2,1.2s1.2-.5,1.2-1.2v-12.2ZM303.7,533.8c0-.6-.5-1.2-1.2-1.2s-1.2.5-1.2,1.2v5.6c0,.6.5,1.2,1.2,1.2s1.2-.5,1.2-1.2v-5.6ZM310,536.9c0-.6-.5-1.2-1.2-1.2s-1.2.5-1.2,1.2v2.4c0,.6.5,1.2,1.2,1.2s1.2-.5,1.2-1.2v-2.4Z"/>
      </g>
      <g>
        <path d="M95.8,536.1h-17.4c-.1,0-.2,0-.3.1,0,0-.1.2-.1.3v17.4c0,.1,0,.2.1.3,0,0,.2.1.3.1h17.4c.1,0,.2,0,.3-.1,0,0,.1-.2.1-.3v-17.4c0-.1,0-.2-.1-.3,0,0-.2-.1-.3-.1ZM90.1,547.9c0,.1,0,.2-.1.3s-.2.1-.3.1h-5.3c-.1,0-.2,0-.3-.1,0,0-.1-.2-.1-.3v-5.3c0-.1,0-.2.1-.3,0,0,.2-.1.3-.1h5.3c.1,0,.2,0,.3.1,0,0,.1.2.1.3v5.3Z"/>
        <path d="M132.3,542.2h-5.3c-.2,0-.4.2-.4.4v5.3c0,.2.2.4.4.4h5.3c.2,0,.4-.2.4-.4v-5.3c0-.2-.2-.4-.4-.4Z"/>
        <path d="M126.2,536.1h-5.3c-.2,0-.4.2-.4.4v5.3c0,.2.2.4.4.4h5.3c.2,0,.4-.2.4-.4v-5.3c0-.2-.2-.4-.4-.4Z"/>
        <path d="M138.4,536.1h-5.3c-.2,0-.4.2-.4.4v5.3c0,.2.2.4.4.4h5.3c.2,0,.4-.2.4-.4v-5.3c0-.2-.2-.4-.4-.4Z"/>
        <path d="M126.2,548.3h-5.3c-.2,0-.4.2-.4.4v5.3c0,.2.2.4.4.4h5.3c.2,0,.4-.2.4-.4v-5.3c0-.2-.2-.4-.4-.4Z"/>
        <path d="M138.4,548.3h-5.3c-.2,0-.4.2-.4.4v5.3c0,.2.2.4.4.4h5.3c.2,0,.4-.2.4-.4v-5.3c0-.2-.2-.4-.4-.4Z"/>
        <path d="M117.1,536.1h-5.3c-.2,0-.4.2-.4.4v5.3c0,.2.2.4.4.4h5.3c.2,0,.4-.2.4-.4v-5.3c0-.2-.2-.4-.4-.4Z"/>
        <path d="M117.1,548.3h-5.3c-.2,0-.4.2-.4.4v5.3c0,.2.2.4.4.4h5.3c.2,0,.4-.2.4-.4v-5.3c0-.2-.2-.4-.4-.4Z"/>
        <path d="M111.4,542.6c0-.1,0-.2-.1-.3,0,0-.2-.1-.3-.1h-5.7v-5.7c0-.1,0-.2-.1-.3s-.2-.1-.3-.1h-5.3c-.1,0-.2,0-.3.1,0,0-.1.2-.1.3v17.4c0,.1,0,.2.1.3,0,0,.2.1.3.1h5.3c.1,0,.2,0,.3-.1,0,0,.1-.2.1-.3v-5.7h5.7c.1,0,.2,0,.3-.1,0,0,.1-.2.1-.3v-5.3Z"/>
      </g>
      <g>
        <path class="cls-15" d="M146,476.3c-.2-.2-.3-.4-.5-.6,0,0-.2-.1-.2,0-.3,0-.5,0-.8,0-.3-.1-.6,0-.9,0-.1,0-.1.2,0,.3.1.3.1.3,0,.5,0,0,0,.2,0,.3s0,.2,0,.3c.1.4,0,.5-.3.6-.4.1-.6.4-.6.8v.8c0,.1,0,.2.2.3.2.1.3.3.2.5-.1.3-.3.5-.4.8,0,.2-.2.3-.2.5,0,0,0,.1,0,.2,0,.1,0,.2,0,.3.2.2.2.4.1.7,0,.3,0,.5,0,.8.1.2.2.5.2.7,0,.3.3.6.4.9.1.2.2.3.3.5,0,.1,0,.3,0,.4,0,.2-.2.3-.3.5,0,.1-.1.3-.2.4,0,.1-.1.2,0,.3.3.3.2.6,0,.9,0,.3,0,.5.2.7.3.2.3.5.1.8-.2.5-.3,1-.4,1.4l-.3,1c-.1.4,0,.9,0,1.3,0,.2.1.4.2.6,0,.1,0,.2,0,.3,0,.1,0,.3-.1.4,0,0,0,.1,0,.1.1.2,0,.4,0,.6-.1.2-.1.4,0,.7,0,.2,0,.3,0,.5,0,.2,0,.5,0,.7,0,.6,0,1.2.1,1.8,0,.2.1.3.2.5,0,.2,0,.4,0,.6,0,.1,0,.2,0,.2,0,0,.1.2,0,.2,0,0-.2,0-.3,0,0,0,0,0,0,0-.3-.1-.3-.3-.2-.6s0-.5-.2-.7c-.3-.3-.3-.6-.3-1,0-.6-.1-1.1-.2-1.7,0-.5-.2-.9-.3-1.4,0-.1-.1-.3-.2-.4-.1-.2-.2-.4,0-.6,0-.1.1-.3,0-.4,0,0-.1-.2-.2-.3,0-.1,0-.3,0-.4,0-.1,0-.2,0-.3,0-.2,0-.3-.2-.4-.2-.1-.4-.3-.4-.6,0-.1,0-.2.1-.3.2-.4.4-.7.6-1.1.1-.3,0-.7,0-1,0-.2,0-.4,0-.7s0-.3-.1-.3c0,0-.1-.1-.2-.2,0,0,0-.2,0-.3.2-.3.2-.7,0-1,0,0,0-.1,0-.2,0-.3,0-.6,0-.9,0-.5-.2-.9-.3-1.4,0-.3-.3-.6-.5-.9-.2-.3-.3-.6-.2-1,0-.5.2-1,.3-1.5,0-.2.1-.5.2-.7,0-.1,0-.3,0-.4,0,0,0-.2,0-.2.2-.4,0-.8,0-1.1,0,0-.2-.2-.2-.3,0,0,0,0-.1,0-.3-.2-.3-.3-.2-.6.2-.5-.3-.9-.6-1-.6-.1-1.2-.3-1.8-.3-.2,0-.4,0-.6,0,0,0-.2,0-.2,0s-.2,0-.3,0c0,0,0-.2,0-.2.1-.2.3-.3.6-.4.5,0,.9-.3,1.3-.4.4-.2.8-.2,1.2-.1.2,0,.4,0,.6-.1.4-.2.7-.5,1.1-.7.2-.1.2-.1.3,0,0,0,0,0,0,0,0,.3.3.4.6.4s.6,0,.9,0,.3,0,.4.2c.2.1.3.1.4,0,.1,0,.2-.1.4-.2s.3-.1.4-.3c.2-.2.4-.3.6-.2.2,0,.4,0,.6-.1.3-.2.7-.3,1.1-.4s.8-.2,1.1-.5c.2-.2.3-.2.4,0,0,0,.1.2.2.2.1,0,.3.2.4.2.2,0,.3.1.4.3.1.2.3.3.5.3.3,0,.4.3.3.6,0,0,0,.1,0,.1.1,0,.2,0,.3,0s.3,0,.3.2,0,.3-.2.3c0,0-.1,0-.2,0-.3,0-.5.2-.5.5,0,.3-.3.5-.4.7s-.3.4-.4.7c0,.1,0,.3,0,.4,0,.1,0,.2,0,.3s0,.2,0,.3c-.1.3-.1.4,0,.6,0,0,.2.2.2.3,0,0,0,.2,0,.3-.2.4-.1.9,0,1.3.1.3.3.7,0,1,0,.1-.1.3-.2.3-.2.2-.3.4-.2.7,0,.1,0,.3,0,.4,0,.2-.2.4-.2.6,0,.2,0,.3,0,.5.1.5.3,1,.4,1.5,0,.2,0,.5,0,.7,0,.1,0,.3-.2.4-.3.3-.5.6-.6,1.1,0,.4-.2.8-.4,1.2s-.3.8-.2,1.2c0,.2.1.4,0,.6,0,0,0,.1,0,.1.1.2.1.5,0,.7,0,.3,0,.7,0,1,0,.2,0,.3,0,.4-.1.2-.2.4-.1.7,0,.3,0,.5,0,.8,0,.4-.2.8,0,1.1,0,.3.3.5.4.8.2.3.2.4,0,.7,0,0-.1.2,0,.3,0,.2,0,.3,0,.5,0,.4-.1.8-.2,1.2,0,.3,0,.6,0,.8,0,.3,0,.7-.3,1-.1.2-.3.4-.4.6,0,0,0,.2-.1.3,0,0,0,.1-.1.2,0,0-.2,0-.2-.2-.1-.2,0-.5,0-.7.1-.4.3-.8.3-1.3,0-.7-.2-1.4-.7-2-.1-.2-.2-.3,0-.5.3-.3.3-.7.1-1,0,0,0-.2,0-.3,0-.1,0-.3,0-.4,0,0,0-.2,0-.2,0-.2.1-.3,0-.6,0-.1,0-.3,0-.5,0-.2,0-.4,0-.5-.2-.3-.2-.5-.2-.8s0-.7,0-1c0-.3,0-.6-.3-.8-.2-.2-.2-.5-.1-.8.2-.6.4-1.1.6-1.7,0-.3.1-.7.2-1,0-.1,0-.3.1-.4,0,0,0,0,0,0,.2-.2.2-.5.1-.7,0-.3-.2-.7-.3-1,0,0,0-.2,0-.2-.2-.3-.2-.5-.1-.8,0-.2,0-.4,0-.6,0-.3,0-.5.2-.8,0-.3,0-.4-.1-.6,0,0-.2-.2-.3-.3-.1-.2-.1-.4,0-.6.1-.4.1-.8,0-1.2-.1-.4-.1-.9,0-1.3.1-.3.2-.5-.3-.8-.2-.1-.3-.3-.3-.5,0,0,0-.2.1-.3,0,0,.1-.1.1-.2,0-.2,0-.3,0-.5s0,0,0-.1c.1-.2,0-.3,0-.3,0,0,0-.1,0-.2,0,0,.1,0,.2-.1h0Z"/>
        <path class="cls-1" d="M154.8,482.5s0,0,.1.1c.3.2.4.4.3.7,0,.3-.2.5-.3.8-.1.5,0,.9.3,1.3.2.3.3.5.5.8,0,0,0,.2,0,.3s0,.3,0,.5c0,.3,0,.5-.2.7-.2.3-.3.7-.5,1.1,0,.2,0,.4,0,.5,0,.1.1.3.2.4.1.3.1.5,0,.8,0,.2-.2.4-.3.6-.1.3,0,.5,0,.7,0,.2.2.4.2.6,0,.1,0,.3,0,.4-.1.2-.2.4,0,.6,0,.2,0,.3,0,.5,0,0,0,.2,0,.3,0,.1,0,.3.1.4,0,.2,0,.3,0,.4-.3.5-.6,1-.8,1.5,0,.2-.1.4-.2.7,0,.3,0,.6-.1.9,0,0-.1.1-.2.2,0,0-.1,0-.1,0,0-.3-.1-.7-.2-1,0-.4,0-.7,0-1.1.1-.6,0-1.1-.2-1.6-.2-.2-.2-.4,0-.6.3-.3.3-.6.3-.9,0-.3,0-.6-.2-.8,0,0,0-.2,0-.3.3-.4.4-.9.4-1.4,0-.3,0-.6,0-.8,0-.5,0-1,.1-1.5,0-.3,0-.5,0-.8,0-.2-.1-.4-.2-.6-.2-.5-.2-1,0-1.6.2-.4,0-.8-.2-1.1-.2-.4-.4-.7-.5-1.2,0,0,0-.2,0-.3.1-.2.1-.4,0-.6,0-.1,0-.3,0-.4,0-.1,0-.2,0-.3-.1-.1-.2-.2-.3-.3s0-.2,0-.3.2-.2.3-.3.1-.1.2-.2c.1-.2.1-.3,0-.5,0,0-.1-.2,0-.3,0,0,0-.2.1-.3,0-.1,0-.2,0-.4,0-.2,0-.3,0-.5,0-.4,0-.7,0-1.1s-.2-.3-.4-.4c-.2,0-.3-.1-.5-.2,0,0-.2,0-.3,0-.3.2-.7,0-.9-.2-.2-.1-.3-.2-.6-.1-.2,0-.4,0-.5,0s-.2-.1,0-.3c0-.1.2-.2.3-.3l.2-.2c.1-.2.3-.3.5-.3.3,0,.6,0,.8-.2.2-.1.4-.2.6-.2s.3-.1.3-.3c0-.3.3-.6.7-.6.2,0,.3-.2.4-.3.2-.2.4-.2.5,0,0,.1.2.2.4.2.3-.1.6,0,.7.3.1.2.2.3.4.3.1,0,.2.2.1.3h0q-.1.4.2.6c.3.2.3.4.2.7-.1.3,0,.4.1.7.1.2.2.2,0,.4-.3.2-.3.6-.3.9,0,.2,0,.3-.2.4,0,0-.2.2-.2.3,0,.3-.2.5-.3.8,0,0,0,0,0,.1,0,.2,0,.4-.2.6-.2.2-.3.4-.2.7.1.2,0,.4,0,.6,0,0,0,.1,0,.2,0,.3-.1.4-.2.6h0Z"/>
        <path class="cls-4" d="M146,476.3c-.2-.2-.3-.4-.5-.6,0,0-.2-.1-.2,0-.3,0-.5,0-.8,0-.3-.1-.6,0-.9,0-.1,0-.1.2,0,.3.1.3.1.3,0,.5,0,0,0,.2,0,.3s0,.2,0,.3c.1.4,0,.5-.3.6-.4.1-.6.4-.6.8v.8c0,.1,0,.2.2.3.2.1.3.3.2.5-.1.3-.3.5-.4.8,0,.2-.2.3-.2.5,0,0,0,.1,0,.2,0,.1,0,.2,0,.3.2.2.2.4.1.7,0,.3,0,.5,0,.8.1.2.2.5.2.7,0,.3.3.6.4.9.1.2.2.3.3.5,0,.1,0,.3,0,.4,0,.2-.2.3-.3.5,0,.1-.1.3-.2.4,0,.1-.1.2,0,.3.3.3.2.6,0,.9,0,.3,0,.5.2.7.3.2.3.5.1.8-.2.5-.3,1-.4,1.4l-.3,1c-.1.4,0,.9,0,1.3,0,.2.1.4.2.6,0,.1,0,.2,0,.3,0,.1,0,.3-.1.4,0,0,0,.1,0,.1.1.2,0,.4,0,.6-.1.2-.1.4,0,.7,0,.2,0,.3,0,.5,0,.2,0,.5,0,.7,0,.6,0,1.2.1,1.8,0,.2.1.3.2.5,0,.2,0,.4,0,.6,0,.1,0,.2,0,.2,0,0,.1.2,0,.2,0,0-.2,0-.3,0,0,0,0,0,0,0-.3-.1-.3-.3-.2-.6s0-.5-.2-.7c-.3-.3-.3-.6-.3-1,0-.6-.1-1.1-.2-1.7,0-.5-.2-.9-.3-1.4,0-.1-.1-.3-.2-.4-.1-.2-.2-.4,0-.6,0-.1.1-.3,0-.4,0,0-.1-.2-.2-.3,0-.1,0-.3,0-.4,0-.1,0-.2,0-.3,0-.2,0-.3-.2-.4-.2-.1-.4-.3-.4-.6,0-.1,0-.2.1-.3.2-.4.4-.7.6-1.1.1-.3,0-.7,0-1,0-.2,0-.4,0-.7s0-.3-.1-.3c0,0-.1-.1-.2-.2,0,0,0-.2,0-.3.2-.3.2-.7,0-1,0,0,0-.1,0-.2,0-.3,0-.6,0-.9,0-.5-.2-.9-.3-1.4,0-.3-.3-.6-.5-.9-.2-.3-.3-.6-.2-1,0-.5.2-1,.3-1.5,0-.2.1-.5.2-.7,0-.1,0-.3,0-.4,0,0,0-.2,0-.2.2-.4,0-.8,0-1.1,0,0-.2-.2-.2-.3,0,0,0,0-.1,0-.3-.2-.3-.3-.2-.6.2-.5-.3-.9-.6-1-.6-.1-1.2-.3-1.8-.3-.2,0-.4,0-.6,0,0,0-.2,0-.2,0s-.2,0-.3,0c0,0,0-.2,0-.2.1-.2.3-.3.6-.4.5,0,.9-.3,1.3-.4.4-.2.8-.2,1.2-.1.2,0,.4,0,.6-.1.4-.2.7-.5,1.1-.7.2-.1.2-.1.3,0,0,0,0,0,0,0,0,.3.3.4.6.4s.6,0,.9,0,.3,0,.4.2c.2.1.3.1.4,0,.1,0,.2-.1.4-.2s.3-.1.4-.3c.2-.2.4-.3.6-.2.2,0,.4,0,.6-.1.3-.2.7-.3,1.1-.4s.8-.2,1.1-.5c.2-.2.3-.2.4,0,0,0,.1.2.2.2.1,0,.3.2.4.2.2,0,.3.1.4.3.1.2.3.3.5.3.3,0,.4.3.3.6,0,0,0,.1,0,.1.1,0,.2,0,.3,0s.3,0,.3.2,0,.3-.2.3c0,0-.1,0-.2,0-.3,0-.5.2-.5.5,0,.3-.3.5-.4.7s-.3.4-.4.7c0,.1,0,.3,0,.4,0,.1,0,.2,0,.3s0,.2,0,.3c-.1.3-.1.4,0,.6,0,0,.2.2.2.3,0,0,0,.2,0,.3-.2.4-.1.9,0,1.3.1.3.3.7,0,1,0,.1-.1.3-.2.3-.2.2-.3.4-.2.7,0,.1,0,.3,0,.4,0,.2-.2.4-.2.6,0,.2,0,.3,0,.5.1.5.3,1,.4,1.5,0,.2,0,.5,0,.7,0,.1,0,.3-.2.4-.3.3-.5.6-.6,1.1,0,.4-.2.8-.4,1.2s-.3.8-.2,1.2c0,.2.1.4,0,.6,0,0,0,.1,0,.1.1.2.1.5,0,.7,0,.3,0,.7,0,1,0,.2,0,.3,0,.4-.1.2-.2.4-.1.7,0,.3,0,.5,0,.8,0,.4-.2.8,0,1.1,0,.3.3.5.4.8.2.3.2.4,0,.7,0,0-.1.2,0,.3,0,.2,0,.3,0,.5,0,.4-.1.8-.2,1.2,0,.3,0,.6,0,.8,0,.3,0,.7-.3,1-.1.2-.3.4-.4.6,0,0,0,.2-.1.3,0,0,0,.1-.1.2,0,0-.2,0-.2-.2-.1-.2,0-.5,0-.7.1-.4.3-.8.3-1.3,0-.7-.2-1.4-.7-2-.1-.2-.2-.3,0-.5.3-.3.3-.7.1-1,0,0,0-.2,0-.3,0-.1,0-.3,0-.4,0,0,0-.2,0-.2,0-.2.1-.3,0-.6,0-.1,0-.3,0-.5,0-.2,0-.4,0-.5-.2-.3-.2-.5-.2-.8s0-.7,0-1c0-.3,0-.6-.3-.8-.2-.2-.2-.5-.1-.8.2-.6.4-1.1.6-1.7,0-.3.1-.7.2-1,0-.1,0-.3.1-.4,0,0,0,0,0,0,.2-.2.2-.5.1-.7,0-.3-.2-.7-.3-1,0,0,0-.2,0-.2-.2-.3-.2-.5-.1-.8,0-.2,0-.4,0-.6,0-.3,0-.5.2-.8,0-.3,0-.4-.1-.6,0,0-.2-.2-.3-.3-.1-.2-.1-.4,0-.6.1-.4.1-.8,0-1.2-.1-.4-.1-.9,0-1.3.1-.3.2-.5-.3-.8-.2-.1-.3-.3-.3-.5,0,0,0-.2.1-.3,0,0,.1-.1.1-.2,0-.2,0-.3,0-.5s0,0,0-.1c.1-.2,0-.3,0-.3,0,0,0-.1,0-.2,0,0,.1,0,.2-.1h0Z"/>
        <path class="cls-4" d="M154.8,482.5s0,0,.1.1c.3.2.4.4.3.7,0,.3-.2.5-.3.8-.1.5,0,.9.3,1.3.2.3.3.5.5.8,0,0,0,.2,0,.3s0,.3,0,.5c0,.3,0,.5-.2.7-.2.3-.3.7-.5,1.1,0,.2,0,.4,0,.5,0,.1.1.3.2.4.1.3.1.5,0,.8,0,.2-.2.4-.3.6-.1.3,0,.5,0,.7,0,.2.2.4.2.6,0,.1,0,.3,0,.4-.1.2-.2.4,0,.6,0,.2,0,.3,0,.5,0,0,0,.2,0,.3,0,.1,0,.3.1.4,0,.2,0,.3,0,.4-.3.5-.6,1-.8,1.5,0,.2-.1.4-.2.7,0,.3,0,.6-.1.9,0,0-.1.1-.2.2,0,0-.1,0-.1,0,0-.3-.1-.7-.2-1,0-.4,0-.7,0-1.1.1-.6,0-1.1-.2-1.6-.2-.2-.2-.4,0-.6.3-.3.3-.6.3-.9,0-.3,0-.6-.2-.8,0,0,0-.2,0-.3.3-.4.4-.9.4-1.4,0-.3,0-.6,0-.8,0-.5,0-1,.1-1.5,0-.3,0-.5,0-.8,0-.2-.1-.4-.2-.6-.2-.5-.2-1,0-1.6.2-.4,0-.8-.2-1.1-.2-.4-.4-.7-.5-1.2,0,0,0-.2,0-.3.1-.2.1-.4,0-.6,0-.1,0-.3,0-.4,0-.1,0-.2,0-.3-.1-.1-.2-.2-.3-.3s0-.2,0-.3.2-.2.3-.3.1-.1.2-.2c.1-.2.1-.3,0-.5,0,0-.1-.2,0-.3,0,0,0-.2.1-.3,0-.1,0-.2,0-.4,0-.2,0-.3,0-.5,0-.4,0-.7,0-1.1s-.2-.3-.4-.4c-.2,0-.3-.1-.5-.2,0,0-.2,0-.3,0-.3.2-.7,0-.9-.2-.2-.1-.3-.2-.6-.1-.2,0-.4,0-.5,0s-.2-.1,0-.3c0-.1.2-.2.3-.3l.2-.2c.1-.2.3-.3.5-.3.3,0,.6,0,.8-.2.2-.1.4-.2.6-.2s.3-.1.3-.3c0-.3.3-.6.7-.6.2,0,.3-.2.4-.3.2-.2.4-.2.5,0,0,.1.2.2.4.2.3-.1.6,0,.7.3.1.2.2.3.4.3.1,0,.2.2.1.3h0q-.1.4.2.6c.3.2.3.4.2.7-.1.3,0,.4.1.7.1.2.2.2,0,.4-.3.2-.3.6-.3.9,0,.2,0,.3-.2.4,0,0-.2.2-.2.3,0,.3-.2.5-.3.8,0,0,0,0,0,.1,0,.2,0,.4-.2.6-.2.2-.3.4-.2.7.1.2,0,.4,0,.6,0,0,0,.1,0,.2,0,.3-.1.4-.2.6h0Z"/>
        <path class="cls-14" d="M195.3,489.9c-.4,0-.8-.3-.8-.8s0-6.7,0-9.1c-1,1.1-2.3,2.9-2.9,4,0,.1.2.3.3.3l.8.6-.9.4c-.4.2-.7.2-.9.3h0c-.2.2-.5.3-.6.3-.4,0-.7-.3-.9-.6-.7-.9-1.4-1.8-2-2.7-.3-.4-.6-.8-.8-1.1,0,1.9,0,4.9,0,5.2,0,.2,0,.4-.2.6s-.4.3-.6.3c-.4,0-.7-.3-.8-.7,0,0-.3-.3-.4-.4-.3-.2-.4-.5-.5-.8,0-.4,0-.8.4-1.1.2-.7.2-4.3,0-4.8,0-.2,0-.3,0-.4,0-.2,0-.2-.3-.5l-.7-.6.9-.4c.2,0,.6-.3.9-.4.2,0,.4-.2.7-.3h.3c0-.1.3,0,.3,0,.7.5,3.2,4,4.1,5.3.9-1.4,2.5-3.6,3.6-4.5,0,0,0,0,.1,0,0,0,0-.2,0-.3.1-.3.5-.5.9-.5s.5,0,.7.2c.5.4,1.1.7,1.5.9.7.3.6.8.6.9,0,.3-.3.5-.6.6v.2c0,5.6,0,6.7,0,7,0,0,0,.1,0,.2.2.4.4,1-.3,1.5-.1,0-.3.2-.5.3-.2,0-.4.3-.6.4-.3.4-.6.6-.9.6h0ZM269.7,489.3c-.3,0-.5-.1-.9-.4-1.1-.8-2-2.4-2.9-3.9-.7-1.1-1.4-2.5-1.9-2.7s0,0,0,0c-.3,0-.8.2-.9.4,0,.6,0,1.6,0,2.6v1.8c0,.4-.4.8-.8.8s-.7-.2-.8-.5c0-.1-.6-.6-.9-.8-.4-.2-.6-.4-.7-.8-.1-.4,0-.8.3-1.2.1-.6.2-3.8.2-4.8-.5,0-.9-.4-.9-.8s0-.5.3-.6c.1-.1.3-.2.6-.2.1,0,.5-.2,1.4-.8,0,0,.1,0,.2-.1.1,0,.3,0,.5,0s.6,0,.9.4h.2c.1,0,.2,0,.3,0,0,0,.1,0,.3,0s.4,0,.7,0c.4,0,.8,0,1.1,0h.4c.2,0,.4,0,.6-.1.2,0,.4,0,.6,0h0c.5,0,.8.4.9.6h.1c0,.2,0,.3.2.3.3.4.4,1,0,1.5h0c-.1.3-.3.5-.4,1.2v.4s-.5,0-.5,0c-.3,0-.8.2-1.1.4.3.1.5.4.5.9.2.6,2.6,3.8,3.6,4.2.5.2,1,.4.9,1,0,.2-.2.6-.8.7-.3,0-.8.3-.9.5-.2,0-.4.3-.7.3h0ZM263.8,479.2c-.3.2-.7.7-1,1.2,0,.1-.1.4-.1.7.1,0,.3-.1.6-.2h0c.5-.1,1.1-.4,1.6-.5.3,0,.6-.2.8-.2.3,0,.5-.4.5-.8h-.6c0,0-.4,0-.5,0,0,0,0,0-.1,0-.1,0-.3.1-.6.2h0c-.2-.1-.5-.2-.6-.3ZM251.3,487.7c-.3,0-.6-.2-.8-.5-.1,0-.6-.2-.8-.3-.2,0-.3-.1-.5-.2-.5-.2-.6-.5-.6-.7,0-.5.2-.9.4-1.1,0-.3.1-1.3,0-5v-.3c-.4,0-.7-.4-.7-.8s.3-.8.9-.9c.5,0,.9-.3,1.2-.6.2-.1.4-.3.6-.4h0c0,0,.2,0,.3,0,.4,0,.9.3.9.6.6,0,1.2,0,1.3,0,.4,0,1,0,1.3,0h.1c0,0,.2,0,.3,0,.1,0,.3,0,.5,0,.4,0,.9.3,1.1.6.3.3.4.8.5,1.3,0,.1,0,.3,0,.5h0c0,.3,0,.5-.1.7-.2.2-.4.3-.8.3s-.6-.1-.8-.4c-.3-.6-.6-.8-1-.9-.3,0-.8-.1-1.4-.1s-1.4,0-1.7.1c0,.3-.2,1.1-.1,1.5.3,0,.9,0,1.4,0h.7c0,0,.3-.4.8-.4h0c.4,0,.7.2.8.4s.2.4,0,.9h0c0,.2-.2.6-.2.7,0,.4-.3.8-.8.8s-.8-.3-.8-.8c-.9,0-1.6,0-1.8.1-.2.5,0,2.3,0,2.8.3,0,.9.2,1.8.2s1.8,0,2.1-.2c.7-.2.8-.4.9-.9,0-.3.4-.6.8-.6s.7.3.7.8,0,.8-.1,1.4c0,.4-.6,1.2-1.3,1.2h0c-.3,0-.4-.1-.6-.2-1.1.1-2.6.1-3.1.1h-1c0,0-.2,0-.2,0,0,.1-.3.3-.6.3h0ZM242,487.8c-.3,0-.6-.1-.8-.4,0,0-.3-.2-1-.5-.4-.1-.5-.4-.6-.6-.2-.4,0-.9.1-1.2,0,0,0-.1,0-.1.1-.6.3-4.5.2-5.6-.2,0-.6,0-1,0-.6,0-1,0-1.1,0-.3.1-.5.3-.9.9-.1.3-.4.4-.8.4s-.6-.1-.8-.4c-.1-.2-.1-.5,0-.7,0,0,0-.2.1-.4.2-.6.3-.9.5-1.2s.9-.6,1.2-.6.4,0,.5.1.2,0,.5,0h6.4c.4,0,.6,0,.8,0,0,0,.2,0,.4,0t0,0c0,0,.2,0,.4,0,.3,0,.4,0,.7.3h0c.4.3.4.7.5,1.3,0,.2,0,.3,0,.5h0c0,.3,0,.5-.1.7s-.4.3-.7.3-.7-.2-.8-.5c0,0,0-.1,0-.2,0-.2-.1-.3-.5-.5-.2,0-.8-.1-1.3-.1s-.9,0-1.1,0c-.2,1.1-.1,5.4-.1,6.9v.9c0,.3-.4.7-.8.7h0ZM205,490.4c-.4-.2-.7-.6-.8-1v-1c-.1,0,.5.2.5.2,0-.1,0-.4,0-.9h-.2c-.5,0-.8-.2-.9-.6h0c0,0,0,0-.2-.2-2.7-1.4-3.9-4.5-3.8-6.9q0-.3-.2-.5h0c0,0-.7-.8-.7-.8l.9-.3c.1,0,.6-.2,1.7-.9,0,0,.2-.1.4-.1.3,0,.6.2.8.4h0c0,0,1.9,0,1.9,0h0s0,0,0,0v-1.2c-.2-.1-.3-.3-.3-.5,0-.3-.2-.6,0-.9,0-.1.2-.3.4-.3,0,0,.2,0,.4,0s.4,0,.6,0h.2c0,0,.2,0,.3,0,.3,0,.6.1.7.3.3.3.2.7.2,1v.3c0,.5,0,.9,0,1.4,0,0,.2,0,.3,0,.2,0,.5,0,.7,0h0c.2,0,.4,0,.6,0,.2,0,.5,0,.7,0s.3,0,.4,0c.8.2,1.8.9,2.1,1.3.3.5,0,.9-.2,1.1,0,.1-.2.2-.2.4s0,.5,0,.8c0,2.1-.2,3.1-.6,3.6-.7.7-1.5,1.1-2.4,1.5-.4.1-.8.3-1.2.5,0,.2-.3.4-.5.5v.5c0,0,0,.3,0,.5.1.5.3,1.1,0,1.5,0,.2-.3.5-.9.5h-.3l-.3.2v-.2ZM206.7,479.6c0,.5,0,1,0,1.4,0,.5,0,.9,0,1.3,0,.3,0,.6,0,.9,0,.5,0,1,0,1.5.8-.3,1.7-1,1.8-1.3,0-.3,0-.9,0-1.8s0-1.4-.1-1.7c0,0-.4-.3-1.7-.4,0,0,0,0,0,0h0ZM202.4,479.8c-.2,1.2.8,3.4,2,4.6v-.5c0-.5,0-.9,0-1.3,0-.7,0-1.4,0-2.1,0-.3,0-.7,0-1h0c0,0-.2,0-.3,0,0,0,0,0,0,0-.1.2-.4.5-.8.6h-.2c-.3,0-.6-.2-.7-.3h0ZM222,487.8c-.4,0-.8-.3-.8-.8s0-.4,0-.6c0-.2,0-.4,0-.5,0-.2,0-.4,0-.5-.5-.5-4.3-3.6-5.9-4.7,0,.9,0,1.8,0,2.8,0,1.2,0,2.4,0,3.6s-.3.8-.8.8-.6,0-.8-.5h0c0-.2-.1-.3-.2-.4-.2-.2-.5-.5-.5-1s.1-.7.3-.9c0,0,0,0,0,0,0,0,0-.5,0-2v-.6c0-.8,0-1.6,0-2.4h0c0-.4,0-.8-.2-.9l-1.2-.7,1.3-.4c.6-.2.9-.3,1.2-.6l1-.9v1c1.1.9,2.2,1.8,3.3,2.7l.9.7c.2.2.4.3.7.5.3.2.6.5.9.7v-5.7c0,0,0-.1-.1-.2s-.3-.3-.3-.6.3-.9.9-.9.4,0,.5.2h0s0,0,0,0c.2.2.5.5.8.6h0c.1.1.5.3.5.8s0,.5-.5.7v8.1s0,.2,0,.3c0,.2.2.4.2.7s-.1.6-.3.7-.3.3-.4.5h0c-.1.3-.4.5-.7.5h0ZM228.2,489.7c-.3,0-1,0-1.3-.4,0-.1-.1-.3-.1-.4-.3-.2-.6-.4-.9-.7s-.6-.5-.9-.8-.4-.6-.3-.9c.1-.4.6-.7,1-.7s.6,0,.9.3c.3.3.8.6,1.1.8,0,0,.1,0,.2.1s.3,0,.4,0,.3,0,.6-.1c.6-.4,1.8-3.4,2-4.7,0,0,0-.1,0-.1h-2.2c-.4,0-.6.2-.6.2-.2.2-.5.4-.8.4s-.7-.2-.9-.5c0-.2-.3-.5-.6-.9-.4-.6-.8-1.2-1-1.6,0,0-.3-.3-.2-.7s.4-.5.6-.5.1,0,.3-.2c0,0,.2-.1.3-.2.2-.1.4-.2.6-.2s.4,0,.5.1c0,0,0,0,0,0,0,0,.1,0,.2,0h0c.2,0,.8-.2,1.3-.3.5,0,1.3-.3,1.5-.4h0c.3-.2.6-.3.9-.3s.4,0,.7.2c.2,0,.4.2.7.4.4.3.8.5,1.3.6.4,0,.7.4.6.8,0,.4-.4.7-.9.7h-.2s0,0-.1,0c-.2,0-.5,0-.7,0h0c-.1,0-.2,0-.4,0-.4,0-.7.2-1.6.2s-.6,0-1.1,0c-.3,0-.7,0-.8,0h-.2c.1.3.3.6.5.8h2.8c.2,0,.4,0,.6-.2.2,0,.4-.1.6-.1.4,0,.8.2,1,.5.1.2.4.4.8.6.3.1.5.4.6.7,0,.4-.1.7-.2.9,0,0,0,0,0,0h0c-.9,1.9-3,6.9-6.4,6.9h0Z"/>
        <path class="cls-3" d="M197.1,478.8c-.5-.2-1.1-.6-1.6-.9-.3-.2-.8,0-.6.2,0,.1-.2.4-.4.5-1.1.9-2.8,3.3-3.8,4.8,0,0-.2.1-.4,0-.2-.2-3.6-5.1-4.2-5.5-.6.3-1.1.6-1.6.8.6.5.5.7.6,1.2.2.5.2,5-.1,5.4-.3.3-.4.8,0,1.1.2.2.6.6.7.8,0,.3.4.2.4,0,0-.3,0-6.4,0-6.7s.2,0,.5.3c.8.9,2,2.7,3.4,4.5.2.3.3.4.5.2.3-.3.4,0,1.1-.5-.2-.2-.7-.7-.6-.9.7-1.3,2.8-4.3,3.9-5.2.2-.2.3.1.3.5,0,.4,0,9.3,0,9.8s.4.2.4,0c0-.1.9-.6,1.3-.9.4-.2.2-.4,0-1-.2-.5,0-7.2,0-7.5s0-.4.3-.4c.4,0,.5-.2.1-.4h0ZM270.9,487.4c-1.2-.5-3.8-4.2-3.9-4.6s-.1-.5-.5-.6c-.7-.2-1.4-.6-1.4-.6,0,0-.3-.2.1-.2s.7,0,1,0c.6-.3,1.3-.5,1.8-.7,0-.9.3-1.2.5-1.5.1-.2.1-.6,0-.8h-.1c-.2-.4-.4-.7-.7-.7-.2,0-.6.2-1.1.2-.7,0-2.3,0-2.5,0-.3,0-1.7,1.1-1.7.9s0-.4,0-.6c.1,0,.3-.2.5-.3h0c.2-.2-.4-.3-.6-.2,0,0-1.6,1-1.8,1-.4,0-.4.4,0,.4s.6.2.6.6,0,4.7-.3,5.1c-.3.5-.4.9.2,1.1,0,0,.9.8,1.1,1,0,.2.4.3.5,0,0-1,0-3.6,0-4.5,0-.3,1.1-.9,1.7-.8,1.5.4,3,5.2,5,6.7.5.4.5.3.8,0,.1-.1.8-.5,1.3-.6.4,0,0-.2-.4-.4h0ZM263.4,481.3c-.7.3-1.4.5-1.4.3s-.1-1.1.2-1.6c.4-.6.9-1.2,1.4-1.5.4-.2.4.2.8.2s.3-.1.6-.2c.2,0,.5,0,.7,0,.4,0,.8,0,1,.1.1,0,.1.3.1.4,0,.8-.4,1.3-.9,1.5-.4,0-1.5.5-2.4.8ZM257.6,484.8c-.2.8-.5,1-1.3,1.3-.9.3-3.6.4-4.5,0-.4-.2-.6-3.5,0-3.8.3-.2,2.2-.2,2.6-.2s.3.5.3.6c0,.2.3.3.3,0s.1-.7.3-.9c0-.2,0-.4-.2-.4-.3,0-.1.3-.7.4-.2,0-2.4,0-2.7,0-.3,0-.1-2.4.2-2.6.5-.3,2.7-.4,3.6,0,.7.2,1,.7,1.4,1.2,0,.2.6,0,.5,0-.2-.8-.2-1.3-.5-1.6-.2-.2-.5-.4-.7-.4-.3,0-.6.3-1.1.2s-2.7,0-3.2,0c-.3,0-.1-.2,0-.4.1,0-.2-.4-.5-.3-.4.1-.9.9-1.9.9-.5,0-.4.5,0,.4.3,0,.3.1.3.5s0,5.4-.2,5.6c-.4.4-.5.7,0,.9.5.2,1.5.5,1.6.8s.4.2.4,0c0-.4.2-.2.8-.2.8,0,2.9,0,4.2-.1.4,0,.1.2.5.2.3,0,.7-.5.8-.8,0-.4,0-1,0-1.3s-.2,0-.2,0h0ZM246.8,478.2c-.4-.3-.3-.3-.8-.1-.5.1-.5.2-1.5.2-1.2,0-5.1,0-6.2,0s-.8-.2-1-.2-.7.3-.8.3c-.2.2-.4,1.1-.5,1.4,0,.2.5.3.6,0,.4-.7.7-.9,1.1-1.1.6-.3,2.4-.2,2.8,0,.3.1,0,5.8,0,6.3,0,.3-.6.9,0,1.1.5.2,1.3.6,1.4.8,0,.1.4.1.4,0,0-1.7,0-8,.3-8.2.4-.2,2.4-.3,3.2,0,.8.3.8.6.9.9,0,.2.6.1.5,0-.2-.5-.3-1.3-.5-1.4h0ZM211.3,479.4c-.1-.2-.9-.8-1.8-1-.3,0-1,0-1.6,0s-1.3-.1-1.8,0h0v-.2h0v-1.8c.2-.7.3-1-.3-.9,0,0-.9,0-1.1,0-.1,0,0,.5,0,.5,0,.2.3,0,.3.3,0,.4,0,1.9,0,2.1h0c-.5,0-2.9,0-2.7,0-.2-.1-.6-.5-.8-.4-.5.4-1.4.9-1.8,1,.3.3.5.4.4,1-.1,2.2,1.2,5.1,3.5,6.3.9.4.3.6.9.7.3,0,.5,0,.7,0,0,.9.2,2.4-.5,2.1,0,.3.2.5.4.6.2-.1.4,0,.6,0s.3,0,.3-.2c.2-.4-.2-1.3-.2-1.7v-.9c.4,0,.6-.1.6-.4,1.4-.8,2.7-1,3.6-2,.4-.5.4-3.6.5-4.1,0-.6.7-.8.6-1h0ZM205,482.6c0,.9,0,2.2,0,3-1.8-.9-3.7-4.4-3.1-6.2,0,0,.3-.3.6-.3.2,0,.4.3.7.2.4,0,.5-.7.9-.7s.8,0,1.1,0c0,.2,0,.4,0,.5,0,1.1,0,2.3,0,3.3h0ZM209.1,483.6c0,.4-1.9,1.8-3,1.8,0-.8,0-1.5,0-2.2s.2-1.4.1-2.1c0-.5,0-1.1,0-1.6,0-.2,0-.4,0-.6.5,0,2.3,0,2.8.7s.2,1.2.2,2,0,1.7,0,2h0ZM222.9,476c-.4-.2-.7-.5-.9-.8s0,0-.2,0c-.2,0-.3.1-.3.2,0,.1.3.2.4.8v6s0,.9,0,.9-.2,0-.3-.1c-.8-.5-1.4-1.1-2.1-1.7-1.5-1.2-2.9-2.4-4.4-3.5-.4.4-.9.5-1.4.8.5.3.5,1,.5,1.4,0,.9,0,1.9,0,2.9s0,2,0,2.3c0,.2-.3.5-.3.7,0,.4.6.6.8,1.1,0,0,0,.2.2.2s.2-.1.2-.2c0-2.4,0-4.7,0-7.2s0-.2.1-.2c.3,0,6.3,4.8,6.9,5.4.2.2.2.7.2.9,0,.4,0,.8,0,1.1s0,.2.1.2.2-.1.2-.2c.1-.2.3-.5.5-.7,0,0,.1-.1.1-.3,0-.3-.3-.7-.3-1v-8.2c0,0,0-.4.1-.4s.3,0,.3-.2c0,0-.2-.1-.3-.2h0ZM234,481.7c-.4-.2-.8-.4-1-.8-.1-.2-.5-.3-.8-.2-.3.2-.5.3-.9.3s-2.5,0-3,0c-.4-.3-.9-1.3-1-1.6-.1-.4.4-.4,1-.4s1.6.2,2,.2c1.1,0,1.3-.1,1.9-.2.3,0,.9,0,1.1,0,.3,0,.5-.2.2-.3-.9-.2-1.5-.8-2.1-1-.5-.2-.7,0-1.1.1s-2.4.5-2.9.7c-.1,0-.4.2-.6.1-.3,0-.4-.3-.7,0q-.5.4-.8.5c-.4.1,0,.2,0,.4.3.6,1.3,2,1.6,2.5.2.3.6.2.7,0,.2-.2.5-.4,1-.4h2.2c.4,0,.8.3.7.9-.2,1.3-1.4,4.6-2.3,5.2-.6.4-1.3.3-1.7,0-.2-.1-.9-.6-1.4-1-.6-.5-1.2,0-.9.3.7.5,1.2,1,1.8,1.5.3.2.2.4.3.6,0,0,.5.1.9.1,3,0,5.1-5,5.8-6.6,0-.4.5-.6,0-.9h0Z"/>
        <path class="cls-6" d="M199.5,495.8h2.2v-.7h-2.2v-.9h3.8v-.7h-5v4.2h5v-.8h-3.9v-1Z"/>
        <path class="cls-5" d="M213.6,495.6c0,.1,0,.4,0,.7-.2-.2-.4-.3-.6-.5l-3.5-2.5h-.8v4.2h1v-2.3c0-.1,0-.3,0-.7.1.1.3.2.4.3l3.6,2.6h.8v-4.2h-1v2.2Z"/>
        <path class="cls-7" d="M221.4,495.8h2.3v-.7h-2.3v-.9h3.9v-.7h-5v4.2h5.1v-.8h-3.9v-1Z"/>
        <path class="cls-12" d="M234.9,496c.8,0,1.1-.2,1.1-.8v-1c0-.6-.3-.8-1.1-.8h-4.2v4.2h1.1v-1.6h1.1l2,1.6h1.6l-2.3-1.6h.6ZM231.8,495.3v-1.2h2.6c.3,0,.5,0,.5.3v.5c0,.3-.1.3-.5.3h-2.6Z"/>
        <path class="cls-11" d="M245.9,493.4h-3.4c-.9,0-1.2.2-1.2,1v2.2c0,.8.3,1,1.2,1h3.4c.9,0,1.2-.2,1.2-1v-1.5h-3v.7h1.8v.9h-3.6v-2.7h3.6v.5l1.1-.2h0c0-.9-.3-1-1.2-1Z"/>
        <path class="cls-10" d="M256.6,493.4l-1.7,1.6-1.7-1.6h-1.5l2.6,2.3v1.8h1.1v-1.9l2.6-2.3h-1.4Z"/>
        <g>
          <polygon class="cls-4" points="221.4 495.8 223.7 495.8 223.7 495.1 221.4 495.1 221.4 494.1 225.3 494.1 225.3 493.4 220.2 493.4 220.2 497.6 225.3 497.6 225.3 496.8 221.4 496.8 221.4 495.8"/>
          <path class="cls-4" d="M213.6,495.6c0,.1,0,.4,0,.7-.2-.2-.4-.3-.6-.5l-3.5-2.5h-.8v4.2h1v-2.3c0-.1,0-.3,0-.7.1.1.3.2.4.3l3.6,2.6h.8v-4.2h-1v2.2Z"/>
          <polygon class="cls-4" points="254.9 495 253.2 493.4 251.7 493.4 254.3 495.7 254.3 497.6 255.4 497.6 255.4 495.7 258 493.4 256.6 493.4 254.9 495"/>
          <polygon class="cls-4" points="199.5 495.8 201.7 495.8 201.7 495.1 199.5 495.1 199.5 494.1 203.3 494.1 203.3 493.4 198.4 493.4 198.4 497.6 203.4 497.6 203.4 496.8 199.5 496.8 199.5 495.8"/>
          <path class="cls-4" d="M234.9,496c.8,0,1.1-.2,1.1-.8v-1c0-.6-.3-.8-1.1-.8h-4.2v4.2h1.1v-1.6h1.1l2,1.6h1.6l-2.3-1.6h.6ZM231.8,495.3v-1.2h2.6c.3,0,.5,0,.5.3v.5c0,.3-.1.3-.5.3h-2.6Z"/>
          <path class="cls-4" d="M244.1,495.9h1.8v.9h-3.6v-2.7h3.6v.5l1.1-.2h0c0-.9-.3-1-1.2-1h-3.4c-.9,0-1.2.2-1.2,1v2.2c0,.8.3,1,1.2,1h3.4c.9,0,1.2-.2,1.2-1v-1.5h-3v.7Z"/>
        </g>
      </g>
    </g>
  </g>
</svg>