<?xml version="1.0" encoding="UTF-8"?>
<svg id="_x32_5" xmlns="http://www.w3.org/2000/svg" version="1.1" viewBox="0 0 400 600">
  <!-- Generator: Adobe Illustrator 29.4.0, SVG Export Plug-In . SVG Version: 2.1.0 Build 152)  -->
  <defs>
    <style>
      .st0 {
        fill: #fcfc00;
      }

      .st0, .st1 {
        stroke-miterlimit: 10;
        stroke-width: 0px;
      }

      .st0, .st1, .st2, .st3 {
        fill-rule: evenodd;
      }

      .st0, .st1, .st4, .st5, .st6 {
        stroke: #000;
      }

      .st7, .st8 {
        fill: #fff;
      }

      .st9 {
        opacity: .2;
      }

      .st1 {
        fill: #fdfdfd;
      }

      .st8 {
        stroke: #fff;
        stroke-width: 3px;
      }

      .st2, .st6 {
        fill: $[primary];
      }

      .st3, .st5 {
        fill: $[secondary];
      }

      .st4 {
        fill: $[accent];
        stroke-width: 2px;
      }

      .st10 {
        fill: #ed1c24;
      }

      .st5, .st6 {
        stroke-width: 6px;
      }
    </style>
  </defs>
  <g id="Layer_1">
    <g id="suit2">
      <path id="Shirt" class="st6" d="M281.2,502.8c5.6,3.7,17.7,7.7,28.6,9.9,0,0,30.8,5.3,37.9,7.7,57.4,22.3,50.4,79.7,50.4,79.7l-395.8-.2s-3.8-63.4,37.2-71.5c7.7-1.5,25.9-8.7,35.6-9.4,0,0,37.4-9,42.8-12.6.9,5.7,11.3-29.5,4-41.3,19,3.1,38.2-.2,68.9,0,42.8.4,77.3,2.9,91.1-.5-8.6,16.4-.8,38.2-.8,38.2Z"/>
      <g>
        <path class="st4" d="M-.1,599.8s-6.3-40.2,22.5-62.8c-8.5,4.2-3.1-.5,62.4,59.9.5,1.1-84.9,2.8-84.9,2.8h0Z"/>
        <path class="st4" d="M395.7,599.8s6.3-40.2-22.5-62.8c2.3-1.1,7.4-10.3-52.9,60.2-.5,1.1,75.4,2.5,75.4,2.5h0Z"/>
      </g>
      <path d="M196,505.5c-12.2,8.8-5.5,94.8-5.5,94.8h1.8s.1-10.1-.4-19.6-.7-12.2-.9-18.9c-.4-18.4,1.1-37.7,2.7-43.5,3.4-12.1,2.3-12.7,2.3-12.7Z"/>
      <circle cx="200.5" cy="523.5" r="1.2"/>
      <circle cx="199.5" cy="538.7" r="1.2"/>
      <circle cx="198.5" cy="556.7" r="1.2"/>
      <circle cx="199.5" cy="574.6" r="1.2"/>
      <circle cx="200.5" cy="588.7" r="1.2"/>
    </g>
  </g>
  <g>
    <path id="Shirt-neck" class="st5" d="M118,506.4c3.8-10.5,11.4-29.4,4.1-41.2,19,3.1,38.2-.2,68.9,0,42.8.4,77.2,2.7,91-.6-8.6,16.4,3.1,40.7,3.1,40.7l-167.1,1.2Z"/>
    <path d="M173.1,467.8c-5.5,3.5-2.4,37.7-2.4,37.7h.8s-.9-27.8.6-32.6,1-5.1,1-5.1Z"/>
    <circle cx="175.9" cy="479.2" r="1.2"/>
    <circle cx="175.9" cy="491.3" r="1.2"/>
  </g>
  <g id="layer1">
    <g id="g6318">
      <path class="st10" d="M136.4,580.9c2.5-1.2,2.3-6.1-1.5-6h-9.9v9h5v-2.8h1.2l1.5,2.8h5.9l-2.2-3ZM131.9,578.8h-1.9v-1.7h1.9c1.8,0,1.8,1.7,0,1.7Z"/>
      <path class="st10" d="M178.6,567.3h-97.3v16.6h8.6v-10.4h88.8c4.3-.5,3.4-6.3,0-6.2ZM174.9,571.2h-85.1v-1.5s85,0,85.1,0c.8.2.8,1.3,0,1.5Z"/>
      <path id="path3512" class="st10" d="M117.2,583.9h4.9v-9h-4.9v9Z"/>
      <path id="path3516" class="st10" d="M140.8,574.9v9h10.8v-2.3h-5.7v-1.2h5.1v-2.2h-5.1v-1h5.3v-2.3h-10.4Z"/>
      <path id="path3518" class="st10" d="M154.1,574.9v9h9.7v-2.3h-4.6v-6.7h-5.1Z"/>
      <path id="path3520" class="st10" d="M165.1,574.9v9h9.7v-2.3h-4.6v-6.7h-5.1Z"/>
      <path id="path3522" class="st10" d="M176.3,583.9h4.9v-9h-4.9v9Z"/>
      <path class="st10" d="M112.7,574.9h-12.1v9s4.9,0,4.9,0v-2.8h7.2c2.5-.5,1.9-6.3,0-6.2ZM112,578.7h-6.5v-1.5s6.4,0,6.5,0c.5.2.5,1.3,0,1.5Z"/>
      <path id="path35221" data-name="path3522" class="st10" d="M92.7,583.9h4.9v-9h-4.9v9Z"/>
    </g>
  </g>
  <g>
    <path id="outer" class="st8" d="M339.7,549.9c.1,2.7-.9,6.5-1.5,8.7-.2.6-1.2,1.5-1.9,1.6-1.2.2-4.9.2-7.4,0s-8.8-2.2-16.8-2.9c-2-.2-1.9-2.7-2.7-2.8-.6,0-2.4-1-2.5-2.1s-.1-2.5-.2-3.4c-.9-3-1.3-4.7-1.2-6.3s.6-3.6,1-4.9,5.3-9.8,15.5-9.7c7.4,0,10.8,4.3,12.3,7.2.2.3.4.6.7,1,1.3,1.6,2.7,5.5,3.4,7.8.3.9,1.2,3,1.3,5.7Z"/>
    <path id="inner_edge_copy" class="st2" d="M313.7,538.4c11-.5,15.4-2.3,20.3-3.7-1.2-2.2-4.5-6.5-11.9-6.6-10.1-.1-15,8.5-15.5,9.7s-1,3.3-1,4.9c0,1.6.4,3.3,1.2,6.3,0,.9.1,2.4.2,3.4s1.9,2,2.5,2.1c.8.1.6,2.6,2.7,2.8,8.1.6,14.3,2.5,16.8,2.9s6.3.3,7.4,0c.7-.1,1.7-1,1.9-1.6.6-2.1,1.7-6,1.5-8.7,0-1.5,0-1.9-.3-1.8-4,1.8-9.8,1.9-16.7,1.7-5.6-.2-8.4-3.3-9.9-4.7-3.5-3.5-3.5-4.7-3-5.7.5-1,1.8-1,3.8-1.1Z"/>
    <path id="inner_glass" class="st3" d="M311.5,540.5c11.2-.3,16.6-2,23.5-4.1,1.8,2.3,3.8,8.7,3.8,9.7,0,1.2-10.3,2.8-18.1,1.6-3.8-.6-7.4-4.8-9.1-7.2Z"/>
  </g>
  <g id="Laag_x5F_1">
    <g id="_224963464">
      <polygon id="_598264161" class="st0" points="159.2 532.9 159.5 532.9 159.5 532.5 160.9 532.5 160.9 532.1 159.5 532.1 159.5 531.6 159.2 531.6 159.2 532.9"/>
      <polygon id="_59789296" class="st0" points="159.2 534.1 160.9 534.1 160.9 533.1 160.6 533.1 160.6 533.8 160.1 533.8 160.1 533.1 159.8 533.1 159.8 533.8 159.5 533.8 159.5 533.1 159.2 533.1 159.2 534.1"/>
      <path id="_59750576" class="st0" d="M105.8,531.8h.3c.8-.4,1.3-1.5,2.8-1.5h.7c.9,0,2.5,1.1,2.5,2.1h0c0,.9-.8,1.8-1.7,1.8-1.6,0-2.6-.6-4.3-.6.9-1.4,2.2-1,3.1-1.6h-3.9s-.8,1.9-.8,1.9c.8,0,2.9.3,3.6.5.7.2.9.3,1.5.6.2.1,1.3.7,1.3.7h1.4c.4,0,1-1.5,1-2.1v-.2c0-2-1.6-3.5-3.7-3.5h-.4c-1.5,0-2.8,1-3.4,1.9h0Z"/>
      <path id="_221951928" class="st0" d="M159.2,534.7h.9c-.2.2-.9.5-.9.8v.3h1.7v-.3h-1.1s1.1-.7,1.1-.7v-.4h-1.7v.3h0Z"/>
      <polygon id="_59788920" class="st0" points="160.4 536.4 160.9 536.4 160.9 536.1 160.4 536.1 160.4 536.4"/>
      <path id="_222557064" class="st1" d="M117.2,529v-.2h1.1c4,0,16.9,4.2,16.9,6.8v.3c0,2.4-13,4.6-16.6,4.6,0-1.8-.3-4.2-.5-5.9-.1-.9-.3-1.9-.4-2.8-.1-.8-.5-2.1-.5-2.8h0ZM118.6,550.1v-8.2c0,0,9-.4,9-.4h0c.5,0,6.1,7.6,6.6,8.6h9.6c-.2-.2-1-.8-1.3-1.1-.3-.3-.8-1-1-1.4-.9-1.5-.9-1.5-2.4-2.5-1-.7-1.9-1.3-2.9-1.9-.7-.5-2.4-1.4-3-1.8l7-.8h0c.2-.9.9-2,1.3-2.6.5-.7,1.5-1.5,1.8-2-2.1-1.4-3.4-2.4-5.9-3.6-2.2-1.1-4.4-1.8-6.8-2.6-4.4-1.5-10.7-2.5-16.4-2.5,0,4.6-.8,9.3-1.8,12.9-.5,1.9-1.2,3.8-2,5.4-.5.9-.8,1.5-1.3,2.4-.5.8-1.3,1.5-1.6,2.2h11,0Z"/>
      <path id="_57686024" class="st0" d="M152.6,532.8h0c0,2.3.2,2.2,1.5,3.1.4.3,2.1,2.2,2.3,2.2h.2v-.3s-.9-1.4-.9-2.5v-.2c0-2.7,5.3-4.4,5.3-4.8v-.5h-.8c-1.7,0-3.1.4-4.5.7-1.3.3-3,.7-3,2.3h0Z"/>
      <path id="_59592624" class="st1" d="M77.8,542.9c0,4.7,3.5,8.3,8.2,8.3h.5c4.3,0,7.8-3.9,7.8-8.3v-.8s0-.7,0-.7c-1.5.1-3.6.5-5.2.8-1.5.3-3.6,1.1-4.8,1.2v.6s5.5-.4,5.5-.4c-.4,1.6-.3,2.3-.9,3.8-.4.9-1.4,2.3-2.5,2.3h-.4c-2.2,0-3.7-4.3-3.7-6.8v-.3c0-2.4,1.5-6,3.8-6s3,2.4,3.4,3.9l4.2-.6c-.3-1.1-1.9-2.9-2.8-3.5-1.1-.8-2.9-1.5-4.8-1.5-4.6,0-8.2,3.5-8.2,8.2h0Z"/>
      <path id="_220582544" class="st0" d="M160.2,537c.2,0,.4.2.4.4s-.3.4-.5.4-.5-.1-.5-.4.3-.4.5-.4h.2ZM159.2,537.4c0,.4.4.7.8.7h.2c.4,0,.8-.3.8-.7v-.2c0-.4-.4-.7-.8-.7h-.2c-.5,0-.8.3-.8.8h0Z"/>
      <path id="_59337816" class="st0" d="M159.7,538.8c.3,0,.2.1.2.4h-.5c0-.2,0-.4.2-.4ZM160.2,538.7c-.2-.1-.3-.2-.5-.2h0c-.2,0-.4.2-.4.4v.8h1.7v-.4h-.7c0,0,.7-.5.7-.5v-.5s-.7.5-.7.5h0Z"/>
      <path id="_59594304" class="st1" d="M100.3,535.8c1.9,0,6.1.7,6.1,2.3s-5.3,3.9-7.4,4.4c-.5-1-.9-2.3-1.4-3.3-.6-1.2-1.1-2-1.8-3l4.5-.3h0ZM101,550.1v-.8l-1.7-5.8c4,0,11.9-1.8,11.9-5.5v-.3c0-2.4-4.4-3.3-7-3.3s-4.5.1-6.5.3c-.9,0-2,.3-3,.4-.8.1-2.4.6-2.9.6,1.2,1.8,3.3,3.2,3.3,6.2v.2c0,1.9-.3,3.5-.9,4.8-.9,1.9-1.7,2-2.5,3.2h9.3Z"/>
      <path id="_60542960" class="st0" d="M159.7,540.1c.3,0,.3.2.3.5h-.5v-.2c0-.2,0-.2.2-.2h0ZM159.2,540.3v.7h1.7v-.4h-.5v-.2c0-.4-.2-.6-.6-.6s-.5.2-.5.5h0Z"/>
      <path id="_222557456" class="st0" d="M159.2,541.7v.2c0,.4.3.8.8.8h.2c.4,0,.8-.3.8-.8v-.6h-.9v.7h.3v-.3h.3c0,.4-.1.6-.5.6s-.5-.2-.5-.5.1-.4.2-.5h-.4c0,.2-.2.2-.2.5h0Z"/>
      <polygon id="_59828480" class="st0" points="160.4 543.2 160.9 543.2 160.9 542.8 160.4 542.8 160.4 543.2"/>
      <path id="_59745584" class="st0" d="M159.2,543.7l1,.3c-.2,0-1,.1-1,.3,0,.3.7.4,1,.4h0c0,.1-1,.3-1,.3v.4s1.7-.4,1.7-.4v-.4s-1.1-.3-1.1-.3l1.1-.3v-.4s-1.7-.4-1.7-.4v.4h0Z"/>
      <path id="_222633920" class="st0" d="M64.2,548.7h0c0,1.9,5.3,1.5,7.4,1.5h8.9c.1-.5-1.1-1.8-1.5-2.2-.6-.8-.9-1.6-1.2-2.7-.9.7.5,2.2-1.2,3.4-.8.5-2.5.9-3.8.9h-.2c-1.3,0-5-.5-5-1.6,0-1.7,9.1-7.7,10.8-8.6l-.2-.3c-.8.2-6.9,3.4-8,4-1.5.8-6.2,3.9-6.2,5.8h0Z"/>
      <path id="_60217568" class="st0" d="M159.2,545.9l1,.3c-.2,0-1,.1-1,.3,0,.3.7.4,1,.4h0c0,.1-1,.3-1,.3v.4s1.7-.4,1.7-.4v-.4s-1.1-.3-1.1-.3l1.1-.3v-.4s-1.7-.4-1.7-.4v.4h0Z"/>
      <path id="_58076456" class="st0" d="M159.2,548.1l1,.3c-.2,0-1,.1-1,.3,0,.3.7.4,1,.4h0c0,.1-1,.3-1,.3v.4s1.7-.4,1.7-.4v-.4s-1.1-.3-1.1-.3l1.1-.3v-.4s-1.7-.4-1.7-.4v.4h0Z"/>
      <path id="_220345120" class="st0" d="M118.6,550.1h10.9c.6,0,3.4.2,3.4-.3v-.2c0-.5-2.7-.3-3.3-.3h-11v.8Z"/>
      <path id="_222557680" class="st0" d="M101,550.1h5.9c0-.1.2-.1.2-.3v-.2c0-.2,0-.2-.2-.3h-5.9v.8Z"/>
      <path id="_58788056" class="st0" d="M154.6,549.6v.2c0,.2.1.3.3.3h3.4c.2,0,.3-.1.3-.3v-.2c0-.2-.1-.3-.3-.3h-3.4c-.2,0-.3.1-.3.3Z"/>
      <path id="_222553208" class="st1" d="M145,542.9c0-2.5,1.5-6.6,3.6-6.6h.5c2.1,0,3.6,4.1,3.6,6.5v.2c0,2.6-1.3,6.7-3.7,6.7h-.4c-2.4,0-3.7-4.1-3.7-6.7h0ZM140.6,542.5v.6c0,4.2,3.6,8,7.8,8h1c4.1,0,7.7-3.9,7.7-8.1s-3.6-8.3-7.8-8.3h-.8c-4,0-7.9,3.8-7.9,7.8h0Z"/>
      <path id="_58077552" class="st1" d="M64.2,553.6v.2c0,1.4.9,2.3,2.4,2.3s1.3-.2,1.8-.3v-2.2h-2.1v.8h.9v.8h-.5c-.7,0-1.4-.6-1.4-1.2v-.4c0-.8.6-1.3,1.5-1.3h0c.8,0,1,.6,1.5.6v-.9c0-.4-1.3-.5-1.8-.5h-.2c-1.1,0-2.1,1-2.1,2.1h0Z"/>
      <path id="_222557848" class="st1" d="M129.4,553.6v.2c0,1.4.9,2.3,2.4,2.3s1.3-.2,1.8-.3v-2.2h-2.1v.8h.9v.8h-.3c-.8,0-1.5-.5-1.5-1.2v-.4c0-.8.6-1.3,1.5-1.3h0c.8,0,1,.6,1.5.6v-.9c0-.4-1.3-.5-1.8-.5h-.2c-1.1,0-2.1,1-2.1,2.1h0Z"/>
      <path id="_220548592" class="st1" d="M117.1,553.8h0c0,1.5.8,2.3,2.2,2.3s1.1-.1,1.6-.4v-1.1c-.3,0-.7.6-1.2.6h-.2c-.7,0-1.2-.6-1.2-1.1v-.3c0-.8.4-1.5,1.2-1.5s.9.5,1.4.6v-1.1c-.3-.2-.8-.4-1.3-.4h-.5c-1.2,0-2.1,1-2.1,2.3h0Z"/>
      <path id="_222552920" class="st1" d="M78.3,556h1v-3c.4.3,1.9,3,2.2,3h.9v-4.4h-1v2.5c-.3-.3-1.7-2.5-1.9-2.5h-1.2v4.4h0Z"/>
      <path id="_221560816" class="st1" d="M75.6,552.8l.6,1.5h-1.1s.5-1.5.5-1.5h0ZM70.3,552.4h.8c.3,0,.6.2.6.5v.2c0,.3-.5.5-.8.5h-.5v-1.1h0ZM72.1,554.2c.2-.3.8-.5.8-1.1v-.4c0-.6-.7-1.1-1.4-1.1h-2.4v4.4h1.1v-1.6h.4c.2,0,1.2,1.4,1.3,1.6h2.4c0-.2.2-.8.5-.8h1.3c.3,0,.3.6.5.8h1.2l-1.6-4.4h-1.4s-1.5,4.2-1.5,4.2l-1.3-1.6h0Z"/>
      <path id="_221148688" class="st1" d="M84.4,552.4h.7c.6,0,1.1.6,1.1,1.2v.2c0,.9-.5,1.4-1.4,1.4h-.5v-2.8h0ZM85.1,556c1.2,0,2.4-.8,2.4-2v-.4c0-1.3-1.1-2.1-2.4-2.1h-1.8v4.4h1.8Z"/>
      <path id="_60235016" class="st1" d="M91.1,552.4h.6c.5,0,.8.2.8.6v.2c0,.2-.4.5-.7.5h-.7v-1.3h0ZM91.9,554.6c.8,0,1.8-.6,1.8-1.4v-.3c0-.8-.7-1.3-1.5-1.3h-2.3v4.4h1.1v-1.5h.8Z"/>
      <path id="_222558072" class="st1" d="M95.4,552.4h.8c.3,0,.6.2.6.5v.2c0,.2-.4.5-.7.5h-.7v-1.1h0ZM98.6,556h0c0,0-1.5-1.8-1.5-1.8.2-.3.9-.6.9-1.2v-.4c0-.6-.7-1.1-1.4-1.1h-2.4v4.4h1.1v-1.6h.4c.2,0,1.2,1.4,1.4,1.6h1.5Z"/>
      <polygon id="_58052424" class="st1" points="98.6 555.9 98.6 556 101.3 556 101.3 555.2 100.5 555.2 100.5 552.4 101.3 552.4 101.3 551.6 98.6 551.6 98.6 552.4 99.3 552.4 99.3 555.2 98.6 555.2 98.6 555.9"/>
      <polygon id="_224964424" class="st1" points="103.1 553.8 101.5 556 102.7 556 103.7 554.6 104.7 556 106 556 104.4 553.8 106 551.6 104.8 551.6 103.8 553 102.8 551.6 101.5 551.6 103.1 553.8"/>
      <path id="_222558184" class="st1" d="M114.6,552.8l.6,1.5h-1.1s.5-1.5.5-1.5h0ZM109.4,552.4h.8c.3,0,.6.2.6.5v.2c0,.3-.5.5-.8.5h-.5v-1.1h0ZM111.1,554.2c.2-.3.8-.5.8-1.1v-.4c0-.6-.7-1.1-1.4-1.1h-2.4v4.4h1.1v-1.6h.4c.2,0,1.2,1.4,1.3,1.6h2.4c0-.2.2-.8.5-.8h1.3c.3,0,.3.6.5.8h1.2l-1.6-4.4h-1.4s-1.5,4.2-1.5,4.2l-1.3-1.6h0Z"/>
      <polygon id="_224964328" class="st1" points="122.1 555.2 121.3 555.2 121.3 556 124 556 124 555.2 123.2 555.2 123.2 552.4 124 552.4 124 551.6 121.3 551.6 121.3 552.4 122.1 552.4 122.1 555.2"/>
      <path id="_222558240" class="st1" d="M125.7,553c.4.3,1.9,3,2.2,3h.9v-4.4h-1v2.5c-.3-.3-1.7-2.5-1.9-2.5h-1.2v4.4h1v-3h0Z"/>
      <path id="_224964232" class="st1" d="M142.2,553c.4.3,1.9,3,2.2,3h.9v-4.4h-1v2.5c-.3-.3-1.7-2.5-1.9-2.5h-1.2v4.4h1v-3h0Z"/>
      <polygon id="_222558296" class="st1" points="146.2 556 149.4 556 149.4 555.2 147.3 555.2 147.3 551.6 146.2 551.6 146.2 556"/>
      <polygon id="_59680496" class="st1" points="150.4 555.2 149.6 555.2 149.6 556 152.3 556 152.3 555.2 151.5 555.2 151.5 552.4 152.3 552.4 152.3 551.6 149.6 551.6 149.6 552.4 150.4 552.4 150.4 555.2"/>
      <path id="_224964040" class="st1" d="M154,553c.4.3,1.9,3,2.2,3h.9v-4.4h-1v2.5c-.3-.3-1.7-2.5-1.9-2.5h-1.2v4.4h1v-3h0Z"/>
      <polygon id="_222558464" class="st1" points="159.1 552.4 161.3 552.4 161.3 551.6 158 551.6 158 556 161.3 556 161.3 555.2 159.1 555.2 159.1 554 161.1 554 161.1 553.2 159.1 553.2 159.1 552.4"/>
      <path id="_224963752" class="st1" d="M137.2,553.6c0-.6.4-1.2,1-1.2h.2c.6,0,1,.6,1,1.2v.5c0,.6-.4,1.2-1,1.2h-.2c-.6,0-1-.6-1-1.2v-.5ZM136,553.9c0,1.1.9,2.2,1.9,2.2h.7c1.1,0,2-1.1,2-2.2v-.2c0-1.3-.9-2.2-2.2-2.2h-.3c-1.2,0-2.1,1-2.1,2.2v.2h0Z"/>
    </g>
  </g>
  <g>
    <path class="st7" d="M265.4,570.4c-3.9,3.9-8.1,7.6-11.9,11.6-.2-.5.4-1.3.7-1.8,2.1-3.7,4.4-7.6,6.6-11.3.4-.6,1.4-1.9,1.6-2.4.1-.4,0-.3-.3-.3-.3,0-1.9,0-2.1.2-3.8,5.8-7,11.8-10.3,17.8l-10.7-17.6-2.6-.2,9.2,14.6c.3.8-.9-.3-1-.4-4.6-4.6-9.1-9.4-13.8-14l-3.1-.4,21.9,22.4,22.1-22.4c-3.3-.7-4.6,2.2-6.5,4.1ZM282.3,556.5c-.5,0-.9.4-.9.9s.4.9.9.9.9-.4.9-.9-.4-.9-.9-.9ZM264.5,556.5c-.5,0-.9.4-.9.9s.4.9.9.9.9-.4.9-.9-.4-.9-.9-.9ZM247.6,556.4c-.5,0-.9.4-.9.9s.4.9.9.9.9-.4.9-.9-.4-.9-.9-.9ZM228.7,556.4c-.5,0-.9.4-.9.9s.4.9.9.9.9-.4.9-.9-.4-.9-.9-.9ZM276.9,546.2l-3.3,5.6-3.3-5.6h-2.1s4.6,7.4,4.6,7.4v4.7h1.5v-4.7c0-.7,3.9-6.3,4.6-7.3h-2.1ZM258.2,551.7c1.6-1.2,1.4-3.8-.4-4.9-.3-.2-1.5-.7-1.9-.7h-3.7v12.2h4.3c0,0,1.1-.3,1.3-.4,3-1.1,3.2-4.9.3-6.2ZM253.8,547.6c1.2,0,2.9-.4,3.7.9,1.5,2.5-1.9,3.6-3.7,2.6v-3.5ZM257.1,556.9h-3.3v-4c1,.1,2.5-.2,3.5,0,0,0,1,.6,1.1.7.9,1.1,0,3.3-1.3,3.3ZM220.7,547.6h4.7c.5-.3.3-1,.3-1.5h-6.4l-.3.7.2,11.2h1.5s0-5.5,0-5.5l5-.2v-1.3h-5v-3.6ZM238.4,545.8c-3.5,0-6.4,2.9-6.4,6.4s2.9,6.4,6.4,6.4,6.4-2.9,6.4-6.4-2.9-6.4-6.4-6.4ZM238.4,557.1c-2.7,0-4.9-2.2-4.9-4.9s2.2-4.9,4.9-4.9,4.9,2.2,4.9,4.9-2.2,4.9-4.9,4.9ZM266.9,524.4c-10.7,0-21.6-.3-32.3.2l-11.2,11.3h18.8l8.2-7.9,8.6,8.1c.2.1.5-.2.6-.2h18.8l-11.5-11.5ZM248.5,526.9c-1.1,1.4-5.3,5.6-6.7,6.7-.3.2-.5.5-.8.6h-13.1l7.9-8h13.1c0,.4-.2.4-.3.6ZM259.6,534c-2.4-2.6-5.3-4.9-7.4-7.8h13.7l6.5,6.3,1.4,1.7-14.2-.2Z"/>
    <path class="st7" d="M266.9,524.4c-10.7,0-21.6-.3-32.3.2l-11.2,11.3h18.8l8.2-7.9,8.6,8.1c.2.1.5-.2.6-.2h18.8l-11.5-11.5ZM248.5,526.9c-1.1,1.4-5.3,5.6-6.7,6.7-.3.2-.5.5-.8.6h-13.1l7.9-8h13.1c0,.4-.2.4-.3.6ZM259.6,534c-2.4-2.6-5.3-4.9-7.4-7.8h13.7l6.5,6.3,1.4,1.7-14.2-.2Z"/>
    <path class="st7" d="M244.7,580.7c0,0,1.2,1.2,1,.4l-9.2-14.6,2.6.2,10.7,17.6c3.3-6,6.5-12.1,10.3-17.9.2-.1,1.8-.2,2.1-.2s.5,0,.3.3-1.3,1.7-1.6,2.4c-2.2,3.7-4.5,7.5-6.6,11.3s-.9,1.3-.7,1.8c3.8-4,7.9-7.7,11.9-11.6,1.9-1.9,3.2-4.8,6.5-4.1l-22.1,22.4-21.9-22.4,3.1.4c4.7,4.6,9.2,9.4,13.8,14Z"/>
    <path class="st7" d="M238.4,545.8c-3.5,0-6.4,2.9-6.4,6.4s2.9,6.4,6.4,6.4,6.4-2.9,6.4-6.4-2.9-6.4-6.4-6.4ZM238.4,557.1c-2.7,0-4.9-2.2-4.9-4.9s2.2-4.9,4.9-4.9,4.9,2.2,4.9,4.9-2.2,4.9-4.9,4.9Z"/>
    <path class="st7" d="M258.2,551.7c1.6-1.2,1.4-3.8-.4-4.9-.3-.2-1.5-.7-1.9-.7h-3.7v12.2h4.3c0,0,1.1-.3,1.3-.4,3-1.1,3.2-4.9.3-6.2ZM253.8,547.6c1.2,0,2.9-.4,3.7.9,1.5,2.5-1.9,3.6-3.7,2.6v-3.5ZM257.1,556.9h-3.3v-4c1,.1,2.5-.2,3.5,0,0,0,1,.6,1.1.7.9,1.1,0,3.3-1.3,3.3Z"/>
    <path class="st7" d="M225.7,546.2c0,.5.2,1.1-.3,1.5h-4.7v3.6h5v1.3s-5,.2-5,.2v5.5h-1.5s-.2-11.2-.2-11.2l.3-.7h6.4Z"/>
    <path class="st7" d="M272.9,553.6l-4.6-7.4h2.1s3.3,5.7,3.3,5.7l3.3-5.6h2.1c-.7,1.1-4.6,6.7-4.6,7.4v4.7h-1.5v-4.7Z"/>
    <circle class="st7" cx="228.7" cy="557.4" r=".9"/>
    <circle class="st7" cx="247.6" cy="557.4" r=".9"/>
    <circle class="st7" cx="282.3" cy="557.4" r=".9"/>
    <circle class="st7" cx="264.5" cy="557.4" r=".9"/>
  </g>
  <g id="layer11" data-name="layer1">
    <g id="g63181" data-name="g6318">
      <path class="st10" d="M231.2,492.1c2.1-1.4,1.9-7.4-1.2-7.2h-8.2v10.8h4.1v-3.3h1l1.3,3.3h4.9l-1.8-3.6ZM227.5,489.6h-1.6v-2h1.6c1.5,0,1.5,2,0,2Z"/>
      <path class="st10" d="M266.1,475.8h-80.5v19.9h7.1v-12.4h73.4c3.6-.5,2.8-7.6,0-7.4ZM263.1,480.4h-70.4v-1.8s70.3,0,70.4,0c.6.2.7,1.5,0,1.8Z"/>
      <path id="path35121" data-name="path3512" class="st10" d="M215.3,495.6h4.1v-10.8h-4.1v10.8Z"/>
      <path id="path35161" data-name="path3516" class="st10" d="M234.8,484.9v10.8h8.9v-2.7h-4.7v-1.4h4.2v-2.7h-4.2v-1.2h4.4v-2.7h-8.6Z"/>
      <path id="path35181" data-name="path3518" class="st10" d="M245.9,484.9v10.8h8v-2.8h-3.8v-8h-4.2Z"/>
      <path id="path35201" data-name="path3520" class="st10" d="M255,484.9v10.8h8v-2.8h-3.8v-8h-4.2Z"/>
      <path id="path35222" data-name="path3522" class="st10" d="M264.2,495.6h4.1v-10.8h-4.1v10.8Z"/>
      <path class="st10" d="M211.6,484.9h-10v10.8s4.1,0,4.1,0v-3.4h5.9c2.1-.5,1.6-7.6,0-7.4ZM211,489.5h-5.3v-1.8s5.3,0,5.3,0c.4.2.4,1.5,0,1.8Z"/>
      <path id="path35223" data-name="path3522" class="st10" d="M195.1,495.6h4.1v-10.8h-4.1v10.8Z"/>
    </g>
  </g>
  <path class="st9" d="M379.1,570.2c0,.3.2,0,.5.3,0,.1-.6,0-.5-.3ZM378.8,569.3c0,0-.5-.6,0-.2-.2-.4-.3-.5.2-.3-.2.3.4.8.3.2-.3.3-.3-.4-.4-.7.3.6,1.5,1.1.5.9,0,.2,0,.4,0,.5,0,0,0,0-.2,0-.3,0,.4,1,0,.5-1.1-.7.3-.3-.4-.8ZM388.4,592.2c.5.9-.5,3.5-1.2,4.5.6-1.8,1.3-3.2,1.2-4.5ZM375.3,577.2s-.8,0-.8-.3c.1.2.9,0,.8.3ZM366.8,575c.1.1.1.7,0,.8-.2-.3,0-.5,0-.8ZM373.8,567.8c-.2.2-.3-.2-.5-.1-.1-.5.4,0,.5.1ZM364.1,581.9s-.2.4-.4.3c0-.2.1-.4.4-.3ZM373.8,567.5c.4-.1.4-.4-.1-.4-.6-.7,1.8,1,.1.4ZM369.8,575.2c.2.6.3.4-.4.2.3,0,0-.5.4-.2ZM370.3,575c0-.2-.1-.2-.3-.3.4-.6.8.9.3.3ZM368,579.3c.8.9.2.6-.2-.1.1-.2.4,0,.2.1ZM365.4,558.5c0,.6,0,1-.4,1.1-.1-.3.4-1.2.4-1.1ZM371.5,576.1c-.6-.7-1.3-.4-1.4-.5,0-.9,1.3,0,1.4.5ZM365.4,557.7c-.2.5-1.3,1.6-1.9,2.4.4-.8,1.1-1.9,1.9-2.4ZM376.7,576.7c-1-.1-.5,0-1.7.2,0-.5,2.1-1,1.7-.2ZM371.1,574.2c.3.7-.1.1-.4.3.3-.7-.1-.1-.4-1-.2-1.2,2,2,.8.7ZM375.8,575.3c-.5-.3-1.3,1.8-1.6,1.3.3-.4,1.5-2.2,1.6-1.3ZM352.8,591.1c1.5,4.4-1,.1-1.1-2.2.1-2.1,1,2.9,1.1,2.2ZM367.6,577.7c.1-.5.4.8.8.7-.7-.8-.8-1.6.3-.8,0,0,.4.9.6,1.2,0-.3-.1-.6-.2-.6,0,0,.2.2.4.4.4.7.5,1.7,1,1.5,0,.7.3.4,0,1.2,0-1.4-.1-.3-.6-.7-.1,1-.7.3-.4,1.5-1-1.6-.8-2.7-1.9-4.2ZM372.9,572.8c-.6-1.2-1.8,0-2.2-.4,1.2-1.5,1-.6,2.4-.8,1.3-.5,1.7,1.3,2.6,2.3-.3-.4-.5,0-.3.3-.3.1-.9-1.1-.5,0-.9-.5-1-1.1-1.2,0-1.1-.8.7,2.1.4,2,0,1.8-.6-1.2-.8-.1-.3-.3-.6-.2-1.2-.6.2.4.1.7.5.4,0,1.9-2.1-1.4-.9-.6,0-.3-.2-.4,0-.1,0-.3-.2-.3.3-.3,0-.6-.3-.8.5-.3,0-.5-.7-1.5,0-.6.2-.8.9,0,1-.6.8.7.2-1-.8-.6ZM373.4,572.5h.5c0-.5-.5-.6-.5,0ZM375.9,570.7c-.2,1,.6-.6.5.2.9-.5.8.4.2.4,1-.6-.7-.2-1.1,0-.5-.5-1.1-.4-2-.8,0,.7-.4-.2-.8,0-.6,0-.2.3-.7.2.4.6-.4,0-.7,0-.2.1-.6.6-1.2.5,1.8-3.4,6.4-1,5.7-.4ZM386.1,598.2c0,1.3-.2-.1-.3-.4.2,0,0,.6.3.4ZM385,597.9c.2.1,0,.9-.2.8,0-.4.3-.4.2-.8ZM390.4,595.7c0,.9.4,3-.4,3.1.3-.8.4-2.1.4-3.1ZM389.1,596.6c.5-1,.2,1.5-.2,2.2-.7-.1.3-1.7.2-2.2ZM382.7,598.3c.7-.7,1.6-2.5,1.6-4.2.3,1.3-.7,3.1.3,3.2-.5.2-1.9,2.7-2.1.4-.1-1.4,0,0,.3.6ZM380.3,578.1c0,.5-.1.9-.3,1.3,0-.4.1-.9.3-1.3ZM365.5,560.1c0,.1,0,.3-.1.4,0-.1,0-.3.1-.4ZM378.2,568.9c0,0-.2-.2-.3-.2,0,0,.1,0,.3.2ZM353.1,597.6c-.1-.9-1.6-1.1-1.4-2,.9-.4,2,3.1,2.3,1.6-.4-.9-.9-2-1.9-2-.2-.6-.6-1.3-1.1-1.6-.8,1.1-1,5,2.1,3.9ZM350.9,592c1.1,0,.9,1.1.1,0,.5,1.1,3.7,4.4,3.8,5,1-.2-1.2-3.3-.9-3.6.9.3-1.3-4.9-1.7-6.4,0,.2.6.6.2.2.3-.2,0-.3-.2-.2,0-.2,0-.3,0-.3-2.1.6.6-.8.5-.3.4.4,3.2-1.9,5-2.5,3.9.2,1.9,1.3,5.9-1.8.2,2.3.3,5.4,1.4,7-.7-.4-.3.9,0,.4.8.7-.3-1.2.5-.6-1.1-1.3-1.2-2.8-1.3-5,.6.2.2-.2.7-.4.4-.3,1.3.6,1.1.1-1.3-.8-.3-1.9.7,0,.8.2-1.1-1.7-1.5-1.7-.4-1.3,1.2,0,1-.3-.3-2.3,0-.4-1.2-.5.3.3-.1.3-.3.3.5.2.5.6.5.8-.1,0-.1.4,0,.6-.3-.3-.9,1-.9.1-.6-.4,1-.9-.1-.8.9-.4-.5-1.1.8-1.2-.5,0-.4-.6,0-.3.3-.9-.2-.3-.7-.1.4-.6,1-1,1.6-.3-.8-1.2-.8-2.3.4-2.9.7-1.1,0-1.2-.8-1.7,0-.9,1.5-3.4,1.1-1.5-.7,1.4.6,1.5,1,2.5.8,1.4,0,.5-.4-.3,0,.5,0,.5.2.9-.6-.8-1-.7-.6.3-.3.3-.5.6-.5,1.3-.4.2.1-.6-.6-.6.2.9,1.2,1.8.8,2.9.4.1.7.9,1.2,1.3.8.3-.1-.4.3-.4.3.4.5.3.7.7-.2-.1-.9-.2-.3,0,.4.4.8.9,1.6,1,2,1.5,1.4-3.8,3.3-5.2.5-.5,2.1-.3,2.2-1.2.9.4,1-.2,1.3,1.4-.4,0-.3-.4-.4-.8-.1.4.2.5-.2.3,0-.2-.4.4-.4.8-.2-.5-.5-.1-.4.3.1-.7.5.4,1.3.2.3-.5.2-.1,0,.1.4.1.8,0,.8.5.7.5.4-.9-.2-.5.4-.8-.4-1-.4-1.5,0-1.3,1.9-1.2,1.9-2.6-1.9-1.8-.9-6.6-.8-3.9.9-.3-.2-1.1.2-1.4.3.5,0,.3.3.6.5.8,2.4.2,3.4,1.6.5-2.8-1.1-6.4-4.1-6.9.2.7,1.1,3.1.3,2.1.3-1.8-2.9-3.7-2.2-1.9.4,1.7,1.3,2,2.3,2.9-.2,0,0,.6.1.9,0,0,0-.1,0-.2-.7,0-.3,0,0,.8-.6,0-1.2-1.7-2-2.3.3,1.2,0,.4-.5.2.3-.4,0-1.5-.4-1.7-.2-1.1.2.2.6.2-.1-.3-.3-.5-.4-.7-.6-.2.2-1.1-1.5-.6-2,0-3.1-.1-3.1,1.5-.2.6-.3.6-.6,1.3.5-.4.8-.7.6,0-1.9,1.1-3.3,5.3-4.1,7.6,0-1.2.4-2.5.2-3.4-.5.5-1-.1-1.1-.7.6-.4-1.3-2.9-.7-1.4-.9-1.2-.2-.1,0,.7,1.4.4-.2.8-.2-.3-.5.4.4.8.6,1-.4.2-.3.2-.1.5-.5.2,0-.5-.5-.7-.3.2,0,.7,0,.8,0,0-.2-.2-.4-.4.6,1.5-.2-.1-.2.5-.7-.9-.4-1.3-.9-.3.5-.2.7.5.8.9.4.1,0,.2-.1.3,0-.3,0-.8-.5-.3.5.5.7.9.9,2,1.1,6.3-6.1-5.7-2.9-8.1-.6.1,1.4-4.2.2,0,.2-.3.2-.5.3-.6,0,.1,0,.4,0,.8-.2-.4-.5.4-.1.4,0-.3.2,0,.4.2,0-.5.2-.7.5-.6.2-.7-.6-1.6.3-1.3-.1-.2,0-.5-.2-.8,0,.4-.3.6-.1.1v-1.1c0,.3,0,.8.3.4,0,.3,0,.6.2.7-.3-1.1.5,0,.1-.5.2-.7.5.1.3-.9.2-1.8.3,3.3.4-1.1.1-.6.1-1,.2-1.1,0,.2,0,.7.2,1.3.1-.4,0-1.8.3-1.5.4-.7-.5,0,0-.7.2-.4.5-1.5.4-.6.6-.5,0,1.8,0,.1-.5.2-.2,2,0,2,0-.2.2-.8.4-1.3.1.2.4.4.2.5-.5-.4-.1.3-.4.3,0,1,.6-.8.3.9-.4-.5-.2,0-.3.3.3-.1.4-.3.5,0-.3-2.3,1.3-.4.3-.2-.3.7.7.8.5-.6.4-.6-1.3-.5-.6-1.2-.2,1.1,1,0,.3-.3-.5,0,0-.4.5-.2-.3,0-.2.8,0,1,0-.5.5-1.9.5-.8.4-.4,0-.8.1-1.4-.4-.3-.8.4-.3.9-.4,0-.5,0-.7-.4.8-.8-.8-.6-.4.3-.3.6-.3,1.9-.4.4,0,0,0,0-.1,0,.2-.5.3-1,.3-1-.5,1.2,0-.4,0-.6.2-.9.5,0,.6-.5,0,.7,0,.4.3.2.2-.6.7-.7.8-.7.3-.9-.3.6.7.6-.7-1.2.9-1,1.4-1.1-.3.3,2.7,1.1,1.2.3-.6.5-.6-.6-.2-.6-.5,0-.6.2-.9,0-5.9.6,7.3-1.7,9.3,1.5.7.1,1,2.1,3,2.2,1.2,1.3,1.4,1.8,2.8,2.1.2-.3-1.3-.5,0-.6.9,1,5.3.6,3.7,4.3-1.1,1.7-4.3,5.2-4.7,4.9-.2-.4-.2-.6-.2-.6,0,0-.1.1-.5.3.3-.3.2-.5-.1-.1-.1-.4.4-.8-.2-.6-.3.6-.5,2.2,0,2.1-.7.4-1.1,2.5-1.4,2.6.6-1.6-1.1-2.2-2.3-2.2-2.2.7,3.6.9,2,4.1-.2.5-.4,1-.5,1.4.3-2.2,0-4.7-1.2-3.5-.7-.8-1-.3-.4.5,1.1,1.3-1.4,3.7-.3,1.6-.7.3-1.3.7-.5,1.2.2,1.5,1.9,3.4.4,4.4,0-1.3-.3-1.1-.6,0-.7.4.6.9,0,1.1.6-.2.1.3.2.5.3.6,1-2.4,1.6-3.3.2-.2.4-.6.5-1.2-.6,6.5,9.7,5.4,10.5,15,4.3,8.2-.5.8-1.6-3.4-.8-.6-.1,1.8-.7-.9-.4,1.5-.3,4.4-1.2,5.5.3-1,.9-4,.2-3.3-2.3-.5-2.7,3-1,2.5-.3.4-.3,1.5.4,1.6.5.6,1.3,2.6-.1,2.3.6-.3-.4-2.2-.2-.9.3.2,0,.9-.2.9,0-.8-.1-3.2-.4-1.7-.8-1.5-.2-4.8-1.8-3.3-.7,1-3.1,3.4-2.6,2.3.3.1.2-2.2-.2-1.4-1,2.8.2,5.5-6.5,3.3-1.9-1.9.7.8-.5.3.3-.5-1.7-1.7-.9-.7,0,1,.3,0,.2.9-1.1.1-2.3-2.3-2.4,0-5.6.6-4.8-1.5-7.6-2.5.1-.2-2.3-1-1.4.2,0,1,1.9,2.4-.5,2,0-1.9,1-3-1.4-2.7-.8.2-.4,1.1.3,1.6-.8.9-1.1-3-2.1-2.3-1.1-.7.1,2.7.9,2.8.4,0-.5-1-.2-.9.7,1.1,1.1,1.5-.5,1.3-1.1-2.8.1-4.5-3.2-4.2.5,1.5,1.8,6.1-.9,3.4-.5-2.3-4.8-3.6-3.5-4.9ZM375.7,567.3c.7.7,0-.5-.1-.7-.2,0,0,.7.1.7ZM368.4,567.6c-.4.4-.5.9-.7,1.5,0-.7-.5,3.1-.2,1.4.3,1.2,1.1-2.2,1.4-2.9-.7.3-.5,1-.5,0ZM382.1,570.4c.5.1.5-.4,0-.3.4.2-.1,0,0,.3ZM378.3,573.8h.1c-.8-.2.2.7-.1,0ZM360.2,585c0,.2-.7.4-.2.6.2-.3.9-.9.2-.6ZM363.3,587c-1.5-.9,0,.9.6,1.7,0-.5.4-.8-.6-1.7ZM365.3,587.1c.5,1.1.5,1,1.6.9-.9-.8.5-.8,0-1.1-.3,0-1.8-.2-.7.4-.7.8-.8-.5-.5-.9,1-.2-1.7-.5-.5.7ZM366.5,586.5c0-.2-.2-.5-.5-.5.2.2.2.5.5.5ZM364.9,584.4c-1.2.4-.8.7.3.6-.3-.2,0-.8-.3-.6ZM364.8,586.2c.4.2-.6-1,.5-.8-.1-.8-1.2.2-.5.8ZM366.4,583.9l-.5-.5c0,0,.7,1.1.5.5ZM369.7,585.4c-.2.1-.2-.6-.4-.4-.7,0,.7,1.1.4.4ZM370.8,585.8c-.2.1-.9,0-.8,0-.4,0,1.7.7.4.5-2.5,1.2,1.1-.2.8.5-.7,1.3-2.6,0-2.2-.7.3-.3.9-.4.2-.6-.2-.5-.6.6-1.1.7-.7,0-1.2-1.2-.2-1.1.3,1.3,0-.6.9-.1.7.5-1.3-2.2-1.6-2.2-1.7-3.8.3,2.1-.1,1.8-.7,1.3-2.3.6-.7,0,.4-.8-1.8-.9-.6-.3-.4.4.1,1.9.8,1.2,1.3,0-.6,1,.7,1,1.1-1.1,1.8,1,.8,1.5-1.5-.7-1.6,2-.9,1,.3.3.2,0,.5,0-.2,0-.6,0-.5-.3,3.1-.5,1.7.7.2,1.1-.1,1.5,2.6-1.7,1.6.8,1.2.1-.9,1.5,1.6,1.6.8-.7-.4-.1-.6-.5,0-.5,1,0,1-.9.4-.7-3.2.5-.6-1.5-.9.4-1.6.2-.7-.6.9-.2,2.4-.7.6-.9-.2-.3,1.8,0,2.2-.3-.1,0-1.7-.9,0-.8-.8-.3-1.1-.6-1.6-1.1ZM367.7,587.1c-.2-.1-.2,0-.2.2-1.5.3,1.8,1.4.2-.2ZM368.6,590.6c-.5,0-.9.2-.5.5.4-.3,1.2.4.5-.5ZM368.4,593.4c.2.4.7.4.9.6,0-.3-.9-1.8-.9-.6ZM370.4,593.1c.7,1,.6-.4-.2-.4-.1.2.7.4.2.4ZM370.7,590.1c0-.3-.9.1-.6.4,0,0,.5,0,.6-.4ZM371.5,591.8c.6,0,.7-.1.7-.6.2-1.5-.2.1-.7.6ZM371.9,588.2c-.2,0-.5.4-.5.5.2.2.7-.3.5-.5ZM372.2,592.7c-1.5-.7-.7,0,.2.3.5-.2-.1-1.2-.2-.3ZM371.6,590.7c-.1,0-.5.2-.4.4.3,0,.4,0,.4-.4ZM375.4,580.3c0,0-.3,0-.2-.1-.4.3.9.7.2.1ZM375.9,582.1c-1.2,1.3-.9-1.5-1.6-1.8-2-1.4-3.8,4.9-2.4,3,.3.8-.4.4.6.8.1-.5,0,.3.3.1,0-.2-.3-.8,0-.3.4.2.3.2.6-.4,0,1,.5,0,.8,0,.2-.6.1.8.5,0,0,.3.3.8.5.5,0,.8.7-.7.5.4.2-.2.5-1.1.8-.3.5-1-.3-1.3-.6-1.9ZM374.4,588s0,0,0,0c0-.2.6-.7,0-.4,1-1.5-1,.3-1.2.6.7-.4,1-.3,1.3-.2,0,0,0,0,0,0ZM375.4,587c-.2.3-1,.9-.8,1,.6-.2,1.2-.1,1.5-1,0,0-.8.3-.8,0ZM376.3,586.4c-.4-.3-.7.4-.3.5l.3-.5ZM378,580.9c-.3-.2,0-.5-.5-.4.2.2.1.7.5.4ZM377.4,581.2c-.4-.2-.6-1.4-1-.7-.2-.5-.5.2,0,.4-.8.2,2.1,1.4,1,.3ZM376.9,582.8c.3-.8.4-1.1-.3-.6,0,.7.1.9.3.6ZM378.7,583.7c-.3.3-2.3,3.1-.8,1.9.3.5-2.7,1.4-1.1,1.4-.7.9.8-.4.7-.8.2.2.3.4.5.1-.2,1,1.2-2.9.7-2.6ZM377.2,588.8c.5-.2.4-1.5-.5-1-.6-.6.5.6.5,1ZM377.7,587.5l.4.2c0-.4-.2-.6-.4-.2ZM378.7,586.7c-.6.1-.4.6,0,.9,0-.5-.3-.5,0-.9ZM379.1,589.8c.2-.4,0-.6-.4-.7-.3.5,0,.5.4.7ZM381.5,584.4c-.3-1-1.8-1.8-1.1-.6.2.2.9,1.4.8.5,0,.3.5.4.2,0ZM386.9,589.5c0,2.2,1.1,1,.3-.2-1-1.2-1.8-.8-.3.2ZM385.5,590c.2,2.3,1.1.8.4-.5-1.4-1-1.5-.5-.4.5ZM383.9,589.4c-.8-.4.6,1.4-.9,1.6-.8.2-2.3,2-.8,1.6,1.9-1.6,4.2-.6,1.7-3.2ZM381,593.7c.4.1,1,1.1.8.5,1.3-.2-1.4-2-.8-.5ZM381.1,590.5c0,1.1.8.3.7,1,.6-.7.1-2.7,0-3.9-.4-.6-1.4,2.1-.7,2.9ZM380.9,585.8c-.4.2-.4,1.4,0,1.8.4,1.1.3-1.4,0-1.8ZM380.6,592.1c-.7-.5-.8-.8-.5.3.2-.9.2.4.5-.3ZM380.3,591.1c-.5.2-.5.4,0,.2.4.6.3,0,0-.2ZM376,597.5c.1-.5.2-.6-.3-.6.2.2-.3.5.3.6ZM373.8,596c.2.5,1.6,1.5,1.6.9-.7,0-.4-1.9-1.5-1.2-.2.2-.7,0-.1.3ZM373.6,593.2c0,.5,1.4,1.6,1.2.2-.8-.2-1-.3-.7-1.2-.9.3-1,.2-.5,1ZM373.1,591.5c.5.2,0,.6.5.8.6-.4,0,0,0-.5.5-.3,2.2-1.6,2.5-.7-.3.8-2,1.1-1.2,1.7,0-1,1.5,0,1.4-.6-.5-1.1,1.4-.3,1.5-1.5,1.4-.6,0,1.3-.8,1.5.1.8-.5.1-.9.5,1,.2,1.5.7.1,1.1-.3-1.3-2-1.8-.8-.1,0,.7-1.3.6-.4,1.1,1.5-1.1,0,2.1,2.9,1.2.4-.4.1.5,0,.9.4-.6.6,0,.4.5.7,1.5,1.6.2,1.1-1,1.8-3.5-.6,0,.2-3.8-.5-.6,0,.7-.3,1-.5,0-1,0-1-1,1.1-.7-.2-.4.2-1.1,1-.6,1.4-1.6,1.5-2.7.4.2.6.8.6-.3-.3.7-.6-.9-.5-1.2.3-.6.2-2.7-.5-2.9,0-.6-.5-.7-.5,0,.3-.1.2-.8.3-.1-.6,1.7-.4.5.5.7-1,.4,1.5.8-1,1.1,0,1.9.2,2.8.3,0,1.1-.1.8,1.7.3,2.3-.1-.6-.2-1.5-.5-.5-.6.3,1,2.2,0,2.4-.4-.9-.2.3-.6.1-.7-.4-.4-2.9-1-1.5-1,2.1-.6-1.5-1.3,1.2-.5,0-.3-.6-.5-.8-.4,1.1-2.3,1.9-1.6.2-.9.2-.2,1.3-1.1,1.1,0-.6-.8,0-.2,0,.2.5-.9.8-.4,1,.2-.5.3.4.5-.3ZM372.6,595.2c.1-.3.6-.7-.2-1,0,.4-.3.8.2,1ZM371.8,593.7c-.3,0-.3.1-.5.2.2.2.4.2.5-.2ZM370.8,595.2c1,.6-1.7,2.9,0,2.2,1.1-1.3,1.3-1.7,0-2.2ZM370,598c1.1.2-.2,0,0-.8.3-.6-.6.6,0,.8ZM369.6,594.8c-.2-.4-.5-.9-.9-.9.4.5.5,1.7.9.9ZM368,594.8c1.4.7,0,1.8,0,2.7,2.9-.6-.6-5.4,0-2.7ZM367.6,594.1c1.7-.8-.5-1.3-1-3.1.4,2.5-4.7-3.9-5.5-5.6-2.4.8,1.9,5.1,2.4,6,.1.4,1.2.9,1,.4-.4,0-.5-1.2,0-.4,1.4.6,2.2,3.4,3.1,2.7ZM365.4,593.1c.9.7.3-.4,0-.8,0,.6-.3-.3,0,.8ZM366,594.2c1,.7.3,1.6,0,2.4,3-.2-.4-4.6,0-2.4ZM363,594.7c.8.3-.2-.3.3-.3-.2-.7-.5-.2-.3.3ZM362.5,593.9c.7.3.2-.4,0-.6-.3.3.5.5,0,.6ZM358.3,591.2c.3,3.1,1.2,1.2.7-.2,1.5-1.6-1.1-1-.7.2ZM358.1,586.1c.6,1.5,1.7,3.4,2.1,4.4.4.2-1.3,3.3.5,3.3-.5-1.2.9-4.9.6-2.7.6-1.6.3.2,0,.9,0,.6,1.1.6,1.2.4.3.2.8.6,1,.4,1,.4,1.6,3.3,2.4,1.9-.5-1.9-2.6-2.6-3.6-4,.2-.2-4.6-7.9-4.1-4.6ZM356.7,592.2c.9,0-.8-2.3.8-2.9-1.5-1.2-2.3,2.1-.8,2.9ZM355.7,588.3c.1,1.4.9-1.4,1-2.2.3-1.8-1.5,0-1.8.3.4.4,0,2,.8,1.9ZM354.9,593.4c0,.3.4,1.1.5,1.3-.1-.5-.1-1.4-.5-1.3ZM364.5,574.4c0,2.7.4-1.6,1.4-1.8-.9-1.3-1.7,1-1.4,1.8ZM365.7,584.5c-.4.4.1,1.9.8,1.2,1.3,0-.6,1,.7,1,1.1-1.1,1.8,1,.8,1.5-1.5-.7-1.6,2-.9,1,.3.3.2,0,.5,0-.2,0-.6,0-.5-.3,3.1-.5,1.7.7.2,1.1-.1,1.5,2.6-1.7,1.6.8,1.2.1-.9,1.5,1.6,1.6.8-.7-.4-.1-.6-.5,0-.5,1,0,1-.9.4-.7-3.2.5-.6-1.5-.9.4-1.6.2-.7-.6.9-.2,2.4-.7.6-.9-.2-.3,1.8,0,2.2-.3-.1,0-1.7-.9,0-.8-.8-.3-1.1-.6-1.6-1.1-.2.1-.9,0-.8,0-.4,0,1.7.7.4.5-2.5,1.2,1.1-.2.8.5-.7,1.3-2.6,0-2.2-.7.3-.3.9-.4.2-.6-.2-.5-.6.6-1.1.7-.7,0-1.2-1.2-.2-1.1.3,1.3,0-.6.9-.1.7.5-1.3-2.2-1.6-2.2-1.7-3.8.3,2.1-.1,1.8-.7,1.3-2.3.6-.7,0,.4-.8-1.8-.9-.6-.3ZM372.6,591.8c.2-.5.3.4.5-.3.5.2,0,.6.5.8.6-.4,0,0,0-.5.5-.3,2.2-1.6,2.5-.7-.3.8-2,1.1-1.2,1.7,0-1,1.5,0,1.4-.6-.5-1.1,1.4-.3,1.5-1.5,1.4-.6,0,1.3-.8,1.5.1.8-.5.1-.9.5,1,.2,1.5.7.1,1.1-.3-1.3-2-1.8-.8-.1,0,.7-1.3.6-.4,1.1,1.5-1.1,0,2.1,2.9,1.2.4-.4.1.5,0,.9.4-.6.6,0,.4.5.7,1.5,1.6.2,1.1-1,1.8-3.5-.6,0,.2-3.8-.5-.6,0,.7-.3,1-.5,0-1,0-1-1,1.1-.7-.2-.4.2-1.1,1-.6,1.4-1.6,1.5-2.7.4.2.6.8.6-.3-.3.7-.6-.9-.5-1.2.3-.6.2-2.7-.5-2.9,0-.6-.5-.7-.5,0,.3-.1.2-.8.3-.1-.6,1.7-.4.5.5.7-1,.4,1.5.8-1,1.1,0,1.9.2,2.8.3,0,1.1-.1.8,1.7.3,2.3-.1-.6-.2-1.5-.5-.5-.6.3,1,2.2,0,2.4-.4-.9-.2.3-.6.1-.7-.4-.4-2.9-1-1.5-1,2.1-.6-1.5-1.3,1.2-.5,0-.3-.6-.5-.8-.4,1.1-2.3,1.9-1.6.2-.9.2-.2,1.3-1.1,1.1,0-.6-.8,0-.2,0,.2.5-.9.8-.4,1ZM380.5,583.8c.2.2.9,1.4.8.5,0,.3.5.4.2,0-.3-1-1.8-1.8-1.1-.6Z"/>
  <path class="st9" d="M16,570.1c0,.3-.2,0-.5.3,0,.1.6,0,.5-.3ZM16.3,569.2c0,0,.5-.6,0-.2.2-.4.3-.5-.2-.3.2.3-.4.8-.3.2.2.3.3-.4.4-.7-.3.6-1.6,1.1-.5.9,0,.2,0,.4,0,.5,0,0,0,0,.2,0,.3,0-.4,1,0,.5,1.1-.7-.3-.3.4-.8ZM6.5,592c-.5.9.5,3.5,1.2,4.5-.6-1.8-1.3-3.2-1.2-4.5ZM19.7,577.1s.8,0,.8-.3c-.1.2-.9,0-.8.3ZM28.2,575c-.1.1-.1.7,0,.8.2-.3,0-.5,0-.8ZM21.3,567.7c.2.2.3-.2.5-.1.1-.5-.4,0-.5.1ZM30.9,581.9c0,0,.2.4.4.3,0-.2-.1-.4-.4-.3ZM21.3,567.5c-.4-.1-.4-.4.1-.4.6-.7-1.8,1-.1.4ZM25.2,575.2c-.2.5-.3.4.4.2-.3,0,0-.5-.4-.2ZM24.7,574.9c0-.2.1-.2.3-.3-.4-.6-.8.9-.3.3ZM27,579.3c-.8.9-.2.6.2-.1-.1-.2-.4,0-.2.1ZM29.8,558.5c0,.6,0,1,.4,1.1.1-.3-.4-1.2-.4-1.1ZM23.5,576c.6-.7,1.3-.4,1.4-.5,0-.9-1.3,0-1.4.5ZM29.8,557.8c.2.5,1.2,1.6,1.9,2.4-.4-.8-1.1-1.9-1.9-2.4ZM18.3,576.6c1-.1.5,0,1.7.3,0-.5-2.1-1-1.7-.3ZM24,574.2c-.3.7.1.1.4.4-.3-.7.2-.1.4-1,.2-1.2-2,2-.8.7ZM19.2,575.2c.5-.3,1.3,1.8,1.6,1.3-.3-.4-1.4-2.2-1.6-1.3ZM42.1,591.3c-1.6,4.4,1,.1,1.1-2.1,0-2.1-1,2.9-1.1,2.1ZM27.5,577.7c-.1-.5-.4.8-.8.7.7-.8.8-1.6-.3-.8,0,0-.4.9-.7,1.2,0-.3.1-.5.2-.6,0,0-.2.2-.4.4-.4.7-.5,1.7-1,1.5,0,.7-.3.4,0,1.2,0-1.4.1-.3.6-.7.1,1,.7.3.4,1.5,1-1.6.8-2.7,2-4.2ZM22.2,572.7c.6-1.2,1.8,0,2.2-.4-1.2-1.5-1-.6-2.4-.9-1.3-.5-1.8,1.2-2.6,2.3.3-.4.5,0,.3.4.3.1.9-1.1.5,0,.9-.5,1-1.1,1.2,0,1.1-.8-.7,2.1-.5,2,0,1.8.6-1.2.8-.1.3-.3.6-.2,1.2-.6-.2.4-.1.7-.5.4-.1,1.9,2.1-1.4.9-.6,0-.2.2-.4,0-.1,0-.3.2-.3-.3-.3,0-.6.3-.8-.5-.3.1-.5.8-1.5,0-.7-.2-.8-.9,0-1-.6-.8.7-.2-1,.8-.6ZM21.7,572.4h-.5c0-.5.5-.6.5,0ZM19.2,570.6c.2,1-.6-.7-.5.2-.9-.5-.9.4-.2.4-1-.6.7-.2,1.1,0,.5-.5,1.1-.4,2-.8,0,.7.4-.2.8,0,.6,0,.2.3.7.2-.4.6.4,0,.7,0,.2.1.6.6,1.2.5-1.8-3.5-6.4-1-5.7-.4ZM8.7,598c0,1.3.2-.1.3-.4-.2,0,0,.6-.3.4ZM9.8,597.7c-.2.1,0,.8.2.8,0-.4-.2-.4-.2-.8ZM4.4,595.5c0,.9-.4,3,.4,3.1-.3-.8-.4-2.1-.4-3.1ZM5.7,596.4c-.5-1-.2,1.5.1,2.2.8-.1-.3-1.7-.1-2.2ZM12.1,598.1c-.7-.7-1.6-2.5-1.5-4.2-.3,1.3.7,3.1-.3,3.2.5.2,1.8,2.7,2.1.4.1-1.4,0,0-.3.6ZM14.8,578c0,.5.1.9.2,1.3,0-.4-.1-.9-.2-1.3ZM29.7,560.2c0,.2,0,.3.1.5,0-.1,0-.3-.1-.5ZM17,568.8c0,0,.2-.2.3-.2,0,0-.1,0-.3.2ZM41.8,597.7c.1-.9,1.6-1.1,1.4-1.9-.9-.4-2,3.1-2.3,1.6.4-.9.9-2,1.9-2,.2-.6.6-1.3,1.1-1.6.8,1.1.9,5-2.1,3.9ZM44,592.2c-1.1,0-.9,1.1-.1,0-.5,1.1-3.8,4.3-3.8,5-1-.2,1.3-3.3.9-3.6-1,.2,1.4-4.9,1.8-6.4,0,.2-.7.6-.2.2-.3-.2,0-.3.2-.2,0-.1,0-.3,0-.3,2.1.6-.6-.8-.5-.3-.4.4-3.1-2-4.9-2.5-3.9.2-1.9,1.2-5.9-1.9-.3,2.3-.3,5.4-1.4,7,.7-.4.3.9,0,.4-.8.7.3-1.2-.5-.6,1.1-1.3,1.2-2.8,1.4-5-.7.2-.2-.2-.7-.4-.4-.3-1.3.6-1.1.1,1.3-.8.4-1.9-.7,0-.8.2,1.1-1.6,1.6-1.7.5-1.3-1.2,0-1-.3.3-2.3,0-.4,1.2-.5-.3.3.1.3.3.3-.5.2-.5.6-.5.8.1,0,0,.4,0,.6.3-.3.9,1,.8.1.6-.4-1-.9.1-.8-.9-.4.5-1.1-.7-1.2.5,0,.4-.6,0-.3-.2-.9.2-.3.7-.1-.4-.6-1-1-1.6-.3.8-1.2.8-2.3-.4-2.9-.6-1.1,0-1.2.8-1.7,0-.9-1.5-3.4-1.1-1.5.7,1.4-.7,1.5-1,2.5-.8,1.4,0,.5.4-.3,0,.5,0,.5-.2.9.6-.8,1-.7.6.3.3.3.5.6.5,1.3.4.2-.1-.6.6-.6-.2.9-1.2,1.8-.8,2.9-.4.1-.7.9-1.2,1.3-.8.3.1-.4-.3-.4-.3.4-.5.3-.7.7.2-.1.9-.2.3,0-.4.4-.8.9-1.6,1-2,1.5-1.4-3.8-3.3-5.3-.5-.5-2.1-.3-2.2-1.2-.9.4-1-.2-1.3,1.4.4,0,.3-.4.4-.8.1.4-.2.5.2.3,0-.2.4.4.4.8.2-.5.5-.1.4.3-.1-.7-.5.4-1.3.2-.3-.5-.2-.1,0,.1-.4.1-.8-.1-.8.5-.7.5-.4-.9.2-.5-.4-.8.4-1,.4-1.5,0-1.3-1.9-1.2-1.8-2.6,1.9-1.8.9-6.6.8-3.9-.9-.3.2-1.1-.1-1.4-.3.5,0,.3-.3.6-.5.8-2.4.2-3.4,1.6-.5-2.8,1.1-6.4,4.2-6.8-.2.7-1.2,3.1-.4,2.1-.2-1.8,2.9-3.7,2.2-1.9-.4,1.7-1.3,2-2.3,2.9.2,0,0,.6-.1.9,0,0,0,0,0-.2.7,0,.3,0,0,.8.6,0,1.2-1.7,2-2.3-.3,1.2,0,.4.5.2-.3-.4,0-1.5.4-1.7.2-1.1-.2.2-.6.2.1-.3.3-.5.4-.7.6-.2-.2-1.1,1.5-.6,2,0,3.1,0,3.1,1.5.2.6.2.6.5,1.3-.4-.4-.8-.7-.6,0,1.9,1.2,3.2,5.3,4.1,7.6,0-1.2-.4-2.5-.2-3.4.5.5,1,0,1.1-.6-.6-.4,1.3-2.9.7-1.4.9-1.2.2-.1,0,.7-1.4.4.2.8.2-.3.5.4-.4.8-.6,1,.4.2.3.2.1.5.5.2,0-.5.5-.7.3.2,0,.7,0,.8,0,0,.2-.2.4-.4-.6,1.5.2-.1.2.5.7-.9.5-1.3.9-.3-.5-.2-.7.4-.8.9-.4,0,0,.2.1.3,0-.3,0-.8.5-.3-.5.5-.7.9-1,2-1.2,6.3,6.2-5.6,3-8.1.6.1-1.3-4.2-.2,0-.2-.3-.2-.5-.2-.6,0,.1,0,.4,0,.8.2-.4.5.4.1.4,0-.3-.2,0-.4.2,0-.5-.2-.7-.5-.7-.2-.7.6-1.6-.3-1.3.1-.2,0-.5.2-.8,0,.4.3.6.1.1v-1.1c0,.3,0,.8-.2.4,0,.3,0,.6-.2.7.3-1-.5,0-.1-.5-.2-.7-.5.1-.3-.9-.2-1.8-.4,3.3-.3-1.1-.1-.6-.1-1-.1-1.1,0,.2,0,.7-.2,1.3-.1-.4,0-1.8-.3-1.5-.4-.8.5,0,0-.7-.2-.4-.4-1.5-.4-.6-.5-.5,0,1.8,0,.1.5.2.2,2-.1,2,0-.2-.2-.8-.4-1.3-.1.2-.4.4-.2.5.5-.4.1.3.4.3,0,1-.6-.8-.3.9.5-.5.2,0,.2.3-.3-.2-.4-.3-.5,0,.3-2.3-1.3-.5-.3-.2.3.7-.7.8-.5-.6-.4-.6,1.3-.5.6-1.2.1,1.1-1,0-.3-.3.5,0,0-.4-.5-.2.3,0,.2.8,0,1,0-.5-.5-1.9-.5-.8-.4-.4,0-.8,0-1.4.4-.3.8.4.3.9.4,0,.5,0,.7-.4-.8-.8.8-.6.4.3.3.6.3,1.9.4.4,0,0,0,0,.1,0-.1-.5-.3-1-.2-1,.5,1.2,0-.4,0-.6-.2-.9-.5,0-.6-.6,0,.7,0,.4-.3.2-.2-.6-.7-.7-.8-.7-.3-.9.2.6-.7.5.7-1.2-.9-1-1.3-1.2.3.3-2.7,1.1-1.2.3.6.5.6-.6.2-.6.5,0,.6.2.9,0,5.9.7-7.3-1.8-9.3,1.5-.7.1-1,2.1-3,2.2-1.2,1.3-1.4,1.8-2.8,2-.2-.3,1.3-.5,0-.6-.9,1-5.3.5-3.8,4.3,1.1,1.8,4.3,5.3,4.7,4.9.2-.4.2-.6.2-.6,0,0,.1.1.5.3-.3-.4-.1-.5.1-.1.1-.4-.4-.8.2-.6.3.6.5,2.2,0,2.1.7.4,1.1,2.5,1.4,2.6-.6-1.6,1.1-2.2,2.4-2.1,2.2.7-3.6.8-2.1,4.1.2.5.4,1,.5,1.4-.3-2.2,0-4.7,1.2-3.5.7-.8,1-.3.4.5-1.1,1.3,1.4,3.7.3,1.6.7.3,1.3.7.5,1.2-.2,1.5-1.9,3.4-.4,4.4,0-1.3.3-1.1.6.1.7.4-.6.9-.1,1.1-.6-.2-.1.3-.2.5-.3.6-1-2.4-1.6-3.4-.2-.2-.3-.6-.5-1.2.6,6.5-9.8,5.3-10.6,14.9-4.4,8.2.5.8,1.6-3.4.8-.6.1,1.8.7-.8.3,1.5.3,4.4,1.1,5.5-.3-1-.8-4-.2-3.3,2.3-.5,2.7,3,1,2.5.3.4.3,1.5-.4,1.6-.5.6-1.3,2.6,0,2.3-.6-.4.4-2.2.2-.9-.3.2,0,.9.2.9,0-.8.2-3.2.4-1.7.8-1.5.2-4.8,1.8-3.2.7,1,3.1,3.5,2.6,2.3-.4.1-.1-2.2.2-1.4,1,2.8-.2,5.5,6.5,3.4,1.9-1.9-.7.8.5.3-.3-.5,1.7-1.7.9-.7,0,1-.3,0-.2.9,1.1.1,2.3-2.3,2.4,0,5.5.7,4.8-1.4,7.6-2.4-.1-.2,2.3-1,1.4.2,0,1-1.9,2.4.5,2,0-1.9-1-3,1.4-2.7.8.2.3,1.1-.3,1.6.8.9,1.1-3,2.1-2.2,1.1-.7-.1,2.7-.9,2.8-.4,0,.5-1,.2-.9-.7,1.1-1.1,1.5.5,1.3,1.1-2.8,0-4.5,3.2-4.1-.6,1.4-1.8,6.1.8,3.4.5-2.3,4.9-3.5,3.6-4.9ZM19.4,567.2c-.7.7,0-.5.1-.7.2,0-.1.7-.1.7ZM26.8,567.6c.4.4.5.9.7,1.5,0-.7.5,3.1.1,1.4-.3,1.1-1.1-2.3-1.4-2.9.7.3.5,1,.5,0ZM13,570.2c-.5,0-.5-.4,0-.3-.4.2.1,0,0,.3ZM16.8,573.7h-.1c.8-.2-.2.7.1,0ZM34.7,585.1c0,.2.7.4.2.6-.2-.3-.9-.9-.2-.6ZM31.6,587c1.5-.9,0,.9-.6,1.7,0-.5-.3-.8.6-1.7ZM29.6,587.1c-.5,1.1-.5,1-1.6.8.9-.8-.5-.9,0-1.1.3,0,1.8-.2.7.4.7.8.8-.5.5-.9-1-.2,1.8-.5.5.7ZM28.5,586.5c0-.2.2-.5.5-.5-.2.2-.2.5-.5.5ZM30,584.4c1.2.4.8.7-.3.6.3-.2,0-.8.3-.6ZM30.2,586.2c-.4.2.6-1-.5-.8.1-.8,1.2.2.5.8ZM28.5,584l.5-.5c0,0-.8,1.1-.5.5ZM25.2,585.4c.2.1.2-.6.4-.4.7,0-.7,1.1-.4.4ZM24.2,585.8c.2.2,1,0,.8,0,.4,0-1.7.7-.4.5,2.5,1.2-1.1-.2-.8.5.7,1.4,2.6.1,2.2-.7-.2-.3-.9-.4-.2-.6.2-.5.6.6,1.1.7.7,0,1.3-1.2.2-1.1-.4,1.3,0-.6-.9-.2-.7.5,1.4-2.1,1.7-2.1,1.7-3.8-.3,2.1,0,1.8.7,1.3,2.3.6.7,0-.4-.8,1.8-.9.6-.3.4.4-.1,1.9-.8,1.2-1.3,0,.6,1-.7,1-1.1-1.1-1.8.9-.8,1.5,1.5-.7,1.6,2,.8,1-.3.3-.2,0-.5,0,.2,0,.6,0,.5-.3-3.1-.6-1.7.7-.2,1.1.1,1.5-2.5-1.7-1.6.8-1.2,0,.9,1.5-1.6,1.6-.8-.7.4-.1.6-.5,0-.5-1,0-1-.9-.4-.7,3.2.6.6-1.5.9.4,1.6.2.7-.6-.9-.2-2.4-.7-.6-.9.2-.3-1.9,0-2.2-.3.2,0,1.7-.9.1-.8.8-.3,1.1-.6,1.6-1ZM27.2,587.1c.2-.1.2,0,.2.2,1.5.3-1.8,1.3-.2-.2ZM26.3,590.6c.5,0,.9.2.5.5-.4-.4-1.2.4-.5-.5ZM26.5,593.4c-.2.4-.7.4-.9.6,0-.3.9-1.8.9-.6ZM24.5,593.1c-.7,1-.6-.4.2-.4.1.2-.7.4-.2.4ZM24.2,590c0-.3.9.1.5.4,0,0-.5,0-.5-.4ZM23.3,591.8c-.6,0-.7-.1-.7-.6-.1-1.5.2.1.7.6ZM23,588.2c.2,0,.5.4.5.5-.2.2-.7-.3-.5-.5ZM22.7,592.6c1.5-.7.8,0-.2.3-.5-.2.1-1.2.2-.3ZM23.3,590.6c.1,0,.5.2.4.4-.3,0-.4-.1-.4-.4ZM19.6,580.2c0,0,.2,0,.2-.1.4.3-.9.7-.2.1ZM19.1,582c1.1,1.3.9-1.5,1.6-1.8,2-1.3,3.7,4.9,2.3,3-.4.8.4.4-.6.8-.1-.5,0,.2-.3.1,0-.2.3-.8,0-.3-.4.2-.3.2-.6-.4,0,1-.5,0-.8,0-.2-.6-.1.8-.5,0,0,.3-.3.8-.5.5,0,.8-.7-.7-.5.4-.2-.2-.4-1.1-.8-.3-.5-1,.4-1.3.6-1.9ZM20.6,587.9s0,0,0,0c0-.2-.6-.7,0-.4-1-1.5,1,.3,1.2.6-.7-.4-1-.3-1.3-.2,0,0,0,0,0,0ZM19.5,587c.2.3,1,1,.8,1-.6-.2-1.2-.1-1.5-1.1,0,0,.8.3.8,0ZM18.6,586.3c.4-.2.7.4.2.5l-.2-.5ZM17,580.8c.3-.2,0-.5.5-.4-.2.2-.2.7-.5.4ZM17.5,581.1c.4-.2.7-1.4,1-.7.2-.4.5.2,0,.4.8.2-2.1,1.4-1,.3ZM18,582.7c-.3-.8-.4-1.1.3-.6,0,.7-.1.9-.3.6ZM16.3,583.6c.3.3,2.3,3.1.8,1.9-.3.5,2.6,1.4,1.1,1.5.7.9-.8-.4-.7-.8-.2.2-.3.4-.5.1.2,1-1.2-2.9-.7-2.6ZM17.7,588.7c-.5-.2-.4-1.5.5-1,.6-.6-.5.6-.5,1ZM17.2,587.4l-.4.2c0-.4.2-.5.4-.2ZM16.3,586.6c.6.1.4.6,0,1,0-.5.3-.5,0-1ZM15.8,589.7c-.2-.4,0-.6.4-.7.3.5,0,.5-.4.7ZM13.4,584.3c.3-1,1.8-1.8,1.1-.6-.2.2-.9,1.4-.8.5,0,.3-.5.4-.2,0ZM8,589.3c0,2.2-1.1,1-.3-.2,1-1.2,1.8-.8.3.2ZM9.4,589.8c-.2,2.3-1.1.8-.4-.5,1.4-1,1.5-.5.4.5ZM11,589.2c.8-.4-.6,1.4.9,1.6.8.2,2.2,2,.8,1.6-1.9-1.6-4.2-.6-1.7-3.2ZM13.9,593.6c-.4.1-1.1,1-.8.5-1.3-.2,1.4-1.9.8-.5ZM13.8,590.4c0,1.1-.8.3-.8,1-.6-.8-.1-2.8,0-3.9.4-.5,1.3,2.2.7,2.9ZM14.1,585.7c.4.2.4,1.4,0,1.8-.4,1.1-.3-1.4,0-1.8ZM14.3,591.9c.7-.5.8-.8.5.3-.2-1-.2.4-.5-.3ZM14.6,591c.5.2.5.5,0,.2-.4.6-.3,0,0-.2ZM18.8,597.4c0-.5-.2-.6.3-.6-.2.2.3.5-.3.6ZM21,595.9c-.2.5-1.6,1.5-1.6.9.7,0,.5-1.9,1.5-1.2.2.2.7,0,.1.3ZM21.2,593.1c0,.5-1.4,1.6-1.2.2.8-.2,1-.3.7-1.2.9.4,1,.2.5,1ZM21.8,591.4c-.5.2,0,.6-.5.8-.6-.4,0,0,0-.5-.5-.3-2.2-1.7-2.5-.7.3.8,2,1.1,1.2,1.7,0-1-1.5,0-1.4-.6.5-1.1-1.4-.3-1.5-1.6-1.4-.6,0,1.4.7,1.5-.1.8.5.1.9.5-1,.2-1.5.7-.1,1.1.3-1.3,2-1.7.8-.1,0,.7,1.3.6.4,1.2-1.4-1.1,0,2.1-2.9,1.2-.4-.4-.1.5,0,.9-.4-.6-.6,0-.4.5-.7,1.5-1.6.2-1.1-1-1.7-3.5.6,0-.1-3.8.5-.6,0,.7.3,1,.5,0,1,0,1-1-1.1-.8.2-.4-.2-1.1-1-.6-1.3-1.6-1.5-2.7-.4.2-.6.8-.6-.3.3.8.6-.9.5-1.2-.3-.7-.2-2.7.5-2.9,0-.6.5-.7.5.1-.3-.2-.2-.8-.3-.1.6,1.7.4.5-.5.6,1,.4-1.5.8,1,1.1,0,1.9-.2,2.8-.3,0-1.1-.1-.8,1.7-.4,2.3.1-.5.2-1.5.5-.5.6.3-1,2.2-.1,2.4.4-.9.2.3.6.1.7-.4.5-2.9,1-1.5,1,2.1.6-1.5,1.2,1.2.5,0,.3-.6.5-.8.3,1.1,2.3,2,1.6.3.9.2.2,1.3,1.1,1.1,0-.6.8,0,.2,0-.2.5.9.8.4,1-.2-.5-.3.4-.5-.3ZM22.2,595.1c-.1-.3-.6-.7.2-1,0,.4.3.8-.2,1ZM23,593.7c.3,0,.3.1.5.2-.2.2-.4.2-.5-.2ZM24.1,595.1c-1,.6,1.6,2.9,0,2.2-1-1.3-1.3-1.8,0-2.2ZM24.8,598c-1.1.1.2,0,0-.8-.2-.6.6.6,0,.8ZM25.3,594.8c.2-.4.5-.9.9-.9-.4.5-.6,1.6-.9.9ZM26.9,594.8c-1.4.6,0,1.8-.1,2.6-2.9-.6.7-5.4.1-2.6ZM27.2,594.1c-1.7-.8.5-1.3,1-3.1-.5,2.5,4.7-3.8,5.5-5.5,2.4.8-1.9,5.1-2.5,6-.1.3-1.2.9-1,.4.4,0,.5-1.2,0-.4-1.4.5-2.2,3.4-3.1,2.7ZM29.5,593.1c-.9.7-.2-.4,0-.8,0,.6.3-.3,0,.8ZM28.9,594.2c-1,.7-.3,1.6,0,2.4-3-.2.5-4.6,0-2.4ZM31.9,594.7c-.8.3.2-.3-.2-.3.2-.7.5-.2.2.3ZM32.3,594c-.7.3-.2-.4,0-.6.3.3-.5.5,0,.6ZM36.6,591.3c-.3,3.1-1.2,1.2-.7-.2-1.5-1.6,1.1-1,.7.2ZM36.8,586.2c-.6,1.5-1.7,3.4-2.1,4.4-.4.2,1.3,3.3-.5,3.3.5-1.2-.9-4.9-.6-2.7-.6-1.6-.3.2,0,.9,0,.6-1.1.6-1.2.4-.3.2-.8.6-1,.4-1,.4-1.6,3.2-2.4,1.9.5-1.9,2.7-2.6,3.6-4-.2-.2,4.7-7.9,4.2-4.5ZM38.2,592.3c-.9,0,.9-2.3-.8-2.9,1.5-1.2,2.2,2.1.8,2.9ZM39.2,588.4c-.1,1.4-.9-1.5-1-2.2-.2-1.8,1.5,0,1.8.3-.4.4-.1,2-.8,1.9ZM40,593.6c0,.3-.4,1.1-.6,1.2.1-.5.2-1.4.6-1.2ZM30.6,574.4c0,2.7-.3-1.6-1.3-1.8.9-1.3,1.7,1,1.3,1.8ZM29.3,584.5c.4.4-.1,1.9-.8,1.2-1.3,0,.6,1-.7,1-1.1-1.1-1.8.9-.8,1.5,1.5-.7,1.6,2,.8,1-.3.3-.2,0-.5,0,.2,0,.6,0,.5-.3-3.1-.6-1.7.7-.2,1.1.1,1.5-2.5-1.7-1.6.8-1.2,0,.9,1.5-1.6,1.6-.8-.7.4-.1.6-.5,0-.5-1,0-1-.9-.4-.7,3.2.6.6-1.5.9.4,1.6.2.7-.6-.9-.2-2.4-.7-.6-.9.2-.3-1.9,0-2.2-.3.2,0,1.7-.9.1-.8.8-.3,1.1-.6,1.6-1,.2.2,1,0,.8,0,.4,0-1.7.7-.4.5,2.5,1.2-1.1-.2-.8.5.7,1.4,2.6.1,2.2-.7-.2-.3-.9-.4-.2-.6.2-.5.6.6,1.1.7.7,0,1.3-1.2.2-1.1-.4,1.3,0-.6-.9-.2-.7.5,1.4-2.1,1.7-2.1,1.7-3.8-.3,2.1,0,1.8.7,1.3,2.3.6.7,0-.4-.8,1.8-.9.6-.3ZM22.3,591.8c-.2-.5-.3.4-.5-.3-.5.2,0,.6-.5.8-.6-.4,0,0,0-.5-.5-.3-2.2-1.7-2.5-.7.3.8,2,1.1,1.2,1.7,0-1-1.5,0-1.4-.6.5-1.1-1.4-.3-1.5-1.6-1.4-.6,0,1.4.7,1.5-.1.8.5.1.9.5-1,.2-1.5.7-.1,1.1.3-1.3,2-1.7.8-.1,0,.7,1.3.6.4,1.2-1.4-1.1,0,2.1-2.9,1.2-.4-.4-.1.5,0,.9-.4-.6-.6,0-.4.5-.7,1.5-1.6.2-1.1-1-1.7-3.5.6,0-.1-3.8.5-.6,0,.7.3,1,.5,0,1,0,1-1-1.1-.8.2-.4-.2-1.1-1-.6-1.3-1.6-1.5-2.7-.4.2-.6.8-.6-.3.3.8.6-.9.5-1.2-.3-.7-.2-2.7.5-2.9,0-.6.5-.7.5.1-.3-.2-.2-.8-.3-.1.6,1.7.4.5-.5.6,1,.4-1.5.8,1,1.1,0,1.9-.2,2.8-.3,0-1.1-.1-.8,1.7-.4,2.3.1-.5.2-1.5.5-.5.6.3-1,2.2-.1,2.4.4-.9.2.3.6.1.7-.4.5-2.9,1-1.5,1,2.1.6-1.5,1.2,1.2.5,0,.3-.6.5-.8.3,1.1,2.3,2,1.6.3.9.2.2,1.3,1.1,1.1,0-.6.8,0,.2,0-.2.5.9.8.4,1ZM14.5,583.7c-.2.2-.9,1.4-.8.5,0,.3-.5.4-.2,0,.3-1,1.8-1.8,1.1-.6Z"/>
</svg>