<?xml version="1.0" encoding="UTF-8"?>
<svg id="_x32_2" xmlns="http://www.w3.org/2000/svg" version="1.1" xmlns:xlink="http://www.w3.org/1999/xlink" viewBox="0 0 400 600">
  <!-- Generator: Adobe Illustrator 29.4.0, SVG Export Plug-In . SVG Version: 2.1.0 Build 152)  -->
  <defs>
    <style>
      .st0 {
        fill: $[secondary];
      }

      .st1 {
        fill: $[primary];
        stroke: #000;
        stroke-width: 6px;
      }

      .st2 {
        fill-rule: evenodd;
      }

      .st2, .st3 {
        fill: $[accent];
      }

      .st4 {
        fill: #002c49;
      }

      .st5 {
        fill: #ffd386;
      }

      .st6 {
        fill: url(#linear-gradient);
      }
    </style>
    <linearGradient id="linear-gradient" x1="67.7" y1="539.6" x2="162.5" y2="539.6" gradientUnits="userSpaceOnUse">
      <stop offset="0" stop-color="#003d63"/>
      <stop offset=".1" stop-color="#3b5f49"/>
      <stop offset=".2" stop-color="#78822f"/>
      <stop offset=".3" stop-color="#a99e1b"/>
      <stop offset=".4" stop-color="#cbb20c"/>
      <stop offset=".5" stop-color="#e1be03"/>
      <stop offset=".6" stop-color="#e9c300"/>
      <stop offset=".7" stop-color="#c78600"/>
      <stop offset=".8" stop-color="#a84d00"/>
      <stop offset=".9" stop-color="#912300"/>
      <stop offset="1" stop-color="#830900"/>
      <stop offset="1" stop-color="#7e0000"/>
    </linearGradient>
  </defs>
  <g id="Layer_1">
    <g id="suit2">
      <path id="Shirt" class="st1" d="M281.2,502.8c5.6,3.7,17.7,7.7,28.6,9.9,0,0,30.8,5.3,37.9,7.7,57.4,22.3,50.4,79.7,50.4,79.7l-395.8-.2s-3.8-63.4,37.2-71.5c7.7-1.5,25.9-8.7,35.6-9.4,0,0,37.4-9,42.8-12.6.9,5.7,11.3-29.5,4-41.3,19,3.1,38.2-.2,68.9,0,42.8.4,77.3,2.9,91.1-.5-8.6,16.4-.8,38.2-.8,38.2Z"/>
      <path class="st2" d="M229.6,525.3h.3c0,0,8.1,0,8.1,0v5.4h-3.7c-.8,0-1.5.2-2.1.5-.8.6-1.2,1.6-1,3.1h6.9v5.5h-6.9v9.3h-6.1v-17.3c0-1.2.3-2.4.8-3.5.8-1.4,2-2.3,3.7-2.9h0ZM217.5,549v-23.8s6.1,0,6.1,0v23.8h-6.1ZM206.7,532.9c-1.2,0-2.2.3-3.1.9-.7.6-1.2,1.6-1.4,2.7h8v-.6c0,0-.2-.4-.2-.4-.5-1.5-1.6-2.4-3.3-2.7h0ZM216.4,539.3v.7s0,.4,0,.4h-14.5c.2,1.4.7,2.4,1.4,3.1s1.6,1,2.5,1.2c2.1.2,3.5-.5,4.1-2.1h6.3c-.3.8-.7,1.7-1.3,2.6-1.2,1.8-2.8,3-4.6,3.8-1.1.4-2.2.6-3.3.7-1.9,0-3.5-.2-4.9-.8-.3-.1-.9-.4-1.6-.8-3-2-4.5-4.7-4.5-8.4,0-2.5.5-4.8,1.6-6.8.2-.4.6-.9,1-1.3.9-1.1,2-2,3.2-2.6,1.8-.7,3.7-1,5.5-.9,1.4.1,2.8.6,4.1,1.4,1.7,1.2,3,2.9,3.9,5.1.6,1.4.9,3,1,4.8h0ZM262.9,520.4l1.3,5.1h4.4v22.1l-21.5,5.8-1.4-5.1h-4.3v-22.3l21.4-5.5h0ZM252.3,524.9l-9.3,2.5h0v19.4h9.9v-11.8l2.2-.6,2.1-.6v-6.7h6l-1.3-4.7-9.5,2.6h0ZM267.1,536.9v-9.9h-9.8v12l-2,.5-2.4.7v6.5h-5.9l1.2,4.8,9.3-2.5,9.5-2.5h0c0-.1,0-9.7,0-9.7h0Z"/>
      <path d="M196,505.5c-12.2,8.8-5.5,94.8-5.5,94.8h1.8s.1-10.1-.4-19.6-.7-12.2-.9-18.9c-.4-18.4,1.1-37.7,2.7-43.5,3.4-12.1,2.3-12.7,2.3-12.7Z"/>
      <circle cx="200.5" cy="523.5" r="1.2"/>
      <circle cx="199.5" cy="538.7" r="1.2"/>
      <circle cx="198.5" cy="556.7" r="1.2"/>
      <circle cx="199.5" cy="574.6" r="1.2"/>
      <circle cx="200.5" cy="588.7" r="1.2"/>
    </g>
  </g>
  <path id="Shirt-neck" class="st1" d="M118,506.4c3.8-10.5,11.4-29.4,4.1-41.2,19,3.1,38.2-.2,68.9,0,42.8.4,77.2,2.7,91-.6-8.6,16.4,3.1,40.7,3.1,40.7l-167.1,1.2Z"/>
  <path d="M173.1,467.8c-5.5,3.5-2.4,37.7-2.4,37.7h.8s-.9-27.8.6-32.6,1-5.1,1-5.1Z"/>
  <circle cx="175.9" cy="479.2" r="1.2"/>
  <circle cx="175.9" cy="491.3" r="1.2"/>
  <rect class="st6" x="67.7" y="526.6" width="94.8" height="26" rx="6.1" ry="6.1"/>
  <rect x="70.2" y="530.5" width="89.6" height="17.9" rx=".8" ry=".8"/>
  <g id="g67">
    <path id="path47" class="st0" d="M155.5,531.3c-.7.1-1.3.5-1.5,1-.2.5,0,1,.4,1.4.5.4,1,.5,1.7.5,1,0,1.7-.3,2-.9,0-.1.1-.2.1-.5s0-.4-.1-.6c-.4-.7-1.5-1-2.7-.8Z"/>
    <path id="path49" class="st0" d="M71.2,532.5v1.1l.2.2c.1.1.2.3.3.4,0,.3,0,7,0,7.3,0,.1-.1.3-.3.4l-.2.2v2.3h3.6c3.9,0,4.1,0,5.2-.3.9-.2,1.6-.5,2-1,.4-.5.7-1.2.8-2.1,0-.2,0-1.3,0-2.6,0-3,0-4-.4-4.9-.5-1.3-1.6-1.9-4.1-2.1-.3,0-2,0-3.9,0h-3.3v1.1ZM77.8,534.3c.2,0,.2.1.3.3.1.2.1.2.1,3.1,0,3.2,0,3.3-.3,3.5-.2.2-.4.2-1,.3h-.5s0-3.6,0-3.6v-3.6h.6c.5,0,.6,0,.8.1Z"/>
    <path id="path51" class="st0" d="M95.2,532.5v1.1h.2c.3.4.3.3.3,4.3,0,4,0,3.7-.3,4h-.2v2.4h10.8v-6.3h-4.1v1.1c0,1.7,0,2-.5,2.2-.2,0-.3.1-.6.1h-.4s0-3.6,0-3.6c0-2.7,0-3.6,0-3.7,0-.2.3-.4.5-.5h.2v-2.3h-5.9v1.1Z"/>
    <path id="path53" class="st0" d="M141.5,532.4v1.1s.2,0,.2,0c0,0,.2.1.3.2,0,.1,0,.2,0,3.9s0,3.8,0,4c0,.1-.2.3-.3.3h-.2v2.2h5.1v-2.1h-.2c-.3-.4-.3-.5-.3-2.8v-2h.2c0,0,.3,0,.4-.1.4,0,.6.1.8.4v.2c.1,0,.1,2.6.1,2.6,0,2.3,0,3.2.2,3.7v.2s2.2,0,2.2,0h2.2s0-1,0-1v-1.1l-.2-.2c-.3-.2-.3-.4-.3-2.7s0-2.2,0-2.4c-.1-1-.6-1.7-1.3-2-.5-.2-.8-.3-1.7-.3-1,0-1.5.1-2.3.4l-.4.2v-3.9h-4.6v1.1Z"/>
    <path id="path55" class="st0" d="M84.8,533v.5h8.9v-1h-8.9v.5Z"/>
    <path id="path57" class="st0" d="M88.2,534.6c0,0-.3,0-.5,0-1.4.2-2.3.6-2.7,1.4-.4.7-.4.8-.4,3.2,0,2.6,0,3.1.4,3.7.3.5.7.9,1.4,1.1,1.3.4,3.7.5,5.5.1.8-.2,1.6-.5,2.1-.8l.2-.2v-1.2s0-1.2,0-1.2h-4.1v.4c0,.7-.2.9-.8.9s-.5,0-.7-.3c0-.1,0-.3-.1-.9v-.8s2.8,0,2.8,0h2.9v-1.3c0-.9,0-1.4-.1-1.7-.3-1.3-.9-1.9-2.1-2.3-.8-.2-1.2-.3-2.5-.3-.7,0-1.3,0-1.4,0ZM89.8,536.9c.3.1.4.3.4.9v.5s-.8,0-.8,0h-.8v-.4c0-.5.2-.8.4-.9.2,0,.6-.1.8,0Z"/>
    <path id="path59" class="st0" d="M111.1,534.6c0,0-.3,0-.5,0-1.6.2-2.5.7-2.9,1.7-.2.6-.2.7-.2,3.1s0,2.3.1,2.7c.4,1.5,1.4,2,3.9,2.1.9,0,2.1,0,2.8-.1,1.5-.2,2.2-.7,2.6-1.7.2-.6.3-.9.2-3.3v-2.2s-.1-.4-.1-.4c-.4-1.2-1.1-1.7-2.8-2-.4,0-2.7-.1-3.1,0ZM112.8,536.9c.3.2.3.3.3,2.7v2.1s-.1.2-.1.2c-.3.5-1,.4-1.3,0,0-.2,0-.3-.1-2.2,0-2.2,0-2.4.2-2.6.2-.2.3-.2.6-.2.3,0,.3,0,.4.1Z"/>
    <path id="path61" class="st0" d="M124.8,534.7c-.7,0-1.4.3-1.9.6h-.2c0,0,0-.2,0-.2v-.3h-4.5v2.1s.2,0,.2,0c0,0,.2.2.2.2,0,.2.1.2.1,2.2s0,2,0,2.2c0,.1-.1.3-.3.3h-.2v2.2h5.1v-2.1h-.1c-.2-.2-.3-.4-.4-.7,0-.2,0-1.1,0-2.2v-1.9h.2c.3-.1.7-.1.9,0,.2,0,.3.2.4.4,0,.1,0,.4.1,2.9,0,1.5,0,2.8,0,2.8s0,.3,0,.5v.4h4.4v-2.1h-.1c-.3-.3-.3-.2-.3-2.8,0-1.5,0-2.4,0-2.6-.3-1.4-1.1-2-2.8-2-.3,0-.7,0-.9,0Z"/>
    <path id="path63" class="st0" d="M132.6,534.7c-.4,0-.8.1-1.1.3-.7.3-1.1.9-1.2,2,0,.4,0,4.2,0,4.7.2,1.4.7,2.1,1.9,2.4.1,0,.5,0,.8,0,.9,0,1.7,0,2.5-.4h.4c0-.1,0,.4,0,.4,0,.9-.1,1.3-.5,1.4-.5.2-1,0-1.1-.8v-.2h-3.8v2.3l.4.2c1.4.5,2.6.7,4.1.8,1.4,0,2.2,0,3.1-.5.8-.3,1.5-1.1,1.7-1.8.1-.3.1-.4.1-4.2,0-3.1,0-3.9,0-4,0-.2.3-.4.4-.4,0,0,0,0,0-1.1v-1.1h-4.5v.3c0,.2,0,.3,0,.3s-.1,0-.2-.1c-.8-.4-2.1-.7-3.1-.6ZM135.7,537.3h.2v4.2h-.2c-.3.2-.7.2-.9,0-.4-.2-.4-.5-.4-2.1s0-1.9.5-2.1c.2-.1.6-.1.9,0Z"/>
    <path id="path65" class="st0" d="M153.7,535.8v1.1s.2,0,.2,0c0,0,.2.1.3.2,0,.1,0,.2,0,2.2s0,2.3-.3,2.6h-.2v2.2h5.1v-2.1l-.2-.2c0,0-.2-.2-.2-.3,0-.1,0-.9,0-3.5v-3.4h-4.7v1.1Z"/>
  </g>
  <g>
    <path class="st3" d="M316.2,524.1h-13.5v.6s3.6,0,4.3,2.3v33.5s.8,7.8-9.2,7.7c0,0-10.2,1-9.5-13.8l-4,5.2s2.9,11.1,13.7,10.5c0,0,12.9.5,13.9-10.3v-33c.1,0,0-2.2,4.3-2.2v-.6Z"/>
    <path class="st3" d="M312,536.7h18.7s11.2-.3,11.9,11.8c0,0,1.2,15.5-19.1,12.6v-1.5s13.9,3.3,13.7-10.9c0,0,0-13.4-16.1-10v34.3s0,2.7,4.3,2.7v1h-13.4v-1.1s4.2,0,4.2-2.7v-32.7s.3-2.7-4.2-2.9c0,0,0-.7,0-.7Z"/>
    <path class="st3" d="M330.7,558.5v-8s-8.6-4.4-16-4.2c0,0-14.7-.1-14.8,11.4,0,0-.6,8.4,12.1,9.5,0,0,18,1.2,17,8.9,0,0,.3,7.9-12.8,7.8,0,0-11.9,1.4-16.6-11.8v9.1s5.3,4.7,16.6,4.7c0,0,15.5.6,15.8-11.6,0,0,1.3-9.9-16.5-11.8,0,0-11.8-.5-12.3-6.4,0,0-1.1-6.9,11.5-8.2,0,0,10.1-1.3,16,10.4Z"/>
  </g>
  <rect class="st5" x="130.9" y="562.3" width="131.6" height="34.6"/>
  <rect class="st0" x="134.4" y="565.1" width="124.8" height="31.8"/>
  <g>
    <path class="st4" d="M166.4,586.9c-.1,0-.4.2-.7.7-.6,1-.7,1.9-.2,2,.5.1,1.5,0,1.7-.4.2-.3-.4-2-.7-2.3ZM166.4,586.9c-.1,0-.4.2-.7.7-.6,1-.7,1.9-.2,2,.5.1,1.5,0,1.7-.4.2-.3-.4-2-.7-2.3ZM166.4,586.9c-.1,0-.4.2-.7.7-.6,1-.7,1.9-.2,2,.5.1,1.5,0,1.7-.4.2-.3-.4-2-.7-2.3ZM204.6,587.1c-.9-1.6-3.2-2.3-4.9-1.5-1.3.6-1.9,1.5-2,2.8,0,1.3.5,2,1.9,2.8,2.7,1.6,6.4-1.4,4.9-4.1ZM204.6,587.1c-.9-1.6-3.2-2.3-4.9-1.5-1.3.6-1.9,1.5-2,2.8,0,1.3.5,2,1.9,2.8,2.7,1.6,6.4-1.4,4.9-4.1ZM166.4,586.9c-.1,0-.4.2-.7.7-.6,1-.7,1.9-.2,2,.5.1,1.5,0,1.7-.4.2-.3-.4-2-.7-2.3ZM166.4,586.9c-.1,0-.4.2-.7.7-.6,1-.7,1.9-.2,2,.5.1,1.5,0,1.7-.4.2-.3-.4-2-.7-2.3ZM204.6,587.1c-.9-1.6-3.2-2.3-4.9-1.5-1.3.6-1.9,1.5-2,2.8,0,1.3.5,2,1.9,2.8,2.7,1.6,6.4-1.4,4.9-4.1ZM230.9,588c-.4-1.1-.8-1.1-1.4,0-.6,1.1-.4,1.5.6,1.5,1,0,1.2-.4.8-1.5ZM230.9,588c-.4-1.1-.8-1.1-1.4,0-.6,1.1-.4,1.5.6,1.5,1,0,1.2-.4.8-1.5ZM204.6,587.1c-.9-1.6-3.2-2.3-4.9-1.5-1.3.6-1.9,1.5-2,2.8,0,1.3.5,2,1.9,2.8,2.7,1.6,6.4-1.4,4.9-4.1ZM166.4,586.9c-.1,0-.4.2-.7.7-.6,1-.7,1.9-.2,2,.5.1,1.5,0,1.7-.4.2-.3-.4-2-.7-2.3ZM255.1,580.3c-.2-.2-.3-.4-.5-.5-19.3.2-38,.2-56.6.2-30.5,0-56.7-.2-57-.2-.2,0-.7.4-1,.8-.5.7-.6.9-.3,8,0,2.4.2,4.8.3,7.3.2.2.5.3.7.5.2.2.5.4.7.5,38.2.2,74.1.2,112.3,0,.2-.2.5-.3.7-.5.2-.1.5-.3.7-.4,0-2.5.2-5.1.2-7.6.2-7.2,0-7.6-.4-8.1ZM157.6,594c-.3.5-2.7.5-3.4,0-.2-.1-1.2-1.4-2.2-2.7-1-1.3-1.9-2.4-2-2.4-.4,0-.5.7-.5,2.9,0,1.8,0,2.2-.4,2.3-.7.2-2.8.1-3.2-.2-.5-.4-.7-11.2-.2-11.5.4-.3,3.1-.3,3.7,0,.3.2,1.2,1.4,2.1,2.7.9,1.3,1.8,2.4,2.1,2.4.4,0,.4-.2.4-2.4,0-1.6,0-2.5.3-2.7.4-.3,2.7-.3,3,0,.3.3.5,10.8.2,11.4ZM173,594.2c0,.2-.6.3-1.5.3-.5,0-.9,0-1.4,0-.2-.4-.5-.8-.7-1.1-.4-.6-.8-1.2-1-1.3-.3-.2-3.1-.2-3.9,0-.4,0-.8.5-1.2,1.3-.2.4-.4.8-.6,1.2-.5,0-1,0-1.6,0-1.7,0-2.1-.3-1.6-1.1.1-.3.4-.8.5-1.2,2.8-7.2,3.6-9.2,3.8-9.4.4-.4,4.2-.3,4.5,0,.4.4,4.7,11.2,4.6,11.5ZM183.7,594c-1.8.7-3.9.7-5.6,0-5.1-2.1-5.2-8.7-.1-10.9,1.5-.7,4.2-.7,5.8-.1,1.3.5,3.1,2.1,3.1,2.7,0,.6-.3.8-1.7,1.2-1.1.3-1.1.3-2.1-.5-1.2-.9-2.1-1.2-3.1-.8-1.2.4-1.9,1.4-1.9,2.8,0,1.4.5,2.1,1.7,2.7,1.1.5,2,.3,3.2-.8.5-.5,1.1-.8,1.2-.8.4,0,2.4,1,2.7,1.3.5.8-1.2,2.5-3.2,3.3ZM192.6,588.7c0,1.9,0,3.8-.1,5.6-.5,0-1,0-1.5,0-.9,0-1.6,0-1.8-.2-.3-.2-.4-1.3-.4-5.8,0-6.3-.1-6,2.2-6,.9,0,1.4.1,1.5.3.1.2.2,2.9,0,6ZM204.4,593.9c-4.6,2-9.7-.7-10-5.2-.1-1.6.3-2.7,1.7-4.3,1.7-1.9,5.4-2.6,8.3-1.5,5.2,2.1,5.2,8.6,0,10.9ZM221.3,594.2c-.2.1-1,.2-2,.2-.5,0-1.1,0-1.6,0-.6-.8-1.1-1.6-1.7-2.4-2.6-3.7-2.7-3.7-2.7-.5,0,1.6-.1,2.5-.3,2.7-.2.2-.8.3-1.5.3-.6,0-1.3-.1-1.5-.3-.4-.4-.4-11.1,0-11.5.2-.1,1-.3,1.9-.3,1.3,0,1.6,0,2.1.5.3.3,1.1,1.4,1.8,2.6,2.1,3.4,2.6,3.3,2.4-.2,0-1.6,0-2.3.2-2.5.4-.4,2.5-.4,3,0,.5.4.4,11.2-.1,11.5ZM235.2,594.4c-1.2,0-1.7-.3-2.1-1.4-.4-.9-1-1.2-3.2-1.1-1.8,0-2,.1-2.8,1.6-.5.9-.5.9-1.9,1-1.8,0-2.2-.2-1.9-.9.2-.3.4-.8.5-1.2,2.2-5.5,3.9-9.5,4.2-9.7.2-.1,1.1-.3,2.1-.3.9,0,1.9,0,2.1.2.3.2,1.4,2.7,2.6,5.8,2.3,6.1,2.3,5.9.3,6ZM244.2,594.4c-3.4,0-4.9,0-5.1-.2-.2-.2-.3-1.8-.2-5.8,0-4,.1-5.6.4-5.8.4-.3,2.8-.4,3.3,0,.2.2.3,1.4.3,4.1,0,2.2,0,4,.2,4.3.3.4.6.4,3.1.4,3.2,0,3.4,0,3.3,1.6,0,1.5.1,1.4-5.2,1.5ZM229.5,588c-.6,1.1-.4,1.5.6,1.5,1,0,1.2-.4.8-1.5-.4-1.1-.8-1.1-1.4,0ZM199.8,585.6c-1.3.6-1.9,1.5-2,2.8,0,1.3.5,2,1.9,2.8,2.7,1.6,6.4-1.4,4.9-4.1-.9-1.6-3.2-2.3-4.9-1.5ZM165.7,587.5c-.6,1-.7,1.9-.2,2,.5.1,1.5,0,1.7-.4.2-.3-.4-2-.7-2.3-.1,0-.4.2-.7.7ZM166.4,586.9c-.1,0-.4.2-.7.7-.6,1-.7,1.9-.2,2,.5.1,1.5,0,1.7-.4.2-.3-.4-2-.7-2.3ZM204.6,587.1c-.9-1.6-3.2-2.3-4.9-1.5-1.3.6-1.9,1.5-2,2.8,0,1.3.5,2,1.9,2.8,2.7,1.6,6.4-1.4,4.9-4.1ZM204.6,587.1c-.9-1.6-3.2-2.3-4.9-1.5-1.3.6-1.9,1.5-2,2.8,0,1.3.5,2,1.9,2.8,2.7,1.6,6.4-1.4,4.9-4.1ZM166.4,586.9c-.1,0-.4.2-.7.7-.6,1-.7,1.9-.2,2,.5.1,1.5,0,1.7-.4.2-.3-.4-2-.7-2.3ZM166.4,586.9c-.1,0-.4.2-.7.7-.6,1-.7,1.9-.2,2,.5.1,1.5,0,1.7-.4.2-.3-.4-2-.7-2.3ZM166.4,586.9c-.1,0-.4.2-.7.7-.6,1-.7,1.9-.2,2,.5.1,1.5,0,1.7-.4.2-.3-.4-2-.7-2.3ZM166.4,586.9c-.1,0-.4.2-.7.7-.6,1-.7,1.9-.2,2,.5.1,1.5,0,1.7-.4.2-.3-.4-2-.7-2.3ZM166.4,586.9c-.1,0-.4.2-.7.7-.6,1-.7,1.9-.2,2,.5.1,1.5,0,1.7-.4.2-.3-.4-2-.7-2.3Z"/>
    <path class="st4" d="M167.2,589.1c-.2.3-1.1.6-1.7.4-.5-.1-.4-1,.2-2,.3-.5.6-.8.7-.7.4.3.9,2,.7,2.3Z"/>
    <path class="st4" d="M199.7,591.2c-1.4-.8-1.9-1.5-1.9-2.8,0-1.3.6-2.1,2-2.8,1.6-.8,4,0,4.9,1.5,1.5,2.7-2.2,5.7-4.9,4.1Z"/>
    <path class="st4" d="M230.1,589.5c-1,0-1.2-.4-.6-1.5.6-1.1,1.1-1.1,1.4,0,.4,1.1.2,1.5-.8,1.5Z"/>
    <path class="st4" d="M166.4,586.9c-.1,0-.4.2-.7.7-.6,1-.7,1.9-.2,2,.5.1,1.5,0,1.7-.4.2-.3-.4-2-.7-2.3ZM204.6,587.1c-.9-1.6-3.2-2.3-4.9-1.5-1.3.6-1.9,1.5-2,2.8,0,1.3.5,2,1.9,2.8,2.7,1.6,6.4-1.4,4.9-4.1ZM230.9,588c-.4-1.1-.8-1.1-1.4,0-.6,1.1-.4,1.5.6,1.5,1,0,1.2-.4.8-1.5Z"/>
  </g>
  <path class="st4" d="M204.5,573.1c-.8.2-1.5.3-2.3.4-3,.4-2.9.2-.4-1.2,1-.6,1.8-1.3,2-1.5.3-.3.2-.3-.4-1.1-2.1-2.3-5.5-3.5-8.2-2.8-.4,0-.7.2-.7.3,0,0,.3.8.6,1.6.4.8.7,1.5.7,1.6,0,.3-.5.2-2.3-1-.8-.6-1.5-1.1-1.6-1.1-.2,0-1.2.7-1.6,1.2-.9,1-1.2,1.5-1.5,2.7-.3,1.3-.3,2,.3,3.3.3.8,1.6,2.1,2,2.1.2,0,.5-.2.8-.6,1.7-1.8,2-2.2,2.2-2.1.1,0,.2.7.2,2.1,0,2,0,2,.5,2.2.7.3,2.9.3,4.2,0,1.9-.5,2.8-1,4-2.2,1.3-1.2,1.9-2.9,1.7-3.5,0-.1,0-.2-.1-.4ZM197.9,573.8c0,.1-.4.2-1.4.2-1.7,0-1.7-.2-.9-1.3.9-1.3,1-1.3,1.8,0,.3.5.6,1,.6,1.2Z"/>
  <g>
    <path class="st0" d="M204.2,483.3c0,0-.3.2-.5.7-.4,1.1-.5,2.1-.1,2.2.4.2,1.1,0,1.2-.4.1-.4-.3-2.1-.6-2.5ZM204.2,483.3c0,0-.3.2-.5.7-.4,1.1-.5,2.1-.1,2.2.4.2,1.1,0,1.2-.4.1-.4-.3-2.1-.6-2.5ZM204.2,483.3c0,0-.3.2-.5.7-.4,1.1-.5,2.1-.1,2.2.4.2,1.1,0,1.2-.4.1-.4-.3-2.1-.6-2.5ZM232.6,483.6c-.7-1.7-2.4-2.5-3.6-1.6-1,.7-1.4,1.6-1.5,3,0,1.4.4,2.2,1.4,3.1,2,1.8,4.8-1.6,3.7-4.5ZM232.6,483.6c-.7-1.7-2.4-2.5-3.6-1.6-1,.7-1.4,1.6-1.5,3,0,1.4.4,2.2,1.4,3.1,2,1.8,4.8-1.6,3.7-4.5ZM204.2,483.3c0,0-.3.2-.5.7-.4,1.1-.5,2.1-.1,2.2.4.2,1.1,0,1.2-.4.1-.4-.3-2.1-.6-2.5ZM204.2,483.3c0,0-.3.2-.5.7-.4,1.1-.5,2.1-.1,2.2.4.2,1.1,0,1.2-.4.1-.4-.3-2.1-.6-2.5ZM232.6,483.6c-.7-1.7-2.4-2.5-3.6-1.6-1,.7-1.4,1.6-1.5,3,0,1.4.4,2.2,1.4,3.1,2,1.8,4.8-1.6,3.7-4.5ZM252.2,484.5c-.3-1.2-.6-1.2-1.1,0-.4,1.2-.3,1.7.4,1.7.7,0,.9-.4.6-1.7ZM252.2,484.5c-.3-1.2-.6-1.2-1.1,0-.4,1.2-.3,1.7.4,1.7.7,0,.9-.4.6-1.7ZM232.6,483.6c-.7-1.7-2.4-2.5-3.6-1.6-1,.7-1.4,1.6-1.5,3,0,1.4.4,2.2,1.4,3.1,2,1.8,4.8-1.6,3.7-4.5ZM204.2,483.3c0,0-.3.2-.5.7-.4,1.1-.5,2.1-.1,2.2.4.2,1.1,0,1.2-.4.1-.4-.3-2.1-.6-2.5ZM270.2,476.2c-.1-.2-.2-.4-.4-.6-14.4.2-28.3.2-42.1.2-22.7,0-42.2-.2-42.5-.1-.2,0-.5.4-.7.9-.4.8-.4,1-.2,8.7.1,2.7.2,5.3.4,8,.2.2.4.4.6.6.2.2.4.4.6.6,28.2.1,54.9.1,83.2,0,.2-.2.4-.3.5-.5.2-.2.3-.3.5-.5.1-2.8.3-5.6.4-8.3.2-7.9.1-8.3-.2-8.9ZM197.7,491.2c-.2.5-2,.6-2.5.1-.2-.1-.9-1.5-1.7-3-.7-1.4-1.4-2.7-1.5-2.7-.3,0-.4.8-.3,3.2,0,2,0,2.5-.2,2.6-.5.2-2.1.1-2.3-.2-.4-.4-.7-12.3-.3-12.7.3-.4,2.3-.3,2.8,0,.2.2.9,1.5,1.6,2.9.7,1.4,1.4,2.6,1.6,2.7.3,0,.3-.2.3-2.6,0-1.8,0-2.8.2-3,.3-.4,2-.3,2.2,0,.2.4.4,11.9.2,12.5ZM209.2,491.3c0,.2-.4.3-1.1.3-.3,0-.7,0-1,0-.2-.4-.3-.8-.5-1.3-.3-.7-.6-1.3-.7-1.4-.3-.2-2.3-.2-2.9,0-.3,0-.6.6-.9,1.4-.1.4-.3.8-.4,1.3-.4,0-.8,0-1.2,0-1.3,0-1.5-.3-1.2-1.3.1-.3.3-.9.4-1.3,2-7.9,2.6-10.1,2.8-10.3.3-.4,3.1-.4,3.4,0,.3.5,3.6,12.3,3.5,12.6ZM217.1,491.1c-1.3.8-2.9.8-4.2,0-3.8-2.3-3.9-9.6-.1-12,1.1-.7,3.1-.8,4.3-.1,1,.6,2.3,2.3,2.3,3,0,.6-.2.9-1.3,1.3-.8.3-.8.3-1.5-.5-.9-1-1.5-1.3-2.3-.9-.9.5-1.4,1.6-1.4,3.1,0,1.5.4,2.3,1.3,3,.8.6,1.5.3,2.4-.8.4-.5.8-.9.9-.9.3,0,1.8,1.1,2,1.5.4.8-.8,2.7-2.4,3.6ZM223.7,485.4c0,2.1,0,4.1,0,6.2-.4,0-.7,0-1.1,0-.7,0-1.2,0-1.4-.2-.2-.2-.3-1.4-.3-6.4,0-6.9-.1-6.6,1.6-6.6.7,0,1,.1,1.1.3,0,.2.1,3.1,0,6.6ZM232.5,491c-3.4,2.2-7.2-.7-7.4-5.7,0-1.7.2-2.9,1.3-4.7,1.2-2.1,4-2.8,6.2-1.6,3.9,2.3,3.8,9.5,0,11.9ZM245,491.4c-.2.2-.7.3-1.5.2-.4,0-.8,0-1.2,0-.4-.9-.8-1.7-1.2-2.6-1.9-4.1-2-4.1-2-.5,0,1.8-.1,2.8-.3,2.9-.1.2-.6.3-1.1.3-.5,0-1-.1-1.1-.3-.3-.4-.2-12.2,0-12.6.1-.2.7-.3,1.4-.3,1,0,1.2,0,1.5.5.2.3.8,1.6,1.4,2.8,1.6,3.7,2,3.7,1.8-.2,0-1.7,0-2.5.1-2.8.3-.4,1.9-.5,2.2,0,.4.5.2,12.3-.2,12.7ZM255.3,491.6c-.9,0-1.2-.4-1.5-1.6-.3-1-.7-1.3-2.3-1.3-1.3,0-1.5.1-2.1,1.8-.4.9-.4,1-1.4,1-1.3,0-1.7-.2-1.4-.9.1-.3.3-.9.4-1.3,1.7-6.1,2.9-10.4,3.2-10.7.2-.2.8-.3,1.5-.3.7,0,1.4.1,1.6.3.2.2,1,2.9,1.9,6.4,1.7,6.7,1.6,6.5.2,6.5ZM261.9,491.6c-2.5,0-3.6,0-3.8-.3-.2-.2-.2-1.9,0-6.3,0-4.4.1-6.1.3-6.3.3-.4,2.1-.4,2.4,0,.2.2.2,1.5.2,4.5,0,2.5,0,4.4,0,4.7.2.4.4.5,2.3.4,2.3,0,2.5,0,2.4,1.7,0,1.6,0,1.6-3.9,1.6ZM251.1,484.5c-.4,1.2-.3,1.7.4,1.7.7,0,.9-.4.6-1.7-.3-1.2-.6-1.2-1.1,0ZM229,481.9c-1,.7-1.4,1.6-1.5,3,0,1.4.4,2.2,1.4,3.1,2,1.8,4.8-1.6,3.7-4.5-.7-1.7-2.4-2.5-3.6-1.6ZM203.7,484c-.4,1.1-.5,2.1-.1,2.2.4.2,1.1,0,1.2-.4.1-.4-.3-2.1-.6-2.5,0,0-.3.2-.5.7ZM204.2,483.3c0,0-.3.2-.5.7-.4,1.1-.5,2.1-.1,2.2.4.2,1.1,0,1.2-.4.1-.4-.3-2.1-.6-2.5ZM232.6,483.6c-.7-1.7-2.4-2.5-3.6-1.6-1,.7-1.4,1.6-1.5,3,0,1.4.4,2.2,1.4,3.1,2,1.8,4.8-1.6,3.7-4.5ZM232.6,483.6c-.7-1.7-2.4-2.5-3.6-1.6-1,.7-1.4,1.6-1.5,3,0,1.4.4,2.2,1.4,3.1,2,1.8,4.8-1.6,3.7-4.5ZM204.2,483.3c0,0-.3.2-.5.7-.4,1.1-.5,2.1-.1,2.2.4.2,1.1,0,1.2-.4.1-.4-.3-2.1-.6-2.5ZM204.2,483.3c0,0-.3.2-.5.7-.4,1.1-.5,2.1-.1,2.2.4.2,1.1,0,1.2-.4.1-.4-.3-2.1-.6-2.5ZM204.2,483.3c0,0-.3.2-.5.7-.4,1.1-.5,2.1-.1,2.2.4.2,1.1,0,1.2-.4.1-.4-.3-2.1-.6-2.5ZM204.2,483.3c0,0-.3.2-.5.7-.4,1.1-.5,2.1-.1,2.2.4.2,1.1,0,1.2-.4.1-.4-.3-2.1-.6-2.5ZM204.2,483.3c0,0-.3.2-.5.7-.4,1.1-.5,2.1-.1,2.2.4.2,1.1,0,1.2-.4.1-.4-.3-2.1-.6-2.5Z"/>
    <path class="st0" d="M204.8,485.8c-.1.4-.8.6-1.2.4-.3-.1-.3-1.1.1-2.2.2-.5.4-.8.5-.7.3.4.7,2.2.6,2.5Z"/>
    <path class="st0" d="M229,488.1c-1-.9-1.4-1.7-1.4-3.1,0-1.4.5-2.3,1.5-3,1.2-.9,3,0,3.6,1.6,1.1,2.9-1.6,6.3-3.7,4.5Z"/>
    <path class="st0" d="M251.6,486.2c-.8,0-.9-.5-.4-1.7.5-1.2.8-1.2,1.1,0,.3,1.2.1,1.7-.6,1.7Z"/>
    <path class="st0" d="M204.2,483.3c0,0-.3.2-.5.7-.4,1.1-.5,2.1-.1,2.2.4.2,1.1,0,1.2-.4.1-.4-.3-2.1-.6-2.5ZM232.6,483.6c-.7-1.7-2.4-2.5-3.6-1.6-1,.7-1.4,1.6-1.5,3,0,1.4.4,2.2,1.4,3.1,2,1.8,4.8-1.6,3.7-4.5ZM252.2,484.5c-.3-1.2-.6-1.2-1.1,0-.4,1.2-.3,1.7.4,1.7.7,0,.9-.4.6-1.7Z"/>
  </g>
</svg>