<?xml version="1.0" encoding="UTF-8"?>
<svg xmlns="http://www.w3.org/2000/svg" version="1.1" xmlns:xlink="http://www.w3.org/1999/xlink" viewBox="0 0 400 600">
  <defs>
    <style>
      .cls-1 {
        fill: #36250d;
      }

      .cls-1, .cls-2, .cls-3, .cls-4, .cls-5, .cls-6, .cls-7, .cls-8, .cls-9 {
        fill-rule: evenodd;
      }

      .cls-2 {
        fill: #ff6319;
      }

      .cls-10 {
        fill: url(#linear-gradient-2);
      }

      .cls-3 {
        fill: #432918;
      }

      .cls-11 {
        font-family: LucidaSans-DemiItalic, 'Lucida Sans';
        font-size: 44px;
        font-style: italic;
        font-weight: 300;
        letter-spacing: -.3em;
      }

      .cls-12 {
        fill: #b12b28;
      }

      .cls-13 {
        fill: #9ff2ff;
      }

      .cls-13, .cls-14, .cls-15, .cls-16 {
        stroke: #000;
      }

      .cls-13, .cls-16 {
        stroke-width: 6px;
      }

      .cls-14, .cls-15 {
        stroke-width: 2px;
      }

      .cls-14, .cls-16 {
        fill: #f46e00;
      }

      .cls-4 {
        fill: #613e18;
      }

      .cls-5, .cls-17 {
        stroke: #2e3192;
        stroke-miterlimit: 9.9;
        stroke-width: .3px;
      }

      .cls-5, .cls-9 {
        fill: #002876;
      }

      .cls-6 {
        fill: #fff;
      }

      .cls-7 {
        fill: url(#linear-gradient-3);
      }

      .cls-17 {
        fill: none;
      }

      .cls-15 {
        fill: #000835;
      }

      .cls-8 {
        fill: #634014;
      }

      .cls-18 {
        fill: url(#linear-gradient);
      }
    </style>
    <linearGradient id="linear-gradient" x1="36.9" y1="1378.8" x2="63.6" y2="1378.8" gradientTransform="translate(0 -801.2)" gradientUnits="userSpaceOnUse">
      <stop offset="0" stop-color="#e1be78"/>
      <stop offset="1" stop-color="#e3ab36"/>
    </linearGradient>
    <linearGradient id="linear-gradient-2" x1="34.9" y1="1367.6" x2="63.1" y2="1383.8" gradientTransform="translate(0 -801.2)" gradientUnits="userSpaceOnUse">
      <stop offset="0" stop-color="#e1be78"/>
      <stop offset=".3" stop-color="#fffad1"/>
      <stop offset=".8" stop-color="#c69632"/>
      <stop offset="1" stop-color="#fcdc99"/>
    </linearGradient>
    <linearGradient id="linear-gradient-3" x1="37.9" y1="1364.9" x2="62.6" y2="1364.9" gradientTransform="translate(0 -801.2)" gradientUnits="userSpaceOnUse">
      <stop offset="0" stop-color="#ffe3a8"/>
      <stop offset="1" stop-color="#d2a249"/>
    </linearGradient>
  </defs>
  <!-- Generator: Adobe Illustrator 28.7.4, SVG Export Plug-In . SVG Version: 1.2.0 Build 166)  -->
  <g>
    <g id="_x31_1">
      <g id="Layer_1">
        <g id="suit2">
          <path id="Shirt" class="cls-13" d="M281.2,502.8c5.6,3.7,17.7,7.7,28.6,9.9,0,0,30.8,5.3,37.9,7.7,57.4,22.3,50.4,79.7,50.4,79.7l-395.8-.2s-3.8-63.4,37.2-71.5c7.7-1.5,25.9-8.7,35.6-9.4,0,0,37.4-9,42.8-12.6.9,5.7,11.3-29.5,4-41.3,19,3.1,38.2-.2,68.9,0,42.8.4,77.3,2.9,91.1-.5-8.6,16.4-.8,38.2-.8,38.2Z"/>
          <path class="cls-15" d="M14.6,551.3c6.2-12.1,19.9-20.4,25.5-20.2s110.1,6.3,110.1,6.3l147.1,33.3-51.5-2.7s-192.7-10.2-231.3-16.8Z"/>
          <path id="path" class="cls-14" d="M281.5,502.8c5.6,3.7,17.7,7.7,28.6,9.9,0,0,30.8,5.3,37.9,7.7,9.4,4.2,15.5,5.9,22.8,14.5-6.5,19-7.5,62.4-7.5,62.4,0,0-16.2-.4-37.9,0-65-59.2-313.1-63.5-285.6-68.9s25.9-8.7,35.6-9.4c0,0,37.4-9,42.8-12.6.9,5.7,42.2-41.5,72.9-41.3,42.8.4,90.3,37.7,90.3,37.7Z"/>
          <path id="path-2" data-name="path" class="cls-14" d="M365,566.8c2.2-15.9,2.9-24.3,5.7-32.4-7.3-8.6-13.4-10.3-22.8-14.5-2.7-.9-9.1-2.3-15.7-3.6,0,0,5,48.1,32.9,50.5Z"/>
          <path d="M196,505.5c-12.2,8.6-5.5,91.7-5.5,91.7h1.8s.1-9.8-.4-19-.7-11.8-.9-18.3c-.4-17.8,1.1-36.5,2.7-42.1,3.4-11.8,2.3-12.3,2.3-12.3Z"/>
          <circle cx="200.5" cy="523.5" r="1.2"/>
          <circle cx="199.5" cy="538.7" r="1.2"/>
          <circle cx="198.5" cy="556.7" r="1.2"/>
          <circle cx="199.5" cy="574.6" r="1.2"/>
          <circle cx="200.5" cy="588.7" r="1.2"/>
        </g>
      </g>
      <path id="Shirt-neck" class="cls-16" d="M118,506.4c3.8-10.5,11.4-29.4,4.1-41.2,19,3.1,38.2-.2,68.9,0,42.8.4,77.2,2.7,91-.6-8.6,16.4,3.1,40.7,3.1,40.7l-167.1,1.2Z"/>
      <g>
        <path class="cls-6" d="M51.8,551.5l4,.4.5-6-4-.4-.5,6h0ZM102.7,556.1l4,.4.5-6-4-.4-.5,6h0Z"/>
        <path class="cls-6" d="M105.9,544.8l-62.3-5.7-1,11.5,6.9.6.7-7.2,55.4,5c1.4.1,2.7-.7,2.8-1.9.1-1.2-.9-2.3-2.3-2.4,0,0,0,0,0,0h0ZM98,546.9l-47.7-4.3v-1.4c.1,0,47.8,4.3,47.8,4.3.4,0,.8.4.8.7,0,.4-.4.7-.9.6,0,0,0,0,0,0Z"/>
        <path class="cls-6" d="M68.5,550.8c.8-.2,1.4-.9,1.5-1.7s-.8-2.2-2.6-2.3l-8.2-.7-.5,6,4,.4.2-1.9h1.3c0,.1,1,2.2,1,2.2l4.5.4-1.1-2.3ZM65.2,549.3l-2.3-.2v-1.3c.1,0,2.4.2,2.4.2.4,0,.7.4.7.7s-.4.6-.8.6ZM72.1,553.4l8.8.8v-1.3c.1,0-4.7-.4-4.7-.4v-.9c0,0,4.9.4,4.9.4v-1.5c.1,0-4.7-.4-4.7-.4v-.9c0,0,4.9.4,4.9.4v-1.5c.1,0-8.7-.8-8.7-.8l-.5,6h0ZM88.1,548.7l-4-.4-.5,6,8,.7v-1.3c.1,0-3.9-.4-3.9-.4l.4-4.7ZM97.5,549.6l-4-.4-.5,6,8,.7v-1.3c.1,0-3.9-.4-3.9-.4l.4-4.7Z"/>
      </g>
      <path d="M173.1,467.8c-5.5,3.5-2.4,37.7-2.4,37.7h.8s-.9-27.8.6-32.6,1-5.1,1-5.1Z"/>
      <circle cx="175.9" cy="479.2" r="1.2"/>
      <circle cx="175.9" cy="491.3" r="1.2"/>
      <g id="gulf">
        <g id="g13034">
          <path id="path12502" class="cls-6" d="M112.9,562.4c-6.9,0-12.7,4-15.1,10.1-.4,0-1.4.7-1.9,1.6-1,2.1-1.1,7.3,0,9.2.4,1,1.3,1.5,1.9,1.7,2.4,6.2,8.3,10.2,15.2,10.2,6.9,0,12.7-4,15.2-10.2.6-.2,1.5-.8,1.9-1.7,1-1.9.9-7.1,0-9.2-.4-.9-1.4-1.5-1.9-1.6-2.5-6.1-8.3-10.2-15.1-10.1M112.9,594.4c-6.7,0-12.2-4-14.5-9.9-.4-.2-1.2-.4-1.7-1.3-1.1-1.8-1-7,0-8.9.5-.9,1.2-1.1,1.7-1.3,2.3-5.9,7.8-9.9,14.5-9.9,6.6,0,12.2,4,14.5,9.9.4.1,1.1.4,1.6,1.3,1.1,1.9,1.2,7,0,8.8-.5.9-1.2,1.1-1.6,1.2-2.2,5.9-7.8,10-14.5,10"/>
          <path id="path12506" class="cls-6" d="M112.9,593.6c-6.4,0-11.9-3.9-13.9-9.7-.7-.2-1.1-.3-1.4-.8-1.1-1.7-1.1-6.7,0-8.4.3-.5.7-.6,1.4-.8,2-5.8,7.4-9.8,13.9-9.7,6.4,0,11.9,3.9,13.9,9.7.7.2,1.1.3,1.4.8,1.1,1.7,1.1,6.7,0,8.4-.3.5-.7.6-1.4.8-2,5.8-7.4,9.8-13.9,9.7"/>
          <path id="path12510" class="cls-9" d="M106.6,577v-1.6c-9.2-4-10.9,9.2-2.1,7.1v.3h2.7v-4.5h-3.8v1.5h1.1s0,1.2,0,1.2c-4.8,1.5-3.9-7.2,2.2-4"/>
          <path id="path12514" class="cls-17" d="M106.6,577v-1.6c-9.2-4-10.9,9.2-2.1,7.1v.3h2.7v-4.5h-3.8v1.5h1.1s0,1.2,0,1.2c-4.8,1.5-3.9-7.2,2.2-4h0Z"/>
          <path id="path12518" class="cls-5" d="M109,578.2h2.5v2.4c0,.9,1.9.9,2.1.2v-2.6h2.5v4.5h-2.5v-.3c-3,.9-4.5.1-4.6-1.2v-3Z"/>
          <path id="path12520" class="cls-9" d="M117.7,575.5h2.6v7.2h-2.6v-7.2Z"/>
          <path id="path12524" class="cls-17" d="M117.7,575.5h2.6v7.2h-2.6v-7.2Z"/>
          <path id="path12528" class="cls-9" d="M126.8,577.2v-1.3c-2.3-.9-4-.8-4.1.6v1.7s-1.2,0-1.2,0v1.6s1.2,0,1.2,0v2.9s2.5,0,2.5,0v-2.9s1.2,0,1.2,0v-1.6h-1.2v-1c0-.5.8-.3,1.5,0"/>
          <path id="path12532" class="cls-17" d="M126.8,577.2v-1.3c-2.3-.9-4-.8-4.1.6v1.7s-1.2,0-1.2,0v1.6s1.2,0,1.2,0v2.9s2.5,0,2.5,0v-2.9s1.2,0,1.2,0v-1.6h-1.2v-1c0-.5.8-.3,1.5,0h0Z"/>
          <path id="path12536" class="cls-9" d="M112.9,593.6c-6.4,0-11.9-3.9-13.9-9.7-.7-.2-1.1-.3-1.4-.8-1.1-1.7-1.1-6.7,0-8.4.3-.5.7-.6,1.4-.8,2-5.8,7.4-9.8,13.9-9.7,6.4,0,11.9,3.9,13.9,9.7.7.2,1.1.3,1.4.8,1.1,1.7,1.1,6.7,0,8.4-.3.5-.7.6-1.4.8-2,5.8-7.4,9.8-13.9,9.7M96.7,574.4c.5-.8.8-1,1.7-1.3,2.3-5.9,7.8-9.9,14.5-9.8,6.6,0,12.2,4,14.5,9.8.8.3,1.1.5,1.7,1.3,1.2,2,1.2,6.8,0,8.7-.5.8-.8,1-1.7,1.3-2.3,6-7.8,10-14.5,10-6.6,0-12.2-3.9-14.5-9.9-.8-.3-1.2-.6-1.7-1.4-1-1.8-.9-6.7,0-8.7"/>
          <path id="path12540" class="cls-2" d="M112.8,564.9c5.8,0,10.7,3.6,12.8,8.7-8.5-1.2-17-1.1-25.5,0,2-5.1,7-8.7,12.8-8.7M125.7,583.8c-2,5.3-7,9-12.9,9s-10.9-3.8-12.9-9c8.6,1.2,17.2,1.2,25.8,0"/>
        </g>
      </g>
      <path d="M317.6,562.8l-1.1,2.9h-.1l-1.1-2.9c-.1-.3-.2-.4-.6-.4h-3.1v6.3h2.3v-3.8h.1l1.5,3.5c.1.3.2.4.5.4h.8c.3,0,.4,0,.5-.4l1.5-3.5h.1v3.8h2.4v-6.3h-3.1c-.4,0-.5,0-.6.4M328.9,562.8c-.3-.2-.8-.4-1.6-.4h-2.7c-.8,0-1.3.1-1.6.4-.5.4-.9,1.1-.9,2.8s.4,2.4.9,2.8c.3.2.8.4,1.6.4h2.7c.8,0,1.3-.1,1.6-.4.5-.4.9-1.1.9-2.8s-.4-2.4-.9-2.8M327,567.2c0,0-.2,0-.5,0h-1c-.3,0-.5,0-.5,0,0,0-.2-.2-.2-1.6s.1-1.5.2-1.6c0,0,.2,0,.5,0h1c.3,0,.5,0,.5,0,0,0,.2.2.2,1.6s-.1,1.5-.2,1.6M338.6,568.7h2.5v-6.3h-2.5v6.3ZM337.9,564.3c0-.9-.2-1.2-.5-1.5-.3-.2-.8-.3-1.6-.3h-5.2v6.3h2.5v-2.2h1.2c.5,0,.6,0,.7.1.1,0,.2.2.2.7,0,.5,0,.9,0,1.4h2.6s0-.9,0-1.6c0-.9-.5-1.1-1.3-1.3h0c1-.2,1.4-.5,1.4-1.7M335.1,565.2c0,0-.2,0-.7,0h-1.3v-1.3h1.3c.5,0,.6,0,.7,0,.1,0,.2.2.2.6s0,.5-.2.6M289.3,563c-.5-.4-1.2-.5-2.5-.5h-4.2v6.3h4.2c1.3,0,2-.1,2.5-.5.6-.4.8-1.1.8-2.6s-.3-2.2-.8-2.6M287.3,567.2c-.1.1-.3.1-.9.1h-1.3v-3.4h1.3c.6,0,.8,0,.9.1.1.1.2.4.2,1.6s0,1.5-.2,1.6M297,562.8l-1.1,2.9h0l-1.1-2.9c-.1-.3-.2-.4-.6-.4h-3.1v6.3h2.3v-3.8h.1l1.5,3.5c.1.3.2.4.5.4h.8c.3,0,.4,0,.5-.4l1.5-3.5h.1v3.8h2.4v-6.3h-3.1c-.4,0-.5,0-.6.4M304.9,565.2v1.3h1.7c0,.5-.2.7-.2.7,0,0-.2,0-.5,0h-1.1c-.4,0-.5,0-.5,0-.1,0-.3-.4-.3-1.6s.1-1.5.3-1.6c0,0,.2,0,.5,0h1c.3,0,.5,0,.5,0,0,0,.2.1.2.6h2.4c0-1.1-.3-1.5-.7-1.8-.3-.2-.8-.3-1.7-.3h-2.7c-.8,0-1.3.1-1.6.4-.5.4-.9,1.1-.9,2.8s.4,2.4.9,2.8c.3.2.8.4,1.6.4h2.7c.8,0,1.3-.1,1.6-.4.5-.4.8-.9.8-2.4v-.8h-4.1Z"/>
      <text class="cls-11" transform="translate(258.1 556)"><tspan x="0" y="0">14</tspan></text>
      <g>
        <path class="cls-18" d="M63.6,562.9c-1.4-.6-2.8-1-4.2-1.4-2-.5-4-.8-6.1-1-1,0-1.9-.1-2.9-.1h0c-1,0-1.9,0-2.9.1-2.1.2-4.1.5-6.1,1-1.4.4-2.9.8-4.2,1.4,0,0,0,0,0,0,0,0,.2,10.4.3,15.5,0,1.5.3,3,.8,4.4.6,1.6,1.4,3.2,2.3,4.6,1,1.5,2.2,2.8,3.6,3.9.5.5,1.1.9,1.7,1.3.9.6,1.9,1.1,2.9,1.5.3.1.6.3.9.4.3.1.6.2.8.3.3,0,.6-.2.8-.3.3,0,.6-.2.9-.4,1-.4,2-.9,2.9-1.5.6-.4,1.2-.8,1.7-1.3,1.4-1.1,2.6-2.5,3.6-3.9,1-1.4,1.7-3,2.3-4.6.5-1.4.8-2.9.8-4.4.1-5.1.3-15.5.3-15.5,0,0,0,0,0,0Z"/>
        <path class="cls-12" d="M50,589.2h-7.6c.6.6,1.2,1.2,1.8,1.7.5.4,1.1.8,1.6,1.2.9.6,1.8,1,2.8,1.4.3.1.6.3.9.4.2,0,.3.1.5.2v-4.9h0ZM50,583.6c-1.1,0-2.2-.6-3.1-1.3,0,0-.1,0-.2-.1h-8.4c0,.2.1.4.2.5.3.9.7,1.8,1.1,2.6h10.3v-1.7ZM62.9,574.9h-7.4v3.2h7.3c0-1,0-2.1,0-3.2h0ZM63.1,568.1h-12.6v3.1h12.6c0-1.1,0-2.2,0-3.1h0Z"/>
        <g id="schatten">
          <path class="cls-4" d="M62.9,581.5h0s0,0,0,0h0Z"/>
          <path class="cls-4" d="M60.2,587.4c-1,1.5-2.2,2.8-3.6,3.9-.5.5-1.1.9-1.7,1.3-.9.6-1.9,1.1-2.9,1.5-.3.1-.6.3-.9.4-.3.1-.6.2-.8.3-.3,0-.6-.2-.8-.3-.3,0-.6-.2-.9-.4-1-.4-2-.9-2.9-1.5-.6-.4-1.2-.8-1.7-1.3-1.1-.9-2.2-2-3.1-3.2h0c.9,1.3,1.9,2.4,3.1,3.4.6.5,1.1.9,1.7,1.3.9.6,1.8,1,2.8,1.5.3.1.6.3.9.4.3.1.6.2.8.3.3,0,.6-.2.8-.3.3,0,.6-.2.9-.4,1-.4,2-.9,2.9-1.5.6-.4,1.2-.8,1.7-1.3,1.4-1.1,2.6-2.5,3.6-3.9,1-1.4,1.7-3,2.3-4.6.2-.5.3-1,.4-1.4-.2.6-.4,1.3-.4,1.3-.6,1.6-1.4,3.2-2.3,4.6Z"/>
          <path class="cls-4" d="M63.1,563.3h0c-1.3-.6-2.7-1-4.1-1.4-1.9-.5-3.9-.8-5.8-1-1,0-1.8-.1-2.8-.1h0c-1,0-1.8,0-2.8.1-2,.2-3.9.5-5.8,1-1.4.4-2.7.8-4.1,1.3h0v.2s0,0,0,0h0c1.3-.6,2.7-1,4.1-1.4,1.9-.5,3.9-.8,5.8-1,1,0,1.8-.1,2.8-.1h0c1,0,1.8,0,2.8.1,2,.2,3.9.5,5.8,1,1.4.4,2.8.8,4.1,1.3h0s0,0,0,0v-.2s0,0,0,0Z"/>
          <path class="cls-4" d="M47.4,564.9c.9,0,1.7-.1,2.5-.1v-.2c-.9,0-1.7,0-2.5.1-2,.2-3.9.5-5.8,1-1.4.4-2.8.8-4.1,1.4h0v.2h0c1.3-.5,2.7-1,4.1-1.3,1.9-.5,3.9-.8,5.8-1Z"/>
          <path class="cls-8" d="M55.5,578.6h7.3c0,0,0-.1,0-.2h-7.3v.2Z"/>
          <path class="cls-3" d="M59.4,584.2h0c0,.1,0,.1,0,.1-.3,0-.6.2-.8.4h0s0,0,0,0h0c0,0,0-.1,0-.2.2-.2.5-.3.8-.4,0,0,0,0,0,0ZM57.9,583.4c-.2,0-.5.2-.6.4-.1.1-.2.3-.3.5,0,0,0,0,0,0,0-.1.2-.3.3-.4.2-.2.4-.3.6-.4,0,0,0,0,0,0h0c0,0,0,0,0,0h0ZM56.4,583c-.3.2-.6.5-.8.8,0,.2-.1.4-.2.6,0,0,0,0,0,0h0c0-.2,0-.4.1-.5.2-.3.4-.6.8-.8,0,0,0-.2,0-.2,0,0,0,0,0,0h0ZM54.4,583.4c-.1.1-.2.2-.3.4-.2.3-.3.7-.2,1,0-.3,0-.6.2-.9,0-.1.2-.3.3-.4,0,0,0-.1,0-.2h0s0,0,0,0h0ZM51.1,586.1s0,0,0,0c0,0,0,0,0,0-.1-.1-.2-.3-.2-.4h0c0,.2,0,.4.2.5,0,0,0,0,0,0h0ZM57.9,579.6c-.2,0-.4.2-.5.4-.2.2-.2.3-.3.5,0,0,0,0,0,0h0c0-.2.2-.3.3-.5.1-.2.3-.3.5-.4,0,0,0,0,0-.2h0s0,0,0,0h0ZM59.9,579.9c-.3,0-.5.2-.7.3-.2.1-.3.3-.4.5,0,0,0,0,0,0,.1-.2.2-.3.4-.4.2-.2.4-.3.7-.3,0,0,0,0,0,0h0c0,0,0,0,0,0h0ZM61.4,580.9s0,0,0,0c-.3,0-.6.1-.8.3,0,0-.1,0-.2.1,0,0,0,0,0,0h0s0,0,.1,0c.2-.2.5-.3.8-.3,0,0,0,0,0-.2h0ZM52.5,583.5h0c0,.2-.1.3-.3.3-.2,0-.4,0-.5,0-.1.1-.3.2-.4.2-.1,0-.2-.1-.3-.2,0,0,0-.1,0-.1h0c-.2,0-.3,0-.4,0h0c.2.1.3.1.5.1h0c0,0,0,0,0,.1,0,.1.2.2.3.2.2,0,.3,0,.4-.2.2.1.4.2.6,0,.1,0,.2-.2.2-.3,0,0,0,0,0-.2h0ZM52.9,587.4c-.2.1-.4.1-.6,0,0,0-.2-.1-.2-.2,0,0,0,0,0,0-.1.1-.3.2-.5.2-.2,0-.4-.1-.5-.3,0-.1-.1-.3-.1-.4h0c0,.2,0,.4.2.5,0,.2.3.3.5.3.2,0,.4,0,.5-.2,0,0,0,0,0,0,0,0,.1.2.2.2.2.1.4.1.6,0,.2-.1.3-.4.3-.6,0,.2-.2.4-.3.5ZM57.5,588.3c-.2,0-.3.1-.4.2-.2.1-.3.3-.4.6,0,0,0,0,0,0h0c0-.2.2-.3.4-.5.1,0,.3-.2.4-.2,0,0,0,0,0-.1s0,0,0,0h0ZM56.5,587.7s0,0,0,0c-.4.1-.8.4-1,.8h0s0,0,0,0c.2-.4.6-.6,1-.7,0,0,0,0,0-.1h0ZM54.6,587.5c-.2.2-.3.4-.5.6,0,.2-.1.4,0,.6,0,0,0,0,0,0h0c0-.2,0-.3,0-.5.1-.2.3-.4.4-.6,0,0,0-.1,0-.2,0,0,0,0,0,0h0ZM53,588.2c-.2.2-.3.5-.2.8h0c0-.2,0-.5.2-.7,0,0,0,0,0-.2,0,0,0,0,0,0ZM52.2,589.8h0s0,0,0,0c0-.1-.1-.2-.1-.4,0-.1,0-.2,0-.3h0c0,.1,0,.3,0,.4,0,.1,0,.2.1.3h0ZM53,591.3c-.1.1-.3.2-.5,0-.2,0-.3-.2-.4-.3,0,0,0,0,0,0,0,.2-.3.4-.5.4-.2,0-.3,0-.4-.1,0,0-.2-.2-.2-.3h0c0,.4,0,.4.2.5.1,0,.3.1.4.1.2,0,.4-.2.5-.4,0,0,0,0,0,0,0,.1.2.2.4.3.2,0,.3,0,.5,0,.1-.1.2-.3.2-.5,0,.2,0,.3-.2.4h0ZM51.3,590.6h0c0,0,0,0,0,0-.2,0-.3-.2-.4-.5h0c0,.2.1.4.3.5h0ZM38.2,569.7h0s0,0,0,0h0c0,0,0-.2,0-.2h0c0,.1,0,.2,0,.3h0ZM38.6,576.7h0s0,0,0,0c0,0,0-.1-.1-.2,0,0,0-.1,0-.2h0c0,0,0,.2,0,.3,0,0,0,.1,0,.2h0ZM40.5,577.3h0c0,.2-.1.3-.2.4-.2,0-.3.1-.5,0-.1,0-.2-.1-.3-.2,0,0,0,0-.1,0-.1,0-.2.1-.3.2-.2.1-.5,0-.6-.2,0,0-.1-.2-.1-.3h0c0,.2,0,.3.1.5.1.2.4.3.6.2.1,0,.2-.1.3-.2,0,0,0,0,0,0,0,0,.2.2.3.2.2,0,.4,0,.5,0,.2,0,.3-.3.2-.5h0ZM40,573.8c0,.2,0,.3-.2.4-.2.2-.6,0-.7-.2h0s0,0-.1,0c-.2.1-.3.2-.5.2-.2,0-.4-.1-.4-.3,0,0,0-.1,0-.2,0,0,0,.2,0,.3,0,.2.2.3.4.3.2,0,.4,0,.5-.2,0,0,0,0,0,0,.1.3.5.4.7.2.2-.1.3-.2.3-.6h0ZM38.3,573.2s0,0,0,0c0,0,0,0,0,0,0,0-.1-.2-.1-.3,0,.1,0,.3.1.4h0ZM41,574c-.2.2-.3.4-.4.7,0,.2,0,.4,0,.6,0-.2,0-.3,0-.4,0-.3.2-.5.4-.7,0,0,0,0,0,0h0c0-.1,0,0,0,0h0ZM42.7,573.5c-.5.3-.8.9-.7,1.5h0c0-.5.2-1,.7-1.3,0,0,0-.1,0-.2h0s0,0,0,0h0ZM43.5,574.5s0,0,0,0h0c.2-.5.5-.9,1-1.2,0,0,0,0,0,0h0c0,0,0,0,0,0-.5.3-.8.8-1,1.3h0ZM41.1,570.7c-.1,0-.3.2-.3.3-.2.3-.3.6-.2,1,0,0,0,0,0,0h0c0-.3,0-.6.2-.9,0-.1.2-.2.3-.3h0v-.2s0,0,0,0h0ZM42.9,570.2c-.2,0-.4.2-.5.4-.2.2-.3.5-.3.7,0,0,0,0,0,0,0-.2.2-.5.3-.7.1-.2.3-.3.5-.4,0,0,0,0,0-.1h0c0,0,0,0,0,0h0ZM45,570.2c-.3,0-.5.1-.7.2-.2.2-.4.4-.5.7,0,0,0,0,0,0,0-.2.2-.5.5-.6.2-.2.5-.2.7-.3,0,0,0,0,0,0h0c0,0,0,0,0,0h0ZM45.9,571.2h0c.2-.2.5-.3.8-.4,0,0,0,0,0,0h0c0,0,0,0,0,0-.4,0-.7.2-1,.4,0,0,0,0,0,0h.1ZM41.6,566.8c-.3.2-.5.4-.7.7-.2.3-.2.6-.2.9,0,0,0,0,0,0,0-.3.1-.6.2-.8.2-.3.4-.5.7-.7,0,0,0-.1,0-.2h0s0,0,0,0ZM43.9,566.3s0,0,0,0c-.2.2-.5.3-.7.6-.2.2-.3.5-.4.9,0,0,0,0,0,0h0c0-.3.2-.5.4-.7.2-.2.4-.4.7-.6,0,0,0,0,0,0h0ZM46.3,566.2c-.4.1-.7.3-1,.5-.2.2-.3.5-.4.7,0,0,0,0,0,0,0-.2.2-.4.3-.6.3-.2.6-.4,1-.6,0,0,0,0,0,0v-.2h0s0,0,0,0h0ZM48.3,567.1c-.3,0-.6,0-.9,0-.2,0-.3.2-.5.3,0,0,0,0,0,0h0c.1,0,.2-.2.4-.2.3,0,.6,0,.9,0s0,0,0,0v-.2s0,0,0,0h0ZM40,570.3c0,.2-.1.2-.3.3-.2,0-.3.1-.5,0-.1,0-.2-.1-.3-.2,0,0,0,0,0,0-.1,0-.2.1-.4.2-.2,0-.5,0-.6-.2,0,0,0,0,0,0h0s0,0,0,0h0s0,0,0,0h0c0,0,0,0,0,0,0,.1,0,.3,0,.4.2.2.4.3.6.2.1,0,.2-.1.3-.2h0c0,0,.2.2.3.2.2,0,.4,0,.5,0,0,0,.2-.1.2-.2,0,0,0-.2,0-.3,0,0,0,0,0,0h0ZM48.2,569s0,0,0,0c0,0,0,0,0,0-.6-.5-1.3-.8-2.1-.8-2.1,0-4.1.6-6,1.5,0,0,0,0,0,0,0,0,0,0,0,0,1.8-1,3.9-1.5,6-1.5.8,0,1.5.3,2.1.8,0,0,0,0,0,0,0,0,0,0,0,0,0-.1,0-.2,0-.4,0,0,0,.2,0,.2h0ZM45.1,572.3c-.2,0-.4-.1-.6-.2-1.6,0-3.1.5-4.5,1.3,0,0,0,0,0,0,0,0,0,0,0,.1,0,0,0,0,0,0,1.4-.8,2.9-1.2,4.5-1.3.2,0,.4,0,.6.1,0,0,0,0,0,0v-.2h0ZM45.1,575.4h0s0,0,0,0c-.8,0-1.6,0-2.4.3-.8.2-1.6.6-2.4,1,0,0,0,0,0,0,0,0,0,0,0,0,.7-.4,1.5-.8,2.4-1,.8-.2,1.6-.3,2.4-.3h0v-.2ZM53.4,582.5c-.3.2-.7.4-1.1.6h0c.4,0,.7-.2,1-.5h0c.5-.2,2.7-.9,4-.9.8,0,1.6.2,2.3.6.4.2.7.5,1,.8,0,0,0,0,0,0s0,0,0,0c0-.2.1-.5.1-.7,0,.2,0,.4-.1.6,0,0,0,0,0,0,0,0,0,0,0,0-.3-.3-.6-.6-1-.8-.7-.4-1.5-.6-2.3-.6-1.3,0-3.4.8-4,.9,0,0,0,0,0,0h0ZM59,586.4c0,0-.1,0-.2,0-.2-.2-.4-.4-.6-.6-.3-.2-.6-.4-.9-.4-.5,0-1-.1-1.5,0-1,.1-1.9.5-2.8,1,0,0,0,0,0,0,0,0,0,0,0,0,.9-.5,1.8-.8,2.8-1,.5,0,1,0,1.5,0,.3,0,.6.2.9.4.2.2.4.4.6.6,0,0,.1,0,.2,0,0-.1,0-.2,0-.4h0c0,0,0,.2,0,.2h0ZM56.9,590.1s0,0,0,0c-.1-.2-.3-.3-.5-.4-.5-.2-1-.3-1.5-.2-.7.1-1.4.4-2,.9,0,0,0,0,0,0h0c.6-.4,1.3-.7,2-.8.5,0,1,0,1.5.2.2.1.3.2.5.4,0,0,0,0,0,0,.1-.1.2-.3.2-.4,0,.1,0,.3-.2.3h0Z"/>
          <path class="cls-1" d="M63.1,566.6c0-1.9,0-3.3,0-3.3,0,0,0,0,0,0s0,.1,0,.2c0,0,0,1.3,0,3.1h0Z"/>
        </g>
        <path class="cls-10" d="M54.9,581.1h.1s.7-.2.7-.2c0,0,0,0,0,0,0-.4.2-.7.4-1,.2-.2.4-.4.7-.5.4-.1.8-.1,1.1,0,0,0,0,0,0,.1h0c-.2.1-.4.3-.5.4-.2.2-.3.3-.3.5,0,0,0,0,0,0,0,0,.4,0,.5,0,0,0,0,0,0,0,.1-.4.3-.7.6-1,.3-.2.7-.3,1.1-.2.2,0,.4.2.5.4,0,0,0,0,0,0-.3,0-.5.2-.7.3-.2.1-.3.3-.4.5,0,0,0,0,0,0,.2,0,.4,0,.5.2,0,0,0,0,0,0,.2-.3.5-.5.9-.6.5,0,1,.2,1.1.5,0,0,0,.1,0,.1-.3,0-.6.1-.8.3,0,0-.1,0-.2.1,0,0,0,0,0,0,.1.1.5.4.6.8,0,.2,0,.5-.1.7,0,0,0,0,0,0,0,0,0,0,0,0-.3-.3-.6-.6-1-.8-.7-.4-1.5-.6-2.3-.6-1.3,0-3.5.8-4,.9h0s.2-.3,1.4-1.4ZM58.3,583.8c-.3.1-.5.3-.6.6,0,0,0,0,0,0-.1,0-.3,0-.5,0,0,0,0,0,0,0,0-.2.2-.3.3-.5.2-.2.4-.4.6-.5,0,0,0,0,0,0h0c-.2-.2-.4-.3-.7-.3-.3,0-.6.1-.9.3-.3.3-.4.7-.5,1.1,0,0,0,0,0,0-.1,0-.3,0-.4,0,0,0,0,0,0,0,0-.2,0-.4.2-.6.2-.3.5-.6.8-.8,0,0,0-.1,0-.1-.4-.2-.9-.1-1.2.1-.2.1-.4.3-.6.6-.1.4-.2.7-.2,1.1,0,0,0,0,0,0-.2,0-.3,0-.5.1,0,0,0,0,0,0,0-.4,0-.7.2-1,0-.1.2-.3.3-.4,0,0,0,0,0,0s0,0,0,0c-.3,0-.6,0-.9.2-.4.2-.6.6-.6,1,0,.3,0,.6,0,.9,0,0,0,0,0,0-.1,0-.4.2-.5.3,0,0,0,0,0,0,0-.2-.2-.4-.4-.5-.2,0-.4,0-.6,0-.1,0-.2.2-.3.3,0,.2,0,.5.2.6,0,0,0,0,0,0-.1,0-.1,0-.2.2,0,.2,0,.5,0,.6.1.2.3.3.5.3.2,0,.4,0,.5-.2,0,0,0,0,0,0,0,0,.1.2.2.2.2.1.4.1.6,0,.2-.1.3-.4.3-.6,0-.1,0-.3-.2-.4,0,0,0,0,0,0,.9-.5,1.8-.8,2.8-1,.5,0,1,0,1.5,0,.3,0,.6.2.9.4.2.2.4.4.6.6,0,0,.1,0,.2,0,.1-.2.1-.5,0-.7-.1-.3-.3-.6-.6-.8h0c0,0,0,0,0-.1.2-.2.5-.4.8-.4,0,0,0,0,0,0-.2-.4-.7-.6-1.1-.4h0ZM63.7,562.9s-.2,10.3-.3,15.5c0,1.5-.3,3-.8,4.4-.6,1.6-1.4,3.2-2.3,4.6-1,1.5-2.2,2.8-3.6,3.9-.5.5-1.1.9-1.7,1.3-.9.6-1.9,1.1-2.9,1.5-.3.1-.6.3-.9.4-.3.1-.6.2-.8.3-.3,0-.6-.2-.8-.3-.3,0-.6-.2-.9-.4-1-.4-2-.9-2.9-1.5-.6-.4-1.2-.8-1.7-1.3-1.4-1.1-2.6-2.5-3.6-3.9-1-1.4-1.7-3-2.3-4.6-.5-1.4-.8-2.9-.8-4.4-.2-5.1-.3-15.5-.3-15.5,0,0,0,0,0,0,1.4-.6,2.8-1,4.2-1.4,2-.5,4-.8,6.1-1,1,0,1.9-.1,2.9-.1h0c1,0,1.9,0,2.9.1,2,.2,4.1.5,6.1,1,1.4.4,2.9.8,4.2,1.4,0,0,0,0,0,0ZM38.2,581.8h8.1c-.8-.8-1.2-1.9-1.2-3h0c0-.1-7.4-.1-7.4-.1,0,1,.2,2.1.5,3.1ZM50,589.2h-7.6c.6.6,1.2,1.2,1.8,1.7.5.4,1.1.8,1.6,1.2.9.6,1.8,1,2.8,1.4.3.1.6.3.9.4.2,0,.3.1.5.2v-4.9h0ZM50,585.7h-10.1c.3.5.6,1,.9,1.4.4.6.8,1.2,1.3,1.7h7.9v-3.1ZM50,583.6c-1.1,0-2.2-.6-3.1-1.3,0,0-.1,0-.2-.1h-8.4c0,.2.1.4.2.5.3.9.7,1.8,1.1,2.6h10.3s0-1.7,0-1.7ZM50,564.6c-.9,0-1.7,0-2.5.1-2,.2-3.9.5-5.8.9-1.4.4-2.8.8-4.1,1.3,0,0,0,0,0,0,0,3.3.2,8.1.2,11.2h7.4v-2.8h0c-.8,0-1.6,0-2.4.3-.8.2-1.6.6-2.4,1,0,0,0,0,0,0,0,.1.2.2.2.4,0,.2,0,.4-.2.5-.2,0-.3.1-.5,0-.1,0-.2-.1-.3-.2,0,0,0,0,0,0-.1,0-.2.1-.3.2-.2.1-.5,0-.6-.2-.1-.2-.1-.5,0-.7,0,0,.2-.1.3-.2,0,0,0,0,0,0,0,0,0-.1-.1-.2,0-.2,0-.5.2-.6.2-.1.4-.2.6,0,.1,0,.2.2.3.3,0,0,0,0,0,0h.2c0-.1,0-.2,0-.2-.2-.6-.3-1,0-1.4.1-.3.4-.5.7-.5.2,0,.4,0,.5,0,0,0,0,0,0,0-.2.2-.3.4-.4.7,0,.2,0,.5,0,.7,0,0,0,0,0,0,0,0,.3-.1.5-.2,0,0,0,0,0,0,0-.4,0-.8,0-1.1.2-.5.8-.8,1.3-.8,0,0,.2,0,.2.2-.5.3-.8.9-.7,1.5,0,0,0,0,0,0,.2,0,.4-.1.6-.2,0,0,0,0,0,0,0-.5.2-.9.4-1.3.3-.4.8-.6,1.3-.5,0,0,.2,0,.2.1,0,0,0,0,0,0-.5.3-.8.8-1,1.3,0,0,0,0,0,0,.3,0,.6,0,.8,0,0,0,0,0,0,0,.1-.3.3-.6.6-.8,0,0,0,0,0,0v-1.3s0,0,0,0c-.2,0-.4-.1-.6-.2-1.6,0-3.1.5-4.5,1.2,0,0,0,0,0,0,.2.4,0,.6-.2.8-.3.2-.6,0-.8-.2h0s0,0,0,0c-.2.1-.3.2-.5.2-.2,0-.4-.1-.4-.3-.1-.3,0-.7.4-.8h0s0,0,0,0c-.2-.2-.2-.6,0-.7,0,0,0,0,0,0,.3-.2.6,0,.8.2,0,0,0,0,0,.1,0,0,0,0,0,0,0,0,.2,0,.3,0,0,0,0-.1,0-.2,0-.7,0-1.1.4-1.6.2-.2.9-.3,1-.1,0,0,0,0,0,0-.2,0-.3.2-.3.3-.2.3-.3.6-.2,1,0,0,0,0,0,0,.2,0,.4-.1.6-.2,0,0,0,0,0,0,0-.5.1-.9.4-1.3.3-.3,1-.7,1.4-.3,0,0,0,0,0,0-.2,0-.4.2-.5.4-.2.2-.3.5-.3.7,0,0,0,0,0,0,.2,0,.5,0,.6-.1,0,0,0,0,0-.1,0-.7.6-1.3,1.4-1.4.2,0,.5,0,.7.1,0,0,.1,0,.2.1,0,0,0,0,0,0h0c-.3,0-.5.1-.7.3-.2.2-.4.4-.5.7,0,0,0,0,0,0,.2,0,.5,0,.7,0,0,0,0,0,0,0,.2-.4.5-.7.9-.9.5-.2,1,0,1.3.3,0,0,0,0,0,0-.4,0-.7.2-1,.4,0,0,0,0,0,0h4.2v-6.6ZM53.4,582.6h0c-.3.2-.7.4-1.1.6h0c0,.2,0,.3,0,.4,0,.2-.1.3-.2.3-.2,0-.4,0-.6,0-.1.1-.3.2-.4.2-.1,0-.2-.1-.3-.2,0,0,0-.1,0-.1-.2,0-.3,0-.5,0v10.6h0c.2,0,.4-.1.7-.2.2,0,.5-.2.9-.4,1-.4,1.9-.9,2.8-1.4.6-.4,1.1-.8,1.6-1.2,1.3-1.1,2.5-2.4,3.4-3.8.9-1.4,1.7-2.9,2.2-4.5.5-1.3.7-2.7.8-4.2h-7.3v.2c0,1.5-.8,2.9-2.1,3.8h0ZM62.9,574.9h-7.4v3.2h7.3c0-1,0-2.1,0-3.2h0ZM63,571.7h-7.5v2.8h7.4c0-.9,0-1.8,0-2.8h0ZM63.1,568.1h-12.6v3.1h12.6c0-1.1,0-2.2,0-3.1h0ZM63.1,567s0,0,0,0c-1.3-.5-2.7-1-4.1-1.3-1.9-.5-3.9-.8-5.8-1-.9,0-1.8-.1-2.7-.1v3.1h12.6c0-.2,0-.4,0-.6h0ZM63.2,563.4s0,0,0,0c-1.3-.5-2.7-1-4.1-1.3-1.9-.5-3.9-.8-5.8-1-1,0-1.8-.1-2.8-.1h0c-1,0-1.8,0-2.8.1-2,.2-3.9.5-5.8,1-1.4.4-2.8.8-4.1,1.3h0s0,1.4,0,3.3c0,0,0,0,0,0,1.3-.5,2.7-1,4.1-1.3,1.9-.5,3.9-.8,5.8-1,1,0,1.8-.1,2.8-.2h0c1,0,1.8,0,2.8.2,2,.2,3.9.5,5.8,1,1.4.4,2.8.8,4.1,1.3,0,0,0,0,0,0,0-1.9,0-3.3,0-3.3h0ZM56.3,588.1c-.2.2-.4.3-.5.6,0,0,0,0,0,0h-.3c.2-.5.6-.8,1-1,0,0,0,0,0,0-.2-.4-1-.3-1.3-.1-.4.2-.6.6-.7,1,0,0,0,0,0,0-.1,0-.2,0-.3,0,0,0,0,0,0,0,0-.2,0-.4,0-.6.1-.2.3-.4.5-.6s0,0,0,0h0c-.2-.1-.5-.1-.7,0-.3.2-.6.5-.7.8,0,.3,0,.6,0,.8,0,0,0,0,0,0-.1,0-.2,0-.3.1,0,0,0,0,0,0-.2-.3-.1-.8.1-1,0,0,0,0,0,0-.3,0-.6,0-.8.3-.2.3-.3.6-.2.9,0,.1,0,.3.1.4,0,0,0,0,0,0,0,0-.1.1-.2.2,0,0,0,0,0,0,0-.2-.2-.3-.4-.3-.2,0-.3,0-.5.1-.2.2-.2.5,0,.7,0,0,.1.1.2.1,0,0,0,0,0,0-.1,0-.2.2-.3.3,0,.2,0,.4.1.6.1,0,.3.2.4.1.2,0,.4-.2.5-.4,0,0,0,0,0,0,0,.1.2.2.4.3.2,0,.3,0,.5,0,.2-.1.2-.4.2-.6,0-.1-.2-.2-.3-.3,0,0,0,0,0,0,.6-.5,1.3-.8,2-.9.5,0,1,0,1.5.2.2.1.3.2.5.4,0,0,0,0,0,0,.2-.2.2-.6,0-.8,0,0-.2-.2-.3-.2,0,0,0,0,0,0,0-.2.2-.4.4-.6.1,0,.3-.2.4-.2,0,0,0,0,0,0-.2-.4-.9-.4-1.3-.2ZM47.6,566.5c.3,0,.6.2.8.6,0,0,0,0,0,0-.3,0-.6,0-.9,0-.2,0-.3.2-.5.3s0,0,0,0h0c.3,0,.6.2.9.5.3.2.4.6.3,1,0,0,0,0,0,0,0,0,0,0,0,0-.3-.3-.6-.5-1-.6-.3-.1-.7-.2-1-.2-2.1,0-4.1.6-6,1.5,0,0,0,0,0,0,0,.1.2.3.1.4,0,.2-.1.2-.3.3-.2.2-.6.2-.8,0t0,0s0,0,0,0c-.1,0-.2.1-.4.2-.2,0-.5,0-.6-.2-.2-.3,0-.7.3-.8h0s0,0,0,0h0c-.1-.2,0-.6.2-.7.2-.1.7-.2.9.2,0,0,0,0,0,0h0c.1,0,.2,0,.3-.1,0,0,0,0,0-.1-.1-.6,0-1.1.3-1.6.5-.5,1-.8,1.6-.5,0,0,0,0,0,0-.2.2-.6.4-.7.7-.2.3-.3.6-.2.9,0,0,0,0,0,0,.3,0,.7-.2,1-.3,0,0,0,0,0,0,0-.2,0-.4,0-.6,0-.6.5-1,1-1.2.4-.2.8-.2,1.1,0,0,0,0,0,0,0-.2.2-.5.4-.7.6-.2.2-.3.5-.4.8,0,0,0,0,0,0,.3,0,.6-.1,1-.2,0,0,0,0,0,0,0-.3.3-1.1.7-1.4.4-.3,1-.4,1.5-.3.1,0,.2.1.3.2,0,0,0,0,0,0-.4.1-.7.3-1,.6-.2.2-.3.5-.4.7,0,0,0,0,0,0,.3,0,.6,0,.9,0,0,0,0,0,0,0,.1-.3.4-.6.7-.8.3-.1.6-.2,1-.2Z"/>
        <path class="cls-7" d="M59.4,562.4c1,.3,2.1.6,3.1,1,0,0,0,0,0,0,0,.2,0,.2,0,.5s0,0,0,0c-.6-.2-1.5-.5-2.3-.7,0,0,0,0,0,0v.3s0,0,0,0c.8.2,1.6.5,2.3.7,0,0,0,0,0,0,0,.2,0,.4,0,.7,0,0,0,0,0,0-.7-.3-1.6-.5-2.4-.8,0,0,0,0,0,0v.3s0,0,0,0c.8.2,1.6.5,2.4.8,0,0,0,0,0,0,0,.2,0,.4,0,.6s0,0,0,0c-1-.4-2-.7-3.1-1,0,0,0,0,0,0,0-.9,0-1.7,0-2.5,0,0,0,0,0,0h0ZM55.8,564.3c.2,0,.5,0,.6.1,0,0,0,0,0,0v-.9s0,0,0,0c.5,0,1,.2,1.6.3,0,0,0,0,0,0,0,.3,0,.6,0,.9s0,0,0,0c.2,0,.4,0,.6.1,0,0,0,0,0,0,0-.6,0-1.7,0-2.5,0,0,0,0,0,0-.2,0-.4,0-.6-.2,0,0,0,0,0,0,0,.3,0,.6,0,.9t0,0c-.5-.1-1.1-.2-1.6-.3,0,0,0,0,0,0v-.9s0,0,0,0c-.2,0-.4,0-.6,0h0s0,0,0,0c0,.4,0,2.1,0,2.5h0ZM53.1,561.4c-.3,0-.5.2-.6.5v1.7c0,.2.1.4.3.4.9,0,1.7.2,2.7.3,0,0,0,0,0,0v-.6s0,0,0,0c-.6,0-1.5-.2-2.3-.3,0,0,0,0,0,0v-1.2c0,0,0,0,.1,0,.8,0,1.5.2,2.3.3,0,0,0,0,0,0v-.6s0,0,0,0c-.8-.1-1.5-.2-2.5-.3h0ZM52,561.3h0c-.8,0-1.7,0-2.6,0-.2,0-.4.2-.4.3v.9c0,.2.2.3.4.3.7,0,1.2,0,1.9,0,0,0,0,0,0,0v.2s0,0,0,0h0c-.7,0-1.5,0-2.3,0,0,0,0,0,0,0v.6s0,0,0,0c.9,0,1.8,0,2.7,0,.2,0,.4-.2.4-.4v-.9c0-.2-.2-.3-.4-.3-.6,0-1.4,0-2,0,0,0,0,0,0,0v-.2s0,0,0,0c.6,0,1.6,0,2.2,0,0,0,0,0,0,0v-.5s0,0-.1,0M48.2,562.9c.2,0,.3-.2.3-.4,0-.3,0-.5,0-.8,0-.2-.2-.3-.4-.4-.6,0-1.9.2-2.7.3v2.6h0s.7,0,.7,0c0,0,0,0,0,0h0v-.7l1.4-.2c.1,0,.3,0,.4.2,0,.2.1.3.2.5h.7c0,0,0,0,0,0,0-.3-.2-.7-.4-.9h0ZM47.7,562.4c0,.1,0,.2-.2.2l-1.5.2h0v-.6h0l1.6-.2c0,0,.1,0,.1,0h0v.3ZM45.3,561.6h0ZM44.9,562.1c0-.1,0-.2-.2-.3,0,0-.2-.1-.3-.1-.8.1-1.6.3-2.3.5-.1,0-.2.1-.3.2,0,0-.1.2-.2.3v1.6c0,.1,0,.3.2.4,0,0,.2.2.3.2.8-.2,1.6-.3,2.3-.5.2,0,.3-.1.4-.2,0,0,.1-.2.1-.3v-1.7ZM44.1,563.6c0,0,0,.1,0,.2,0,0-.1,0-.2,0-.4,0-1,.2-1.4.3,0,0,0,0-.1,0,0,0,0,0,0-.1v-1c0,0,0,0,0-.1,0,0,.1,0,.2,0,.4,0,1-.2,1.4-.2,0,0,.1,0,.2,0,0,0,0,0,0,.2v1ZM41.3,562.9c0-.1,0-.2-.2-.3-.1,0-.3-.1-.4,0-.9.2-1.9.6-2.8.9,0,0,0,0,0,0v2.6s.7-.2.8-.3c0,0,0,0,0,0v-.7s0,0,0,0l2.3-.7c0,0,.2,0,.2-.1,0,0,0-.1,0-.2v-1ZM40.6,563.7c0,0,0,.1-.2.2l-1.7.6s0,0,0,0v-.5s0,0,0,0c.6-.2,1.1-.4,1.7-.6,0,0,0,0,.1,0,0,.1,0,.2,0,.4h0Z"/>
        <path class="cls-3" d="M38.8,563.9s0,0,0,0h0c0-.2,0-.2,0-.2h0c.6-.2,1.1-.4,1.7-.6,0,0,0,0,.1,0h0c0,0,0,0-.1,0-.6.2-1.2.4-1.7.6h0M41.4,563.9c0,0,0,.2,0,.2,0,0-.1.1-.2.1l-2.3.7s0,0,0,0h0c0,.1,0,0,0,0l2.3-.7c0,0,.2,0,.2-.1,0,0,0-.1,0-.2h0ZM38.8,565.8s0,0,0,0c-.1,0-.8.3-.8.3h0c0,.1.7-.1.8-.2,0,0,0,0,0,0h0ZM44.1,562.5s-.1,0-.2,0c-.4,0-1,.2-1.4.2,0,0-.1,0-.2,0,0,0,0,0,0,.1h0c0,0,0,0,0,0,0,0,.1,0,.2,0,.4,0,1-.2,1.4-.2,0,0,.1,0,.2,0,0,0,0,0,0,.2h0c0-.2,0-.3,0-.3h0ZM44.4,564.4c-.8.1-1.6.3-2.3.5-.1,0-.2,0-.3-.2,0,0-.1-.2-.2-.4h0s0,.1,0,.1c0,.1,0,.3.2.4,0,.1.2.2.3.2.8-.2,1.6-.3,2.3-.4.2,0,.3-.1.4-.2,0,0,.1-.2.1-.3h0s0,0-.1.2c-.1.1-.2.2-.4.2h0ZM47.6,562l-1.6.2h0c0,.1,0,.1,0,.1l1.6-.2c0,0,.1,0,.1,0h0s0-.1,0-.1c0,0,0-.1-.1,0h0ZM48.4,562.6v-.2c0,.2,0,.4-.3.5,0,0,0,0,0,0,.1,0,.2-.2.2-.4h0ZM48.6,563.9h-.7c0-.1,0-.3-.2-.4-.1-.2-.2-.3-.4-.2l-1.4.2h0c0,.1,1.4,0,1.4,0,.1,0,.3,0,.4.2,0,.2.1.3.2.5h.7c0,0,0,0,0,0h0c0-.1,0-.1,0-.1h0ZM46,564.1h-.7v.2h.7c0,0,0,0,0-.1h0q0-.1,0-.1h0ZM52,562.1c0,0,0,0,0,0h0c0,0,0,0,0,0-.6,0-1.6,0-2.2,0,0,0,0,0,0,0h0c0,0,0,0,0,0,.6,0,1.6,0,2.2,0h0ZM49.4,563c.7,0,1.2,0,1.9,0,0,0,0,0,0,0h0c0-.2,0-.2,0-.2-.6,0-1.2,0-1.9,0-.2,0-.4-.2-.4-.3h0c0,.3.2.5.4.5h0ZM51.6,563.9c-.9,0-1.8,0-2.7,0h0c.9,0,1.8,0,2.7.1.2,0,.4-.2.4-.4h0c0,0-.2.2-.4.2h0ZM55.6,562.3c-.8,0-1.5-.2-2.3-.3,0,0-.1,0-.1,0h0c0,0,0,0,.1,0,.8,0,1.5.2,2.3.3,0,0,0,0,0,0h0c0-.1,0-.1,0-.1h0ZM55.6,564.3c-1-.2-1.8-.2-2.7-.3-.2,0-.3-.2-.3-.4h0c0,.3.2.5.3.6.9,0,1.7.2,2.7.3,0,0,0,0,0,0h0c0-.1,0-.1,0-.1h0ZM58.2,563.9h0c0-.2,0-.2,0-.2-.5-.1-1-.2-1.6-.3,0,0,0,0,0,0h0c0,.1,0,.1,0,.1.5,0,1,.2,1.6.3,0,0,0,0,0,0h0ZM56.5,564.4c-.2,0-.4,0-.6-.1h0c.2.2.5.2.6.2,0,0,0,0,0,0h0c0,0,0,0,0,0h0ZM58.8,564.9c-.2,0-.4,0-.6-.1,0,0,0,0,0,0h0c0,.2,0,.2,0,.2.2,0,.4,0,.6.1,0,0,0,0,0,0h0c0-.1,0-.1,0-.1h0ZM62.5,564c-.6-.2-1.5-.5-2.3-.7,0,0,0,0,0,0h0c0,.1,0,.1,0,.1.8.2,1.7.5,2.3.7,0,0,0,0,0,0h0c0,0,0,0,0,0h0ZM62.5,565.1c-.7-.3-1.6-.5-2.4-.8,0,0,0,0,0,0h0c0,.1,0,.1,0,.1.8.2,1.7.5,2.4.8,0,0,0,0,0,0h0c0-.1,0-.1,0-.1h0ZM62.5,566c-1-.4-2-.7-3.1-1,0,0,0,0,0,0h0c0,.2,0,.2,0,.2,1,.3,2.1.6,3.1,1,0,0,0,0,0,0h0c0-.1,0,0,0,0h0Z"/>
        <path d="M62.4,563.7v.2h-.2c0,0-.1,0-.1,0h0c-.3,0-.6-.2-.8-.3s-.5-.2-.7-.2h-.2c0,0-.2-.1-.2-.1h-.2c0,0,0,0,0,0h0v.4h.1s0,0,0,0h.1s.1,0,.1,0c.3,0,.6.2.9.3.3,0,.6.2.9.3h0s.1,0,.1,0h0v.5h-.2s-.1,0-.1,0c-.3-.1-.6-.2-.9-.3-.3,0-.6-.2-1-.3h-.3c0,0,0,.2,0,.2v.2h.1s.2,0,.2,0h.2c0,0,0,0,0,0h0c.3.1.6.2.8.3.3,0,.5.2.8.3h0s0,0,0,0h0s0,0,0,0c0,.2,0,.3,0,.5h-.2c0,0,0,0,0,0h0c-.5-.2-1-.3-1.4-.5s-1-.3-1.3-.4h0c0-.2,0-.6,0-1s0-1.4,0-1.4c0,0,1,.3,1.4.4.4.1.9.3,1.3.5h0c0,0,.1.1.1.1h0v.2ZM58.8,562.4c0,0-.1,0-.2,0s-.2,0-.2,0h0v.2h0v.2h0v.3c0,0,0,.2,0,.2h0v.2h-.1s0,0,0,0h0s0,0,0,0h-.6c-.2-.2-.4-.2-.6-.2h-.2s0,0-.1,0h0v-.6h0v-.4h0c0,0,0,0-.1,0h0s0,0-.1,0-.1,0-.2,0h0c0,.2,0,.5,0,.7s0,.5,0,.7v.2c0,0,0,.1,0,.2,0,.1,0,.2,0,.3v.3h0s0,0,.1,0h0s.1,0,.1,0c0,0,.1,0,.2,0h0v-.2h0v-.6h0v-.2h0s0,0,0,0h0c0,0,.3,0,.6.1s.6.1.9.2h0s0,0,0,0h0s0,0,0,0h0v.2h0v.5h0v.2h0c0,0,.2.1.2.1h0s0,0,0,0h.1s0-.1,0-.1h0c0-.4,0-.7,0-1,0-.3,0-.7,0-1.1h0c0-.1,0-.1,0-.1ZM54,561.5c-.4,0-.7,0-.9,0-.1,0-.2,0-.3.1,0,0-.2.2-.2.3,0,0,0,.8,0,.8v.9s0,0,0,.1,0,0,0,0c0,0,.1,0,.2,0,0,0,0,0,.1,0h0c.4,0,.7,0,1.1.1.4,0,.8,0,1.2.1h.2s0-.2,0-.2v-.2h-.2s-.2,0-.2,0h0c-.3,0-.6,0-1-.1s-.6,0-1-.1c0,0,0,0,0,0,0,0,0,0,0,0v-1.3s0,0,0-.1c0,0,0,0,.1,0,.2,0,2,.2,2.3.3v-.4h0c-.4-.1-1.1-.2-1.6-.2ZM48.4,563.4c0,.1.1.3.1.5h-.6c0-.1,0-.3-.2-.4,0-.2-.2-.3-.4-.3-.2,0-1.4.2-1.4.2v.8h-.3s-.3,0-.3,0v-2.4s2.3-.3,2.6-.2.3.2.3.3c0,.3,0,.6,0,.9,0,.2-.1.3-.3.4.1.1.3.3.4.4ZM47.8,562.1c0,0,0,0,0-.1,0,0-.1,0-.2,0l-1.7.2v.7h.8c0,0,.8-.1.8-.1,0,0,.2,0,.2,0,0,0,0-.1,0-.2v-.3ZM44.8,562.1c0,.1,0,1.5,0,1.7,0,.2-.2.4-.4.5-.2,0-2.1.4-2.3.5s-.4-.2-.4-.4v-1.6c0-.2.2-.3.4-.4.2,0,2.2-.4,2.3-.5.2,0,.3,0,.4.3ZM44.3,562.6c0-.1,0-.3-.3-.2-.3,0-1.2.2-1.5.3-.2,0-.3.1-.3.3v1c0,.2,0,.3.2.2s1.5-.3,1.6-.3c.1,0,.2-.2.2-.3,0-.1,0-1,0-1ZM51.7,562.4c-.2,0-.4,0-.6,0h-1.5s0,0,0,0c0,0,0,0,0,0h0v-.2c0,0,0-.1,0-.2,0,0,0,0,.1,0,0,0,.9,0,1.5,0h.2c.2,0,.4,0,.5,0v-.4c-.3,0-.4,0-.7,0h0c-.1,0-.3,0-.5,0-.6,0-1.3,0-1.4,0,0,0-.1,0-.2,0,0,0,0,0,0,.1v1c0,0,0,.1,0,.1,0,0,.1,0,.2,0h.6c.2,0,.4,0,.7,0,.2,0,.5,0,.7,0,0,0,0,0,0,0,0,0,0,0,0,.2h0c0,.2,0,.2,0,.3,0,0,0,0-.1,0h-1.7c-.2,0-.4,0-.5,0v.4c.2,0,.5,0,.7,0,.2,0,.4,0,.5,0h.4c.1,0,.2,0,.4,0h.3s.3,0,.3,0c0,0,.1,0,.2,0,0,0,0,0,.1-.2v-.9c0,0,0-.1,0-.2,0,0-.1,0-.2,0h0ZM41.3,562.9v1c0,0,0,.1,0,.2,0,0,0,0-.1,0l-2.4.8v.8s-.6.2-.6.2v-1.2c0-.4,0-1.2,0-1.2s0,0,0,0c0,0,.8-.3,1.7-.6.3,0,.9-.3,1-.3.1,0,.2,0,.3,0,0,0,.2.1.2.2ZM40.7,563.7c0,0,0-.3,0-.3s0,0,0-.1c0,0,0,0-.1,0h0s-.5.2-.8.2-1,.4-1,.4c0,0,0,.7,0,.7l1.8-.6c0,0,.1,0,.2,0,0,0,0,0,0-.2ZM48.7,572.3v.7c0,0,0,.2,0,.2,0,0-.1,0-.2,0s-.1,0-.2,0c0,0,0-.1,0-.2v-.7c0,0,0,0,0,0s0,0,0,0h0v.6c0,.1,0,.3,0,.4,0,0,.2.2.3.2.1,0,.2,0,.3-.2,0-.1,0-.2,0-.4v-.6c0,0,0,0,0,0s0,0,0,0h0ZM49.6,572.4s0,0,0,0,0,0,0,0h-.5s0,0,0,0,0,0,0,0h.2v1c0,0,0,0,0,0s0,0,0,0v-1h.2ZM50.4,572.4s0,0,0,0,0,0,0,0h-.5s0,0,0,0,0,0,0,0h.2v1c0,0,0,0,0,0,0,0,0,0,0,0h0v-1h.2ZM51.4,572.8h-.3c0,0,0,0,0,0,0,0,0,0,0,0h.2c0,.2,0,.4-.2.4,0,0-.2,0-.2-.2,0,0,0-.2,0-.3s0-.2,0-.3c0,0,.1-.1.2-.1,0,0,.2,0,.2.1,0,0,0,0,0,0,0,0,0,0,0,0h0c0-.1-.2-.2-.3-.2-.1,0-.3,0-.3.2,0,.1-.1.3-.1.4s0,.3.1.4c0,.1.2.2.3.2s.2,0,.2,0c.1,0,.2-.2.2-.3,0,0,0-.2,0-.2,0,0,0-.1-.1-.1ZM54.3,572.4s0,0,0,0,0,0,0,0h-.5s0,0,0,0,0,0,0,0h.2v1c0,0,0,0,0,0,0,0,0,0,0,0h0v-1h.2ZM53.3,573h0c0,0,.1,0,.2-.1,0,0,.1-.2,0-.3,0-.1,0-.2-.2-.3,0,0-.2,0-.3,0h-.3s0,0,0,0,0,0,0,0v1s0,0,0,0h0s0,0,0,0h0v-.3h.2l.3.4s0,0,0,0,0,0,0,0,0,0,0,0l-.2-.3ZM53,572.9v-.5h.2c0,0,.1,0,.2,0,0,0,0,0,0,.2,0,.1-.1.2-.3.2h-.2ZM52.2,572.3c0,0,0,0-.1,0s-.1,0-.1.1l-.3,1s0,0,0,0c0,0,0,0,0,0,0,0,0,0,0,0v-.2h.5v.2c0,0,.1,0,.1,0s0,0,0,0c0,0,0,0,0,0l-.3-1ZM52.3,573.1h-.4l.2-.7.2.7h0ZM47.1,572.8c-.1,0-.2-.1-.4-.1,0,0-.2,0-.1-.2h0c0,0,.1-.2.2-.1,0,0,.2,0,.2,0,0,0,.1,0,.1,0s0-.2-.3-.2c0,0-.2,0-.3,0,0,0-.1.1-.1.2,0,.1,0,.2,0,.3s.2,0,.2,0,.2,0,.3.1c0,0,0,.1,0,.2s-.1,0-.2,0-.2,0-.2,0,0,0-.1,0c0,0,0,0,0,.1,0,.1.2.2.4.2.1,0,.3,0,.4-.1,0,0,0-.2,0-.2,0,0,0-.2-.1-.2h0ZM47.8,572.4s0,0,0,0c0,0,0,0,0,0h-.5s0,0,0,0c0,0,0,0,0,0h.2v1c0,0,0,0,0,0s0,0,0,0v-1h.2ZM40.6,567.7c.1-.3.4-.6.6-.7.1,0,.1-.1.1-.1,0,0,0,0-.2,0-.3,0-.5.1-.7.3-.3.2-.4.5-.5.8,0,.4,0,.8,0,1.1,0,0-.5.2-.6.3,0-.1,0-.2-.2-.3-.2-.1-.3-.1-.5,0-.2,0-.2.2-.2.4,0,.1,0,.2.1.3-.1,0-.2.1-.3.2-.1.1-.2.3-.1.5,0,.2.2.2.4.2.2,0,.4-.1.5-.3,0,0,.1.2.2.2,0,0,.2,0,.3,0,0,0,.2,0,.2,0,.1,0,.2-.2.2-.4,0-.2-.2-.3-.2-.4,1-.6,2.2-1,3.3-1.3.8-.2,1.6-.3,2.4-.4.5,0,1,0,1.5.2.4.1.8.3,1.1.6h0c0-.4-.2-.7-.6-.9-.3-.2-.6-.3-.9-.3,0-.1.2-.2.3-.4.2-.2.4-.3.6-.3.2,0,.4,0,.6,0,0-.2-.2-.3-.4-.3-.2,0-.5,0-.7,0-.4.2-.7.5-.9.9-.4,0-.9,0-1.3,0,0-.3.2-.7.4-1,.2-.3.5-.5.9-.6,0,0,0,0,.2,0,0,0-.2-.1-.5-.2-.5,0-.9.2-1.2.6-.2.3-.3.7-.4,1.1-.7.1-1.5.3-1.5.3,0-.3,0-.6.2-.8.2-.3.4-.6.7-.8,0,0,.1,0,.2,0,0,0-.2,0-.3,0-.2,0-.5,0-.7.2-.4.2-.7.7-.7,1.2,0,.1,0,.5,0,.6-.5.1-1.1.3-1.6.5,0-.3,0-.7.2-1ZM46.4,570.7s.2,0,.2,0c0,0,0,0-.1,0-.2,0-.3-.1-.5-.1s-.4,0-.5.1c-.3.2-.6.5-.7.9,0,0-.4,0-.6,0h-.6c0,0,0-.2,0-.3,0-.2.2-.4.3-.5.2-.3.5-.4.9-.5,0,0,0,0,0,0-.1,0-.2-.1-.4-.1-.8,0-1.4.6-1.4,1.4v.2s-.3,0-.5,0c-.2,0-.5,0-.7.2,0-.3,0-.6.2-.8.1-.2.3-.5.5-.6,0,0,.1,0,.2-.1,0,0-.2,0-.2,0-.4,0-.8.3-1,.7-.1.4-.2.7-.2,1.1-.2,0-.7.2-.9.3,0-.3,0-.6,0-.8,0-.2.2-.5.3-.6,0,0,0,0,.2-.1,0,0,0,0-.3,0-.4,0-.6.4-.8.7,0,.4-.1.8,0,1.1-.1,0-.5.2-.6.3,0,0,0-.2-.1-.3,0-.1-.2-.2-.3-.2s-.1,0-.2,0c0,0-.1,0-.1.2,0,0,0,.2,0,.3,0,0,0,0,0,.2,0,0,0,.1,0,.1-.1,0-.3,0-.4.2-.2.1-.2.3-.1.5,0,.1.2.2.3.2.2,0,.4-.1.5-.3,0,0,.1.2.2.2,0,0,.2.2.3.2s.1,0,.2,0c.1,0,.2-.2.2-.4,0-.1,0-.2-.2-.3h0c0,0,.3-.2.3-.2.5-.3,1-.5,1.5-.7.8-.3,1.7-.5,2.5-.6.2,0,.4,0,.5,0,.2,0,.4,0,.6.1v-.9h.4c.2-.3.6-.5.9-.5ZM45.1,574v1.3c-.1,0-.3,0-.4,0-1.2,0-2.3.3-3.4.8-.5.2-.9.5-1.4.7.2,0,.3.2.3.4,0,.2,0,.5-.4.5-.3,0-.4-.3-.5-.4,0,0-.3.3-.4.3,0,0-.2,0-.2,0s-.2,0-.3-.1c0,0,0-.2,0-.3,0-.1.1-.2.2-.3,0,0,.2,0,.2-.2,0,0-.2-.2-.2-.3,0-.2,0-.4.1-.5.1,0,.3,0,.4,0,.2,0,.3.4.3.4,0,0,.4-.2.6-.4-.2-.3-.3-.7-.3-1.1,0-.6.7-1,1-.9-.2.2-.4.6-.4,1,0,.3,0,.5.1.8,0,0,.7-.3.9-.3-.2-.4-.2-.9,0-1.3.2-.4.6-.7,1.1-.7-.6.4-.8,1.1-.6,1.8.1,0,.9-.3,1-.3,0-.5,0-.9.4-1.3.2-.3.6-.5.9-.6,0,0,.2,0,.2,0t0,0h0c-.3.3-.6.6-.8.9-.1.2-.2.4-.2.7h0s.4,0,.7,0,.6,0,.6,0c0-.1.1-.2.2-.4.1-.1.2-.2.3-.3h0ZM57.7,579.5c-.2,0-.5.2-.6.5-.2.4-.3.8-.2.8h.3c.2,0,.3,0,.5,0,0,0,0,0,0,0,0,0,0,0,0,0,.1-.4.4-.8.7-1,.1,0,.3-.2.5-.2.2,0,.5,0,.7.3,0,0-.3,0-.8.5-.2.2-.3.4-.4.6,0,0,0,0,0,0,.2,0,.7.2.9.3,0,0,0,0,.1,0,.1-.2.3-.3.4-.5.2-.1.4-.2.6-.2h0c.5,0,.5.3.5.3,0,0-.1,0-.2,0-.3,0-.6.3-.9.5,0,0,0,.2,0,.2.4.2.6.6.5,1,0,0,0,.1,0,.1,0,0-.1,0-.2-.1-.2-.2-.4-.4-.7-.5-.4-.2-.8-.4-1.3-.5-.3,0-.7,0-1-.1-.8,0-1.6.1-2.3.3-.1,0-.6.2-1.1.3h-.3c0,0,.2,0,.2,0,.2-.2.4-.4.5-.6v-.2c.1,0,.3,0,.3,0l.9-.2c0,0,.2,0,.2-.2,0-.3.2-.7.4-.9.2-.3.5-.5.8-.5.4,0,.6,0,.5.1h0ZM51.4,586.1c-.1-.1-.2-.3-.2-.5,0-.2,0-.3.3-.4.2,0,.4,0,.5,0,.2.1.2.3.3.5,0,0,0,0,0,0,.2,0,.5-.2.7-.3h.1c0,0,0,0,0-.1,0-.2,0-.4,0-.7,0-.2,0-.5.2-.7.3-.5.9-.5.9-.4-.2.2-.3.5-.4.8,0,.2,0,.4,0,.5,0,0,0,.2,0,.2,0,0,.2,0,.4-.1.2,0,.4,0,.5-.1,0,0,0,0,0,0,0-.5.1-1,.4-1.4.2-.3.5-.5.9-.5.1,0,.3,0,.2,0,0,0-.1,0-.2.2-.2.2-.3.3-.5.5-.2.3-.2.6-.2,1,.3,0,.5,0,.8-.1,0,0,0,0,0,0,0-.3.2-.9.5-1.1.2-.1.4-.2.6-.2.2,0,.6.1.5.2-.2.1-.5.3-.6.5-.1.2-.2.4-.2.6,0,.1,0,.2,0,.2.2,0,.4,0,.6,0,0,0,.1,0,.1,0,0-.2.2-.3.4-.4.1-.1.3-.2.5-.2.4,0,.6.3.6.3-.3,0-.6.3-.9.6,0,0,0,0,0,0,.4.3.6.7.7,1.2,0,0,0,.2,0,.2-.3-.3-.6-.6-.9-.8-.5-.2-1-.4-1.5-.3-.6,0-1.3,0-1.9.3-.7.2-1.3.5-1.9.9,0,0,.2.2.2.3,0,.2,0,.4-.1.6,0,0-.2,0-.4,0-.3,0-.4-.3-.4-.4,0,0-.1.2-.2.2-.2.2-.5.1-.6,0,0,0,0,0,0,0-.1-.2,0-.4,0-.6.2,0,.2-.1.2-.1h0ZM52.4,589.7c0,0,0-.2-.1-.3,0-.2-.1-.5,0-.7,0-.3.3-.5.6-.5-.1.2-.2.4-.2.6,0,.2,0,.4.2.6,0,0,0,0,0,0,.2,0,.3-.2.5-.2,0,0,0,0,0,0-.1-.4,0-.8.1-1.1.2-.3.4-.5.7-.5h0s.2,0,.2,0c-.2.2-.4.4-.5.6,0,.2-.1.5,0,.7,0,0,0,0,0,0,.2,0,.4,0,.6-.1,0,0,0,0,0,0,0-.4.3-.7.5-.9.2-.2.5-.3.7-.3.3,0,.4.1.4.2s0,0-.2,0c-.2,0-.4.2-.5.4-.1.2-.2.3-.2.5,0,0,0,0,0,0,.2,0,.4,0,.6.1,0,0,0,0,0,0,.1-.2.2-.4.4-.6.2-.2.4-.2.6-.2.1,0,.3,0,.4.1,0,0,.1.1,0,.1-.2,0-.4.2-.6.4-.2.3-.2.3-.2.4,0,0,0,0,0,.1.4.2.4.4.4.6,0,.1,0,.3-.2.2-.2-.2-.4-.3-.6-.4-.3-.1-.7-.2-1.1-.2s-.7,0-1,.2c-.4.1-.8.3-1.2.6,0,0-.1,0-.2.1-.1,0-.2.2-.3.3,0,0,0,0,0,0,.4.2.4.5.3.6,0,0-.2.1-.4,0-.3-.2-.3-.4-.4-.3,0,0-.2.3-.3.4-.1.1-.3.2-.5,0-.2-.1-.2-.3,0-.5,0,0,.2-.1.2-.2,0,0-.2-.2-.3-.2-.1-.1-.1-.4,0-.5,0,0,0,0,0,0,.2-.1.4,0,.5,0h0s.2.2.2.2,0,0,0,0c0,0,.4-.3.4-.3,0,0,0,0,0,0h0ZM54.4,577.9s0,0-.1,0,0,0-.1,0c0,0,0,0,0-.1,0,0,0,0,0,0,0,0,.1-.1.2-.2s0-.2,0-.2,0,0,0,0c0,0,0,.1-.1.2,0,0-.1,0-.2,0s0,0-.1,0c0,0,0,0,0-.1s0,0,0,0c0,0,.2,0,.2,0,0,0,0,0,.1-.1,0,0,0,0,0-.1s0,0,0,0c0,0,0,0-.1,0,0,0-.2,0-.2,0,0,0-.1-.1-.2-.2,0,0,0,0,0,0,0,0,.1,0,.2-.2,0,0,0,0,0,0,0,0,0,0,0,0,0,0,0-.1,0-.2s0,0,0-.1,0,0,0,0c0,0,0,.1,0,.2,0,0,0,.1-.1.2,0,0,0,0,0,0,0,0,0,0-.1-.1,0,0,0-.1,0-.2,0-.1.1-.2.2-.4,0,0,.1-.1.2-.2,0,0,0-.2,0-.2s0,.1-.1.1c-.2,0-.4.2-.5.3,0,0-.1.2-.2.3,0,0,0,.2,0,.2,0,0,0,0,0,0,0,0,0-.1-.1-.2,0,0,0-.1,0-.2s0,0,0,0c0,0-.1.1-.2.2,0,.1,0,.2,0,.3,0,.2.2.3.3.4,0,.1.2.3.2.4,0,0,0,.2,0,.3,0,.1,0,.2-.2.3,0,0,0,0,0,0,0,0-.2-.2-.3-.3-.1,0-.3-.1-.4-.2-.2,0-.4,0-.6,0-.2,0-.4,0-.6,0-.2,0-.3,0-.5,0-.1,0-.2-.1-.3-.2,0-.1,0-.2,0-.4,0,0,0-.2,0-.3,0,0,.1-.2.2-.2,0,0,.2,0,.3,0,0,0,0,0,.1,0s0,0,.1.1h0c0-.1,0-.3,0-.4,0,0-.1-.2-.2-.3,0,0,0,0,0,0,.1,0,.2,0,.3,0,0,0,.1,0,.2.2h0c0-.2,0-.3-.2-.4,0,0-.1-.1-.2-.2,0,0,0,0,0,0,0,0,.2,0,.2,0s0,0,0,0c0,0,0,0,0,0,0,0,0,0,0,0,0,0,0,0,0-.1-.1-.1-.3-.2-.4-.3,0,0,0,0,0,0,0,0,0-.1,0-.2,0,0,0,0,0,0,0,0,0,0,0,0,0,0,0,0,.2-.1,0,0,.1,0,.2,0s0,0,0,0,0,0,0,0c0,0-.2,0-.3,0-.1,0-.3,0-.4,0,0,0-.2,0-.3,0s-.1,0-.2,0c0,0,0,0,0-.1,0,0,0-.2,0-.2,0,0,0,0,.1-.1,0,0,0,0,0,0,0,0,0,0,0,0-.1,0-.2,0-.3.1,0,0-.1.2-.2.2,0,0,0,0,0,0,0,0,0,0,0,0,0,0-.2,0-.2.1s-.2.1-.2.1c0,0-.1,0-.2,0h0c-.1,0-.3,0-.3.2,0,0,0,0,0,0,0,0,0,0,0,0h0s0,0,0,0h0c0,0,0,0,0,0,0,0-.2,0-.2,0h0s0,0,0,0c-.2.1-.3.2-.5.3h0c0,0,0,0,0,0h0c0,0,0,0,0,0,0,0,0,0,0,0h0c0,.1,0,.2.1.2s0,0,0,0c0,0,0,0,.1,0,0,0,0,0,0,0h0s0,0,0,0c0,0,0,0,0,0,0,0,0,0,0,0,0,0,.1,0,.2,0s0,0,0,0c0,0,0,0,0,0,0,0,.1,0,.2,0h0c0,0,0,0,.2,0,0,0,0,0,0,0h0c0,0,0,.1,0,.2,0,0,0,0,0,.1,0,0,0,0,0,.1t0,0c0,0-.2.1-.2.2-.1.1-.2.2-.3.4,0,0,0,0,0,.1h0c0,.1,0,.2-.2.2-.1,0-.2-.2-.4-.2,0,0,0,0-.1-.1-.1-.2-.3,0-.3.1-.1.2-.3.4-.4.6,0,0,0,0,0,0,0,0,0,0,0,.1,0,0,0,.1,0,.2,0,.1,0,.2,0,.3,0,0,0,.1,0,.2v.2s0,0,0,0,0,0,0,0c0,0,.2,0,.3-.2,0,0,0,0,0,0,0,0,0,0,0,0,0,0,0,0,0,0h0s0,0,0,0h0c0-.1,0-.1,0-.2s0,0,0,0c0,0,0,0,.1-.1,0,0,0-.1,0-.2,0,0,0,0,0,0h0c0,0,0,0,0-.1,0,0,0,0,0-.1,0,0,.1-.1.2-.1,0,0,.2,0,.3,0,0,0,.1.2.2.3,0,0,0,.2.1.3,0,0,.1,0,.2,0,0,0,0,0,0,0h0s0,0,0,0c0,0,0,0,0,0h.1c0,.2,0,.2,0,.2h-.1s0,0,0,0c-.2,0-.4,0-.6,0h0s0,0,0,0,0,0,0,0c0,0,0,0,0,0,0,0,0,.1,0,.2,0,.3.1.6,0,.9,0,.1,0,.2,0,.3,0,0,0,0,0,0,0,0,0,0,0,0,0,0,0,0,0,.1s0,.1,0,.2c0,0,.1.1.2.2,0,0,0,0,0,0,0,0,0,0,.1,0h0c0,0,0-.2,0-.3s0,0,0-.1h0s0,0,0,0h0s0,0,0,0h0s0,0,0,0c0,0,0-.1,0-.2,0,0,0,0,0,0,0,0,0,0,0,0,0,0,0,0,0,0,0,0,0,0,0,0h0s0,0,0,0h0s0,0,0,0c0-.1,0-.3,0-.4,0,0,0,0,0-.1,0,0,.3,0,.4,0,.1,0,.3,0,.4.1h0c.2,0,.5,0,.7-.2t0,0c0,0,.1,0,.2.2.2.1.4.2.6.3.3,0,.5,0,.8,0,0,0,.1,0,.2,0,0,0,0,0,0,0,0,0,0,.2,0,.3s0,.1,0,.2c0,0,0,.1,0,.2h0c.2.2.2.5,0,.7,0,0-.2.2-.3.3-.1,0-.2.1-.4.1s-.2,0-.2,0c0,0-.2.2-.3.2,0,0,0,0,0,0,0,.1,0,.2,0,.3,0,0,0,0,0,0,0,0,.2,0,.3,0,0,0,0,0,0-.1,0,0,0,0,0,0h0c0-.2,0-.2,0-.2,0,0,0,0,0,0,0,0,0,0,0,0s0,0,0,0c.1,0,.2,0,.3-.1,0,0,0,0,0,0,0,0,0,0,0,0,.2-.2.5-.3.8-.4,0,0,0,0,0,0h0c0-.2,0-.3,0-.4,0,0,0-.2.1-.2s0,0,0,0c0,.1.2.2.3.2,0,0,0,0,.1,0,.1,0,.2.2.2.3,0,0,0,.1,0,.2,0,.1-.2.3-.3.4,0,0,0,.1-.2.2-.1,0-.2.2-.3.2,0,0-.1.1-.2.2,0,.1,0,.3-.1.4,0,0,0,0,0,0,.1,0,.2,0,.3-.1,0,0,0,0,0,0,0,0,0,0,0,0,0,0,0,0,0,0,0,0,0,0,0-.1,0,0,0,0,0,0,0,0,0,0,0,0,0,0,.2,0,.2,0,0,0,.2,0,.3-.1,0,0,0,0,0,0h0c0-.3.3-.6.6-.8,0,0,0,0,0,0s0,0,0-.1l-.2-.3c0,0-.1-.2-.1-.3,0-.1,0-.2,0-.3,0,0,0,0,0,0,0,0,.1-.1.2-.2,0,0,.1-.2.2-.2,0-.1,0-.2.1-.3,0,0,0-.2,0-.3s0,0,0,0c0,0,0,0,.2-.1,0,0,.1,0,.2,0,.1,0,.2,0,.3.1,0,0,.1,0,.2,0,0,0,.1,0,.2,0,0,0,0,0,0,0h0ZM50.4,576.1c0,.1,0,.2-.2.2h0s0,0,0-.2h0v-.2h0v-.2c0,0,0-.2,0-.2,0,0,0-.2,0-.3,0,0,0-.1,0-.2,0,0,0,0,0,0,0,0,0,0,0,0,0,0,0,0,0,0s0,0,0,0c.1,0,.3,0,.4,0,.2.1.2.3.3.5,0,.2,0,.5,0,.8h0ZM38.2,581.8h8.1c-.8-.8-1.2-1.9-1.2-3h0c0-.1-7.4-.1-7.4-.1,0,1,.2,2.1.5,3.1h0ZM50,585.7h-10.1c.3.5.6,1,.9,1.4.4.6.8,1.2,1.3,1.7h7.9v-3.1ZM63,571.7h-7.4v2.8h7.4c0-.9,0-1.8,0-2.8h0ZM63.1,567s0,0,0,0c-1.3-.5-2.7-1-4.1-1.3-1.9-.5-3.9-.8-5.8-1-.9,0-1.8-.1-2.7-.1v3.1h12.6c0-.2,0-.4,0-.6h0ZM55.1,571.6h-9.5s0,0,0,0v7.1c0,1.3.6,2.5,1.6,3.3.9.8,2,1.2,3.2,1.2.9,0,1.7-.2,2.5-.7,1-.6,1.7-1.4,2.1-2.5.1-.3.2-.7.2-1.1v-7.3s0,0,0,0h0ZM54.9,578.9c0,.4,0,.7-.2,1-.4,1-1,1.8-2,2.4-.7.4-1.5.7-2.4.7-1.1,0-2.2-.4-3.1-1.2-.9-.8-1.5-2-1.5-3.2v-6.8s0,0,0,0h9.1s0,0,0,0h0v7.1ZM52.1,583.2c-.3.1-.6.2-1,.3h0s0,0,0,0c0,0,0,.1.2.1.1,0,.2,0,.3-.2,0,0,0,0,0,0,0,.1.3.3.4.2.1,0,.1-.2,0-.3,0,0,0,0,0,0,0,0,0,0,0,0Z"/>
      </g>
    </g>
  </g>
</svg>