<?xml version="1.0" encoding="UTF-8"?>
<svg xmlns="http://www.w3.org/2000/svg" version="1.1" viewBox="0 0 400 600">
  <defs>
    <style>
      .cls-1 {
        fill: #006a59;
      }

      .cls-1, .cls-2, .cls-3 {
        stroke: #000;
      }

      .cls-1, .cls-2, .cls-3, .cls-4 {
        stroke-width: 6px;
      }

      .cls-5, .cls-6, .cls-3, .cls-4 {
        fill: #fff;
      }

      .cls-6 {
        fill-rule: evenodd;
      }

      .cls-7 {
        fill: #db0011;
      }

      .cls-8 {
        display: none;
      }

      .cls-2 {
        fill: #333;
      }

      .cls-4 {
        stroke: #ff000e;
      }

      .cls-9 {
        fill: #292526;
      }
    </style>
  </defs>
  <!-- Generator: Adobe Illustrator 28.7.4, SVG Export Plug-In . SVG Version: 1.2.0 Build 166)  -->
  <g>
    <g id="_x37_">
      <g id="Layer_1">
        <g id="suit2">
          <path id="Shirt" class="cls-1" d="M281.2,502.8c5.6,3.7,17.7,7.7,28.6,9.9,0,0,30.8,5.3,37.9,7.7,57.4,22.3,50.4,79.7,50.4,79.7l-395.8-.2s-3.8-63.4,37.2-71.5c7.7-1.5,25.9-8.7,35.6-9.4,0,0,37.4-9,42.8-12.6.9,5.7,11.3-29.5,4-41.3,19,3.1,38.2-.2,68.9,0,42.8.4,77.3,2.9,91.1-.5-8.6,16.4-.8,38.2-.8,38.2Z"/>
          <path d="M196,505.5c-12.2,8.8-5.5,94.8-5.5,94.8h1.8s.1-10.1-.4-19.6-.7-12.2-.9-18.9c-.4-18.4,1.1-37.7,2.7-43.5,3.4-12.1,2.3-12.7,2.3-12.7Z"/>
          <circle cx="200.5" cy="523.5" r="1.2"/>
          <circle cx="199.5" cy="538.7" r="1.2"/>
          <circle cx="198.5" cy="556.7" r="1.2"/>
          <circle cx="199.5" cy="574.6" r="1.2"/>
          <circle cx="200.5" cy="588.7" r="1.2"/>
          <g class="cls-8">
            <path class="cls-2" d="M-.1,599.8s-6.3-40.2,22.5-62.8c8.8-6.9,40.4-10,54.5-14.7,7.4-2.5,40.8-17.1,43.2-18.7,1,6.1,2.5,55.6,20.3,96.3.5,1.1-140.5-.2-140.5-.2h0Z"/>
            <path class="cls-2" d="M395.7,599.8s6.3-40.2-22.5-62.8c-8.8-6.9-40.4-10-54.5-14.7-7.4-2.5-40.8-17.1-43.2-18.7-1,6.1-2.5,55.6-20.3,96.3-.5,1.1,140.5-.2,140.5-.2h0Z"/>
          </g>
        </g>
      </g>
      <path id="Shirt-neck" class="cls-3" d="M118,506.4c3.8-10.5,11.4-29.4,4.1-41.2,19,3.1,38.2-.2,68.9,0,42.8.4,77.2,2.7,91-.6-8.6,16.4,3.1,40.7,3.1,40.7l-167.1,1.2Z"/>
      <g id="logos">
        <path class="cls-5" d="M138.3,550.3c-.2,0-.3-.1-.3-.3,0,0,0,0,0,0v-8.8h-3c-.2,0-.3-.1-.3-.3,0,0,0,0,0,0v-1.2c0-.2.1-.3.3-.3,0,0,0,0,0,0h8c.2,0,.3.1.3.3,0,0,0,0,0,0v1.2c0,.2-.1.3-.3.3,0,0,0,0,0,0h-3v8.8c0,.2-.1.3-.3.3,0,0,0,0,0,0h-1.4M115.4,545.9l-1.6-4.5-1.6,4.5h3.2ZM118.9,550c0,.2,0,.4-.2.4h-1.4c-.2,0-.4-.1-.4-.3l-.8-2.3h-4.4l-.8,2.3c0,.2-.2.3-.4.3h-1.3c-.2,0-.3-.2-.2-.4l3.7-10.3c0-.2.2-.3.4-.3h1.8c.2,0,.3,0,.4.3l3.7,10.3M129.5,548.9c.9,0,1.5-.4,1.9-1.1l-2.2-2.4c-.8.5-1.4,1-1.4,1.9s.8,1.6,1.7,1.6M130.1,540.9c-.7,0-1.1.5-1.1,1.1s.2.9.8,1.5c1-.6,1.4-.9,1.4-1.5s-.4-1-1.1-1M136.2,549.9c.2.2,0,.4-.2.4h-1.7c-.2,0-.4,0-.5-.2l-1-1.1c-.7.9-1.7,1.6-3.3,1.6s-3.6-1.2-3.6-3.3.8-2.4,2.1-3.1c-.6-.7-.9-1.5-.9-2.2,0-1.7,1.2-2.9,3-2.9s2.9,1.1,2.9,2.7-1,2.1-2,2.7l1.5,1.7.9-1.5c.1-.2.2-.2.5-.2h1.3c.2,0,.3.2.2.4l-1.5,2.6,2.3,2.5M122.5,550.3c.2,0,.3-.1.3-.3,0,0,0,0,0,0v-8.8h3c.2,0,.3-.1.3-.3,0,0,0,0,0,0v-1.2c0-.2-.1-.3-.3-.3,0,0,0,0,0,0h-8c-.2,0-.3.1-.3.3,0,0,0,0,0,0v1.2c0,.2.1.3.3.3,0,0,0,0,0,0h3v8.8c0,.2.1.3.3.3,0,0,0,0,0,0h1.4Z"/>
        <path class="cls-5" d="M82.1,555.6c2.4,1.9,5.3,2.9,8.4,2.9,3.4,0,6.6-1.3,9-3.4,0,0,0,0,0,0-1.1.7-4.1,2.3-9,2.3s-6.9-.9-8.4-1.8c0,0,0,0,0,0M91.4,556.3c3.4,0,7.1-.9,9.3-2.7.6-.5,1.2-1.2,1.7-2,.3-.5.6-1.1.8-1.7,0,0,0,0,0,0-2.1,3-8,4.9-14.1,4.9s-9-1.4-10.8-4c0,0,0,0,0,0,1.7,3.6,6.9,5.6,13.2,5.6M87.8,550.3c-7,0-10.3-3.3-10.9-5.5,0,0,0,0,0,0,0,.7,0,1.7.2,2.4,0,.3.3.8.7,1.2,1.7,1.8,5.9,4.2,13.2,4.2s12.2-3.3,12.7-4.4c.3-.8.5-2.2.5-3.4,0-.2,0-.5,0-.7,0,0,0,0,0,0-.5,2.7-9,6.2-16.3,6.2M78.2,539c-.4.9-.8,1.9-1,2.8,0,.3,0,.4,0,.7.8,1.8,5.1,4.6,15,4.6s10.7-1.5,11.5-4.2c.1-.5.1-1,0-1.7-.2-.8-.6-1.7-.9-2.4,0,0,0,0,0,0,.1,3.5-9.8,5.8-14.8,5.8s-9.9-2.2-9.9-4.9,0-.5.1-.8c0,0,0,0,0,0M99.5,534.7c0,0,0,.2,0,.3,0,1.5-4.6,4.2-12,4.2s-6.4-2-6.4-3.3.2-.9.6-1.4c0,0,0,0,0,0-.7.6-1.4,1.3-1.9,2-.3.3-.4.6-.4.8,0,2.7,6.7,4.6,12.9,4.6s9.6-2.2,9.6-4.1-.3-1.1-.9-1.8c-.4-.5-.9-.9-1.3-1.3,0,0,0,0,0,0M97.5,533.1c-2-1.2-4.4-1.9-7-1.9s-5,.7-7.1,2c-.6.4-1,.7-1,1.1,0,1.2,2.7,2.4,7.5,2.4s8.4-1.4,8.4-2.7-.3-.5-.8-.9"/>
      </g>
      <path class="cls-4" d="M385.5,563.4c-26.5-44.4-72.4-36-101.8-51.3-1.4-.7,3.7,3.1,3.7,3.1l5.5,2.1,9.8,3.2,6.1,1.4,9.2,1.8,12.5,3.3,11.7,3.3,9.8,3.9,9.2,4.8,6.7,4.9,6,5.4,4.9,5.7,4.2,5,2.7,5.3s1.4.7-.1-1.8Z"/>
      <path class="cls-4" d="M17.4,554.5c11.2-24.5,47.6-17.4,98.7-38.9,0,0,2.6-.2-5.7,3.3-8.3,3.5-9.2,3.5-9.2,3.5l-16.3,4.7-22.4,5.3-13.8,3.7-9.9,2.6-6.3,3.2-8.9,7s-6.9,7.2-6.2,5.7Z"/>
      <path d="M173.1,467.8c-5.5,3.5-2.4,37.7-2.4,37.7h.8s-.9-27.8.6-32.6,1-5.1,1-5.1Z"/>
      <circle cx="175.9" cy="479.2" r="1.2"/>
      <circle cx="175.9" cy="491.3" r="1.2"/>
      <g>
        <rect class="cls-5" x="138.3" y="471.5" width="20.2" height="29.4"/>
        <polygon class="cls-7" points="168.5 486.3 158.4 471.5 158.4 501 168.5 486.3"/>
        <polygon class="cls-7" points="148.3 486.3 158.4 471.5 138.3 471.5 148.3 486.3"/>
        <polygon class="cls-7" points="128.1 486.3 138.3 501 138.3 471.5 128.1 486.3"/>
        <polygon class="cls-7" points="148.3 486.3 138.3 501 158.4 501 148.3 486.3"/>
        <path d="M200.2,487.9h-9.5v9.4h-4.7v-22.1h4.7v9.1h9.5v-9.1h4.7v22.1h-4.7v-9.4Z"/>
        <path d="M216.4,497.8c-4.7,0-8.6-1.9-8.7-7.2h4.7c0,2.4,1.4,3.8,4,3.8s4.1-1,4.1-3.2-1.5-2.2-3.9-3l-1.6-.4c-3.5-1-6.9-2.4-6.9-6.3s4.6-6.6,8.7-6.6,8,1.5,8,6.4h-4.7c-.2-2-1.4-3.2-3.6-3.2s-3.5.9-3.5,2.9,1.5,2.1,4.6,3.1l1.8.6c3.8,1.2,6.2,2.5,6.2,6.2,0,5-4.9,6.9-9.2,6.9Z"/>
        <path d="M228.3,475.3h7.6c1.4,0,2.9,0,4.3.2,2.7.6,4.7,2.4,4.7,5.3s-1.8,4.3-4.4,5c3,.6,5.2,2,5.2,5.3,0,5-4.9,6.1-8.8,6.1h-8.6v-22ZM235.9,484.5c2.1,0,4.3-.4,4.3-3s-2-2.9-3.9-2.9h-3.3v5.9h3ZM236.3,494c2.2,0,4.4-.5,4.4-3.2s-1.8-3.2-4.1-3.2h-3.8v6.5h3.5Z"/>
        <path d="M258,497.8c-7.1,0-10.2-4.5-10.2-11.3s3.5-11.7,10.5-11.7,8.6,2,8.8,6.9h-4.9c-.2-2.2-1.7-3.3-3.8-3.3-4.3,0-5.6,4.7-5.6,8.2s1.3,7.6,5.4,7.6,3.8-1.2,4.1-3.4h4.9c-.5,5.1-4.5,6.9-9.1,6.9Z"/>
      </g>
      <g>
        <path class="cls-6" d="M320.9,542.5l.7-2.1c-.4-.1-1.5-.3-3.2-.3-1,0-1.9,0-2.6.2-1.6.4-2.7,1.1-2.8,2.2-.1,1.3,1.1,1.7,2.4,2.1,1.8.6,2.5.7,2.4,1.3,0,.4-.5.7-.9.9-.5.2-1.3.3-2.1.3-.4,0-2.1,0-2-.6,0-.2.1-.5.3-1h-1l-.8,2.1c1.1.3,2.5.4,3.7.3h0c3.8,0,5.4-1.5,5.5-2.7.2-1.3-1-1.6-2.7-2.1-1.6-.5-2.3-.6-2.2-1.1,0-.3.2-.5.5-.7.5-.3,1.2-.4,2.1-.4.4,0,2.1,0,2,.6,0,.1-.1.5-.3,1h1ZM285.8,525c-8,0-14.4,6.5-14.4,14.4s6.4,14.4,14.4,14.4,14.4-6.5,14.4-14.4-6.4-14.4-14.4-14.4ZM297.2,542.2c.1-.4.2-.6.2-.8,0-.4-.3-.4-1.1-.4h-3l-.9,2.5h1.9c.5,0,.6,0,.8-.5v-.3h1l-.9,2.6h-.9v-.3c.3-.5.2-.5-.3-.5h-1.9l-1,2.8h3c.8,0,1.2,0,1.4-.4.1-.2.2-.4.4-.8h1l-.7,2.1h-9.2l.3-.8s.8,0,.9,0c.2,0,.4-.2.4-.3l2-5.7c0,0,0-.3-.2-.3h-.9l.3-.8h9.2l-.7,2.1h-.9Z"/>
        <path class="cls-6" d="M307,540.1h-5l-.3.8h.9c.2,0,.2.2.2.3l-2,5.7c0,.1-.2.3-.5.3s-.9,0-.9,0l-.3.8h6c7.2,0,8-7.9,1.8-7.9ZM304.5,547.2h-1l2.2-6.2h.6c3.9,0,3.1,6.2-1.8,6.2Z"/>
      </g>
      <g id="layer1">
        <path id="path2384" class="cls-5" d="M112.1,586.4c5.5,0,10-4.2,10-9.4s-4.5-9.4-10-9.4-.4,0-.6,0l.5-1.5h15.8c1.4,0,2.6,1.1,2.6,2.4v17.1c0,1.3-1.1,2.4-2.6,2.4h-16.4l.6-1.6"/>
        <path id="path2386" class="cls-5" d="M106.6,566.2h-13.2c-1.4,0-2.6,1.1-2.6,2.4v17.1c0,1.3,1.1,2.4,2.6,2.4h12.7l.7-1.7c-4.5-.9-7.9-4.8-7.9-9.4s2.9-7.9,7-9.2l.7-1.5"/>
        <path id="path2388" class="cls-5" d="M114.5,580.3h-1.3l2.5-6.2h1.3l-2.5,6.2M117.9,572.8h-4.3l-6.1,15.2h2.7l2.6-6.5h2.7c.6,0,1.3-.2,1.6-.9.3-.8,2-4.8,2.4-6.1.5-1.2-.6-1.7-1.5-1.7h0Z"/>
        <path id="path2390" class="cls-5" d="M111.2,574.7l-2.6,6.5h-2.6l2.9-7.1h-1.4l-2.9,7.1h-2.7l6-15h2.7l-2.7,6.6h1.8c1.3,0,1.8.9,1.4,1.9"/>
        <path id="path24" class="cls-5" d="M113.4,595.5c-.4,0-.8-.4-1-.8,0-.2,0-.5,0-.6.1-.5.5-.8,1-.9.3,0,.6,0,.9.1,0,0,.2.1.2.2.3.2.4.5.4.8v.2s-.9,0-.9,0h-.9,0c0,.4.4.7.7.6.1,0,.2,0,.3-.2h0c0,0,.4,0,.4,0,.2,0,.4,0,.4,0,0,0,0,.2-.2.2,0,.1-.3.3-.4.3-.2,0-.3.1-.6.1-.2,0-.2,0-.3,0ZM114.3,594c0,0-.1-.2-.2-.3,0,0-.2-.1-.3-.1,0,0-.1,0-.2,0,0,0-.1,0-.2.1,0,0-.1.2-.2.3h0s.5,0,.5,0h.5,0ZM94,594.3v-1.1h.8v2.2h-.8v-1.1ZM99.3,594.3v-1.1h.8c0,.1,0,.2,0,.2h0c.2-.3.3-.3.6-.3.4,0,.8.2.9.6,0,0,0,.2,0,.9v.8s-.4,0-.4,0h-.4v-.7c0-.5,0-.7,0-.8,0,0-.1-.1-.2-.2,0,0,0,0-.2,0-.1,0-.2,0-.3,0,0,0-.1,0-.1.1h0v1.6h-.8v-1.1ZM106.4,594.4c-.3-.6-.5-1.1-.5-1.1,0,0,0,0,.4,0h.4l.3.6c.2.3.3.6.3.6,0,0,.1-.3.3-.6l.3-.6h.4c.4,0,.4,0,.4,0,0,0-.2.5-.5,1.1s-.5,1.1-.5,1.1c0,0,0,0-.3,0h-.3s-.5-1.1-.5-1.1ZM119.4,594.3v-1.1h.7c0,.2,0,.2,0,.2s0,0,0,0c0,0,.2-.2.4-.2.2,0,.5,0,.7,0,.2,0,.4.3.5.6,0,.1,0,.1,0,.9v.8s-.4,0-.4,0h-.4v-.7c0-.4,0-.7,0-.8,0-.2-.2-.2-.4-.3-.2,0-.3,0-.4,0-.1,0-.1,0-.1.9v.8h-.7v-1.1ZM126.3,594.6v-.8h-.3v-.5h.3v-.8h.8v.8h.5v.5h-.5v1.7h-.8v-.8ZM94.2,592.7c0,0-.2,0-.2-.2,0,0,0,0,0-.2s0-.1,0-.2c.2-.2.5-.3.7,0,0,0,.1.2.1.3,0,.1,0,.2-.1.3-.1.1-.4.2-.5.1h0Z"/>
      </g>
      <g id="layer1-2" data-name="layer1">
        <g id="g19563">
          <path id="path19014" d="M245,584.5v-16.4h97.5v16.4h-97.5Z"/>
          <path id="path19016" class="cls-5" d="M324.4,581.3h-79.4v1h79l.4-1"/>
          <path id="path19018" class="cls-5" d="M274.4,571.9l-2.6,3.9s.2-2.1.2-2.6c0-.4,0-1.4-.9-1.4h-4.1l-2.7,7.3h3.2l2-5.3-.4,5.3h2.9l3.5-5.2-1.9,5.2h3.2l2.7-7.3h-5"/>
          <path id="path19020" class="cls-5" d="M291.9,579.1c-.2,0-1.4.3-2.7.3-2.3,0-4.3-.9-4.3-2.5,0-2.9,2.9-4.5,5-4.9,1-.2,2.8-.4,4.7,0l-1.1,2.6c-.3-.7-1.1-.7-1.4-.7-.8,0-1.4.2-1.9.4-1.1.5-2,2.1-.5,2.7.9.3,1.9,0,3.1-.1l-.9,2.2"/>
          <path id="path19022" class="cls-5" d="M325,579.3h-3.6l2.7-7.3h3.6l-2.7,7.3"/>
          <path id="path19024" class="cls-5" d="M282.3,579.3h-3.6l2.7-7.3h3.5l-2.7,7.3"/>
          <path id="path19026" class="cls-5" d="M301.5,571.9l-1,2.6h-1.8l1-2.6h-3.4l-2.7,7.3h3.4l.9-2.5h1.8l-.9,2.5h3.4l2.7-7.3h-3.4"/>
          <path id="path19028" class="cls-5" d="M317.7,576.8l1.8-4.9h-3.5l-2.7,7.3h6.9l.9-2.4h-3.5"/>
          <path id="path19030" class="cls-5" d="M336.4,571.9l-1.9,5c0-.5.1-2.5.2-3.7,0-.5,0-.8-.3-1.1-.3-.3-.6-.3-.6-.3h-4.1l-2.7,7.3h3l1.9-5.2-.2,5.2h5l2.7-7.3h-3"/>
          <path id="path19032" class="cls-5" d="M308.2,577.3l.3-.8h3.9l.7-1.8h-3.9l.3-.8h4l.7-1.9h-7.4l-2.7,7.3h7.5l.7-2h-4.1"/>
          <path id="path19034" class="cls-9" d="M264.5,575.3c.2-.3,0-.9-.5-1.5-.4-.5-1-.6-1-.9.5-1.1,0-2-.9-2.4,0-.5-.2-1-.6-1.4.2-.4.4-1.7-.5-2.4.4-1.5-1.2-2.4-2-2.5-.4-.3-1-.5-1.7-.6.5-.8.4-1.8-.2-2.4,0-.8-.5-1.6-1.4-1.9-.3-.7-1.9-.6-2,0-.9.3-1.5,1.3-1.4,2.2-.6.6-.5,1.6,0,2.3-.5,0-1.2.1-1.6.3,0,0,0,0,0,0,0,0,0,0,0,0-.4-.2-.8-.3-1.3-.2-.1,0-.4-.2-.6-.2-.2-.2-.4-.4-.6-.6-.1-.4-.5-.8-.8-.9,0-.3,0-.7-.2-.9-.2-.3-.1-.8,0-.9.2-.3,0-.5,0-.6-.5-.5-1-.2-1.1,0-.5-.8-1-1.1-1.3-1-.4-.3-1.1-.1-1.1.3-.3.2-.5.3,0,1.1,0,1.7,0,2.1,1.2,3-.3.3-.5,1.1-.2,1.6,0,.8.3,1.6.9,2,.2,1.1,1.3,1.8,2,2,.5.7,1.2,1.1,1.9,1.1,0,.3.2.6.4.9-.2.7-.2,1.3,0,1.8-.5.6-.7,1.4-.4,2.2-.6.7-.8,1.8-.4,2.8,0,0-.2.3-.2.5-.4.2-.8.7-1,1.2-.2.5-.1,1.1,0,1.5-.6.5-1,1.9.1,3-.3.8-.8,1.5-1.4,2.3-.5.6-.5.9,0,1.6.4.5,1.2,1,1.8,1,1.2,0,2-.2,2.2-1.1,0-.5-.3-1.5-.3-1.8,0-.3,0-.6.3-1.3,1.1-.2,1.7-1.1,1.7-1.8.8-.5,1.4-1.4,1.1-2.4.1-.2.2-.3.3-.6,0,.5.3.8.5,1-.5,1.2.2,2.2.9,2.7-1.2,1.7,0,2.5.4,2.9.4.4.5,1.1,1.1,1.4.6.2,2.5,0,2.9-.8,0-.2.2-.4,0-.6,0-.6-.4-1-1-1.4-.7-.4-.7-.3-1.1-1.4,1.1-.5,1.3-1.8,1.3-2.3.8-1,.7-1.8.3-2.4.1-.4.1-.8,0-1.1.6-.6,1-1.5.7-2.5.4-.6.5-1.2.4-1.9.3.5.9.7,1.5.7,0,0,0,.2,0,.3-.2.3,0,.7.4,1.1,0,.2.1.3.2.4,0,.2.4.8.9.5,0,0,.5-.3.6-.4.4.4,1.4,0,1.3-.6"/>
          <path id="path19036" class="cls-5" d="M259.9,572c1.3-.1,2.4-1.5,1.3-2.6-.2.2-.5.5-.7.6,0,.5-.4,1-.6,1.3,0,.2,0,.7,0,.7"/>
          <path id="path19038" class="cls-5" d="M262,571c-.3.8-1.1,1.3-2.1,1.4-.1.7.7,1.7,2,1.1.9-.4,1.3-1.9,0-2.4"/>
          <path id="path19040" class="cls-5" d="M261.6,574.5c-.1.1,0,.4,0,.5,0,0,0-.3.2-.4,0-.1-.2-.1-.2,0"/>
          <path id="path19042" class="cls-5" d="M262.4,575.1c0-.1,0-.3-.3-.4-.2,0-.3.7,0,.7,0,0,.2-.2.3-.3"/>
          <path id="path19044" class="cls-5" d="M262.8,575.2c-.3,0-.6.3-.5.6,0,0,0,0,.3,0,.1,0,.3-.2.4-.3,0-.1-.2-.3-.2-.3"/>
          <path id="path19046" class="cls-5" d="M263.1,573.7c-.1,0-.3-.2-.4-.4-.3.3-.8.5-1,.6,0,0,0,.3.1.3,0,0,.2.1.3.2.1,0,.5,0,.6.4.1.1.4.2.5.3.4.5.7.4.8.4.4-.3-.1-.5-.4-.8-.1-.1-.5-.7-.5-.8,0,0,0,0,.2,0,0,0,.6.7.9.9-.2-.8-1-1.2-1-1.2"/>
          <path id="path19048" class="cls-5" d="M255.3,572.5c4.7,0,5.3-2.8,4.7-3.9-1.4,1.5-6.3,2.3-8.6.5-.5.5-1,.6-1.5.7.2,1.4,2.7,2.8,5.5,2.7"/>
          <path id="path19050" class="cls-5" d="M252.1,566.6c0,.9-.3,1.8-.5,2.1.4.3,1.3,1,3.4,1,3.1,0,6.3-1.4,4.5-3.9-.8,1-4.7,1.9-7.4.8"/>
          <path id="path19052" class="cls-5" d="M248,566.3c.7-.7.8-1.6.4-2.2,0-.1-.2-.3-.3-.4-.2,1.3-2,2.3-3.2,1.5.4,1.8,2.3,1.9,3.1,1.1"/>
          <path id="path19054" class="cls-5" d="M249.5,567.5c1.1-1.2,0-3.1-.5-3.2.4,1.8-1.5,3.3-3.1,2.6.4,1.1,2.3,2.1,3.6.6"/>
          <path id="path19056" class="cls-5" d="M248,568.7c1,1,3.5.9,3.6-1.4.1-1.6-.6-2.4-1.7-2.7,1.3,2.4-.2,4.1-1.9,4.1"/>
          <path id="path19058" class="cls-5" d="M250,571.2c-.4,2.7,3.1,3.5,5.3,3.5,3.6-.1,4.4-1.9,4.2-2.9-2.3,1.8-7.2,1.6-9.5-.6"/>
          <path id="path19060" class="cls-5" d="M251.8,576.8c1.9.4,3.5-.5,3.4-1.8-.9,0-3.9,0-5.4-2-1,1.4.2,3.3,1.9,3.8"/>
          <path id="path19062" class="cls-5" d="M254.4,576.9c-1.7.9-4.1.2-5-1.6-1.3,2,.9,3.9,2.4,3.8,1.9,0,2.5-1.3,2.6-2.2"/>
          <path id="path19064" class="cls-5" d="M249.1,578c-.6,1.1.1,2.3.9,2.6,1.7.7,2.8-.5,2.7-1.3-1.4.3-2.8,0-3.7-1.3"/>
          <path id="path19066" class="cls-5" d="M247.7,581.3c-.8.7-.2,2.4,1,2.8,1.7.6,2.4-.5,2.5-1.2-.5.1-2.4.5-3.5-1.6"/>
          <path id="path19068" class="cls-5" d="M249.9,580.9c-.9-.5-1.4-1.1-1.5-2.1-1.3,1.3-.2,3.3,1,3.7,2.4.8,3.2-1.2,3-1.8-.9.7-2.1.4-2.5.2"/>
          <path id="path19070" class="cls-5" d="M258.5,586.8h0c-.2.4-1.6.8-2.2.5-.7-.3-.6-.7-1-1.1-1-.9-.8-1.3-.7-1.8,0-.2.2-.4.4-.6.6.3,1,.2,1.5,0,0,0,0,.2,0,.3-.4,0-.8.1-.8.1v.3c.1,0,.5,0,.9-.1,0,0,0,.3.1.3-.4,0-.8.1-.8.1v.3c.1,0,.6-.2,1-.1.4.4,2,.8,1.2,1.6-.3.3-1.1.4-1.6.4h0c.1.2,1.2.3,1.8-.2"/>
          <path id="path19072" class="cls-5" d="M257.7,581.6c-.4.3-1,.5-1.7.5-.8,0-1.4-.4-1.9-.9-.3,1.5.6,2.2,1.7,2.2,1.9,0,1.9-1.6,1.9-1.8"/>
          <path id="path19074" class="cls-5" d="M256,581.8c2,0,2.6-1.7,2.2-2.4-1.1,1.4-3.8,1.1-4.3-.6-.7,1.2.4,3,2.1,3"/>
          <path id="path19076" class="cls-5" d="M256.3,579.9c1,0,2.1-.7,1.8-1.9-1.1.7-2.6.7-3.5,0,0,.2-.2.4-.3.5.1.9,1.1,1.5,2,1.5"/>
          <path id="path19078" class="cls-5" d="M255,576.5s0,0-.1,0c0,.3,0,.8-.2,1.1,1.4,1.2,4.3.5,4.1-1.9-1,1-2.6,1.2-3.8.8"/>
          <path id="path19080" class="cls-5" d="M255.7,575c0,.4-.2.9-.4,1.2,1.8.5,4-.4,3.9-2.5-.5.6-1.7,1.2-3.5,1.3"/>
          <path id="path19082" class="cls-5" d="M246.7,565c1.3-.6,1.2-2,.4-2.3-.2.2-.2.6-.1.7,0,.2-.3.3-.4.3-.1-.1.2-.3,0-.6-.1-.3.2-.5.2-1s-.2-.7-.3-.8c-.1-.3-.1-.8,0-1.1-.1-.1-.3-.3-.5,0-.2.4-.2.8,0,1.2,0,0-.2,0-.4.4,0,0,0,.1,0,.1h0c0-.3,0-.4.1-.6,0,0-.1-.3-.1-.8-.2-.6-.6-1.1-.9-1.2.2.4.7,1.2.8,1.3,0,.2-.1.3-.1.3-.3-.7-.7-1.3-1-1.6-.2-.2-.4-.3-.5-.1,0,0,.2.1.3.2.3.4.9,1.7.9,1.7,0,0,0,0-.1,0-.1,0-.2-.2-.4-.5-.2-.3-.5-.8-.6-1-.1-.2-.3-.1-.3,0,0,.2.2.3.2.5.2,0,.5.2.6.4,0,.2.1.8.3,1,0,0-.2.1-.2.1-.2-.2-.3-.9-.3-1.1,0,0,0-.2-.2-.2,0,0,0,0,0,0,0,1.4,0,1.7,1.2,2.7,0,0,.2.2.3.4,0,.2.2.4.5.4h.1c-.3.3-.7.2-.8,0,0,0-.3-.4-.3-.4-.9.9.3,2.1,1.6,1.5"/>
          <path id="path19084" class="cls-5" d="M248.1,584.1c-.5,1.1-1,1.6-1.6,2.4-.4.5-.2.7,0,1.1.5.6,1.3.9,2,.7h0c-.8,0-1.4-.3-1.8-.8h0c.9.7,2.1.5,2.5.2.1,0,.2-.2.2-.4,0-.4-.3-1-.3-1.3,0-.3,0-.8.3-1.4-.4,0-1.2,0-1.4-.4"/>
          <path id="path19086" class="cls-5" d="M259.6,565.4c.6.4.8,1.3.8,1.7.6-1.2-.3-2-.8-2.1,0,.2,0,.4,0,.5"/>
          <path id="path19088" class="cls-5" d="M260.6,569.4c1.2-.7.4-2.2.2-2.3,0,.2-.2.5-.6,1.1.3.3.4.8.4,1.3"/>
          <path id="path19090" class="cls-5" d="M252,566.2c.9.4,1.8.5,2.8.5,2.6,0,4.3-.7,4.5-1.5.1-.6-1.1-1-2.3-1.1-.2.2-.4.3-.5.3,0,0-.2,0,0-.1.2,0,.4-.3.2-.6.1,0,.6-.2.6-1,0-.6-.3-1-.6-1.2,0,0-.1-.1,0-.1,0-.8-.5-1.4-1.4-1.6h0c0,0,0-.1,0-.2,0-.2-.7-.3-1,0,0,0,.1.1.2.1,0,0,.1,0,0,0-.6,0-1.6.5-1.6,1.8,0,0,.3,0,.4,0,0,0,0,.1,0,.1-.9,0-1.3,1.7,0,2.3,0,0,0,0,0,0-.2,0-.3.3,0,.4,0,0,.1.1.1.2,0,0-.2,0-.3,0-.6-.3-1.4-.1-1.9,0,.4.4.7,1,.9,1.6"/>
          <path id="path19092" class="cls-9" d="M245.5,562s-.2,0-.3-.2c-.2,0-.4,0-.4-.1,0,0,.2,0,.3,0,.1,0,.2,0,.3,0,0,0,.1.2,0,.3"/>
          <path id="path19094" class="cls-9" d="M248.8,586c-.3,0-.7-.1-1-.2v-.3c.3,0,.8,0,1.1.2v.3"/>
          <path id="path19096" class="cls-9" d="M249,585.3c-.5-.1-.5-.2-1-.2v-.3c.5,0,.7,0,1.1.2v.3"/>
          <path id="path19098" class="cls-9" d="M256,562.7s0,0-.1,0c-.9-.2-1.2,0-1.6,0,0,0,0-.1,0-.1,0,0,0,0,0,0-.1.2-.2.3-.1.3,0,0,.1,0,.2-.1,0,0,.3,0,.4.1.1,0,.5.5.8.3.2-.1.4-.5.6-.5,0,0,.2,0,.2,0,0,0,0-.3-.1-.3ZM255.3,563.3c-.3.1-.4-.2-.7-.3.2,0,.7-.1,1.1,0,0,0-.3.3-.4.4"/>
          <path id="path19100" class="cls-9" d="M255.7,560.5c-.3,0-.5.4-.5.9,0,.3.1.6.3.7,0,0,.2.1.3.1.3,0,.5-.4.5-.9,0-.3-.1-.6-.3-.7,0,0-.2-.1-.3-.1"/>
          <path id="path19102" class="cls-5" d="M256.1,561.8s0,0,0,0c0,0,0,0,0,0,0-.1.1-.3.1-.5,0-.3-.1-.5-.2-.6,0,0-.1,0-.2,0-.2,0-.4.4-.3.7,0,0,0,0,0,.1,0,0,0,0,0,0s0,0,0,0c0-.3.2-.5.3-.5.2,0,.4.2.4.5,0,.1,0,.2,0,.3"/>
          <path id="path19104" class="cls-9" d="M254.3,560.5c-.3,0-.6.4-.6.9,0,.3.1.6.3.7.1,0,.2.1.3.1.3,0,.6-.4.6-.9,0-.3-.1-.6-.3-.7-.1,0-.2-.1-.3-.1"/>
          <path id="path19106" class="cls-5" d="M254.7,561.8s0,0,0,0c0,0,0,0,0,0,0-.1,0-.3,0-.4,0-.2,0-.5-.2-.6,0,0-.1,0-.2,0-.2,0-.4.4-.4.7,0,.2,0,.3.1.4,0,0,0,0,0,0,0,0,0,0,0,0,0,0,0-.1,0-.2,0-.3.1-.6.3-.6.2,0,.4.2.4.5,0,0,0,.1,0,.2"/>
        </g>
      </g>
    </g>
  </g>
</svg>