<?xml version="1.0" encoding="UTF-8"?>
<svg xmlns="http://www.w3.org/2000/svg" version="1.1" viewBox="0 0 400 600">
  <defs>
    <style>
      .cls-1 {
        stroke: #afff0a;
      }

      .cls-1, .cls-2 {
        fill: none;
      }

      .cls-1, .cls-3, .cls-4 {
        stroke-width: 6px;
      }

      .cls-5 {
        fill: #fff;
      }

      .cls-2 {
        stroke: #fff;
        stroke-miterlimit: 10;
      }

      .cls-6 {
        display: none;
      }

      .cls-3 {
        fill: #333;
      }

      .cls-3, .cls-4 {
        stroke: #000;
      }

      .cls-4 {
        fill: #007b7a;
      }
    </style>
  </defs>
  <!-- Generator: Adobe Illustrator 28.7.4, SVG Export Plug-In . SVG Version: 1.2.0 Build 166)  -->
  <g>
    <g id="_x38_">
      <g id="Layer_1">
        <g id="suit2">
          <path id="Shirt" class="cls-4" d="M281.2,502.8c5.6,3.7,17.7,7.7,28.6,9.9,0,0,30.8,5.3,37.9,7.7,57.4,22.3,50.4,79.7,50.4,79.7l-395.8-.2s-3.8-63.4,37.2-71.5c7.7-1.5,25.9-8.7,35.6-9.4,0,0,37.4-9,42.8-12.6.9,5.7,11.3-29.5,4-41.3,19,3.1,38.2-.2,68.9,0,42.8.4,77.3,2.9,91.1-.5-8.6,16.4-.8,38.2-.8,38.2Z"/>
          <path d="M196,505.5c-12.2,8.8-5.5,94.8-5.5,94.8h1.8s.1-10.1-.4-19.6-.7-12.2-.9-18.9c-.4-18.4,1.1-37.7,2.7-43.5,3.4-12.1,2.3-12.7,2.3-12.7Z"/>
          <circle cx="200.5" cy="523.5" r="1.2"/>
          <circle cx="199.5" cy="538.7" r="1.2"/>
          <circle cx="198.5" cy="556.7" r="1.2"/>
          <circle cx="199.5" cy="574.6" r="1.2"/>
          <circle cx="200.5" cy="588.7" r="1.2"/>
          <g class="cls-6">
            <path class="cls-3" d="M-.1,599.8s-6.3-40.2,22.5-62.8c8.8-6.9,40.4-10,54.5-14.7,7.4-2.5,40.8-17.1,43.2-18.7,1,6.1,2.5,55.6,20.3,96.3.5,1.1-140.5-.2-140.5-.2h0Z"/>
            <path class="cls-3" d="M395.7,599.8s6.3-40.2-22.5-62.8c-8.8-6.9-40.4-10-54.5-14.7-7.4-2.5-40.8-17.1-43.2-18.7-1,6.1-2.5,55.6-20.3,96.3-.5,1.1,140.5-.2,140.5-.2h0Z"/>
          </g>
        </g>
      </g>
      <path id="Shirt-neck" class="cls-4" d="M118,506.4c3.8-10.5,11.4-29.4,4.1-41.2,19,3.1,38.2-.2,68.9,0,42.8.4,77.2,2.7,91-.6-8.6,16.4,3.1,40.7,3.1,40.7l-167.1,1.2Z"/>
      <path class="cls-1" d="M385.5,563.4c-26.5-44.4-72.4-36-101.8-51.3-1.4-.7,3.7,3.1,3.7,3.1l5.5,2.1,9.8,3.2,6.1,1.4,9.2,1.8,12.5,3.3,11.7,3.3,9.8,3.9,9.2,4.8,6.7,4.9,6,5.4,4.9,5.7,4.2,5,2.7,5.3s1.4.7-.1-1.8Z"/>
      <path class="cls-1" d="M17.4,554.5c11.2-24.5,47.6-17.4,98.7-38.9,0,0,2.6-.2-5.7,3.3-8.3,3.5-9.2,3.5-9.2,3.5l-16.3,4.7-22.4,5.3-13.8,3.7-9.9,2.6-6.3,3.2-8.9,7s-6.9,7.2-6.2,5.7Z"/>
      <path d="M173.1,467.8c-5.5,3.5-2.4,37.7-2.4,37.7h.8s-.9-27.8.6-32.6,1-5.1,1-5.1Z"/>
      <circle cx="175.9" cy="479.2" r="1.2"/>
      <circle cx="175.9" cy="491.3" r="1.2"/>
      <g id="layer1">
        <g id="g6981">
          <path id="path7130" class="cls-5" d="M90.8,551.5v5.8h2.1s.2,0,.3,0c1.2-.1,2-1.6,2.1-2.6.1-1.1-.6-3-2.3-3.1-.5,0-2.1,0-2.1,0ZM90.8,558v6.9h1.9s1.1,0,2-.7c.9-.8,1.4-1.9,1.3-3.2,0-1.2-1-2.8-2.9-3h-2.3ZM95.3,550.9c1.6,0,2.6.9,2.7,1,.8.7,1.1,1.9.9,3-.3,1.8-2.5,2.6-2.5,2.6,1.9.2,3.3,1.6,3.5,3.2.2,1.5-.4,2.8-1.6,3.7-1.2.9-3.1,1.2-4.1,1.2h-8.1v-.6c1,0,1.2,0,1.2-.4,0-1.6,0-12.4,0-12.7s-.2-.4-1.2-.4c0-.3,0-.6,0-.6h9.2Z"/>
          <path id="path7132" class="cls-5" d="M107.7,551.7c-1,.7-1.7,2.2-2,3.5-.5,1.9-.4,4.2.1,6.6.5,2.3,2.1,3.2,3,3.4,1.7.4,2.8-.6,3.4-1.5,1.2-1.8,1.4-5.4,1.1-7.4-.3-1.9-.9-3.3-1.9-4.2-1.1-1-2.7-.9-3.6-.3ZM116.7,560.8c-.7,2.1-2.1,3.4-3.7,4.2-2.1,1.1-5.1,1.3-7.3,0-1.3-.8-4.6-2.8-4.2-7.7,0-1.1.6-3.7,3.6-5.7,2-1.3,4.9-1.7,7.6-.4,4.2,1.9,5.1,6.7,4,9.5Z"/>
          <path id="path7134" class="cls-5" d="M129.1,551.6c0,1.1,0,3.4,0,3.4h-.5c-.3-1.4-1-2.6-2.2-3.2-1.1-.5-2.8-.8-3.9.2-.7.6-.7,1.2-.5,1.8.4,1,1.5,1.3,2.3,1.7.7.3,2.2.8,2.2.8,1.7.6,3.5,1.7,4,3.6.2.8.2,1.7,0,2.5-.4,1.8-1.6,2.3-2.3,2.7-.3.2-3.5,1.4-7.2.2-.8-.3-1.7-.6-1.7-.6v-4.1s.4,0,.6,0c.3.7.5,1.4,1,2.2,1.3,1.9,3.1,2.4,5.1,2,.8-.2,1.7-.7,1.9-1.6.3-.9.2-2.5-2.6-3.5-2-.9-4.6-1.3-5.8-3.6-.5-1.3-.3-3.5,1.2-4.5,1.6-1.1,3.1-1.3,4.9-1.1,1.8.3,2.3.5,3.4,1Z"/>
          <path id="path7136" class="cls-5" d="M142.4,551.6c0,1.1,0,3.4,0,3.4h-.5c-.3-1.4-1-2.6-2.2-3.2-1.1-.5-2.8-.8-3.9.2-.7.6-.7,1.2-.5,1.8.4,1,1.5,1.3,2.3,1.7.7.3,2.2.8,2.2.8,1.7.6,3.5,1.7,4,3.6.2.8.2,1.7,0,2.5-.4,1.8-1.6,2.3-2.3,2.7-.3.2-3.5,1.4-7.2.2-.8-.3-1.7-.6-1.7-.6v-4.1s.4,0,.6,0c.3.7.5,1.4,1,2.2,1.3,1.9,3.1,2.4,5.1,2,.8-.2,1.7-.7,1.9-1.6.3-.9.2-2.5-2.6-3.5-2-.9-4.6-1.3-5.8-3.6-.5-1.3-.3-3.5,1.2-4.5,1.6-1.1,3.1-1.3,4.9-1.1,1.8.3,2.3.5,3.4,1Z"/>
        </g>
      </g>
      <path id="path7267" class="cls-5" d="M230.3,482c-1.8,0-3.6.3-5.6,1.2h-.4v16.5h3.5v-13.4c.7-.3,1.3-.4,2-.4,1.8,0,2.3.7,2.3,3v10.8h3.6v-11.1c0-1,0-1.7-.2-2.3.7-.3,1.3-.5,1.9-.5,1.7,0,2.4.9,2.4,3v10.8h3.5v-11.2c0-2.2-.3-3.5-1.1-4.6-.9-1.2-2.3-1.9-4.2-1.9s-3.1.4-4.4,1.1c-1-.7-2-1.1-3.5-1.1h0ZM252.2,482c-4.3,0-7.1,3.7-7.1,9.3s2.7,8.8,6.9,8.8c0,0,2.8.2,4.7-2l-1.8-2.8c-1,.8-1.6,1-2.6,1-2.4,0-3.7-1.8-3.7-5.1s1.4-5.2,3.8-5.2.9,0,1.3.2c0,0,.7.3,1.4.9l1.5-3.2c-.8-.9-1.8-1.2-2.1-1.3-.9-.3-2.3-.4-2.3-.4h0ZM190.5,482.1c-5.1,0-7.4,4.5-7.4,8.9s.8,5.7,2.3,7c1.8,1.5,3.2,1.7,6.6,1.7h4.8v-9.3c0-5.4-2.2-8.3-6.3-8.3ZM215.9,482.1c-5.1,0-7.4,4.5-7.4,8.9s.8,5.7,2.3,7c1.8,1.5,3.2,1.7,6.6,1.7h4.9v-9.3c0-5.4-2.2-8.3-6.4-8.3ZM206.2,482.1c-5.1,0-7.4,2.8-7.4,8.8v8.8h3.6v-8.8c0-3,1.4-4.9,3.5-4.9s1.5.2,2,.4l.8-4c-1.4-.2-2.5-.2-2.5-.2h0ZM264.1,482.2c-3.9,0-7.1,4-7.1,8.9s3.2,8.9,7.1,8.9,7-4,7-8.9-3.1-8.9-7-8.9ZM190.1,485.9c2.1,0,3.1,1.6,3.1,5v5h-2.2c-3,0-4.4-1.6-4.4-5.1s1.3-4.9,3.5-4.9ZM215.6,485.9c2.1,0,3.1,1.7,3.1,5v5h-2.2c-3,0-4.4-1.6-4.4-5.1s1.4-4.9,3.5-4.9h0ZM264.1,486.3c2.1,0,3.8,2.2,3.8,4.8s-1.7,4.9-3.8,4.9-3.9-2.2-3.9-4.9,1.7-4.8,3.9-4.8Z"/>
      <g>
        <path class="cls-5" d="M279.9,563.7h-2.7c-.9.6-4.3,3.1-7.6,5.5,1.1.6,2.2,1.2,3.4,1.7l6.9-7.2Z"/>
        <path class="cls-5" d="M275.8,563.7h-5c-.5.2-2.9,1.4-5.5,2.6,1.1.9,2.3,1.7,3.5,2.4l7-5Z"/>
        <path class="cls-5" d="M264.6,565.7l4.3-2h-6.7c.7.6,2.3,2,2.3,2Z"/>
        <path class="cls-5" d="M302.9,557.7c0-.5-.3-.8-.8-.9-.3,0-.8,0-1.1,0h0v2c.2,0,.6,0,.9,0,.6-.1.9-.5.9-1Z"/>
        <path class="cls-5" d="M316.8,555.1h-55.3v7.8h0s55.3,0,55.3,0v-7.8h0ZM266.5,561.6h0c-.3-.8-.5-1.4-.8-2h-1.8s0,0,0,0c-.2.6-.5,1.2-.7,1.8h0c0,0-.7,0-.7,0l2.4-5.3h.3l2.3,5.3h-.9ZM268.9,561.7c-.3,0-1-.1-1.2-.5h0v-.7h.3c.3.5.7.8,1.2.8s1-.5,1-1.1-.5-.8-1.1-1c-.6-.2-1.3-.5-1.3-1.4s.7-1.4,1.7-1.4.8,0,1.1.3l-.2.7h-.1c-.1-.4-.5-.6-.9-.6s-.9.3-.9.8.5.8,1.1,1c.6.3,1.3.5,1.3,1.4,0,1-.8,1.8-1.9,1.8ZM273.4,561.6h-.7v-4.7c-.7,0-1.1,0-1.6,0h0v-.5h3.9v.5h0c-.5,0-1,0-1.5,0v4.7ZM277.6,561.7c-1.7,0-2.8-1.1-2.8-2.7s1.2-2.7,2.8-2.7,2.9.8,2.9,2.6-1.1,2.8-2.9,2.8ZM285.7,561.6h-.3l-.4-.5s-3.2-3.5-3.2-3.5v4h-.5v-5.2h.4s3.5,3.8,3.5,3.8v-3.8h.5v5.2ZM294.7,561.6h-.8c0-1.1-.3-2.9-.4-3.7-.8,1.5-1.5,2.6-1.9,3.6h-.1l-.4-.9c-.4-.8-1.3-2.6-1.4-2.8,0,.2,0,.7,0,.7-.1,1.1-.3,2.2-.3,3h0c0,0-.6,0-.6,0h0c.2-1.3.7-4.4.7-5.1h0c0,0,.2,0,.2,0h0c.6,1.2,1.3,2.6,2.1,3.8,0-.1.9-1.6.9-1.6l1.2-2.3h.3c.2,2.2.4,3.9.6,5.1h0c0,0,0,0,0,0ZM299,561.6h0c-.3-.8-.5-1.4-.8-2h-1.8s0,0,0,0c-.3.6-.5,1.2-.7,1.8h0c0,0-.6,0-.6,0l2.4-5.3h.2l2.3,5.3h-.9ZM303.3,561.6h0l-.5-.7-.9-1.1s-.6-.7-.6-.7h-.2v2.5h-.7v-5.2h1.6c1.1,0,1.8.4,1.8,1.2s-.6,1.2-1.5,1.4c0,.1,2.1,2.6,2.1,2.6h-.9ZM308.1,556.9h0c-.5,0-1,0-1.5,0v4.7h-.7v-4.7c-.7,0-1.1,0-1.6,0h0v-.5h3.9v.5h0ZM309.4,561.6h-.7v-5.2h.7v5.2ZM314.9,561.6h-.3l-.4-.5s-3.2-3.5-3.2-3.5v4h-.5v-5.2h.4s3.5,3.8,3.5,3.8v-3.8h.5v5.2Z"/>
        <path class="cls-5" d="M296.6,559.2h1.5c0-.1-.7-1.6-.7-1.8,0,.2-.7,1.6-.8,1.8Z"/>
        <path class="cls-5" d="M260.6,558.9l-2.5.3c.3.4.7.8,1,1.2l1.4-.3v-1.3Z"/>
        <path class="cls-5" d="M277.7,556.6c-1.3,0-2,.9-2.1,2.5,0,1.4.8,2.3,2,2.3s1-.2,1.4-.6c.5-.5.7-1.2.7-1.8h0c0-.7,0-1.2-.5-1.7-.3-.4-.9-.7-1.5-.7Z"/>
        <path class="cls-5" d="M253.5,552.3s.7,1.2,1.1,1.9h27.4c0,0,0-.3,0-.3-.2-.9-.6-1.6-1.1-2.1-.7-.7-1.8-1.1-3.1-1.1h0s-25.7,0-25.7,0c.9.7,1.3,1.5,1.4,1.6Z"/>
        <path class="cls-5" d="M260.6,561c-.2,0-.5,0-.8.1.3.3.5.6.8.9v-1Z"/>
        <path class="cls-5" d="M260.6,557l-4,.3c.3.4.6.8.9,1.2l3-.4v-1.1h0Z"/>
        <path class="cls-5" d="M286.2,563.7h-1.9c-.7,1.2-3.4,5.8-5.4,9.2,1.5.4,3,.7,4.6.9l2.8-10.1Z"/>
        <path class="cls-5" d="M283.3,563.7h-2.3c-.8.9-4.3,4.5-7.2,7.5,1.4.6,2.8,1.1,4.2,1.5l5.3-9Z"/>
        <path class="cls-5" d="M317.6,562c.3-.3.5-.6.8-.9l-.8-.2v1Z"/>
        <path class="cls-5" d="M264.1,559.2h1.5c0-.1-.7-1.6-.8-1.8,0,.2-.7,1.6-.7,1.8Z"/>
        <path class="cls-5" d="M321.6,557.2l-4-.3v1.1l3,.4c.3-.4.7-.8.9-1.2Z"/>
        <path class="cls-5" d="M320,559.2l-2.5-.3v1.3c.3,0,.8.1,1.4.3.4-.4.7-.8,1-1.2Z"/>
        <path class="cls-5" d="M324.7,552.3c0,0,.5-.9,1.4-1.5h-25.7c-1.3,0-2.3.4-3.1,1.1-.5.5-.9,1.2-1.1,2.1,0,0,0,.1,0,.3h27.5c.4-.7.8-1.4,1.1-2Z"/>
        <path class="cls-5" d="M323,555.1h-5.5v1.1l4.6.3c.3-.5.6-.9.9-1.4Z"/>
        <path class="cls-5" d="M304.4,571.2l-7.2-7.5h-2.3l5.3,9c1.4-.4,2.8-.9,4.2-1.5Z"/>
        <path class="cls-5" d="M315.9,563.7h-6.7c1.1.5,2.7,1.3,4.3,2,0,0,1.6-1.3,2.3-2Z"/>
        <path class="cls-5" d="M312.9,566.2l-5.5-2.6h-5c1.5,1.1,4.3,3.1,7,5,1.2-.7,2.4-1.5,3.5-2.4Z"/>
        <path class="cls-5" d="M292,563.7l2.8,10.1c1.5-.2,3.1-.5,4.6-.9l-5.4-9.2h-1.9Z"/>
        <path class="cls-5" d="M308.6,569.1l-7.6-5.5h-2.7c1.4,1.4,4.4,4.6,6.9,7.2,1.1-.5,2.3-1.1,3.4-1.7Z"/>
        <path class="cls-5" d="M317,563.7c-.8.8-1.7,1.6-2.6,2.4,3.1,1.5,6.2,2.9,6.2,2.9.4.2,1.6.7,2.4.4l6.4-1.9c-.3,0-.5-.1-.6-.1l-11.8-3.6Z"/>
        <path class="cls-5" d="M301.7,576.9l-1.9-3.3c-1.5.4-3.1.7-4.8,1l.9,3.4c0,0,.2,1,.9,1.4.3.2.7.2,1.1.1l4.8-1.3c-.6-.5-1-1.1-1-1.3Z"/>
        <path class="cls-5" d="M308.5,575.5l-3.6-3.7c-1.4.6-2.9,1.1-4.4,1.5l1.8,3.1c.2.4,1,1.4,1.6,1.3l5.5-1.5c-.6-.3-1-.7-1-.8Z"/>
        <path class="cls-5" d="M294.2,574.6c-1.2.1-2.4.2-3.6.3.9.8,3.5,3.3,3.5,3.3.9.9,1.1,1.1,1.9,1.3-.5-.6-.7-1.3-.7-1.5l-.9-3.4Z"/>
        <path class="cls-5" d="M284.2,573.8c1.5.2,3,.3,4.5.3v-10.5h-1.7l-2.8,10.2Z"/>
        <path class="cls-5" d="M283,578.1c0,.1-.2.9-.7,1.5.4-.1.8-.3,1.2-.7,0,0,3.2-3,4.2-4-1.2,0-2.5-.1-3.6-.3l-.9,3.4Z"/>
        <path class="cls-5" d="M309.3,569.6c-1.1.7-2.3,1.3-3.5,1.8,1.9,2,3.4,3.5,3.4,3.5.3.3,1.2,1.1,2,.9l.9-.3s2.9-.8,4.2-1.1c-.5-.2-.8-.5-.9-.5l-6-4.3Z"/>
        <path class="cls-5" d="M291.2,563.7h-1.7v10.5c1.5,0,3,0,4.5-.3l-2.8-10.2Z"/>
        <path class="cls-5" d="M278.4,573.6c-1.1,1.9-1.9,3.3-1.9,3.3,0,.1-.5.8-1.1,1.3l4.8,1.3c.4,0,.8,0,1.1-.1.7-.4.9-1.4.9-1.4l.9-3.4c-1.6-.2-3.2-.5-4.8-1Z"/>
        <path class="cls-5" d="M260.6,555.1h-5.5c.3.4.6.9.9,1.4l4.5-.3v-1.1h0Z"/>
        <path class="cls-5" d="M357.1,551.1c-.2-.3-.6-.4-.9-.4h-27.8c-1.9,0-3,1.9-3,1.9-.2.5-.5,1-.9,1.5h30.4c.8,0,.9-.2,1.1-.5,0,0,1-1.6,1-1.7.1-.3.2-.5.2-.7,0-.2,0-.3,0-.3Z"/>
        <path class="cls-5" d="M322.5,557.3c-.3.4-.6.9-1,1.3l24.8,3.3c.9.1,1.2-.2,1.3-.3.2-.4,1.2-2.2,1.2-2.2,0-.2.2-.3.3-.4-.1,0-.3,0-.3,0l-26.3-1.8Z"/>
        <path class="cls-5" d="M313.7,566.6c-1.2.9-2.4,1.8-3.6,2.5,3.1,2.2,5.8,4.1,5.8,4.1,0,0,1.2.9,2.2.6,2.4-.9,2.8-1.8,3.1-2.7,0,0,.2-.5.6-1-.8-.1-1.5-.5-1.5-.5l-6.5-3.1Z"/>
        <path class="cls-5" d="M319.9,560.7c5.4,1.1,17,3.5,17,3.5.6.1,2.5.4,3.4.2l5.5-1.6-24.9-3.3c-.3.4-.7.9-1.1,1.3Z"/>
        <path class="cls-5" d="M319.3,561.3c-.5.6-1,1.1-1.6,1.7l11.4,3.5h0s1.6.5,2.8.2l5.8-1.7c-.5,0-.9-.1-.9-.1l-17.5-3.6Z"/>
        <path class="cls-5" d="M323.1,556.5l25.8,1.7c.4,0,1.6.1,2.2,0,.7-.2.9-.7,1.1-.9l1.1-1.9c0-.1.1-.2.3-.3h-29.5c-.3.5-.6.9-.9,1.4Z"/>
        <path class="cls-5" d="M268.1,569.2c-1.2-.8-2.5-1.6-3.6-2.6-3.3,1.5-6.5,3-6.5,3,0,0-.7.4-1.5.5.4.5.6.9.6,1,.3.9.7,1.8,3.1,2.7,1,.3,2.2-.6,2.2-.6l5.8-4.1Z"/>
        <path class="cls-5" d="M269.1,575l3.4-3.5c-1.2-.5-2.4-1.1-3.5-1.8-3.2,2.3-6,4.3-6,4.3,0,0-.4.3-.9.5l5.1,1.4c.8.2,1.7-.6,2-.9Z"/>
        <path class="cls-5" d="M260.5,563.1c-.6-.6-1.1-1.1-1.6-1.7-5.1,1.1-17.5,3.6-17.5,3.6,0,0-.4,0-.9.1,1.9.5,3.9,1.1,5.8,1.7,1.2.3,2.7-.2,2.8-.2l11.4-3.5Z"/>
        <path class="cls-5" d="M277.6,573.4c-1.5-.4-3-.9-4.4-1.5-2,2.1-3.6,3.7-3.6,3.7,0,0-.4.4-1,.8l5.5,1.5c.6.1,1.4-.9,1.6-1.3l1.8-3.1Z"/>
        <path class="cls-5" d="M263.8,566.1c-.9-.8-1.8-1.6-2.6-2.4-2.2.7-11.8,3.6-11.8,3.6,0,0-.3,0-.6.1,3.5,1,6.2,1.8,6.4,1.9.8.2,2-.3,2.4-.5l6.2-2.9Z"/>
        <path class="cls-5" d="M258.3,560.6c-.4-.4-.7-.9-1.1-1.3l-24.9,3.3c.9.3,3,.9,5.5,1.6.9.2,2.7,0,3.4-.2l17-3.5Z"/>
        <path class="cls-5" d="M255.1,556.5c-.3-.5-.7-1-.9-1.4h-29.5c.3.3.9,1.5,1.3,2.2.1.3.4.7,1.1.9.6.1,1.8,0,2.2,0l25.9-1.7Z"/>
        <path class="cls-5" d="M253.7,554.3c-.3-.6-.6-1.1-.9-1.5,0,0-1.1-1.9-3-1.9h-27.8c-.7,0-.9.3-1,.7,0,.1,0,.3.2.6,0,.1,1,1.7,1,1.7.2.4.4.4,1.1.5h0s30.4,0,30.4,0Z"/>
        <path class="cls-5" d="M255.7,557.3s-26.5,1.8-26.6,1.8c.1.1.2.3.3.4l1.2,2.2c0,0,.3.4,1.3.3l24.8-3.3c-.3-.5-.7-.9-1-1.3Z"/>
      </g>
      <g>
        <path class="cls-5" d="M97.1,590.8c-1.1,1.1-2.8,1.4-5.3,1.4h-3.5c-4.9,0-6.5-1.2-6.5-5.4v-2.3h4.7c0,.2,0,.4,0,.6,0,2.1.5,2.8,2.5,2.8h2.3c1.8,0,2.1-.7,2.1-2.5v-10.8h5v12.5c0,1.5-.5,2.9-1.3,3.7h0ZM117.4,580.7c0-1.4-.8-2-2.6-2h-4c-3.3,0-4,.5-4,3.4v2.4c0,2.7,1.1,3.3,4,3.3h2.9c2.8,0,3.9-.3,3.9-2.4v-.2h5.1c0,.5,0,.9,0,1.3,0,2.1-.5,3.6-1.6,4.5-1.2,1-3.2,1.2-6.1,1.2h-5.6c-2.6,0-4.4-.1-5.9-1.3-1.4-1.1-1.9-2.7-1.9-5.1v-4.7c0-5.2,2.1-6.7,7.8-6.7h5.6c2.9,0,4.8.1,6,1.1,1.1.9,1.5,2.3,1.5,4.4s0,.6,0,1h-5v-.2h0ZM125.9,592v-17.4h14.8c3.7,0,5.5,1.6,5.5,4.8s-.8,3-2.4,3.7c2.1.4,3,1.6,3,4.1s-1.6,4.7-5.3,4.7h-15.6ZM141,580c0-.9-.5-1.4-1.3-1.4h-8.8v2.9h8.8c.8,0,1.3-.5,1.3-1.4h0ZM141.5,586.4c0-.9-.5-1.5-1.4-1.5h-9.3v3.1h9.3c.9,0,1.4-.6,1.4-1.6h0Z"/>
        <path class="cls-2" d="M83.2,576c.2,0,3.5.6,3.6.6.1,0,.4,0,.5.4,0,0,.5,1.5.5,1.5,0,0,.1.4-.2.5,0,0-3.1,1-3.2,1.1,0,0-.4.2-.5-.3,0,0-.9-3.1-1-3.3,0-.1,0-.2,0-.3,0-.3.1-.3.3-.2,0,0,0,0,.1,0M83.1,575.8c0,0,3.6.6,3.7.7,0,0,.4,0,.6.5,0,0,.5,1.5.5,1.6,0,.3,0,.5-.3.6-.1,0-3.2,1.1-3.2,1.1,0,0-.5.2-.7-.3,0,0-1-3.3-1-3.4,0-.2,0-.3,0-.4,0-.4.4-.3.5-.3"/>
      </g>
      <path class="cls-5" d="M116.6,534.1h1.2v7.1h-1.2v-7.1ZM112.3,534c-.8,0-1.5.3-2,.7v-.6h-1.2v7.1h1.2v-4c0-1.1.9-2,2-2s2,.9,2,2v4h1.2v-4c0-1.8-1.4-3.2-3.2-3.2M106.7,534.1h1.2v6.8c0,2-1.7,3.6-3.7,3.7-1.6,0-3.1-1-3.5-2.6h1.3c.4.9,1.3,1.4,2.2,1.4,1.4,0,2.5-1.1,2.5-2.5v-.6c-1.5,1.4-3.8,1.3-5.2-.2-1.4-1.5-1.3-3.8.2-5.2,1.4-1.3,3.6-1.3,5,0,0,0,0-.8,0-.8ZM106.7,537.6c0-1.4-1.1-2.5-2.5-2.5s-2.5,1.1-2.5,2.5,1.1,2.5,2.5,2.5,2.5-1.1,2.5-2.5M88.5,535.1c1,0,1.9.6,2.3,1.4h1.2c-.6-1.9-2.7-3.1-4.6-2.5-1.9.6-3.1,2.7-2.5,4.6s2.7,3.1,4.6,2.5c1.2-.4,2.1-1.3,2.5-2.5h-1.2c-.6,1.2-2.1,1.8-3.3,1.2-1.2-.6-1.8-2.1-1.2-3.3.4-.9,1.3-1.5,2.3-1.5M100,537.6c0,2-1.7,3.7-3.7,3.7s-3.7-1.7-3.7-3.7,1.6-3.7,3.6-3.7,3.7,1.6,3.7,3.7M98.8,537.6c0-1.4-1.1-2.5-2.5-2.5s-2.5,1.1-2.5,2.5,1.1,2.5,2.5,2.5,2.5-1.1,2.5-2.5M137.3,534c-.8,0-1.5.3-2,.7v-.6h-1.2v7.1h1.2v-4c0-1.1.9-2.1,2-2.1s2.1.9,2.1,2v4h1.2v-4c0-1.8-1.5-3.2-3.3-3.2M131.7,534.1h1.2v7.1h-1.2v-.8c-1.5,1.4-3.8,1.3-5.2-.2s-1.3-3.8.2-5.2c.7-.6,1.6-1,2.5-1s1.8.4,2.5,1v-.8ZM131.7,537.6c0-1.4-1.1-2.5-2.5-2.5s-2.5,1.1-2.5,2.5,1.1,2.5,2.5,2.5c1.4,0,2.5-1.1,2.5-2.5M144.4,535.3v-1.2h-1.8v-1.9h-1.2v6.6c0,1.3,1.1,2.4,2.4,2.4h.6v-1.2h-.6c-.6,0-1.2-.5-1.2-1.2v-3.5h1.8,0ZM117.2,531.6c-.4,0-.8.4-.8.8s.4.8.8.8.8-.4.8-.8c0-.4-.3-.8-.8-.8t0,0M124.9,534.1h-5.9v1.2h4.3l-4.3,4.7v1.2h5.9v-1.2h-4.4l4.3-4.7v-1.2s0,0,0,0Z"/>
    </g>
  </g>
</svg>