<?xml version="1.0" encoding="UTF-8"?>
<svg xmlns="http://www.w3.org/2000/svg" version="1.1" viewBox="0 0 400 600">
  <defs>
    <style>
      .cls-1 {
        fill: #1b008a;
      }

      .cls-2, .cls-3, .cls-4 {
        fill: $[secondary];		
      }

      .cls-5 {
        fill: #ffe300;
      }

      .cls-3, .cls-6, .cls-7, .cls-8 {
        fill-rule: evenodd;
      }

      .cls-9 {
        stroke: #fff;
      }

      .cls-9, .cls-10 {
        fill: $[primary];
      }

      .cls-10 {
        stroke-width: 6px;
      }

      .cls-10, .cls-4 {
        stroke: $[accent];
      }

      .cls-11 {
        fill: #111624;
      }

      .cls-4 {
        stroke-width: 10px;
      }

      .cls-6 {
        fill: #1e71b8;
      }

      .cls-8 {
        fill: #cc2229;
      }
    </style>
  </defs>
  <!-- Generator: Adobe Illustrator 28.7.4, SVG Export Plug-In . SVG Version: 1.2.0 Build 166)  -->
  <g>
    <g id="_x31_6">
      <g id="Layer_1">
        <g id="suit2">
          <path id="Shirt" class="cls-10" d="M281.2,502.8c5.6,3.7,17.7,7.7,28.6,9.9,0,0,30.8,5.3,37.9,7.7,57.4,22.3,50.4,79.7,50.4,79.7l-395.8-.2s-3.8-63.4,37.2-71.5c7.7-1.5,25.9-8.7,35.6-9.4,0,0,37.4-9,42.8-12.6.9,5.7,11.3-29.5,4-41.3,19,3.1,38.2-.2,68.9,0,42.8.4,77.3,2.9,91.1-.5-8.6,16.4-.8,38.2-.8,38.2Z"/>
          <path d="M196,505.5c-12.2,8.8-5.5,94.8-5.5,94.8h1.8s.1-10.1-.4-19.6-.7-12.2-.9-18.9c-.4-18.4,1.1-37.7,2.7-43.5,3.4-12.1,2.3-12.7,2.3-12.7Z"/>
          <circle cx="200.5" cy="523.5" r="1.2"/>
          <circle cx="199.5" cy="538.7" r="1.2"/>
          <circle cx="198.5" cy="556.7" r="1.2"/>
          <circle cx="199.5" cy="574.6" r="1.2"/>
          <circle cx="200.5" cy="588.7" r="1.2"/>
        </g>
      </g>
      <path id="Shirt-neck" class="cls-10" d="M118,506.4c3.8-10.5,11.4-29.4,4.1-41.2,19,3.1,38.2-.2,68.9,0,42.8.4,77.2,2.7,91-.6-8.6,16.4,3.1,40.7,3.1,40.7l-167.1,1.2Z"/>
      <g>
        <path class="cls-4" d="M29.1,548.3c-.1.6-.5,1.6-1,3-.1.3-.2.7-.3.8,0,.1-.2.4-.3.7-.1.3-.3.8-.4,1.1,0,.3-.2.7-.3.9,0,.2-.2.5-.2.7,0,.3-.2.4-.5.7-.6.4-1.6,1.3-2.3,2-.3.3-.7.7-.8.8s-.3.4-.5.5c-.1.1-.3.4-.4.5-.5.7-1.4,2.1-1.4,2.2,0,0,0,.2-.1.2-.2.1-.9,2.3-1,3.2,0,.5-.3,1.5-.4,2.2-.5,2-.3,2.9.5,3.5.8.5,1.5.5,2.8-.3.5-.3,1-.6,1.1-.8.1-.2.4-.4.5-.4.2-.1.5-.5,1-1.1.1-.2.3-.4.4-.6.1-.1.3-.4.4-.6.1-.2.3-.5.5-.6.1-.2.5-.8,1-1.4.4-.6.9-1.3,1-1.5.2-.2.4-.6.6-.8.3-.4.3-.4.8-.6.3,0,.8-.2,1.1-.3.8-.2,1.3-.3,2.2-.6.5-.1,1.1-.3,1.5-.4.3,0,.8-.2,1-.2.2,0,.5-.1.7-.2s.4-.1.5-.1c.1,0,.3,0,.4,0s.3,0,.4,0c.1,0,.3,0,.4,0,.2-.1.2-.1-.1-.5-.2-.2-.9-1.3-1.6-2.5-1.4-2.3-1.4-2.4-1.1-2.7s.3-.3.5-.6.5-.7.6-1c.2-.2.4-.6.5-.9s.3-.4.4-.5c0,0,.1-.2.2-.3s0-.2.1-.3.4-.5.8-1.1,1.1-1.6,1.5-2.3c.4-.7,1.2-1.9,1.8-2.7.5-.8,1-1.5,1-1.5s.4-.5.8-1.1,1-1.5,1.5-2.1c1.2-1.6,1.3-1.8,1.3-1.9,0-.2-.4,0-.7.3-.9,1-2.1,2.1-3,2.8-.3.2-.6.5-.7.6-.1.1-.6.5-1,.9s-1,.9-1.3,1.1c-.3.3-.9.8-1.3,1.1-.7.6-1.3,1.1-2.4,2.1-.3.3-.7.6-.8.6-.2.1-.5.4-2,1.8-.4.4-.8.7-.9.7-.2,0-.2,0-.8-.8-1-1.4-1.7-2.4-1.8-2.5-.2-.2-.3,0-.5.7h0ZM30.8,551.5c.5.7.9,1.3,1,1.3s.3-.1.5-.3c.9-.8,2.1-1.8,2.7-2.4.4-.3,1-.8,1.3-1.1.3-.3.8-.7,1-.9.2-.2.5-.4.5-.5,0-.1.2-.2.3-.3s.4-.3.6-.6c.5-.5.7-.7,1-.7.2,0,.2,0,0,.4-.1.2-.3.4-.3.5s-.2.3-.4.6c-.2.3-.5.6-.6.8s-.6.8-1,1.5c-.5.7-.9,1.3-1,1.4s-.2.2-.3.5-.3.5-.4.6c-.4.5-.6.9-.6,1,0,0,0,.1-.1.2s-.4.5-.8,1l-.6.9,1.3,2.1c.7,1.2,1.3,2.2,1.3,2.2,0,0-.3.1-.6.2-.3,0-.8.2-1.2.3-.3,0-.8.2-1,.2s-.7.2-1,.2-.7.2-.9.2c-.2,0-.7.2-1.2.3-.5.1-1.1.3-1.3.3-.4,0-.4,0-.8.7-.2.3-.4.6-.5.6s-.4.5-.8,1.2c-1.1,1.7-1.7,2.5-2.2,3.2-.2.3-.5.7-.5.7,0,0-.1.2-.3.3s-.3.3-.4.4c-.5.6-1,1.1-1.7,1.5s-.7.4-1,.3c-.2,0-.4-.1-.5-.2-.1-.2,0-1.5.3-2.4.2-.7.7-1.5,1.1-2.1,0,0,.2-.2.2-.3.3-.4.7-.9,2.1-2.4.2-.2.5-.5.6-.7.1-.1.3-.3.3-.3s.4-.4.7-.8c.7-.8.7-1.1.4-1.3-.2,0-.2,0-.4,0-.6.6-1.3,1.5-1.6,2.1,0,.2-.3.5-.5.7-.5.4-1.1,1-1.6,1.6-.5.5-.8.7-.9.6-.1-.1.5-1.7.8-2.1,0-.1.2-.4.3-.5.4-.9,1.5-2.2,2.7-3.3.7-.7,1.9-1.7,2.3-1.9s.4-.3.7-.9c.2-.4.3-.8.3-.9s.2-.6.3-1c.2-.4.3-.9.4-1.1,0-.2.2-.7.4-1.1.2-.4.3-1,.4-1.2.2-.8.3-.8,1.2.7h0Z"/>
        <path class="cls-4" d="M24.5,564.1c-.1.2-.5.7-.7,1-.7.9-1.3,2-1.1,2.2.3.2,1.3-.8,1.7-1.7.1-.3.2-.5.3-.5s0-.1,0-.2c0,0,.2-.4.3-.7.1-.3.2-.6.2-.7,0-.2-.5.2-.8.6Z"/>
        <path class="cls-2" d="M29.1,548.3c-.1.6-.5,1.6-1,3-.1.3-.2.7-.3.8,0,.1-.2.4-.3.7-.1.3-.3.8-.4,1.1,0,.3-.2.7-.3.9,0,.2-.2.5-.2.7,0,.3-.2.4-.5.7-.6.4-1.6,1.3-2.3,2-.3.3-.7.7-.8.8s-.3.4-.5.5c-.1.1-.3.4-.4.5-.5.7-1.4,2.1-1.4,2.2,0,0,0,.2-.1.2-.2.1-.9,2.3-1,3.2,0,.5-.3,1.5-.4,2.2-.5,2-.3,2.9.5,3.5.8.5,1.5.5,2.8-.3.5-.3,1-.6,1.1-.8.1-.2.4-.4.5-.4.2-.1.5-.5,1-1.1.1-.2.3-.4.4-.6.1-.1.3-.4.4-.6.1-.2.3-.5.5-.6.1-.2.5-.8,1-1.4.4-.6.9-1.3,1-1.5.2-.2.4-.6.6-.8.3-.4.3-.4.8-.6.3,0,.8-.2,1.1-.3.8-.2,1.3-.3,2.2-.6.5-.1,1.1-.3,1.5-.4.3,0,.8-.2,1-.2.2,0,.5-.1.7-.2s.4-.1.5-.1c.1,0,.3,0,.4,0s.3,0,.4,0c.1,0,.3,0,.4,0,.2-.1.2-.1-.1-.5-.2-.2-.9-1.3-1.6-2.5-1.4-2.3-1.4-2.4-1.1-2.7s.3-.3.5-.6.5-.7.6-1c.2-.2.4-.6.5-.9s.3-.4.4-.5c0,0,.1-.2.2-.3s0-.2.1-.3.4-.5.8-1.1,1.1-1.6,1.5-2.3c.4-.7,1.2-1.9,1.8-2.7.5-.8,1-1.5,1-1.5s.4-.5.8-1.1,1-1.5,1.5-2.1c1.2-1.6,1.3-1.8,1.3-1.9,0-.2-.4,0-.7.3-.9,1-2.1,2.1-3,2.8-.3.2-.6.5-.7.6-.1.1-.6.5-1,.9s-1,.9-1.3,1.1c-.3.3-.9.8-1.3,1.1-.7.6-1.3,1.1-2.4,2.1-.3.3-.7.6-.8.6-.2.1-.5.4-2,1.8-.4.4-.8.7-.9.7-.2,0-.2,0-.8-.8-1-1.4-1.7-2.4-1.8-2.5-.2-.2-.3,0-.5.7h0ZM30.8,551.5c.5.7.9,1.3,1,1.3s.3-.1.5-.3c.9-.8,2.1-1.8,2.7-2.4.4-.3,1-.8,1.3-1.1.3-.3.8-.7,1-.9.2-.2.5-.4.5-.5,0-.1.2-.2.3-.3s.4-.3.6-.6c.5-.5.7-.7,1-.7.2,0,.2,0,0,.4-.1.2-.3.4-.3.5s-.2.3-.4.6c-.2.3-.5.6-.6.8s-.6.8-1,1.5c-.5.7-.9,1.3-1,1.4s-.2.2-.3.5-.3.5-.4.6c-.4.5-.6.9-.6,1,0,0,0,.1-.1.2s-.4.5-.8,1l-.6.9,1.3,2.1c.7,1.2,1.3,2.2,1.3,2.2,0,0-.3.1-.6.2-.3,0-.8.2-1.2.3-.3,0-.8.2-1,.2s-.7.2-1,.2-.7.2-.9.2c-.2,0-.7.2-1.2.3-.5.1-1.1.3-1.3.3-.4,0-.4,0-.8.7-.2.3-.4.6-.5.6s-.4.5-.8,1.2c-1.1,1.7-1.7,2.5-2.2,3.2-.2.3-.5.7-.5.7,0,0-.1.2-.3.3s-.3.3-.4.4c-.5.6-1,1.1-1.7,1.5s-.7.4-1,.3c-.2,0-.4-.1-.5-.2-.1-.2,0-1.5.3-2.4.2-.7.7-1.5,1.1-2.1,0,0,.2-.2.2-.3.3-.4.7-.9,2.1-2.4.2-.2.5-.5.6-.7.1-.1.3-.3.3-.3s.4-.4.7-.8c.7-.8.7-1.1.4-1.3-.2,0-.2,0-.4,0-.6.6-1.3,1.5-1.6,2.1,0,.2-.3.5-.5.7-.5.4-1.1,1-1.6,1.6-.5.5-.8.7-.9.6-.1-.1.5-1.7.8-2.1,0-.1.2-.4.3-.5.4-.9,1.5-2.2,2.7-3.3.7-.7,1.9-1.7,2.3-1.9s.4-.3.7-.9c.2-.4.3-.8.3-.9s.2-.6.3-1c.2-.4.3-.9.4-1.1,0-.2.2-.7.4-1.1.2-.4.3-1,.4-1.2.2-.8.3-.8,1.2.7h0Z"/>
        <path class="cls-2" d="M24.5,564.1c-.1.2-.5.7-.7,1-.7.9-1.3,2-1.1,2.2.3.2,1.3-.8,1.7-1.7.1-.3.2-.5.3-.5s0-.1,0-.2c0,0,.2-.4.3-.7.1-.3.2-.6.2-.7,0-.2-.5.2-.8.6Z"/>
      </g>
      <g>
        <path class="cls-4" d="M374.4,554.8c-.5-.3-1.4-.9-2.6-1.7-.3-.2-.6-.4-.7-.5-.1,0-.4-.3-.6-.5-.2-.2-.7-.5-.9-.7-.3-.2-.6-.4-.8-.5-.1-.1-.4-.3-.6-.4-.2-.2-.4-.3-.5-.7-.2-.7-.8-1.9-1.3-2.8-.2-.4-.5-.9-.6-1s-.2-.4-.4-.6c-.1-.1-.3-.4-.4-.5-.5-.7-1.6-1.9-1.8-2,0,0-.2-.1-.2-.2,0-.2-2-1.5-2.8-1.8-.5-.2-1.4-.7-2-1-1.7-1-2.7-1.1-3.5-.4-.7.6-.8,1.3-.5,2.8.2.6.4,1.1.5,1.3.1.2.3.4.3.6,0,.2.3.7.8,1.2.1.1.3.4.4.6.1.1.3.4.5.6.1.2.4.4.5.6.1.2.6.7,1.1,1.3.5.6,1,1.2,1.2,1.4.2.2.5.6.6.8.3.4.3.4.3.9,0,.3,0,.8,0,1.1,0,.9,0,1.3,0,2.3,0,.5,0,1.2,0,1.5,0,.3,0,.8,0,1,0,.2,0,.5,0,.7s0,.4,0,.5c0,.1,0,.3,0,.4s0,.3,0,.4c0,0,0,.3,0,.4,0,.2,0,.2.5,0,.2-.1,1.5-.5,2.9-.8,2.6-.7,2.7-.7,2.8-.3s.2.4.5.7.6.7.8.9c.2.2.5.6.7.8s.3.4.4.5c0,0,.1.2.2.2s.2.1.2.2.4.5.9,1.1,1.3,1.5,1.8,2.1c.5.6,1.4,1.7,2.1,2.4.6.7,1.1,1.3,1.1,1.4s.4.5.8,1,1.2,1.4,1.6,2c1.2,1.6,1.4,1.8,1.5,1.7.2,0,.2-.4,0-.7-.7-1.2-1.4-2.6-1.9-3.6-.1-.3-.3-.7-.4-.8,0-.1-.3-.7-.6-1.2s-.5-1.2-.7-1.6c-.2-.3-.5-1-.7-1.5-.4-.9-.7-1.5-1.4-2.8-.2-.4-.4-.8-.4-.9,0-.2-.2-.6-1.2-2.4-.2-.5-.4-1-.5-1.1,0-.2.1-.2,1-.5,1.7-.5,2.8-.9,2.9-1,.2-.1,0-.3-.5-.6h0ZM370.8,555.6c-.8.2-1.5.5-1.6.6s0,.3.2.6c.6,1.1,1.2,2.5,1.5,3.2.2.5.5,1.1.7,1.5.2.4.4.9.6,1.2.1.3.3.6.4.6,0,0,.2.2.2.4s.2.4.4.7c.4.6.5.8.4,1.1,0,.2-.1.2-.4-.2-.2-.2-.3-.4-.3-.4s-.2-.3-.5-.6c-.2-.3-.5-.6-.6-.8s-.6-.8-1.2-1.4c-.6-.6-1-1.2-1-1.3s-.2-.3-.4-.5-.4-.4-.4-.5c-.4-.5-.7-.9-.8-.9,0,0-.1,0-.1-.2s-.4-.5-.7-1l-.7-.9-2.4.7c-1.3.4-2.5.7-2.5.6,0,0,0-.3,0-.6,0-.3,0-.8,0-1.2,0-.3,0-.8,0-1s0-.7,0-1,0-.7,0-.9c0-.2,0-.7,0-1.2,0-.5,0-1.1,0-1.3,0-.4,0-.4-.4-.9-.3-.3-.5-.6-.5-.6s-.4-.5-.9-1.1c-1.3-1.5-2-2.3-2.5-3-.3-.3-.5-.6-.6-.7,0,0-.1-.2-.2-.3s-.2-.4-.3-.5c-.5-.6-.8-1.3-1-2s-.2-.8,0-1.1c0-.2.3-.4.3-.4.3,0,1.4.4,2.2,1,.6.4,1.3,1.1,1.7,1.6,0,0,.2.2.2.3.3.4.7,1,1.7,2.7.2.3.4.6.5.8.1.1.2.3.2.4s.3.5.6.9c.6.9.9,1,1.2.7.1-.1.1-.2,0-.5-.4-.7-1.1-1.7-1.6-2.1-.1-.1-.4-.4-.5-.7-.3-.6-.7-1.3-1.1-2-.4-.6-.5-1-.3-1.1.1,0,1.5.9,1.8,1.4,0,.1.3.3.4.4.7.7,1.7,2.1,2.5,3.5.5.9,1.1,2.3,1.2,2.7s.2.5.7.9c.3.3.7.5.8.6s.5.3.9.6c.4.3.8.6,1,.7.2,0,.6.4,1,.6.4.3.9.6,1.1.7.7.4.7.5-1,1h0Z"/>
        <path class="cls-4" d="M360.5,546c-.2-.2-.5-.6-.7-.9-.6-.9-1.6-1.8-1.8-1.6-.3.2.4,1.5,1.1,2.1.2.2.4.4.4.4s0,.1.2.2c0,0,.4.3.6.5.3.2.5.4.6.4.2,0,0-.5-.4-.9Z"/>
        <path class="cls-2" d="M374.7,554.8c-.5-.3-1.4-.9-2.6-1.7-.3-.2-.6-.4-.7-.5-.1,0-.4-.3-.6-.5-.2-.2-.7-.5-.9-.7-.3-.2-.6-.4-.8-.5-.1-.1-.4-.3-.6-.4-.2-.2-.4-.3-.5-.7-.2-.7-.8-1.9-1.3-2.8-.2-.4-.5-.9-.6-1s-.2-.4-.4-.6c-.1-.1-.3-.4-.4-.5-.5-.7-1.6-1.9-1.8-2,0,0-.2-.1-.2-.2,0-.2-2-1.5-2.8-1.8-.5-.2-1.4-.7-2-1-1.7-1-2.7-1.1-3.5-.4-.7.6-.8,1.3-.5,2.8.2.6.4,1.1.5,1.3.1.2.3.4.3.6,0,.2.3.7.8,1.2.1.1.3.4.4.6.1.1.3.4.5.6.1.2.4.4.5.6.1.2.6.7,1.1,1.3.5.6,1,1.2,1.2,1.4.2.2.5.6.6.8.3.4.3.4.3.9,0,.3,0,.8,0,1.1,0,.9,0,1.3,0,2.3,0,.5,0,1.2,0,1.5,0,.3,0,.8,0,1,0,.2,0,.5,0,.7s0,.4,0,.5c0,.1,0,.3,0,.4s0,.3,0,.4c0,0,0,.3,0,.4,0,.2,0,.2.5,0,.2-.1,1.5-.5,2.9-.8,2.6-.7,2.7-.7,2.8-.3s.2.4.5.7.6.7.8.9c.2.2.5.6.7.8s.3.4.4.5c0,0,.1.2.2.2s.2.1.2.2.4.5.9,1.1,1.3,1.5,1.8,2.1c.5.6,1.4,1.7,2.1,2.4.6.7,1.1,1.3,1.1,1.4s.4.5.8,1,1.2,1.4,1.6,2c1.2,1.6,1.4,1.8,1.5,1.7.2,0,.2-.4,0-.7-.7-1.2-1.4-2.6-1.9-3.6-.1-.3-.3-.7-.4-.8,0-.1-.3-.7-.6-1.2s-.5-1.2-.7-1.6c-.2-.3-.5-1-.7-1.5-.4-.9-.7-1.5-1.4-2.8-.2-.4-.4-.8-.4-.9,0-.2-.2-.6-1.2-2.4-.2-.5-.4-1-.5-1.1,0-.2.1-.2,1-.5,1.7-.5,2.8-.9,2.9-1,.2-.1,0-.3-.5-.6h0ZM371.2,555.6c-.8.2-1.5.5-1.6.6s0,.3.2.6c.6,1.1,1.2,2.5,1.5,3.2.2.5.5,1.1.7,1.5.2.4.4.9.6,1.2.1.3.3.6.4.6,0,0,.2.2.2.4s.2.4.4.7c.4.6.5.8.4,1.1,0,.2-.1.2-.4-.2-.2-.2-.3-.4-.3-.4s-.2-.3-.5-.6c-.2-.3-.5-.6-.6-.8s-.6-.8-1.2-1.4c-.6-.6-1-1.2-1-1.3s-.2-.3-.4-.5-.4-.4-.4-.5c-.4-.5-.7-.9-.8-.9,0,0-.1,0-.1-.2s-.4-.5-.7-1l-.7-.9-2.4.7c-1.3.4-2.5.7-2.5.6,0,0,0-.3,0-.6,0-.3,0-.8,0-1.2,0-.3,0-.8,0-1s0-.7,0-1,0-.7,0-.9c0-.2,0-.7,0-1.2,0-.5,0-1.1,0-1.3,0-.4,0-.4-.4-.9-.3-.3-.5-.6-.5-.6s-.4-.5-.9-1.1c-1.3-1.5-2-2.3-2.5-3-.3-.3-.5-.6-.6-.7,0,0-.1-.2-.2-.3s-.2-.4-.3-.5c-.5-.6-.8-1.3-1-2s-.2-.8,0-1.1c0-.2.3-.4.3-.4.3,0,1.4.4,2.2,1,.6.4,1.3,1.1,1.7,1.6,0,0,.2.2.2.3.3.4.7,1,1.7,2.7.2.3.4.6.5.8.1.1.2.3.2.4s.3.5.6.9c.6.9.9,1,1.2.7.1-.1.1-.2,0-.5-.4-.7-1.1-1.7-1.6-2.1-.1-.1-.4-.4-.5-.7-.3-.6-.7-1.3-1.1-2-.4-.6-.5-1-.3-1.1.1,0,1.5.9,1.8,1.4,0,.1.3.3.4.4.7.7,1.7,2.1,2.5,3.5.5.9,1.1,2.3,1.2,2.7s.2.5.7.9c.3.3.7.5.8.6s.5.3.9.6c.4.3.8.6,1,.7.2,0,.6.4,1,.6.4.3.9.6,1.1.7.7.4.7.5-1,1h0Z"/>
        <path class="cls-2" d="M360.9,546c-.2-.2-.5-.6-.7-.9-.6-.9-1.6-1.8-1.8-1.6-.3.2.4,1.5,1.1,2.1.2.2.4.4.4.4s0,.1.2.2c0,0,.4.3.6.5.3.2.5.4.6.4.2,0,0-.5-.4-.9Z"/>
      </g>
      <g>
        <rect class="cls-9" x="252.1" y="551.7" width="57.7" height="39.1"/>
        <path id="path668-9-0-8" class="cls-11" d="M281.4,578.4c-1.5,0-3.1-.2-4.3-.4-3.7-.6-7.8-1.9-12.1-4-1-.5-2.3-1.1-2.3-1.2,0,0,.3,0,.6.2,2.9.9,7.1,1.7,10.4,2.1,2.4.3,4,.4,6.4.4,2.1,0,2.5,0,3.9-.3,3.5-.6,6-1.5,7.5-2.7,1.7-1.3,2-2.9.8-4.6-.3-.4-1-1.1-1.5-1.5-2.4-1.9-5.1-3.3-7.8-4-.4-.1-.9-.2-1.1-.3h-.3c0,0,.3-.1.3-.1.4,0,2.4,0,3.4.1,3.8.4,7.7,1.4,11.3,2.9,1.6.7,2.3,1,3.2,1.7,2.5,1.9,2.9,4.1,1,6.1-.5.6-1.7,1.4-2.7,2-2.9,1.7-6.8,2.8-10.9,3.3-1.7.2-4.2.2-5.8.2h0ZM279.8,570.6c-4.5-.2-9.2-1.3-13.5-3.1-1.8-.8-2.7-1.4-3.7-2.3-1.8-1.8-1.9-3.7-.1-5.5,1.3-1.3,3.6-2.7,6.1-3.6,3.5-1.2,7-1.8,11.3-1.8,3.6,0,6.5.3,9.4,1.1,2.5.6,5.2,1.6,8,2.9.8.4,3,1.5,3.2,1.6,0,0,0,0-.6-.1-3.8-1.1-8.5-2-12.5-2.4-2.7-.2-5.8-.3-7.4,0-6.6.9-10.3,3.2-9.8,6,.2,1,1,2,2.3,3,2.4,1.8,5.1,3.2,7.8,3.9.4,0,.8.2,1,.3h.3c0,.1-.2.1-.2.1-.2,0-.9,0-1.6,0h0ZM287.2,570c-3.6-.2-6.8-1.1-9-2.5-1.9-1.2-3.4-3-3.9-4.7h0c0-.1,1.1,0,1.1,0,.6,0,1.4,0,1.7,0,6.2.7,10.3,3.1,11.8,6.9,0,.2.1.3.1.3,0,0-1.4,0-1.8,0h0Z"/>
        <path id="path668-0-8" class="cls-2" d="M280.6,577.5c-1.5,0-3.1-.2-4.3-.4-3.7-.6-7.8-1.9-12.1-4-1-.5-2.3-1.1-2.3-1.2,0,0,.3,0,.6.2,2.9.9,7.1,1.7,10.4,2.1,2.4.3,4,.4,6.4.4,2.1,0,2.5,0,3.9-.3,3.5-.6,6-1.5,7.5-2.7,1.7-1.3,2-2.9.8-4.6-.3-.4-1-1.1-1.5-1.5-2.4-1.9-5.1-3.3-7.8-4-.4-.1-.9-.2-1.1-.3h-.3c0,0,.3-.1.3-.1.4,0,2.4,0,3.4.1,3.8.4,7.7,1.4,11.3,2.9,1.6.7,2.3,1,3.2,1.7,2.5,1.9,2.9,4.1,1,6.1-.5.6-1.7,1.4-2.7,2-2.9,1.7-6.8,2.8-10.9,3.3-1.7.2-4.2.2-5.8.2h0ZM279,569.7c-4.5-.2-9.2-1.3-13.5-3.1-1.8-.8-2.7-1.4-3.7-2.3-1.8-1.8-1.9-3.7-.1-5.5,1.3-1.3,3.6-2.7,6.1-3.6,3.5-1.2,7-1.8,11.3-1.8,3.6,0,6.5.3,9.4,1.1,2.5.6,5.2,1.6,8,2.9.8.4,3,1.5,3.2,1.6,0,0,0,0-.6-.1-3.8-1.1-8.5-2-12.5-2.4-2.7-.2-5.8-.3-7.4,0-6.6.9-10.3,3.2-9.8,6,.2,1,1,2,2.3,3,2.4,1.8,5.1,3.2,7.8,3.9.4,0,.8.2,1,.3h.3c0,.1-.2.1-.2.1-.2,0-.9,0-1.6,0h0ZM286.4,569.1c-3.6-.2-6.8-1.1-9-2.5-1.9-1.2-3.4-3-3.9-4.7h0c0-.1,1.1,0,1.1,0,.6,0,1.4,0,1.7,0,6.2.7,10.3,3.1,11.8,6.9,0,.2.1.3.1.3,0,0-1.4,0-1.8,0h0Z"/>
        <path id="path682-1-3-7" class="cls-11" d="M272.4,581.4v.6c0,.5,0,6.3,0,6.5,0,0,2.8,0,3,0,.9-.2,1.7-.8,2-1.7.5-1.1.4-2.8-.1-3.9-.4-.7-1-1.2-1.7-1.4-.4-.1-.5-.1-1.9-.1h-1.2ZM274.1,582.1c.1,0,.3,0,.4,0,1,.2,1.5.9,1.6,2.3,0,.3,0,1.1,0,1.3,0,.6-.3,1-.5,1.3-.2.3-.5.4-.8.5-.1,0-.2,0-.5,0h-.3s0-2.8,0-2.8v-2.8h0s0,0,.2,0h0Z"/>
        <path id="path686-2-9-5" class="cls-11" d="M268,581.4v7.1h3.7v-.9h-2.2v-6.2h-1.5Z"/>
        <path id="path684-2-2-9" class="cls-11" d="M265.3,581.4v7.1h1.5v-7.1h-1.5Z"/>
        <path id="path586-2-7-3" class="cls-11" d="M257.3,581.4v3.6s0,3.6,0,3.6h.3c.2,0,.3,0,.3,0,0,0,0-.4,0-2.7v-2.7s.3.8.3.8c.2.5.6,1.7.9,2.7l.6,1.9h1l.9-2.8.9-2.8v2.8s0,2.8,0,2.8h1.4v-7.1h-1.7l-.8,2.5c-.5,1.4-.8,2.5-.8,2.5,0,0,0-.1-.1-.3,0-.2-.5-1.3-.9-2.5l-.7-2.2h-.8s-.8,0-.8,0Z"/>
        <path id="path698-9-9-6" class="cls-11" d="M291.4,585c-.6-1.9-1.1-3.5-1.1-3.5,0,0,.4,0,.8,0h.8s.8,2.8.8,2.8c.5,1.6.8,2.8.8,2.9,0,0,.3-.9.8-2.8l.8-2.9h.5s.5,0,.5,0v.2c0,0-.6,1.7-1.1,3.6l-1,3.4h-.8s-.8,0-.8,0l-1.1-3.5Z"/>
        <path id="path696-4-6-0" class="cls-11" d="M285.9,588.5s0-1.6,0-3.6v-3.6h3.9v.9h-2.4v2.1h2.2v.9h-2.2v2.3h1.2s1.2,0,1.2,0v.9h-1.9c-1,0-1.9,0-1.9,0h0Z"/>
        <path id="path694-9-2-2" class="cls-11" d="M303.6,586.2l-1.5-2.3v2.3s0,2.3,0,2.3h-.8v-7.1h.6s.6,0,.6,0l1.5,2.3,1.5,2.3v-2.3s0-2.3,0-2.3h.8v7.1h-1.1l-1.5-2.3h0Z"/>
        <path id="path692-2-0-7" class="cls-11" d="M296.7,585v-3.6h3.8v.9h-2.4v2.2h2.2v.8h-2.2v2.3h2.4v.9h-3.8v-3.6Z"/>
        <path id="path646-9-0-0" class="cls-11" d="M282.6,588.8c-.5,0-1-.2-1.3-.6-.2-.2-.9-1.2-.9-1.3s.8-.7.8-.7,0,.1.1.2c.3.8.8,1.3,1.2,1.4.1,0,.2,0,.4,0,.6,0,.9-.2,1-.6,0-.1,0-.2,0-.4s0-.2,0-.3c0-.1-.2-.3-.3-.4-.2-.1-.7-.3-1.2-.4-.1,0-.3,0-.4-.1-.4-.2-.8-.5-1.1-.9-.2-.3-.3-.7-.3-1.1,0-.4,0-1,.3-1.3,0-.2.4-.6.6-.7.4-.3.9-.5,1.3-.5.3,0,.9.2,1.2.3.3.1.6.3.8.6.2.2.4.5.4.6s-.2.1-.4.3c-.2.1-.4.3-.4.2,0,0,0,0,0,0,0-.1-.2-.4-.4-.6-.3-.4-.8-.6-1.3-.6-.5,0-.8.2-.9.5,0,.2,0,.5,0,.7,0,0,0,0,0,.1,0,0,0,.1.1.2.2.3.6.4,1.2.5.3,0,.5.1.7.2.7.3,1.2.9,1.4,1.8,0,.3,0,.8,0,1.1,0,.2-.2.5-.3.7-.3.5-.9.9-1.5,1.1-.2,0-.5,0-.8,0h0Z"/>
        <path id="path682-15-7" class="cls-2" d="M272,580.9v.6c0,.5,0,6.3,0,6.5,0,0,2.8,0,3,0,.9-.2,1.7-.8,2-1.7.5-1.1.4-2.8-.1-3.9-.4-.7-1-1.2-1.7-1.4-.4-.1-.5-.1-1.9-.1h-1.2ZM273.7,581.6c.1,0,.3,0,.4,0,1,.2,1.5.9,1.6,2.3,0,.3,0,1.1,0,1.3,0,.6-.3,1-.5,1.3-.2.3-.5.4-.8.5-.1,0-.2,0-.5,0h-.3s0-2.8,0-2.8v-2.8h0s0,0,.2,0h0Z"/>
        <path id="path686-6-7" class="cls-2" d="M267.6,580.9v7.1h3.7v-.9h-2.2v-6.2h-1.5Z"/>
        <path id="path684-8-6" class="cls-2" d="M264.9,580.9v7.1h1.5v-7.1h-1.5Z"/>
        <path id="path586-1-5" class="cls-2" d="M256.9,580.9v3.6s0,3.6,0,3.6h.3c.2,0,.3,0,.3,0,0,0,0-.4,0-2.7v-2.7s.3.8.3.8c.2.5.6,1.7.9,2.7l.6,1.9h1l.9-2.8.9-2.8v2.8s0,2.8,0,2.8h1.4v-7.1h-1.7l-.8,2.5c-.5,1.4-.8,2.5-.8,2.5,0,0,0-.1-.1-.3,0-.2-.5-1.3-.9-2.5l-.7-2.2h-.8s-.8,0-.8,0Z"/>
        <path id="path698-7-4" class="cls-2" d="M291,584.5c-.6-1.9-1.1-3.5-1.1-3.5,0,0,.4,0,.8,0h.8s.8,2.8.8,2.8c.5,1.6.8,2.8.8,2.9,0,0,.3-.9.8-2.8l.8-2.9h.5s.5,0,.5,0v.2c0,0-.6,1.7-1.1,3.6l-1,3.4h-.8s-.8,0-.8,0l-1.1-3.5Z"/>
        <path id="path696-6-1" class="cls-2" d="M285.5,588s0-1.6,0-3.6v-3.6h3.9v.9h-2.4v2.1h2.2v.9h-2.2v2.3h1.2s1.2,0,1.2,0v.9h-1.9c-1,0-1.9,0-1.9,0h0Z"/>
        <path id="path694-0-8" class="cls-2" d="M303.2,585.7l-1.5-2.3v2.3s0,2.3,0,2.3h-.8v-7.1h.6s.6,0,.6,0l1.5,2.3,1.5,2.3v-2.3s0-2.3,0-2.3h.8v7.1h-1.1l-1.5-2.3h0Z"/>
        <path id="path692-8-5" class="cls-2" d="M296.3,584.5v-3.6h3.8v.9h-2.4v2.2h2.2v.8h-2.2v2.3h2.4v.9h-3.8v-3.6Z"/>
        <path id="path646-0-9" class="cls-2" d="M282.2,588.3c-.5,0-1-.2-1.3-.6-.2-.2-.9-1.2-.9-1.3s.8-.7.8-.7,0,.1.1.2c.3.8.8,1.3,1.2,1.4.1,0,.2,0,.4,0,.6,0,.9-.2,1-.6,0-.1,0-.2,0-.4s0-.2,0-.3c0-.1-.2-.3-.3-.4-.2-.1-.7-.3-1.2-.4-.1,0-.3,0-.4-.1-.4-.2-.8-.5-1.1-.9-.2-.3-.3-.7-.3-1.1,0-.4,0-1,.3-1.3,0-.2.4-.6.6-.7.4-.3.9-.5,1.3-.5.3,0,.9.2,1.2.3.3.1.6.3.8.6.2.2.4.5.4.6s-.2.1-.4.3c-.2.1-.4.3-.4.2,0,0,0,0,0,0,0-.1-.2-.4-.4-.6-.3-.4-.8-.6-1.3-.6-.5,0-.8.2-.9.5,0,.2,0,.5,0,.7,0,0,0,0,0,.1,0,0,0,.1.1.2.2.3.6.4,1.2.5.3,0,.5.1.7.2.7.3,1.2.9,1.4,1.8,0,.3,0,.8,0,1.1,0,.2-.2.5-.3.7-.3.5-.9.9-1.5,1.1-.2,0-.5,0-.8,0h0Z"/>
      </g>
      <g>
        <path class="cls-7" d="M150.6,569.9v-21.1h-54.9v21.1h54.9Z"/>
        <path class="cls-3" d="M132.4,565h3.7l1.3,3.5,10.4-3.8v-11.1h-3.7l-1.3-3.5-10.5,3.8v11.1h0Z"/>
        <path class="cls-6" d="M133.1,564.3h6.2v-5.4l1.5-.5v-4h2.7l-1.2-3.2-9.2,3.3v9.8h0Z"/>
        <path class="cls-8" d="M147,554.3h-6.2v5.5l-1.5.6v3.9h-2.7l1.2,3.3,9.2-3.3v-9.9Z"/>
        <path class="cls-3" d="M117.9,566.9v-14.8h-4.2v14.8h4.2ZM123.9,566.9v-6.1h4.5v-3h-4.5v-1s-.3-1.6,2-1.6h2.4v-3.1h-4.1s-4.2,0-4.2,4.6v10.2h4ZM105.2,553.5c-4.8,0-6.6,4.2-6.6,6.7s1.6,6.8,6.9,6.8,6.3-4.5,6.3-4.5h-3.6s-.5,1.5-2.7,1.5-3.1-2.9-3.1-2.9h9.6c.5-3.2-1.8-7.7-6.8-7.6ZM102.5,558.8s.4-2.5,3-2.5,2.8,2.5,2.8,2.5h-5.8Z"/>
      </g>
      <rect class="cls-1" x="78" y="572.4" width="91.3" height="22.9"/>
      <g>
        <path class="cls-2" d="M91.1,575.3c-4.7,0-8.5,3.8-8.5,8.5s3.8,8.5,8.5,8.5,8.5-3.8,8.5-8.5-3.8-8.5-8.5-8.5ZM91.1,577.2c1.9,0,3.6.8,4.8,2.1,0,0-.1,0-.2,0-1.3,0-2.2.5-2.8,1.3-.4.5-.6,1.3-.6,2.3h-2.4v-2.6h-1.9v4c0,.8-.1,1.3-.3,1.6-.3.4-.7.6-1.3.6-.6,0-1.1-.2-1.4-.6-.1-.2-.3-.6-.3-.6-.1-.5-.2-1-.2-1.6,0-3.6,2.9-6.6,6.6-6.6ZM91.1,590.4c-2,0-3.7-.9-4.9-2.3,0,0,.2,0,.3,0,1.3,0,2.2-.5,2.8-1.3.4-.5.6-1.3.6-2.4h2.4v2.7h1.9v-4c0-.8.1-1.3.3-1.6.3-.4.7-.6,1.3-.6.6,0,1.1.2,1.4.6.1.2.3.7.3.7.1.5.2,1.1.2,1.7,0,3.6-2.9,6.6-6.6,6.6Z"/>
        <g>
          <path class="cls-2" d="M108.7,584.6h-.2c-.4,0-.7,0-.8.1,0,0-.1.3-.1.8s0,1,.1,1.3c0,.3.3.5.5.6,0,0,.1,0,.2,0,.3,0,.5.3.5.6s0,.5-.2.6c-.1.1-.4.2-1,.2s-.4,0-.7,0-.5,0-.7,0-.5,0-.9,0c-.4,0-.7,0-.8,0h-.2c-.5,0-.8,0-1-.1s-.2-.3-.2-.5c0-.4.1-.6.4-.7.1,0,.2,0,.2-.1.1,0,.2-.3.2-.7,0-.4,0-1.1,0-2.1v-.7c0-1.2,0-2.1,0-2.5,0-.4,0-.6-.2-.7,0,0-.1,0-.2-.2-.3-.2-.5-.4-.5-.7s0-.4.2-.5c.1,0,.4-.1.8-.1s.5,0,.9,0c.4,0,.7,0,.9,0,.3,0,.6,0,1,0,.4,0,.6,0,.7,0,.4,0,.6,0,.7.1.1,0,.2.2.2.5s-.2.5-.5.6c0,0,0,0,0,0-.2,0-.3.2-.4.5,0,.2-.1.6-.1,1.2s0,.5.2.6.6,0,1.3,0h.8c.5,0,.8,0,.9-.1.1,0,.2-.3.2-.7v-.3c0-.3,0-.5,0-.7,0-.2-.1-.3-.2-.4,0,0,0,0-.1,0-.3-.2-.4-.4-.4-.7s0-.4.2-.5c.1,0,.3-.1.6-.1s.3,0,.7,0c.4,0,.8,0,1.2,0s.6,0,.9,0c.3,0,.5,0,.6,0,.4,0,.7,0,.8.2s.2.3.2.6-.1.5-.4.6c0,0,0,0-.1,0-.2.1-.3.4-.3.9,0,.4,0,1.4,0,2.8s0,1.9,0,2.3c0,.4.2.7.3.8,0,0,.1,0,.2.1.2.1.4.3.4.7s0,.4-.2.5c-.1,0-.3.1-.6.1h-.2c-.8,0-1.5,0-2.4,0h-.1c-.1,0-.3,0-.6,0-.2,0-.4,0-.4,0-.3,0-.5,0-.6-.2-.1-.1-.2-.3-.2-.6s.1-.4.3-.6c0,0,.1-.1.2-.1,0-.1.2-.3.2-.5,0-.2,0-.5,0-.9s0-.2,0-.4c0-.2,0-.3,0-.4,0-.3,0-.4-.2-.5-.2,0-.6,0-1.3,0h-.6Z"/>
          <path class="cls-2" d="M117.9,585.8l2.4-5.7c.2-.4.4-.7.5-.8.2,0,.5-.1,1-.1s.8,0,1,0c.2,0,.3.3.5.6l2.7,6c0,0,0,.1.1.3.4.8.7,1.3,1,1.4.2.1.4.2.4.3,0,0,0,.2,0,.4,0,.3,0,.5-.1.6,0,0-.3.1-.6.1h-.1c-.2,0-.5,0-1,0-.4,0-.8,0-1,0-.3,0-.7,0-1.2,0-.4,0-.7,0-.8,0-.3,0-.5,0-.7-.1-.1,0-.2-.3-.2-.5s0-.3,0-.4c0,0,.2-.2.3-.3,0,0,0,0,0,0,.3-.2.4-.3.4-.5s0-.3-.2-.4c-.1,0-.4-.1-.7-.1s-.5,0-.8,0h-.5c-.7,0-1.1,0-1.2.1-.2,0-.3.2-.3.5s.1.4.4.5c0,0,.1,0,.2,0,.2,0,.3.1.3.2s0,.2,0,.3c0,.3,0,.5-.2.6-.1.1-.3.2-.6.2s-.4,0-.7,0c-.3,0-.5,0-.6,0-.2,0-.4,0-.7,0-.3,0-.4,0-.5,0-.2,0-.4,0-.5-.1,0,0-.1-.2-.1-.5s0-.3,0-.4c0,0,.1-.2.2-.2,0,0,0,0,0,0,.3-.1.5-.3.6-.4.2-.2.4-.6.8-1.4h0ZM121.1,582.5s0,0-.1,0c0,0,0,.1-.1.2-.2.4-.4.8-.5,1.1-.1.4-.2.6-.2.7s0,.1.1.2c0,0,.2,0,.5,0h.5c.3,0,.4,0,.5,0,0,0,.1,0,.1-.2s0-.3-.1-.6c0-.3-.2-.6-.3-.9,0-.3-.2-.4-.2-.5,0,0-.1-.1-.2-.1Z"/>
          <path class="cls-2" d="M131.2,579.7l4.4,3.8s0,0,0,0c.1.1.2.2.3.2s.1,0,.1,0c0,0,0-.2,0-.3h0c0-.6,0-1,0-1.4,0-.4,0-.6-.1-.7,0-.2-.3-.4-.6-.5,0,0,0,0,0,0,0,0-.1,0-.2,0-.4-.1-.5-.3-.5-.7s0-.5.2-.6c.1-.1.3-.2.6-.2s.3,0,.6,0c.3,0,.6,0,.8,0s.4,0,.6,0c.3,0,.5,0,.7,0,.3,0,.6,0,.7.1.1,0,.2.2.2.5,0,.3-.2.6-.5.7-.2,0-.3.2-.3.2,0,.1-.2.2-.2.4,0,.2,0,.5,0,.9v4.3s0,0,0,0c0,0,0,.2,0,.4,0,.2,0,.5,0,.7,0,.5,0,.9-.1,1.1,0,.2-.3.3-.5.3s-.8-.3-1.6-1h0s-3.8-3.3-3.8-3.3c0,0-.2-.1-.3-.2,0,0-.1,0-.2,0,0,0-.1,0-.2.1,0,0,0,.3,0,.6,0,.7,0,1.2,0,1.5,0,.3.2.4.4.6.1,0,.3.1.6.2.1,0,.2,0,.3,0,.2,0,.3.1.3.2,0,0,0,.2,0,.5s0,.4-.1.5c0,0-.3.1-.5.1s0,0-.2,0c-.5,0-1,0-1.5,0s-.6,0-1,0c-.3,0-.5,0-.6,0-.3,0-.5,0-.6-.1,0,0-.1-.2-.1-.5s.2-.6.5-.7c.3-.2.5-.3.6-.4,0-.1.2-.5.2-1s0-1.3,0-2.2,0-1.8,0-2.2c0-.4-.1-.6-.2-.8,0,0-.2-.2-.5-.3-.3-.1-.4-.3-.4-.6s0-.5.2-.6c.1-.1.3-.2.5-.2s.2,0,.3,0c.2,0,.3,0,.5,0s.3,0,.5,0c.2,0,.3,0,.3,0,0,0,.2,0,.3,0,.1,0,.3.2.5.4Z"/>
          <path class="cls-2" d="M140.5,592.1c-.6,0-1.1-.1-1.4-.3-.3-.2-.4-.5-.4-1s.1-1,.4-1.4c.2-.4.5-.6.7-.6s.4.2.5.5c0,0,0,0,0,0,0,.3.1.4.2.6,0,.1.2.2.3.2.2,0,.4-.3.5-1,0-.6.1-1.8.1-3.5v-2.2c0-1.1,0-1.8-.1-2.2,0-.4-.2-.6-.4-.7,0,0,0,0-.2,0-.3-.1-.5-.3-.5-.6s0-.4.2-.5c.1,0,.4-.1.8-.1s.3,0,.7,0c.4,0,.8,0,1.1,0s.4,0,.7,0c.4,0,.7,0,.9,0,.5,0,.7,0,.9.1.1,0,.2.3.2.6s-.2.5-.5.6c-.1,0-.2.1-.2.2,0,0-.1.3-.2.6,0,.3,0,1,0,1.9v.6c0,.5,0,1.1,0,1.7,0,.7,0,1.1,0,1.3,0,1.6-.4,2.8-1.1,3.7-.8.9-1.8,1.4-3,1.4Z"/>
          <path class="cls-2" d="M149.8,588.8c-.8,0-1.4,0-1.8,0s-.5,0-.6-.1c-.1,0-.2-.3-.2-.5,0-.4.1-.6.4-.7.1,0,.2,0,.2-.1.1,0,.2-.3.2-.7s0-1.1,0-2.1v-.7c0-1.2,0-2.1,0-2.5,0-.4,0-.6-.2-.7,0,0-.1,0-.2-.2-.3-.2-.5-.4-.5-.7s0-.4.2-.5c.1,0,.3-.1.6-.1s.3,0,.7,0c.4,0,.8,0,1.2,0s.8,0,1.2,0c.4,0,.6,0,.7,0,.3,0,.5,0,.6.2.1.1.2.3.2.6s-.2.5-.5.6c-.1,0-.2.1-.3.2,0,0-.1.3-.2.7,0,.4,0,1.2,0,2.5v.7c0,1,0,1.7,0,2,0,.4.1.6.3.7,0,0,.1,0,.2.1.2,0,.4.3.4.7s0,.4-.2.5c-.1,0-.4.1-.8.1h-.3c0,0-.3,0-.6,0-.3,0-.5,0-.7,0Z"/>
          <path class="cls-2" d="M156.8,579.7l4.4,3.8s0,0,0,0c.1.1.2.2.3.2s.1,0,.1,0c0,0,0-.2,0-.3h0c0-.6,0-1,0-1.4s0-.6-.1-.7c0-.2-.3-.4-.6-.5,0,0,0,0,0,0,0,0-.1,0-.2,0-.4-.1-.5-.3-.5-.7s0-.5.2-.6c.1-.1.3-.2.6-.2s.3,0,.6,0c.3,0,.6,0,.8,0s.4,0,.6,0c.3,0,.5,0,.7,0,.3,0,.6,0,.7.1.1,0,.2.2.2.5,0,.3-.2.6-.5.7-.2,0-.3.2-.3.2,0,.1-.2.2-.2.4s0,.5,0,.9v4.3s0,0,0,0c0,0,0,.2,0,.4,0,.2,0,.5,0,.7,0,.5,0,.9-.1,1.1s-.3.3-.5.3-.8-.3-1.6-1h0s-3.8-3.3-3.8-3.3c0,0-.2-.1-.3-.2s-.1,0-.2,0c0,0-.1,0-.2.1s0,.3,0,.6c0,.7,0,1.2,0,1.5,0,.3.2.4.4.6.1,0,.3.1.6.2.1,0,.2,0,.3,0,.2,0,.3.1.3.2,0,0,0,.2,0,.5s0,.4-.1.5c0,0-.3.1-.5.1s0,0-.2,0c-.5,0-1,0-1.5,0s-.6,0-1,0c-.3,0-.5,0-.6,0-.3,0-.5,0-.6-.1,0,0-.1-.2-.1-.5s.2-.6.5-.7c.3-.2.5-.3.6-.4,0-.1.2-.5.2-1s0-1.3,0-2.2,0-1.8,0-2.2-.1-.6-.2-.8c0,0-.2-.2-.5-.3-.3-.1-.4-.3-.4-.6s0-.5.2-.6c.1-.1.3-.2.5-.2s.2,0,.3,0c.2,0,.3,0,.5,0s.3,0,.5,0c.2,0,.3,0,.3,0,0,0,.2,0,.3,0s.3.2.5.4Z"/>
        </g>
      </g>
      <rect class="cls-5" x="121.9" y="517.3" width="26.1" height="26.1"/>
      <rect class="cls-5" x="259.3" y="517.3" width="26.1" height="26.1"/>
      <path d="M132.6,520.2l-5.5,10.2,5.5,10.2h1.5l5.6-10.2-3.5-6.6-.8,1.5,2.7,5.1-4.7,8.8-4.7-8.8,5.5-10.2h-1.5ZM135.8,520.2l-5.6,10.2,3.5,6.6.8-1.5-2.7-5.1,4.7-8.8,4.7,8.8-5.5,10.2h1.5l5.5-10.2-5.5-10.2h-1.5Z"/>
      <path d="M270,520.2l-5.5,10.2,5.5,10.2h1.5l5.6-10.2-3.5-6.6-.8,1.5,2.7,5.1-4.7,8.8-4.7-8.8,5.5-10.2h-1.5ZM273.1,520.2l-5.6,10.2,3.5,6.6.8-1.5-2.7-5.1,4.7-8.8,4.7,8.8-5.5,10.2h1.5l5.5-10.2-5.5-10.2h-1.5Z"/>
      <g id="layer1">
        <path id="path682-1-3-7-2" data-name="path682-1-3-7" class="cls-11" d="M206.9,479.6v1.3c0,.9,0,12.7,0,13.1,0,0,5.5,0,5.8,0,1.8-.3,3.2-1.6,3.9-3.5.9-2.3.8-5.7-.3-7.8-.7-1.4-1.9-2.4-3.3-2.9-.8-.3-1-.3-3.7-.3h-2.4ZM210.2,481.1c.2,0,.5,0,.7,0,1.9.3,3,1.9,3.1,4.8,0,.7,0,2.2-.1,2.7-.2,1.1-.5,2-1.1,2.6-.4.5-.9.8-1.5,1-.3,0-.4.1-1,.1h-.6s0-5.6,0-5.6v-5.6h.1c0,0,.2,0,.3,0h0Z"/>
        <path id="path686-2-9-5-2" data-name="path686-2-9-5" class="cls-11" d="M198.4,479.7v14.3h7.3v-1.7h-4.3v-12.6h-2.9Z"/>
        <path id="path684-2-2-9-2" data-name="path684-2-2-9" class="cls-11" d="M193.1,479.7v14.3h2.9v-14.3h-2.9Z"/>
        <path id="path586-2-7-3-2" data-name="path586-2-7-3" class="cls-11" d="M177.6,479.6v7.2s0,7.2,0,7.2h.5c.3,0,.6,0,.6,0,0,0,0-.8,0-5.5v-5.4s.6,1.7.6,1.7c.3.9,1.1,3.4,1.8,5.5l1.3,3.9h2l1.8-5.7,1.8-5.7v5.7s0,5.7,0,5.7h2.6v-14.5h-3.3l-1.6,5.1c-.9,2.8-1.6,5.1-1.6,5.1,0,0-.1-.2-.3-.7-.1-.4-.9-2.7-1.7-5.1l-1.5-4.4h-1.6s-1.6,0-1.6,0Z"/>
        <path id="path698-9-9-6-2" data-name="path698-9-9-6" class="cls-11" d="M243.8,486.9c-1.2-3.9-2.1-7.2-2.1-7.2,0,0,.7,0,1.6,0h1.6s1.6,5.7,1.6,5.7c.9,3.2,1.6,5.8,1.6,5.8,0,0,.5-1.9,1.5-5.8l1.5-5.8h1s1,0,1,0v.3c-.2.2-1.1,3.4-2.1,7.2l-1.9,6.9h-1.5s-1.5,0-1.5,0l-2.1-7.2Z"/>
        <path id="path696-4-6-0-2" data-name="path696-4-6-0" class="cls-11" d="M233.3,494.1s0-3.3,0-7.3v-7.2h7.5v1.9h-4.7v4.3h4.2v1.7h-4.3v4.7h2.3s2.3,0,2.3,0v1.8h-3.7c-2,0-3.7,0-3.7,0h0Z"/>
        <path id="path694-9-2-2-2" data-name="path694-9-2-2" class="cls-11" d="M267.5,489.4l-2.9-4.7v4.7s0,4.7,0,4.7h-1.6v-14.4h1.1s1.1,0,1.1,0l2.9,4.7,2.9,4.7v-4.7s0-4.7,0-4.7h1.6v14.5h-2.1l-2.9-4.7h0Z"/>
        <path id="path692-2-0-7-2" data-name="path692-2-0-7" class="cls-11" d="M254.2,486.9v-7.2h7.5v1.7h-4.6v4.5h4.3v1.7h-4.3v4.7h4.6v1.8h-7.4v-7.2Z"/>
        <path id="path646-9-0-0-2" data-name="path646-9-0-0" class="cls-11" d="M226.8,494.6c-1,0-1.9-.5-2.5-1.2-.4-.4-1.8-2.4-1.8-2.6s1.5-1.4,1.6-1.4.1.2.2.5c.6,1.6,1.5,2.6,2.4,2.8.2,0,.4,0,.7,0,1.1-.1,1.7-.5,1.9-1.2.1-.3.1-.3.1-.7s0-.5,0-.6c-.1-.3-.4-.6-.7-.8-.3-.2-1.3-.6-2.4-.9-.3,0-.6-.2-.7-.2-.8-.4-1.6-1-2.1-1.8-.4-.6-.6-1.5-.7-2.3,0-.8.2-2.1.5-2.7.2-.3.8-1.1,1.2-1.4.7-.6,1.7-1,2.5-1,.6,0,1.8.3,2.4.6.6.3,1.1.7,1.6,1.3.3.4.7,1.1.7,1.3s-.3.3-.8.6c-.5.3-.8.5-.8.5,0,0,0,0,0-.1,0-.3-.5-.9-.7-1.2-.6-.8-1.6-1.2-2.4-1.1-.9,0-1.6.5-1.8,1-.1.3,0,1,.1,1.3,0,0,0,.2,0,.2,0,0,.1.2.2.4.4.5,1.2.9,2.3,1.1.5,0,1,.2,1.4.4,1.4.5,2.4,1.9,2.6,3.6,0,.5,0,1.7,0,2.2,0,.4-.3,1.1-.5,1.4-.6,1.1-1.7,1.9-2.9,2.1-.5.1-1.1.1-1.5.1h0Z"/>
        <path id="path668-9-0-8-2" data-name="path668-9-0-8" class="cls-11" d="M151.4,501.5c-1.4,0-3-.3-4-.5-3.5-.7-7.4-2.3-11.4-4.7-1-.6-2.1-1.4-2.2-1.4,0,0,.3,0,.6.2,2.8,1,6.7,2,9.8,2.5,2.3.4,3.8.5,6,.5,2,0,2.4,0,3.7-.3,3.3-.7,5.6-1.7,7.1-3.2,1.6-1.6,1.8-3.5.7-5.5-.2-.4-.9-1.3-1.4-1.8-2.3-2.2-4.9-3.9-7.4-4.7-.4-.1-.8-.3-1-.4h-.3c0-.1.3-.2.3-.2.3,0,2.2,0,3.2.2,3.6.4,7.3,1.6,10.7,3.4,1.5.8,2.1,1.2,3,2,2.4,2.3,2.7,4.8,1,7.3-.5.7-1.6,1.7-2.5,2.4-2.7,2-6.4,3.4-10.3,3.9-1.6.2-4,.3-5.5.2h0ZM149.8,492.2c-4.3-.2-8.7-1.5-12.7-3.7-1.7-.9-2.6-1.6-3.5-2.7-1.7-2.1-1.8-4.4-.1-6.6,1.2-1.5,3.4-3.1,5.8-4.2,3.3-1.5,6.6-2.2,10.6-2.2,3.4,0,6.1.4,8.9,1.3,2.4.8,4.9,1.9,7.5,3.4.8.5,2.9,1.8,3,1.9,0,0,0,0-.5-.1-3.6-1.3-8-2.4-11.8-2.8-2.5-.3-5.5-.3-6.9,0-6.2,1.1-9.7,3.8-9.2,7.1.2,1.1.9,2.3,2.2,3.6,2.2,2.2,4.8,3.8,7.3,4.6.4.1.8.3.9.3h.3c0,.1-.2.2-.2.2-.2,0-.8,0-1.5,0h0ZM156.9,491.5c-3.4-.3-6.4-1.3-8.5-3-1.8-1.4-3.2-3.6-3.7-5.5h0c0-.1,1,0,1,0,.6,0,1.3,0,1.6.1,5.8.8,9.7,3.7,11.1,8.2,0,.2.1.3.1.4,0,0-1.3,0-1.7,0h0Z"/>
        <path id="path682-15-7-2" data-name="path682-15-7" class="cls-2" d="M206.1,478.6v1.3c0,.9,0,12.7,0,13.1,0,0,5.5,0,5.8,0,1.8-.3,3.2-1.6,3.9-3.5.9-2.3.8-5.7-.3-7.8-.7-1.4-1.9-2.4-3.3-2.9-.8-.3-1-.3-3.7-.3h-2.4ZM209.5,480.1c.2,0,.5,0,.7,0,1.9.3,3,1.9,3.1,4.8,0,.7,0,2.2-.1,2.7-.2,1.1-.5,2-1.1,2.6-.4.5-.9.8-1.5,1-.3,0-.4.1-1,.1h-.6s0-5.6,0-5.6v-5.6h.1c0,0,.2,0,.3,0h0Z"/>
        <path id="path686-6-7-2" data-name="path686-6-7" class="cls-2" d="M197.6,478.6v14.3h7.3v-1.7h-4.3v-12.6h-2.9Z"/>
        <path id="path684-8-6-2" data-name="path684-8-6" class="cls-2" d="M192.4,478.6v14.3h2.9v-14.3h-2.9Z"/>
        <path id="path586-1-5-2" data-name="path586-1-5" class="cls-2" d="M176.8,478.6v7.2s0,7.2,0,7.2h.5c.3,0,.6,0,.6,0,0,0,0-.8,0-5.5v-5.4s.6,1.7.6,1.7c.3.9,1.1,3.4,1.8,5.5l1.3,3.9h2l1.8-5.7,1.8-5.7v5.7s0,5.7,0,5.7h2.6v-14.5h-3.3l-1.6,5.1c-.9,2.8-1.6,5.1-1.6,5.1,0,0-.1-.2-.3-.7-.1-.4-.9-2.7-1.7-5.1l-1.5-4.4h-1.6s-1.6,0-1.6,0Z"/>
        <path id="path698-7-4-2" data-name="path698-7-4" class="cls-2" d="M243.1,485.9c-1.2-3.9-2.1-7.2-2.1-7.2,0,0,.7,0,1.6,0h1.6s1.6,5.7,1.6,5.7c.9,3.2,1.6,5.8,1.6,5.8,0,0,.5-1.9,1.5-5.8l1.5-5.8h1s1,0,1,0v.3c-.2.2-1.1,3.4-2.1,7.2l-1.9,6.9h-1.5s-1.5,0-1.5,0l-2.1-7.2Z"/>
        <path id="path696-6-1-2" data-name="path696-6-1" class="cls-2" d="M232.5,493s0-3.3,0-7.3v-7.2h7.5v1.9h-4.7v4.3h4.2v1.7h-4.3v4.7h2.3s2.3,0,2.3,0v1.8h-3.7c-2,0-3.7,0-3.7,0h0Z"/>
        <path id="path694-0-8-2" data-name="path694-0-8" class="cls-2" d="M266.8,488.3l-2.9-4.7v4.7s0,4.7,0,4.7h-1.6v-14.4h1.1s1.1,0,1.1,0l2.9,4.7,2.9,4.7v-4.7s0-4.7,0-4.7h1.6v14.5h-2.1l-2.9-4.7h0Z"/>
        <path id="path692-8-5-2" data-name="path692-8-5" class="cls-2" d="M253.4,485.9v-7.2h7.5v1.7h-4.6v4.5h4.3v1.7h-4.3v4.7h4.6v1.8h-7.4v-7.2Z"/>
        <path id="path646-0-9-2" data-name="path646-0-9" class="cls-2" d="M226,493.6c-1,0-1.9-.5-2.5-1.2-.4-.4-1.8-2.4-1.8-2.6s1.5-1.4,1.6-1.4.1.2.2.5c.6,1.6,1.5,2.6,2.4,2.8.2,0,.4,0,.7,0,1.1-.1,1.7-.5,1.9-1.2.1-.3.1-.3.1-.7s0-.5,0-.6c-.1-.3-.4-.6-.7-.8-.3-.2-1.3-.6-2.4-.9-.3,0-.6-.2-.7-.2-.8-.4-1.6-1-2.1-1.8-.4-.6-.6-1.5-.7-2.3,0-.8.2-2.1.5-2.7.2-.3.8-1.1,1.2-1.4.7-.6,1.7-1,2.5-1,.6,0,1.8.3,2.4.6.6.3,1.1.7,1.6,1.3.3.4.7,1.1.7,1.3s-.3.3-.8.6c-.5.3-.8.5-.8.5,0,0,0,0,0-.1,0-.3-.5-.9-.7-1.2-.6-.8-1.6-1.2-2.4-1.1-.9,0-1.6.5-1.8,1-.1.3,0,1,.1,1.3,0,0,0,.2,0,.2,0,0,.1.2.2.4.4.5,1.2.9,2.3,1.1.5,0,1,.2,1.4.4,1.4.5,2.4,1.9,2.6,3.6,0,.5,0,1.7,0,2.2,0,.4-.3,1.1-.5,1.4-.6,1.1-1.7,1.9-2.9,2.1-.5.1-1.1.1-1.5.1h0Z"/>
        <path id="path668-0-8-2" data-name="path668-0-8" class="cls-2" d="M150.6,500.5c-1.4,0-3-.3-4-.5-3.5-.7-7.4-2.3-11.4-4.7-1-.6-2.1-1.4-2.2-1.4,0,0,.3,0,.6.2,2.8,1,6.7,2,9.8,2.5,2.3.4,3.8.5,6,.5,2,0,2.4,0,3.7-.3,3.3-.7,5.6-1.7,7.1-3.2,1.6-1.6,1.8-3.5.7-5.5-.2-.4-.9-1.3-1.4-1.8-2.3-2.2-4.9-3.9-7.4-4.7-.4-.1-.8-.3-1-.4h-.3c0-.1.3-.2.3-.2.3,0,2.2,0,3.2.2,3.6.4,7.3,1.6,10.7,3.4,1.5.8,2.1,1.2,3,2,2.4,2.3,2.7,4.8,1,7.3-.5.7-1.6,1.7-2.5,2.4-2.7,2-6.4,3.4-10.3,3.9-1.6.2-4,.3-5.5.2h0ZM149.1,491.2c-4.3-.2-8.7-1.5-12.7-3.7-1.7-.9-2.6-1.6-3.5-2.7-1.7-2.1-1.8-4.4-.1-6.6,1.2-1.5,3.4-3.1,5.8-4.2,3.3-1.5,6.6-2.2,10.6-2.2,3.4,0,6.1.4,8.9,1.3,2.4.8,4.9,1.9,7.5,3.4.8.5,2.9,1.8,3,1.9,0,0,0,0-.5-.1-3.6-1.3-8-2.4-11.8-2.8-2.5-.3-5.5-.3-6.9,0-6.2,1.1-9.7,3.8-9.2,7.1.2,1.1.9,2.3,2.2,3.6,2.2,2.2,4.8,3.8,7.3,4.6.4.1.8.3.9.3h.3c0,.1-.2.2-.2.2-.2,0-.8,0-1.5,0h0ZM156.1,490.4c-3.4-.3-6.4-1.3-8.5-3-1.8-1.4-3.2-3.6-3.7-5.5h0c0-.1,1,0,1,0,.6,0,1.3,0,1.6.1,5.8.8,9.7,3.7,11.1,8.2,0,.2.1.3.1.4,0,0-1.3,0-1.7,0h0Z"/>
      </g>
    </g>
  </g>
</svg>