<?xml version="1.0" encoding="UTF-8"?>
<svg xmlns="http://www.w3.org/2000/svg" version="1.1" viewBox="0 0 400 600">
  <defs>
    <style>
      .cls-1 {
        fill: $[primary];
        stroke-width: 6px;
      }

      .cls-1, .cls-2 {
        stroke: #000;
      }

      .cls-3, .cls-2 {
        fill: $[accent];
      }

      .cls-4, .cls-5 {
        fill: #947e4f;
      }

      .cls-6 {
        fill: $[secondary];
      }

      .cls-2 {
        stroke-width: 10px;
      }

      .cls-5 {
        fill-rule: evenodd;
      }

      .cls-7 {
        fill: #cb2c31;
      }
    </style>
  </defs>
  <!-- Generator: Adobe Illustrator 28.7.4, SVG Export Plug-In . SVG Version: 1.2.0 Build 166)  -->
  <g>
    <g id="_x31_7">
      <g id="Layer_1">
        <g id="suit2">
          <path id="Shirt" class="cls-1" d="M281.2,502.8c5.6,3.7,17.7,7.7,28.6,9.9,0,0,30.8,5.3,37.9,7.7,57.4,22.3,50.4,79.7,50.4,79.7l-395.8-.2s-3.8-63.4,37.2-71.5c7.7-1.5,25.9-8.7,35.6-9.4,0,0,37.4-9,42.8-12.6.9,5.7,11.3-29.5,4-41.3,19,3.1,38.2-.2,68.9,0,42.8.4,77.3,2.9,91.1-.5-8.6,16.4-.8,38.2-.8,38.2Z"/>
          <g>
            <path class="cls-3" d="M337.9,520.3c-6.9,22.2,1.2,76.7,44.9,76.7,5.7,0,12.6,0,12.6,0,0,0,5.6-58.5-57.5-76.7Z"/>
            <path class="cls-3" d="M66,523.4c5.3,2.6,7.1,58.3-49.6,73.4-7.7.5-11.5.5-11.5.4,0,0,2.5-64.3,61.2-73.8Z"/>
          </g>
          <g>
            <path class="cls-6" d="M62,524.7c10.7,57.1-57,70.2-57.1,72.5,0,0-9.1-68.4,57.1-72.5Z"/>
            <path class="cls-6" d="M342.1,521.9c-5.2,73,53.4,75.1,53.4,75.1,0,0,5.2-57.3-53.4-75.1Z"/>
          </g>
          <g>
            <rect class="cls-4" x="72.4" y="569.7" width="259.1" height="1.6"/>
            <path class="cls-4" d="M253.5,578.3c-.4,0-.7.2-1,.5-.3.3-.4.7-.4,1.1s.1.8.4,1.1c.3.3.6.5,1,.5h17.7c.6,0,1.1.5,1.1,1.2s-.5,1.2-1.1,1.2h-15.5c-.4,0-.9.1-1.3.3-.4.2-.8.5-1.1.9s-.6.8-.8,1.4c-.2.5-.3,1.1-.3,1.8v2.9c0,.4.1.8.4,1.1.3.3.6.5,1,.5s.7-.2,1-.5.4-.7.4-1.1v-3.3c0-.2.1-.4.3-.5.2-.2.4-.2.6-.2h7c3.1,0,7.2,3.1,10,5.3.3.2.7.3,1.1.2.4,0,.7-.3.9-.7.2-.4.3-.8.2-1.2s-.3-.7-.6-1c-1.2-1-2.1-1.6-3.7-2.6h.5c2.2,0,3.9-2,3.9-4.4s-1.7-4.4-3.9-4.4h-1.5s-16.1,0-16.1,0Z"/>
            <path class="cls-4" d="M104.1,591.1c0,.4-.1.8-.4,1.1s-.6.5-1,.5-.7-.2-1-.5-.4-.7-.4-1.1v-11.2c0-.4.1-.8.4-1.1s.6-.5,1-.5.7.2,1,.5.4.7.4,1.1v11.2Z"/>
            <path class="cls-4" d="M106.9,585.5c0-.8.1-1.7.4-2.5.3-.9.6-1.6,1.1-2.3.5-.7,1-1.3,1.7-1.7.7-.4,1.4-.7,2.3-.7h17.2c.4,0,.7.2,1,.5.3.3.4.7.4,1.1s-.1.8-.4,1.1c-.3.3-.6.5-1,.5h-16.6c-.7,0-1.2.1-1.7.4-.4.3-.7.6-1,1-.2.4-.4.8-.5,1.3,0,.5-.1.9-.1,1.3,0,.4,0,.8.1,1.3,0,.5.3.9.5,1.3.3.4.6.7,1,1,.4.3,1,.4,1.7.4h16.6c.4,0,.7.2,1,.5.3.3.4.7.4,1.1s-.1.8-.4,1.1c-.3.3-.6.5-1,.5h-17.5c-.8,0-1.5-.2-2.2-.7-.6-.4-1.2-1-1.6-1.7-.4-.7-.8-1.5-1-2.3-.2-.9-.4-1.7-.4-2.5h0Z"/>
            <path class="cls-4" d="M285.9,585.5c0-.4.1-.8.4-1.1.3-.3.6-.5,1-.5h11.3c.5,0,1,.1,1.4.3.4.2.8.5,1.1.9.3.4.6.8.8,1.3.2.5.3,1,.3,1.5v.7c0,.5,0,1.1-.3,1.6-.2.5-.4.9-.8,1.3-.3.4-.7.6-1.1.9-.4.2-.9.3-1.4.3h-15.3c-.8,0-1.5-.2-2.2-.7-.6-.4-1.2-1-1.6-1.7-.4-.7-.8-1.5-1-2.3-.2-.9-.4-1.7-.4-2.5s.1-1.7.4-2.5c.3-.9.6-1.6,1.1-2.3.5-.7,1-1.3,1.7-1.7.7-.4,1.4-.7,2.3-.7h17.2c.4,0,.7.2,1,.5.3.3.4.7.4,1.1s-.1.8-.4,1.1c-.3.3-.6.5-1,.5h-16.5c-.7,0-1.2.1-1.7.4-.4.3-.7.6-1,1-.2.4-.4.8-.5,1.3,0,.5-.1.9-.1,1.3s0,.8.1,1.3c0,.5.3.9.5,1.3.3.4.6.7,1,1,.4.3,1,.4,1.7.4h14.3c.2,0,.4-.1.6-.4.2-.2.3-.5.3-.9s0-.6-.3-.9c-.2-.2-.4-.4-.6-.4h-11.2c-.4,0-.7-.2-1-.5s-.4-.7-.4-1.1h0Z"/>
            <path class="cls-4" d="M306.6,578.3c-.4,0-.7.2-1,.5-.3.3-.4.7-.4,1.1s0,.5.1.7c.1.2.3.4.4.6,1.3,1.2,2.4,2.3,3.3,3.1,1,.8,1.9,1.4,2.7,1.9.8.5,1.7.8,2.5,1,.3,0,.6.1.9.2v3.8c0,.6.2,1.1.5,1.5.4.4.8.6,1.3.6s.9-.2,1.3-.6.5-.9.5-1.5v-3.8c.3,0,.6,0,.8-.2.8-.2,1.7-.5,2.5-1,.9-.5,1.8-1.1,2.7-1.9,1-.8,2.1-1.8,3.3-3.1.2-.2.3-.3.4-.6.1-.2.2-.5.2-.7,0-.4-.1-.8-.4-1.1-.3-.3-.6-.5-1-.5s-.7.2-1,.5c-1.3,1.3-2.3,2.2-3.2,2.9-.8.7-1.6,1.2-2.3,1.6-.7.4-1.3.6-1.9.7-.6,0-1.3,0-2,0s-1.5,0-2.1-.1c-.6,0-1.3-.3-1.9-.7-.7-.4-1.4-.9-2.3-1.6-.8-.7-1.9-1.7-3.2-2.9-.2-.1-.3-.2-.5-.3-.2,0-.3-.1-.5-.1h0Z"/>
            <path class="cls-4" d="M135.6,578.3c-.4,0-.7.2-1,.5-.3.3-.4.7-.4,1.1v11.2c0,.4.1.8.4,1.1.3.3.6.5,1,.5s.7-.2,1-.5c.3-.3.4-.7.4-1.1v-4h17.6v4c0,.4.1.8.4,1.1.3.3.6.5,1,.5s.7-.2,1-.5c.3-.3.4-.7.4-1.1v-11.2c0-.4-.1-.8-.4-1.1-.3-.3-.6-.5-1-.5s-.7.2-1,.5c-.3.3-.4.7-.4,1.1v4h-17.6v-4c0-.4-.1-.8-.4-1.1-.3-.3-.6-.5-1-.5Z"/>
            <path class="cls-4" d="M173.2,583.9c-.4,0-.8.3-.8.8v3.7c0,.7.1,1.3.3,1.8.2.5.5,1,.8,1.4.3.4.7.7,1.1.9.4.2.9.3,1.3.3h18.7c.4,0,.7-.2,1-.5.3-.3.4-.7.4-1.1s-.1-.8-.4-1.1c-.3-.3-.6-.5-1-.5h-18.6c-.3,0-.5,0-.6-.2-.2-.1-.3-.3-.3-.5v-1.7h18.8c.4,0,.7-.2,1-.5.3-.3.4-.7.4-1.1s-.1-.8-.4-1.1c-.3-.3-.6-.5-1-.5h-20.8Z"/>
            <path class="cls-4" d="M173.8,578.3c-.4,0-.7.2-1,.5-.3.3-.4.7-.4,1.1s.1.8.4,1.1c.3.3.6.5,1,.5h20.9c.4,0,.7-.2,1-.5.3-.3.4-.7.4-1.1s-.1-.8-.4-1.1c-.3-.3-.6-.5-1-.5h-20.9Z"/>
            <path class="cls-4" d="M225.9,583.9c-.4,0-.8.3-.8.8v3.7c0,.7.1,1.3.3,1.8.2.5.5,1,.8,1.4.3.4.7.7,1.1.9.4.2.9.3,1.3.3h18.7c.4,0,.7-.2,1-.5.3-.3.4-.7.4-1.1s-.1-.8-.4-1.1c-.3-.3-.6-.5-1-.5h-18.6c-.3,0-.5,0-.6-.2-.2-.1-.3-.3-.3-.5v-1.7h18.8c.4,0,.7-.2,1-.5.3-.3.4-.7.4-1.1s-.1-.8-.4-1.1c-.3-.3-.6-.5-1-.5h-20.8Z"/>
            <path class="cls-4" d="M226.5,578.3c-.4,0-.7.2-1,.5-.3.3-.4.7-.4,1.1s.1.8.4,1.1c.3.3.6.5,1,.5h20.9c.4,0,.7-.2,1-.5.3-.3.4-.7.4-1.1s-.1-.8-.4-1.1c-.3-.3-.6-.5-1-.5h-20.9Z"/>
            <path class="cls-4" d="M220.8,578.2c-.4,0-.7.2-1,.5-.3.3-.4.7-.4,1.1v8.8c0,.4-.4.5-.6.3l-15.5-10.1c-.4-.2-.8-.3-1.2-.3-1.5,0-2.9,1.3-2.9,2.7v10c0,.4.1.8.4,1.1.3.3.6.5,1,.5s.7-.2,1-.5c.3-.3.4-.7.4-1.1v-8.8c0-.4.4-.5.6-.3l15.5,10.1c.4.2.8.3,1.2.3,1.5,0,2.9-1.3,2.9-2.7v-10c0-.4-.1-.8-.4-1.1-.3-.3-.6-.5-1-.5Z"/>
            <path class="cls-4" d="M76.8,578.3c-.4,0-.7.2-1,.5-.3.3-.4.7-.4,1.1s.1.8.4,1.1c.3.3.6.5,1,.5h17.7c.6,0,1.1.5,1.1,1.2s-.5,1.2-1.1,1.2h-15.5c-.4,0-.9.1-1.3.3-.4.2-.8.5-1.1.9s-.6.8-.8,1.4c-.2.5-.3,1.1-.3,1.8v2.9c0,.4.1.8.4,1.1.3.3.6.5,1,.5s.7-.2,1-.5.4-.7.4-1.1v-3.3c0-.2.1-.4.3-.5.2-.2.4-.2.6-.2h7c3.1,0,7.2,3.1,10,5.3.3.2.7.3,1.1.2.4,0,.7-.3.9-.7.2-.4.3-.8.2-1.2s-.3-.7-.6-1c-1.2-1-2.1-1.6-3.7-2.6h.5c2.2,0,3.9-2,3.9-4.4s-1.7-4.4-3.9-4.4h-1.5s-16.1,0-16.1,0Z"/>
          </g>
          <path d="M196,505.5c-12.2,8.8-5.5,94.8-5.5,94.8h1.8s.1-10.1-.4-19.6-.7-12.2-.9-18.9c-.4-18.4,1.1-37.7,2.7-43.5,3.4-12.1,2.3-12.7,2.3-12.7Z"/>
          <circle cx="200.5" cy="523.5" r="1.2"/>
          <circle cx="199.5" cy="538.7" r="1.2"/>
          <circle cx="198.5" cy="556.7" r="1.2"/>
          <circle cx="199.5" cy="574.6" r="1.2"/>
          <circle cx="200.5" cy="588.7" r="1.2"/>
        </g>
      </g>
      <path id="Shirt-neck" class="cls-1" d="M118,506.4c3.8-10.5,11.4-29.4,4.1-41.2,19,3.1,38.2-.2,68.9,0,42.8.4,77.2,2.7,91-.6-8.6,16.4,3.1,40.7,3.1,40.7l-167.1,1.2Z"/>
      <g>
        <path class="cls-2" d="M28.1,548.5c-.2.9-.7,2.3-1.4,4.3-.2.5-.4,1-.4,1.2,0,.2-.2.7-.4,1.1-.2.4-.4,1.1-.6,1.6-.1.5-.3,1-.4,1.3-.1.2-.3.7-.3,1-.1.4-.3.6-.8,1-.8.6-2.4,1.9-3.4,3-.5.5-1,1-1.2,1.2s-.5.5-.7.7c-.1.2-.4.5-.6.8-.7,1-2,3-2.1,3.3,0,.1-.1.3-.2.3-.3.2-1.2,3.4-1.4,4.7,0,.7-.4,2.2-.6,3.3-.7,2.9-.5,4.2.8,5.1,1.2.8,2.2.7,4.1-.4.8-.5,1.4-.9,1.7-1.2.2-.3.5-.6.7-.6.3-.2.8-.8,1.4-1.6.2-.2.4-.6.6-.8.2-.2.5-.6.6-.9.2-.3.5-.7.7-.9.2-.2.8-1.1,1.4-2,.6-.9,1.3-1.9,1.5-2.2.2-.3.6-.9.8-1.2.4-.6.4-.6,1.1-.8.4-.1,1.1-.3,1.5-.4,1.2-.3,1.9-.5,3.2-.8.7-.2,1.7-.4,2.2-.5.5-.1,1.1-.3,1.5-.3.3,0,.8-.2,1-.3s.6-.2.8-.2c.2,0,.5,0,.6-.1s.4-.1.6,0c.2,0,.4,0,.6,0,.3-.1.2-.2-.2-.7-.2-.3-1.3-2-2.3-3.7-2-3.3-2.1-3.6-1.6-3.9s.5-.5.8-.9.7-1.1.9-1.4c.2-.4.6-.9.8-1.2s.5-.6.6-.7c.1,0,.2-.3.2-.4s.1-.3.2-.4.6-.8,1.2-1.6,1.6-2.4,2.2-3.3c.6-1,1.8-2.7,2.6-3.9.8-1.2,1.4-2.1,1.5-2.2s.5-.7,1.1-1.6,1.5-2.2,2.1-3.1c1.7-2.4,1.9-2.6,1.8-2.8-.1-.2-.6,0-1,.4-1.3,1.4-3,3-4.4,4.1-.4.3-.8.7-1,.9-.2.2-.8.8-1.5,1.3s-1.5,1.2-1.9,1.6c-.4.4-1.3,1.1-1.9,1.6-1.1.9-1.9,1.6-3.4,3-.4.4-1,.8-1.1.9-.3.2-.8.6-2.9,2.6-.6.5-1.2,1-1.3,1.1-.2,0-.4,0-1.1-1.2-1.4-2.1-2.4-3.6-2.6-3.7-.3-.2-.5,0-.7,1h0ZM30.6,553.2c.7,1.1,1.3,1.9,1.4,2s.4-.2.8-.5c1.4-1.2,3-2.6,4-3.4.6-.5,1.4-1.2,1.9-1.6.5-.4,1.1-1,1.4-1.3.3-.3.7-.6.8-.8,0-.1.3-.3.4-.4s.5-.5.8-.8c.7-.8,1-1,1.4-1,.3,0,.3,0,0,.6-.2.3-.4.6-.5.7s-.4.4-.7.9c-.3.4-.7.9-.8,1.1s-.8,1.1-1.5,2.2c-.7,1-1.3,1.9-1.4,2s-.3.4-.5.7-.4.7-.5.8c-.5.7-.9,1.3-.9,1.5,0,0,0,.2-.2.3s-.6.7-1.1,1.5l-.9,1.4,2,3.1c1.1,1.7,1.9,3.2,1.9,3.3,0,0-.4.2-.9.3-.4,0-1.2.3-1.7.4-.5.1-1.2.3-1.5.4s-1,.2-1.5.4-1.1.2-1.3.3c-.2,0-1,.2-1.7.4-.7.2-1.6.4-1.9.5-.5,0-.6.1-1.1,1-.3.5-.6.9-.7.9s-.6.8-1.2,1.7c-1.7,2.5-2.5,3.7-3.2,4.7-.4.5-.7,1-.7,1.1,0,.1-.2.3-.4.4s-.5.4-.7.6c-.7.9-1.5,1.7-2.4,2.2s-1,.5-1.5.5c-.3,0-.6-.2-.7-.3-.2-.3,0-2.2.5-3.5.3-1,1-2.2,1.6-3.1,0,0,.2-.3.3-.4.4-.6,1.1-1.3,3.1-3.5.3-.3.7-.8.9-1,.2-.2.4-.4.5-.5s.6-.6,1.1-1.2c1-1.2,1.1-1.6.6-2-.2-.1-.4-.1-.6.1-.9.8-2,2.3-2.3,3.1,0,.2-.5.7-.8,1-.7.6-1.6,1.5-2.3,2.3-.7.8-1.2,1.1-1.4.9-.1-.2.7-2.4,1.2-3.1.1-.2.3-.5.5-.8.6-1.3,2.2-3.2,3.9-4.9,1-1,2.8-2.5,3.3-2.8s.7-.5,1-1.3c.2-.5.5-1.2.5-1.3s.2-.9.5-1.5c.2-.6.5-1.4.6-1.6,0-.3.3-1,.5-1.6.2-.6.5-1.4.6-1.8.3-1.2.4-1.1,1.8,1h0Z"/>
        <path class="cls-2" d="M21.3,571.5c-.2.3-.7,1-1,1.4-1.1,1.2-1.9,2.9-1.6,3.2.4.3,1.9-1.1,2.5-2.4.2-.4.3-.7.4-.7s.1-.2.1-.3c0-.1.3-.6.5-1.1.2-.4.3-.9.3-1-.1-.2-.7.2-1.2.9Z"/>
        <path class="cls-3" d="M28.1,548.5c-.2.9-.7,2.3-1.4,4.3-.2.5-.4,1-.4,1.2,0,.2-.2.7-.4,1.1-.2.4-.4,1.1-.6,1.6-.1.5-.3,1-.4,1.3-.1.2-.3.7-.3,1-.1.4-.3.6-.8,1-.8.6-2.4,1.9-3.4,3-.5.5-1,1-1.2,1.2s-.5.5-.7.7c-.1.2-.4.5-.6.8-.7,1-2,3-2.1,3.3,0,.1-.1.3-.2.3-.3.2-1.2,3.4-1.4,4.7,0,.7-.4,2.2-.6,3.3-.7,2.9-.5,4.2.8,5.1,1.2.8,2.2.7,4.1-.4.8-.5,1.4-.9,1.7-1.2.2-.3.5-.6.7-.6.3-.2.8-.8,1.4-1.6.2-.2.4-.6.6-.8.2-.2.5-.6.6-.9.2-.3.5-.7.7-.9.2-.2.8-1.1,1.4-2,.6-.9,1.3-1.9,1.5-2.2.2-.3.6-.9.8-1.2.4-.6.4-.6,1.1-.8.4-.1,1.1-.3,1.5-.4,1.2-.3,1.9-.5,3.2-.8.7-.2,1.7-.4,2.2-.5.5-.1,1.1-.3,1.5-.3.3,0,.8-.2,1-.3s.6-.2.8-.2c.2,0,.5,0,.6-.1s.4-.1.6,0c.2,0,.4,0,.6,0,.3-.1.2-.2-.2-.7-.2-.3-1.3-2-2.3-3.7-2-3.3-2.1-3.6-1.6-3.9s.5-.5.8-.9.7-1.1.9-1.4c.2-.4.6-.9.8-1.2s.5-.6.6-.7c.1,0,.2-.3.2-.4s.1-.3.2-.4.6-.8,1.2-1.6,1.6-2.4,2.2-3.3c.6-1,1.8-2.7,2.6-3.9.8-1.2,1.4-2.1,1.5-2.2s.5-.7,1.1-1.6,1.5-2.2,2.1-3.1c1.7-2.4,1.9-2.6,1.8-2.8-.1-.2-.6,0-1,.4-1.3,1.4-3,3-4.4,4.1-.4.3-.8.7-1,.9-.2.2-.8.8-1.5,1.3s-1.5,1.2-1.9,1.6c-.4.4-1.3,1.1-1.9,1.6-1.1.9-1.9,1.6-3.4,3-.4.4-1,.8-1.1.9-.3.2-.8.6-2.9,2.6-.6.5-1.2,1-1.3,1.1-.2,0-.4,0-1.1-1.2-1.4-2.1-2.4-3.6-2.6-3.7-.3-.2-.5,0-.7,1h0ZM30.6,553.2c.7,1.1,1.3,1.9,1.4,2s.4-.2.8-.5c1.4-1.2,3-2.6,4-3.4.6-.5,1.4-1.2,1.9-1.6.5-.4,1.1-1,1.4-1.3.3-.3.7-.6.8-.8,0-.1.3-.3.4-.4s.5-.5.8-.8c.7-.8,1-1,1.4-1,.3,0,.3,0,0,.6-.2.3-.4.6-.5.7s-.4.4-.7.9c-.3.4-.7.9-.8,1.1s-.8,1.1-1.5,2.2c-.7,1-1.3,1.9-1.4,2s-.3.4-.5.7-.4.7-.5.8c-.5.7-.9,1.3-.9,1.5,0,0,0,.2-.2.3s-.6.7-1.1,1.5l-.9,1.4,2,3.1c1.1,1.7,1.9,3.2,1.9,3.3,0,0-.4.2-.9.3-.4,0-1.2.3-1.7.4-.5.1-1.2.3-1.5.4s-1,.2-1.5.4-1.1.2-1.3.3c-.2,0-1,.2-1.7.4-.7.2-1.6.4-1.9.5-.5,0-.6.1-1.1,1-.3.5-.6.9-.7.9s-.6.8-1.2,1.7c-1.7,2.5-2.5,3.7-3.2,4.7-.4.5-.7,1-.7,1.1,0,.1-.2.3-.4.4s-.5.4-.7.6c-.7.9-1.5,1.7-2.4,2.2s-1,.5-1.5.5c-.3,0-.6-.2-.7-.3-.2-.3,0-2.2.5-3.5.3-1,1-2.2,1.6-3.1,0,0,.2-.3.3-.4.4-.6,1.1-1.3,3.1-3.5.3-.3.7-.8.9-1,.2-.2.4-.4.5-.5s.6-.6,1.1-1.2c1-1.2,1.1-1.6.6-2-.2-.1-.4-.1-.6.1-.9.8-2,2.3-2.3,3.1,0,.2-.5.7-.8,1-.7.6-1.6,1.5-2.3,2.3-.7.8-1.2,1.1-1.4.9-.1-.2.7-2.4,1.2-3.1.1-.2.3-.5.5-.8.6-1.3,2.2-3.2,3.9-4.9,1-1,2.8-2.5,3.3-2.8s.7-.5,1-1.3c.2-.5.5-1.2.5-1.3s.2-.9.5-1.5c.2-.6.5-1.4.6-1.6,0-.3.3-1,.5-1.6.2-.6.5-1.4.6-1.8.3-1.2.4-1.1,1.8,1h0Z"/>
        <path class="cls-3" d="M21.3,571.5c-.2.3-.7,1-1,1.4-1.1,1.2-1.9,2.9-1.6,3.2.4.3,1.9-1.1,2.5-2.4.2-.4.3-.7.4-.7s.1-.2.1-.3c0-.1.3-.6.5-1.1.2-.4.3-.9.3-1-.1-.2-.7.2-1.2.9Z"/>
      </g>
      <g>
        <path class="cls-2" d="M380.3,559.4c-.8-.4-2-1.3-3.8-2.6-.4-.3-.9-.6-1-.7-.1,0-.6-.4-.9-.7-.4-.3-1-.7-1.4-1-.4-.3-.9-.6-1.1-.8-.2-.2-.6-.4-.9-.6-.3-.2-.5-.5-.7-1-.3-1-1.2-2.8-1.9-4.1-.3-.6-.7-1.3-.8-1.5s-.4-.6-.5-.8c-.2-.2-.4-.5-.6-.8-.8-1-2.4-2.8-2.6-2.9-.1,0-.3-.2-.3-.3,0-.3-2.9-2.1-4.1-2.6-.7-.3-2-1-3-1.5-2.6-1.5-3.9-1.6-5.1-.6-1.1.9-1.2,1.9-.7,4,.2.9.5,1.6.7,1.9.2.3.4.7.4.8,0,.3.5,1,1.2,1.8.2.2.5.6.6.8.2.2.5.6.7.9.2.3.5.6.7.9.2.2.9,1.1,1.6,1.9.7.8,1.5,1.7,1.7,2,.2.3.7.8.9,1.1.5.5.5.6.5,1.3,0,.4,0,1.1,0,1.6,0,1.3,0,1.9,0,3.3,0,.7,0,1.7,0,2.2,0,.5,0,1.2,0,1.5,0,.3,0,.8,0,1s0,.6,0,.8c0,.2-.1.5,0,.6s0,.4,0,.6c0,.1-.1.4,0,.6,0,.3.1.3.7,0,.4-.2,2.2-.7,4.2-1.2,3.8-1,4-1,4.2-.4s.4.6.7,1,.9,1,1.1,1.3c.3.3.7.8,1,1.1s.5.6.5.7c0,.1.2.3.3.4s.3.2.3.3.6.8,1.3,1.6,1.8,2.1,2.6,3c.8.9,2.1,2.5,3,3.5.9,1.1,1.7,2,1.7,2s.6.7,1.2,1.5,1.7,2.1,2.4,2.9c1.8,2.3,2,2.6,2.2,2.5.3,0,.2-.5-.1-1.1-1-1.7-2.1-3.7-2.8-5.3-.2-.4-.5-1-.6-1.2-.1-.2-.5-1-.8-1.7s-.8-1.8-1.1-2.3c-.3-.5-.7-1.5-1-2.2-.6-1.3-1-2.2-2-4.1-.3-.5-.5-1.1-.6-1.4,0-.4-.3-.9-1.7-3.5-.4-.7-.7-1.4-.7-1.6,0-.2.2-.3,1.4-.7,2.4-.8,4.1-1.4,4.3-1.5.3-.2,0-.5-.8-.9h0ZM375.1,560.5c-1.2.4-2.2.7-2.3.8s0,.4.3.9c.8,1.7,1.7,3.6,2.2,4.7.3.7.8,1.7,1,2.2.3.5.6,1.3.8,1.7.2.4.4.8.5.9.1.1.2.3.3.5s.3.6.6,1c.6.9.7,1.2.5,1.6-.1.3-.2.3-.6-.3-.3-.3-.5-.6-.5-.7s-.3-.5-.7-.9c-.3-.4-.7-.9-.8-1.1s-.9-1.1-1.7-2.1c-.8-.9-1.5-1.8-1.5-1.9s-.3-.4-.6-.7-.6-.6-.7-.7c-.5-.7-1-1.3-1.2-1.3,0,0-.2-.1-.2-.2s-.5-.8-1.1-1.5l-1.1-1.3-3.6,1c-2,.5-3.6,1-3.6.9,0,0,0-.5,0-.9,0-.4,0-1.2,0-1.7,0-.5,0-1.2,0-1.5s0-1,0-1.5,0-1.1,0-1.3c0-.2,0-1,0-1.8,0-.7,0-1.6,0-1.9,0-.5,0-.6-.6-1.4-.4-.4-.7-.9-.7-.9s-.6-.8-1.3-1.6c-1.9-2.3-2.9-3.4-3.6-4.4-.4-.5-.8-.9-.8-1,0,0-.2-.3-.3-.5s-.2-.6-.4-.8c-.7-.9-1.2-1.9-1.5-3s-.3-1.1,0-1.6c.1-.3.4-.6.5-.6.4,0,2.1.7,3.2,1.4.8.6,1.9,1.5,2.5,2.4,0,.1.2.3.3.4.5.6,1,1.4,2.5,4,.2.4.6.9.7,1.1.2.2.3.5.4.6s.4.7.9,1.4c.9,1.2,1.3,1.5,1.7,1.1.2-.2.2-.3,0-.7-.5-1.1-1.6-2.5-2.4-3.1-.2-.1-.5-.6-.7-1-.4-.9-1-1.9-1.6-2.9-.6-.9-.7-1.5-.5-1.6.2,0,2.1,1.4,2.6,2,.1.2.4.5.6.7,1,1,2.5,3,3.6,5.1.7,1.2,1.6,3.4,1.8,4s.3.8,1,1.3c.5.4,1,.8,1.2.8s.8.5,1.3.9c.5.4,1.2.8,1.4,1,.2.1.9.6,1.4.9.5.4,1.2.9,1.6,1,1.1.6,1,.7-1.5,1.4h0Z"/>
        <path class="cls-2" d="M360,546.6c-.3-.3-.8-.9-1.1-1.4-.9-1.4-2.3-2.6-2.7-2.4-.4.3.6,2.1,1.6,3.1.3.3.6.5.6.6s.1.1.3.2c.1,0,.5.4.9.7.4.3.8.6.9.5.3,0,0-.8-.6-1.4Z"/>
        <path class="cls-3" d="M380.3,559.4c-.8-.4-2-1.3-3.8-2.6-.4-.3-.9-.6-1-.7-.1,0-.6-.4-.9-.7-.4-.3-1-.7-1.4-1-.4-.3-.9-.6-1.1-.8-.2-.2-.6-.4-.9-.6-.3-.2-.5-.5-.7-1-.3-1-1.2-2.8-1.9-4.1-.3-.6-.7-1.3-.8-1.5s-.4-.6-.5-.8c-.2-.2-.4-.5-.6-.8-.8-1-2.4-2.8-2.6-2.9-.1,0-.3-.2-.3-.3,0-.3-2.9-2.1-4.1-2.6-.7-.3-2-1-3-1.5-2.6-1.5-3.9-1.6-5.1-.6-1.1.9-1.2,1.9-.7,4,.2.9.5,1.6.7,1.9.2.3.4.7.4.8,0,.3.5,1,1.2,1.8.2.2.5.6.6.8.2.2.5.6.7.9.2.3.5.6.7.9.2.2.9,1.1,1.6,1.9.7.8,1.5,1.7,1.7,2,.2.3.7.8.9,1.1.5.5.5.6.5,1.3,0,.4,0,1.1,0,1.6,0,1.3,0,1.9,0,3.3,0,.7,0,1.7,0,2.2,0,.5,0,1.2,0,1.5,0,.3,0,.8,0,1s0,.6,0,.8c0,.2-.1.5,0,.6s0,.4,0,.6c0,.1-.1.4,0,.6,0,.3.1.3.7,0,.4-.2,2.2-.7,4.2-1.2,3.8-1,4-1,4.2-.4s.4.6.7,1,.9,1,1.1,1.3c.3.3.7.8,1,1.1s.5.6.5.7c0,.1.2.3.3.4s.3.2.3.3.6.8,1.3,1.6,1.8,2.1,2.6,3c.8.9,2.1,2.5,3,3.5.9,1.1,1.7,2,1.7,2s.6.7,1.2,1.5,1.7,2.1,2.4,2.9c1.8,2.3,2,2.6,2.2,2.5.3,0,.2-.5-.1-1.1-1-1.7-2.1-3.7-2.8-5.3-.2-.4-.5-1-.6-1.2-.1-.2-.5-1-.8-1.7s-.8-1.8-1.1-2.3c-.3-.5-.7-1.5-1-2.2-.6-1.3-1-2.2-2-4.1-.3-.5-.5-1.1-.6-1.4,0-.4-.3-.9-1.7-3.5-.4-.7-.7-1.4-.7-1.6,0-.2.2-.3,1.4-.7,2.4-.8,4.1-1.4,4.3-1.5.3-.2,0-.5-.8-.9h0ZM375.1,560.5c-1.2.4-2.2.7-2.3.8s0,.4.3.9c.8,1.7,1.7,3.6,2.2,4.7.3.7.8,1.7,1,2.2.3.5.6,1.3.8,1.7.2.4.4.8.5.9.1.1.2.3.3.5s.3.6.6,1c.6.9.7,1.2.5,1.6-.1.3-.2.3-.6-.3-.3-.3-.5-.6-.5-.7s-.3-.5-.7-.9c-.3-.4-.7-.9-.8-1.1s-.9-1.1-1.7-2.1c-.8-.9-1.5-1.8-1.5-1.9s-.3-.4-.6-.7-.6-.6-.7-.7c-.5-.7-1-1.3-1.2-1.3,0,0-.2-.1-.2-.2s-.5-.8-1.1-1.5l-1.1-1.3-3.6,1c-2,.5-3.6,1-3.6.9,0,0,0-.5,0-.9,0-.4,0-1.2,0-1.7,0-.5,0-1.2,0-1.5s0-1,0-1.5,0-1.1,0-1.3c0-.2,0-1,0-1.8,0-.7,0-1.6,0-1.9,0-.5,0-.6-.6-1.4-.4-.4-.7-.9-.7-.9s-.6-.8-1.3-1.6c-1.9-2.3-2.9-3.4-3.6-4.4-.4-.5-.8-.9-.8-1,0,0-.2-.3-.3-.5s-.2-.6-.4-.8c-.7-.9-1.2-1.9-1.5-3s-.3-1.1,0-1.6c.1-.3.4-.6.5-.6.4,0,2.1.7,3.2,1.4.8.6,1.9,1.5,2.5,2.4,0,.1.2.3.3.4.5.6,1,1.4,2.5,4,.2.4.6.9.7,1.1.2.2.3.5.4.6s.4.7.9,1.4c.9,1.2,1.3,1.5,1.7,1.1.2-.2.2-.3,0-.7-.5-1.1-1.6-2.5-2.4-3.1-.2-.1-.5-.6-.7-1-.4-.9-1-1.9-1.6-2.9-.6-.9-.7-1.5-.5-1.6.2,0,2.1,1.4,2.6,2,.1.2.4.5.6.7,1,1,2.5,3,3.6,5.1.7,1.2,1.6,3.4,1.8,4s.3.8,1,1.3c.5.4,1,.8,1.2.8s.8.5,1.3.9c.5.4,1.2.8,1.4,1,.2.1.9.6,1.4.9.5.4,1.2.9,1.6,1,1.1.6,1,.7-1.5,1.4h0Z"/>
        <path class="cls-3" d="M360,546.6c-.3-.3-.8-.9-1.1-1.4-.9-1.4-2.3-2.6-2.7-2.4-.4.3.6,2.1,1.6,3.1.3.3.6.5.6.6s.1.1.3.2c.1,0,.5.4.9.7.4.3.8.6.9.5.3,0,0-.8-.6-1.4Z"/>
      </g>
      <path class="cls-3" d="M261.3,478.5h-20.4s-.6-.2-1.3.7l-2.3,4.2h8.4c3,0,3.6,1.8,1.4,5.6-1.3,2.3-4.9,8.9-4.9,8.9,0,0-1.2,3.1-5.1,3.1h-11.8v-5.9h8.2c1,0,3,0,3.8-1.4.8-1.4,2.5-4.4,2.5-4.4h-8.1c-2.9,0-3.5-2.5-2.5-4.3s4.5-7.9,5.5-9.7,1.7-3,5.1-3h21.6M139.9,488.2h23.1l9.1-15.8h6.9l-16.2,28.5h-7.1l3.9-6.7h-19.6M169.5,501s1.9-3.4,2.6-4.5c.7-1.1,1-2.2-.9-2.2h-2.8s2.5-4.6,3.3-6c1.5,0,3.9-.1,4.4,1.1.4-.7,9.9-16.8,9.9-16.8h6.8l-16.3,28.5h-6.8ZM179.1,501l16.6-28.5h6.6l-16.2,28.5h-7ZM197.7,501v-4.7c0-1.3-.4-2-2.7-2h-3.4s2.9-5,3.4-6c1.2,0,2.2-.1,2.6.7v-5.1s5.7-9.8,5.7-9.8v18.4l11.8-19.9h7l-16.2,28.5h-8.2ZM223.2,501h-5.7v-4.4c0-2-.6-2.3-2.9-2.3h-3.1s2.8-5,3.4-6c1.6,0,2,0,2.5.8v-4.6l5.8-10.4v26.9h0Z"/>
      <path class="cls-7" d="M292.5,518.5c0,0-.2-.1-.3-.1h-5.9c-.2,0-.3,0-.4.2-.2.4-.8,1.4-1.7,2.8h-6.1c.9-1.6,1.5-2.6,1.5-2.6,0-.1,0-.2,0-.2,0,0,0,0-.2,0h-6.3c-.2,0-.2,0-.3.1h0s-.7,1.2-1.6,2.8h-24.4c-.8,0-1.5.7-1.5,1.5v10.6h-2.7c-.2,0-.3,0-.4.3,0,0-1.3,2.3-2.1,3.7l-.9,1.5s0,.1,0,.2,0,0,0,0c0,0,.1,0,.2,0h5.9v15.3h8.1l3.2-5.6h2.4l-5.7,10.1h-2.5l1.4-2.4h-6.9v3c0,.8.7,1.5,1.5,1.5h39.9c.8,0,1.5-.7,1.5-1.5v-8.6h-7.2s-.2,0-.4.3l-.8,1.5h3c1.1,0,1.3.6.5,2-.5.8-1.7,3.1-1.7,3.1,0,0-.4,1.1-1.8,1.1h-4.2v-2.1h2.9c.4,0,1.1,0,1.3-.5.3-.5.9-1.6.9-1.6h-2.9c-1,0-1.2-.9-.9-1.5s1.6-2.8,2-3.4.6-1,1.8-1h7.6v-23.1c2.3-4,4.1-7.1,4.1-7.2,0-.1.1-.3,0-.4ZM255.9,559.2s.7-1.2.9-1.6c.2-.4.3-.8-.3-.8h-1s.9-1.6,1.1-2.1c.5,0,1.4,0,1.5.4.1-.3,3.5-5.9,3.5-5.9h2.4l-5.8,10h-2.4ZM259.3,559.2l5.9-10h2.3l-5.7,10h-2.5ZM265.9,559.2v-1.7c0-.5-.1-.7-1-.7h-1.2s1-1.8,1.2-2.1c.4,0,.8,0,.9.3v-1.8s2-3.5,2-3.5v6.5l4.2-7h2.5l-5.7,10h-2.9ZM274.9,559.2h-2v-1.6c0-.7-.2-.8-1-.8h-1.1s1-1.8,1.2-2.1c.6,0,.7,0,.9.3v-1.6l2.1-3.7v9.5h0Z"/>
      <g>
        <path class="cls-3" d="M273.2,518.6h0c0,0-8.3,14.4-8.6,15h0c0,0-21.7,0-21.7,0,0,0-.2,0-.2.1,0,0-1,1.8-2.1,3.8l-.9,1.5s0,0,0,0h21.7s-3.5,6.1-3.7,6.4h6.6c1-1.7,15.3-26.8,15.4-26.9h-6.2c0,0,0,0,0,0Z"/>
        <path class="cls-3" d="M289.7,518.6h-3.4c-.1,0-.1,0-.2,0-.9,1.5-8.4,14.2-9.4,15.9v.2c-.1,0-.2-.2-.2-.2-.4-1-2.3-.9-3.5-.9h-.5c-.5.9-2.5,4.6-3,5.5.4,0,1.5,0,2.5,0,.6,0,.9.3,1.1.6.1.2.2.4.2.7s0,.7-.3,1c-.4.7-2,3.4-2.4,4.1h6.2c.8-1.3,15.3-26.6,15.4-26.8,0,0,0,0,0-.1h-2.6Z"/>
      </g>
      <g>
        <path class="cls-3" d="M288.3,551.2h-7.2s-.2,0-.4.3l-.8,1.5h3c1.1,0,1.3.6.5,2-.5.8-1.7,3.1-1.7,3.1,0,0-.4,1.1-1.8,1.1h-4.2v-2.1h2.9c.4,0,1.1,0,1.3-.5.3-.5.9-1.6.9-1.6h-2.9c-1,0-1.2-.9-.9-1.5s1.6-2.8,2-3.4.6-1,1.8-1h7.6v2.1h0Z"/>
        <polygon class="cls-3" points="245.5 554.7 253.6 554.7 256.9 549.1 259.3 549.1 253.6 559.2 251 559.2 252.4 556.8 245.5 556.8 245.5 554.7"/>
        <path class="cls-3" d="M255.9,559.2s.7-1.2.9-1.6c.2-.4.3-.8-.3-.8h-1s.9-1.6,1.1-2.1c.5,0,1.4,0,1.5.4.1-.3,3.5-5.9,3.5-5.9h2.4l-5.8,10h-2.4Z"/>
        <polygon class="cls-3" points="259.3 559.2 265.2 549.1 267.5 549.1 261.8 559.2 259.3 559.2"/>
        <path class="cls-3" d="M265.9,559.2v-1.7c0-.5-.1-.7-1-.7h-1.2s1-1.8,1.2-2.1c.4,0,.8,0,.9.3v-1.8s2-3.5,2-3.5v6.5l4.2-7h2.5l-5.7,10h-2.9Z"/>
        <path class="cls-3" d="M274.9,559.2h-2v-1.6c0-.7-.2-.8-1-.8h-1.1s1-1.8,1.2-2.1c.6,0,.7,0,.9.3v-1.6l2.1-3.7v9.5h0Z"/>
      </g>
      <g>
        <g>
          <path class="cls-5" d="M159.3,540.4c-1.9,0-2.9.7-3,2.1h0c0,.1,1.3.1,1.3.1h0c0-.8.6-1.2,1.7-1.2s1.6.3,1.6.9-.3.5-.9.6h-1.3c-1.9.3-2.6.9-2.6,2.1s.2,1.9,2.5,1.9,1.9-.3,2.4-.8c.2.6.6.7,1.1.7s.6,0,.9,0h0v-1h-.1c-.1.1-.3.2-.4.2-.3,0-.4-.1-.4-.4v-3.2c0-1.5-1.8-1.8-2.8-1.8h0ZM160.9,543.7v.6c0,.4-.3.8-.7,1.1-.4.3-1,.4-1.6.4s-1.3-.3-1.3-.8.3-.8,1.3-.9l1.3-.2c.5,0,.8-.1,1-.2h0Z"/>
          <path class="cls-5" d="M152.1,540.4c-1.1,0-2,.3-2.6,1-.6.6-.9,1.4-.9,2.3,0,2,1.4,3.3,3.5,3.3s2.5-.6,3.1-2h0c0-.1-1.4-.1-1.4-.1h0c-.4.9-1.4,1-1.8,1-.9,0-1.9-.6-2-1.7h5.4v-.2c0-2.6-1.7-3.5-3.3-3.5h0ZM152,541.6c1,0,1.7.6,1.9,1.5h-3.9c.2-.9,1-1.5,2-1.5Z"/>
          <path class="cls-5" d="M158.1,526.1c-3.1,0-4.6,1.1-4.8,3.4h0c0,.1,1.9.1,1.9.1h0c0-1.3,1-1.9,2.8-1.9s2.6.4,2.6,1.5-.5.9-1.5,1l-2.1.2c-3,.3-4.2,1.2-4.2,3.1s.4,3,4,3,3.1-.4,4-1.4c.2,1,.9,1.2,1.7,1.2s1,0,1.4-.1h0v-1.5h-.2c-.2,0-.4.1-.6.1-.5,0-.7-.2-.7-.7v-5.1c0-2.4-2.8-2.8-4.5-2.8h0ZM160.7,531.2v1c0,.7-.4,1.4-1,1.8-.7.5-1.6.7-2.6.7s-2.1-.6-2.1-1.4.6-1.3,2.1-1.5l2-.3c.8-.1,1.3-.2,1.7-.4h0Z"/>
          <path class="cls-5" d="M146.2,526.1c-3.1,0-4.6,1.1-4.8,3.4h0c0,.1,1.9.1,1.9.1h0c0-1.3,1-1.9,2.8-1.9s2.6.4,2.6,1.5-.5.9-1.5,1l-2.1.2c-3,.3-4.2,1.2-4.2,3.1s.4,3,4,3,3.1-.4,4-1.4c.2,1,.9,1.2,1.7,1.2s1,0,1.4-.1h0v-1.5h-.1c-.2,0-.4.1-.6.1-.5,0-.7-.2-.7-.7v-5.1c0-2.4-2.8-2.8-4.5-2.8h0ZM148.8,531.3v1c0,.7-.4,1.4-1,1.9-.7.5-1.6.7-2.6.7s-2.1-.6-2.1-1.4.6-1.3,2.1-1.5l2-.3c.8-.1,1.3-.2,1.7-.4h0Z"/>
        </g>
        <path class="cls-5" d="M164.5,532.9h0c.2,2.4,1.8,3.5,5,3.5s2.7-.3,3.5-.8c.9-.6,1.3-1.4,1.3-2.5s-1.1-2.3-3.4-2.6l-2.6-.3c-1.3-.2-1.5-.5-1.5-1.1s.3-.8.8-1c.4-.2,1-.3,1.7-.3,2,0,2.7.9,2.8,1.7h0c0,.1,2,.1,2,.1h0c-.2-2.2-1.9-3.4-4.7-3.4s-2.4.3-3.2.8-1.2,1.4-1.2,2.3c0,1.6,1.3,2.4,2.7,2.6l3,.4c1.4.2,1.7.6,1.7,1.2s0,.6-.5.9c-.5.3-1.2.5-2.3.5-2.1,0-2.9-.9-2.9-1.8h0c0-.1-2-.1-2-.1h0Z"/>
        <path class="cls-5" d="M128.9,536.1v-6.1h8.6v6.1h2.1v-13.1h-2.1v5.2h-8.6v-5.2h-2.1v13.1h2.1Z"/>
        <path class="cls-5" d="M174.1,542.6c0-1.7-1.5-2.2-2.3-2.2s-1.8.3-2.4,1c-.4-.7-1.2-1-2-1s-1.6.1-2.2.9v-.7h-1.3v6.1h1.3v-3.5c0-.5.2-.9.6-1.2.3-.3.8-.4,1.3-.4s1.3.2,1.3,1.3v3.8h1.3v-3.7c0-.5.2-.9.6-1.1.3-.2.8-.4,1.3-.4s1.3.2,1.3,1.3v3.8h1.3v-4.1Z"/>
        <path class="cls-5" d="M149.6,539.7v-1.2h-7.5v1.2h3v7h1.4v-7h3Z"/>
        <path class="cls-5" d="M136.5,538.5h0c0,1-.8,1.5-2.2,1.5h-.4v1.1h2.3v5.7h1.4v-8.2h-1.1Z"/>
        <path class="cls-5" d="M133.2,538.5h-6.4v8.2h1.4v-3.6h4.8v-1.2h-4.8v-2.2h5v-1.2Z"/>
        <path class="cls-5" d="M106.2,520.9c-7.8,0-14.1,6.3-14.1,14.1s0,.6,0,.8h-1.8c-.1,0-.2,0-.2.1,0,0-1.7,2.9-1.7,3,0,0,0,.1,0,.1h4.3c1.8,5.8,7.1,10,13.5,10s14.1-6.3,14.1-14.1c0-7.8-6.3-14.1-14.1-14.1h0ZM96.1,539.1h3.8l-1.8,3.1c-.8-.9-1.5-2-1.9-3.1ZM106.2,545.9c-3,0-5.6-1.2-7.6-3.1h3s8.8-15.4,8.8-15.5c0,0,0-.1,0-.1h-3.6c0,0,0,0-.1,0,0,0-5,8.6-5,8.6h-6.4c0-.3,0-.6,0-.8,0-6,4.9-10.9,10.9-10.9s5.8,1.3,7.8,3.3c-.9,1.4-4.7,8-5.2,8.9-.3-.7-1.7-.6-2.4-.6-.3.5-1.8,3.3-1.8,3.3h1.5c.7,0,.8.7.5,1.2-.3.5-1.4,2.5-1.4,2.5h3.7s4.5-7.9,7.1-12.4c.7,1.4,1,3,1,4.6,0,6-4.9,10.9-10.9,10.9Z"/>
      </g>
      <path class="cls-3" d="M92.5,554.1h2.4v6.6c0,1.6-1.3,2.7-3.1,2.7s-3-1-3-2.7v-.6h2.2v.5c0,.4.3.8.7.8,0,0,0,0,0,0,.4,0,.7-.3.7-.7,0,0,0,0,0,0v-6.6ZM102.2,563.2l-.6-1.6h-3.5l-.6,1.6h-2.5l3.8-9.1h2.2l3.6,9.1h-2.6ZM99.9,557h0l-1.1,2.9h2.2l-1-2.9ZM113.8,560.1c-.6,1.9-2.5,3.3-4.7,3.3s-4.8-2-4.8-4.7,2.2-4.8,4.9-4.8,4,1.3,4.6,3.2h-2.8c-.4-.6-1.1-1-1.8-1-1.2,0-2.3,1-2.3,2.5s1.1,2.5,2.3,2.5c.8,0,1.5-.4,1.9-1h2.8ZM119.8,563.2l-2.6-3.7h0v3.7h-2.4v-9.1h2.4v3.5h0l2.5-3.5h2.7l-3.3,4.2,3.5,4.9h-2.9ZM136.3,554.1h2.4v6.6c0,1.6-1.3,2.7-3.1,2.7s-3-1-3-2.7v-.6h2.2v.5c0,.4.3.8.7.8,0,0,0,0,0,0,.4,0,.7-.3.7-.7,0,0,0,0,0,0v-6.6ZM144.5,563.4c-2.7,0-4.9-2-4.9-4.7s2.2-4.8,4.9-4.8,4.9,2,4.9,4.8-2.2,4.7-4.9,4.7h0ZM146.9,558.6c0-1.5-1.1-2.5-2.4-2.5s-2.3,1-2.3,2.5,1,2.5,2.3,2.5,2.4-1,2.4-2.5h0ZM156.4,563.2l-3.8-5h0v5h-2.3v-9.1h2.1l3.8,5h0v-5h2.3v9.1h-2.1ZM159.8,563.2v-9.1h6.9v2.1h-4.5v1.4h3.1v2h-3.1v1.5h4.5v2.1h-6.9ZM172.7,557.1c-.2-.7-.7-1.2-1.7-1.2s-1.2.4-1.2.8.5.7,1.2.8h.7c2.3.4,3.4,1.1,3.4,2.8s-1.8,3.2-4,3.2-3.7-1.2-3.8-3.3h2.3c.2.8.9,1.4,1.7,1.3.8,0,1.3-.4,1.3-.9s-.3-.7-1.5-.9l-1-.2c-1.8-.3-2.8-1.1-2.8-2.7s1.5-2.9,3.8-2.9,3.7,1.4,3.9,3.2h-2.3ZM131.7,561.8l-1.3-1.3,1.1-1.1-1.5-1.5-1.1,1.1-1.7-1.7c-.3-.3-.4-.4-.4-.7,0-.3.3-.6.6-.6.3,0,.5.1.7.4l.3.3,1.5-1.5-.2-.2c-.6-.7-1.4-1-2.3-1-1.8,0-2.8,1.4-2.8,2.7s.2,1.3.9,1.9l2,2-.2.2c-.3.4-.5.6-.9.6-.5,0-.9-.3-.9-.8,0-.3.1-.5.4-.8h0c0,0-1.4-1.4-1.4-1.4h-.1c-.5.6-1.1,1.4-1.1,2.5s1.2,2.6,3,2.6,1.9-.5,2.6-1.2h.1c0-.1,1.3,1.2,1.3,1.2l1.5-1.5Z"/>
    </g>
  </g>
</svg>