<?xml version="1.0" encoding="UTF-8"?>
<svg xmlns="http://www.w3.org/2000/svg" version="1.1" viewBox="0 0 400 600">
  <defs>
    <style>
      .cls-1, .cls-2 {
        fill: #000091;
      }

      .cls-3, .cls-4 {
        fill: #fff;
      }

      .cls-2 {
        stroke: #fff;
        stroke-width: 3px;
      }

      .cls-4 {
        stroke: #000091;
        stroke-width: 6px;
      }

      .cls-5 {
        fill-rule: evenodd;
      }
    </style>
  </defs>
  <!-- Generator: Adobe Illustrator 28.7.4, SVG Export Plug-In . SVG Version: 1.2.0 Build 166)  -->
  <g>
    <g id="_x39_">
      <g id="Layer_1">
        <g id="suit2">
          <path id="Shirt" class="cls-4" d="M281.2,502.8c5.6,3.7,17.7,7.7,28.6,9.9,0,0,30.8,5.3,37.9,7.7,57.4,22.3,50.4,79.7,50.4,79.7l-395.8-.2s-3.8-63.4,37.2-71.5c7.7-1.5,25.9-8.7,35.6-9.4,0,0,37.4-9,42.8-12.6.9,5.7,11.3-29.5,4-41.3,19,3.1,38.2-.2,68.9,0,42.8.4,77.3,2.9,91.1-.5-8.6,16.4-.8,38.2-.8,38.2Z"/>
          <g id="layer1">
            <path id="path2384" class="cls-1" d="M198,591.6c15.9,0,28.7-7,28.7-15.7s-12.9-15.7-28.7-15.7-1.2,0-1.8,0l1.6-2.5h45.5c4.1,0,7.3,1.8,7.3,3.9v28.6c0,2.2-3.3,3.9-7.3,3.9h-47.1l1.8-2.6"/>
            <path id="path2386" class="cls-1" d="M182.2,557.8h-38.1c-4.1,0-7.3,1.8-7.3,3.9v28.6c0,2.2,3.3,3.9,7.3,3.9h36.5l2.1-2.9c-12.9-1.6-22.6-8-22.6-15.7s8.5-13.3,20.1-15.3l1.9-2.5"/>
            <path id="path2388" class="cls-1" d="M204.9,581.3h-3.8l7.2-10.4h3.8l-7.2,10.4M214.5,568.8h-12.4l-17.6,25.5h7.6l7.5-10.9h7.6c1.7,0,3.8-.3,4.7-1.6.9-1.3,5.7-8.1,7-10.1,1.3-2-1.8-2.9-4.4-2.9h0Z"/>
            <path id="path2390" class="cls-1" d="M195.3,572l-7.5,10.9h-7.6l8.3-11.9h-3.9l-8.3,11.9h-7.6l17.4-25.1h7.6l-7.7,11.1h5.1c3.7,0,5.2,1.5,4.1,3.2"/>
          </g>
          <path class="cls-2" d="M76.8,521.9s36-8.2,41.2-11.5l-6.5,25.4s-70.8,6.5-81.6,35.8c-3.9,10.5-10.9,18.4-18.3,24.1h-4.9s-3.7-57.9,35.8-65.3c7.4-1.4,24.9-7.9,34.3-8.6Z"/>
          <path class="cls-2" d="M394.3,595.7h-.9c-11.2-10.6-22.2-23-25.8-33.6-8.4-24-74.4-28.2-74.4-28.2l-6.1-25.1c5.1,3.3,16.2,6.9,26.2,8.9,0,0,28.2,4.7,34.7,6.8,52.6,19.9,46.2,71.2,46.2,71.2Z"/>
          <path d="M196,505.5c-12.2,8.6-5.5,91.7-5.5,91.7h1.8s.1-9.8-.4-19-.7-11.8-.9-18.3c-.4-17.8,1.1-36.5,2.7-42.1,3.4-11.8,2.3-12.3,2.3-12.3Z"/>
          <circle cx="200.5" cy="523.5" r="1.2"/>
          <circle cx="199.5" cy="538.7" r="1.2"/>
          <circle cx="198.5" cy="556.7" r="1.2"/>
          <circle cx="199.5" cy="574.6" r="1.2"/>
          <circle cx="200.5" cy="588.7" r="1.2"/>
        </g>
      </g>
      <path id="Shirt-neck" class="cls-4" d="M118,506.4c3.8-10.5,11.4-29.4,4.1-41.2,19,3.1,38.2-.2,68.9,0,42.8.4,77.2,2.7,91-.6-8.6,16.4,3.1,40.7,3.1,40.7l-167.1,1.2Z"/>
      <path d="M173.1,467.8c-5.5,3.5-2.4,37.7-2.4,37.7h.8s-.9-27.8.6-32.6,1-5.1,1-5.1Z"/>
      <circle cx="175.9" cy="479.2" r="1.2"/>
      <circle cx="175.9" cy="491.3" r="1.2"/>
      <path class="cls-3" d="M70.4,526.9l1.3,5.4h-.2c-1.2-.5-2.6-.4-4.1,0-3.1.7-5.1,2.7-5.4,4.7-3-3.7-11.5-1.5-13.4,2.2l-.4-1.7-5.9,1.4-.5-1.9,6.5-1.6-.7-2.9-11.8,2.9,3.2,13.1,5.3-1.3-1.3-5.5,5.3-1.3c0,.4,0,.9,0,1.4,1.3,5.2,12.7,3.8,14.5-1.8l-4.5,1.1c-1.2,1.9-4.8,1.8-5.2.2l9.3-2.3c.9,2.1,3.9,3.3,7.5,2.4s2.8-1.2,3.5-2.2h0s.2.8.2.8l23-5.6,2-2.4,2.8,1.2,7-1.7-6.9-2.9,4.7-5.7-6.8,1.6-1.9,2.3-2.9-1.2-12.9,3.1-.3-1.1,6.1-1.5-.8-3.4-16.3,4ZM75.5,526.3l10.3-2.5.5,2.1-6.1,1.5.6,2.4,6-1.5.5,2-6.1,1.5.8,3.2,6.1-1.5.5,2.1-10.2,2.5-2.9-11.8ZM87.9,527.7l6.5,2.7-4.5,5.4-.8-3.2-6.1,1.5-.4-1.7,6.1-1.5-.8-3.1ZM89.9,527.6l4.3-1,3.4,1.4,2.3-2.8,4.2-1-4,4.8,5.9,2.4-4.4,1.1-3.4-1.4-2.3,2.8-4.1,1,4.1-4.8-5.8-2.4ZM54.9,537.3c1.1-.3,2.3,0,2.8.8l-5,1.2c.1-1,1.1-1.7,2.2-2ZM69,534.3c3.5-.9,4.8,3.5,1.1,4.5s-4.8-3.6-1.1-4.5Z"/>
      <path class="cls-3" d="M332,525.4l-1,4.1h-.2c-.9-.9-2.1-1.4-3.6-1.7-3-.7-5.6-.2-6.7,1-1.2-3.7-9.7-5.6-12.9-3.8l.3-1.3-5.9-1.4.3-1.4,6.4,1.5.5-2.2-11.7-2.7-2.3,10.1,5.2,1.2,1-4.2,5.2,1.2c-.2.3-.4.6-.5.9-.9,4,9.8,7.5,13.6,4.5l-4.5-1c-1.8.8-5-.6-4.7-1.9l9.2,2.1c0,1.8,2.2,3.8,5.7,4.6s3,.3,4-.1h0s-.1.7-.1.7l22.7,5.3,2.7-.8,2.1,1.9,6.9,1.6-5-4.6,6.5-1.9-6.7-1.5-2.6.8-2.1-1.9-12.7-2.9.2-.9,6,1.4.6-2.6-16.1-3.7ZM336.8,527l10.2,2.4-.4,1.6-6-1.4-.4,1.8,5.9,1.4-.4,1.5-6-1.4-.6,2.4,6,1.4-.4,1.6-10.1-2.3,2.1-9.1ZM347.3,532.8l4.7,4.4-6.1,1.9.6-2.5-6-1.4.3-1.3,6,1.4.6-2.4ZM349.2,533.6l4.3,1,2.5,2.3,3.1-1,4.1,1-5.5,1.7,4.3,3.9-4.3-1-2.4-2.3-3.2,1-4.1-.9,5.5-1.7-4.2-3.9ZM314.1,526.3c1.1.3,2.1.9,2.2,1.6l-5-1.2c.5-.6,1.7-.7,2.8-.5ZM327.9,529.8c3.5.8,2.9,4.3-.8,3.4s-2.8-4.3.8-3.4Z"/>
      <path d="M146.6,519.8c-8.8,0-15.9,7.1-15.9,15.9s7.1,15.9,15.9,15.9,15.9-7.1,15.9-15.9-7.1-15.9-15.9-15.9ZM146.6,520.8c8.2,0,14.9,6.7,14.9,14.9s-6.7,14.9-14.9,14.9-14.9-6.7-14.9-14.9,6.7-14.9,14.9-14.9ZM145.7,521.7c-.4,0-.9,0-1.3.1v3.9c.2,0,.5,0,.8-.1v-2.6c0,0,0-.2,0-.2v.2c0,0,.9,2,.9,2h.8l.9-2v-.2c0,0,0,.2,0,.2v2.6c.4,0,.7,0,1,.1v-3.9c-.6,0-1,0-1.5-.1l-.9,2.2v.2s0-.2,0-.2l-.9-2.2h0ZM154.6,524.1l-2,3.2c.3.2.6.5.8.7l1.9-1h.1c0,0,0,0,0,0l-1,1.9c.2.2.5.6.7.8l3.2-2c-.2-.3-.4-.5-.6-.8l-2,1.3h-.1c0,.1.1,0,.1,0l.9-1.8-.6-.6-1.8.9h-.2c0,.1.1,0,.1,0l1.3-2c-.2-.2-.5-.4-.8-.6ZM138,524.8c-.5,0-.8.4-1.8,1.5-.3.4-.7.8-1,1.2l2.8,2.6c.9-1,1.3-1.4,2-2.1.5-.5.8-1.2.3-1.7-.3-.3-.7-.4-1.1-.2h0s0,0,0,0c0-.4,0-.7-.3-1-.2-.2-.5-.2-.7-.2h0ZM138,525.6c.2,0,.4,0,.4.3,0,.2,0,.4-.2.5-.3.3-1.4,1.5-1.4,1.5l-.5-.5c.6-.7,1.1-1.3,1.4-1.5,0,0,.2-.1.3-.2h0ZM146.6,526.3c-4.8,0-8.9,3.7-9.4,8.5h0c-.5,5.2,3.3,9.8,8.4,10.4,1,0,1.9,0,2.9-.1,4.4-.9,7.5-4.8,7.5-9.2,0-5.2-4.2-9.4-9.4-9.4h0ZM139.2,526.6c0,0,.1,0,.2,0,.1,0,.2.2.1.3,0,.2-.2.3-.3.4l-1.4,1.5-.6-.5s1-1.1,1.4-1.5c.1-.1.2-.2.3-.3,0,0,.1,0,.2,0h0ZM146.6,527.5c4.5,0,8.2,3.7,8.2,8.2,0,0,0,0,0,0h-8.2v8.2c-4.5,0-8.2-3.7-8.2-8.2,0,0,0,0,0,0h8.2v-8.2Z"/>
      <g>
        <path class="cls-5" d="M276.9,543.5h-53.8c-2.9-.1-5.8-1.6-7.1-4.4-1.3-2.5-1-6.1.9-8.3,1.8-2.2,4.3-2.9,7.1-3h57.2l-4.4,15.7h0ZM280.7,528.2h-56.3c-3,0-6.1.8-7.7,3.6-1.4,2.2-1.4,5.8.1,7.9,1.5,2.4,4,3.3,6.6,3.4h53.1l4.2-15h0Z"/>
        <path class="cls-5" d="M229,533.5h-8.9l1-3.6c2.2-.8,4.5-.3,6.2,1.1,1.3,1.1,1.8,2.4,1.8,2.5h0ZM238.5,531c.5,1,0,2.2-.3,3.2l-2.4.4c.1-.9.6-1.8.5-2.7,0-.1-.2-.2-.3-.3-.7,0-1.1.6-1.4,1-.8,1.7-1.4,3.6-1.7,5.5,0,.5-.2,1.3.4,1.5.3,0,.5,0,.7-.2.5-.7,1.1-2.3,1.1-2.3.8-.1,1.6-.3,2.4-.4-.5,1.8-1.2,4.2-3.4,4.6-1.1.1-2.3,0-3.1-.8-1-1.2-.6-3.1-.3-4.5.7-2.4,2-5.7,4.9-6,1.1,0,2.2,0,2.8,1h0ZM255.4,530.1l-.6,2.4h1.6l-.3,1.4h-1.6s-.6,2.1-.9,3.2c-.2.8-.5,1.7-.5,2.4.4.4,1,.1,1.5.2,0,.4-.2.9-.3,1.3-1.2,0-2.8.4-3.4-.8-.2-.4,0-.9,0-1.3.4-1.6,1.4-5,1.4-5h-.8l.3-1.4h.8c.2-.7.6-2,.6-2l2.3-.4h0ZM269.4,538.5c0,.2-.1.5,0,.8.3.3.9.2,1.4.2,0,0-.3,1.4-.3,1.4,0,0-.8,0-1.3,0-.9,0-1.8,0-2.2-.9-.2-1.5.5-2.8.8-4.1.4-1.7,1.5-5.3,1.5-5.3l2.4-.5-2.3,8.5h0Z"/>
        <path class="cls-5" d="M219.5,530.7c-.5,1.7-1,3.4-1.5,5,0,.5-.1,1,.2,1.3.3.3.6.4.9.4h9.9c-.5,1.9-2.1,3.4-3.8,4-2,.7-4.3.3-5.9-.9-1.9-1.6-2.8-3.8-2.3-6.3.3-1.4,1.1-2.7,2.4-3.6ZM251.1,532.4s-.4,1.3-.4,1.3c-.9,0-2.1-.3-2.6.6-.3,1.4,1.6,1.8,1.8,3,.3,1.1,0,2.2-.9,2.8-1.2,1.1-3.3.9-4.8.5,0,0,.4-1.4.4-1.4.9.2,2.5.6,3.1-.4.4-1.2-1.1-1.7-1.6-2.6-.6-.8-.5-1.9,0-2.7,1.1-1.6,3.3-1.7,5-1.2h0ZM261.6,532.4l-.9,1.3c-.5,0-1.1,0-1.6.1l-2,7h-2.2l2.2-8.1c1.1-.5,2.4-.7,3.8-.6l.7.2h0ZM266.7,533.3c.7,1.4,0,3-.3,4.3-.5,1.3-1.4,2.8-2.9,3.3-1,.3-2.3.3-3.2-.3-1.2-1.1-.7-3-.3-4.2.6-1.8,2-3.9,4-4.2,1,0,2.1.1,2.6,1.1ZM264.3,533.7c-.2,0-.4.2-.6.4-1,1.5-1.7,3.6-1.7,5.1,0,.2.2.4.4.4.3,0,.5-.2.7-.4.9-1.5,1.6-3.3,1.7-5.2,0-.3-.3-.4-.5-.3h0ZM244.7,532.9c.6.7.4,1.8.2,2.6l-1.4,5.1c-.6.3-1.3.3-2,.4-1.3.1-2.8,0-3.5-1.1-.4-.9-.2-2,.3-2.7,1.1-1.3,2.8-1.6,4.4-1.8.1-.4.3-.9.1-1.4-.5-.6-1.5-.3-2.1-.3-.4,0-.7.2-1.1.3,0,0,.3-1.4.3-1.4,1.4-.5,3.6-.9,4.8.3h0ZM242.1,536.8c-.7.1-1.6.3-2,1.1-.2.4-.3,1.1,0,1.5.3.3.8.1,1.1.1l.8-2.7Z"/>
        <path class="cls-5" d="M221.9,535.2c0,0,.2,0,.2-.2h0c0,0,0-.2-.1-.2,0,0,0,0,0,0h-.4c0,0-.2,0-.2.2h0c0,0,0,.2.1.2,0,0,0,0,0,0h.4,0ZM221.6,536.1c0,0,.2,0,.2-.2h0c0,0,0-.2-.1-.2,0,0,0,0,0,0h-.4c0,0-.2,0-.2.2h0c0,0,0,.2.1.2,0,0,0,0,0,0h.4ZM221.1,535.6c0,0,.1,0,.1-.1h0c0,0,0-.1,0-.1h-.3c0,0-.1,0-.1.1h0c0,0,0,.1,0,.1h.3,0ZM221.3,534.7c0,0,.1,0,.1-.1h0c0,0,0-.1,0-.1h-.3c0,0-.1,0-.1.1h0c0,0,0,.1,0,.1h.3,0ZM220.8,536.5c0,0,.1,0,.1-.1h0c0,0,0-.1,0-.1h-.3c0,0-.1,0-.1.1h0c0,0,0,.1,0,.1h.3ZM220.6,535.2c0,0,.1,0,.1-.1h0c0,0,0-.1,0-.1h-.3c0,0-.1,0-.1.1h0c0,0,0,.1,0,.1h.3ZM220.3,536.1c0,0,.1,0,.1-.1h0c0,0,0-.1,0-.1h-.3c0,0-.1,0-.1.1h0c0,0,0,.1,0,.1h.3,0ZM219.8,535.6c0,0,.1,0,.1-.1h0c0,0,0-.1,0-.1h-.3c0,0-.1,0-.1.1h0c0,0,0,.1,0,.1h.3ZM220.1,534.7c0,0,.1,0,.1-.1h0c0,0,0-.1,0-.1h-.3c0,0-.1,0-.1.1h0c0,0,0,.1,0,.1h.3ZM219.6,536.5c0,0,.1,0,.1-.1h0c0,0,0-.1,0-.1h-.3c0,0-.1,0-.1.1h0c0,0,0,.1,0,.1h.3ZM222.6,535.3h-.4c-.1,0-.3,0-.3.2h0c0,.1,0,.2.2.2h.3v-.5ZM222.3,536.1h-.4c-.1,0-.3,0-.3.2h0c0,.1,0,.2.2.2h.3v-.5q.1,0,.1,0ZM222.9,534.4h-.4c-.1,0-.3,0-.3.2h0c0,.1,0,.2.2.2h.3l.2-.5Z"/>
        <path class="cls-5" d="M222.4,535.7h.4c.1,0,.3,0,.3-.2h0c0-.1,0-.2-.2-.2h-.3v-.4h.6c.1,0,.3,0,.3-.2h0c0-.1,0-.2-.2-.2h6.1c.3,1.3,0,2.2,0,2.2h-6.7c.1,0,.3,0,.3-.2h0c0-.1,0-.2-.2-.2h-.3v-.4q.1,0,.1,0ZM223.3,535.8c0,0-.1,0-.2.1h0c0,0,0,.1.1.1h.4c0,0,.1,0,.2-.1h0c0,0,0-.1-.1-.1h-.4ZM223.5,534.9c0,0-.1,0-.2.1h0c0,0,0,.1.1.1h.4c0,0,.1,0,.2-.1h0c0,0,0-.1-.1-.1h-.4ZM224.2,535.4c0,0,0,0-.1,0h0c0,0,0,0,0,0h.3c0,0,0,0,.1,0h0c0,0,0,0,0,0h-.3ZM223.9,536.3c0,0,0,0-.1,0h0c0,0,0,0,0,0h.3c0,0,0,0,.1,0h0c0,0,0,0,0,0h-.3,0ZM224.4,534.6c0,0,0,0-.1,0h0c0,0,0,0,0,0h.3c0,0,0,0,.1,0h0c0,0,0,0,0,0h-.3ZM224.8,535.9c0,0,0,0-.1,0h0c0,0,0,0,0,0h.3c0,0,0,0,.1,0h0c0,0,0,0,0,0h-.3s0,0,0,0ZM225,535c0,0,0,0-.1,0h0c0,0,0,0,0,0h.3c0,0,0,0,.1,0h0c0,0,0,0,0,0h-.3ZM225.6,535.4c0,0,0,0-.1,0h0c0,0,0,0,0,0h.3c0,0,0,0,.1,0h0c0,0,0,0,0,0h-.3ZM225.3,536.3c0,0,0,0-.1,0h0c0,0,0,0,0,0h.3c0,0,0,0,.1,0h0c0,0,0,0,0,0h-.3ZM225.8,534.6c0,0,0,0-.1,0h0c0,0,0,0,0,0h.3c0,0,0,0,.1,0h0c0,0,0,0,0,0h-.3Z"/>
      </g>
    </g>
  </g>
</svg>