<?xml version="1.0" encoding="UTF-8"?>
<svg xmlns="http://www.w3.org/2000/svg" version="1.1" viewBox="0 0 400 600">
  <defs>
    <style>
      .cls-1 {
        fill: #f8ee3f;
      }

      .cls-2, .cls-3 {
        fill: #fff;
      }

      .cls-4 {
        fill: $[primary];
      }

      .cls-4, .cls-5 {
        stroke: #000;
        stroke-width: 6px;
      }

      .cls-6 {
        fill: #f6a500;
      }

      .cls-3 {
        stroke: $[secondary];
        stroke-width: 2px;
      }

      .cls-7 {
        display: none;
      }

      .cls-5 {
        fill: #333;
      }

      .cls-8 {
        fill: $[accent];
      }
    </style>
  </defs>
  <!-- Generator: Adobe Illustrator 28.7.4, SVG Export Plug-In . SVG Version: 1.2.0 Build 166)  -->
  <g>
    <g id="_x33_">
      <g id="Layer_1">
        <g id="suit2">
          <path id="Shirt" class="cls-4" d="M281.2,502.8c5.6,3.7,17.7,7.7,28.6,9.9,0,0,30.8,5.3,37.9,7.7,57.4,22.3,50.4,79.7,50.4,79.7l-395.8-.2s-3.8-63.4,37.2-71.5c7.7-1.5,25.9-8.7,35.6-9.4,0,0,37.4-9,42.8-12.6.9,5.7,11.3-29.5,4-41.3,19,3.1,38.2-.2,68.9,0,42.8.4,77.3,2.9,91.1-.5-8.6,16.4-.8,38.2-.8,38.2Z"/>
          <path d="M196,505.5c-12.2,8.8-5.5,94.8-5.5,94.8h1.8s.1-10.1-.4-19.6-.7-12.2-.9-18.9c-.4-18.4,1.1-37.7,2.7-43.5,3.4-12.1,2.3-12.7,2.3-12.7Z"/>
          <circle cx="200.5" cy="523.5" r="1.2"/>
          <circle cx="199.5" cy="538.7" r="1.2"/>
          <circle cx="198.5" cy="556.7" r="1.2"/>
          <circle cx="199.5" cy="574.6" r="1.2"/>
          <circle cx="200.5" cy="588.7" r="1.2"/>
          <g class="cls-7">
            <path class="cls-5" d="M-.1,599.8s-6.3-40.2,22.5-62.8c8.8-6.9,40.4-10,54.5-14.7,7.4-2.5,40.8-17.1,43.2-18.7,1,6.1,2.5,55.6,20.3,96.3.5,1.1-140.5-.2-140.5-.2h0Z"/>
            <path class="cls-5" d="M395.7,599.8s6.3-40.2-22.5-62.8c-8.8-6.9-40.4-10-54.5-14.7-7.4-2.5-40.8-17.1-43.2-18.7-1,6.1-2.5,55.6-20.3,96.3-.5,1.1,140.5-.2,140.5-.2h0Z"/>
          </g>
        </g>
      </g>
      <path id="Shirt-neck" class="cls-4" d="M118,506.4c3.8-10.5,11.4-29.4,4.1-41.2,19,3.1,38.2-.2,68.9,0,42.8.4,77.2,2.7,91-.6-8.6,16.4,3.1,40.7,3.1,40.7l-167.1,1.2Z"/>
      <g id="logos">
        <g id="puma" class="cls-7">
          <g id="M-02-Footer_desktop">
            <g id="puma_logo_footer">
              <path id="Shape" class="cls-2" d="M35.3,540c-.2,0-.3.6-.6.9-.2.2-.5.2-.6.5,0,0,0,.3-.1.4-.1.3-.6.4-.6.7s.4.5.7.7c.3.2.3.4.6.5.3,0,.6-.2,1,0,.3,0,.6.2.6.4s0,.7-.3.6c-.1,0-.6-.2-1.2-.1-.7,0-1.6.3-1.6,1.1,0,.5.5,1,1,.9.4,0,.2-.5.4-.7.3-.3,1.8.9,3.2.9s1-.2,1.5-.6c0,0,.1-.1.2-.1s.2,0,.2,0c1.1.9,2,2.7,6.1,2.7.6,0,1.3.3,1.8.8.5.5.8,1.2,1,1.9.4,1.1,1.2,2.1,2.3,3.2,0,0,1,.8,1.1.8,0,0,.1.2,0,.3,0,.7-.1,2.7,1.4,2.8.4,0,.3-.3.3-.4,0-.3,0-.7.1-1,.3-.5-.5-.7-.5-1.8,0-.8-.7-.7-1-1.2-.2-.3-.4-.6-.4-1,0-2.4-.5-4-.8-4.4-.2-.3-.4-.4-.2-.6,1.3-.8,1.5-1.6,1.5-1.6.7-1.6,1.3-3,2.1-3.6.2-.1.6-.5.9-.6.8-.4,1.2-.6,1.4-.8.3-.3.7-1.1.3-1.5-.4-.6-1.1-.1-1.5,0-2.3,1.4-2.6,3.7-3.4,5.1-.7,1.1-1.7,1.9-2.6,2-.7,0-1.4,0-2.2-.4-1.8-.8-2.8-1.8-3-2-.5-.4-4.2-4-7.3-4.2,0,0-.4-.8-.5-.8-.2,0-.5.5-.6.5-.2,0-.4-.5-.6-.5Z"/>
            </g>
          </g>
        </g>
        <g id="puma-2" data-name="puma" class="cls-7">
          <g id="M-02-Footer_desktop-2" data-name="M-02-Footer_desktop">
            <g id="puma_logo_footer-2" data-name="puma_logo_footer">
              <path id="Shape-2" data-name="Shape" class="cls-2" d="M334.4,535.6c-.2,0-.3.6-.6.9-.2.2-.5.2-.6.5,0,0,0,.3-.1.4-.1.3-.6.4-.6.7s.4.5.7.7c.3.2.3.4.6.5.3,0,.6-.2,1,0,.3,0,.6.2.6.4s0,.7-.3.6c-.1,0-.6-.2-1.2-.1-.7,0-1.6.3-1.6,1.1,0,.5.5,1,1,.9.4,0,.2-.5.4-.7.3-.3,1.8.9,3.2.9s1-.2,1.5-.6c0,0,.1-.1.2-.1s.2,0,.2,0c1.1.9,2,2.7,6.1,2.7.6,0,1.3.3,1.8.8.5.5.8,1.2,1,1.9.4,1.1,1.2,2.1,2.3,3.2,0,0,1,.8,1.1.8,0,0,.1.2,0,.3,0,.7-.1,2.7,1.4,2.8.4,0,.3-.3.3-.4,0-.3,0-.7.1-1,.3-.5-.5-.7-.5-1.8,0-.8-.7-.7-1-1.2-.2-.3-.4-.6-.4-1,0-2.4-.5-4-.8-4.4-.2-.3-.4-.4-.2-.6,1.3-.8,1.5-1.6,1.5-1.6.7-1.6,1.3-3,2.1-3.6.2-.1.6-.5.9-.6.8-.4,1.2-.6,1.4-.8.3-.3.7-1.1.3-1.5-.4-.6-1.1-.1-1.5,0-2.3,1.4-2.6,3.7-3.4,5.1-.7,1.1-1.7,1.9-2.6,2-.7,0-1.4,0-2.2-.4-1.8-.8-2.8-1.8-3-2-.5-.4-4.2-4-7.3-4.2,0,0-.4-.8-.5-.8-.2,0-.5.5-.6.5-.2,0-.4-.5-.6-.5Z"/>
            </g>
          </g>
        </g>
        <g>
          <path class="cls-2" d="M59.2,557.8c-.4-.3-.8-.7-1.3-1.1-.1.2-.3.3-.6.4-.3.1-.6.2-.9.2h-.4c0,0,0,.1,0,.1,1.5.7,3.6.7,3.2.4M62.6,556.2c-.5-.2-1.5-.7-2.5-1.2,0,.3-.4.5-1,.8-.4.2-.7.3-1.1.3,0,.1,0,.3,0,.4,0,0,0,0,0,.1,2.4,1.5,5.2-.1,4.6-.4M69.1,541.7c-.6.3-1.2.4-1.6.5-.9.1-1.8.5-2.7,1v.5c-.1.2-.3.7-.6,1.3h0c.2,0,.4.1.5.3,3.3-1.5,4.6-3,5-4-.2.2-.4.3-.6.4M69.2,543.3c-.3.1-2.1.9-4.5,1.9,0,0,0,.1,0,.2,0,.4-.3,1.2-.7,1.9-.1.2-.3.4-.4.6h0c.2,0,.4.1.5.4,5.7-1.4,5.6-5.2,5-5M65.5,553.9c-.6-.1-2-.4-3.7-.8h0c0,.3-.3.5-.5.6-.2.1-.4.2-.7.4-.3.1-.6.2-.8.3.2.1.4.4.3.6,2.9.8,6-.9,5.3-1.1M68.9,547.3c-.8.2-2.6.5-4.7,1,0,0,0,.1,0,.2,0,.5-.7,1.3-1.1,1.6,0,0-.2.2-.3.2,0,0,.1,0,.2.1,0,0,.1.2.2.3,4.9-.4,6.4-3.6,5.7-3.4M67.7,550.7c-.8,0-2.6,0-4.5,0h0c0,.2,0,.4-.4.8-.2.2-.5.5-.8.7-.1.1-.4.2-.6.4.2.1.4.3.4.5,4.8.6,6.6-2.4,5.9-2.4"/>
          <path class="cls-2" d="M58.3,551.2c1-2.3,2.3-4.4,3.7-6,.8-.9,1.7-1.7,2.5-2.3,1-.6,1.9-1,2.9-1.1,1.4-.2,2.2-.7,2.4-1.6-.5.4-1.3.7-2.5.8-2.8.2-5.4,3.2-7.9,6-2.1,2.3-4.1,6.5-6,7-1.9-.6-3.9-4.7-6-7-2.5-2.8-5.2-5.8-7.9-6-1.1-.1-1.9-.4-2.5-.8.2.9.9,1.4,2.4,1.6,1,.1,1.9.5,2.9,1.1.9.6,1.7,1.3,2.5,2.3,1.4,1.6,2.7,3.7,3.7,6,.5,1,.8,2,1.2,2.9.5,1.4.9,2.6,1.5,3.4.3.4.6.8,1,1,.3.2.7.3,1.1.3h.1c.4,0,.8-.1,1.1-.3.4-.2.7-.5,1-1,.6-.8,1-2,1.5-3.4.3-.9.7-1.9,1.1-2.9"/>
          <path class="cls-2" d="M56.4,556.8c.7,0,1.3-.4,1.2-.5-.2-.2-.5-.4-.7-.6-.2.4-.3.8-.5,1.1M59.6,554.8c-.4-.2-.8-.4-1.1-.5,0,.3-.4.5-.9.7h-.3c0,.3-.2.5-.2.7,1.2.4,3-.7,2.6-.8M63,544.7l-.2.9c0,.2-.1.4-.3.6,1.2-.8,1.7-2,1.8-2.5-.5.3-.9.7-1.3,1.1M64.3,545.5c-.2,0-.9.4-1.9.8,0,0-.1.2-.2.2,0,.2,0,.3-.1.6,0,.2-.2.4-.4.7-.1.2-.3.5-.6.7.2,0,.3.2.4.4,2.3-.8,3-3.5,2.8-3.4M62.7,550.8c-.6,0-1.3,0-2,0,0,.4-.5.9-.7,1.1-.2.1-.3.3-.5.4,0,0,.1.2.1.3,1.8,0,3.4-1.8,3.1-1.8M63.7,548.4c-.4,0-1.2.2-2.2.4,0,0,0,0,0,0,0,.4-.3.9-.6,1.2-.1.1-.2.2-.4.3.1,0,.2.2.2.3,2.1-.3,3.4-2.5,3-2.4M61.2,553c-.5-.1-1-.2-1.6-.3,0,.2-.2.5-.6.7-.2.1-.4.3-.6.4,0,0,0,.1,0,.2,1.6,0,3.2-.9,2.7-1M57.5,554.2c0,0,0,.1,0,.2,0,0,0,0,0,0,.5-.1.8-.3.5-.4-.1,0-.2-.1-.3-.1,0,0,0,.2-.1.3M58.2,552.4c0,.2-.1.4-.2.6,0,.2-.1.4-.2.5.9-.2,1.5-.8,1.4-.9-.3,0-.6-.1-.9-.2,0,0,0,0,0,0M58.7,551.1c0,0,0,.2-.1.2,0,0,0,.1,0,.2,0,0,0,0,0,0,0,0,0,.1,0,.2,0,0,0,0,0,0,0,0,0,.1,0,.2,0,0,0,0,0,0,0,0,0,.1,0,.2,1.4-.2,2.2-1.4,1.9-1.4-.4,0-.9,0-1.4,0,0,0,0,.2,0,.2M59.7,549.2c0,0,0,.1-.1.2h0s0,.2,0,.2h0c0,0,0,.1,0,.2h0s0,.2,0,.2h0s0,.2,0,.2h0c0,0,0,.1,0,.2v.2c-.1,0-.1.1-.2.2,1.8-.4,2.3-1.8,2.1-1.8-.4,0-.9.2-1.4.3h0ZM60,548.6c0,0-.1.2-.2.3,1.5-.9,2-2.4,1.8-2.3-.1,0-.3.1-.4.2-.5.6-.8,1.2-1.2,1.9M62.3,545.4c-.3.4-.6.7-.9,1.1.6-.4.8-.8.9-1.1M50.4,557.3c-.3,0-.6-.1-.9-.2-.3-.1-.5-.2-.6-.4-.5.4-.9.8-1.3,1.1-.4.3,1.7.4,3.2-.4,0,0,0,0,0,0h-.3ZM48.9,556.5c0-.1,0-.3,0-.4-.5,0-.9-.2-1.1-.3-.6-.2-.9-.5-1-.8-1.1.5-2.1,1-2.5,1.2-.5.2,2.2,2,4.6.4,0,0,0,0,0-.1M42.1,543.2c-.8-.5-1.7-.9-2.7-1-.4,0-1.1-.1-1.6-.5-.2-.1-.4-.3-.6-.4.4,1,1.7,2.5,5,4,0-.2.2-.3.5-.3h0c-.4-.6-.5-1.1-.5-1.3v-.5ZM42.7,548.3c0-.2.3-.4.5-.4h0c-.2-.2-.3-.4-.4-.6-.5-.7-.8-1.5-.7-1.9,0,0,0-.1,0-.2-2.4-1-4.2-1.8-4.5-1.9-.6-.2-.6,3.6,5,5M46.8,555c0-.2,0-.5.3-.6-.4,0-.6-.2-.8-.3-.3-.1-.5-.2-.7-.4-.2-.1-.4-.3-.5-.6h0c-1.7.3-3,.6-3.7.8-.6.1,2.4,1.9,5.3,1.1M43.9,550.4c0,0,.1,0,.2-.1-.1,0-.2-.2-.3-.2-.4-.4-1.1-1.1-1.1-1.6,0,0,0-.1,0-.2-2.2-.5-3.9-.8-4.7-1-.7-.1.8,3,5.7,3.5,0-.1,0-.2.2-.3M45.1,553.1c0-.2.1-.4.4-.5-.2,0-.4-.2-.6-.4-.3-.2-.5-.4-.8-.7-.4-.4-.4-.6-.4-.7h0c-1.8,0-3.6,0-4.5-.1-.7,0,1.1,3,5.9,2.4M50.5,556.8c-.2-.3-.3-.7-.5-1.1-.2.2-.4.4-.7.6-.2.1.5.4,1.2.5M49.4,554.9c-.6-.1-.9-.4-.9-.7-.4.2-.7.4-1.1.5-.4.2,1.5,1.2,2.7.8,0-.2-.2-.4-.2-.6h-.4ZM43.9,544.7c-.4-.4-.8-.8-1.3-1.1.1.6.6,1.7,1.8,2.5-.1-.2-.2-.4-.3-.6l-.2-.8Z"/>
          <path class="cls-2" d="M42.7,545.5c-.2-.1.5,2.6,2.7,3.4,0-.2.2-.3.4-.4-.2-.3-.4-.5-.6-.7-.1-.2-.3-.5-.4-.7-.1-.3-.1-.4-.1-.6,0,0-.1-.2-.2-.2-.6-.3-1.2-.5-1.9-.8M47.3,552.6c0-.1,0-.2.1-.3-.2-.1-.4-.2-.5-.4-.2-.1-.7-.6-.7-1.1-.7,0-1.4,0-2,0-.4,0,1.2,1.7,3.1,1.8M45.4,548.8c-1-.2-1.8-.4-2.2-.4-.4,0,.8,2,3,2.4,0-.1,0-.2.2-.3-.1-.1-.3-.2-.4-.3-.3-.3-.7-.8-.6-1.2,0,0,0,0,0,0M48.4,554c0,0,0-.2,0-.2-.2,0-.5-.2-.6-.4-.4-.3-.6-.5-.6-.7-.5.1-1.1.2-1.6.3-.5.1,1.1,1.1,2.7,1M49.4,554.2c0-.1,0-.2-.1-.3-.1,0-.2.1-.3.1-.2.1,0,.3.5.4,0,0,0,0,0,0,0,0,0-.1,0-.2M48.9,552.9c0-.2-.1-.4-.2-.6-.3,0-.7.1-.9.2-.2,0,.5.7,1.4.9,0-.2-.1-.4-.2-.5M48.6,552c0,0,0-.1,0-.2,0,0,0,0,0,0,0,0,0-.1,0-.2,0,0,0,0,0,0,0,0,0-.1,0-.2,0,0,0-.1-.1-.2,0,0,0-.1-.1-.2-.5,0-1,0-1.4,0s.5,1.1,1.9,1.4c0,0,0-.1,0-.2h0ZM47.9,550.5v-.2c0,0,0,0,0,0v-.2c0,0,0,0,0,0v-.2c0,0,0,0,0,0v-.2c0,0,0,0,0,0v-.2c0,0,0,0,0,0v-.2c0,0,0,0,0,0,0,0,0-.1-.1-.2-.5-.1-1-.2-1.3-.3-.2,0,.4,1.3,2.1,1.8,0,0-.1-.1-.1-.2h0ZM45.7,546.8c-.2,0-.3-.1-.4-.2-.2,0,.3,1.4,1.8,2.3,0,0-.1-.2-.2-.3-.4-.6-.8-1.3-1.2-1.9M45.5,546.5c-.3-.4-.6-.7-.9-1.1,0,.3.3.7.9,1.1M39.2,567.3h-.5c-.2,0-.4,0-.6-.2-.1-.1-.2-.3-.2-.6v-1.5c0-.2,0-.4.2-.6.1-.1.3-.2.6-.2h.5c.2,0,.4,0,.6.2.1.1.2.3.2.6v.2c0,0,0,.1-.1.1h-.4c0,0-.1,0-.1-.1v-.2c0-.1,0-.2,0-.2,0,0-.1,0-.2,0h-.3c-.1,0-.2,0-.2,0,0,0,0,.1,0,.2v1.4c0,.1,0,.2,0,.2s.1,0,.2,0h.3c.1,0,.2,0,.2,0s0-.1,0-.2v-.2c0,0,0-.1.1-.1h.4c0,0,.1,0,.1.1v.2c0,.2,0,.4-.2.6-.1.1-.3.2-.6.2M43.2,567.3h-.5c0,0,0,0,0-.1l.7-2.8c0,0,0-.1.1-.1h.6c0,0,.1,0,.1.1l.7,2.8c0,0,0,.1,0,.1h-.5s0,0,0,0,0,0,0,0v-.5h-1.1v.5c-.1,0-.1,0-.2,0s0,0,0,0M43.9,564.8l-.3,1.4h.7l-.3-1.4h0ZM47.8,566.5h0c0-.2,0-.2.1-.2h.4c0,0,.1,0,.1.1h0c0,.2,0,.2,0,.3,0,0,.1,0,.3,0h.2c.1,0,.2,0,.3,0,0,0,0-.1,0-.3h0c0-.1,0-.2-.1-.3,0,0-.2,0-.3,0-.1,0-.2,0-.4,0-.1,0-.2,0-.4-.1-.1,0-.2-.1-.3-.2,0-.1-.1-.3-.1-.5v-.2c0-.2,0-.4.2-.6.1-.1.3-.2.6-.2h.5c.2,0,.4,0,.6.2.1.1.2.3.2.6h0c0,.2,0,.2-.1.2h-.4c0,0-.1,0-.1-.1h0c0-.1,0-.2,0-.3,0,0-.1,0-.3,0h-.2c-.1,0-.2,0-.3,0,0,0,0,.1,0,.3h0c0,.2.1.3.4.4.3,0,.5,0,.7.2.1,0,.2.1.3.2,0,.1.1.3.1.5v.2c0,.2,0,.4-.2.6-.1.1-.3.2-.6.2h-.5c-.2,0-.4,0-.6-.2-.1-.1-.2-.3-.2-.6M53.8,567.3h-.4c0,0-.1,0-.1-.1v-2.4s0,0,0,0h-.5c0,0-.1,0-.1-.1v-.3c0,0,0-.1.1-.1h1.8c0,0,.1,0,.1.1v.3c0,0,0,.1-.1.1h-.5s0,0,0,0v2.4c0,0,0,.1-.1.1M58.7,567.3h-.5c-.2,0-.4,0-.6-.2-.1-.1-.2-.3-.2-.6v-1.5c0-.2,0-.4.2-.6.1-.1.3-.2.6-.2h.5c.2,0,.4,0,.6.2.1.1.2.3.2.6v1.5c0,.2,0,.4-.2.6-.1.1-.3.2-.6.2M58.2,566.8h.3c.1,0,.2,0,.2,0,0,0,0-.1,0-.2v-1.4c0-.1,0-.2,0-.2,0,0-.1,0-.2,0h-.3c-.1,0-.2,0-.2,0,0,0,0,.1,0,.2v1.4c0,.1,0,.2,0,.2,0,0,.1,0,.2,0M62.9,567.3h-.4c0,0-.1,0-.1-.1v-2.8c0,0,0-.1.1-.1h1.1c.2,0,.4,0,.6.2.1.1.2.3.2.6v.4c0,.4-.1.6-.4.7h0s.5,1.1.5,1.1c0,0,0,.1,0,.1h-.4c0,0-.1,0-.1,0,0,0,0,0,0,0l-.5-1h-.3s0,0,0,0v1c0,0,0,.1-.1.1M63,565.7h.5c.1,0,.2,0,.2,0s0-.1,0-.2v-.4c0-.1,0-.2,0-.2,0,0-.1,0-.2,0h-.5s0,0,0,0v.8s0,0,0,0M69,567.3h-1.5c0,0-.1,0-.1-.1v-2.8c0,0,0-.1.1-.1h1.5c0,0,0,0,0,.1v.3c0,0,0,.1,0,.1h-1s0,0,0,0v.6s0,0,0,0h.8c0,0,.1,0,.1.1v.3c0,0,0,.1-.1.1h-.8s0,0,0,0v.7s0,0,0,0h1c0,0,0,0,0,.1v.3s0,0,0,0"/>
        </g>
        <g id="Layer_x5F_1_0">
          <g id="Bybit_x5F_Logo.cdr">
            <polygon class="cls-6" points="341.7 555.1 341.7 537.9 345.2 537.9 345.2 555.1 341.7 555.1"/>
            <path class="cls-2" d="M301.6,560.2h-7.4v-17.1h7.1c3.4,0,5.5,1.9,5.5,4.8s-1.3,3.1-2.2,3.5c1.1.5,2.4,1.6,2.4,3.9s-2.3,4.9-5.4,4.9ZM301,546h-3.4v3.9h3.4c1.5,0,2.3-.8,2.3-2s-.8-2-2.3-2ZM301.2,553h-3.6v4.2h3.6c1.6,0,2.3-1,2.3-2.1s-.7-2.1-2.3-2.1h0Z"/>
            <polygon class="cls-2" points="317.5 553.1 317.5 560.2 314.1 560.2 314.1 553.1 308.8 543 312.5 543 315.8 549.9 319 543 322.8 543 317.5 553.1"/>
            <path class="cls-2" d="M332.6,560.2h-7.4v-17.1h7.1c3.4,0,5.5,1.9,5.5,4.8s-1.3,3.1-2.2,3.5c1.1.5,2.4,1.6,2.4,3.9s-2.3,4.9-5.4,4.9ZM332,546h-3.4v3.9h3.4c1.5,0,2.3-.8,2.3-2s-.8-2-2.3-2ZM332.2,553h-3.6v4.2h3.6c1.6,0,2.3-1,2.3-2.1s-.7-2.1-2.3-2.1h0Z"/>
            <polygon class="cls-2" points="356.3 546 356.3 560.2 352.8 560.2 352.8 546 348.2 546 348.2 543 360.9 543 360.9 546 356.3 546"/>
          </g>
        </g>
        <path id="oracle" class="cls-2" d="M184.4,584.2h9.7l-5.1-8.3-9.4,15h-4.3l11.5-18c.9-1.2,2.6-1.5,3.8-.7.3.2.5.4.7.6l11.5,18h-4.3l-2-3.3h-9.8l-2.1-3.3M229,587.5v-15.6h-3.6v17.1c0,.5.2.9.5,1.3.3.4.8.6,1.3.6h16.6l2.2-3.3h-17M168.7,584.8c3.5,0,6.4-2.9,6.4-6.4s-2.9-6.4-6.4-6.4h-15.9v18.9h3.6v-15.6h12.1c1.7,0,3.1,1.4,3.1,3.1s-1.4,3.1-3.1,3.1h-10.3l10.9,9.5h5.3l-7.3-6.1h1.6M130.4,590.9h11c5.2-.1,9.4-4.5,9.2-9.7-.1-5-4.2-9.1-9.2-9.2h-11c-5.2-.1-9.6,4-9.7,9.2-.1,5.2,4,9.6,9.2,9.7.2,0,.3,0,.5,0M141.1,587.6h-10.5c-3.4-.1-6-2.9-5.9-6.3.1-3.2,2.7-5.8,5.9-5.9h10.5c3.4-.1,6.2,2.5,6.3,5.9.1,3.4-2.5,6.2-5.9,6.3-.1,0-.3,0-.4,0M210.3,590.9h11.2l2.1-3.3h-13.1c-3.4.1-6.2-2.5-6.3-5.9-.1-3.4,2.5-6.2,5.9-6.3.1,0,.3,0,.4,0h10.7l2.2-3.3h-13.1c-5.2-.1-9.6,4-9.7,9.2-.1,5.2,4,9.6,9.2,9.7.2,0,.3,0,.5,0M254.8,587.6c-2.7,0-5.2-1.8-5.9-4.5h15.6l2.1-3.3h-17.7c.7-2.6,3.2-4.5,5.9-4.5h10.7l2.1-3.3h-13.1c-5.2.1-9.4,4.5-9.2,9.7.1,5,4.2,9.1,9.2,9.2h11.2l2.1-3.3h-13.1"/>
      </g>
      <path class="cls-3" d="M387.3,561c-26.3-44.5-72.2-36.3-101.6-51.7-1.4-.7,3.7,3.1,3.7,3.1l5.5,2.1,9.8,3.3,6.1,1.4,9.2,1.8,12.4,3.4,11.6,3.4,9.8,3.9,9.2,4.8,6.7,4.9,6,5.4,4.9,5.8,4.2,5,2.7,5.4s1.4.7-.1-1.8Z"/>
      <path class="cls-3" d="M13.3,553.9c11.2-24.5,54.9-21.8,106-43.3,0,0,1,.7-7.4,4.2s-9.2,3.5-9.2,3.5l-16.1,4.9-22.4,5.3-13.5,3.8-9.6,2.8-7.9,2.7-10.2,6.4s-10.5,11.2-9.8,9.7Z"/>
      <path d="M173.1,467.8c-5.5,3.5-2.4,37.7-2.4,37.7h.8s-.9-27.8.6-32.6,1-5.1,1-5.1Z"/>
      <circle cx="175.9" cy="479.2" r="1.2"/>
      <circle cx="175.9" cy="491.3" r="1.2"/>
      <path class="cls-1" d="M146.2,501s0,0,.1,0h-.1ZM146.5,501.1c0,0,.1,0,.2,0h-.2ZM146.9,501.1c0,0,.1,0,.2,0h-.2ZM147.1,501.1s0,0,.1,0h-.1ZM147.3,501.1c0,0,.1,0,.2,0h-.2ZM147.5,501.1c.1,0,.2,0,.3,0h-.3ZM147.9,501.1c0,0,.1,0,.2,0h-.2ZM148.1,501.1s0,0,.1,0h-.1ZM148.3,501.1s0,0,.1,0h-.1ZM148.7,501.1s0,0,.1,0h-.1ZM155.6,488.4s0,0-.1,0h.1ZM155.2,488.2c0,0-.1,0-.2,0h.2ZM165,495.9h0s0,0,0,0ZM128.3,493.7c-.2-.2-.3-.4-.4-.6,0-.2-.2-.4-.2-.6,0-.9.5-1.6,1.1-1.9.3-.1.4-.2.4-.3,0,0,0,0,0,0-.8,0-1.2-.3-1.4-.6-.2-.2-.3-.6-.3-.9s0-.3,0-.5c.2-.4.4-.3.6,0,0,.1.7.5,1.4.6.5,0,.8.3.9.5.2.2.2.5.2.7s0,.2,0,.3c0,.3-.4.6-.9,1l-.3.2c-.4.3-.6.7-.6,1s0,.2,0,.2c0,0,0,0,0,0,.2.3.7.5,1.3.2.3-.1.9-.5,1.3-.9.4-.4,1-.6,1.6-.6.5,0,.8-.2,1-.4.6-.7,1.2-.8,1.8-.9.2,0,.2,0,.3,0,.3-.4.6-.6.9-.8.2,0,.4-.1.6-.2h.2s0,0,0,0c.3-.1.6-.2,1.2-.6h0s0,0,0,0h0s0,0,0,0h0s0,0,0,0h0s0,0,0,0h0s0,0,0,0h0s0,0,0,0h0s0,0,0,0h0s0,0,0,0h0s0,0,0,0h0s0,0,0,0h0s0,0,0,0h0s0,0,0,0h0s0,0,0,0h0s0,0,0,0h0s0,0,0,0h0s0,0,0,0h0s0,0,0,0h0s0,0,0,0h0s0,0,0,0h0s0,0,0,0h0s0,0,0,0h0s0,0,0,0h0s0,0,0,0h0s0,0,0,0h0s0,0,0,0h0s0,0,0,0h0s0,0,0,0h0s0,0,0,0h0s0,0,0,0h0s0,0,0,0h0s0,0,0,0h0s0,0,0,0h0s0,0,0,0h0s0,0,0,0h0s0,0,0,0h0s0,0,0,0h0s0,0,0,0h0s0,0,0,0h0s0,0,0,0h0s0,0,0,0h0s0,0,0,0c0,0,0,0,.1,0h0s0,0,0,0c0,0,0,0,.1,0h0s0,0,0,0c0,0,.1,0,.2,0h0s0,0,0,0c1.4-1.9,3.6-3.1,6.1-3.3h0c.1,0,.2,0,.4,0,0,0,.2,0,.2,0,0,0,0,0,.1,0h0s0,0,.1,0c2.4.1,4.5,1.4,5.9,3.2.2,0,.4-.1.6-.1h0s0,0,0,0h0s0,0,0,0h0s0,0,0,0h0s0,0,0,0h0s0,0,0,0h0s0,0,0,0h0s0,0,0,0h0s0,0,0,0h0s0,0,0,0h0s0,0,0,0h0s0,0,0,0h0c0,0,.1,0,.2,0h0s0,0,0,0h0s0,0,0,0h0s0,0,0,0h0s0,0,0,0h0s0,0,0,0h0s0,0,0,0h0s0,0,0,0h0s0,0,0,0h0s0,0,0,0h0s0,0,0,0h0s0,0,.1,0h0s0,0,0,0h0s0,0,0,0h0s0,0,0,0h0s0,0,0,0h0s0,0,0,0c.4.3.7.4.9.5,0,0,.2,0,.3.1h0s.2,0,.2,0c.1,0,.2,0,.4,0,.3.1.8.3,1.1.9,0,0,0,0,.3,0,.6,0,1.2.1,1.8.9.2.2.5.4,1,.4.6,0,1.2.2,1.6.6.4.4,1,.8,1.3.9.7.2,1.2,0,1.3-.2,0,0,0-.1,0-.2,0,0,0,0,0-.1,0-.3-.2-.7-.6-1h0s-.2-.2-.2-.2c-.5-.4-.8-.6-.9-1,0,0,0-.2,0-.3,0-.2,0-.5.2-.7.1-.2.4-.5.9-.5.7,0,1.3-.5,1.4-.6.1-.2.3-.3.6,0,0,.2,0,.4,0,.5,0,.3,0,.7-.3.9-.2.3-.6.6-1.4.6s0,0,0,0c0,0,.1.2.4.3.6.3,1.1,1,1.1,1.9,0,.2,0,.4-.2.6,0,.2-.2.4-.3.5,0,0,0,0,0,0-.3.3-.9.5-1.8.5,0,0-.2,0-.3,0,0,.5-.2,1-.3,1.3,0,0,0,.1,0,.2s0,0,0,0c0,0,.4.2.4.2h0s0,0,0,0c0,0,.1,0,.1,0h0s0,0,0,0c.3,0,.6-.1.8.3,0,.1,0,.2,0,.3,0,.2,0,.3.3.5,0,0,0,0,.2-.2,0,0,.1-.1.2-.2.1-.1.3,0,.5,0,.2,0,.3.2.5.3.1,0,.2.2.3.3,0,.1.1.2.3.3.1,0,.3.3.3.7s0,0,0,.1c0,0,0,0,0,.1.2.4,0,.6,0,.7-.2.1-.4.2-.7.1h0c0,0-.4,0-.4,0-.1,0-.3,0-.4,0h0c-.3,0-.6,0-.8-.3,0,0,0,0,0,0,0-.2-.3-.3-.3-.4-.1,0-.3,0-.5,0-.2,0-.4,0-.6-.3,0,0,0,0-.1-.1-.3-.3-.8-.4-1-.4h-.2c-.3,0-.8.2-1.1,0,0,0-.2-.1-.4-.2-.4-.2-.7-.3-.8-.6,0,0,0-.2-.1-.3,0,0,0-.2-.1-.2,0,0,0-.2,0-.3-.1,0-.2,0-.4,0,0,0,0,0-.1,0h-.2c-.3,0-.8-.2-1,0-.3.1-1.4.2-1.7.1,0,0-.1,0-.2,0,0,.1-.2.2-.3.3.2,0,.4,0,.5,0h.3c0,0,.3,0,.4,0h.3s.4,0,.4,0c.2,0,.4.1.3.4,0,.1,0,.3-.2.3,0,0-.2.3-.3.4h0c0,.2-.2.3-.5.3,0,0,0,0-.1,0,0,0,0,0,0,0,0,.2-.2.4-.4.5h0c-.2.2-.4.3-.8.2h-.1c-.4-.2-.9-.4-1.1-.5h0c-.2-.2-.3-.2-.4-.2h0c-.2,0-.6,0-.8-.3h0c-1.2,1.6-3,2.7-5,3.1h0c0,0-.1,0-.2,0h0s0,0,0,0c0,0,0,0-.1,0h0s-.1,0-.1,0h0s0,0-.1,0h0s0,0-.1,0h0c0,0-.1,0-.2,0h0c-.1,0-.2,0-.3,0h0c0,0-.1,0-.2,0h0s0,0-.1,0h0c0,0-.1,0-.2,0h0s0,0,0,0h0c0,0-.1,0-.2,0h0s-.1,0-.1,0h0s0,0-.1,0h0s0,0,0,0c0,0-.1,0-.2,0h0s-.1,0-.1,0h0c0,0-.1,0-.2,0h0c-1.8-.5-3.3-1.7-4.4-3.2v.2c-.4.4-.7.4-.9.3h0c0,0-.1,0-.4.1h0c-.3.2-.8.4-1.1.5h-.1c-.4.2-.7,0-.8-.1h0c-.2-.2-.3-.4-.4-.6,0,0,0,0,0,0,0,0,0,0-.1,0-.3,0-.4-.1-.5-.3h0c0-.1-.2-.4-.3-.4,0,0-.1-.2-.2-.3,0-.3.2-.4.3-.4h.4s.3,0,.3,0c.1,0,.3,0,.4,0h.3c.1-.1.3,0,.5,0-.1,0-.2-.2-.3-.3-.1,0-.2,0-.2,0-.3,0-1.4,0-1.7-.1-.2,0-.7,0-1,0h-.2c-.2,0-.3,0-.5,0,0,.2-.1.4-.2.5,0,0-.1.2-.1.3,0,.3-.4.5-.8.6-.1,0-.3.1-.4.2-.4.2-.8.2-1.1,0h-.2c-.3,0-.7,0-1,.3-.5.5-1,.4-1.2.3,0,0-.2.2-.3.4-.2.3-.6.4-.8.4h0c-.1,0-.3,0-.4,0h-.4s0,0,0,0c-.3,0-.5,0-.7-.1-.1,0-.3-.3,0-.7,0,0,0-.2,0-.2,0-.3.2-.6.3-.7.1,0,.2-.2.3-.3,0-.1.1-.2.3-.3.1,0,.3-.2.5-.3.2,0,.4-.1.5,0,.1.1.4.3.4.3.2-.2.2-.4.4-.8.2-.5.5-.3.8-.3h0s.1,0,.1,0c0,0,0,0,0,0h0s.4-.3.4-.3c0,0,0,0,0,0,0,0,0,0,0-.2-.2-.3-.3-.8-.3-1.3,0,0-.1,0-.2,0-1,0-1.6-.2-1.9-.5h0Z"/>
      <path class="cls-8" d="M130.7,493.8s0,.8.3,1.5c0,0,.3.4,0,.6l-.5.3s0,0-.3,0c0,0-.3,0-.4,0,0,0,0,.3-.2.5,0,0-.2.6-.7.7,0,0-.3,0-.4.4,0,0-.1.2-.3.2,0,0-.2,0-.3.4,0,0,0,.2,0,.4,0,0,.3,0,.4,0,0,0,.4.1.6-.2,0,0,.4-.6.6-.5,0,0,.6.2.9-.2,0,0,.5-.6,1.3-.5,0,0,.9.2,1.1,0,0,0,.5-.3.7-.4,0,0,.2,0,.3-.3,0,0,.1-.4.3-.5h-.4s-.4.6-1,.8c0,0-.3.1-1,0,0,0-1-.2-1.9.7,0,0-.1.2-.3.1,0,0,.5-.8,1.5-1,0,0,.3,0,.6,0,0,0,1.4,0,2.1-1.4,0,0,0-1.2.2-1.5,0,0,.1,0,0,.2,0,0-.2,1.2.2,1.5,0,0,.2.2.7.1,0,0,.7-.2,1.2,0,0,0,.8.2,1.5.1,0,0-.2-.3-.1-.6,0,0,.1-.2.2,0,0,0,.3.9,1,1.2,0,0,.7.2.7,1.1,0,0-.1.1-1,.4,0,0-.3.1-.4-.1,0,0-.4-.9-.8-.9h-.7c0,0-.2.1,0,.3,0,0,.2.3.3.5,0,0,0,.2.3.1,0,0,.3-.2.5.4,0,0,.2.3.4.4,0,0,.3,0,.5,0,0,0,1.1-.4,1.3-.6,0,0,.2-.1.4,0,0,0,.3,0,.5-.2l.4-.5s0-.1,0-.3c0,0,0-.2-.1-.3,0,0-.1-.1-.2-.2l-.3-.6s-.1-.2-.2-.2h-.3s.2.6.4.9c0,0,.2.4.2.6,0,0,0,.2,0,.2,0,0,0,.1-.1.2,0,0-.1.2-.2.3,0,0-.1,0-.2,0,0,0,0,0,0,0,0,0,.2-.4.2-.6,0,0,0-.2-.1-.4,0,0-.4-.6-.4-.8,0,0-.1-.2-.2-.3,0,0-.1-.2,0-.2,0,0,.5-.1.6-.2,0,0,.2,0,.4-.6,0,0,.2-.6.2-1,0,0,.4.8-.3,1.7,0,0,.6.2.8,0,0,0,.7-.1.8-.1,0,0,.2,0,0,0,0,0-.2.3-.2.5,0,0,0,.2-.1.2,0,0-.4.3-.4.5,0,0,0,.3,0,.2,0,0,.2-.1.3,0,0,0,0,0,0,.1,0,0-.2.2-.3.5,0,0,0,.3.1.4,0,0,.1.1.3,0,0,0,0,0,.1,0,0,0,0,0,.3,0,0,0,.3,0,.4-.1,0,0,.4-.1.6-.1,0,0,.1,0,.3,0,0,0,.5,0,.9-.3,0,0,.3-.2.4,0,0,0,.6.8,1.7.6,0,0-.8-.3-1-.8,0,0,0-.4-.5-.9,0,0-.1-.2,0-.2,0,0,0,0,.2.1,0,0,.4.4.6.7,0,0,.5.8,1.2.5,0,0-.6-.2-.8-.6,0,0-.2-.6-.7-1,0,0,0-.6-.3-1,0,0-.1-.6-.2-.7,0,0-.1-.5-.1-.7,0,0,0-.7-.4-1.2,0,0-.3-.6-.7-.9,0,0-.3-.4-.6-.7,0,0-.3-.4-1.1-.9,0,0-.3-.2-.6-.5,0,0-1.3-.9-2.2-.2,0,0-.6.4-1.2.6,0,0-1.1.1-1.6.9,0,0,0,.1-.5.2,0,0-1-.1-1.7.8,0,0-.3.3-1,.4,0,0-1.1-.1-1.8.7,0,0-1.8,1.5-2.8.5,0,0-.5-.5,0-1.5,0,0,.4-.5,1.1-1,0,0,.6-.4.3-1,0,0-.1-.6-1-.6,0,0-1-.2-1.5-.7,0,0-.5,1.6,1.4,1.6,0,0,.5,0,.3.4,0,0-.2.3-.5.4,0,0-.6.2-.8,1,0,0-.6,1.4.8,2,.5.2,1.1.1,1.7,0h0ZM128.1,497.1c0,0,.2,0,.3,0,.2,0,0,.2,0,.2,0,.2-.4.4-.4.4-.3.2-.5,0-.5,0-.2-.2,0-.3,0-.3.1,0,.4-.3.4-.3ZM127.6,498s0,0,0,.2c0,0-.2.6-.2.7,0,0-.4,0-.5-.1,0,0,0,0,0-.2,0,0,0-.1,0-.3,0,0,0-.5.3-.4,0,0,.1,0,.2.2h0ZM143.3,496.9c0,0,0,0,0-.1,0-.2.2-.3.2-.3.4-.2.4,0,.4,0,0,.4-.2.4-.2.4,0,0-.3,0-.3,0ZM144.4,495.2c0-.2,0-.6-.2-.7,0,0-.3-.3-.3-.3,0,0,0,0,0,0,0,0-.1.1-.1.1-.2.4-.4.3-.4.3,0,0,0-.1,0-.1,0-.2.2-.4.3-.5,0,0,0-.1,0-.1.2-.3.4,0,.4,0,0,.2.5.6.5.6,0,.1.1.2.1.2,0,.7-.2.7-.2.7h0ZM140.6,491.1c0-.1,0-.2,0-.3.1-.2.2,0,.2,0,.4.6.1,1.5.1,1.5,0-.9-.4-1.3-.4-1.3h0ZM164.4,493.8s0,.8-.3,1.5c0,0-.3.4,0,.6l.5.3s0,0,.3,0c0,0,.3,0,.4,0,0,0,0,.3.2.5,0,0,.2.6.7.7,0,0,.3,0,.4.4,0,0,.1.2.3.2,0,0,.2,0,.3.4,0,0,0,.2,0,.4,0,0-.3,0-.4,0,0,0-.4.1-.6-.2,0,0-.4-.6-.6-.5,0,0-.6.2-.9-.2,0,0-.5-.6-1.3-.5,0,0-.9.2-1.1,0,0,0-.5-.3-.7-.4,0,0-.2,0-.3-.3,0,0-.2-.4-.3-.5h.4s.4.6,1,.8c0,0,.3.1,1,0,0,0,1-.2,1.9.7,0,0,.1.2.3.1,0,0-.5-.8-1.5-1,0,0-.3,0-.6,0,0,0-1.4,0-2.1-1.4,0,0,0-1.2-.2-1.5,0,0-.1,0,0,.2,0,0,.2,1.2-.2,1.5,0,0-.2.2-.7.1,0,0-.7-.2-1.2,0,0,0-.8.2-1.5.1,0,0,.2-.3.1-.6,0,0-.1-.2-.2,0,0,0-.3.9-1,1.2,0,0-.7.2-.7,1.1,0,0,.1.1,1,.4,0,0,.3.1.4-.1,0,0,.4-.9.8-.9h.7c0,0,.2.1,0,.3,0,0-.2.3-.3.5,0,0,0,.2-.3.1,0,0-.3-.2-.5.4,0,0-.2.3-.4.4,0,0-.3,0-.5,0,0,0-1.1-.4-1.3-.6,0,0-.2-.1-.4,0,0,0-.3,0-.5-.2l-.4-.5s0-.1,0-.3c0,0,0-.2.1-.3,0,0,.1-.1.2-.2l.3-.6s.1-.2.2-.2h.3s-.2.6-.4.9c0,0-.2.4-.2.6,0,0,0,.2,0,.2,0,0,0,.1.1.2,0,0,.1.2.2.3,0,0,.1,0,.2,0,0,0,0,0,0,0,0,0-.2-.4-.2-.6,0,0,0-.2.1-.4,0,0,.4-.6.4-.8,0,0,.1-.2.2-.3,0,0,.1-.2,0-.2,0,0-.5-.1-.6-.2,0,0-.2,0-.4-.6,0,0-.2-.6-.2-1,0,0-.4.8.3,1.7,0,0-.6.2-.8,0,0,0-.7-.1-.8-.1,0,0-.2,0,0,0,0,0,.2.3.2.5,0,0,0,.2.1.2,0,0,.4.3.4.5,0,0,0,.3,0,.2,0,0-.2-.1-.3,0,0,0,0,0,0,.1,0,0,.2.2.3.5,0,0,0,.3-.1.4,0,0-.1.1-.3,0,0,0,0,0-.1,0,0,0,0,0-.3,0,0,0-.3,0-.4-.1,0,0-.4-.1-.6-.1,0,0-.1,0-.3,0,0,0-.5,0-.9-.3,0,0-.3-.2-.4,0,0,0-.6.8-1.7.6,0,0,.8-.3,1-.8,0,0,0-.4.5-.9,0,0,.1-.2,0-.2,0,0,0,0-.2.1,0,0-.4.4-.6.7,0,0-.5.8-1.2.5,0,0,.6-.2.8-.6,0,0,.2-.6.7-1,0,0,0-.6.3-1,0,0,.1-.6.2-.7,0,0,.1-.5.1-.7,0,0,0-.7.4-1.2,0,0,.3-.6.7-.9,0,0,.3-.4.6-.7,0,0,.3-.4,1.1-.9,0,0,.3-.2.6-.5,0,0,1.3-.9,2.2-.2,0,0,.6.4,1.2.6,0,0,1.1.1,1.6.9,0,0,0,.1.5.2,0,0,1-.1,1.7.8,0,0,.3.3,1,.4,0,0,1.1-.1,1.8.7,0,0,1.8,1.5,2.8.5,0,0,.5-.5,0-1.5,0,0-.4-.5-1.1-1,0,0-.6-.4-.3-1,0,0,.1-.6,1-.6,0,0,1-.2,1.5-.7,0,0,.5,1.6-1.4,1.6,0,0-.5,0-.3.4,0,0,.2.3.5.4,0,0,.6.2.8,1,0,0,.6,1.4-.8,2-.5.2-1.1.1-1.7,0h0ZM167.1,497.1c0,0-.2,0-.3,0-.2,0,0,.2,0,.2,0,.2.4.4.4.4.3.2.5,0,.5,0,.2-.2,0-.3,0-.3-.1,0-.4-.3-.4-.3ZM167.6,498s0,0,0,.2c0,0,.2.6.2.7,0,0,.4,0,.5-.1,0,0,0,0,0-.2,0,0,0-.1,0-.3,0,0,0-.5-.3-.4,0,0-.1,0-.2.2h0ZM151.8,496.9c0,0,0,0,0-.1,0-.2-.2-.3-.2-.3-.4-.2-.4,0-.4,0,0,.4.2.4.2.4,0,0,.3,0,.3,0h0ZM150.7,495.2c0-.2,0-.6.2-.7,0,0,.3-.3.3-.3,0,0,0,0,0,0,0,0,.1.1.1.1.2.4.4.3.4.3,0,0,0-.1,0-.1,0-.2-.2-.4-.3-.5,0,0,0,0,0-.1-.2-.3-.4,0-.4,0,0,.2-.5.6-.5.6,0,0,0,.1-.1.2,0,.7.2.7.2.7h0ZM154.6,491.1c0-.1,0-.2,0-.3-.1-.2-.2,0-.2,0-.4.6-.1,1.5-.1,1.5,0-.9.4-1.3.4-1.3h0Z"/>
      <path class="cls-8" d="M181.8,486.1v13.9h4.2v-11.2h2s3.1,0,3.1,1.8-2.7,1.8-2.7,1.8h-1v3.2l4.2,4.4h4.9l-5.8-5.7s4.8-.3,4.8-3.8-3.6-4.4-8.4-4.4h-5.1ZM242.7,492.6s1.8-1,1.8-2.8-2-3.4-6.1-3.4h-7v13.6h8.6s6.2,0,6.2-3.8c0-2.2-1.3-3-3.5-3.6ZM239.3,497.6h-3.7v-8.9h2s2.7-.1,2.7,1.5-2.2,1.5-2.2,1.5h-1.2v2.4h2.4c.6,0,2.7.2,2.7,1.8,0,1.6-2.7,1.8-2.7,1.8h0ZM269,485.8h3.9v14.2h-3.9v-14.2h0ZM262.3,485.8h3.9v14.2h-3.9v-14.2h0ZM247.4,491.7h4v4.7s.1,1.6,2.4,1.6,2.2-1.6,2.2-1.6v-4.7h4v4.9s.5,3.8-6.1,3.8-6.5-3.4-6.5-4v-4.8h0ZM220.9,485.8v6.4s-1.9-1-4.1-1-5.9,1-5.9,4.3,3.2,4.5,5.9,4.5,4.2-1.2,4.2-1.2v1.1h3.9v-14.2h-4s0,0,0,0ZM217.8,497.8c-.2,0-2.8,0-2.8-2.1s2.8-2.2,2.8-2.2c0,0,3.2,0,3.2,2.2s-3,2.2-3.2,2.2ZM203,491.3c6.7,0,6.4,4.4,6.4,4.4v.7h-9.1c0,1,1.2,1.9,2.9,1.9s2.5-1.1,2.5-1.1l3.2,1.1c-1.5,1.5-3.5,2.1-5.7,2.1-7,0-7.1-3.9-7.1-4.4s.1-4.6,6.8-4.6h0ZM200.4,494.7h5s-.2-1.6-2.4-1.6c-2.2,0-2.5,1.6-2.5,1.6Z"/>
    </g>
  </g>
</svg>