<?xml version="1.0" encoding="UTF-8"?>
<svg id="_x32_6" xmlns="http://www.w3.org/2000/svg" version="1.1" viewBox="0 0 400 600">
  <!-- Generator: Adobe Illustrator 29.4.0, SVG Export Plug-In . SVG Version: 2.1.0 Build 152)  -->
  <defs>
    <style>
      .st0 {
        stroke-miterlimit: 10;
        stroke-width: 3px;
      }
	  
	  .st0 {
        fill: lime;
      } 
	  .st1 {
        fill: lime;
      }

      .st0, .st1, .st2 {
        stroke: #000;
      }

      .st3 {
        fill: #f8ee3f;
      }

      .st4, .st5, .st2 {
        fill: #fff;
      }

      .st1, .st2 {
        stroke-width: 6px;
      }

      .st5, .st6, .st7, .st8, .st9, .st10 {
        fill-rule: evenodd;
      }

      .st6 {
        fill: #3b4890;
      }

      .st8 {
        fill: #eb192e;
      }

      .st11 {
        fill: #cc2729;
      }

      .st9 {
        fill: #008c5c;
      }

      .st10 {
        fill: #b44533;
      }
    </style>
  </defs>
  <g id="Layer_1">
    <g id="suit2">
      <path id="Shirt" class="st2" d="M281.2,502.8c5.6,3.7,17.7,7.7,28.6,9.9,0,0,30.8,5.3,37.9,7.7,57.4,22.3,50.4,79.7,50.4,79.7l-395.8-.2s-3.8-63.4,37.2-71.5c7.7-1.5,25.9-8.7,35.6-9.4,0,0,37.4-9,42.8-12.6.9,5.7,11.3-29.5,4-41.3,19,3.1,38.2-.2,68.9,0,42.8.4,77.3,2.9,91.1-.5-8.6,16.4-.8,38.2-.8,38.2Z"/>
      <path class="st3" d="M216.7,570.8c-.1,0-.2-.1-.3-.1h.3ZM215.5,570.5c-.1,0-.3,0-.4,0h.4ZM242.6,588.8h0s0,0,0,0ZM180.9,596.9c-1.5-1.1-3-2.4-4.2-3.9l-.4.5c-.7,1-1.7.9-2.2.8h-.1c-.2,0-.4,0-1.1.3h-.1c-.7.4-2.2.9-3.2,1.2h-.4c-1.1.5-1.8,0-2.3-.2h-.1c-.5-.4-.8-.9-1-1.3,0,0,0-.1,0-.2-.1,0-.2,0-.3,0-.9,0-1.2-.3-1.4-.7h0c-.1-.3-.6-.9-.8-1-.2-.2-.4-.6-.4-.8,0-.8.4-1,.9-1.1h1c0,0,.9-.1.9-.1.3,0,.9,0,1.1,0l.7-.2c.4,0,.9,0,1.5,0-.3-.2-.6-.4-.9-.7-.3,0-.6.1-.6.1-.8.2-3.7,0-4.7-.3-.5-.1-1.9,0-2.7.2h-.4c-.4.1-.9,0-1.3,0,0,.5-.3.9-.6,1.2-.1.2-.3.5-.3.6-.1.8-1.1,1.2-2.1,1.5-.4.1-.7.3-1,.4-1.1.6-2.2.4-3.1.2h-.4c-.7-.2-1.9,0-2.8.8-1.4,1.2-2.8.9-3.4.8-.2.1-.6.5-.9.9-.5.8-1.5,1.1-2.3.9h0c-.3,0-.8-.2-1.2-.1h-1c0,.1,0,0,0,0-.7,0-1.4,0-1.9-.3-.3-.2-.7-.7-.2-1.6.1-.2.2-.4.2-.6,0-.8.5-1.4.9-1.6.4-.2.7-.4.8-.6.1-.3.3-.5.7-.7.4-.2.9-.5,1.3-.6.4-.1,1-.3,1.3,0,.3.3,1.1.8,1.1.8.7-.5.6-1,1-1.9.4-1.1,1.5-.8,2.2-.7h0s.4,0,.4,0c0,0,.1,0,.1,0h.2c0,0,1.1-.6,1.1-.6,0,0,0,0,0,0,0,0,0-.2-.2-.4-.5-.7-.8-2-.9-3.1-.2,0-.3,0-.5,0-2.7.2-4.3-.4-5.2-1.2h0c-.5-.4-.9-.9-1.1-1.5-.2-.5-.4-1-.4-1.5,0-2.2,1.5-3.9,3.1-4.6.7-.3,1-.6,1.1-.7,0,0-.1,0-.2,0-2.2,0-3.3-.7-3.9-1.4-.5-.6-.8-1.3-.8-2.2s0-.8.2-1.2c.6-.9,1.2-.6,1.6-.2.2.3,1.8,1.2,3.7,1.4,1.4.1,2.2.7,2.6,1.2.5.6.6,1.2.6,1.8s0,.4,0,.6c-.2.7-1.1,1.4-2.4,2.3l-.7.5c-1,.8-1.6,1.7-1.6,2.4s0,.4.1.5c0,0,0,.1.1.2.5.7,1.8,1.1,3.7.5.9-.3,2.6-1.2,3.6-2.1,1.2-1.1,2.9-1.3,4.4-1.4,1.4,0,2.2-.4,2.8-1,1.8-1.7,3.4-2,5-2.1.6,0,.6,0,.7-.2.9-1,1.8-1.5,2.6-1.8.6-.2,1.2-.3,1.6-.4h.6c0-.1.1-.2.1-.2.9-.2,1.6-.4,3.3-1.5h0s0,0,0,0h0s0,0,0,0h0s0,0,0,0h0s0,0,0,0h0s0,0,0,0h0s0,0,0,0h0s0,0,0,0h0s0,0,0,0h0s0,0,0,0h0s0,0,0,0h0s0,0,0,0h0s0,0,0,0h0s0,0,0,0h0s0,0,0,0h0s0,0,0,0h0s0,0,0,0h0s0,0,0,0h0s0,0,0,0h0s0,0,0,0h0s0,0,0,0h0s0,0,0,0h0s0,0,0,0h0s0,0,0,0h0s0,0,0,0h0s0,0,0,0h0s0,0,0,0h0s0,0,0,0h0s0,0,0,0h0s0,0,0,0h0s0,0,0,0h0c0,0,.1,0,.2,0h0s0,0,0,0h0s0,0,0,0h0s0,0,0,0h0s0,0,0,0h0s0,0,0,0h0s0,0,0,0h0s0,0,0,0h0s0,0,0,0h0s0,0,0,0h0s0,0,0,0c.1,0,.2,0,.3,0h0s0,0,0,0c.1,0,.2,0,.3,0h0s0,0,0,0c.2,0,.4.1.6.2h0s0,0,0,0c3.8-4.5,9.9-7.5,16.7-7.8h0c.3,0,.7,0,1,0,.2,0,.4,0,.7,0,.1,0,.2,0,.3,0h0c.1,0,.2,0,.3,0,6.6.3,12.5,3.2,16.3,7.6.5-.2,1.1-.3,1.7-.3h0s0,0,0,0h0s0,0,0,0h0s0,0,0,0h0s0,0,0,0h0s0,0,0,0h0s0,0,0,0h0s0,0,0,0h0s0,0,0,0h0s0,0,0,0h0s0,0,0,0h0s0,0,0,0h0c.1,0,.3,0,.4,0h0s0,0,0,0h0s0,0,0,0h0s0,0,0,0h0s0,0,0,0h0s0,0,0,0h0s0,0,0,0h0s0,0,0,0h0s0,0,0,0h0s0,0,0,0h0s0,0,0,0h0c.1,0,.2,0,.3.1h0s0,0,0,0h0s0,0,0,0h0s0,0,0,0h0s0,0,0,0h0s0,0,0,0c1.2.7,1.9,1,2.5,1.3.3,0,.5.2.8.2h.1s.6.2.6.2c.3,0,.7.1,1,.2.9.3,2.1.8,3.2,2,0,0,.1.1.7.2,1.6.1,3.3.3,5,2.1.6.6,1.4.9,2.8,1,1.6.1,3.2.4,4.4,1.4,1,.9,2.7,1.8,3.6,2.1,1.9.6,3.2.2,3.7-.5.1-.1.2-.3.2-.5,0,0,0-.2,0-.3,0-.7-.6-1.6-1.6-2.4h-.1c0,0-.6-.5-.6-.5-1.3-.9-2.2-1.5-2.4-2.3,0-.2,0-.4,0-.6,0-.6.2-1.2.6-1.8.4-.5,1.2-1.1,2.6-1.2,1.9-.2,3.5-1.1,3.7-1.4.4-.5.9-.7,1.6.2.1.4.2.8.2,1.2,0,.8-.3,1.6-.8,2.2-.6.6-1.7,1.4-3.9,1.4s-.1,0-.2,0c.1.1.4.4,1.1.7,1.6.8,3.1,2.4,3.1,4.6,0,.5-.2,1.1-.4,1.5-.2.5-.5.9-.9,1.3,0,0-.1,0-.2.1-.9.7-2.4,1.3-4.9,1.2-.3,0-.5,0-.8,0,0,1.1-.4,2.4-.9,3.1-.1.2-.2.3-.2.4s0,0,0,0c0,0,1.1.6,1.1.6h.2c0,0,.1.1.1.1,0,0,.4,0,.4,0h0s0,0,0,0c.7,0,1.7-.3,2.2.7.1.3.2.5.3.8.1.5.3.8.7,1.1,0,0,.2-.2.5-.4.2-.2.4-.3.6-.5.3-.3.9-.1,1.3,0,.4.1,1,.5,1.3.6.4.2.6.4.7.7.1.3.4.5.8.6.4.2.9.8.9,1.6s0,.2,0,.3c0,0,0,.2.1.2.5.9.1,1.4-.2,1.6-.4.3-1.2.4-1.9.3v.2s-1-.1-1-.1c-.4,0-.9,0-1.2.1h0c-.7.1-1.7,0-2.2-.8,0,0,0,0,0,0-.3-.4-.7-.8-.9-.9-.3,0-.8.2-1.3.1-.5,0-1.1-.2-1.7-.7-.1,0-.2-.2-.3-.2-.9-.8-2.1-.9-2.8-.8h-.4c-.9.2-2.1.4-3.1-.2-.3-.1-.6-.3-1-.4-1-.4-2-.7-2.1-1.5,0-.1-.2-.4-.3-.6-.1-.2-.3-.4-.4-.6-.1-.2-.2-.4-.2-.6-.3,0-.6,0-1,0-.1,0-.2,0-.3,0h-.4c-.7-.2-2.2-.4-2.6-.2-.9.3-3.9.4-4.7.3,0,0-.3,0-.6-.1-.3.2-.6.5-.9.7.6,0,1.1,0,1.5,0l.7.2c.2,0,.8,0,1.1,0h.9c0,0,1,.1,1,.1.5,0,1,.3.9,1.1,0,.3-.2.6-.4.8-.1.1-.7.8-.8,1h0c-.2.4-.5.8-1.4.8-.1,0-.2,0-.3,0,0,0,0,.2,0,.2-.2.4-.5.9-1,1.2h-.1c-.4.4-1.2.8-2.3.5h-.4c-1-.4-2.4-.9-3.2-1.2h-.1c-.7-.4-.8-.4-1.1-.4h-.1c-.5,0-1.5.2-2.2-.8h0c-1.1,1.2-2.4,2.4-3.7,3.4h-28Z"/>
      <path class="st11" d="M148.3,583.8s-.2,1.9.7,3.5c0,0,.7.9,0,1.5l-1.5.8s-.2.1-.9,0c0,0-.9-.2-1.2.2,0,0-.3.7-.6,1.2,0,0-.7,1.4-1.8,1.8,0,0-.9.2-1.2.9,0,0-.3.5-.9.5,0,0-.4.1-.7,1,0,0-.2.5-.1,1,0,0,.7,0,1.2,0,0,0,1.2.3,1.7-.5,0,0,1-1.5,1.8-1.3,0,0,1.5.4,2.6-.5,0,0,1.5-1.4,3.5-1.1,0,0,2.3.4,3.1,0,0,0,1.5-.7,2-.8,0,0,.7-.2.7-.8,0,0,.4-.9.7-1.2h-1.1s-1,1.5-2.7,1.9c0,0-.9.3-2.8,0,0,0-2.7-.5-5.1,1.7,0,0-.3.4-.8.2,0,0,1.3-1.9,4.2-2.4,0,0,.9-.2,1.7,0,0,0,3.9,0,5.7-3.2,0,0-.2-2.8.7-3.5,0,0,.3,0,.3.5,0,0-.6,3,.5,3.5,0,0,.6.4,1.8.3,0,0,1.8-.4,3.3-.2,0,0,2.3.5,4.2.3,0,0-.5-.7-.4-1.5,0,0,.3-.6.6-.2,0,0,.7,2.1,2.8,2.8,0,0,1.8.6,1.8,2.6,0,0-.3.3-2.7,1,0,0-.9.2-1.2-.3,0,0-1.2-2.2-2.2-2.1h-1.9c0,.1-.7.3-.2.7,0,0,.7.8.9,1.2,0,0,0,.4.7.3,0,0,.9-.4,1.3,1,0,0,.4.7,1.2.9,0,0,.7.2,1.3-.1,0,0,3.1-1,3.7-1.4,0,0,.7-.3,1.2-.2,0,0,.9.2,1.3-.5l1-1.3s.2-.3.2-.7c0,0,0-.4-.3-.8,0,0-.4-.3-.4-.6l-.7-1.4s-.3-.4-.6-.5h-.9c0,0,.6,1.5,1.1,2.1,0,0,.6.8.6,1.4,0,0,0,.4-.2.5,0,0-.2.3-.3.4,0,0-.3.5-.5.6,0,0-.4.2-.5.2,0,0-.2,0,0-.2,0,0,.5-1,.5-1.5,0,0,.1-.5-.3-.8,0,0-1-1.4-1.2-1.8,0,0-.3-.6-.5-.6,0,0-.4-.4.2-.6,0,0,1.4-.3,1.7-.4,0,0,.7-.2,1.1-1.4,0,0,.6-1.4.6-2.3,0,0,1.2,2-.7,4,0,0,1.5.4,2.1,0,0,0,1.9-.2,2.2-.3,0,0,.5,0,.2.2,0,0-.6.7-.6,1.2,0,0,0,.4-.4.6,0,0-1.1.7-1.2,1.3,0,0-.2.6.2.5,0,0,.6-.3.9,0,0,0,0,0-.2.3,0,0-.6.5-.7,1.1,0,0,.1.8.3,1,0,0,.3.3.7.2,0,0,.1,0,.3,0,0,0,.2,0,.8-.2,0,0,.9-.2,1.2-.3,0,0,1.1-.4,1.7-.3,0,0,.4,0,.8,0,0,0,1.4.1,2.4-.8,0,0,.7-.5,1,0,0,0,1.7,2,4.5,1.5,0,0-2.2-.8-2.8-1.9,0,0,0-.9-1.2-2.2,0,0-.4-.4,0-.5,0,0,.2-.1.6.3,0,0,1.1.9,1.5,1.8,0,0,1.4,1.8,3.4,1.2,0,0-1.6-.5-2.3-1.5,0,0-.5-1.3-2-2.3,0,0,0-1.5-.8-2.3,0,0-.4-1.4-.5-1.7,0,0-.4-1.2-.4-1.6,0,0,.1-1.6-1.1-2.8,0,0-.8-1.3-2-2.3,0,0-.9-1-1.6-1.6,0,0-.9-.9-2.9-2.2,0,0-.9-.6-1.6-1.2,0,0-3.5-2.2-6.1-.4,0,0-1.8,1-3.2,1.4,0,0-3,.3-4.3,2.1,0,0-.1.3-1.3.5,0,0-2.7-.3-4.7,2,0,0-.9.8-2.7,1,0,0-3-.3-4.9,1.7,0,0-4.9,3.7-7.8,1.3,0,0-1.5-1.2.2-3.5,0,0,1.1-1.1,3-2.3,0,0,1.5-.9.8-2.4,0,0-.4-1.4-2.6-1.4,0,0-2.8-.5-4-1.7,0,0-1.3,3.9,3.8,3.9,0,0,1.3.2.9,1.1,0,0-.6.8-1.5,1.1,0,0-1.5.6-2.2,2.5,0,0-1.5,3.4,2.2,4.7,1.4.4,3.1.3,4.6,0h0ZM141.1,591.7c.2-.1.5-.2.8-.2.6.1.2.6.2.6-.2.4-1,1.1-1,1.1-.7.5-1.3,0-1.3,0-.5-.4.2-.7.2-.7.4-.1,1.1-.7,1.1-.7ZM139.6,593.8s.2.1.1.4c0,0-.6,1.3-.5,1.8,0,0-1.2.2-1.4-.3,0,0,0-.2.2-.5,0,0,.2-.3.3-.8,0,0,0-1.3.9-.9.2,0,.3.2.5.4h0ZM182.9,591.1c-.2,0-.3,0-.2-.3.1-.6.7-.8.7-.8,1-.5,1.1,0,1.1,0,.2.9-.7,1-.7,1-.2,0-.9,0-.9,0ZM185.9,587c0-.4,0-1.4-.4-1.7-.2-.1-.9-.8-.9-.8-.1-.2-.2-.2-.2-.2-.2,0-.3.3-.3.3-.5.9-1.1.8-1.1.8,0-.2.1-.3.1-.3.3-.4.5-.9.8-1.3,0-.2.1-.4.1-.4.5-.7,1-.2,1-.2.2.4,1.4,1.5,1.4,1.5.3.3.3.5.3.5.3,1.6-.7,1.8-.7,1.8h0ZM175.4,577.2c-.2-.2,0-.5,0-.7.4-.5.7,0,.7,0,1.2,1.5.3,3.7.3,3.7-.1-2-1.1-3-1.1-3h0ZM240.9,583.8s.2,1.9-.7,3.5c0,0-.7.9,0,1.5l1.5.8s.2.1.9,0c0,0,.9-.2,1.2.2,0,0,.3.7.6,1.2,0,0,.7,1.4,1.8,1.8,0,0,.9.2,1.2.9,0,0,.3.5.9.5,0,0,.4.1.7,1,0,0,.2.5.1,1,0,0-.7,0-1.2,0,0,0-1.2.3-1.7-.5,0,0-1-1.5-1.8-1.3,0,0-1.5.4-2.6-.5,0,0-1.5-1.4-3.5-1.1,0,0-2.3.4-3.1,0,0,0-1.5-.7-2-.8,0,0-.7-.2-.7-.8,0,0-.4-.9-.7-1.2h1.1s1,1.5,2.7,1.9c0,0,.9.3,2.8,0,0,0,2.7-.5,5.1,1.7,0,0,.3.4.8.2,0,0-1.3-1.9-4.2-2.4,0,0-.9-.2-1.7,0,0,0-3.9,0-5.7-3.2,0,0,.2-2.8-.7-3.5,0,0-.3,0-.3.5,0,0,.6,3-.5,3.5,0,0-.6.4-1.8.3,0,0-1.8-.4-3.3-.2,0,0-2.3.5-4.2.3,0,0,.5-.7.4-1.5,0,0-.3-.6-.6-.2,0,0-.7,2.1-2.8,2.8,0,0-1.8.6-1.8,2.6,0,0,.3.3,2.7,1,0,0,.9.2,1.2-.3,0,0,1.2-2.2,2.2-2.1h1.9c0,.1.6.3.2.7,0,0-.7.8-.9,1.2,0,0,0,.4-.7.3,0,0-.9-.4-1.3,1,0,0-.4.7-1.2.9,0,0-.7.2-1.3-.1,0,0-3.1-1-3.7-1.4,0,0-.7-.3-1.2-.2,0,0-.9.2-1.3-.5l-1-1.3s-.2-.3-.2-.7c0,0,0-.4.3-.8,0,0,.4-.3.4-.6l.7-1.4s.3-.4.6-.5h.9c0,0-.6,1.5-1.1,2.1,0,0-.6.8-.6,1.4,0,0,0,.4.2.5,0,0,.2.3.3.4,0,0,.3.5.5.6,0,0,.4.2.5.2,0,0,.2,0,0-.2,0,0-.5-1-.5-1.5,0,0-.1-.5.3-.8,0,0,1-1.4,1.2-1.8,0,0,.3-.6.5-.6,0,0,.4-.4-.2-.6,0,0-1.4-.3-1.7-.4,0,0-.7-.2-1.1-1.4,0,0-.6-1.4-.6-2.3,0,0-1.2,2,.7,4,0,0-1.5.4-2.1,0,0,0-1.9-.2-2.2-.3,0,0-.5,0-.2.2,0,0,.6.7.6,1.2,0,0,0,.4.4.6,0,0,1.1.7,1.2,1.3,0,0,.2.6-.2.5,0,0-.6-.3-.9,0,0,0,0,0,.2.3,0,0,.6.5.7,1.1,0,0-.1.8-.3,1,0,0-.3.3-.7.2,0,0-.1,0-.3,0,0,0-.2,0-.8-.2,0,0-.9-.2-1.2-.3,0,0-1.1-.4-1.7-.3,0,0-.4,0-.8,0,0,0-1.4.1-2.4-.8,0,0-.7-.5-1,0,0,0-1.7,2-4.5,1.5,0,0,2.2-.8,2.8-1.9,0,0,0-.9,1.2-2.2,0,0,.4-.4,0-.5,0,0-.2-.1-.6.3,0,0-1.1.9-1.5,1.8,0,0-1.4,1.8-3.4,1.2,0,0,1.6-.5,2.3-1.5,0,0,.5-1.3,2-2.3,0,0,0-1.5.8-2.3,0,0,.4-1.4.5-1.7,0,0,.4-1.2.4-1.6,0,0-.1-1.6,1.1-2.8,0,0,.8-1.3,2-2.3,0,0,.9-1,1.6-1.6,0,0,.9-.9,2.9-2.2,0,0,.9-.6,1.6-1.2,0,0,3.5-2.2,6.1-.4,0,0,1.8,1,3.2,1.4,0,0,3,.3,4.3,2.1,0,0,.1.3,1.3.5,0,0,2.7-.3,4.7,2,0,0,.9.8,2.7,1,0,0,3-.3,4.9,1.7,0,0,4.9,3.7,7.8,1.3,0,0,1.5-1.2-.2-3.5,0,0-1.1-1.1-3-2.3,0,0-1.5-.9-.8-2.4,0,0,.4-1.4,2.6-1.4,0,0,2.8-.5,4-1.7,0,0,1.3,3.9-3.8,3.9,0,0-1.3.2-.9,1.1,0,0,.6.8,1.5,1.1,0,0,1.5.6,2.2,2.5,0,0,1.5,3.4-2.2,4.7-1.4.4-3.1.3-4.6,0h0ZM248.1,591.7c-.2-.1-.5-.2-.8-.2-.6.1-.2.6-.2.6.2.4,1,1.1,1,1.1.7.5,1.3,0,1.3,0,.5-.4-.2-.7-.2-.7-.4-.1-1.1-.7-1.1-.7ZM249.6,593.8s-.2.1-.1.4c0,0,.6,1.3.5,1.8,0,0,1.2.2,1.4-.3,0,0,0-.2-.2-.5,0,0-.2-.3-.3-.8,0,0,0-1.3-.9-.9-.2,0-.3.2-.5.4h0ZM206.3,591.1c.2,0,.3,0,.2-.3-.1-.6-.7-.8-.7-.8-1-.5-1.1,0-1.1,0-.2.9.7,1,.7,1,.2,0,.9,0,.9,0h0ZM203.2,587c0-.4,0-1.4.4-1.7.2-.1.9-.8.9-.8.1-.2.2-.2.2-.2.2,0,.4.3.4.3.5.9,1.1.8,1.1.8,0-.2-.1-.3-.1-.3-.3-.4-.5-.9-.8-1.3,0-.1-.1-.2-.1-.4-.5-.7-1-.2-1-.2-.2.4-1.4,1.5-1.4,1.5-.2.2-.2.3-.3.5-.3,1.6.7,1.8.7,1.8h0ZM213.8,577.2c.2-.2,0-.5,0-.7-.4-.5-.7,0-.7,0-1.2,1.5-.3,3.7-.3,3.7.1-2,1.1-3,1.1-3h0Z"/>
      <path class="st0" d="M190.3,564.6s-65.2-31-81.4-16.7c-10.7-6.8-31.3-17.7-46.2-8.3-5.2-6.3-24.9-9.1-24.9-9.1l12.3-5,17.7-4.7,17.2-3.9,13-3.1,13.6-4.7,11.7-2.6h15.7l132.3-.8h12.3l5.7,1.6,7.8,3.1,14.9,3.1,24.5,5,9.4,1.6,9.7,4.4,11.3,7.8s-30.8-2.6-37,7.8c-9.1-3.4-29.5-7-47.2,9.9-22.7-13.6-92.3,14.6-92.3,14.6Z"/>
      <path d="M196,505.5c-12.2,8.8-5.5,94.8-5.5,94.8h1.8s.1-10.1-.4-19.6-.7-12.2-.9-18.9c-.4-18.4,1.1-37.7,2.7-43.5,3.4-12.1,2.3-12.7,2.3-12.7Z"/>
      <circle cx="200.5" cy="523.5" r="1.2"/>
      <circle cx="199.5" cy="538.7" r="1.2"/>
      <circle cx="198.5" cy="556.7" r="1.2"/>
      <circle cx="199.5" cy="574.6" r="1.2"/>
      <circle cx="200.5" cy="588.7" r="1.2"/>
    </g>
  </g>
  <path id="Shirt-neck" class="st1" d="M118,506.4c3.8-10.5,11.4-29.4,4.1-41.2,19,3.1,38.2-.2,68.9,0,42.8.4,77.2,2.7,91-.6-8.6,16.4,3.1,40.7,3.1,40.7l-167.1,1.2Z"/>
  <path d="M173.1,467.8c-5.5,3.5-2.4,37.7-2.4,37.7h.8s-.9-27.8.6-32.6,1-5.1,1-5.1Z"/>
  <circle cx="175.9" cy="479.2" r="1.2"/>
  <circle cx="175.9" cy="491.3" r="1.2"/>
  <g>
    <path class="st10" d="M327.3,558c0-4,3.2-7.2,7.2-7.2s7.2,3.2,7.2,7.2-3.2,7.2-7.2,7.2-7.2-3.2-7.2-7.2h0ZM334.5,561.2c1.8,0,3.2-1.4,3.2-3.2s-1.4-3.2-3.2-3.2-3.2,1.4-3.2,3.2,1.4,3.2,3.2,3.2h0Z"/>
    <path class="st6" d="M306.3,545.9h6.1l3.5,11.8,3.5-11.8h5.8v18.8h-3.9v-13.1l-3.9,13.1h-3.5l-3.6-13.2v13.2h-4v-18.9ZM343.1,545.9h3.9v18.8h-3.9v-18.8Z"/>
    <path class="st6" d="M344.2,558.1c0-4,3-7.2,6.8-7.2s6.8,3.2,6.8,7.2-3,7.2-6.8,7.2c-3.7,0-6.8-3.2-6.8-7.2ZM350.5,561.3c1.8,0,3.2-1.4,3.2-3.2,0-1.8-1.4-3.2-3.2-3.2h0c-1.8,0-3.2,1.4-3.2,3.2,0,1.8,1.4,3.2,3.2,3.2ZM365.1,545.9h3.9v18.8h-3.9v-18.8ZM359.2,550.8h3.9v14h-3.9v-14h0ZM363.1,549.8v-4h-4v4h4Z"/>
    <path class="st7" d="M350.7,592v-22.6h-22.6v22.6h22.6Z"/>
    <path class="st5" d="M338.4,571.1h3.7v18.9h-4.1v-14.7h-2.8v-2.7s2.6.5,3.2-1.4h0Z"/>
  </g>
  <g id="layer1">
    <path id="path39462" class="st7" d="M32.9,577.9v-32.6h56.5s0,32.6,0,32.6l-28.2,16.2-28.2-16.2Z"/>
    <path id="path39464" class="st4" d="M34.4,546.7h0v30.4l26.8,15.4h0s0,0,0,0l26.7-15.4h0v-30.4h-53.5Z"/>
    <path id="path39466" class="st9" d="M35.8,548.2v16.4h50.6v-16.4h-50.6Z"/>
    <path id="path39468" class="st8" d="M35.8,566v10.2l25.3,14.5,25.3-14.5v-10.2h-50.6Z"/>
    <path id="path39470" class="st5" d="M48.2,562.7v-9.9h5.3v-2.6h-14.2v2.6h5.3v9.9h3.7Z"/>
    <path id="path39472" class="st5" d="M82.5,562.4c-2.9.6-6.5.7-9.2-.3-2.3-.9-3.7-2.9-4-4.9-.3-2.4.8-4.6,3.1-6,2.7-1.6,6.9-1.6,9.8-.4v2.7c-2.2-.9-5.5-1.6-7.6-.2-1.5,1-2,2.6-1.6,4.2.3,1.2,1.5,2.4,2.9,2.8,1,.3,2.2.4,3.3.2v-2h-1.4s0-2.4,0-2.4h4.7v6.5Z"/>
    <path id="path39474" class="st5" d="M60.3,553.2l-2.3,4.4h4.4l-2.1-4.4ZM57,560.2l-1.3,2.5h-3.8l6.2-12.6h4.3l6.3,12.6h-3.8l-1.3-2.5h-6.5Z"/>
    <path id="path39476" class="st4" d="M65.3,585.9v-17.9h0c0,0-1.8,0-1.8,0h0v16.9l-2.1,1.2-2.1-1.2v-16.8h0c0,0-1.8,0-1.8,0h0s0,0,0,0v17.9h0c0,0,4,2.4,4,2.4h0l4-2.3h0Z"/>
    <path id="path39478" class="st4" d="M54,584.3h.1v-2h0c0,0-3.9-2.2-3.9-2.2v-4.7l3.5.9h0v-2h0c0,0-3.5-.9-3.5-.9v-3.7h3.9v-1.7h0c0,0-5.7,0-5.7,0h0v13h0c0,0,5.7,3.4,5.7,3.4Z"/>
    <path id="path39480" class="st4" d="M74.3,580.7v-1.7h0c0,0,0,0,0,0l-3.8,2.1v-5.2l3.5-.9h0v-1.8h0c0,0,0,0,0,0l-3.5.8v-4.1h3.9v-1.7h0c0,0-5.7,0-5.7,0h0v16h0c0,0,0,0,0,0l5.7-3.3h0Z"/>
    <path id="path39482" class="st4" d="M43.5,578.2l1.6.9h.1v-11.1h0c0,0-1.6,0-1.6,0h0v4l-3.8-.8v-3.1h0c0,0-1.6,0-1.6,0h0s0,0,0,0v7h0c0,0,1.5,1,1.5,1h.1v-3.3l3.8,1v4.5h0Z"/>
    <path id="path39484" class="st4" d="M79,569.7h3.3c.1,0,.3.1.3.3v.8c0,.2,0,.3-.3.4l-3.3.7v-2.2ZM77.3,579h0l1.6-.9h0v-4.5l1-.2,2.8,2.5h.1s1.4-.8,1.4-.8h0c0,0,0-.1,0-.1l-2.4-2.1,1.7-.4c.6-.1.7-.4.7-1v-2.8c0-.4-.4-.6-.8-.6h-6.2v11h0"/>
  </g>
  <g id="puma">
    <g id="M-02-Footer_desktop">
      <g id="puma_logo_footer">
        <path id="Shape" class="st4" d="M91.8,519.4c-.1,0-.3.5-.6.8-.2.2-.4.2-.6.4,0,0,0,.2,0,.4-.1.3-.5.3-.5.6s.3.4.6.7c.2.2.3.3.5.4.2,0,.6-.2.9,0,.3,0,.5.1.6.4s0,.6-.3.5c-.1,0-.6-.2-1.1-.1-.7,0-1.4.3-1.5,1,0,.4.5.9.9.8.3,0,.2-.5.4-.7.3-.2,1.6.8,2.9.8s.9-.1,1.3-.5c0,0,0-.1.1-.1s.1,0,.2,0c1,.8,1.8,2.5,5.6,2.5.5,0,1.1.2,1.6.7.4.4.7,1,.9,1.7.4,1,1.1,1.9,2.1,2.9,0,0,.9.7,1,.7,0,0,0,.2,0,.2,0,.6-.1,2.4,1.3,2.5.3,0,.3-.2.3-.4,0-.3,0-.6.1-.9.2-.4-.5-.6-.5-1.6,0-.7-.6-.6-.9-1.1-.2-.3-.3-.5-.3-.9,0-2.2-.5-3.6-.7-3.9-.2-.3-.4-.4-.2-.5,1.1-.7,1.4-1.4,1.4-1.4.6-1.4,1.1-2.7,1.9-3.2.1-.1.5-.4.8-.5.7-.3,1.1-.5,1.3-.7.3-.3.6-1,.3-1.3-.4-.5-1-.1-1.3,0-2.1,1.2-2.4,3.4-3.1,4.6-.6,1-1.5,1.7-2.3,1.8-.6,0-1.3,0-2-.4-1.6-.7-2.5-1.6-2.8-1.8-.4-.3-3.8-3.6-6.6-3.8,0,0-.3-.7-.4-.7-.2,0-.4.4-.6.5-.2,0-.4-.4-.5-.4Z"/>
      </g>
    </g>
  </g>
  <g id="puma1" data-name="puma">
    <g id="M-02-Footer_desktop1" data-name="M-02-Footer_desktop">
      <g id="puma_logo_footer1" data-name="puma_logo_footer">
        <path id="Shape1" data-name="Shape" class="st4" d="M297.1,518.3c-.1,0-.3.5-.6.8-.2.2-.4.2-.6.4,0,0,0,.2,0,.4-.1.3-.5.3-.5.6s.3.4.6.7c.2.2.3.3.5.4.2,0,.6-.2.9,0,.3,0,.5.1.6.4s0,.6-.3.5c-.1,0-.6-.2-1.1-.1-.7,0-1.4.3-1.5,1,0,.4.5.9.9.8.3,0,.2-.5.4-.7.3-.2,1.6.8,2.9.8s.9-.1,1.3-.5c0,0,0-.1.1-.1s.1,0,.2,0c1,.8,1.8,2.5,5.6,2.5.5,0,1.1.2,1.6.7.4.4.7,1,.9,1.7.4,1,1.1,1.9,2.1,2.9,0,0,.9.7,1,.7,0,0,0,.2,0,.2,0,.6-.1,2.4,1.3,2.5.3,0,.3-.2.3-.4,0-.3,0-.6.1-.9.2-.4-.5-.6-.5-1.6,0-.7-.6-.6-.9-1.1-.2-.3-.3-.5-.3-.9,0-2.2-.5-3.6-.7-3.9-.2-.3-.4-.4-.2-.5,1.1-.7,1.4-1.4,1.4-1.4.6-1.4,1.1-2.7,1.9-3.2.1-.1.5-.4.8-.5.7-.3,1.1-.5,1.3-.7.3-.3.6-1,.3-1.3-.4-.5-1-.1-1.3,0-2.1,1.2-2.4,3.4-3.1,4.6-.6,1-1.5,1.7-2.3,1.8-.6,0-1.3,0-2-.4-1.6-.7-2.5-1.6-2.8-1.8-.4-.3-3.8-3.6-6.6-3.8,0,0-.3-.7-.4-.7-.2,0-.4.4-.6.5-.2,0-.4-.4-.5-.4Z"/>
      </g>
    </g>
  </g>
  <path class="st3" d="M226.2,486.4s0,0,.1,0h-.1ZM226.5,486.5c0,0,.1,0,.2,0h-.2ZM226.9,486.5s0,0,.1,0h-.1ZM227.1,486.5s0,0,.1,0h-.1ZM227.3,486.5s0,0,.1,0h-.1ZM227.5,486.5c.1,0,.2,0,.3,0h-.3ZM227.9,486.5c0,0,.1,0,.2,0h-.2ZM228.1,486.5s0,0,.1,0h-.1ZM228.2,486.5s0,0,.1,0h-.1ZM228.6,486.5s0,0,.1,0h-.1ZM235.3,474.1s0,0-.1,0h.1ZM234.9,474c0,0-.1,0-.2,0h.2ZM244.5,481.4h0s0,0,0,0ZM208.8,479.3c-.2-.2-.3-.4-.4-.6,0-.2-.1-.4-.1-.6,0-.9.5-1.6,1.1-1.9.3-.1.4-.2.4-.3,0,0,0,0,0,0-.8,0-1.2-.3-1.4-.6-.2-.2-.3-.5-.3-.9s0-.3,0-.5c.2-.4.4-.3.6,0,0,.1.6.5,1.3.6.5,0,.8.3.9.5.2.2.2.5.2.7s0,.2,0,.3c0,.3-.4.6-.8.9l-.3.2c-.4.3-.6.7-.6,1s0,.2,0,.2c0,0,0,0,0,0,.2.3.6.5,1.3.2.3-.1.9-.5,1.3-.9.4-.4,1-.5,1.6-.6.5,0,.8-.2,1-.4.6-.7,1.2-.8,1.8-.8.2,0,.2,0,.3,0,.3-.4.6-.6.9-.8.2,0,.4-.1.6-.2h.2s0,0,0,0c.3,0,.5-.2,1.2-.6h0s0,0,0,0h0s0,0,0,0h0s0,0,0,0h0s0,0,0,0h0s0,0,0,0h0s0,0,0,0h0s0,0,0,0h0s0,0,0,0h0s0,0,0,0h0s0,0,0,0h0s0,0,0,0h0s0,0,0,0h0s0,0,0,0h0s0,0,0,0h0s0,0,0,0h0s0,0,0,0h0s0,0,0,0h0s0,0,0,0h0s0,0,0,0h0s0,0,0,0h0s0,0,0,0h0s0,0,0,0h0s0,0,0,0h0s0,0,0,0h0s0,0,0,0h0s0,0,0,0h0s0,0,0,0h0s0,0,0,0h0s0,0,0,0h0s0,0,0,0h0s0,0,0,0h0s0,0,0,0h0s0,0,0,0h0s0,0,0,0h0s0,0,0,0h0s0,0,0,0h0s0,0,0,0h0s0,0,0,0h0s0,0,0,0h0s0,0,0,0h0s0,0,0,0c0,0,0,0,.1,0h0s0,0,0,0c0,0,0,0,.1,0h0s0,0,0,0c0,0,.1,0,.2,0h0s0,0,0,0c1.3-1.8,3.5-3.1,5.9-3.2h0c.1,0,.2,0,.4,0,0,0,.2,0,.2,0,0,0,0,0,.1,0h0s0,0,.1,0c2.3.1,4.4,1.3,5.7,3.1.2,0,.4-.1.6-.1h0s0,0,0,0h0s0,0,0,0h0s0,0,0,0h0s0,0,0,0h0s0,0,0,0h0s0,0,0,0h0s0,0,0,0h0s0,0,0,0h0s0,0,0,0h0s0,0,0,0h0s0,0,0,0h0c0,0,.1,0,.2,0h0s0,0,0,0h0s0,0,0,0h0s0,0,0,0h0s0,0,0,0h0s0,0,0,0h0s0,0,0,0h0s0,0,0,0h0s0,0,0,0h0s0,0,0,0h0s0,0,0,0h0s0,0,.1,0h0s0,0,0,0h0s0,0,0,0h0s0,0,0,0h0s0,0,0,0h0s0,0,0,0c.4.3.7.4.9.5,0,0,.2,0,.3,0h0s.2,0,.2,0c.1,0,.2,0,.4,0,.3.1.7.3,1.1.8,0,0,0,0,.3,0,.6,0,1.1.1,1.8.8.2.2.5.4,1,.4.6,0,1.1.1,1.6.6.4.4,1,.7,1.3.9.7.2,1.1,0,1.3-.2,0,0,0-.1,0-.2,0,0,0,0,0-.1,0-.3-.2-.7-.6-1h0s-.2-.2-.2-.2c-.4-.3-.8-.6-.8-.9,0,0,0-.2,0-.3,0-.2,0-.5.2-.7.1-.2.4-.4.9-.5.7,0,1.2-.5,1.3-.6.1-.2.3-.3.6,0,0,.2,0,.3,0,.5,0,.3,0,.6-.3.9-.2.3-.6.6-1.4.6s0,0,0,0c0,0,.1.1.4.3.6.3,1.1,1,1.1,1.9,0,.2,0,.4-.2.6,0,.2-.2.4-.3.5,0,0,0,0,0,0-.3.3-.9.5-1.7.5,0,0-.2,0-.3,0,0,.4-.1,1-.3,1.2,0,0,0,.1,0,.2s0,0,0,0c0,0,.4.2.4.2h0s0,0,0,0c0,0,.1,0,.1,0h0s0,0,0,0c.2,0,.6-.1.8.3,0,.1,0,.2,0,.3,0,.2,0,.3.3.4,0,0,0,0,.2-.1,0,0,.1-.1.2-.2.1-.1.3,0,.5,0,.2,0,.3.2.5.3.1,0,.2.2.2.3,0,.1.1.2.3.3.1,0,.3.3.3.7s0,0,0,.1c0,0,0,0,0,0,.2.4,0,.6,0,.7-.1.1-.4.2-.7.1h0c0,0-.4,0-.4,0-.1,0-.3,0-.4,0h0c-.3,0-.6,0-.8-.3,0,0,0,0,0,0,0-.2-.2-.3-.3-.4-.1,0-.3,0-.5,0-.2,0-.4,0-.6-.3,0,0,0,0-.1,0-.3-.3-.7-.4-1-.3h-.2c-.3,0-.7.2-1.1,0,0,0-.2-.1-.4-.2-.3-.1-.7-.3-.7-.6,0,0,0-.2-.1-.2,0,0,0-.2-.1-.2,0,0,0-.2,0-.3-.1,0-.2,0-.3,0,0,0,0,0-.1,0h-.1c-.2,0-.8-.2-.9,0-.3.1-1.4.2-1.7.1,0,0-.1,0-.2,0,0,0-.2.2-.3.3.2,0,.4,0,.5,0h.3c0,0,.3,0,.4,0h.3s.3,0,.3,0c.2,0,.3.1.3.4,0,.1,0,.2-.2.3,0,0-.2.3-.3.4h0c0,.2-.2.3-.5.3,0,0,0,0-.1,0,0,0,0,0,0,0,0,.2-.2.4-.4.5h0c-.2.1-.4.3-.8.2h-.1c-.3-.2-.9-.4-1.1-.5h0c-.2-.2-.3-.2-.4-.2h0c-.2,0-.5,0-.8-.3h0c-1.1,1.5-2.9,2.7-4.9,3h0c0,0-.1,0-.2,0h0s0,0,0,0c0,0,0,0-.1,0h0s-.1,0-.1,0h0s0,0-.1,0h0s0,0-.1,0h0c0,0-.1,0-.2,0h0c-.1,0-.2,0-.3,0h0s0,0-.1,0h0s0,0-.1,0h0s0,0-.1,0h0s0,0,0,0h0c0,0-.1,0-.2,0h0s-.1,0-.1,0h0s0,0-.1,0h0s0,0,0,0c0,0-.1,0-.2,0h0s0,0,0,0h0c0,0-.1,0-.2,0h0c-1.7-.5-3.2-1.6-4.2-3.1v.2c-.4.4-.7.4-.9.3h0c0,0-.1,0-.4.1h0c-.3.2-.8.3-1.1.5h-.1c-.4.2-.6,0-.8,0h0c-.2-.2-.3-.4-.4-.5,0,0,0,0,0,0,0,0,0,0-.1,0-.3,0-.4-.1-.5-.3h0c0-.1-.2-.4-.3-.4,0,0-.1-.2-.2-.3,0-.3.1-.4.3-.4h.3s.3,0,.3,0c.1,0,.3,0,.4,0h.3c.1-.1.3,0,.5,0-.1,0-.2-.2-.3-.3,0,0-.2,0-.2,0-.3,0-1.3,0-1.7-.1-.2,0-.7,0-.9,0h-.1c-.2,0-.3,0-.5,0,0,.2-.1.4-.2.5,0,0-.1.2-.1.2,0,.3-.4.5-.7.6-.1,0-.3.1-.4.2-.4.2-.8.2-1.1,0h-.2c-.3,0-.7,0-1,.3-.5.5-1,.4-1.2.3,0,0-.2.2-.3.4-.2.3-.5.4-.8.4h0c-.1,0-.3,0-.4,0h-.4s0,0,0,0c-.2,0-.5,0-.7-.1-.1,0-.3-.3,0-.7,0,0,0-.2,0-.2,0-.3.2-.6.3-.7.1,0,.2-.1.3-.3,0-.1.1-.2.2-.3.1,0,.3-.2.5-.3.2,0,.4-.1.5,0,.1.1.4.3.4.3.2-.2.2-.4.3-.8.2-.4.5-.3.8-.3h0s.1,0,.1,0c0,0,0,0,0,0h0s.4-.3.4-.3c0,0,0,0,0,0,0,0,0,0,0-.2-.2-.3-.3-.8-.3-1.2,0,0-.1,0-.2,0-.9,0-1.5-.2-1.8-.5h0Z"/>
  <path class="st11" d="M211.2,479.4s0,.8.3,1.4c0,0,.3.4,0,.6l-.5.3s0,0-.3,0c0,0-.3,0-.4,0,0,0,0,.3-.2.5,0,0-.2.6-.6.7,0,0-.3,0-.4.3,0,0-.1.2-.3.2,0,0-.2,0-.3.4,0,0,0,.2,0,.4,0,0,.3,0,.4,0,0,0,.4.1.6-.2,0,0,.4-.6.6-.5,0,0,.5.2.9-.2,0,0,.5-.6,1.3-.5,0,0,.8.2,1.1,0,0,0,.5-.3.7-.3,0,0,.2,0,.3-.3,0,0,.1-.4.3-.5h-.4s-.4.6-1,.8c0,0-.3.1-1,0,0,0-1-.2-1.8.7,0,0-.1.2-.3,0,0,0,.5-.8,1.5-1,0,0,.3,0,.6,0,0,0,1.4,0,2-1.3,0,0,0-1.2.2-1.4,0,0,.1,0,0,.2,0,0-.2,1.2.2,1.4,0,0,.2.2.6.1,0,0,.6-.2,1.2,0,0,0,.8.2,1.5.1,0,0-.2-.3-.1-.6,0,0,0-.2.2,0,0,0,.3.9,1,1.1,0,0,.6.2.6,1.1,0,0,0,.1-1,.4,0,0-.3.1-.4-.1,0,0-.4-.9-.8-.9h-.7c0,0-.2.1,0,.3,0,0,.2.3.3.5,0,0,0,.2.2.1,0,0,.3-.1.5.4,0,0,.2.3.4.4,0,0,.2,0,.5,0,0,0,1.1-.4,1.3-.6,0,0,.2-.1.4,0,0,0,.3,0,.5-.2l.3-.5s0-.1,0-.3c0,0,0-.2-.1-.3,0,0-.1-.1-.2-.2l-.2-.6s0-.2-.2-.2h-.3s.2.6.4.8c0,0,.2.3.2.6,0,0,0,.2,0,.2,0,0,0,.1-.1.2,0,0,0,.2-.2.3,0,0-.1,0-.2,0,0,0,0,0,0,0,0,0,.2-.4.2-.6,0,0,0-.2-.1-.3,0,0-.4-.6-.4-.7,0,0-.1-.2-.2-.3,0,0-.1-.2,0-.2,0,0,.5-.1.6-.2,0,0,.2,0,.4-.6,0,0,.2-.6.2-.9,0,0,.4.8-.3,1.6,0,0,.5.2.8,0,0,0,.7,0,.8-.1,0,0,.2,0,0,0,0,0-.2.3-.2.5,0,0,0,.1-.1.2,0,0-.4.3-.4.5,0,0,0,.2,0,.2,0,0,.2-.1.3,0,0,0,0,0,0,.1,0,0-.2.2-.2.5,0,0,0,.3.1.4,0,0,.1.1.3,0,0,0,0,0,.1,0,0,0,0,0,.3,0,0,0,.3,0,.4-.1,0,0,.4-.1.6-.1,0,0,.1,0,.3,0,0,0,.5,0,.8-.3,0,0,.3-.2.3,0,0,0,.6.8,1.6.6,0,0-.8-.3-1-.8,0,0,0-.4-.4-.9,0,0-.1-.2,0-.2,0,0,0,0,.2.1,0,0,.4.4.5.7,0,0,.5.7,1.2.5,0,0-.6-.2-.8-.6,0,0-.2-.5-.7-.9,0,0,0-.6-.3-.9,0,0-.1-.6-.2-.7,0,0-.1-.5-.1-.6,0,0,0-.7-.4-1.2,0,0-.3-.5-.7-.9,0,0-.3-.4-.6-.7,0,0-.3-.4-1-.9,0,0-.3-.2-.6-.5,0,0-1.3-.9-2.2-.2,0,0-.6.4-1.1.6,0,0-1.1.1-1.5.9,0,0,0,.1-.5.2,0,0-.9-.1-1.6.8,0,0-.3.3-1,.4,0,0-1-.1-1.7.7,0,0-1.7,1.5-2.7.5,0,0-.5-.5,0-1.4,0,0,.4-.5,1-1,0,0,.5-.4.3-1,0,0-.1-.6-.9-.6,0,0-1-.2-1.4-.7,0,0-.5,1.6,1.3,1.6,0,0,.5,0,.3.4,0,0-.2.3-.5.4,0,0-.5.2-.8,1,0,0-.5,1.4.8,1.9.5.2,1.1.1,1.6,0h0ZM208.6,482.6c0,0,.2,0,.3,0,.2,0,0,.2,0,.2,0,.2-.4.4-.4.4-.2.2-.4,0-.4,0-.2-.2,0-.3,0-.3.1,0,.4-.3.4-.3ZM208.1,483.5s0,0,0,.2c0,0-.2.5-.2.7,0,0-.4,0-.5-.1,0,0,0,0,0-.2,0,0,0-.1,0-.3,0,0,0-.5.3-.4,0,0,.1,0,.2.1h0ZM223.4,482.4c0,0,0,0,0-.1,0-.2.2-.3.2-.3.4-.2.4,0,.4,0,0,.4-.2.4-.2.4,0,0-.3,0-.3,0ZM224.5,480.7c0-.2,0-.6-.2-.7,0,0-.3-.3-.3-.3,0,0,0,0,0,0,0,0-.1.1-.1.1-.2.4-.4.3-.4.3,0,0,0-.1,0-.1,0-.2.2-.3.3-.5,0,0,0-.1,0-.1.2-.3.3,0,.3,0,0,.1.5.6.5.6,0,.1,0,.2,0,.2,0,.7-.2.7-.2.7h0ZM220.8,476.7c0,0,0-.2,0-.3.1-.2.2,0,.2,0,.4.6.1,1.5.1,1.5,0-.8-.4-1.2-.4-1.2h0ZM243.9,479.4s0,.8-.3,1.4c0,0-.3.4,0,.6l.5.3s0,0,.3,0c0,0,.3,0,.4,0,0,0,0,.3.2.5,0,0,.2.6.6.7,0,0,.3,0,.4.3,0,0,.1.2.3.2,0,0,.2,0,.3.4,0,0,0,.2,0,.4,0,0-.3,0-.4,0,0,0-.4.1-.6-.2,0,0-.4-.6-.6-.5,0,0-.5.2-.9-.2,0,0-.5-.6-1.3-.5,0,0-.8.2-1.1,0,0,0-.5-.3-.7-.3,0,0-.2,0-.3-.3,0,0-.1-.4-.3-.5h.4s.4.6,1,.8c0,0,.3.1,1,0,0,0,1-.2,1.8.7,0,0,.1.2.3,0,0,0-.5-.8-1.5-1,0,0-.3,0-.6,0,0,0-1.4,0-2-1.3,0,0,0-1.2-.2-1.4,0,0-.1,0,0,.2,0,0,.2,1.2-.2,1.4,0,0-.2.2-.6.1,0,0-.6-.2-1.2,0,0,0-.8.2-1.5.1,0,0,.2-.3.1-.6,0,0,0-.2-.2,0,0,0-.3.9-1,1.1,0,0-.6.2-.6,1.1,0,0,0,.1,1,.4,0,0,.3.1.4-.1,0,0,.4-.9.8-.9h.7c0,0,.2.1,0,.3,0,0-.2.3-.3.5,0,0,0,.2-.2.1,0,0-.3-.1-.5.4,0,0-.2.3-.4.4,0,0-.2,0-.5,0,0,0-1.1-.4-1.3-.6,0,0-.2-.1-.4,0,0,0-.3,0-.5-.2l-.3-.5s0-.1,0-.3c0,0,0-.2.1-.3,0,0,.1-.1.2-.2l.2-.6s0-.2.2-.2h.3s-.2.6-.4.8c0,0-.2.3-.2.6,0,0,0,.2,0,.2,0,0,0,.1.1.2,0,0,0,.2.2.3,0,0,.1,0,.2,0,0,0,0,0,0,0,0,0-.2-.4-.2-.6,0,0,0-.2.1-.3,0,0,.4-.6.4-.7,0,0,.1-.2.2-.3,0,0,.1-.2,0-.2,0,0-.5-.1-.6-.2,0,0-.2,0-.4-.6,0,0-.2-.6-.2-.9,0,0-.4.8.3,1.6,0,0-.5.2-.8,0,0,0-.7,0-.8-.1,0,0-.2,0,0,0,0,0,.2.3.2.5,0,0,0,.1.1.2,0,0,.4.3.4.5,0,0,0,.2,0,.2,0,0-.2-.1-.3,0,0,0,0,0,0,.1,0,0,.2.2.2.5,0,0,0,.3-.1.4,0,0-.1.1-.3,0,0,0,0,0-.1,0,0,0,0,0-.3,0,0,0-.3,0-.4-.1,0,0-.4-.1-.6-.1,0,0-.1,0-.3,0,0,0-.5,0-.8-.3,0,0-.3-.2-.3,0,0,0-.6.8-1.6.6,0,0,.8-.3,1-.8,0,0,0-.4.4-.9,0,0,.1-.2,0-.2,0,0,0,0-.2.1,0,0-.4.4-.5.7,0,0-.5.7-1.2.5,0,0,.6-.2.8-.6,0,0,.2-.5.7-.9,0,0,0-.6.3-.9,0,0,.1-.6.2-.7,0,0,.1-.5.1-.6,0,0,0-.7.4-1.2,0,0,.3-.5.7-.9,0,0,.3-.4.6-.7,0,0,.3-.4,1-.9,0,0,.3-.2.6-.5,0,0,1.3-.9,2.2-.2,0,0,.6.4,1.1.6,0,0,1.1.1,1.5.9,0,0,0,.1.5.2,0,0,.9-.1,1.6.8,0,0,.3.3,1,.4,0,0,1-.1,1.7.7,0,0,1.7,1.5,2.7.5,0,0,.5-.5,0-1.4,0,0-.4-.5-1-1,0,0-.5-.4-.3-1,0,0,.1-.6.9-.6,0,0,1-.2,1.4-.7,0,0,.5,1.6-1.3,1.6,0,0-.5,0-.3.4,0,0,.2.3.5.4,0,0,.5.2.8,1,0,0,.5,1.4-.8,1.9-.5.2-1.1.1-1.6,0h0ZM246.4,482.6c0,0-.2,0-.3,0-.2,0,0,.2,0,.2,0,.2.4.4.4.4.2.2.4,0,.4,0,.2-.2,0-.3,0-.3-.1,0-.4-.3-.4-.3ZM247,483.5s0,0,0,.2c0,0,.2.5.2.7,0,0,.4,0,.5-.1,0,0,0,0,0-.2,0,0,0-.1,0-.3,0,0,0-.5-.3-.4,0,0-.1,0-.2.1h0ZM231.6,482.4c0,0,0,0,0-.1,0-.2-.2-.3-.2-.3-.4-.2-.4,0-.4,0,0,.4.2.4.2.4,0,0,.3,0,.3,0h0ZM230.6,480.7c0-.2,0-.6.2-.7,0,0,.3-.3.3-.3,0,0,0,0,0,0,0,0,.1.1.1.1.2.4.4.3.4.3,0,0,0-.1,0-.1,0-.2-.2-.3-.3-.5,0,0,0,0,0-.1-.2-.3-.3,0-.3,0,0,.1-.5.6-.5.6,0,0,0,.1,0,.2,0,.7.2.7.2.7h0ZM234.3,476.7c0,0,0-.2,0-.3-.1-.2-.2,0-.2,0-.4.6-.1,1.5-.1,1.5,0-.8.4-1.2.4-1.2h0Z"/>
  <path class="st11" d="M202.5,489.2v11h2.2v-8.9h1s1.6,0,1.6,1.4-1.5,1.5-1.5,1.5h-.5v2.5l2.2,3.5h2.6l-3.1-4.5s2.6-.2,2.6-3-1.9-3.5-4.5-3.5h-2.7ZM235,494.3s1-.8,1-2.2-1-2.7-3.3-2.7h-3.7v10.8h4.6s3.3,0,3.3-3c0-1.7-.7-2.4-1.9-2.9ZM233.2,498.3h-2v-7h1.1s1.4-.1,1.4,1.2-1.2,1.2-1.2,1.2h-.7v1.9h1.3c.3,0,1.4.2,1.4,1.4,0,1.2-1.4,1.4-1.4,1.4h0ZM249,489h2.1v11.2h-2.1v-11.2h0ZM245.5,489h2.1v11.2h-2.1v-11.2h0ZM237.5,493.6h2.1v3.8s0,1.3,1.3,1.3,1.2-1.3,1.2-1.3v-3.7h2.1v3.9s.3,3-3.3,3-3.5-2.7-3.5-3.1v-3.8h0ZM223.4,489v5.1s-1-.8-2.2-.8-3.2.8-3.2,3.4,1.7,3.6,3.1,3.6,2.3-1,2.3-1v.8h2.1v-11.2h-2.1s0,0,0,0ZM221.7,498.5c-.1,0-1.5,0-1.5-1.7s1.5-1.7,1.5-1.7c0,0,1.7,0,1.7,1.7s-1.6,1.7-1.7,1.7ZM213.8,493.3c3.6,0,3.4,3.5,3.4,3.5v.6h-4.8c0,.8.7,1.5,1.6,1.5s1.4-.9,1.4-.9l1.7.8c-.8,1.2-1.9,1.7-3,1.7-3.7,0-3.8-3.1-3.8-3.5s0-3.7,3.6-3.7h0ZM212.4,496h2.6s-.1-1.2-1.3-1.2c-1.2,0-1.3,1.2-1.3,1.2Z"/>
  <g>
    <path class="st4" d="M237.1,532.1s1.9,0,3-2.1c1.8-3.2,4.2-6.9,6.3-2.7,0,0-1-1.7-2.9-.5-1.4.9-3.3,5.5-6.4,5.4Z"/>
    <path class="st4" d="M237.1,533.4s3.3.6,5.6-.7c2.3-1.2,3.6-3.7,3.6-3.7,0,0-2.9,4.2-9.2,4.3Z"/>
    <path class="st4" d="M234.8,534s4,1.3,7.8-.2c3.8-1.5,5.3-6.8,6.2-8.8,1.6-3.5,5.5-5.2,8.3-2.6,2.7,2.7,2.7,6.8,1,8.3-1.9,1.8-4.2,1.1-5.1-1.2,0,0,1,2,2.7,1.1,2.1-1,1.6-4.9.3-6.4-1.4-1.5-4.5-1.6-6.3,1.8-1.3,2.5-2.5,6.9-6.9,8.3-4.4,1.4-8-.5-8-.5Z"/>
    <path class="st4" d="M248.3,531.2s1.9-5.4,3.8-6.6c2-1.2,3.6.5,3.9,2.2.3,1.7-.4,2.2-.4,2.2,0,0,.4-2.9-2.3-3.3-2.3-.4-5,5.5-5,5.5Z"/>
    <path class="st4" d="M248.2,525.4s-.3-4.1.6-5.5c.8-1.4,2.1-.9,2.6,0,.5.9.3,1.5.3,1.5,0,0-.4-1.9-2-1.3-1.4.6-1.4,5.3-1.4,5.3Z"/>
    <path class="st4" d="M249.7,530s-2.5,4.7-7.5,5.7c-5,1-7.8-.9-7.8-.9,0,0-.5,2.1-2.3,2.5,0,0,1.4.1,2.5-1.7,0,0,3.3,2.2,8.2.6,4.9-1.6,6.9-6.3,6.9-6.3Z"/>
    <path class="st4" d="M234.2,531.2s2.8-1.2,4.4-3.3c2.1-2.9,2.4-4.8,1.8-6.1-.7-1.6-2.4-.5-2.5.8,0,0,.9-1.5,1.6-.4.7,1.2-1.1,7.1-5.3,9.1Z"/>
    <path class="st4" d="M243.5,527.8s1-.7,1.2,0c.3.9-2.3,3.9-5.6,4.2,0,0,2.2-.1,3.8-1,2.1-1.2,2.7-2.3,2.6-3.2-.1-1-1.6-.8-1.9,0Z"/>
    <path class="st4" d="M259.1,518.7c-.6-.8-1.7-1.2-3.6-.4-1.4.6-2.6,2.5-2.6,2.5,1.8-2.7,5.3-2.4,5.8-1.4.5.9-.5,1.1-.5,1.1.7.3,1.6-.7.8-1.7Z"/>
    <path class="st4" d="M253.3,516.3c.5.3.8,1,.5,2.3-.3.9-1.3,1.8-1.3,1.8,1.5-1.3,1.1-3.5.5-3.8-.6-.3-.6.4-.6.4-.2-.4.3-1,1-.6Z"/>
    <path class="st4" d="M226.5,531.2s4.4,3.5,10.1,1.5c0,0-4.8,3.2-10.1-1.5Z"/>
    <path class="st4" d="M247.4,525.4s.1-3.8-.7-5.4c-1.1-2.1-2.7-.4-2.1,1,0,0,0-1.2.9-1,1,.2,1.7,3.1,1.8,5.5Z"/>
    <path class="st4" d="M247.6,521.2s-.2-2.5.1-3.3c.3-.9,1-.4.9,0,0,.6-1,1.2-1.1,3.4Z"/>
    <path class="st4" d="M258.3,523.2s.9,1.7,1.5,2.2c.6.4.8-.2.6-.4-.3-.3-1.1-.4-2.2-1.8Z"/>
    <path class="st4" d="M259.8,523.7s1.5,1.5,2.3,1.7.8-.6.5-.8c-.4-.2-1.3.2-2.8-.9Z"/>
    <path class="st4" d="M240.9,524.1s.7-1.6,1.3-1.9c.6-.3.8.3.7.5-.2.3-1.1.2-1.9,1.5Z"/>
    <path class="st4" d="M256.2,520.1s1.9,2.7,3,3.2c1.1.5,1.3-.6,1-.9-.6-.5-2-.2-4-2.4Z"/>
    <path class="st4" d="M241.8,522.1s.4-1,.8-1.2c.3-.2.5.2.4.3-.2.2-.7.1-1.2.9Z"/>
    <path class="st4" d="M248.8,518.9s.9-.9,1.4-1c.5,0,.6.5.4.6-.3.1-.9-.2-1.9.4Z"/>
    <path class="st4" d="M241.1,523.1s.7-2.3.6-3.3-.9-1-.9-.6c0,.6.7,1.7.3,4Z"/>
    <path class="st4" d="M235.1,538.1s-2.5.5-4.3-1.2c0,0-.3,2.2-1.4,3,0,0,1.4-.7,1.6-2.4,0,0,1.6,1.3,4.2.6Z"/>
    <path class="st4" d="M248.3,534.3s1.7-.7,2.1-2.7c0,0,1.1,1.3,2.2,1.4,0,0-1.2.1-2-.9,0,0-.4,1.5-2.3,2.1Z"/>
    <path class="st4" d="M245,536.5s1.7-.6,2.2-2.4c0,0,1.1,1.4,2.2,1.6,0,0-1.2,0-2-1.1,0,0-.4,1.4-2.4,1.9Z"/>
    <path class="st4" d="M226.5,538.1s1.4-.4,1.7-1.9c0,0,.9,1.1,1.7,1.2,0,0-.9,0-1.6-.8,0,0-.3,1.1-1.8,1.5Z"/>
    <path class="st4" d="M251.9,534.2s1.4-.4,1.7-1.9c0,0,.9,1.1,1.7,1.2,0,0-.9,0-1.6-.8,0,0-.3,1.1-1.8,1.5Z"/>
    <path class="st4" d="M231.3,536.3s.8-.3.9-1.2c0,0,.5.8,1,.9,0,0-.5,0-.9-.5,0,0-.2.6-1,.8Z"/>
  </g>
  <g>
    <path class="st4" d="M237.7,530.2s-1.9,0-3.1,2.1c-1.8,3.1-4.3,6.8-6.3,2.6,0,0,1,1.7,2.9.6,1.4-.8,3.4-5.4,6.5-5.2Z"/>
    <path class="st4" d="M237.7,529s-3.3-.6-5.6.6c-2.4,1.2-3.7,3.6-3.7,3.6,0,0,3-4.1,9.3-4.1Z"/>
    <path class="st4" d="M226.4,533.2s-2,5.3-4,6.5c-2,1.2-3.6-.6-3.8-2.3-.2-1.7.5-2.2.5-2.2,0,0-.5,2.9,2.2,3.4,2.3.4,5.1-5.4,5.1-5.4Z"/>
    <path class="st4" d="M226.5,536.7s.2,4.1-.7,5.5c-.9,1.4-2.1.9-2.6,0-.5-.9-.2-1.5-.2-1.5,0,0,.4,1.9,2,1.3,1.4-.6,1.5-5.2,1.5-5.2Z"/>
    <path class="st4" d="M225.1,532.1s2.6-4.7,7.6-5.6c5.1-.9,7.8,1.1,7.8,1.1,0,0,.6-2,2.4-2.5,0,0-1.4-.2-2.5,1.6,0,0-3.3-2.3-8.2-.8-4.9,1.5-7.1,6.1-7.1,6.1Z"/>
    <path class="st4" d="M231.2,534.5s-1,.7-1.2-.1c-.2-.9,2.3-3.9,5.7-4.1,0,0-2.2,0-3.8,1-2.1,1.2-2.7,2.3-2.6,3.1.1,1,1.5.8,1.9.1Z"/>
    <path class="st4" d="M215.5,543.2c.6.9,1.7,1.3,3.6.5,1.4-.6,2.6-2.4,2.6-2.4-1.9,2.7-5.3,2.2-5.8,1.3-.5-.9.5-1.1.5-1.1-.7-.3-1.6.7-.9,1.7Z"/>
    <path class="st4" d="M221.2,545.7c-.5-.3-.8-1-.4-2.3.3-.9,1.4-1.7,1.4-1.7-1.6,1.3-1.2,3.5-.6,3.8.6.3.7-.4.7-.4.2.4-.4,1-1,.6Z"/>
    <path class="st4" d="M248.3,531.3s-4.4-3.6-10.1-1.7c0,0,4.9-3.1,10.1,1.7Z"/>
    <path class="st4" d="M227.2,536.8s-.2,3.8.6,5.4c1,2.1,2.7.5,2.1-.9,0,0,0,1.2-1,1-1-.2-1.7-3.2-1.7-5.5Z"/>
    <path class="st4" d="M227,540.9s.2,2.5-.2,3.3c-.4.9-1,.4-.9,0,0-.6,1-1.1,1.1-3.4Z"/>
    <path class="st4" d="M216.3,538.8s-.9-1.8-1.5-2.2c-.6-.4-.8.2-.7.4.3.3,1.1.4,2.2,1.8Z"/>
    <path class="st4" d="M214.8,538.2s-1.5-1.5-2.3-1.7-.8.6-.5.7c.4.2,1.3-.1,2.8,1Z"/>
    <path class="st4" d="M233.7,538.2s-.7,1.6-1.3,1.9c-.6.3-.8-.3-.7-.5.3-.3,1.1-.2,2-1.4Z"/>
    <path class="st4" d="M218.3,541.9s-1.8-2.7-2.9-3.3c-1.1-.6-1.3.5-1,.8.5.5,2,.3,4,2.4Z"/>
    <path class="st4" d="M232.8,540.2s-.5,1-.8,1.2c-.4.2-.5-.2-.4-.3.2-.2.7-.1,1.2-.9Z"/>
    <path class="st4" d="M225.7,543.2s-.9.9-1.4,1c-.5,0-.6-.5-.4-.6.3-.1.9.2,1.9-.4Z"/>
    <path class="st4" d="M233.5,539.2s-.8,2.2-.6,3.3.9,1,.9.6c0-.6-.7-1.7-.3-4Z"/>
    <path class="st4" d="M239.8,524.3s2.5-.4,4.3,1.3c0,0,.3-2.2,1.5-3,0,0-1.4.7-1.7,2.4,0,0-1.5-1.3-4.2-.6Z"/>
    <path class="st4" d="M224.5,530.8s-1.7.7-2.2,2.6c0,0-1.1-1.4-2.1-1.5,0,0,1.2,0,2,1,0,0,.4-1.5,2.3-2.1Z"/>
    <path class="st4" d="M229.9,525.7s-1.7.5-2.2,2.4c0,0-1.1-1.4-2.2-1.6,0,0,1.2,0,2,1.1,0,0,.5-1.4,2.4-1.9Z"/>
    <path class="st4" d="M248.5,524.5s-1.4.4-1.7,1.9c0,0-.8-1.1-1.7-1.3,0,0,.9,0,1.6.9,0,0,.4-1.1,1.9-1.5Z"/>
    <path class="st4" d="M223,534.8s-1.4.4-1.7,1.9c0,0-.8-1.1-1.7-1.3,0,0,.9,0,1.6.9,0,0,.4-1.1,1.9-1.5Z"/>
    <path class="st4" d="M243.6,526.2s-.8.2-1,1.2c0,0-.5-.8-1-.9,0,0,.5,0,.9.5,0,0,.2-.6,1.1-.8Z"/>
  </g>
  <g>
    <path class="st4" d="M157.5,532.1s-1.9,0-3-2.1c-1.8-3.2-4.2-6.9-6.3-2.7,0,0,1-1.7,2.9-.5,1.4.9,3.3,5.5,6.4,5.4Z"/>
    <path class="st4" d="M157.6,533.4s-3.3.6-5.6-.7c-2.3-1.2-3.6-3.7-3.6-3.7,0,0,2.9,4.2,9.2,4.3Z"/>
    <path class="st4" d="M159.9,534s-4,1.3-7.8-.2c-3.8-1.5-5.3-6.8-6.2-8.8-1.6-3.5-5.5-5.2-8.3-2.6-2.7,2.7-2.7,6.8-1,8.3,1.9,1.8,4.2,1.1,5.1-1.2,0,0-1,2-2.7,1.1-2.1-1-1.6-4.9-.3-6.4,1.4-1.5,4.5-1.6,6.3,1.8,1.3,2.5,2.5,6.9,6.9,8.3,4.4,1.4,8-.5,8-.5Z"/>
    <path class="st4" d="M146.3,531.2s-1.9-5.4-3.8-6.6c-2-1.2-3.6.5-3.9,2.2-.3,1.7.4,2.2.4,2.2,0,0-.4-2.9,2.3-3.3,2.3-.4,5,5.5,5,5.5Z"/>
    <path class="st4" d="M146.5,525.4s.3-4.1-.6-5.5c-.8-1.4-2.1-.9-2.6,0-.5.9-.3,1.5-.3,1.5,0,0,.4-1.9,2-1.3,1.4.6,1.4,5.3,1.4,5.3Z"/>
    <path class="st4" d="M145,530s2.5,4.7,7.5,5.7c5,1,7.8-.9,7.8-.9,0,0,.5,2.1,2.3,2.5,0,0-1.4.1-2.5-1.7,0,0-3.3,2.2-8.2.6-4.9-1.6-6.9-6.3-6.9-6.3Z"/>
    <path class="st4" d="M160.5,531.2s-2.8-1.2-4.4-3.3c-2.1-2.9-2.4-4.8-1.8-6.1.7-1.6,2.4-.5,2.5.8,0,0-.9-1.5-1.6-.4-.7,1.2,1.1,7.1,5.3,9.1Z"/>
    <path class="st4" d="M151.1,527.8s-1-.7-1.2,0c-.3.9,2.3,3.9,5.6,4.2,0,0-2.2-.1-3.8-1-2.1-1.2-2.7-2.3-2.6-3.2.1-1,1.6-.8,1.9,0Z"/>
    <path class="st4" d="M135.6,518.7c.6-.8,1.7-1.2,3.6-.4,1.4.6,2.6,2.5,2.6,2.5-1.8-2.7-5.3-2.4-5.8-1.4-.5.9.5,1.1.5,1.1-.7.3-1.6-.7-.8-1.7Z"/>
    <path class="st4" d="M141.4,516.3c-.5.3-.8,1-.5,2.3.3.9,1.3,1.8,1.3,1.8-1.5-1.3-1.1-3.5-.5-3.8.6-.3.6.4.6.4.2-.4-.3-1-1-.6Z"/>
    <path class="st4" d="M168.2,531.2s-4.4,3.5-10.1,1.5c0,0,4.8,3.2,10.1-1.5Z"/>
    <path class="st4" d="M147.2,525.4s-.1-3.8.7-5.4c1.1-2.1,2.7-.4,2.1,1,0,0,0-1.2-.9-1-1,.2-1.7,3.1-1.8,5.5Z"/>
    <path class="st4" d="M147,521.2s.2-2.5-.1-3.3c-.3-.9-1-.4-.9,0,0,.6,1,1.2,1.1,3.4Z"/>
    <path class="st4" d="M136.4,523.2s-.9,1.7-1.5,2.2c-.6.4-.8-.2-.6-.4.3-.3,1.1-.4,2.2-1.8Z"/>
    <path class="st4" d="M134.8,523.7s-1.5,1.5-2.3,1.7-.8-.6-.5-.8c.4-.2,1.3.2,2.8-.9Z"/>
    <path class="st4" d="M153.7,524.1s-.7-1.6-1.3-1.9c-.6-.3-.8.3-.7.5.2.3,1.1.2,1.9,1.5Z"/>
    <path class="st4" d="M138.4,520.1s-1.9,2.7-3,3.2c-1.1.5-1.3-.6-1-.9.6-.5,2-.2,4-2.4Z"/>
    <path class="st4" d="M152.9,522.1s-.4-1-.8-1.2c-.3-.2-.5.2-.4.3.2.2.7.1,1.2.9Z"/>
    <path class="st4" d="M145.9,518.9s-.9-.9-1.4-1c-.5,0-.6.5-.4.6.3.1.9-.2,1.9.4Z"/>
    <path class="st4" d="M153.6,523.1s-.7-2.3-.6-3.3.9-1,.9-.6c0,.6-.7,1.7-.3,4Z"/>
    <path class="st4" d="M159.5,538.1s2.5.5,4.3-1.2c0,0,.3,2.2,1.4,3,0,0-1.4-.7-1.6-2.4,0,0-1.6,1.3-4.2.6Z"/>
    <path class="st4" d="M146.3,534.3s-1.7-.7-2.1-2.7c0,0-1.1,1.3-2.2,1.4,0,0,1.2.1,2-.9,0,0,.4,1.5,2.3,2.1Z"/>
    <path class="st4" d="M149.6,536.5s-1.7-.6-2.2-2.4c0,0-1.1,1.4-2.2,1.6,0,0,1.2,0,2-1.1,0,0,.4,1.4,2.4,1.9Z"/>
    <path class="st4" d="M168.2,538.1s-1.4-.4-1.7-1.9c0,0-.9,1.1-1.7,1.2,0,0,.9,0,1.6-.8,0,0,.3,1.1,1.8,1.5Z"/>
    <path class="st4" d="M142.8,534.2s-1.4-.4-1.7-1.9c0,0-.9,1.1-1.7,1.2,0,0,.9,0,1.6-.8,0,0,.3,1.1,1.8,1.5Z"/>
    <path class="st4" d="M163.4,536.3s-.8-.3-.9-1.2c0,0-.5.8-1,.9,0,0,.5,0,.9-.5,0,0,.2.6,1,.8Z"/>
  </g>
  <g>
    <path class="st4" d="M157,530.2s1.9,0,3.1,2.1c1.8,3.1,4.3,6.8,6.3,2.6,0,0-1,1.7-2.9.6-1.4-.8-3.4-5.4-6.5-5.2Z"/>
    <path class="st4" d="M156.9,529s3.3-.6,5.6.6c2.4,1.2,3.7,3.6,3.7,3.6,0,0-3-4.1-9.3-4.1Z"/>
    <path class="st4" d="M168.2,533.2s2,5.3,4,6.5c2,1.2,3.6-.6,3.8-2.3.2-1.7-.5-2.2-.5-2.2,0,0,.5,2.9-2.2,3.4-2.3.4-5.1-5.4-5.1-5.4Z"/>
    <path class="st4" d="M168.2,536.7s-.2,4.1.7,5.5c.9,1.4,2.1.9,2.6,0,.5-.9.2-1.5.2-1.5,0,0-.4,1.9-2,1.3-1.4-.6-1.5-5.2-1.5-5.2Z"/>
    <path class="st4" d="M169.6,532.1s-2.6-4.7-7.6-5.6c-5.1-.9-7.8,1.1-7.8,1.1,0,0-.6-2-2.4-2.5,0,0,1.4-.2,2.5,1.6,0,0,3.3-2.3,8.2-.8,4.9,1.5,7.1,6.1,7.1,6.1Z"/>
    <path class="st4" d="M163.5,534.5s1,.7,1.2-.1c.2-.9-2.3-3.9-5.7-4.1,0,0,2.2,0,3.8,1,2.1,1.2,2.7,2.3,2.6,3.1-.1,1-1.5.8-1.9.1Z"/>
    <path class="st4" d="M179.2,543.2c-.6.9-1.7,1.3-3.6.5-1.4-.6-2.6-2.4-2.6-2.4,1.9,2.7,5.3,2.2,5.8,1.3.5-.9-.5-1.1-.5-1.1.7-.3,1.6.7.9,1.7Z"/>
    <path class="st4" d="M173.4,545.7c.5-.3.8-1,.4-2.3-.3-.9-1.4-1.7-1.4-1.7,1.6,1.3,1.2,3.5.6,3.8-.6.3-.7-.4-.7-.4-.2.4.4,1,1,.6Z"/>
    <path class="st4" d="M146.4,531.3s4.4-3.6,10.1-1.7c0,0-4.9-3.1-10.1,1.7Z"/>
    <path class="st4" d="M167.4,536.8s.2,3.8-.6,5.4c-1,2.1-2.7.5-2.1-.9,0,0,0,1.2,1,1,1-.2,1.7-3.2,1.7-5.5Z"/>
    <path class="st4" d="M167.7,540.9s-.2,2.5.2,3.3c.4.9,1,.4.9,0,0-.6-1-1.1-1.1-3.4Z"/>
    <path class="st4" d="M178.3,538.8s.9-1.8,1.5-2.2c.6-.4.8.2.7.4-.3.3-1.1.4-2.2,1.8Z"/>
    <path class="st4" d="M179.8,538.2s1.5-1.5,2.3-1.7.8.6.5.7c-.4.2-1.3-.1-2.8,1Z"/>
    <path class="st4" d="M161,538.2s.7,1.6,1.3,1.9c.6.3.8-.3.7-.5-.3-.3-1.1-.2-2-1.4Z"/>
    <path class="st4" d="M176.3,541.9s1.8-2.7,2.9-3.3c1.1-.6,1.3.5,1,.8-.5.5-2,.3-4,2.4Z"/>
    <path class="st4" d="M161.9,540.2s.5,1,.8,1.2c.4.2.5-.2.4-.3-.2-.2-.7-.1-1.2-.9Z"/>
    <path class="st4" d="M168.9,543.2s.9.9,1.4,1c.5,0,.6-.5.4-.6-.3-.1-.9.2-1.9-.4Z"/>
    <path class="st4" d="M161.1,539.2s.8,2.2.6,3.3-.9,1-.9.6c0-.6.7-1.7.3-4Z"/>
    <path class="st4" d="M154.9,524.3s-2.5-.4-4.3,1.3c0,0-.3-2.2-1.5-3,0,0,1.4.7,1.7,2.4,0,0,1.5-1.3,4.2-.6Z"/>
    <path class="st4" d="M170.1,530.8s1.7.7,2.2,2.6c0,0,1.1-1.4,2.1-1.5,0,0-1.2,0-2,1,0,0-.4-1.5-2.3-2.1Z"/>
    <path class="st4" d="M164.8,525.7s1.7.5,2.2,2.4c0,0,1.1-1.4,2.2-1.6,0,0-1.2,0-2,1.1,0,0-.5-1.4-2.4-1.9Z"/>
    <path class="st4" d="M146.2,524.5s1.4.4,1.7,1.9c0,0,.8-1.1,1.7-1.3,0,0-.9,0-1.6.9,0,0-.4-1.1-1.9-1.5Z"/>
    <path class="st4" d="M171.7,534.8s1.4.4,1.7,1.9c0,0,.8-1.1,1.7-1.3,0,0-.9,0-1.6.9,0,0-.4-1.1-1.9-1.5Z"/>
    <path class="st4" d="M151.1,526.2s.8.2,1,1.2c0,0,.5-.8,1-.9,0,0-.5,0-.9.5,0,0-.2-.6-1.1-.8Z"/>
  </g>
</svg>