<?xml version="1.0" encoding="UTF-8"?>
<svg xmlns="http://www.w3.org/2000/svg" version="1.1" viewBox="0 0 400 600">
  <defs>
    <style>
      .cls-1, .cls-2, .cls-3, .cls-4, .cls-5, .cls-6, .cls-7 {
        stroke: #000;
      }

      .cls-1, .cls-8, .cls-9, .cls-5 {
        fill: #fff;
      }

      .cls-1, .cls-3, .cls-6 {
        stroke-miterlimit: 10;
      }

      .cls-1, .cls-6 {
        stroke-width: 3px;
      }

      .cls-2, .cls-9 {
        fill-rule: evenodd;
      }

      .cls-3 {
        stroke-width: .8px;
      }

      .cls-10 {
        fill: #0020e9;
      }

      .cls-11 {
        fill: #b2b5ab;
      }

      .cls-12 {
        display: none;
      }

      .cls-4 {
        fill: #333;
      }

      .cls-4, .cls-5, .cls-7 {
        stroke-width: 6px;
      }

      .cls-13 {
        fill: #bf0000;
      }

      .cls-14 {
        fill: #d23b2f;
      }

      .cls-6 {
        fill: none;
      }

      .cls-15 {
        fill: #d23a2e;
      }
    </style>
  </defs>
  <!-- Generator: Adobe Illustrator 28.7.4, SVG Export Plug-In . SVG Version: 1.2.0 Build 166)  -->
  <g>
    <g id="_x31_4">
      <g id="Layer_1">
        <g id="suit2">
          <path id="Shirt" class="cls-5" d="M281.2,502.8c5.6,3.7,17.7,7.7,28.6,9.9,0,0,30.8,5.3,37.9,7.7,57.4,22.3,50.4,79.7,50.4,79.7l-395.8-.2s-3.8-63.4,37.2-71.5c7.7-1.5,25.9-8.7,35.6-9.4,0,0,37.4-9,42.8-12.6.9,5.7,11.3-29.5,4-41.3,19,3.1,38.2-.2,68.9,0,42.8.4,77.3,2.9,91.1-.5-8.6,16.4-.8,38.2-.8,38.2Z"/>
          <path class="cls-2" d="M120.3,509.3l-10,24.4-69.6,16.7s-.8,38.7-35.5,46.3l1-19,3.3-13.2,4.3-11.5,8.6-13,5.6-4.7,9.9-4.3,12.8-3.3,17.7-4,14.5-4,25.3-7,12.1-3.4Z"/>
          <path class="cls-2" d="M395.6,596.7c-33.3-7.7-34.1-46.8-34.1-46.8l-66.7-16.9-9.6-24.7s15.3,5.3,16,5.3,22.8,4.2,22.8,4.2l23.6,5.7,12.4,6.2,12.6,8.9,9.1,10.6,6.7,11.7,5,13,2.4,17.3v5.3Z"/>
          <path d="M196,505.5c-12.2,8.8-5.5,94.8-5.5,94.8h1.8s.1-10.1-.4-19.6-.7-12.2-.9-18.9c-.4-18.4,1.1-37.7,2.7-43.5,3.4-12.1,2.3-12.7,2.3-12.7Z"/>
          <circle cx="200.5" cy="523.5" r="1.2"/>
          <circle cx="199.5" cy="538.7" r="1.2"/>
          <circle cx="198.5" cy="556.7" r="1.2"/>
          <circle cx="199.5" cy="574.6" r="1.2"/>
          <circle cx="200.5" cy="588.7" r="1.2"/>
          <g class="cls-12">
            <path class="cls-4" d="M-.1,599.8s-6.3-40.2,22.5-62.8c8.8-6.9,40.4-10,54.5-14.7,7.4-2.5,40.8-17.1,43.2-18.7,1,6.1,2.5,55.6,20.3,96.3.5,1.1-140.5-.2-140.5-.2h0Z"/>
            <path class="cls-4" d="M395.7,599.8s6.3-40.2-22.5-62.8c-8.8-6.9-40.4-10-54.5-14.7-7.4-2.5-40.8-17.1-43.2-18.7-1,6.1-2.5,55.6-20.3,96.3-.5,1.1,140.5-.2,140.5-.2h0Z"/>
          </g>
        </g>
      </g>
      <path id="Shirt-neck" class="cls-7" d="M118,506.4c3.8-10.5,11.4-29.4,4.1-41.2,19,3.1,38.2-.2,68.9,0,42.8.4,77.2,2.7,91-.6-8.6,16.4,3.1,40.7,3.1,40.7l-167.1,1.2Z"/>
      <path d="M173.1,467.8c-5.5,3.5-2.4,37.7-2.4,37.7h.8s-.9-27.8.6-32.6,1-5.1,1-5.1Z"/>
      <circle cx="175.9" cy="479.2" r="1.2"/>
      <circle cx="175.9" cy="491.3" r="1.2"/>
      <g>
        <path class="cls-9" d="M174.7,478v8.9s3.8-8.9,3.8-8.9h9l2.9,6.7,2.2-6.7h4.9s-4.8,12.1-4.8,12.1v8.2s-4.8,0-4.8,0v-8.2s-4.8-11.2-4.8-11.2l-3.6,8.7,5.4,10.7h-5.4s-4.8-9.9-4.8-9.9v9.9s-4.8,0-4.8,0v-20.4h4.8ZM135.2,493.8v-15.9h-5v20.4h10v-4.5h-5,0ZM163.6,482.6c1.2-.7,2.9-.5,4,.3l.7.5v-4.9c-1.9-1-4.4-1.4-6.6-.7-3.6,1.2-5.1,5.1-5.3,8.7,0,.5,0,1,0,1.5,0,.5,0,1,0,1.5.1,3.6,1.6,7.5,5.1,8.8,2.1.8,4.8.3,6.8-.6v-4.8s-.7.5-.7.5c-1.1.8-2.9.9-4,.2-1.7-1.2-2.3-3.4-2.2-5.5,0-2.1.6-4.3,2.4-5.4h0ZM145.8,492.2c0,1.1.9,2.1,2.1,2.1,1.1,0,2.1-.9,2.1-2.1v-14.2h4.6v14.7c0,2.6-1.9,5-4.4,5.8-.8.3-1.5.4-2.3.4-.8,0-1.5,0-2.3-.4-2.5-.8-4.3-3.1-4.4-5.8v-14.7h4.6v14.2s0,0,0,0Z"/>
        <polygon class="cls-9" points="259.1 487.9 263.9 498.7 258.4 498.7 254.4 488.7 254.4 498.7 249.7 498.7 249.7 478.4 254.4 478.4 254.4 487.1 258.2 478.4 263.4 478.4 259.1 487.9 259.1 487.9"/>
        <polygon class="cls-9" points="226.5 478.4 226.5 482.7 223.1 482.7 223.1 498.7 218.2 498.7 218.2 482.7 214.7 482.7 214.7 478.4 226.5 478.4 226.5 478.4"/>
        <rect class="cls-8" x="242.5" y="478.4" width="4.9" height="20.3"/>
        <polygon class="cls-9" points="275.2 482.5 275.2 478.4 265 478.4 265 498.7 275.2 498.7 275.2 494.5 269.9 494.5 269.9 490 274.6 490 274.6 486.2 269.9 486.2 269.9 482.5 275.2 482.5 275.2 482.5"/>
        <path class="cls-9" d="M206.7,489.9c-1.7-1-2.8-2-3.3-4-.5-1.8-.2-3.7.7-5.3,2.1-3.5,6.5-3.2,9.4-1.6v4.7c-3-2.3-4.8-1.9-5.3-.9-.3.5-.3.8-.2,1.3.1.5.5.9,1,1.1l2,1.2c1.7,1,2.9,1.9,3.4,3.9.5,1.8.2,3.8-.7,5.4-2.1,3.8-6.6,3.9-10.4,2.1v-4.8c3.9,2.6,5.7,1.7,6.2.8.3-.5.3-1,.2-1.5s-.5-.9-.9-1.2l-2.2-1.2h0Z"/>
        <path class="cls-9" d="M237.4,490.1h0c1.3-.6,2.3-1.7,2.9-3.4.8-2.5.4-5.6-1.8-7.4-1-.9-2.5-.9-2.5-.9h-8.3v20.4h4.8s0-7.6,0-7.6h.7l3,7.5h5s-3.7-8.6-3.7-8.6ZM235.5,486.2c-.7.9-2,.7-3.1.8v-4.8c1.2,0,2.6-.2,3.3.8.4.9.5,2.4-.1,3.2Z"/>
      </g>
      <g>
        <path class="cls-9" d="M80.2,527.4l-1.5,4.8,4.9,4.4-3.7.9-4.5-4.1,1.1,4.9-3.3.8-2.3-10,3.3-.8h0s1,4.4,1,4.4l1.6-5,3.5-.8-.2.6ZM49,542.5l-1.8-7.8-3.4.8,2.3,10,6.9-1.6-.5-2.2-3.4.8h0ZM67.2,532.4c.7-.6,1.9-.7,2.8-.5h.5c0,.1-.6-2.3-.6-2.3-1.4-.2-3.2,0-4.6.7-2.3,1.1-2.9,3.3-2.7,5.1,0,.2,0,.5.1.7,0,.2.1.5.2.7.5,1.7,1.9,3.5,4.5,3.5,1.6,0,3.4-.6,4.6-1.4l-.5-2.3-.4.4c-.7.6-1.9.9-2.7.7-1.3-.3-2-1.3-2.2-2.3-.3-1,0-2.2,1-3.1h0ZM56.1,539.9c.1.6.9.9,1.7.7.8-.2,1.3-.8,1.2-1.3l-1.6-7,3.2-.7,1.7,7.2c.2,1.3-.7,2.7-2.3,3.5-.6.3-1,.4-1.6.5-.5.1-1,.2-1.6.2-1.8,0-3.3-.8-3.7-2.1l-1.7-7.2,3.2-.7,1.6,7h0Z"/>
        <rect class="cls-8" x="83.1" y="525.9" width="3.5" height="10.3" transform="translate(-119 33.4) rotate(-13.2)"/>
        <polygon class="cls-9" points="93.9 525.8 93.4 523.8 86.4 525.4 88.8 535.4 95.7 533.8 95.3 531.7 91.6 532.6 91.1 530.3 94.4 529.6 93.9 527.7 90.7 528.5 90.2 526.7 93.9 525.8 93.9 525.8"/>
        <path class="cls-9" d="M97.9,528.8c-1.3-.2-2.1-.5-2.7-1.4-.5-.8-.6-1.8-.1-2.7,1-2,4.1-2.6,6.3-2.3l.5,2.3c-2.3-.7-3.5-.1-3.8.4-.1.3-.1.4,0,.7.1.2.5.3.8.4l1.5.2c1.3.2,2.2.5,2.8,1.4.5.8.6,1.8.2,2.8-1,2.2-4.1,3-6.9,2.7l-.5-2.4c3,.6,4.1,0,4.4-.6.1-.3.1-.5,0-.8s-.4-.4-.8-.4l-1.6-.2h0Z"/>
      </g>
      <g>
        <path class="cls-9" d="M338.9,529.8l-3.5,3.6,2.4,6.2-3.7-.9-2.1-5.7-1.2,4.8-3.3-.8,2.5-10,3.3.8h0s-1.1,4.4-1.1,4.4l3.7-3.7,3.5.9-.4.4ZM304.2,528.8l2-7.8-3.4-.9-2.5,10,6.8,1.7.6-2.2-3.4-.9h0ZM325.1,528.2c.9-.2,2.1.2,2.7.8l.4.3.6-2.4c-1.2-.8-2.9-1.4-4.4-1.5-2.6,0-4.1,1.6-4.7,3.3,0,.2-.2.5-.2.7,0,.2-.1.5-.2.7-.4,1.8.1,4,2.4,5.2,1.4.7,3.3,1,4.7.9l.6-2.3h-.6c-.9.3-2.1,0-2.8-.5-1-.9-1.2-2-.8-3.1.3-1,.9-2,2.3-2.3h0ZM311.7,529.8c-.1.6.4,1.2,1.2,1.4.8.2,1.5,0,1.7-.6l1.8-7,3.1.8-1.8,7.2c-.4,1.3-1.9,2.1-3.7,2.1-.6,0-1.1,0-1.6-.2-.5-.1-1-.3-1.5-.6-1.6-.8-2.5-2.3-2.3-3.6l1.8-7.2,3.2.8-1.8,7h0Z"/>
        <rect class="cls-8" x="336.2" y="533.4" width="10.3" height="3.5" transform="translate(-261.1 735) rotate(-75.8)"/>
        <polygon class="cls-9" points="351.7 534.7 352.2 532.6 345.3 530.9 342.8 540.8 349.7 542.6 350.3 540.5 346.6 539.6 347.2 537.4 350.5 538.2 350.9 536.4 347.7 535.6 348.1 533.7 351.7 534.7 351.7 534.7"/>
        <path class="cls-9" d="M353.9,539.1c-1-.8-1.6-1.4-1.8-2.5-.1-.9.3-1.8,1.1-2.5,1.8-1.3,4.8-.5,6.6.9l-.6,2.3c-1.7-1.6-3-1.7-3.5-1.4-.2.2-.3.3-.3.6,0,.3.2.5.5.7l1.2.9c1,.8,1.7,1.4,1.9,2.5.1.9-.3,1.9-1.1,2.5-1.9,1.5-5,.8-7.4-.8l.6-2.4c2.4,1.9,3.7,1.8,4.2,1.5.2-.2.4-.4.3-.7s-.2-.5-.5-.8l-1.3-.9h0Z"/>
      </g>
      <path class="cls-10" d="M111.6,545.6s-17.4,7.1-15.4,14.2,28.7,10.7,28.7,10.7c0,0,34.1,3.6,43.5,3.4-12.7-1.6-58.5-5.8-56.8-28.3Z"/>
      <path class="cls-10" d="M122.1,542.6l13.1-4.1s1.1,2.9-11.3,7.6c.3,3.2.4,3.9.4,3.9,0,0,4.1-5.4,12.2-6,4.9.3,5.5,6,5.5,6,0,0,.2,4.5-5.5,7.7s-10,1.2-10,1.2c0,0-5.3-3.4.3-6.8s5.3,2.8,5.3,2.8l-1.3,1.1v1.2c0,0,4.4,1.2,5.1-3.6s-5.3-5.8-5.3-5.8c0,0-3.9.2-6.8,4.3-.5-1.6-1.7-9.6-1.7-9.6Z"/>
      <path class="cls-10" d="M141,537.6l10.7-1.4s1,3.2-8.6,4.8c.2,2.1.5,3.4.5,3.4,0,0,4.8-5,10.5-2.9,5.7,2.1,4.3,7.6,4.3,7.6,0,0-.2,4.4-9.6,3.9-5-1-5.2-4.3-5.2-4.3,0,0,2.4-5,6.8-1.6,1,2-.6,3-.6,3,0,0,1.1,3.8,4.1-.2,1.7-4.2-4.5-6.4-4.5-6.4,0,0-2.1-1.4-6.3,2.6-.7-1.5-2.1-8.5-2.1-8.5Z"/>
      <path class="cls-10" d="M156.7,535.8l8.1-.4s1.2,2.9-5.6,3.1c.5,1.5,1,3.1,1,3.1,0,0,3.6-4.5,9.4-1s3.1,7.6,3.1,7.6c0,0-4,2.8-9,.4-2.8-2.5-2.7-3.6-2.7-3.6,0,0,1-3.6,5.2-1,2.1,1.4,0,3,0,3,0,0,1.3,1.9,3.4.2s-3.4-5.5-3.4-5.5c0,0-3.1-1.8-6.1,1-1-.7-3.4-7-3.4-7Z"/>
      <g>
        <path class="cls-10" d="M102.6,582.6l-3.9-5.5h2.1l1.8,2.8c.5.7.9,1.4,1.1,1.9h0c.3-.5.7-1.2,1.3-1.9l2.1-2.8h2.1l1.9,2.8c.4.7.8,1.3,1.1,1.9h0c.3-.6.8-1.2,1.2-1.9l2-2.8h2l-4.4,5.5h-2.1l-1.9-2.9c-.5-.7-.8-1.2-1-1.8h0c-.3.5-.6,1.1-1.2,1.8l-2.2,2.9h-2.1Z"/>
        <path class="cls-10" d="M132.6,579.8c0,1.9-3.2,2.9-7.2,2.9s-6.9-1.1-6.9-2.8,3-2.9,7.2-2.9,6.9,1.2,6.9,2.8ZM120.7,579.9c0,1.2,1.8,2.2,4.9,2.2s4.9-1,4.9-2.3-1.6-2.2-4.9-2.2-4.9,1.1-4.9,2.3Z"/>
        <path class="cls-10" d="M135.2,577.2c1,0,2.4-.1,3.8-.1,2.1,0,3.5.1,4.5.4.8.2,1.2.6,1.2,1,0,.7-1.3,1.2-2.9,1.4h0c1.2.2,1.9.6,2.3,1.1.5.8.9,1.3,1.2,1.5h-2.1c-.3-.2-.6-.6-1-1.3-.5-.8-1.3-1-3.1-1.1h-1.9v2.4h-2v-5.4ZM137.2,579.7h2c2.1,0,3.5-.4,3.5-1s-1.4-1-3.5-1c-1,0-1.6,0-2,0v2Z"/>
        <path class="cls-10" d="M147.5,577.1h2v4.9h6.6v.6h-8.6v-5.5Z"/>
        <path class="cls-10" d="M158.3,577.2c1.2,0,2.7-.1,4.2-.1,2.9,0,4.9.2,6.2.7,1.4.4,2.2,1.1,2.2,2s-.8,1.6-2.2,2.1c-1.4.5-3.8.8-6.8.8s-2.6,0-3.6,0v-5.4ZM160.3,582c.5,0,1.2,0,2,0,4.3,0,6.6-.8,6.6-2.3,0-1.3-2-2.1-6.2-2.1s-1.8,0-2.3,0v4.3Z"/>
        <path class="cls-10" d="M100.1,586.9c1,0,2.4-.1,3.8-.1,2.1,0,3.5.1,4.5.4.8.2,1.2.6,1.2,1,0,.7-1.3,1.2-2.9,1.4h0c1.2.2,1.9.6,2.3,1.1.5.8.9,1.3,1.2,1.5h-2.1c-.3-.2-.6-.6-1-1.3-.5-.8-1.3-1-3.1-1.1h-1.9v2.4h-2v-5.4ZM102.1,589.4h2c2.1,0,3.5-.4,3.5-1s-1.4-1-3.5-1c-1,0-1.6,0-2,0v2Z"/>
        <path class="cls-10" d="M115,590.6l-1.6,1.7h-2.1l5.2-5.5h2.4l5.3,5.5h-2.1l-1.6-1.7h-5.5ZM120.1,590.1l-1.5-1.6c-.3-.4-.6-.7-.8-1h0c-.2.3-.5.7-.8,1l-1.5,1.6h4.6Z"/>
        <path class="cls-10" d="M137,592.2c-.7.1-2.2.3-4.1.3-4.3,0-7.6-1-7.6-2.8s3.3-2.9,8-2.9,3.1.1,3.7.2l-.5.6c-.8-.1-1.8-.2-3.1-.2-3.6,0-6,.8-6,2.3s2.2,2.2,5.9,2.2,2.4,0,3.2-.2l.4.6Z"/>
        <path class="cls-10" d="M141.4,586.9v5.5h-2v-5.5h2Z"/>
        <path class="cls-10" d="M144.9,592.4v-5.5h2.2l4.9,2.8c1.1.6,2,1.2,2.8,1.8h0c-.2-.7-.2-1.4-.2-2.3v-2.3h1.9v5.5h-2l-4.9-2.8c-1.1-.6-2.1-1.2-2.9-1.8h0c.1.7.2,1.4.2,2.3v2.3h-1.9Z"/>
        <path class="cls-10" d="M171.7,592.1c-.9.1-2.7.3-4.7.3s-4.3-.2-5.8-.7c-1.3-.5-2.1-1.2-2.1-2,0-1.6,3.2-2.8,8.3-2.8s3.2.1,3.8.3l-.5.6c-.8-.1-1.9-.2-3.4-.2-3.7,0-6.2.8-6.2,2.2s2.4,2.2,5.9,2.2,2.2,0,2.7-.1v-1.6h-3.1v-.6h5.1v2.6Z"/>
      </g>
      <g>
        <path id="svg_6" class="cls-13" d="M272.9,523.4c-1.2,5.2-1.6,7.6-2.6,11.3-.9,3.6-1.6,6.9-2.8,8.6-1.2,1.7-2.9,2-4,2.1-.6,0-1,.1-2.3.1s-1.7,0-2.3-.1c-1.1-.1-2.8-.5-4-2.1-1.2-1.6-1.9-5-2.8-8.6-.9-3.8-1.4-6.1-2.6-11.3,0,0-1.2,0-1.7,0-.7,0-1.3.1-1.8.2,0,0,.7,10.7,1,15.2.3,4.7.9,12.8,1.4,18.8,0,0,1,.2,2.6.2,1.7.1,2.5.1,2.5.1.7-2.7,1.6-6.4,2.5-8,.8-1.3,2-1.4,2.7-1.5,1.1-.1,2-.2,2.4-.2h0c.4,0,1.4,0,2.4.2.7.1,1.9.2,2.7,1.5,1,1.6,1.9,5.3,2.5,8,0,0,.7,0,2.4-.1,1.6-.1,2.6-.2,2.6-.2.5-6.1,1.1-14.1,1.4-18.8.3-4.5,1-15.2,1-15.2-.6,0-1.2-.1-1.8-.2-.5,0-1.7,0-1.7,0"/>
        <path id="svg_7" class="cls-13" d="M286.4,529.7c-.7-6.8-5.2-8.2-9.2-8.9-2-.3-5.6-.6-7.8-.7-2-.1-6.7-.2-8.1-.2s-6.1,0-8.1.2c-2.3.1-5.8.4-7.8.7-4,.7-8.5,2.1-9.2,8.9-.2,1.9-.2,4.3-.2,6.8,0,4.3.4,7.2.6,9.2.1,1.4.7,5.5,1.5,7.7,1,2.9,1.9,3.8,3,4.7,2,1.6,5.2,2.1,5.9,2.2,3.7.6,11,.8,14.3.8s10.7-.1,14.3-.8c.7-.1,3.9-.6,5.9-2.2,1.1-.9,2-1.7,3-4.7.7-2.1,1.3-6.3,1.5-7.7.2-2,.6-4.9.6-9.2,0-2.6-.1-5-.3-6.8M283.9,541.1c-.4,5.4-.9,8.7-1.6,11-.6,2.1-1.4,3.4-2.4,4.4-1.8,1.7-4.3,2-5.8,2.2-3.2.5-8.6.6-12.8.6s-9.6-.2-12.8-.6c-1.5-.2-4-.6-5.8-2.2-1.1-1-1.8-2.4-2.4-4.4-.7-2.3-1.2-5.6-1.6-11-.2-3.3-.2-8.5.2-11.4.5-4.3,2.6-6.4,7.1-7.2,2.1-.4,4.9-.6,7.6-.8,2.2-.1,5.7-.2,7.7-.2,2,0,5.5,0,7.7.2,2.7.1,5.5.4,7.6.8,4.5.8,6.6,2.9,7.1,7.2.4,2.8.4,8.1.2,11.4"/>
      </g>
      <rect class="cls-1" x="220.8" y="567.2" width="83.4" height="23.6"/>
      <polygon class="cls-14" points="275.5 578.3 283.4 567.1 304 567.1 304 578.3 275.5 578.3"/>
      <polygon class="cls-8" points="283.5 567.2 277 578.4 258.7 578.4 266.3 567.2 283.5 567.2"/>
      <polygon class="cls-11" points="266.7 567.3 259.2 578.3 240.9 578.3 248.5 567.1 266.7 567.3"/>
      <polygon points="221.2 578.4 241.3 578.4 248.8 567.2 221.2 567.2 221.2 578.4"/>
      <rect class="cls-6" x="220.8" y="567.2" width="83.4" height="11.1"/>
      <g>
        <path class="cls-3" d="M225.2,582.6h.6v3.2h2v.4h-2.7v-3.6Z"/>
        <path class="cls-3" d="M228.9,582.6v2.1c0,.8.5,1.2,1.1,1.2s1.2-.4,1.2-1.2v-2.1h.6v2.1c0,1.1-.8,1.6-1.8,1.6s-1.7-.4-1.7-1.6v-2.1h.6Z"/>
        <path class="cls-3" d="M236.2,586.1c-.2,0-.7.2-1.3.2-1.3,0-2.4-.6-2.4-1.8s1-1.9,2.5-1.9,1,0,1.1.2v.4c-.4,0-.7-.2-1.1-.2-1.1,0-1.9.5-1.9,1.5s.7,1.5,1.8,1.5.8,0,1-.2v.4Z"/>
        <path class="cls-3" d="M237,582.6h.6v1.8h0c.1-.1.3-.3.4-.4l1.5-1.4h.8l-1.7,1.5,1.9,2.1h-.7l-1.6-1.8-.5.4v1.4h-.6v-3.6Z"/>
        <path class="cls-3" d="M241.9,586.2v-1.5l-1.5-2.1h.7l.7,1c.2.3.3.5.5.7h0c.1-.2.3-.5.5-.7l.7-1h.7l-1.6,2.1v1.5h-.6Z"/>
        <path class="cls-3" d="M246,585.7c.3.1.7.2,1.1.2.6,0,1-.3,1-.6s-.3-.5-.9-.7c-.8-.2-1.3-.5-1.3-1s.6-1,1.5-1,.8,0,1.1.2l-.2.4c-.2,0-.5-.2-.9-.2-.7,0-.9.3-.9.5s.3.5,1,.7c.8.2,1.2.5,1.2,1.1s-.5,1-1.7,1-1-.1-1.2-.2l.2-.4Z"/>
        <path class="cls-3" d="M250.5,583h-1.5v-.4h3.5v.4h-1.5v3.2h-.6v-3.2Z"/>
        <path class="cls-3" d="M253.1,582.7c.3,0,.8,0,1.2,0,.7,0,1.1,0,1.4.3.2.2.4.4.4.7,0,.5-.4.8-.9.9h0c.4.1.6.4.7.7.2.5.3.9.4,1h-.6c0-.1-.2-.4-.3-.9-.1-.5-.4-.7-1-.7h-.6v1.6h-.6v-3.6ZM253.8,584.3h.6c.7,0,1.1-.3,1.1-.7s-.4-.7-1.1-.7c-.3,0-.5,0-.6,0v1.3Z"/>
        <path class="cls-3" d="M257.6,582.6v3.6h-.6v-3.6h.6Z"/>
        <path class="cls-3" d="M258.7,582.6h.6v1.8h0c.1-.1.3-.3.4-.4l1.5-1.4h.8l-1.7,1.5,1.9,2.1h-.7l-1.6-1.8-.5.4v1.4h-.6v-3.6Z"/>
        <path class="cls-3" d="M265,584.5h-1.9v1.3h2.1v.4h-2.7v-3.6h2.6v.4h-2v1.1h1.9v.4Z"/>
        <path class="cls-3" d="M267.5,582.7c.3,0,.7,0,1.1,0,.6,0,1,0,1.3.3.2.1.4.4.4.6s-.3.7-.8.8h0c.5,0,1,.4,1,.9s-.2.5-.4.7c-.3.2-.9.3-1.7.3s-.8,0-1,0v-3.6ZM268.1,584.2h.6c.7,0,1-.3,1-.6s-.4-.6-1-.6-.4,0-.5,0v1.2ZM268.1,585.9c.1,0,.3,0,.5,0,.6,0,1.2-.2,1.2-.7s-.6-.7-1.2-.7h-.5v1.4Z"/>
        <path class="cls-3" d="M272.1,585.1l-.5,1.1h-.6l1.6-3.6h.7l1.6,3.6h-.7l-.5-1.1h-1.7ZM273.7,584.7l-.5-1c-.1-.2-.2-.5-.2-.7h0c0,.2-.1.4-.2.7l-.5,1.1h1.4Z"/>
        <path class="cls-3" d="M275.7,582.7c.3,0,.8,0,1.2,0,.7,0,1.1,0,1.4.3.2.2.4.4.4.7,0,.5-.4.8-.9.9h0c.4.1.6.4.7.7.2.5.3.9.4,1h-.6c0-.1-.2-.4-.3-.9-.1-.5-.4-.7-1-.7h-.6v1.6h-.6v-3.6ZM276.3,584.3h.6c.7,0,1.1-.3,1.1-.7s-.4-.7-1.1-.7c-.3,0-.5,0-.6,0v1.3Z"/>
      </g>
      <g>
        <path class="cls-15" d="M281.4,586.4v-1.8c.1,0,.2-1.3.2-1.3v-.6c0-.2,0-.3,0-.5v-.3c.3,0,.5,0,.6,0s.3,0,.6,0c0,.6,0,1.2,0,1.7h1.5c0-.2,0-.4,0-.7,0-.3,0-.5,0-.6s0-.2,0-.3h.7c0,0,.3,0,.6,0,0,1.1-.1,2-.1,2.5s0,1.2,0,2h-.6c0,0-.3,0-.6,0,0-.5,0-1.1,0-1.8h-1.5v1.8s-.7,0-.7,0c0,0-.3,0-.6,0Z"/>
        <path class="cls-15" d="M287.6,583c.2,0,.4,0,.7.1s.4.2.5.4c.1.2.3.3.3.5s.1.4.1.7,0,.5,0,.7c0,.2-.2.4-.3.6-.1.2-.3.3-.6.4-.2,0-.5.1-.7.1s-.5,0-.7-.1c-.2,0-.4-.2-.5-.4-.1-.2-.3-.3-.3-.6,0-.2-.1-.4-.1-.7s0-.5.1-.7c0-.2.2-.4.3-.6.2-.2.3-.3.6-.4s.5-.1.7-.1ZM287.6,584c-.1,0-.2,0-.3.1,0,0-.2.2-.2.3,0,.1,0,.3,0,.5,0,.2,0,.4.2.6s.2.2.4.2.2,0,.3-.1c0,0,.2-.2.2-.3s0-.3,0-.5,0-.3,0-.4c0-.1,0-.2-.2-.3,0,0-.2,0-.3,0Z"/>
        <path class="cls-15" d="M289.6,586.4c0-.5,0-1,.1-1.6,0-.6,0-1.2,0-1.7.2,0,.4,0,.6,0s.4,0,.5,0v.4c0,0,0-.1.1-.2s0,0,.2-.1c0,0,.1,0,.2-.1,0,0,.2,0,.2,0,0,0,.2,0,.3,0s.3,0,.4,0,.2,0,.3.1c0,0,.2.1.2.2s0,.2.1.3c0,.1,0,.2,0,.3s0,.3,0,.5v1.2c0,.2,0,.5,0,.6-.2,0-.4,0-.5,0s-.4,0-.6,0c0-.2,0-.5,0-.9,0-.4,0-.7,0-.8,0-.2,0-.4-.1-.5s-.2-.1-.3-.1-.2,0-.3.1c0,0-.2.2-.2.4s0,.4-.1.8c0,.4,0,.7,0,1.1-.2,0-.4,0-.5,0s-.4,0-.6,0Z"/>
        <path class="cls-15" d="M296.6,586.4c-.2,0-.4,0-.5,0s-.3,0-.5,0v-.4c0,0-.1.2-.2.2s-.1.1-.2.1c0,0-.2,0-.3.1,0,0-.2,0-.3,0-.2,0-.3,0-.5-.1-.2,0-.3-.2-.4-.3-.1-.1-.2-.3-.2-.5s0-.4,0-.6c0-.3,0-.6.1-.9,0-.3.2-.5.4-.7.2-.2.3-.3.5-.3s.4-.1.6-.1.3,0,.5,0c0-.3,0-.6,0-1.1.2,0,.4,0,.6,0s.4,0,.6,0c0,.6-.1,1.4-.1,2.4,0,.9,0,1.6,0,2.1ZM295.6,583.9c0,0-.2,0-.3,0-.2,0-.3,0-.5.1-.1,0-.2.2-.3.4s-.1.3-.1.5,0,.2,0,.3c0,.1,0,.2.2.2,0,0,.2,0,.3,0s.2,0,.3-.1.2-.2.2-.3c0-.1,0-.3.1-.5,0-.2,0-.4,0-.8Z"/>
        <path class="cls-15" d="M297.5,584c0-.2,0-.4,0-.4s0-.2,0-.4c.5-.1,1-.2,1.4-.2s.4,0,.6,0c.2,0,.3.2.4.3.1.1.2.3.2.6s0,.4,0,.8c0,.4,0,1,0,1.7-.2,0-.4,0-.5,0s-.4,0-.6,0c0-.2,0-.7,0-1.5,0,0-.1,0-.2,0,0,0-.1,0-.2,0,0,0-.2,0-.2,0,0,0-.1,0-.1,0,0,0,0,0,0,.1,0,0,0,0,0,.1,0,0,0,.1,0,.2,0,0,.1,0,.2,0s0,0,.1,0c0,0,.1,0,.2,0,0,.2-.1.4-.2.7-.2,0-.3,0-.5,0-.2,0-.4,0-.6-.1-.2,0-.3-.2-.4-.4,0-.2-.1-.3-.1-.5s0-.2,0-.3c0,0,0-.2.1-.3,0,0,.1-.2.2-.2s.2-.1.4-.2c.2,0,.3-.1.6-.2,0,0,.2,0,.3,0,0,0,.1,0,.2,0,0,0,0,0,0,0,0,0,0,0,0,0s0,0,0,0c0,0,0-.1,0-.2,0,0-.1,0-.3,0-.3,0-.7.1-1.2.3Z"/>
      </g>
    </g>
  </g>
</svg>