<?xml version="1.0" encoding="UTF-8"?>
<svg xmlns="http://www.w3.org/2000/svg" version="1.1" viewBox="0 0 400 600">
  <defs>
    <style>
      .cls-1 {
        fill: #ed1b2f;
      }

      .cls-2, .cls-3 {
        stroke: #fff;
        stroke-miterlimit: 10;
      }

      .cls-2, .cls-4 {
        fill: #0072dd;
      }

      .cls-5 {
        fill: #f69aff;
      }

      .cls-6 {
        fill: #150a00;
        stroke-width: 6px;
      }

      .cls-6, .cls-7 {
        stroke: #000;
      }

      .cls-8, .cls-7 {
        fill: #fff;
      }

      .cls-3 {
        fill: #001778;
        stroke-width: 2px;
      }

      .cls-9 {
        fill: none;
      }

      .cls-10 {
        fill: #f9b29e;
      }

      .cls-7 {
        stroke-width: 10px;
      }

      .cls-11 {
        fill: #009a4e;
      }
    </style>
  </defs>
  <!-- Generator: Adobe Illustrator 28.7.4, SVG Export Plug-In . SVG Version: 1.2.0 Build 166)  -->
  <g>
    <g id="_x32_0">
      <g id="Layer_1">
        <g id="suit2">
          <path id="Shirt" class="cls-6" d="M281.2,502.8c5.6,3.7,17.7,7.7,28.6,9.9,0,0,30.8,5.3,37.9,7.7,57.4,22.3,50.4,79.7,50.4,79.7l-395.8-.2s-3.8-63.4,37.2-71.5c7.7-1.5,25.9-8.7,35.6-9.4,0,0,37.4-9,42.8-12.6.9,5.7,11.3-29.5,4-41.3,19,3.1,38.2-.2,68.9,0,42.8.4,77.3,2.9,91.1-.5-8.6,16.4-.8,38.2-.8,38.2Z"/>
          <g>
            <path class="cls-4" d="M337.9,520.3c-6.9,22.2,1.2,76.7,44.9,76.7,5.7,0,12.6,0,12.6,0,0,0,5.6-58.5-57.5-76.7Z"/>
            <path class="cls-4" d="M66,523.4c5.3,2.6,7.1,58.3-49.6,73.4-7.7.5-11.5.5-11.5.4,0,0,2.5-64.3,61.2-73.8Z"/>
          </g>
          <g>
            <path class="cls-2" d="M62,524.7c10.7,57.1-57,70.2-57.1,72.5,0,0-9.1-68.4,57.1-72.5Z"/>
            <path class="cls-2" d="M341.3,521.9c-5.2,73,54.2,75.1,54.2,75.1,0,0,4.4-57.3-54.2-75.1Z"/>
          </g>
          <rect class="cls-5" x="99.8" y="565.4" width="207.5" height="30.3"/>
          <g>
            <polygon class="cls-3" points="303.4 567.4 262.2 567.4 254.7 576.2 266.5 576.2 266.5 594.6 290.7 594.6 290.7 576.2 303.4 576.2 303.4 567.4"/>
            <polygon class="cls-3" points="234.7 567.4 224.5 579.4 216.7 567.4 198.6 567.4 190.8 579.4 180.6 567.4 156 567.4 179.2 594.6 199.1 594.6 207.8 581.4 216.1 594.6 236.3 594.6 259.2 567.4 234.7 567.4"/>
            <path class="cls-3" d="M149.3,580.7c4.8-1.2,8.1-3.5,8.1-6.1,0-4-7.8-7.2-17.5-7.2h-36.1v27.2h39.6c9.7,0,17.5-3.2,17.5-7.2.3-3.1-4.8-5.7-11.6-6.7ZM124,574.2h6.5c1.9,0,3.5.8,3.5,1.9s-1.6,1.9-3.5,1.9h-6.5v-3.8h0ZM133.9,588.7h-9.7v-4h9.7c2.2,0,3.8.9,3.8,2s-1.6,2-3.8,2Z"/>
          </g>
          <path d="M196,505.5c-12.2,8.8-5.5,94.8-5.5,94.8h1.8s.1-10.1-.4-19.6-.7-12.2-.9-18.9c-.4-18.4,1.1-37.7,2.7-43.5,3.4-12.1,2.3-12.7,2.3-12.7Z"/>
          <circle cx="200.5" cy="523.5" r="1.2"/>
          <circle cx="199.5" cy="538.7" r="1.2"/>
          <circle cx="198.5" cy="556.7" r="1.2"/>
          <circle cx="199.5" cy="574.6" r="1.2"/>
          <circle cx="200.5" cy="588.7" r="1.2"/>
        </g>
      </g>
      <path id="Shirt-neck" class="cls-6" d="M118,506.4c3.8-10.5,11.4-29.4,4.1-41.2,19,3.1,38.2-.2,68.9,0,42.8.4,77.2,2.7,91-.6-8.6,16.4,3.1,40.7,3.1,40.7l-167.1,1.2Z"/>
      <g>
        <path class="cls-7" d="M28.1,548.5c-.2.9-.7,2.3-1.4,4.3-.2.5-.4,1-.4,1.2,0,.2-.2.7-.4,1.1-.2.4-.4,1.1-.6,1.6-.1.5-.3,1-.4,1.3-.1.2-.3.7-.3,1-.1.4-.3.6-.8,1-.8.6-2.4,1.9-3.4,3-.5.5-1,1-1.2,1.2s-.5.5-.7.7c-.1.2-.4.5-.6.8-.7,1-2,3-2.1,3.3,0,.1-.1.3-.2.3-.3.2-1.2,3.4-1.4,4.7,0,.7-.4,2.2-.6,3.3-.7,2.9-.5,4.2.8,5.1,1.2.8,2.2.7,4.1-.4.8-.5,1.4-.9,1.7-1.2.2-.3.5-.6.7-.6.3-.2.8-.8,1.4-1.6.2-.2.4-.6.6-.8.2-.2.5-.6.6-.9.2-.3.5-.7.7-.9.2-.2.8-1.1,1.4-2,.6-.9,1.3-1.9,1.5-2.2.2-.3.6-.9.8-1.2.4-.6.4-.6,1.1-.8.4-.1,1.1-.3,1.5-.4,1.2-.3,1.9-.5,3.2-.8.7-.2,1.7-.4,2.2-.5.5-.1,1.1-.3,1.5-.3.3,0,.8-.2,1-.3s.6-.2.8-.2c.2,0,.5,0,.6-.1s.4-.1.6,0c.2,0,.4,0,.6,0,.3-.1.2-.2-.2-.7-.2-.3-1.3-2-2.3-3.7-2-3.3-2.1-3.6-1.6-3.9s.5-.5.8-.9.7-1.1.9-1.4c.2-.4.6-.9.8-1.2s.5-.6.6-.7c.1,0,.2-.3.2-.4s.1-.3.2-.4.6-.8,1.2-1.6,1.6-2.4,2.2-3.3c.6-1,1.8-2.7,2.6-3.9.8-1.2,1.4-2.1,1.5-2.2s.5-.7,1.1-1.6,1.5-2.2,2.1-3.1c1.7-2.4,1.9-2.6,1.8-2.8-.1-.2-.6,0-1,.4-1.3,1.4-3,3-4.4,4.1-.4.3-.8.7-1,.9-.2.2-.8.8-1.5,1.3s-1.5,1.2-1.9,1.6c-.4.4-1.3,1.1-1.9,1.6-1.1.9-1.9,1.6-3.4,3-.4.4-1,.8-1.1.9-.3.2-.8.6-2.9,2.6-.6.5-1.2,1-1.3,1.1-.2,0-.4,0-1.1-1.2-1.4-2.1-2.4-3.6-2.6-3.7-.3-.2-.5,0-.7,1h0ZM30.6,553.2c.7,1.1,1.3,1.9,1.4,2s.4-.2.8-.5c1.4-1.2,3-2.6,4-3.4.6-.5,1.4-1.2,1.9-1.6.5-.4,1.1-1,1.4-1.3.3-.3.7-.6.8-.8,0-.1.3-.3.4-.4s.5-.5.8-.8c.7-.8,1-1,1.4-1,.3,0,.3,0,0,.6-.2.3-.4.6-.5.7s-.4.4-.7.9c-.3.4-.7.9-.8,1.1s-.8,1.1-1.5,2.2c-.7,1-1.3,1.9-1.4,2s-.3.4-.5.7-.4.7-.5.8c-.5.7-.9,1.3-.9,1.5,0,0,0,.2-.2.3s-.6.7-1.1,1.5l-.9,1.4,2,3.1c1.1,1.7,1.9,3.2,1.9,3.3,0,0-.4.2-.9.3-.4,0-1.2.3-1.7.4-.5.1-1.2.3-1.5.4s-1,.2-1.5.4-1.1.2-1.3.3c-.2,0-1,.2-1.7.4-.7.2-1.6.4-1.9.5-.5,0-.6.1-1.1,1-.3.5-.6.9-.7.9s-.6.8-1.2,1.7c-1.7,2.5-2.5,3.7-3.2,4.7-.4.5-.7,1-.7,1.1,0,.1-.2.3-.4.4s-.5.4-.7.6c-.7.9-1.5,1.7-2.4,2.2s-1,.5-1.5.5c-.3,0-.6-.2-.7-.3-.2-.3,0-2.2.5-3.5.3-1,1-2.2,1.6-3.1,0,0,.2-.3.3-.4.4-.6,1.1-1.3,3.1-3.5.3-.3.7-.8.9-1,.2-.2.4-.4.5-.5s.6-.6,1.1-1.2c1-1.2,1.1-1.6.6-2-.2-.1-.4-.1-.6.1-.9.8-2,2.3-2.3,3.1,0,.2-.5.7-.8,1-.7.6-1.6,1.5-2.3,2.3-.7.8-1.2,1.1-1.4.9-.1-.2.7-2.4,1.2-3.1.1-.2.3-.5.5-.8.6-1.3,2.2-3.2,3.9-4.9,1-1,2.8-2.5,3.3-2.8s.7-.5,1-1.3c.2-.5.5-1.2.5-1.3s.2-.9.5-1.5c.2-.6.5-1.4.6-1.6,0-.3.3-1,.5-1.6.2-.6.5-1.4.6-1.8.3-1.2.4-1.1,1.8,1h0Z"/>
        <path class="cls-7" d="M21.3,571.5c-.2.3-.7,1-1,1.4-1.1,1.2-1.9,2.9-1.6,3.2.4.3,1.9-1.1,2.5-2.4.2-.4.3-.7.4-.7s.1-.2.1-.3c0-.1.3-.6.5-1.1.2-.4.3-.9.3-1-.1-.2-.7.2-1.2.9Z"/>
        <path class="cls-8" d="M28.1,548.5c-.2.9-.7,2.3-1.4,4.3-.2.5-.4,1-.4,1.2,0,.2-.2.7-.4,1.1-.2.4-.4,1.1-.6,1.6-.1.5-.3,1-.4,1.3-.1.2-.3.7-.3,1-.1.4-.3.6-.8,1-.8.6-2.4,1.9-3.4,3-.5.5-1,1-1.2,1.2s-.5.5-.7.7c-.1.2-.4.5-.6.8-.7,1-2,3-2.1,3.3,0,.1-.1.3-.2.3-.3.2-1.2,3.4-1.4,4.7,0,.7-.4,2.2-.6,3.3-.7,2.9-.5,4.2.8,5.1,1.2.8,2.2.7,4.1-.4.8-.5,1.4-.9,1.7-1.2.2-.3.5-.6.7-.6.3-.2.8-.8,1.4-1.6.2-.2.4-.6.6-.8.2-.2.5-.6.6-.9.2-.3.5-.7.7-.9.2-.2.8-1.1,1.4-2,.6-.9,1.3-1.9,1.5-2.2.2-.3.6-.9.8-1.2.4-.6.4-.6,1.1-.8.4-.1,1.1-.3,1.5-.4,1.2-.3,1.9-.5,3.2-.8.7-.2,1.7-.4,2.2-.5.5-.1,1.1-.3,1.5-.3.3,0,.8-.2,1-.3s.6-.2.8-.2c.2,0,.5,0,.6-.1s.4-.1.6,0c.2,0,.4,0,.6,0,.3-.1.2-.2-.2-.7-.2-.3-1.3-2-2.3-3.7-2-3.3-2.1-3.6-1.6-3.9s.5-.5.8-.9.7-1.1.9-1.4c.2-.4.6-.9.8-1.2s.5-.6.6-.7c.1,0,.2-.3.2-.4s.1-.3.2-.4.6-.8,1.2-1.6,1.6-2.4,2.2-3.3c.6-1,1.8-2.7,2.6-3.9.8-1.2,1.4-2.1,1.5-2.2s.5-.7,1.1-1.6,1.5-2.2,2.1-3.1c1.7-2.4,1.9-2.6,1.8-2.8-.1-.2-.6,0-1,.4-1.3,1.4-3,3-4.4,4.1-.4.3-.8.7-1,.9-.2.2-.8.8-1.5,1.3s-1.5,1.2-1.9,1.6c-.4.4-1.3,1.1-1.9,1.6-1.1.9-1.9,1.6-3.4,3-.4.4-1,.8-1.1.9-.3.2-.8.6-2.9,2.6-.6.5-1.2,1-1.3,1.1-.2,0-.4,0-1.1-1.2-1.4-2.1-2.4-3.6-2.6-3.7-.3-.2-.5,0-.7,1h0ZM30.6,553.2c.7,1.1,1.3,1.9,1.4,2s.4-.2.8-.5c1.4-1.2,3-2.6,4-3.4.6-.5,1.4-1.2,1.9-1.6.5-.4,1.1-1,1.4-1.3.3-.3.7-.6.8-.8,0-.1.3-.3.4-.4s.5-.5.8-.8c.7-.8,1-1,1.4-1,.3,0,.3,0,0,.6-.2.3-.4.6-.5.7s-.4.4-.7.9c-.3.4-.7.9-.8,1.1s-.8,1.1-1.5,2.2c-.7,1-1.3,1.9-1.4,2s-.3.4-.5.7-.4.7-.5.8c-.5.7-.9,1.3-.9,1.5,0,0,0,.2-.2.3s-.6.7-1.1,1.5l-.9,1.4,2,3.1c1.1,1.7,1.9,3.2,1.9,3.3,0,0-.4.2-.9.3-.4,0-1.2.3-1.7.4-.5.1-1.2.3-1.5.4s-1,.2-1.5.4-1.1.2-1.3.3c-.2,0-1,.2-1.7.4-.7.2-1.6.4-1.9.5-.5,0-.6.1-1.1,1-.3.5-.6.9-.7.9s-.6.8-1.2,1.7c-1.7,2.5-2.5,3.7-3.2,4.7-.4.5-.7,1-.7,1.1,0,.1-.2.3-.4.4s-.5.4-.7.6c-.7.9-1.5,1.7-2.4,2.2s-1,.5-1.5.5c-.3,0-.6-.2-.7-.3-.2-.3,0-2.2.5-3.5.3-1,1-2.2,1.6-3.1,0,0,.2-.3.3-.4.4-.6,1.1-1.3,3.1-3.5.3-.3.7-.8.9-1,.2-.2.4-.4.5-.5s.6-.6,1.1-1.2c1-1.2,1.1-1.6.6-2-.2-.1-.4-.1-.6.1-.9.8-2,2.3-2.3,3.1,0,.2-.5.7-.8,1-.7.6-1.6,1.5-2.3,2.3-.7.8-1.2,1.1-1.4.9-.1-.2.7-2.4,1.2-3.1.1-.2.3-.5.5-.8.6-1.3,2.2-3.2,3.9-4.9,1-1,2.8-2.5,3.3-2.8s.7-.5,1-1.3c.2-.5.5-1.2.5-1.3s.2-.9.5-1.5c.2-.6.5-1.4.6-1.6,0-.3.3-1,.5-1.6.2-.6.5-1.4.6-1.8.3-1.2.4-1.1,1.8,1h0Z"/>
        <path class="cls-8" d="M21.3,571.5c-.2.3-.7,1-1,1.4-1.1,1.2-1.9,2.9-1.6,3.2.4.3,1.9-1.1,2.5-2.4.2-.4.3-.7.4-.7s.1-.2.1-.3c0-.1.3-.6.5-1.1.2-.4.3-.9.3-1-.1-.2-.7.2-1.2.9Z"/>
      </g>
      <g>
        <path class="cls-7" d="M380.3,559.4c-.8-.4-2-1.3-3.8-2.6-.4-.3-.9-.6-1-.7-.1,0-.6-.4-.9-.7-.4-.3-1-.7-1.4-1-.4-.3-.9-.6-1.1-.8-.2-.2-.6-.4-.9-.6-.3-.2-.5-.5-.7-1-.3-1-1.2-2.8-1.9-4.1-.3-.6-.7-1.3-.8-1.5s-.4-.6-.5-.8c-.2-.2-.4-.5-.6-.8-.8-1-2.4-2.8-2.6-2.9-.1,0-.3-.2-.3-.3,0-.3-2.9-2.1-4.1-2.6-.7-.3-2-1-3-1.5-2.6-1.5-3.9-1.6-5.1-.6-1.1.9-1.2,1.9-.7,4,.2.9.5,1.6.7,1.9.2.3.4.7.4.8,0,.3.5,1,1.2,1.8.2.2.5.6.6.8.2.2.5.6.7.9.2.3.5.6.7.9.2.2.9,1.1,1.6,1.9.7.8,1.5,1.7,1.7,2,.2.3.7.8.9,1.1.5.5.5.6.5,1.3,0,.4,0,1.1,0,1.6,0,1.3,0,1.9,0,3.3,0,.7,0,1.7,0,2.2,0,.5,0,1.2,0,1.5,0,.3,0,.8,0,1s0,.6,0,.8c0,.2-.1.5,0,.6s0,.4,0,.6c0,.1-.1.4,0,.6,0,.3.1.3.7,0,.4-.2,2.2-.7,4.2-1.2,3.8-1,4-1,4.2-.4s.4.6.7,1,.9,1,1.1,1.3c.3.3.7.8,1,1.1s.5.6.5.7c0,.1.2.3.3.4s.3.2.3.3.6.8,1.3,1.6,1.8,2.1,2.6,3c.8.9,2.1,2.5,3,3.5.9,1.1,1.7,2,1.7,2s.6.7,1.2,1.5,1.7,2.1,2.4,2.9c1.8,2.3,2,2.6,2.2,2.5.3,0,.2-.5-.1-1.1-1-1.7-2.1-3.7-2.8-5.3-.2-.4-.5-1-.6-1.2-.1-.2-.5-1-.8-1.7s-.8-1.8-1.1-2.3c-.3-.5-.7-1.5-1-2.2-.6-1.3-1-2.2-2-4.1-.3-.5-.5-1.1-.6-1.4,0-.4-.3-.9-1.7-3.5-.4-.7-.7-1.4-.7-1.6,0-.2.2-.3,1.4-.7,2.4-.8,4.1-1.4,4.3-1.5.3-.2,0-.5-.8-.9h0ZM375.1,560.5c-1.2.4-2.2.7-2.3.8s0,.4.3.9c.8,1.7,1.7,3.6,2.2,4.7.3.7.8,1.7,1,2.2.3.5.6,1.3.8,1.7.2.4.4.8.5.9.1.1.2.3.3.5s.3.6.6,1c.6.9.7,1.2.5,1.6-.1.3-.2.3-.6-.3-.3-.3-.5-.6-.5-.7s-.3-.5-.7-.9c-.3-.4-.7-.9-.8-1.1s-.9-1.1-1.7-2.1c-.8-.9-1.5-1.8-1.5-1.9s-.3-.4-.6-.7-.6-.6-.7-.7c-.5-.7-1-1.3-1.2-1.3,0,0-.2-.1-.2-.2s-.5-.8-1.1-1.5l-1.1-1.3-3.6,1c-2,.5-3.6,1-3.6.9,0,0,0-.5,0-.9,0-.4,0-1.2,0-1.7,0-.5,0-1.2,0-1.5s0-1,0-1.5,0-1.1,0-1.3c0-.2,0-1,0-1.8,0-.7,0-1.6,0-1.9,0-.5,0-.6-.6-1.4-.4-.4-.7-.9-.7-.9s-.6-.8-1.3-1.6c-1.9-2.3-2.9-3.4-3.6-4.4-.4-.5-.8-.9-.8-1,0,0-.2-.3-.3-.5s-.2-.6-.4-.8c-.7-.9-1.2-1.9-1.5-3s-.3-1.1,0-1.6c.1-.3.4-.6.5-.6.4,0,2.1.7,3.2,1.4.8.6,1.9,1.5,2.5,2.4,0,.1.2.3.3.4.5.6,1,1.4,2.5,4,.2.4.6.9.7,1.1.2.2.3.5.4.6s.4.7.9,1.4c.9,1.2,1.3,1.5,1.7,1.1.2-.2.2-.3,0-.7-.5-1.1-1.6-2.5-2.4-3.1-.2-.1-.5-.6-.7-1-.4-.9-1-1.9-1.6-2.9-.6-.9-.7-1.5-.5-1.6.2,0,2.1,1.4,2.6,2,.1.2.4.5.6.7,1,1,2.5,3,3.6,5.1.7,1.2,1.6,3.4,1.8,4s.3.8,1,1.3c.5.4,1,.8,1.2.8s.8.5,1.3.9c.5.4,1.2.8,1.4,1,.2.1.9.6,1.4.9.5.4,1.2.9,1.6,1,1.1.6,1,.7-1.5,1.4h0Z"/>
        <path class="cls-7" d="M360,546.6c-.3-.3-.8-.9-1.1-1.4-.9-1.4-2.3-2.6-2.7-2.4-.4.3.6,2.1,1.6,3.1.3.3.6.5.6.6s.1.1.3.2c.1,0,.5.4.9.7.4.3.8.6.9.5.3,0,0-.8-.6-1.4Z"/>
        <path class="cls-8" d="M380.3,559.4c-.8-.4-2-1.3-3.8-2.6-.4-.3-.9-.6-1-.7-.1,0-.6-.4-.9-.7-.4-.3-1-.7-1.4-1-.4-.3-.9-.6-1.1-.8-.2-.2-.6-.4-.9-.6-.3-.2-.5-.5-.7-1-.3-1-1.2-2.8-1.9-4.1-.3-.6-.7-1.3-.8-1.5s-.4-.6-.5-.8c-.2-.2-.4-.5-.6-.8-.8-1-2.4-2.8-2.6-2.9-.1,0-.3-.2-.3-.3,0-.3-2.9-2.1-4.1-2.6-.7-.3-2-1-3-1.5-2.6-1.5-3.9-1.6-5.1-.6-1.1.9-1.2,1.9-.7,4,.2.9.5,1.6.7,1.9.2.3.4.7.4.8,0,.3.5,1,1.2,1.8.2.2.5.6.6.8.2.2.5.6.7.9.2.3.5.6.7.9.2.2.9,1.1,1.6,1.9.7.8,1.5,1.7,1.7,2,.2.3.7.8.9,1.1.5.5.5.6.5,1.3,0,.4,0,1.1,0,1.6,0,1.3,0,1.9,0,3.3,0,.7,0,1.7,0,2.2,0,.5,0,1.2,0,1.5,0,.3,0,.8,0,1s0,.6,0,.8c0,.2-.1.5,0,.6s0,.4,0,.6c0,.1-.1.4,0,.6,0,.3.1.3.7,0,.4-.2,2.2-.7,4.2-1.2,3.8-1,4-1,4.2-.4s.4.6.7,1,.9,1,1.1,1.3c.3.3.7.8,1,1.1s.5.6.5.7c0,.1.2.3.3.4s.3.2.3.3.6.8,1.3,1.6,1.8,2.1,2.6,3c.8.9,2.1,2.5,3,3.5.9,1.1,1.7,2,1.7,2s.6.7,1.2,1.5,1.7,2.1,2.4,2.9c1.8,2.3,2,2.6,2.2,2.5.3,0,.2-.5-.1-1.1-1-1.7-2.1-3.7-2.8-5.3-.2-.4-.5-1-.6-1.2-.1-.2-.5-1-.8-1.7s-.8-1.8-1.1-2.3c-.3-.5-.7-1.5-1-2.2-.6-1.3-1-2.2-2-4.1-.3-.5-.5-1.1-.6-1.4,0-.4-.3-.9-1.7-3.5-.4-.7-.7-1.4-.7-1.6,0-.2.2-.3,1.4-.7,2.4-.8,4.1-1.4,4.3-1.5.3-.2,0-.5-.8-.9h0ZM375.1,560.5c-1.2.4-2.2.7-2.3.8s0,.4.3.9c.8,1.7,1.7,3.6,2.2,4.7.3.7.8,1.7,1,2.2.3.5.6,1.3.8,1.7.2.4.4.8.5.9.1.1.2.3.3.5s.3.6.6,1c.6.9.7,1.2.5,1.6-.1.3-.2.3-.6-.3-.3-.3-.5-.6-.5-.7s-.3-.5-.7-.9c-.3-.4-.7-.9-.8-1.1s-.9-1.1-1.7-2.1c-.8-.9-1.5-1.8-1.5-1.9s-.3-.4-.6-.7-.6-.6-.7-.7c-.5-.7-1-1.3-1.2-1.3,0,0-.2-.1-.2-.2s-.5-.8-1.1-1.5l-1.1-1.3-3.6,1c-2,.5-3.6,1-3.6.9,0,0,0-.5,0-.9,0-.4,0-1.2,0-1.7,0-.5,0-1.2,0-1.5s0-1,0-1.5,0-1.1,0-1.3c0-.2,0-1,0-1.8,0-.7,0-1.6,0-1.9,0-.5,0-.6-.6-1.4-.4-.4-.7-.9-.7-.9s-.6-.8-1.3-1.6c-1.9-2.3-2.9-3.4-3.6-4.4-.4-.5-.8-.9-.8-1,0,0-.2-.3-.3-.5s-.2-.6-.4-.8c-.7-.9-1.2-1.9-1.5-3s-.3-1.1,0-1.6c.1-.3.4-.6.5-.6.4,0,2.1.7,3.2,1.4.8.6,1.9,1.5,2.5,2.4,0,.1.2.3.3.4.5.6,1,1.4,2.5,4,.2.4.6.9.7,1.1.2.2.3.5.4.6s.4.7.9,1.4c.9,1.2,1.3,1.5,1.7,1.1.2-.2.2-.3,0-.7-.5-1.1-1.6-2.5-2.4-3.1-.2-.1-.5-.6-.7-1-.4-.9-1-1.9-1.6-2.9-.6-.9-.7-1.5-.5-1.6.2,0,2.1,1.4,2.6,2,.1.2.4.5.6.7,1,1,2.5,3,3.6,5.1.7,1.2,1.6,3.4,1.8,4s.3.8,1,1.3c.5.4,1,.8,1.2.8s.8.5,1.3.9c.5.4,1.2.8,1.4,1,.2.1.9.6,1.4.9.5.4,1.2.9,1.6,1,1.1.6,1,.7-1.5,1.4h0Z"/>
        <path class="cls-8" d="M360,546.6c-.3-.3-.8-.9-1.1-1.4-.9-1.4-2.3-2.6-2.7-2.4-.4.3.6,2.1,1.6,3.1.3.3.6.5.6.6s.1.1.3.2c.1,0,.5.4.9.7.4.3.8.6.9.5.3,0,0-.8-.6-1.4Z"/>
      </g>
      <g>
        <polygon class="cls-8" points="143.2 540 143.2 545.7 144.6 545.7 144.6 541.5 152.5 545.8 152.5 540 151.1 540 151.1 543.5 144.7 540 143.2 540"/>
        <rect class="cls-8" x="136.8" y="540" width="1.5" height="5.6"/>
        <path class="cls-8" d="M123.8,540v5.6h1.5v-.9s0-.9,0-.9h2.7c2.8,0,2.8,0,3.1,0,.4,0,.7-.2.9-.4.2-.1.4-.3.5-.5,0,0,.1-.2.1-.2s0,0,0,0c0,0,0-.2,0-.3,0-.4,0-.8,0-1.1,0-.2-.2-.4-.4-.6-.1-.1-.3-.3-.5-.3,0,0-.4-.2-.5-.2,0,0-.1,0-.2,0-.4,0-.1,0-3.9,0h-3.5ZM125.3,541h2.5c2.1,0,2.5,0,2.6,0,.5,0,.7.3.7.8,0,.2,0,.3,0,.4-.1.2-.4.4-.7.4,0,0-.4,0-2.6,0-1.3,0-2.5,0-2.5,0,0,0,0-.4,0-.9v-.9Z"/>
        <path class="cls-8" d="M104.7,539.8l-5.3,5.8h1.8l.9-1.1h5.2l.9,1.1h1.8l-5.3-5.8ZM104.7,541.7l1.7,1.9h-3.4l1.7-1.9Z"/>
        <path class="cls-8" d="M157.3,540v5.6h7.6l.3-1h-6.4v-1.3h6.2v-1h-6.2v-1.3h6.2v-1h-7.7ZM113.3,540v5.6h6.9s.4-1,.4-1h-5.8v-4.6h-1.5Z"/>
      </g>
      <g>
        <path class="cls-8" d="M103.4,554.9l2.6-2.2,2.6,2.2,1.5-1.3-4-3.5-4,3.5,1.5,1.3Z"/>
        <path class="cls-8" d="M99.3,555.8l1.5-1.3,1.5,1.3-1.5,1.3-1.5-1.3Z"/>
        <path class="cls-8" d="M103.4,556.8l2.6,2.2,2.6-2.2,1.5,1.3h0s-4,3.5-4,3.5l-4-3.5h0s1.5-1.3,1.5-1.3Z"/>
        <path class="cls-8" d="M109.5,555.8l1.5-1.3,1.5,1.3-1.5,1.3-1.5-1.3Z"/>
        <path class="cls-8" d="M107.4,555.8l-1.5-1.3-1.1,1h-.1c0,.1-.3.3-.3.3h0s0,0,0,0l1.5,1.3,1.5-1.3h0s0,0,0,0Z"/>
        <g>
          <path class="cls-8" d="M114.8,552.9h3.2c.8,0,1.4.2,1.8.5.3.3.5.6.5,1h0c0,.2,0,.3,0,.5,0,.1-.1.2-.2.4,0,.1-.2.2-.3.3-.1,0-.2.2-.4.2.4.1.7.3,1,.5.2.2.3.5.3.9h0c0,.3,0,.5-.2.7-.1.2-.3.4-.5.5-.3.1-.5.3-.8.3-.4,0-.7.1-1.1.1h-3.3v-6.1ZM117.8,555.3c.3,0,.6,0,.8-.2.2-.1.3-.3.3-.5h0c0-.2,0-.4-.3-.5-.2-.1-.4-.2-.7-.2h-1.5v1.3h1.4ZM118.2,557.8c.3,0,.6,0,.8-.2.2-.1.3-.3.3-.5h0c0-.2,0-.4-.3-.5-.2-.1-.5-.2-.9-.2h-1.8v1.3h1.8Z"/>
          <path class="cls-8" d="M122.7,552.9h1.5v6.1h-1.5v-6.1Z"/>
          <path class="cls-8" d="M126.6,552.9h1.4l3.3,3.7v-3.7h1.5v6.1h-1.3l-3.4-3.9v3.9h-1.5v-6.1Z"/>
          <path class="cls-8" d="M137.4,552.8h1.4l3,6.1h-1.6l-.6-1.4h-3l-.6,1.4h-1.6l3-6.1ZM139.1,556.4l-.9-2-.9,2h1.9Z"/>
          <path class="cls-8" d="M143.5,552.9h1.4l3.3,3.7v-3.7h1.5v6.1h-1.3l-3.4-3.9v3.9h-1.5v-6.1Z"/>
          <path class="cls-8" d="M155.2,559.1c-.5,0-1,0-1.4-.2-.9-.3-1.5-.9-1.9-1.7-.2-.4-.3-.8-.3-1.2h0c0-.8.4-1.6,1-2.2.3-.3.7-.5,1.1-.7.5-.2,1-.3,1.5-.2.3,0,.6,0,.9,0,.3,0,.5.1.7.2.2,0,.4.2.6.3.2.1.4.2.5.4l-1,1c-.2-.2-.5-.4-.8-.5-.3-.1-.6-.2-1-.2-.6,0-1.1.2-1.5.6-.2.2-.3.4-.4.6-.1.2-.2.5-.1.7h0c0,.3,0,.5.1.7,0,.2.2.4.4.6.4.4.9.6,1.5.6.4,0,.7,0,1-.2.3-.1.6-.3.8-.5l1,.9c-.2.2-.4.3-.6.5-.2.1-.4.2-.6.3-.2,0-.5.2-.8.2-.3,0-.6,0-.9,0Z"/>
          <path class="cls-8" d="M159.9,552.9h5.3v1.2h-3.7v1.2h3.3v1.2h-3.3v1.3h3.8v1.2h-5.3v-6.1Z"/>
        </g>
      </g>
      <path class="cls-8" d="M269.8,538.2l4.2-12.8h-4.3l-16.4,12.8h-6.6l1.7-5.5-10.7,8.2h11.9l-5.7,4.4h5.4l5.7-4.4h9.7l-1.5,4.4h4.4l1.5-4.4h4.9l3.3-2.6h0c0-.1-7.4-.1-7.4-.1ZM265.5,538.2h-7l9.3-7.1-2.3,7.1Z"/>
      <g>
        <path class="cls-8" d="M94.4,518.8l.8,2.8h-.5c0,.1-.6-2.1-.6-2.1h0s-.3,2.5-.3,2.5h-.3c0,0-1.5-1.9-1.5-1.9h0s.6,2.2.6,2.2h-.5c0,.1-.8-2.7-.8-2.7l.7-.2,1.4,1.9h0s.3-2.3.3-2.3c0,0,.7-.2.7-.2ZM94.8,518.9c0,0,0-.2,0-.2,0,0,.1-.1.2-.1s.2,0,.2,0,.1,0,.1.2,0,.2,0,.2c0,0-.1.1-.2.1s-.2,0-.2,0c0,0-.1-.1-.1-.2ZM95.5,519.3l.5,2h-.5c0,.1-.5-1.9-.5-1.9,0,0,.5-.1.5-.1ZM97.4,520.7c0,0,.1,0,.2-.1,0,0,.1-.1.2-.2v.4c0,0,0,.1-.1.2s-.2,0-.3.1c-.3,0-.6,0-.8,0-.2-.1-.4-.4-.5-.6s0-.6,0-.9.4-.4.7-.5.2,0,.3,0c0,0,.2,0,.2,0v.5s0,0-.1,0c0,0-.2,0-.2,0-.2,0-.3.1-.4.3s0,.3,0,.5.2.4.3.4c.1,0,.3.1.5,0ZM98.8,518.4s0,0,.1,0,0,0,0,0v.5c0,0,0,0,0,0s-.1,0-.2,0c-.1,0-.2.1-.3.2s0,.3,0,.5l.3,1h-.5c0,.1-.5-1.9-.5-1.9h.5c0-.1,0,.2,0,.2h0c0-.1,0-.2.1-.3,0,0,.2-.1.3-.2ZM99.3,519.5c0-.3,0-.6,0-.9.1-.2.4-.4.7-.5s.6,0,.8,0c.2.1.4.4.5.7s0,.6,0,.9c-.1.2-.4.4-.7.5s-.6,0-.8,0c-.2-.1-.4-.4-.5-.7ZM99.8,519.3c0,.2.1.4.3.4s.3.1.5,0,.3-.1.4-.3c0-.1,0-.3,0-.5s-.1-.4-.3-.5c-.1,0-.3-.1-.4,0s-.3.1-.4.3c0,.2,0,.3,0,.5ZM102,518.2c0,0,0,.1.1.1s.2,0,.3,0c.2,0,.4,0,.5.2.1,0,.2.2.2.3s0,.4-.1.5c-.1.2-.3.3-.6.3s-.2,0-.3,0-.2,0-.3,0v-.5s0,0,.2,0,.2,0,.3,0,.2,0,.2-.1c0,0,0,0,0-.2s0-.1-.1-.2c0,0-.2,0-.3,0-.2,0-.3,0-.4-.2s-.2-.2-.2-.3,0-.4,0-.5.3-.3.5-.3.2,0,.2,0,.2,0,.2,0v.5s0,0-.1,0-.2,0-.3,0-.2,0-.2.1c0,0,0,.1,0,.2ZM103.2,518.5c0-.3,0-.6,0-.9.1-.2.4-.4.7-.5s.6,0,.8,0c.2.1.4.4.5.7s0,.6,0,.9c-.1.2-.4.4-.7.5s-.6,0-.8,0c-.2-.1-.4-.4-.5-.7ZM103.7,518.3c0,.2.1.4.3.4s.3.1.5,0,.3-.1.4-.3c0-.1,0-.3,0-.5s-.1-.4-.3-.5c-.1,0-.3-.1-.4,0s-.3.1-.4.3c0,.2,0,.3,0,.5ZM106.7,516.8l-.7.2.4,1.6h-.5c0,.1-.4-1.5-.4-1.5h-.3c0,0-.1-.3-.1-.3h.3c0,0,0-.4,0-.4,0-.2,0-.4,0-.6s.3-.3.5-.3.1,0,.2,0,0,0,.1,0v.4c0,0,0,0,0,0,0,0,0,0-.1,0,0,0-.2,0-.2.2s0,.2,0,.3v.2c0,0,.8-.2.8-.2v-.5c-.1,0,.3-.3.3-.3l.2.6h.5c0-.1.1.3.1.3h-.5c0,.1.3,1.1.3,1.1,0,.1,0,.2.1.2,0,0,.1,0,.2,0s0,0,0,0,0,0,0,0v.4c0,0,0,0,0,0,0,0-.1,0-.2,0-.2,0-.4,0-.5,0-.1,0-.2-.2-.3-.4l-.3-1h0Z"/>
        <rect class="cls-8" x="85.1" y="519.9" width="2.3" height="2.3" transform="translate(-130 39.2) rotate(-14.8)"/>
        <rect class="cls-8" x="87.6" y="519.3" width="2.3" height="2.3" transform="translate(-129.8 39.9) rotate(-14.8)"/>
        <rect class="cls-8" x="85.8" y="522.4" width="2.3" height="2.3" transform="translate(-130.7 39.5) rotate(-14.8)"/>
        <rect class="cls-8" x="88.3" y="521.8" width="2.3" height="2.3" transform="translate(-130.4 40.1) rotate(-14.8)"/>
      </g>
      <g>
        <path class="cls-8" d="M305.6,516.2l-.5,2.9h-.5c0,0,.4-2.4.4-2.4h0s-1.3,2.1-1.3,2.1h-.3c0,0-.5-2.5-.5-2.5h0s-.4,2.3-.4,2.3h-.5c0,0,.5-3,.5-3h.7c0,.1.4,2.4.4,2.4h0s1.3-2,1.3-2c0,0,.7.1.7.1ZM306,516.5c0,0,0-.1.1-.2,0,0,.1,0,.2,0s.2,0,.2.1,0,.1,0,.2,0,.1-.1.2c0,0-.1,0-.2,0s-.1,0-.2-.1c0,0,0-.1,0-.2ZM306.5,517.2l-.4,2.1h-.5c0,0,.4-2.2.4-2.2,0,0,.5,0,.5,0ZM307.6,519.2c0,0,.2,0,.3,0,0,0,.2,0,.3,0v.5c-.2,0-.3,0-.4,0s-.2,0-.3,0c-.3,0-.5-.2-.7-.4-.2-.2-.2-.5-.1-.8s.2-.6.5-.8.5-.2.9-.2.2,0,.3,0c0,0,.2,0,.2.1v.5c-.2,0-.2-.1-.3-.2,0,0-.2,0-.2,0-.2,0-.4,0-.5,0s-.2.3-.3.5,0,.4,0,.5c0,.1.2.2.4.3ZM309.8,517.8s0,0,.1,0,0,0,0,0v.5c-.1,0-.1,0-.2,0s-.1,0-.2,0c-.1,0-.2,0-.3,0s-.2.2-.2.4l-.2,1h-.5c0,0,.4-2.2.4-2.2h.5c0,0,0,.4,0,.4h0c0-.1.2-.2.3-.2.1,0,.2,0,.3,0ZM309.8,518.9c0-.3.2-.6.4-.8.2-.2.5-.2.9-.1s.6.2.7.4c.1.2.2.5.1.8s-.2.6-.4.7c-.2.2-.5.2-.8.2s-.6-.2-.7-.4c-.2-.2-.2-.5-.1-.8ZM310.3,519c0,.2,0,.4,0,.5s.2.2.4.3.3,0,.4,0c.1,0,.2-.3.2-.5s0-.4,0-.5c0-.1-.2-.2-.4-.3s-.3,0-.4.1c-.1.1-.2.3-.3.5ZM312.8,518.9c0,0,0,.1,0,.2s.1.1.3.2c.2.1.3.2.4.3,0,.1,0,.2,0,.4s-.1.3-.3.4c-.2,0-.4.1-.6,0s-.2,0-.3,0-.2,0-.3-.1v-.5c.2,0,.3.1.4.2s.2,0,.3.1.2,0,.2,0c0,0,0,0,.1-.1s0-.1,0-.2c0,0-.1-.1-.3-.2-.2-.1-.3-.2-.3-.3s0-.2,0-.4.1-.3.3-.4.4-.1.6,0,.2,0,.2,0,.2,0,.2.1v.5c-.1,0-.2-.1-.3-.2s-.2,0-.2,0-.2,0-.2,0c0,0,0,0-.1.1ZM313.8,519.7c0-.3.2-.6.4-.8.2-.2.5-.2.9-.1s.6.2.7.4c.1.2.2.5.1.8s-.2.6-.4.7c-.2.2-.5.2-.8.2s-.6-.2-.7-.4c-.1-.2-.2-.5-.1-.8ZM314.3,519.7c0,.2,0,.4,0,.5s.2.2.4.3.3,0,.4,0c.1,0,.2-.3.2-.5s0-.4,0-.5c0-.1-.2-.2-.4-.3s-.3,0-.4.1c-.1.1-.2.3-.3.5ZM317.6,519.7h-.7c0-.1-.3,1.5-.3,1.5h-.5c0,0,.3-1.8.3-1.8h-.3c0,0,0-.5,0-.5h.3c0,0,0-.2,0-.2,0-.2.1-.4.3-.5s.4-.1.6-.1.1,0,.2,0,0,0,.1,0v.4c0,0-.1,0-.2,0,0,0,0,0-.1,0-.1,0-.2,0-.3,0s-.1.1-.1.3v.2s.7.1.7.1v-.5c0,0,.6,0,.6,0v.6c-.1,0,.4,0,.4,0v.4c0,0-.6,0-.6,0l-.2,1c0,.1,0,.2,0,.3,0,0,.1.1.2.1s0,0,.1,0,0,0,.1,0v.4c-.1,0-.2,0-.2,0,0,0-.1,0-.2,0-.2,0-.4-.1-.4-.2,0-.1-.1-.3,0-.5l.2-1.1h0Z"/>
        <rect class="cls-8" x="296.2" y="513.6" width="2.3" height="2.3" transform="translate(-263.7 711.3) rotate(-79.3)"/>
        <rect class="cls-8" x="298.7" y="514.1" width="2.3" height="2.3" transform="translate(-262.1 714.1) rotate(-79.3)"/>
        <rect class="cls-8" x="295.7" y="516.1" width="2.3" height="2.3" transform="translate(-266.6 712.9) rotate(-79.3)"/>
        <rect class="cls-8" x="298.2" y="516.6" width="2.3" height="2.3" transform="translate(-265 715.7) rotate(-79.3)"/>
      </g>
      <path class="cls-1" d="M268.9,493.2c-.1.5-.2,1-.2,1.4,0,1.2,1,1.4,1.9,1.4h2l-.9,3.3h-4.1c-1.3,0-2.3-.1-2.9-.3-1.4-.5-2.2-1.7-2.2-3.4s.2-1.6.3-2.4c.2-1,5.8-19.6,5.8-19.6l6.3-1.1c0-.1-6,19.8-6.1,20.7h0ZM234.4,478.3h-4.4l1.7-5.9-6.3,1-1.4,5h-2.1l-1,3.3h2.1s-3.4,11.5-3.6,12.4c-.2.6-.3,1.4-.3,2,0,1.5,1.1,2.6,2.5,3,.5.2,1.4.2,2.5.2h4.4l1-3.3h-2.2c-1,0-1.9-.1-1.9-1.2s.1-.6.1-1c.1-.5,3.6-12.2,3.6-12.2h4.4l1.1-3.3ZM220.3,478.2c-1.5-.4-3.2-.6-4.8-.6-4.6,0-9.5,2.3-9.6,7.2,0,4.4,5.7,5.9,5.7,8.4s-1.9,2.8-3.8,2.8-3.1-.2-4.6-.6l-1,3.4c1.9.6,4.3.8,6.3.8,4.7,0,9-2.5,9.1-7.3,0-4.7-5.3-5.7-5.3-8.4s2.2-2.7,4.1-2.7,2,.1,3,.3l1.1-3.3ZM187.2,477.2c0-3.8-2.8-5.1-6.4-5.1s-6.8,1.6-9.3,4.3c-3.3,3.7-6.1,11.6-6.1,16.4s2.2,7.5,7.7,7.5,9.4-5.8,11.2-11.5l-6.5,1.2c-.5,1.6-1.8,6.3-4.2,6.3s-1.7-1.2-1.7-2.3c0-3.2,2-9.4,3.3-12.4.6-1.6,2.3-5.3,4.6-5.3s.9.3,1.1.5c.2.3.3.6.3,1.1s0,.7-.1,1c-.1.8-1.4,4.8-1.4,4.8l6.3-1c.4-1.8,1.2-3.8,1.2-5.5h0ZM248.1,478.2c-1-.5-2.5-.6-3.7-.6-2.6,0-5.7.4-7.9,1.5l-6,20.1h6l5.1-17.5c.9-.3,1.8-.4,2.7-.4s1.2,0,1.6.1l2.2-3.2ZM203.6,485.9l-3.8,12.9c-2.7.7-5.4,1-8.2,1s-7-1.6-7-5.3c0-6.5,7.5-8.3,13-8.8.3-.8.5-1.7.5-2.6,0-1.5-1.4-1.8-2.7-1.8-1.8,0-4.4.5-6.1,1l1-3.5c1.9-.8,4.7-1.1,6.8-1.1,3.3,0,6.9,1,6.9,4.8.1,1.1-.1,2.2-.4,3.4h0ZM190.8,493.8c0,1.3.6,2.3,2.1,2.3s1.1,0,1.7-.1l2-6.9c-2.9.3-5.9,1.6-5.9,4.7h0ZM261.1,490.7c-1.9,5-5.1,9.1-11.3,9.1s-6.7-2-6.7-6.1.5-3.8,1.1-5.5c1.7-4.8,5.6-10.5,11.6-10.5s6.7,2.2,6.7,6.4c.1,2-.6,4.6-1.4,6.6h0ZM255.5,481.3c-.6,0-1.1.3-1.6.7-1.6,1.4-3.4,5.8-4.3,9.2-.4,1.6-.6,2.5-.6,3.5s.4,1.4,1.2,1.4,1.3-.4,1.7-.8c.9-.8,1.4-1.9,2-3.4,1.5-3.4,2.7-7.8,2.7-9.2.1-.7-.2-1.4-1.1-1.4h0Z"/>
      <path class="cls-10" d="M142.7,484.5c.2,0,.4.2.4.4s-.2.4-.4.4h-1.1c-.2,0-.4-.2-.4-.4s.2-.4.4-.4h1.1ZM140.6,483.5h.6c.1,0,.3.1.3.3s-.1.3-.3.3h-.6c-.1,0-.3-.1-.3-.3s.1-.3.3-.3ZM138.5,484.6h.6c.1,0,.3.1.3.3s-.1.3-.3.3h-.6c-.1,0-.3-.1-.3-.3.1-.2.2-.3.3-.3ZM137.3,483.5h.6c.1,0,.3.1.3.3s-.1.3-.3.3h-.6c-.1,0-.3-.1-.3-.3.1-.2.2-.3.3-.3ZM136.5,488.4h-.6c-.1,0-.3-.1-.3-.3s.1-.2.3-.2h.6c.1,0,.2.1.2.2.1.2,0,.3-.2.3ZM137.3,486.2h-.6c-.1,0-.3-.1-.3-.2s.1-.2.3-.2h.6c.1,0,.3.1.3.2s-.2.2-.3.2ZM138.5,487.3h-.6c-.1,0-.2-.1-.2-.2s.1-.3.2-.3h.6c.1,0,.3.1.3.3-.1.1-.2.2-.3.2ZM139.8,488.4h-.6c-.1,0-.2-.1-.2-.3s.1-.2.2-.2h.6c.1,0,.3.1.3.2-.1.2-.2.3-.3.3ZM139.8,486.2c-.1,0-.2-.1-.2-.2s.1-.2.2-.2h.6c.1,0,.2.1.2.2s-.1.2-.2.2h-.6ZM141,487.4c-.2,0-.4-.2-.4-.4s.2-.4.4-.4h1.1c.2,0,.4.2.4.4s-.2.4-.4.4h-1.1Z"/>
      <path class="cls-9" d="M149.4,484.1h.7c.2,0,.3-.1.3-.3s-.1-.3-.3-.3h-.7c-.2,0-.3.1-.3.3s.2.3.3.3ZM147,485.2h1.2c.2,0,.4-.2.4-.4s-.2-.4-.4-.4h-1.2c-.2,0-.4.2-.4.4,0,.3.2.4.4.4ZM147.9,487c0-.2-.2-.4-.4-.4h-1.2c-.2,0-.4.2-.4.4s.2.4.4.4h1.2c.2,0,.4-.1.4-.4ZM145.5,486.5c.3,0,.5-.2.5-.5s-.2-.6-.5-.6h-.9l-.3,1.1h1.2ZM150.9,485.1h.7c.2,0,.3-.1.3-.3s-.1-.3-.3-.3h-.7c-.2,0-.3.1-.3.3s.2.3.3.3ZM148.8,487.8h-.7c-.2,0-.3.1-.3.3s.1.3.3.3h.7c.2,0,.3-.1.3-.3s-.1-.3-.3-.3ZM153.2,485.6h-.7c-.2,0-.3.1-.3.3s.1.3.3.3h.7c.2,0,.3-.1.3-.3s-.1-.3-.3-.3ZM149.5,485.6h-.7c-.2,0-.3.1-.3.3s.1.3.3.3h.7c.2,0,.3-.1.3-.3s-.2-.3-.3-.3ZM153.8,483.5h-.7c-.2,0-.3.1-.3.3s.1.3.3.3h.7c.2,0,.3-.1.3-.3s-.1-.3-.3-.3ZM151,486.7h-.7c-.2,0-.3.1-.3.3s.1.3.3.3h.7c.2,0,.3-.1.3-.3s-.2-.3-.3-.3ZM152.4,487.8h-.7c-.2,0-.3.1-.3.3s.1.3.3.3h.7c.2,0,.3-.1.3-.3s-.1-.3-.3-.3Z"/>
      <g>
        <path class="cls-1" d="M138.5,485.1h.6c.1,0,.3-.1.3-.3s-.1-.3-.3-.3h-.6c-.1,0-.3.1-.3.3.1.2.2.3.3.3ZM140.6,484h.6c.1,0,.3-.1.3-.3s-.1-.3-.3-.3h-.6c-.1,0-.3.1-.3.3s.1.3.3.3ZM145.3,483.2h-1.1c-.3,0-.5.2-.5.5s.2.5.5.5h.9l.2-1ZM141.3,484.8c0,.2.2.4.4.4h1.1c.2,0,.4-.2.4-.4s-.2-.4-.4-.4h-1.1c-.3.1-.4.2-.4.4h0ZM142.2,488.1c0,.3.2.5.5.5h.9l.3-1.1h-1.2c-.2.1-.5.3-.5.6h0ZM142.9,485.9c0,.3.2.6.5.6h.7l.3-1.1h-1.2c-.1,0-.4.2-.4.5ZM139.8,487.9h-.6c-.1,0-.2.1-.2.2s.1.3.2.3h.6c.1,0,.3-.1.3-.3-.1-.1-.2-.2-.3-.2ZM140.8,486c0-.1-.1-.2-.2-.2h-.6c-.1,0-.2.1-.2.2s.1.2.2.2h.6c.1,0,.2-.1.2-.2ZM142.4,487c0-.2-.2-.4-.4-.4h-1.1c-.2,0-.4.2-.4.4s.2.4.4.4h1.1c.3,0,.4-.2.4-.4ZM137.3,484h.6c.1,0,.3-.1.3-.3s-.1-.3-.3-.3h-.6c-.1,0-.3.1-.3.3.1.2.2.3.3.3Z"/>
        <path class="cls-1" d="M162.4,483.2h-16c.2.1.4.3.4.5,0,.3-.2.5-.5.5h-1.2l-.3,1.1h.7c.3,0,.5.3.5.6s-.2.5-.5.5h-1.2l-.3,1.1h.9c.3,0,.5.2.5.5s-.2.5-.5.6h17.6c.1-.8.2-1.5.2-2.3s-.1-2.1-.3-3.1h0ZM150.9,484.5h.7c.2,0,.3.1.3.3s-.1.3-.3.3h-.7c-.2,0-.3-.1-.3-.3s.2-.3.3-.3ZM149.4,483.5h.7c.2,0,.3.1.3.3s-.1.3-.3.3h-.7c-.2,0-.3-.1-.3-.3s.2-.3.3-.3ZM147,484.4h1.2c.2,0,.4.2.4.4s-.2.4-.4.4h-1.2c-.2,0-.4-.2-.4-.4s.2-.4.4-.4ZM146.3,487.4c-.2,0-.4-.2-.4-.4s.2-.4.4-.4h1.2c.2,0,.4.2.4.4s-.2.4-.4.4h-1.2ZM148.8,488.4h-.7c-.2,0-.3-.1-.3-.3s.1-.3.3-.3h.7c.2,0,.3.1.3.3s-.1.3-.3.3ZM149.5,486.2h-.7c-.2,0-.3-.1-.3-.3s.1-.3.3-.3h.7c.2,0,.3.1.3.3s-.2.3-.3.3ZM151,487.3h-.7c-.2,0-.3-.1-.3-.3s.1-.3.3-.3h.7c.2,0,.3.1.3.3s-.2.3-.3.3ZM152.4,488.4h-.7c-.2,0-.3-.1-.3-.3s.1-.3.3-.3h.7c.2,0,.3.1.3.3s-.1.3-.3.3ZM153.2,486.2h-.7c-.2,0-.3-.1-.3-.3s.1-.3.3-.3h.7c.2,0,.3.1.3.3s-.1.3-.3.3ZM153.8,484.1h-.7c-.2,0-.3-.1-.3-.3s.1-.3.3-.3h.7c.2,0,.3.1.3.3s-.1.3-.3.3ZM136.5,487.9h-.6c-.1,0-.3.1-.3.2s.1.3.3.3h.6c.1,0,.2-.1.2-.3.1-.1,0-.2-.2-.2ZM138.5,486.8h-.6c-.1,0-.2.1-.2.3s.1.2.2.2h.6c.1,0,.3-.1.3-.2-.1-.2-.2-.3-.3-.3ZM137.3,485.7h-.6c-.1,0-.3.1-.3.2s.1.2.3.2h.6c.1,0,.3-.1.3-.2s-.2-.2-.3-.2Z"/>
      </g>
      <path class="cls-11" d="M146.2,470.8c-2,0-4,.3-5.7.9l-2.7,9h23.8c-2.5-5.7-8.4-9.9-15.5-9.9ZM136.7,491c-1.1,0-1.9-.1-2.6-.4-1-.4-1.7-1.3-1.7-2.7s.3-2.2.7-3.6l3.2-10.3c-4.1,2.8-6.7,7.3-6.7,12.4,0,8.5,7.4,15.4,16.4,15.4s13.7-4.5,15.7-10.8h-25.1Z"/>
      <g>
        <path class="cls-8" d="M254.9,552.5c-.4,0-.8.1-1.1.3-.4.2-.7.5-.9.9-.4.6-.4,1.1-.2,1.5.1.3.5.5.8.5.6,0,1.1-.5,1.7-1.4.4-.7.5-1.2.3-1.6-.1-.2-.3-.3-.6-.3M255.3,552.8c.1.3,0,.7-.4,1.3-.6,1-1.1,1.5-1.5,1.5-.1,0-.2,0-.3-.2-.1-.2,0-.7.4-1.3.6-1,1.1-1.5,1.5-1.5,0,0,.2,0,.2.1"/>
        <path class="cls-8" d="M257.9,551.7c-.1,0-.3.1-.5.4-.2.2-.3.5-.4.8-.2.3-.5.5-.8.5-.2,0-.4,0-.6-.2v.3c.2,0,.4,0,.6,0,.4,0,.8-.5.8-.5,0,0,.2,1.2-.2,1.8,0,.2-.5.8-1.3.6,0,0-.2-.3,0-.6.1-.2.5-.5.5-.5,0-.1-.2,0-.2,0-.1.2-.2.3-.3.3-.2.2-.2.4-.1.6.1.3.4.4.8.4.4,0,.8,0,1.2-.2.6-.3,1.1-.7,1.5-1.3,0,0,0,0,0-.1s-.1,0-.1,0c-.4.5-.9,1-1.5,1.3.3-.3.5-.6.4-1.1,0-.3-.2-.6-.3-.9,0-.3-.1-.5,0-.6.2-.2.4-.4.6-.5.3-.3.4-.5.3-.6,0,0-.1,0-.2,0"/>
        <path class="cls-8" d="M241.3,555.5c0-.1-.1-.3-.3-.2-.1,0-.3.1-.2.3,0,.1.1.2.3.2.2,0,.3-.1.3-.3,0,0,0,0,0,0"/>
        <path class="cls-8" d="M260.7,552.5c-.3,0-.6.1-1,.4-.4.2-.7.5-.9.9-.3.5-.4,1-.2,1.4.2.3.5.6.9.6.4,0,.9-.1,1.3-.5.3-.3.6-.6.9-1,0,0,.4-.9.4-.8-.4.5-.5.6-.5.7-.3.4-.6.8-1,1.1-.3.2-.6.3-.9.4-.2,0-.3,0-.4-.2-.2-.3,0-.9.5-1.6,0,0,.1,0,.2,0,.2,0,.4,0,.6-.1.2,0,.4-.2.5-.3.3-.3.4-.5.3-.7-.1-.2-.3-.3-.5-.3M261,552.7c0,.1,0,.3-.3.6-.3.3-.7.5-1,.5,0,0,0,0,0,0,.2-.3.4-.6.7-.8.3-.3.5-.4.6-.3,0,0,0,0,0,0M264.5,552.7c0,0-.2-.1-.3-.1-.2,0-.4,0-.5.1-.2,0-.4.2-.5.4-.2.2-.3.3-.5.5-.1.2-.3.3-.4.5h0c.1-.3.3-.6.5-.8.2-.2.4-.4.6-.6-.2,0-.3,0-.5,0-.1,0-.2,0-.3.1-.1.1-.2.2-.3.4-.1.2-.2.3-.3.5-.2.3-.3.6-.4.9-.1.3-.2.6-.2.9,0,0,0,0,0,.1,0,0,0,0,0,.1,0,0,0,0,.1.1,0,0,0,0,.1,0,0-.2.1-.3.2-.5s0-.2.1-.3c0-.1.1-.2.2-.3,0-.1.1-.3.3-.4.1-.2.3-.3.4-.5.1-.2.3-.3.4-.4.1-.1.3-.2.4-.3.1,0,.3-.1.4-.1,0,0,.1,0,.2,0,0,0,.1,0,.2,0,0,0,0,0,.1,0,0,0,0,0,0,0,0,0,0,0,0,0s0,0,0-.2c0,0-.1-.2-.2-.2"/>
        <path class="cls-8" d="M258.3,549.3c0-.1-.4-.6-1.4-.6-.5,0-1.1,0-1.6.2-.3,0-.7.2-1,.4-1.3.7-2.5,1.6-3.6,2.8-.4.4-1.1,1.2-2,2.3.3-.7.6-1.4.9-2.1.2-.5.3-1,.5-1.5.2-.5.4-.9.6-1.1.1-.1.3-.2.4-.3,0,0,.2,0,.3-.1,0,0,.1,0,.1,0s-.2,0-.3,0c-.3,0-.6.1-.9.2-.6.2-1.1.5-1.6.9-.3.3-.7.6-1,.9-.6.7-2,2.7-2.4,3.2-.5.6-4.7,6.7-9.2,8.1-4.8,1.5-7.4-1.3-7.4-2.7s0-.1,0-.1,0,0,0,.1c0,.8.5,3.3,4.7,3.3,6.5.1,11.8-7.4,12.7-8.6.7-1,1-1.6,1.5-2.2.6-.9,1.1-1.5,1.5-1.9.5-.4.8-.7,1.3-.8.2,0,.4-.1.6-.2-1,.4-1.6,1.4-2,2.8-.3,1.1-.4,2-.6,2.7-.2.3-.4.5-.5.6,0,.1,0,.2,0,.4,0,0,0,0,.1,0,0,0,0,0,0,0,.1,0,.3-.1.4-.4,0-.2.1-.3.1-.5.9-1.1,1.8-2.1,2.5-2.8,1-1.1,2.2-2,3.5-2.8.4-.2.7-.3,1.1-.4-1.1.5-2.2,1.5-3.3,3.1-.4.6-.7,1.2-1,1.8-.3.7-.4,1.1-.4,1.5,0,.1,0,.2,0,.3,0,.2.2.2.3.2s.2-.2.3-.6c.2-.7.6-1.6,1.2-2.7,1.2-2.2,2.3-3.4,3.3-3.7.3,0,.5,0,.8,0,.2,0,.4,0,.6.1.2,0,.4.2.6.3,0,0,.1.1.2.1,0,0,0-.1,0-.1"/>
        <path class="cls-8" d="M266.2,555.5c-.3,0-.5-.3-.5-.6,0-.3,0-.6.5-.9.2-.1.4-.3.5-.4,0,.3,0,.5,0,.8,0,.3.2.7.4.9-.4.2-.7.3-1,.2M268.5,554.2s0,0,0,0c-.2.4-.5.7-.9.9-.2-.2-.3-.5-.3-.8,0-.3,0-.6,0-.9.3-.2.5-.3.6-.5.2-.3.3-.7,0-.8-.2,0-.4,0-.6.3-.2.3-.3.7-.4,1-.6.3-1.2.7-1.4,1.3,0,.3,0,.6.2.9.4.4,1,.4,1.7,0,.2.2.4.3.6.2.2,0,.4-.2.5-.4,0,0,0-.1,0-.1,0,0,0,0,0,0-.2.2-.3.3-.5.2-.1,0-.2,0-.3-.2.4-.2.7-.6.9-1,0,0,0,0,0-.1M267.4,552.5c0-.1.2-.3.3-.2.1,0,0,.3,0,.5-.1.2-.3.3-.5.4,0-.3.1-.5.3-.8"/>
        <path class="cls-8" d="M281.5,555.5c0-.1-.1-.3-.3-.2-.1,0-.3.1-.2.3,0,.1.1.2.3.2.2,0,.3-.1.3-.3,0,0,0,0,0,0"/>
        <path class="cls-8" d="M277.1,552.7c-.4.2-.8.7-1.2,1.4-.3.6-.4,1-.2,1.4.1.2.3.3.7.3s.7-.2,1-.6c.3-.3.6-.6.8-1,0,0,0,0,0-.1,0,0-.1,0-.2,0-.2.3-.5.6-.8.9-.3.3-.6.5-.8.5,0,0-.2,0-.2-.1,0-.1,0-.4.1-.7.3-.6.7-1.3,1.4-2.3-.2,0-.4,0-.6.1M280.2,552.5c-.3,0-.6.1-1,.4-.4.2-.7.6-.9.9-.3.5-.4,1-.2,1.4.2.3.5.6.9.6.4,0,.9-.1,1.3-.5.3-.3.6-.6.9-1,0,0,0-.1,0-.2s-.1,0-.2,0c-.3.4-.6.8-1,1.1-.3.2-.6.3-.9.4-.2,0-.3,0-.4-.2-.2-.3,0-.9.5-1.6,0,0,.1,0,.2,0,.2,0,.4,0,.6-.1.2,0,.4-.2.5-.3.3-.3.4-.5.3-.7-.1-.2-.3-.3-.5-.3M280.5,552.7c0,.1,0,.3-.3.6-.3.3-.7.5-1,.5,0,0,0,0-.1,0,.2-.3.4-.6.7-.8.3-.3.5-.4.6-.3,0,0,0,0,0,0M277.1,552.7c-.4.2-.8.7-1.2,1.4-.3.6-.4,1-.2,1.4.1.2.3.3.7.3s.7-.2,1-.6c.3-.3.6-.6.8-1,0,0,0,0,0-.1,0,0-.1,0-.2,0-.2.3-.5.6-.8.9-.3.3-.6.5-.8.5,0,0-.2,0-.2-.1,0-.1,0-.4.1-.7.3-.6.7-1.3,1.4-2.3-.2,0-.4,0-.6.1M280.2,552.5c-.3,0-.6.1-1,.4-.4.2-.7.6-.9.9-.3.5-.4,1-.2,1.4.2.3.5.6.9.6.4,0,.9-.1,1.3-.5.3-.3.6-.6.9-1,0,0,0-.1,0-.2s-.1,0-.2,0c-.3.4-.6.8-1,1.1-.3.2-.6.3-.9.4-.2,0-.3,0-.4-.2-.2-.3,0-.9.5-1.6,0,0,.1,0,.2,0,.2,0,.4,0,.6-.1.2,0,.4-.2.5-.3.3-.3.4-.5.3-.7-.1-.2-.3-.3-.5-.3M280.5,552.7c0,.1,0,.3-.3.6-.3.3-.7.5-1,.5,0,0,0,0-.1,0,.2-.3.4-.6.7-.8.3-.3.5-.4.6-.3,0,0,0,0,0,0"/>
        <path class="cls-8" d="M275.2,549.2c.5.1,1.1.3,1.5.4.9.2,1.3.3,1.8.2.3,0,.5-.1.4-.3-.1-.4-1.2-.6-2-.6-.6,0-1.1.1-1.6.3M275.6,554.8c-.3.3-1.5,1.5-2.9,1.6-.9,0-1.7-.3-2.1-1-.8-1.3-.3-3,.6-4,.8-1,1.9-1.7,3.1-2.1-.4-.1-.7-.2-1.1-.1-.5,0-.9.1-1.5.7,0,0,0,0-.1,0s0,0,0-.1c.4-.5,1-.9,1.6-.9.8,0,1.1.1,1.5.3.6-.2,1.3-.3,2-.3,1,0,2,.3,2.3.7.1.2,0,.3,0,.4-.2.2-.8.4-2.3,0-.4,0-1.3-.3-1.9-.5-1,.4-2,1.1-2.7,2-1.1,1.3-1.6,3-1.1,4,.3.5.8.8,1.6.8,1.3,0,2.7-1.5,3-1.8,0,0,.2-.3.3-.4.3-.4-.1.5-.4.8"/>
        <path class="cls-8" d="M278.1,551.7c0-.1-.1-.3-.3-.2-.1,0-.3.1-.2.3,0,.1.1.2.3.2.2,0,.3-.1.3-.3,0,0,0,0,0,0"/>
        <path class="cls-8" d="M247.2,549.7c-.4-.3-.9-.4-1.6-.4-1.7,0-3.3,1-4.7,3-.3.4-.5.8-.7,1.3,0-.2,0-.4-.2-.5-.2-.4-.5-.7-.8-.9.9-1.6,1.7-2.4,2.5-2.5,0,0,.1,0,.2,0,0,0,.1,0,.2,0,0,0,.1,0,.1,0,0,0,0-.1-.3-.2-.3,0-.7-.2-1.1-.3-2.4-.5-3.7-.7-5.4-.7s-2,.2-2.7.5c-1,.4-1.2,1-.8,1.8,0,0,0,0,0,.1,0,0,0,0,0,0s0-.1,0-.1c0-.1-.1-.3-.1-.5,0-.9,1.6-1.5,3.7-1.5,2,0,4,.2,5.9.7,0,0-.3,0-1,.4-.8.5-1.7,1.9-1.7,1.9,0,0-1.3-.9-3.7-.8-2,0-3.3.7-3.3.7-.2,0-.3.2-.5.3-.5.3-.9.8-1.1,1.4-.2.5-.2,1.1,0,1.5,0,.1.1.2.2.3.5.9,1.4,1.4,2.8,1.4,1,0,2-.2,2.9-.7,1.2-.7,2.2-1.7,2.9-3.2,0-.2.2-.4.2-.5.3.2.5.5.7.8.2.3.2.6.2.9-.4.9-.5,1.5-.4,1.8,0,.1.2.2.3.2,0,0,.2,0,.2-.2v-.5c.4-.9.8-1.7,1.2-2.5,1.3-2.3,2.7-3.4,4.4-3.4.4,0,.9.1,1.3.3.2.1.3.2.3.2s0-.1,0-.2M238.1,552.5l-.2.3c-.7,1.2-1.5,2.1-2.5,2.7-.9.6-1.8,1-2.6,1s-2-.4-2.5-1.2c0-.1-.1-.2-.1-.3-.3-.8.1-1.7,1.3-2.6.5-.4,1.1-.7,1.7-.9.7-.2,1.4-.4,2.1-.4,1.2,0,2.3.3,3.2.8-.1.2-.2.4-.4.6"/>
      </g>
    </g>
  </g>
</svg>