<?xml version="1.0" encoding="UTF-8"?>
<svg xmlns="http://www.w3.org/2000/svg" version="1.1" viewBox="0 0 400 600">
  <defs>
    <style>
      .cls-1 {
        fill: #eb001b;
      }

      .cls-2 {
        fill: #fef501;
      }

      .cls-2, .cls-3, .cls-4, .cls-5, .cls-6 {
        stroke: #000;
      }

      .cls-3 {
        fill: $[primary];
      }

      .cls-3, .cls-4, .cls-5 {
        stroke-width: 6px;
	  }
	  
	  .cls-6 {
        stroke-width: 6px;
		stroke:$[accent];
      }

      .cls-7 {
        fill: #ff5a00;
      }

      .cls-8 {
        display: none;
      }

      .cls-9 {
        fill: #d40511;
      }

      .cls-4 {
        fill: #333;
      }

      .cls-5 {
        fill: $[secondary];
      }

      .cls-10 {
        fill: #f79e1b;
      }
    </style>
  </defs>
  <!-- Generator: Adobe Illustrator 28.7.4, SVG Export Plug-In . SVG Version: 1.2.0 Build 166)  -->
  <g>
    <g id="_x36_">
      <g id="Layer_1">
        <g id="suit2">
          <path id="Shirt" class="cls-3" d="M281.2,502.8c5.6,3.7,17.7,7.7,28.6,9.9,0,0,30.8,5.3,37.9,7.7,57.4,22.3,50.4,79.7,50.4,79.7l-395.8-.2s-3.8-63.4,37.2-71.5c7.7-1.5,25.9-8.7,35.6-9.4,0,0,37.4-9,42.8-12.6.9,5.7,11.3-29.5,4-41.3,19,3.1,38.2-.2,68.9,0,42.8.4,77.3,2.9,91.1-.5-8.6,16.4-.8,38.2-.8,38.2Z"/>
          <path d="M196,505.5c-12.2,8.8-5.5,94.8-5.5,94.8h1.8s.1-10.1-.4-19.6-.7-12.2-.9-18.9c-.4-18.4,1.1-37.7,2.7-43.5,3.4-12.1,2.3-12.7,2.3-12.7Z"/>
          <circle cx="200.5" cy="523.5" r="1.2"/>
          <circle cx="199.5" cy="538.7" r="1.2"/>
          <circle cx="198.5" cy="556.7" r="1.2"/>
          <circle cx="199.5" cy="574.6" r="1.2"/>
          <circle cx="200.5" cy="588.7" r="1.2"/>
          <g class="cls-8">
            <path class="cls-4" d="M-.1,599.8s-6.3-40.2,22.5-62.8c8.8-6.9,40.4-10,54.5-14.7,7.4-2.5,40.8-17.1,43.2-18.7,1,6.1,2.5,55.6,20.3,96.3.5,1.1-140.5-.2-140.5-.2h0Z"/>
            <path class="cls-4" d="M395.7,599.8s6.3-40.2-22.5-62.8c-8.8-6.9-40.4-10-54.5-14.7-7.4-2.5-40.8-17.1-43.2-18.7-1,6.1-2.5,55.6-20.3,96.3-.5,1.1,140.5-.2,140.5-.2h0Z"/>
          </g>
        </g>
      </g>
      <path id="Shirt-neck" class="cls-5" d="M118,506.4c3.8-10.5,11.4-29.4,4.1-41.2,19,3.1,38.2-.2,68.9,0,42.8.4,77.2,2.7,91-.6-8.6,16.4,3.1,40.7,3.1,40.7l-167.1,1.2Z"/>
      <g id="logos">
        <g>
          <path class="cls-9" d="M38.9,590.4h14.8l-.9,1.2h-14v-1.2Z"/>
          <path class="cls-9" d="M161.1,591.5h-18.1l.9-1.2h17.3v1.2h0Z"/>
          <path class="cls-9" d="M38.9,588.1h16.5l-.9,1.2h-15.6v-1.2Z"/>
          <path class="cls-9" d="M38.9,585.9h18.2l-.9,1.2h-17.3v-1.2Z"/>
          <path class="cls-9" d="M161.1,589.3h-16.4l.9-1.2h15.6v1.2h0Z"/>
          <path class="cls-9" d="M147.2,585.9h13.9v1.2h-14.8l.9-1.2Z"/>
          <path class="cls-9" d="M54.9,591.5l7.8-10.5h9.7c1.1,0,1.1.4.5,1.1-.5.7-1.4,2-2,2.6-.3.4-.8,1,.9,1h13c-1,1.5-4.6,5.8-10.9,5.8-5.1,0-19.1,0-19.1,0Z"/>
          <path class="cls-9" d="M99.7,585.9l-4.3,5.7h-11.2l4.3-5.7h11.2Z"/>
          <path class="cls-9" d="M116,585.9l-4.3,5.7h-11.2l4.3-5.7h11.2Z"/>
          <path class="cls-9" d="M119.7,585.9s-.9,1.1-1.2,1.6c-1.4,1.9-.2,4.1,4.4,4.1h18.1l4.3-5.7h-25.6Z"/>
          <path class="cls-9" d="M60.4,574.6l-3.9,5.2h21.3c1.1,0,1.1.4.5,1.1-.5.7-1.4,2-2,2.6-.3.3-.8,1,.9,1h8.7s1.4-1.9,2.6-3.5c1.6-2.1.2-6.6-5.5-6.6-5.1,0-22.5,0-22.5,0Z"/>
          <path class="cls-9" d="M117,584.6h-27.4l7.5-10h11.2l-4.3,5.7h5l4.3-5.7h11.2l-7.6,10Z"/>
          <path class="cls-9" d="M140,574.6l-7.5,10h-11.9l7.5-10h11.9Z"/>
        </g>
        <g>
          <path id="svg_1" d="M77.6,562.1h.9c.4.1.4.5.4.7v1h-3.9v-1c0-.2,0-.5.4-.6h.9v-1h-5.1v.9h.9c.4.1.4.5.4.7v3.3c0,.2,0,.5-.4.6h-.9v1h5.1v-.9h-.9c-.4-.1-.4-.5-.4-.7v-1h3.9v1c0,.2,0,.5-.4.6h-.9v1h5.1v-.9h-.9c-.4-.1-.4-.5-.4-.7v-3.3c0-.2,0-.5.4-.6h.9v-1h-5.1v.9h0Z"/>
          <path id="svg_2" d="M111.5,561.2h-6.3v.9h.8c.3.1.4.2.4.6v3.4c0,.2,0,.5-.4.6h-.9v1h6.4c2.3,0,4.2-.9,4.2-3.2s-1.9-3.2-4.2-3.2M111,566.4h-2.1v-3.9h2.1c1.3,0,1.7.6,1.7,2s-.4,2-1.7,2"/>
          <path id="svg_3" d="M126.3,566.6c-.4,0-.5-.3-.7-.5l-2.9-4.5c-.2-.3-.4-.4-.7-.4h-4.8v.9h1.2c.2.1.4.4.2.7l-2.2,3.5c0,.1-.2.3-.4.3h-.9v1h4.1v-.9h-.7c-.3-.1-.5-.3-.3-.5l.3-.5h3.9l.3.4c.3.4,0,.5-.3.6h-.7v.9h5.5v-.9h-.8ZM119.2,564.5l1.2-2,1.3,2h-2.5Z"/>
          <path id="svg_4" d="M100.7,562.1h.9c.4.1.4.5.4.7v3.2l-3.4-4.4c-.1-.2-.3-.3-.7-.3h-4.4v.9h.9c.4.1.4.5.4.7v3.3c0,.2,0,.5-.4.6h-.9v1h4.1v-.9h-.9c-.4-.1-.4-.5-.4-.7v-3.2l3.4,4.4c.2.2.3.3.7.3h3.1v-4.8c0-.2,0-.5.4-.6h.9v-1h-4.1v.9h0Z"/>
          <path id="svg_5" d="M88.1,561c-4.1,0-5.2,1.8-5.2,3.4s1.1,3.4,5.2,3.4,5.2-1.8,5.2-3.4-1.1-3.4-5.2-3.4M88.1,566.6c-1.6,0-2.3-.7-2.3-2.2s.7-2.2,2.3-2.2,2.3.7,2.3,2.2-.7,2.2-2.3,2.2"/>
          <path id="svg_6" d="M106.2,534.5c-.7,3.1-1,4.6-1.5,6.8-.5,2.2-1,4.2-1.7,5.2-.7,1-1.7,1.2-2.4,1.3-.3,0-.6,0-1.4,0s-1,0-1.4,0c-.7,0-1.7-.3-2.4-1.3-.7-1-1.2-3-1.7-5.2-.6-2.3-.9-3.7-1.5-6.8,0,0-.7,0-1,0-.4,0-.8,0-1.1.1,0,0,.4,6.4.6,9.1.2,2.9.5,7.7.8,11.3,0,0,.6.1,1.6.1,1,0,1.5,0,1.5,0,.4-1.6.9-3.8,1.5-4.8.5-.8,1.2-.9,1.6-.9.7,0,1.2-.1,1.5-.1h0c.3,0,.8,0,1.5.1.4,0,1.2.1,1.6.9.6,1,1.1,3.2,1.5,4.8,0,0,.4,0,1.5,0,1,0,1.6-.1,1.6-.1.3-3.6.7-8.4.8-11.3.2-2.7.6-9.1.6-9.1-.3,0-.7,0-1.1-.1-.3,0-1,0-1,0"/>
          <path id="svg_7" d="M114.3,538.2c-.4-4.1-3.1-4.9-5.5-5.3-1.2-.2-3.3-.4-4.7-.4-1.2,0-4-.1-4.9-.1s-3.7,0-4.9.1c-1.4,0-3.5.2-4.7.4-2.4.4-5.1,1.3-5.5,5.3-.1,1.1-.1,2.6-.1,4.1,0,2.6.3,4.3.4,5.5,0,.8.4,3.3.9,4.6.6,1.8,1.2,2.3,1.8,2.8,1.2,1,3.1,1.3,3.5,1.3,2.2.4,6.6.5,8.6.5s6.4,0,8.6-.5c.4,0,2.4-.4,3.5-1.3.7-.5,1.2-1,1.8-2.8.4-1.3.8-3.8.9-4.6.1-1.2.3-3,.4-5.5,0-1.6,0-3-.2-4.1M112.8,545.1c-.2,3.3-.5,5.2-.9,6.6-.4,1.2-.8,2.1-1.5,2.6-1.1,1-2.6,1.2-3.5,1.3-1.9.3-5.2.4-7.7.4s-5.8-.1-7.7-.4c-.9-.1-2.4-.3-3.5-1.3-.7-.6-1.1-1.4-1.5-2.6-.4-1.4-.7-3.4-.9-6.6-.1-2-.1-5.1.1-6.8.3-2.6,1.6-3.8,4.3-4.3,1.3-.2,3-.4,4.6-.5,1.3,0,3.4-.1,4.6-.1,1.2,0,3.3,0,4.6.1,1.6,0,3.3.2,4.6.5,2.7.5,4,1.8,4.3,4.3.2,1.7.2,4.9.1,6.8"/>
        </g>
      </g>
      <path class="cls-6" d="M385.5,563.4c-26.5-44.4-72.4-36-101.8-51.3-1.4-.7,3.7,3.1,3.7,3.1l5.5,2.1,9.8,3.2,6.1,1.4,9.2,1.8,12.5,3.3,11.7,3.3,9.8,3.9,9.2,4.8,6.7,4.9,6,5.4,4.9,5.7,4.2,5,2.7,5.3s1.4.7-.1-1.8Z"/>
      <path class="cls-6" d="M17.4,554.5c11.2-24.5,47.6-17.4,98.7-38.9,0,0,2.6-.2-5.7,3.3-8.3,3.5-9.2,3.5-9.2,3.5l-16.3,4.7-22.4,5.3-13.8,3.7-9.9,2.6-6.3,3.2-8.9,7s-6.9,7.2-6.2,5.7Z"/>
      <path d="M173.1,467.8c-5.5,3.5-2.4,37.7-2.4,37.7h.8s-.9-27.8.6-32.6,1-5.1,1-5.1Z"/>
      <circle cx="175.9" cy="479.2" r="1.2"/>
      <circle cx="175.9" cy="491.3" r="1.2"/>
      <g>
        <path class="cls-2" d="M130.2,473.3c11.9,0,23.8,0,35.7,0,0,1.1,0,2.2,0,3.3-11.9,0-23.8,0-35.7,0,0-1.1,0-2.2,0-3.3Z"/>
        <path class="cls-2" d="M136.1,478.3c1.4-.2,2.9.4,4,1.6,1.4,1.4,2.3,3.6,2.6,6.1.2,2,0,4.2-.8,6-.8,2-2.1,3.5-3.6,4.1-1.5.7-3.1.5-4.5-.5-1.3-.9-2.4-2.6-3-4.5-.7-2.2-.7-4.7-.1-6.9.8-3.3,3-5.7,5.5-5.9ZM136.1,483c-.9.2-1.7,1-2.2,2.2-.5,1.3-.5,3.1,0,4.4.6,1.7,2.1,2.6,3.4,2.1,1.4-.5,2.4-2.6,2.3-4.7,0-2.5-1.8-4.5-3.5-4Z"/>
        <path class="cls-2" d="M144.5,479.1c.6-.8,1.5-.9,2.2-.8.5,0,1.1.3,1.5.9.4.6.5,1.4.6,2.2.3,1.7.6,3.4.9,5,.4-1.9.7-3.7,1-5.6.2-.9.5-1.9,1.1-2.2.7-.4,1.4-.4,2.2-.2.6.2,1.2.8,1.5,1.7.5,1.4.3,2.9.3,4.4,0,3.9,0,7.8,0,11.8-1.1,0-2.2,0-3.3,0,0-3.4,0-6.8,0-10.2-.5,2.9-1,5.8-1.5,8.6-.2.7-.3,1.5-.8,1.8-.4.2-.9.2-1.3-.2-.4-.4-.5-1.2-.6-1.8-.5-2.8-.9-5.6-1.4-8.4,0,1,0,2.1,0,3.1,0,2.4,0,4.7,0,7.1-1.1,0-2.2,0-3.3,0,0-4.7,0-9.4,0-14.1,0-1.1.2-2.3.8-3Z"/>
        <path class="cls-2" d="M158.8,479.3c1.1-1,2.4-1.2,3.7-.9,1.4.4,2.6,1.8,3.1,3.7.4,1.4.4,2.9.2,4.3-.2,1.5-.8,2.8-1.7,3.5-1.2,1-2.6.9-3.9.9,0,1.8,0,3.5,0,5.3-1.1,0-2.2,0-3.3,0,0-2.8,0-5.6,0-8.4,0-1.6,0-3.2.2-4.7.2-1.5.8-2.9,1.7-3.7ZM160.5,483.4c-.5.7-.3,1.7-.3,2.6.4,0,.9,0,1.3,0,.4,0,.8-.3.9-.9,0-.5,0-1-.2-1.4-.4-.8-1.2-.8-1.7-.3Z"/>
        <path class="cls-2" d="M130.2,501.3c0-1.1,0-2.2,0-3.3,11.9,0,23.8,0,35.7,0,0,1.1,0,2.2,0,3.3-11.9,0-23.8,0-35.7,0Z"/>
      </g>
      <path d="M272.7,566.5v-2.6c0-1-.6-1.7-1.7-1.7s-1.1.2-1.5.7c-.3-.5-.7-.7-1.4-.7s-.9.1-1.2.6v-.5h-.9v4.2h.9v-2.3c0-.7.4-1.1,1-1.1s.9.4.9,1.1v2.3h.9v-2.3c0-.7.4-1.1,1-1.1s.9.4.9,1.1v2.3h1ZM286.4,562.3h-1.5v-1.3h-.9v1.3h-.8v.8h.8v1.9c0,1,.4,1.5,1.5,1.5s.8-.1,1.1-.3l-.3-.8c-.3.2-.6.2-.8.2-.4,0-.6-.3-.6-.7v-1.9h1.5v-.8h0ZM294.3,562.2c-.5,0-.9.3-1.1.6v-.5h-.9v4.2h.9v-2.4c0-.7.3-1.1.9-1.1s.4,0,.6,0l.3-.9c-.2,0-.4,0-.6,0h0ZM282.4,562.6c-.4-.3-1.1-.4-1.7-.4-1.1,0-1.8.5-1.8,1.4s.5,1.1,1.5,1.2h.4c.5.1.7.3.7.5s-.4.5-1,.5-1.1-.2-1.4-.4l-.4.7c.5.4,1.1.5,1.8.5,1.2,0,1.9-.6,1.9-1.4s-.6-1.1-1.5-1.3h-.4c-.4,0-.7-.2-.7-.4s.3-.5.8-.5,1.1.2,1.3.4l.4-.7h0ZM307,562.2c-.5,0-.9.3-1.1.6v-.5h-.9v4.2h.9v-2.4c0-.7.3-1.1.9-1.1s.4,0,.6,0l.3-.9c-.2,0-.4,0-.6,0h0ZM295.2,564.4c0,1.3.9,2.2,2.2,2.2s1.1-.1,1.5-.5l-.4-.7c-.4.3-.7.4-1.1.4-.7,0-1.3-.5-1.3-1.4s.5-1.3,1.3-1.4c.4,0,.7.1,1.1.4l.4-.7c-.4-.4-.9-.5-1.5-.5-1.4,0-2.2.9-2.2,2.2h0ZM303.7,564.4v-2.1h-.9v.5c-.3-.4-.7-.6-1.3-.6-1.2,0-2.1.9-2.1,2.2s.9,2.2,2.1,2.2,1.1-.2,1.3-.6v.5h.9v-2.1h0ZM300.3,564.4c0-.7.5-1.4,1.3-1.4s1.3.6,1.3,1.4-.5,1.4-1.3,1.4c-.8,0-1.3-.6-1.3-1.4h0ZM289.3,562.2c-1.2,0-2.1.9-2.1,2.2s.9,2.2,2.2,2.2,1.2-.2,1.7-.6l-.4-.7c-.4.3-.8.4-1.2.4s-1.1-.3-1.3-1h3.1v-.4c0-1.4-.8-2.2-1.9-2.2h0ZM289.3,563c.6,0,1,.4,1.1,1h-2.2c0-.6.5-1,1.1-1h0ZM312.2,564.4v-3.8h-.9v2.2c-.3-.4-.7-.6-1.3-.6-1.2,0-2.1.9-2.1,2.2s.9,2.2,2.1,2.2,1.1-.2,1.3-.6v.5h.9v-2.1h0ZM308.8,564.4c0-.7.5-1.4,1.3-1.4s1.3.6,1.3,1.4-.5,1.4-1.3,1.4c-.8,0-1.3-.6-1.3-1.4h0ZM277.9,564.4v-2.1h-.9v.5c-.3-.4-.7-.6-1.3-.6-1.2,0-2.1.9-2.1,2.2s.9,2.2,2.1,2.2,1.1-.2,1.3-.6v.5h.9v-2.1h0ZM274.5,564.4c0-.7.5-1.4,1.3-1.4s1.3.6,1.3,1.4-.5,1.4-1.3,1.4c-.8,0-1.3-.6-1.3-1.4Z"/>
      <g>
        <rect id="rect19" class="cls-7" x="282.1" y="530.2" width="13.9" height="24.9"/>
        <path class="cls-1" d="M283,542.6c0-5.1,2.4-9.6,6-12.5-2.7-2.1-6.1-3.4-9.8-3.4-8.8,0-15.8,7.1-15.8,15.8s7.1,15.8,15.8,15.8,7.1-1.3,9.8-3.4c-3.7-2.9-6-7.4-6-12.5Z"/>
        <path id="path22" class="cls-10" d="M314.7,542.6c0,8.8-7.1,15.8-15.8,15.8s-7.1-1.3-9.8-3.4c3.7-2.9,6-7.4,6-12.5s-2.4-9.6-6-12.5c2.7-2.1,6.1-3.4,9.8-3.4,8.8,0,15.9,7.1,15.9,15.8Z"/>
      </g>
      <path d="M222,573.9c-.3.2-.3.3,0,.8.4.6.4,1.4,0,2.6-.1.3-.3,1-.5,1.5-.1.5-.4,1.4-.5,1.9-.1.5-.4,1.2-.5,1.6-.1.3-.2.7-.2.8s-.2.9-.5,1.7c-.4,1.2-.6,1.5-1.1,1.8-.4.2-.5.4-.5.7,0,.3.4.4,4.1.4,5.2,0,6.3-.2,7.3-2,.9-1.6,1-3.1.5-4.3-.2-.4-.3-.8-.3-.8,0,0,.4-.5.8-.9.9-.9,1.5-2.2,1.5-3.4s-.8-2.2-1.9-2.4c-1.3-.2-7.7-.2-8.1.1h0ZM227.9,575.5c.5.8-.4,3.3-1.4,3.7-.8.4-.8,0-.1-2.4,0-.2.2-.7.3-1.1.2-.7.8-.8,1.2-.3ZM225.9,581.4c.9,1.2,0,4.1-1.6,4.9-.6.3-.7,0-.4-1,.1-.5.4-1.2.5-1.5.6-1.8.9-2.8,1.1-2.8s.3.2.5.4h0ZM301.3,573.8c0,0-.2.7-.2,1.3,0,.6-.1,1.4-.3,1.8-.1.4-.4,1.1-.5,1.7-.1.6-.4,1.3-.5,1.7-.1.4-.3,1.1-.5,1.7-.1.6-.4,1.3-.5,1.7-.1.4-.3,1.2-.5,1.7-.2.7-.4,1.2-.6,1.3-.2.1-.4.4-.4.6,0,.4,0,.4,2.5.4s2.5,0,2.8-.4.3-.4.2-.7c-.2-.3,0-1.2.9-4.1.6-1.9.6-1.9,1.2-2,.8,0,1,.2.6,1.2-.6,1.8-.7,2.2-1,3.3-.2.6-.5,1.2-.6,1.4-.2.2-.4.5-.4.8,0,.4.2.4,2.6.4s2.6,0,2.8-.4c.2-.3.2-.5,0-.7-.2-.3,0-1.4.9-4.4.1-.4.3-1.1.5-1.7.3-1,.4-1.4,1-3.2.1-.5.3-1,.3-1.1s.3-.7.6-1.2c.9-1.4.8-1.4-2.1-1.4s-2.6,0-2.7.2c-.1.1-.2.4-.1.6,0,.4,0,.9-.5,2.8-.4,1.4-.7,1.8-1.3,1.8s-.8-.4-.5-1.4c.1-.4.4-1.1.5-1.7s.4-1.1.6-1.3c.2-.2.3-.4.2-.6,0-.3-.5-.4-2.6-.4s-2.6,0-2.6.2h0ZM289.3,575.7c-.9.3-1.9,1.4-2,2.5-.1.8-.6,1.7-1,1.7s-1.2.7-1.8,1.5c-.7,1-1,2.4-.7,3.8.3,1.7,1.4,2.6,3.1,2.4,1.2-.2,1.4-.2,4,0,1.6.1,1.8,0,1.9-.3.1-.4-.1-.8-.6-.8s-.4-.3-.5-.8c-.3-1-.3-1,1.1-2.8.5-.7.9-1.4.9-1.5s-.3-.3-1-.3c-.9,0-1.4.3-.9.6.4.2.3.8,0,1.3-.3.4-.3.4-.6,0-.1-.2-.3-.8-.3-1.2,0-.4-.1-1-.2-1.3-.2-.8-.2-1.1.3-1.3.8-.3,1.3-1,1.3-1.9s-.3-1.4-1.3-1.8c-.4-.1-.8-.2-.8-.2,0,0-.4.2-.9.3h0ZM291.3,577.4c0,.5,0,.8-.3,1-.5.3-1,0-1-.7s.3-1.1.8-1c.3,0,.4.2.5.8h0ZM287.7,581.9c.2.8.4,1.8.5,2.2.3,1.1.2,1.9-.2,1.8-.5-.1-1-.9-1.3-2.1-.3-1.2-.3-1.2,0-2.2.2-.6.4-1,.5-1s.3.6.5,1.4h0ZM254.3,576.3c-1.3.6-1.9,1.1-2.4,2.1-.4.7-.5,1.1-.5,2.1s0,1.2.5,1.9c.5.7,1.6,1.6,2,1.6.3,0,.8.8,1,1.3,0,.3,0,.6-.2,1-.3.5-.5.5-1.3.5-1.1,0-1.6-.5-2-1.8-.2-.8-.8-1-.9-.3,0,.2-.2.9-.4,1.6s-.3,1.3-.3,1.4c0,0,.4,0,.7,0,.5-.2.9-.1,1.7.1.6.2,1.3.4,1.7.4.8,0,2.5-.6,2.8-1,.1-.2.3-.3.4-.3.2,0,1.1-1.4,1.3-2.2.6-2,0-3.4-2.2-4.8-1.5-1-1.6-2-.4-2.6.5-.2.7-.2,1.2,0,.6.4,1.3,1.3,1.3,1.8s.8.4.9,0c0-.2.2-.7.3-1,.4-1.1.3-1.3-.4-1.2-.4,0-1.1,0-1.8-.3-1.3-.5-1.7-.5-2.9,0h0ZM264.6,576.3c-1.8.5-3,1.4-4,2.9-1,1.5-1.4,2.8-1.4,4.5s.6,3,1.9,3.8c.9.6,3.9.6,4.8,0,.3-.2.7-.4.9-.5,1.1-.6,2.5-2.5,3.1-4.2.9-2.4.6-4.4-.7-5.7-.5-.5-2.5-1.3-3-1.3-.1,0-.8.2-1.6.4h0ZM266.8,577.5c.3.4.2.9,0,1.9-.5,1.7-.7,2.2-1,3.2-.3,1.1-.7,2.3-1,3.1,0,.3-.5.8-.8,1-1.1.8-1.8-.3-1.2-1.8.1-.3.4-1.2.6-1.8.2-.7.4-1.4.5-1.7,0-.2.3-1,.5-1.7.6-1.9,1.8-3,2.4-2.2h0ZM357.1,576.3c-1.3.6-1.9,1.1-2.4,2.1-.4.7-.5,1.1-.5,2.1s0,1.2.5,1.9c.5.7,1.6,1.6,2,1.6s1.1,1.1,1.1,1.4-.1.5-.3.8c-.3.5-.5.5-1.3.5-1.1,0-1.5-.4-2-1.7-.3-.8-1-1.2-1-.6s0,.6-.2.8-.3.9-.3,1.3v.8c-.1,0,.7-.2.7-.2.5,0,1.1,0,1.7.2,1.1.4,1.9.4,3.1,0,1.3-.5,2.1-1.2,2.7-2.4.5-1.1.6-2.2.3-3.2-.2-.5-1.2-1.7-1.8-2-.9-.4-1.2-.8-1.5-1.2-.4-.7-.2-1.3.7-1.6.9-.4,1.8.2,2.3,1.3.5,1.2.9,1.1,1.3-.2.5-1.5.5-1.7-.3-1.6-.4,0-1.1,0-1.8-.3-1.3-.5-1.7-.5-2.9,0h0ZM337.7,576.4c-2.1.7-3.5,2.2-4.4,4.6-.4,1.1-.5,1.6-.5,2.8s0,1.6.5,2.3c.8,1.3,1.9,1.7,4,1.7s2-.1,2.4-.3c.3-.2.8-.4,1.1-.5.5-.2,1.2-1.1,1.2-1.6s.7-2.6,1.1-2.9c.1-.2.2-.5.2-.7,0-.4-.2-.4-2.4-.4s-2.4,0-2.4.3c0,.2,0,.7,0,1.3,0,1.2-.4,2.5-1,3.4-.5.7-.6.8-1,.3-.3-.3-.3-.4,0-1.3.1-.5.3-1.2.4-1.5,0-.3.3-1,.5-1.6.8-3.1,1.3-4.3,1.9-4.7,1-.8,2.1-.3,2.4,1.1.3,1.5.7,1.6,1.1.2.1-.5.4-1.2.5-1.5.3-.7,0-.9-.6-.8-.3,0-.9,0-1.3-.2-.9-.4-2.4-.4-3.6,0h0ZM233.1,576.8c0,.2,0,.4.2.5.2.2.2.9,0,1.6-.1.3-.4,1.1-.5,1.6-.2.6-.4,1.3-.5,1.7-.1.4-.3,1.1-.5,1.7-.5,1.8-.8,2.5-1.2,2.7-.2.1-.4.4-.4.6,0,.4,0,.4,3.9.4s4,0,4.3-.4c.2-.2.4-.4.4-.6s0-.4.2-.6c.1-.2.3-.6.4-1,.2-.8,0-.8-.5-.1-.8,1.2-1.3,1.5-2.5,1.5s-1.1,0-1.1-.5,0-.7.2-1c.1-.3.4-1.1.6-1.7.4-1.3.8-1.5,1.3-.7.5.8.8.7,1.1-.3.1-.4.4-1.1.5-1.5.4-1,0-1.1-.8-.5-1.5,1.1-1.5.8-.6-2.1.3-.8.5-1,1.6-.8.4,0,1.1.8,1.1,1.3s.1.3.2.3c.3,0,.7-1.1.7-1.9v-.6h-4.1c-3.4,0-4.1,0-4.1.3h0ZM242.6,576.8c0,.2.1.5.2.7.3.6.3,1.2,0,2.3-.5,1.8-.7,2.2-1,3.2-.6,2-1,3-1.5,3.4-.3.2-.5.6-.5.8,0,.4.2.4,1.2.4s1.8-.4,1.3-1.1c-.3-.4-.3-.5,0-1.4.1-.5.4-1.2.5-1.5s.2-.8.3-1.2c0-.4.2-.6.4-.6.3,0,.6.9,1,3.8,0,.6.3,1.2.4,1.5.2.5.3.5,1.5.5h1.2c0,0,.4-1.2.4-1.2.5-1.3.7-2,2.2-7.1.2-.8.6-1.5.9-1.9.3-.3.5-.6.5-.8,0-.2-2.6-.2-2.7,0,0,.1,0,.4.2.5.3.3.3,1-.2,2.7-.2.6-.4,1.4-.5,1.7,0,.4-.2.6-.3.5,0,0-.3-.7-.4-1.5s-.4-2-.6-2.7l-.3-1.3h-2.1c-1.6-.1-2.1,0-2.1.2h0ZM271.9,576.8c0,.1,0,.4.1.6.3.5.3,1.6,0,2.6-.5,1.7-.7,2.2-1,3.2-.6,2.2-1,3-1.5,3.3-.3.2-.5.5-.5.7,0,.4.1.4,1.3.4s1.3,0,1.4-.4c0-.3,0-.6-.1-.8-.2-.3-.2-.4,0-1.2.1-.4.4-1.2.5-1.6.6-2.1.9-2.5,1.1-1.4,0,.3.2,1.1.3,1.6.1.6.2,1.2.2,1.4s.1.8.3,1.4l.3,1h2.6l.3-1.1c.4-1.4.7-2.2,1-3.4.3-1,.4-1.5,1-3.2.1-.5.3-.9.3-1.1,0-.4.8-1.8,1.1-1.8s.2-.2.2-.3c0-.3-.2-.3-1.3-.3s-1.7.2-1.2.7c.3.4.3,1.3,0,2.4-.7,2.3-.9,2.8-1,2.6,0,0-.2-.3-.2-.5s0-.8-.2-1.4-.4-1.6-.5-2.4l-.3-1.4h-2.1c-1.3,0-2.1,0-2.2.2h0ZM313.2,576.7c0,0,0,.3,0,.6.2.5,0,1.4-.3,2.6-.4,1.4-.6,2.1-.9,3.1-.6,2.2-1.1,3.3-1.4,3.6-.2.1-.3.4-.3.7,0,.4.1.4,4,.4h4l.4-.7c.2-.4.4-.9.4-1s.1-.4.2-.5.2-.4.2-.6c0-.4-.4-.4-.5,0,0,.2-.4.6-.8,1-.6.6-.8.7-1.8.7s-1.1,0-1.1-.2c0-.3.6-2.4.9-3.3.4-1,.7-1.2,1.2-.4.5.7,1,.6,1.1-.1,0-.3.2-.9.4-1.4.3-1,.1-1.6-.3-1-.4.5-1.2.9-1.4.7-.4-.3.3-3,.9-3.4.6-.4,1.6,0,1.9.8.3.9.8.8,1-.2,0-.4.2-.9.2-1.1,0-.3-.5-.3-4-.4-2.2,0-4,0-4.1,0h0ZM323,576.8c0,.2.1.4.2.4.3.2.3.8,0,1.6-.3.8-.6,2-1,3.2-.1.6-.4,1.3-.5,1.7-.1.4-.3,1.1-.5,1.6-.2.6-.5,1.1-.7,1.3-.2.2-.5.5-.5.6,0,.3.5.3,3.3.3s5-.2,6-.9c.7-.5,2.2-2.3,2.4-3,0-.2.2-.6.3-.8.5-1.3.7-1.9.7-3s-.3-2.2-1.2-2.9c-.6-.5-.7-.5-4.6-.5s-4,0-4,.3h0ZM328.9,577.6c.4.5.3,1-.4,3.3-.5,1.5-1.2,3.8-1.2,4.2-.2.8-.6,1.4-1.2,1.6-.7.2-.8-.3-.5-1.4.6-1.8,1.2-4.2,1.7-5.7.2-.9.5-1.7.6-2,.2-.5.7-.5,1,0h0ZM345.5,576.7c0,.1,0,.3.1.5.3.4.3.8,0,1.5-.1.3-.3,1-.5,1.6-.1.6-.4,1.3-.5,1.7-.1.4-.3,1.1-.5,1.7-.5,1.8-.8,2.5-1.2,2.8-.2.2-.4.5-.4.8,0,.4.2.4,3.9.4,2.8,0,4,0,4.2-.3.3-.3,1.1-2.4,1-2.6,0-.2-.6,0-.6.3s-.3.5-.7.9c-.6.6-.8.7-1.8.6-1,0-1.1,0-1-.6,0-.3.2-.8.3-1.1s.4-1,.6-1.6c.4-1.2.7-1.3,1.3-.5.5.8.7.7,1-.4.2-.5.4-1.2.5-1.5.3-.9,0-.9-.9-.3-.9.6-1.1.7-1.2.3,0-.4.7-3,1.1-3.3.3-.2,1.4,0,1.8.4.2.2.3.5.4.8.2.7.5.5.8-.5.5-1.6.7-1.6-3.8-1.6s-4.1,0-4.1.2Z"/>
    </g>
  </g>
</svg>