<?xml version="1.0" encoding="UTF-8"?>
<svg xmlns="http://www.w3.org/2000/svg" version="1.1" viewBox="0 0 400 600">
  <defs>
    <style>
      .cls-1, .cls-2 {
        fill: #231f20;
      }

      .cls-1, .cls-2, .cls-3 {
        stroke-width: 6px;
      }

      .cls-1, .cls-3 {
        stroke: #003525;
      }

      .cls-4 {
        fill: #00ae9d;
      }

      .cls-2 {
        stroke: #000;
      }

      .cls-5, .cls-3 {
        fill: #fff;
      }

      .cls-6 {
        fill: #f8fcff;
      }

      .cls-7 {
        fill: silver;
      }
    </style>
  </defs>
  <!-- Generator: Adobe Illustrator 28.7.4, SVG Export Plug-In . SVG Version: 1.2.0 Build 166)  -->
  <g>
    <g id="_x32_">
      <g id="Layer_1">
        <g id="suit2">
          <path id="Shirt" class="cls-1" d="M281.2,502.8c5.6,3.7,17.7,7.7,28.6,9.9,0,0,30.8,5.3,37.9,7.7,57.4,22.3,50.4,79.7,50.4,79.7l-395.8-.2s-3.8-63.4,37.2-71.5c7.7-1.5,25.9-8.7,35.6-9.4,0,0,37.4-9,42.8-12.6.9,5.7,11.3-29.5,4-41.3,19,3.1,38.2-.2,68.9,0,42.8.4,77.3,2.9,91.1-.5-8.6,16.4-.8,38.2-.8,38.2Z"/>
          <path d="M196,505.5c-12.2,8.8-5.5,94.8-5.5,94.8h1.8s.1-10.1-.4-19.6-.7-12.2-.9-18.9c-.4-18.4,1.1-37.7,2.7-43.5,3.4-12.1,2.3-12.7,2.3-12.7Z"/>
          <circle cx="200.5" cy="523.5" r="1.2"/>
          <circle cx="199.5" cy="538.7" r="1.2"/>
          <circle cx="198.5" cy="556.7" r="1.2"/>
          <circle cx="199.5" cy="574.6" r="1.2"/>
          <circle cx="200.5" cy="588.7" r="1.2"/>
        </g>
      </g>
      <path id="Shirt-neck" class="cls-2" d="M118,506.4c3.8-10.5,11.4-29.4,4.1-41.2,19,3.1,38.2-.2,68.9,0,42.8.4,77.2,2.7,91-.6-8.6,16.4,3.1,40.7,3.1,40.7l-167.1,1.2Z"/>
      <g id="logos">
        <g>
          <path id="path122" class="cls-5" d="M316.3,562.8c-1.3,2-2,4.3-2,6.9,0,7.1,5.9,12.9,13.1,12.9s13.1-5.8,13.1-12.9-.7-4.8-2-6.8l-1.4-2.6,8.8-15.7h-19.4l-10.2,18.3Z"/>
          <path id="path158" class="cls-4" d="M334.8,569.4c0,4.4-3.6,8-7.9,8s-7.9-3.6-7.9-8,3.6-8,7.9-8,7.9,3.6,7.9,8"/>
          <path id="path168" class="cls-4" d="M333.8,557.4l-5.3-9.3h10.7l-5.3,9.3ZM326.9,578.6c-5.1,0-9.2-4.2-9.2-9.3s.5-3.3,1.3-4.7l8-13.9,8,13.9c.8,1.4,1.3,3,1.3,4.7,0,5.1-4.1,9.3-9.2,9.3M335.3,560.1l8.4-14.6h-16.7l-10.2,17.8c-1,1.8-1.6,3.8-1.6,6.1,0,6.6,5.3,11.9,11.9,11.9s11.9-5.3,11.9-11.9-.6-4.3-1.6-6.1l-1.9-3.2Z"/>
        </g>
        <g>
          <polygon class="cls-7" points="57.6 565.3 58.5 564.8 69.7 572.5 57.6 565.3"/>
          <polygon class="cls-7" points="57 564.9 56.1 564.4 57.1 549.8 57 564.9"/>
          <polygon class="cls-7" points="56 564.9 52.3 567.9 56.7 565.3 56 564.9"/>
          <path class="cls-7" d="M57.2,545.5c-11,0-19.9,8.9-19.9,19.9s8.9,19.9,19.9,19.9,19.9-8.9,19.9-19.9-8.9-19.9-19.9-19.9h0ZM57.2,584.3c-4.5,0-8.8-1.5-12-4.3-3.1-2.7-5.5-7-6.1-11.6,1.4,8.7,9,15.4,18.1,15.4s18.3-8.2,18.3-18.3-1.6-8.3-4-11.4c2.4,1.9,4.5,7.1,4.5,11.4,0,10.4-8.4,18.8-18.8,18.8h0ZM55.5,564l1.6-16.5h.1l.2,17.4,2.8-1.7-2.8-15.7c9.8,0,17.8,8.1,17.8,17.9s-.8,6.1-2.3,8.7l-12.5-10.4-1.2.7,13.6,9.9c0,0,0,.1-.1.2l-15.3-8.8v3.1l15.1,5.8c-3.1,5.2-8.9,8.7-15.4,8.7s-12.3-3.5-15.4-8.7l15.1-5.9v-3.1l-15.3,8.8c0,0,0-.1-.1-.2l13.5-9.9-1.2-.7-12.4,10.4c-1.4-2.6-2.2-5.5-2.2-8.7,0-9.8,7.8-17.7,17.5-17.9l-2.4,15.9,1.1.6h0ZM57.2,546.6c-10.4,0-18.8,8.4-18.8,18.8s1.5,8.2,3.9,11.7c.8,1.5,1.6,2.4,2.8,3.6-4.5-3.6-7.4-9.1-7.4-15.3,0-10.8,8.8-19.6,19.6-19.6s19.8,9.2,19.4,19.6c-.3-10.2-9.2-18.8-19.4-18.8h0Z"/>
        </g>
      </g>
      <path class="cls-3" d="M4.3,594.7c26.7-82.8,66.6-48.5,111.9-86,1.5-1.2-6.1,5.9-6.1,5.9l-5.7,3.2-11.7,5.7-18.3,6.9-9.9,1.9-9.1,3.2-11,4-10,8-7.7,8.9-7.2,10.2-6.3,11.3-5.4,9.8-4.6,11.1s-.5,1.1,1.1-4.1Z"/>
      <path class="cls-3" d="M394,593c-21.6-69.6-74.9-60.7-105.3-86.4-1.4-1.2,3.6,5,3.6,5l5.8,3.7,10.5,5.7,6.6,2.6,10,3.5,13.4,6.1,12.5,6,10.3,6.7,9.5,8,6.6,7.9,5.8,8.7,4.5,9.1,3.8,7.9,2.1,8.3s1.4,1.1.2-2.8Z"/>
      <path d="M173.1,467.8c-5.5,3.5-2.4,37.7-2.4,37.7h.8s-.9-27.8.6-32.6,1-5.1,1-5.1Z"/>
      <circle cx="173.9" cy="481.2" r="1.2"/>
      <circle cx="173.9" cy="491.3" r="1.2"/>
      <g id="ubs-logo-svg-black">
        <path id="Path_1500" class="cls-6" d="M234.7,496.8c-1.8,0-3.6-.4-5.2-.8-.3-.1-.6-1-.8-1.1l-.4-1.2c0-1.1-.1-2.3-.1-2.7v-.7s1.2,0,1.2,0l.2.9c.6,3.2,3,4.8,7.2,4.8s4.5-.7,5.4-2.3c.3-.5.3-.7.3-1.9,0-1.3,0-1.4-.4-2-.8-1.1-1.6-1.5-5.5-2.6-1.2-.3-2.6-.7-3.1-.9-3.4-1.2-5.1-2.9-5.1-5.2,0-2.9,2.3-4.9,6.3-5.7,1.4-.3,4.8-.2,6.2,0,1.4.3,3.2.8,3.3.9,0,0,.2.9.2,1.9,0,1,0,2,.1,2.3v.5c0,0-1.2,0-1.2,0l-.3-1c-.7-2.4-2.2-3.6-4.9-3.9-2.2-.3-4.8.3-5.8,1.3-.8.7-1,1.3-1,2.5s0,1.1.4,1.6c.5.7,1.2,1.1,2.5,1.6.9.3,4,1.2,4.2,1.2s3,1,3.7,1.3c2,.9,3.1,2.2,3.5,3.9.2.6.2,1.3,0,1.9-.3,1.8-1.1,2.9-2.6,3.9-2,1.3-4.5,1.8-8.3,1.6h0ZM186.2,496.7c-4.4-.6-6.4-2.2-7-5.4,0-.5-.1-3.5-.1-7.8v-7h-3.3v-.9h10.8v.9h-1.7s-1.7,0-1.7,0v6.2c0,8.1,0,9.4,1.1,10.9,1,1.4,2.9,2.1,5.8,2.1s5.1-.9,6.1-2.8c.6-1.3.7-1.9.7-9.4v-7h-3.3v-.9h7.9v.9h-3v7.7c0,7.6,0,7.7-.4,8.4-.9,2.2-2.7,3.5-5.7,4.1-1.4.3-4.6.3-6.1.1h0ZM203.1,496.1v-.4s1.7,0,1.7,0h1.6s0-9.7,0-9.7v-9.7s-1.6,0-1.6,0h-1.7s0-.4,0-.4v-.4s6.7,0,6.7,0c4.2,0,7.1,0,7.7.1,2.4.3,4,1,4.9,2.2.8,1.1,1,2.4.6,3.6-.4,1.3-1.2,2.1-2.7,2.8-.9.4-2,.7-3,.9-.4,0-.8.1-1.2.2,0,0,.3,0,.8.1,5.3.4,7.6,2,7.6,5.3s-.6,3-2.2,4.1c-.9.7-2.1,1.1-3.7,1.4-1,.2-1.3.2-8.3.2h-7.2s0-.4,0-.4ZM215.6,495.5c2.3-.4,3.9-1.6,4.4-3.2.3-1,.2-2.9-.2-3.7-.5-1-1.4-1.8-2.5-2.2s-1.9-.5-4.4-.5h-2.4v9.8h2.2c1.5,0,2.4,0,2.9-.1h0ZM215.6,484.8c2.3-.5,3.6-2.1,3.6-4.3,0-2.3-1.7-3.9-4.2-4.1-.9,0-1.7,0-2.6,0h-1.9v4.3c0,2.3,0,4.3.1,4.3.2.1,4.3,0,5-.2h0Z"/>
        <path id="Path_1501" class="cls-6" d="M147.2,502.5c-.4,0-.4-.1-.4-.6s0-.5-.4-.6c-1-.2-2-.5-2.9-.9-2.4-1.3-3.2-3.4-2.2-5.4.7-1.3,2.6-2.4,4.7-2.8,1-.2,1-.4-.1-.4h-.8v-1h.9s.9,0,.9,0v-2.4c0-1.3,0-2.4,0-2.4s-1.1.6-2.3,1.3-2.4,1.4-2.6,1.5-.4.2-.4.3c.1.2.3.3.5.5.4.4.5.4.2.6-.1.2-.4.3-.6.4-.3,0-.4,0-.9-.4-.4-.3-.6-.4-.7-.3s0,.3.3.8c.4.6.4.8.5,1.6,0,.8,0,1.1-.2,1.6-.6,1.5-2.2,2.6-4.3,3-.8.2-1.2.2-2.3.2-1.5,0-2.4-.3-3.6-.8-.3-.1-.6-.3-.9-.4-.2,0-.4.2-.6.3-.4.3-.5.3-.9.1-.4-.1-.8-.6-.8-.8s.2-.3.5-.4l.5-.3-.4-.6c-1.6-2.6,0-5.4,3.7-6.4.7-.2,1.1-.2,2.2-.2,1.7,0,2.5.2,3.9.9,1.1.5,1.4.4.6-.2-.5-.4-.5-.5-.3-.7.1-.2.3-.3.6-.4.3,0,.4,0,.9.4l.6.5,2.9-1.7c1.6-.9,2.9-1.7,2.9-1.8s-1.3-.8-2.9-1.7l-2.9-1.6-.4.3c-.5.3-.5.5,0,.8.5.3.5.3,0,.7l-.4.3-.4-.3c-.5-.4-.6-.4-.9,0-.6.5-.6.5,0,.8.3.1.5.3.5.3,0,.1-.5.6-.7.6-.1,0-2.7-1.4-2.7-1.5,0,0,.6-.3,1.4-.6s1.4-.6,1.4-.6-.2-.2-.4-.3l-.4-.2-1.3.5c-.4.2-.9.4-1.4.5,0-.4.2-.7.4-1.1l.5-1-.3-.2c-.1,0-.3-.1-.5-.2,0,0-.3.5-.6,1.1s-.5,1.1-.5,1.1c0,0-2.8-1.5-2.8-1.6s.6-.6.7-.6c.2,0,.4.1.6.3l.5.3.4-.3c.2-.1.3-.2.4-.4-.1-.1-.3-.3-.5-.4l-.5-.3.3-.3c.4-.4.5-.4,1,0,.1,0,.3.2.5.2.1,0,.8-.6.8-.6,0,0-.5-.4-1.2-.7-1.3-.7-1.4-.9-.8-1.3.7-.6,0-.9,8.1,3.7,4.4,2.5,5.5,3.1,5.5,3.1s0-1.1,0-2.4v-2.4h-1.4v1h-1.2v-1h-1.4v1h-1.2v-2.6l.7.2c.4,0,1,.3,1.5.4.3,0,.7.2,1,.3,0,0,.1-.2.1-.4v-.4l-1.5-.4-1.5-.4,1.5-.4,1.5-.4v-.4c0-.1,0-.3,0-.4,0,0-.7.2-1.5.4l-1.6.4c-.1,0-.2-.3-.2-1.3v-1.3h1.2v1h1.4v-1h1.2v1h1.4v-2.2h.5c.3-.2.6-.2,1,0h.4v6c0,5,0,5.9.2,5.9.2,0,3.9-2.1,10.3-5.8,1.2-.7,2.2-1.2,2.3-1.3.3-.1.7,0,1,.3.6.6.5.6-.7,1.3-.6.4-1.2.7-1.2.7,0,.1.6.6.7.6.2,0,.4-.2.6-.3l.5-.3.4.3.4.3-.5.3-.5.3.4.3c.3.2.5.3.6.2.9-.5.9-.5,1.2-.2.1,0,.3.2.4.3,0,.1-2.6,1.7-2.8,1.6-.2-.4-.4-.7-.5-1.1-.3-.6-.5-1.1-.6-1.1-.2,0-.3.1-.5.2l-.3.2.5,1.1c.2.3.3.7.4,1.1,0,0-.7-.2-1.4-.5l-1.4-.5-.4.3-.4.3.9.3c.5.2,1.2.4,1.5.6l.7.3-1.4.8-1.4.8-.4-.3-.4-.3.5-.3.5-.3-.4-.4c-.1-.1-.3-.2-.4-.4-.2,0-.4.2-.6.3l-.5.3-.4-.3-.4-.3.5-.3.5-.3-.4-.3c-.3-.3-.4-.3-.6-.2-.6.3-5.7,3.2-5.7,3.2.2.2.5.3.8.5.4.2,1.8,1,3,1.7s2.3,1.3,2.3,1.3c.2-.1.4-.3.5-.4.5-.5.8-.5,1.4-.1l.4.3-.4.3c-.5.4-.7.7-.6.8,0,0,.2,0,.3,0,.9-.5,2-.9,2.6-1,3.4-.7,6.4.2,7.9,2.3l.6.8v1.2c0,1.2,0,1.3-.8,2.6,0,0,.2.2.5.4.5.2.5.3.5.5-.2.3-.5.6-.9.8-.2,0-.4,0-.8-.2l-.6-.3-.6.3c-1.2.7-2.7,1-4.2,1-1.9,0-3.3-.4-4.5-1.3-1-.7-1.5-1.3-1.8-2.2-.4-1-.2-2.1.4-3.1.3-.4.3-.6.2-.7s-.2,0-.4.1c-.8.7-.7.7-1.2.5-.2,0-.4-.2-.6-.4-.2-.2-.1-.3.5-.9l.3-.3-2.6-1.5c-1.4-.8-2.7-1.5-2.7-1.5,0,0-.1.8-.1,2.4v2.4s.9,0,.9,0c.9,0,1,.1,1,.5s-.1.5-1,.5c-1.2,0-1.1.2.2.5,1.6.3,3,1,3.9,2,1.2,1.3,1.3,3.1.3,4.5-.7,1-2.5,2-4,2.3-1.4.3-1.4.3-1.4.8s0,.5-.4.6c-.5.1-.4.1-1,0ZM146.8,499.7c0-.4,0-.4.5-.5.3,0,.6,0,.9,0,.4,0,.4.1.5.6s0,.5.4.5c.7,0,2-.6,2.7-1.1,1-.8,1.4-1.4,1.4-2.4,0-.4,0-.8-.2-1.2-.7-1.4-3.1-1.7-4.1-.7-.6.6-.3,1.6.7,2,.4.2,1.4.1,1.9,0,.2,0,.2,0,.2.5s0,.5-.4.6c-1,.2-2.5,0-3-.5-.1-.1-.2-.2-.4-.3-.2,0-.4.2-.5.3-.8.5-2,.7-3,.4h-.5v-.6c0-.5,0-.5.2-.4.4,0,.7,0,1.1,0,.8,0,.9,0,1.3-.3.8-.6.8-1.5,0-2,0,0,0,0,0,0-1.3-.8-3.3-.1-3.8,1.3-.5,1.4.3,3,2,3.8.7.3,2,.7,2.1.6,0-.2.1-.3.1-.5h0ZM135.9,495.6c1.5-.4,2.8-1.2,3.1-2,.3-.6,0-1.3-.6-1.7-.5-.4-.7-.4-1.2-.4-1.1,0-1.9.5-2.1,1.2-.1.5.4,1.1,1,1.4l.5.2-.6.3c-.2.1-.5.2-.7.3-.1,0-.5-.2-.8-.4-.7-.5-1.1-1.1-1-1.7v-.4c0,0-.6,0-.6,0-1-.1-2.1-.7-2.5-1.4-.1-.2,0-.3.4-.6.2-.1.4-.2.6-.3,0,0,.2.2.2.4.2.5,1.1.9,1.9.9,1.1,0,2-.6,2-1.4,0-.8-1-1.4-2.4-1.4-2.5,0-4.7,2.1-4.3,4,.2.7.5,1.2.7,1.2.2,0,.4-.1.5-.2.4-.2.4-.2.8,0,.3.1.5.3.7.5l.2.3-.5.3c-.2.1-.4.2-.5.4,0,.1,1.5.7,2,.8,1,.2,2.1.2,3.1,0h0ZM163.4,495.5c.4-.1.8-.3,1.1-.5.2-.2.2-.2-.2-.5-.5-.3-.6-.6-.2-.9.5-.5.8-.5,1.4-.2l.5.3.3-.5c.3-.4.3-.6.3-1.4s0-1-.4-1.5c-.6-.8-1.6-1.6-2.5-1.8-1.6-.4-3-.2-3.6.7-.4.6-.3,1,.4,1.5.9.6,2.1.6,2.9,0,.2-.2.4-.4.4-.6,0-.3.1-.3.7,0,.6.3.6.4.2.9-.5.6-1.4,1-2.4,1.1h-.6s0,.4,0,.4c.1.6-.2,1.2-.9,1.7-.4.3-.7.5-.9.5-.3,0-.5-.2-.8-.3l-.5-.3h.4c.7-.3,1-.7,1.1-1.2,0-.6-.2-1.1-1-1.3-1.1-.4-2.1-.2-2.7.5-.8,1,0,2.3,1.8,3.1,1,.4,1.7.5,2.8.5.7,0,1.3,0,1.9-.3h0Z"/>
      </g>
      <g>
        <path id="path126" d="M103,563.7c0,0,0,.1.1.2,0,0,0,0,.1,0,0,0,0,0,0,0,0,0,0,0,0,0,.1,0,.2,0,.3,0,.2,0,.4,0,.6,0,2,0,3.6-1.2,3.6-2.7s-1.6-2.7-3.6-2.7-.4,0-.6,0c-.1,0-.2,0-.3,0h0s0,0-.1,0c0,0-.1.1-.1.2v4.7h0ZM103,570.5v3.3h0c0,1.1-1.1,1.9-2.5,1.9h-3.7c-1.4,0-2.5-.8-2.5-1.9v-19.1c0-1,1.1-1.9,2.5-1.9h8.1c6.5,0,11.7,3.9,11.7,8.7s-5.2,8.7-11.7,8.7-.6,0-.9,0c-.2,0-.3,0-.5,0h0c-.2,0-.4.1-.4.3"/>
        <path id="path130" d="M171.3,563.7c0,0,0,.1.1.2,0,0,0,0,.1,0,0,0,0,0,0,0,0,0,0,0,0,0,0,0,.2,0,.3,0,.2,0,.4,0,.6,0,2,0,3.6-1.2,3.6-2.7s-1.6-2.7-3.6-2.7-.4,0-.6,0c0,0-.2,0-.3,0h0s0,0-.1,0c0,0-.1.1-.1.2v4.7h0ZM172,569.8h0s0,0,0,0c0,0-.2,0-.3,0-.2,0-.4.1-.4.3v4h0c0,1.1-1.1,1.9-2.5,1.9h-3.7c-1.4,0-2.5-.8-2.5-1.9v-19.1c0-1,1.1-1.9,2.5-1.9h9.1c5.9,0,10.6,3.5,10.6,7.9s-1.7,4.9-4.3,6.3l3.3,5.9c.1.2.2.5.2.7,0,1-1.1,1.9-2.5,1.9h-4.5c-1.1,0-2-.5-2.4-1.2l-2.6-4.8h0Z"/>
        <path id="path134" d="M134,563c0-1-1.1-1.9-2.5-1.9h-4.3c-.2,0-.4-.1-.4-.3v-1.1c0-.1.2-.3.4-.3h7.5c1.4,0,2.5-.8,2.5-1.9v-2.8c0-1-1.1-1.9-2.5-1.9h-14.1c-1.4,0-2.5.8-2.5,1.9v9.5h0v9.5c0,1,1.1,1.9,2.5,1.9h14.1c1.4,0,2.5-.8,2.5-1.9v-2.8c0-1-1.1-1.9-2.5-1.9h-7.5c-.2,0-.4-.1-.4-.3v-1.1c0-.1.2-.3.4-.3h4.3c1.4,0,2.5-.8,2.5-1.9v-2.6Z"/>
        <path id="path138" d="M145.3,559.8v14.1c0,1,1.1,1.9,2.5,1.9h3.7c1.4,0,2.5-.8,2.5-1.9h0v-14.1c0-.1.2-.3.4-.3h3.7c1.4,0,2.5-.8,2.5-1.9v-2.8c0-1-1.1-1.9-2.5-1.9h-16.8c-1.4,0-2.5.8-2.5,1.9v2.8c0,1,1.1,1.9,2.5,1.9h3.7c.2,0,.4.1.4.3"/>
        <path id="path142" d="M202.1,558.7c-4.2,0-7.5,2.5-7.5,5.6s3.4,5.6,7.5,5.6,7.5-2.5,7.5-5.6-3.4-5.6-7.5-5.6M218.3,564.4c0,6.7-7.3,12.1-16.2,12.1s-16.2-5.4-16.2-12.1,7.3-12.1,16.2-12.1,16.2,5.4,16.2,12.1"/>
        <path id="path146" d="M228.5,566.4c0-.1.2-.3.4-.3s.2,0,.3,0l11.1,9.1s0,0,0,0c.3.2.8.4,1.3.4h2.4c1.1,0,2-.7,2-1.5v-19.5c0-1-1.1-1.9-2.5-1.9h-3.7c-1.4,0-2.5.8-2.5,1.9h0v7.3h0c0,.2-.2.3-.4.3s-.2,0-.3,0h0l-10.9-8.9s0,0,0,0c-.3-.2-.8-.4-1.3-.4h-2.5c-1.1,0-2,.7-2,1.5v19.5c0,1,1.1,1.9,2.5,1.9h3.7c1.4,0,2.5-.8,2.5-1.9h0v-7.5h0Z"/>
        <path id="path150" d="M264.8,567.2h-4.5c-.2,0-.4-.1-.4-.3s0,0,0,0l2.3-4.9c0-.1.2-.2.3-.2s.3,0,.4.2l2.3,4.9s0,0,0,0c0,.1-.2.3-.4.3M277.7,574h0l-9-20.1c-.3-.6-1-1-1.9-1h-8.4c-.9,0-1.6.4-1.9,1l-9,20.1c0,.1,0,.3,0,.4,0,.7.8,1.3,1.8,1.3h5.3c.9,0,1.6-.4,1.9-1h0s0,0,0,0l.4-.9c0-.1.2-.2.3-.2h10.8c.2,0,.3,0,.3.2l.4.9s0,0,0,0h0c.3.6,1,1,1.9,1h5.3c1,0,1.8-.6,1.8-1.3s0-.3,0-.4"/>
        <path id="path154" d="M283.1,565.7c-2.1-1.4-3.4-3.4-3.4-5.6,0-4.1,4.5-7.5,10-7.5s4.8.4,5.7.7c.9.3,1.6,1,1.6,1.8v2.4c0,1-1.1,1.8-2.4,1.8s-1.8-.5-3-.5-2.2.7-2.2,1.7.3.9.7,1.2c.1,0,.2.1.3.2,1,.6,2.3,1.3,2.7,1.7,0,0,0,0,0,0,1.8,1.3,2.9,3.2,2.9,5.2,0,4.1-4.5,7.4-10,7.4s-4.8-.4-5.7-.7c-.9-.3-1.6-1-1.6-1.8v-2.4c0-1,1.1-1.8,2.4-1.8s1.8.5,3,.5,2.2-.7,2.2-1.7-.4-1-.9-1.3c-.4-.2-1.7-1-2.4-1.4"/>
      </g>
    </g>
  </g>
</svg>