<?xml version="1.0" encoding="UTF-8"?>
<svg xmlns="http://www.w3.org/2000/svg" version="1.1" xmlns:xlink="http://www.w3.org/1999/xlink" viewBox="0 0 400 600">
  <defs>
    <style>
      .cls-1 {
        fill: #36250d;
      }

      .cls-1, .cls-2, .cls-3, .cls-4, .cls-5, .cls-6, .cls-7, .cls-8, .cls-9 {
        fill-rule: evenodd;
      }

      .cls-2 {
        fill: #ff6319;
      }

      .cls-10 {
        fill: $[accent];
      }

      .cls-11 {
        fill: url(#linear-gradient-2);
      }

      .cls-3 {
        fill: #432918;
      }

      .cls-12 {
        stroke: $[secondary];
      }

      .cls-12, .cls-6, .cls-13 {
        fill: $[primary];
      }

      .cls-12, .cls-14, .cls-13 {
        stroke-width: 6px;
      }

      .cls-15 {
        fill: #b12b28;
      }

      .cls-4 {
        fill: #613e18;
      }

      .cls-5, .cls-16 {
        stroke: #2e3192;
        stroke-miterlimit: 9.9;
        stroke-width: .3px;
      }

      .cls-5, .cls-9 {
        fill: #002876;
      }

      .cls-7 {
        fill: url(#linear-gradient-3);
      }

      .cls-16 {
        fill: none;
      }

      .cls-8 {
        fill: #634014;
      }

      .cls-17 {
        display: none;
      }

      .cls-14 {
        fill: #333;
      }

      .cls-14, .cls-13 {
        stroke: #000;
      }

      .cls-18 {
        fill: url(#linear-gradient);
      }
    </style>
    <linearGradient id="linear-gradient" x1="55.4" y1="1355.5" x2="80.3" y2="1355.5" gradientTransform="translate(0 -801.2)" gradientUnits="userSpaceOnUse">
      <stop offset="0" stop-color="#e1be78"/>
      <stop offset="1" stop-color="#e3ab36"/>
    </linearGradient>
    <linearGradient id="linear-gradient-2" x1="53.5" y1="1345" x2="79.7" y2="1360.2" gradientTransform="translate(0 -801.2)" gradientUnits="userSpaceOnUse">
      <stop offset="0" stop-color="#e1be78"/>
      <stop offset=".3" stop-color="#fffad1"/>
      <stop offset=".8" stop-color="#c69632"/>
      <stop offset="1" stop-color="#fcdc99"/>
    </linearGradient>
    <linearGradient id="linear-gradient-3" x1="56.3" y1="1342.5" x2="79.3" y2="1342.5" gradientTransform="translate(0 -801.2)" gradientUnits="userSpaceOnUse">
      <stop offset="0" stop-color="#ffe3a8"/>
      <stop offset="1" stop-color="#d2a249"/>
    </linearGradient>
  </defs>
  <!-- Generator: Adobe Illustrator 28.7.4, SVG Export Plug-In . SVG Version: 1.2.0 Build 166)  -->
  <g>
    <g id="_x31_">
      <g id="Layer_1">
        <g id="suit2">
          <path id="Shirt" class="cls-13" d="M281.2,502.8c5.6,3.7,17.7,7.7,28.6,9.9,0,0,30.8,5.3,37.9,7.7,57.4,22.3,50.4,79.7,50.4,79.7l-395.8-.2s-3.8-63.4,37.2-71.5c7.7-1.5,25.9-8.7,35.6-9.4,0,0,37.4-9,42.8-12.6.9,5.7,11.3-29.5,4-41.3,19,3.1,38.2-.2,68.9,0,42.8.4,77.3,2.9,91.1-.5-8.6,16.4-.8,38.2-.8,38.2Z"/>
          <path d="M196,505.5c-12.2,8.8-5.5,94.8-5.5,94.8h1.8s.1-10.1-.4-19.6-.7-12.2-.9-18.9c-.4-18.4,1.1-37.7,2.7-43.5,3.4-12.1,2.3-12.7,2.3-12.7Z"/>
          <circle cx="200.5" cy="523.5" r="1.2"/>
          <circle cx="199.5" cy="538.7" r="1.2"/>
          <circle cx="198.5" cy="556.7" r="1.2"/>
          <circle cx="199.5" cy="574.6" r="1.2"/>
          <circle cx="200.5" cy="588.7" r="1.2"/>
          <g class="cls-17">
            <path class="cls-14" d="M-.1,599.8s-6.3-40.2,22.5-62.8c8.8-6.9,40.4-10,54.5-14.7,7.4-2.5,40.8-17.1,43.2-18.7,1,6.1,2.5,55.6,20.3,96.3.5,1.1-140.5-.2-140.5-.2h0Z"/>
            <path class="cls-14" d="M395.7,599.8s6.3-40.2-22.5-62.8c-8.8-6.9-40.4-10-54.5-14.7-7.4-2.5-40.8-17.1-43.2-18.7-1,6.1-2.5,55.6-20.3,96.3-.5,1.1,140.5-.2,140.5-.2h0Z"/>
          </g>
        </g>
      </g>
      <path id="Shirt-neck" class="cls-13" d="M118,506.4c3.8-10.5,11.4-29.4,4.1-41.2,19,3.1,38.2-.2,68.9,0,42.8.4,77.2,2.7,91-.6-8.6,16.4,3.1,40.7,3.1,40.7l-167.1,1.2Z"/>
      <g id="logos">
        <g id="gulf">
          <g id="g13034">
            <path id="path12502" class="cls-6" d="M330.8,532.7c-9.2,0-17,5.4-20.2,13.5-.6.1-1.9,1-2.5,2.2-1.3,2.8-1.4,9.8-.1,12.3.6,1.3,1.8,2,2.6,2.3,3.3,8.3,11,13.7,20.3,13.6,9.2,0,17-5.3,20.3-13.6.8-.3,2-1,2.6-2.3,1.3-2.5,1.2-9.5-.1-12.3-.6-1.2-1.9-2.1-2.5-2.2-3.3-8.1-11-13.6-20.2-13.5M330.8,575.5c-8.9,0-16.3-5.3-19.3-13.2-.6-.2-1.5-.6-2.2-1.7-1.5-2.4-1.3-9.3,0-11.8.7-1.2,1.6-1.5,2.2-1.7,3-7.9,10.5-13.3,19.3-13.2,8.9,0,16.3,5.3,19.3,13.2.6.2,1.5.5,2.2,1.7,1.5,2.5,1.6,9.3,0,11.7-.7,1.1-1.6,1.5-2.2,1.7-3,7.9-10.4,13.4-19.3,13.4"/>
            <path id="path12506" class="cls-6" d="M330.8,574.4c-8.6,0-15.8-5.3-18.6-13-1-.2-1.4-.4-1.9-1.1-1.5-2.3-1.5-9,0-11.3.4-.7.9-.9,1.9-1.1,2.7-7.8,10-13.1,18.6-13,8.6,0,15.8,5.3,18.6,13,1,.2,1.4.4,1.9,1.1,1.5,2.3,1.5,9,0,11.3-.4.7-.9.9-1.9,1.1-2.7,7.8-10,13.1-18.6,13"/>
            <path id="path12510" class="cls-9" d="M322.4,552.2v-2.1c-12.3-5.4-14.6,12.3-2.9,9.5v.3h3.6v-6h-5.1v2h1.5s0,1.6,0,1.6c-6.4,2.1-5.2-9.7,2.9-5.4"/>
            <path id="path12514" class="cls-16" d="M322.4,552.2v-2.1c-12.3-5.4-14.6,12.3-2.9,9.5v.3h3.6v-6h-5.1v2h1.5s0,1.6,0,1.6c-6.4,2.1-5.2-9.7,2.9-5.4h0Z"/>
            <path id="path12518" class="cls-5" d="M325.6,553.9h3.4v3.2c-.1,1.2,2.5,1.3,2.8.2v-3.4h3.4v6h-3.4v-.5c-4,1.2-6,.2-6.2-1.6v-4Z"/>
            <path id="path12520" class="cls-9" d="M337.2,550.3h3.4v9.6h-3.4v-9.6Z"/>
            <path id="path12524" class="cls-16" d="M337.2,550.3h3.4v9.6h-3.4v-9.6Z"/>
            <path id="path12528" class="cls-9" d="M349.4,552.6v-1.8c-3.1-1.2-5.3-1.1-5.4.8v2.3s-1.6,0-1.6,0v2.2s1.6,0,1.6,0v3.8s3.4,0,3.4,0v-3.9s1.6,0,1.6,0v-2.1h-1.6v-1.3c.1-.7,1.1-.5,2,0"/>
            <path id="path12532" class="cls-16" d="M349.4,552.6v-1.8c-3.1-1.2-5.3-1.1-5.4.8v2.3s-1.6,0-1.6,0v2.2s1.6,0,1.6,0v3.8s3.4,0,3.4,0v-3.9s1.6,0,1.6,0v-2.1h-1.6v-1.3c.1-.7,1.1-.5,2,0h0Z"/>
            <path id="path12536" class="cls-9" d="M330.8,574.4c-8.6,0-15.8-5.3-18.6-13-1-.2-1.4-.4-1.9-1.1-1.5-2.3-1.5-9,0-11.3.4-.7.9-.9,1.9-1.1,2.7-7.8,10-13.1,18.6-13,8.6,0,15.8,5.3,18.6,13,1,.2,1.4.4,1.9,1.1,1.5,2.3,1.5,9,0,11.3-.4.7-.9.9-1.9,1.1-2.7,7.8-10,13.1-18.6,13M309.2,548.8c.7-1.1,1.1-1.3,2.2-1.7,3-7.9,10.5-13.2,19.3-13.2,8.9,0,16.3,5.3,19.3,13.2,1.1.4,1.5.6,2.2,1.7,1.6,2.6,1.6,9,0,11.7-.7,1.1-1.1,1.3-2.2,1.7-3,8-10.5,13.4-19.3,13.3-8.9,0-16.3-5.2-19.3-13.2-1.1-.4-1.6-.8-2.3-1.9-1.3-2.4-1.3-9,.1-11.7"/>
            <path id="path12540" class="cls-2" d="M330.8,536.1c7.7,0,14.3,4.8,17.1,11.6-11.4-1.5-22.8-1.5-34.1,0,2.7-6.8,9.4-11.7,17.1-11.7M348,561.4c-2.6,7-9.4,12-17.2,12s-14.6-5-17.2-12.1c11.5,1.6,23,1.6,34.5,0"/>
          </g>
        </g>
        <g id="puma">
          <g id="M-02-Footer_desktop">
            <g id="puma_logo_footer">
              <path id="Shape" d="M132.4,470.7c-.3,0-.5,1-1.1,1.5-.4.3-.8.3-1.1.8-.1.1,0,.5-.2.7-.2.6-1,.6-1,1.2s.6.8,1.2,1.3c.4.4.5.6,1,.8.4.1,1.1-.3,1.6-.1.5.1,1,.3,1.1.7s0,1.2-.6,1c-.2,0-1.1-.3-2.1-.2-1.3.1-2.7.5-2.8,1.9,0,.8.9,1.7,1.8,1.5.6-.1.3-.9.7-1.3.5-.5,3.1,1.6,5.5,1.6s1.8-.3,2.5-1c0,0,.2-.2.3-.2s.3.1.3.1c2,1.6,3.4,4.7,10.6,4.7,1,0,2.2.5,3.1,1.3.8.8,1.3,2,1.8,3.2.8,1.9,2,3.6,4,5.6.1.1,1.7,1.4,1.9,1.4,0,0,.2.3.1.5,0,1.2-.2,4.6,2.4,4.8.6,0,.5-.4.5-.7,0-.6-.1-1.2.2-1.8.4-.8-.9-1.2-.9-3,0-1.4-1.1-1.2-1.7-2.1-.3-.6-.6-1-.6-1.7.1-4.1-.9-6.9-1.4-7.5-.4-.5-.8-.7-.4-1,2.2-1.4,2.7-2.7,2.7-2.7,1.2-2.7,2.2-5.2,3.6-6.2.3-.2,1-.8,1.5-1,1.3-.6,2-1,2.4-1.4.6-.6,1.1-1.9.5-2.6-.8-1-2-.2-2.5.1-4,2.4-4.6,6.5-6,8.8-1.1,1.9-2.9,3.3-4.5,3.4-1.2.1-2.5-.1-3.8-.7-3.1-1.4-4.8-3.1-5.3-3.4-.8-.6-7.3-7-12.6-7.3,0,0-.6-1.3-.8-1.3-.4,0-.8.8-1.1.9-.3.1-.7-.8-1-.8Z"/>
            </g>
          </g>
        </g>
        <path id="protein" class="cls-10" d="M145.4,571.6v20.2h-8.1v-6.6c0-.8.2-1.6.7-2.3l7.4-11.3ZM124.3,571.6v20.2h8.1v-6.6c0-.8-.2-1.6-.7-2.3l-7.4-11.3ZM181.5,583.8v4.8h3v-4.8l4.4-7.7h-3.3l-2.6,4.8-2.6-4.8h-3.3l4.4,7.7ZM198.2,576h-5.2v12.5h3v-4.5h2.2c2.8,0,4.5-1.5,4.5-4s-1.5-4-4.5-4ZM195.9,581.7v-3.1h1.7c1.1,0,1.8.5,1.8,1.6s-.6,1.6-1.8,1.6h-1.7ZM206.8,588.6h3v-5h1.2l3,4.9h3.4l-3.3-5.3c1.8-.4,2.8-1.7,2.8-3.5s-1.7-3.7-4.5-3.7h-5.6v12.5ZM209.7,581.5v-2.8h2.3c1,0,1.6.5,1.6,1.4s-.5,1.4-1.6,1.4h-2.3ZM227.1,588.8c3.9,0,6.5-2.5,6.5-6.5s-2.6-6.5-6.5-6.5-6.5,2.5-6.5,6.5,2.6,6.5,6.5,6.5ZM227.1,586c-1.9,0-3.3-1.4-3.3-3.7s1.3-3.7,3.3-3.7,3.3,1.4,3.3,3.7-1.3,3.7-3.3,3.7ZM240.2,588.6h3v-10h3.8v-2.5h-10.6v2.5h3.8v10h0ZM260.4,588.6v-2.6h-6.3v-2.6h5.5v-2.4h-5.5v-2.4h6.1v-2.6h-9.1v12.5h9.2ZM269.1,576h-3v12.5h3v-12.5ZM277.8,588.6v-7.7l4.9,7.6h3.3v-12.5h-2.9v7.8l-4.9-7.8h-3.3v12.5h2.9ZM169.7,576l-4.1,7.7-4.1-7.7h-3.3v12.5h2.9v-7.6l3.3,6.1h2.6l3.3-6.1v7.6h2.9v-12.5h-3.4Z"/>
        <g>
          <path d="M93.6,574.5v1h8v.9h-8v1h8v.9h-9.1v-4.7h9.1v.9h-8ZM90.3,575.6h-6.2v-1.9h-1v4.7h1v-1.7h6.2v1.7h1v-4.7h-1v1.9ZM73.4,574.7v2.6c0,.6.5,1,1,1,0,0,0,0,0,0h7.4v-1h-7.3c0,0-.1,0-.1-.1v-2.3c0,0,0-.1.2-.1h7.2v-1h-7.4c-.6,0-1,.5-1,1h0ZM71.2,575.6h-6.5c0,0-.2,0-.2-.2,0,0,0,0,0,0v-.7c0,0,0-.2.2-.2,0,0,0,0,0,0h7.4v-.9h-7.6c-.6,0-1,.5-1,1v.7c0,.6.5,1,1,1h6.5c0,0,.2,0,.2.2,0,0,0,0,0,0h0v.7c0,0,0,.2-.2.2,0,0,0,0,0,0h-7.4v.9h7.6c.6,0,1-.5,1-1h0v-.7c0-.6-.5-1-1-1h0ZM62.3,578.3h0s-1,0-1,0v-.2c0-.6-.5-1-1-1h-5.7v1.2h-1v-4.7h7.7c.6,0,1,.5,1,1h0v1c0,.6-.4,1-1,1,.6.3,1,.9,1,1.6h0ZM61.2,574.9c0,0,0-.2-.2-.2h-6.6s0,1.4,0,1.4h6.6c0,0,.2,0,.2-.2h0v-1ZM52.3,574.7v2.6h0c0,.6-.5,1-1,1,0,0,0,0,0,0h-6.5c-.6,0-1-.5-1-1,0,0,0,0,0,0v-2.6c0-.6.5-1,1-1h6.6c.6,0,1,.5,1,1ZM51.2,574.9c0,0,0-.2-.2-.2h-6.2c0,0-.2,0-.2.1v2.3c0,0,0,.1.1.1h6.3c0,0,.2,0,.2-.2v-2.3ZM42.4,574.7v1.4c0,.6-.5,1-1,1,0,0,0,0,0,0h-6.7v1.2h-1v-4.7h7.7c.6,0,1,.5,1,1,0,0,0,0,0,0h0ZM41.4,574.9c0,0,0-.2-.2-.2h-6.5s0,1.4,0,1.4h6.6c0,0,.2,0,.2-.2v-1Z"/>
          <g>
            <path class="cls-18" d="M80.2,540.6c-1.3-.5-2.6-1-4-1.3-1.9-.4-3.8-.8-5.7-.9-.9,0-1.8-.1-2.7-.1h0c-.9,0-1.8,0-2.7.1-1.9.2-3.8.4-5.7.9-1.3.3-2.7.8-4,1.3,0,0,0,0,0,0,0,0,.2,9.7.3,14.4,0,1.4.3,2.8.8,4.1.5,1.5,1.3,2.9,2.2,4.3.9,1.4,2.1,2.6,3.3,3.7.5.4,1,.8,1.6,1.2.9.5,1.8,1,2.7,1.4.3.1.6.3.8.3.3.1.5.2.8.2.3,0,.5-.1.8-.2.2,0,.5-.2.8-.3.9-.4,1.9-.8,2.7-1.4.6-.3,1.1-.7,1.6-1.2,1.3-1.1,2.4-2.3,3.3-3.7.9-1.3,1.6-2.8,2.2-4.3.5-1.3.7-2.7.8-4.1.1-4.8.3-14.4.3-14.4,0,0,0,0,0,0Z"/>
            <path class="cls-15" d="M67.5,565.1h-7.1c.5.6,1.1,1.1,1.7,1.6.5.4,1,.8,1.5,1.1.8.5,1.7,1,2.6,1.3.3.1.6.2.8.3.2,0,.3.1.4.2v-4.6h0ZM67.5,559.8c-1.1,0-2.1-.5-2.9-1.2,0,0-.1,0-.2-.1h-7.8c0,.2.1.3.2.5.3.8.7,1.6,1.1,2.4h9.6v-1.6ZM79.6,551.8h-6.9v3h6.8c0-.9,0-1.9,0-3h0ZM79.7,545.4h-11.8v2.9h11.7c0-1,0-2,0-2.9h0Z"/>
            <g id="schatten">
              <path class="cls-4" d="M79.6,558h0s0,0,0,0h0Z"/>
              <path class="cls-4" d="M77.1,563.4c-.9,1.4-2.1,2.6-3.3,3.7-.5.4-1,.8-1.6,1.2-.9.5-1.8,1-2.7,1.4-.3.1-.6.3-.8.3-.3.1-.5.2-.8.2-.3,0-.5-.1-.8-.2-.2,0-.5-.2-.8-.3-.9-.4-1.9-.8-2.7-1.4-.6-.3-1.1-.7-1.6-1.2-1.1-.9-2-1.9-2.9-3h0c.8,1.2,1.8,2.2,2.9,3.1.5.4,1.1.8,1.6,1.2.8.5,1.7,1,2.6,1.4.3.1.6.2.8.3.3.1.5.2.8.2.3,0,.5-.1.8-.2.2,0,.5-.2.8-.3.9-.4,1.9-.8,2.7-1.4.6-.3,1.1-.7,1.6-1.2,1.3-1.1,2.4-2.3,3.3-3.7.9-1.3,1.6-2.8,2.2-4.3.2-.4.3-.9.4-1.3-.2.6-.4,1.2-.4,1.2-.5,1.5-1.3,2.9-2.2,4.3Z"/>
              <path class="cls-4" d="M79.8,541h0c-1.2-.5-2.5-.9-3.8-1.3-1.8-.4-3.6-.7-5.5-.9-.9,0-1.7-.1-2.6-.1h0c-.9,0-1.7,0-2.6.1-1.8.2-3.7.4-5.5.9-1.3.3-2.6.7-3.8,1.2h0v.2s0,0,0,0h0c1.2-.5,2.5-.9,3.8-1.3,1.8-.4,3.6-.7,5.5-.9.9,0,1.7-.1,2.6-.1h0c.9,0,1.7,0,2.6.1,1.8.2,3.7.4,5.5.9,1.3.3,2.6.7,3.8,1.2h0s0,0,0,0v-.2s0,0,0,0Z"/>
              <path class="cls-4" d="M65.2,542.4c.8,0,1.6-.1,2.4-.1v-.2c-.8,0-1.5,0-2.4.1-1.8.2-3.7.4-5.4.9-1.3.3-2.6.7-3.8,1.3h0v.2h0c1.2-.5,2.5-.9,3.8-1.2,1.8-.4,3.6-.8,5.5-.9Z"/>
              <path class="cls-8" d="M72.7,555.3h6.8c0,0,0-.1,0-.2h-6.8v.2Z"/>
              <path class="cls-3" d="M76.3,560.5h0c0,.1,0,.1,0,.1-.3,0-.5.2-.7.4h0s0,0,0,0h0c0,0,0-.1,0-.1.2-.2.5-.3.7-.4,0,0,0,0,0,0ZM75,559.7c-.2,0-.4.2-.6.4-.1.1-.2.3-.3.4,0,0,0,0,0,0,0-.1.1-.3.2-.4.2-.2.4-.3.6-.4,0,0,0,0,0,0h0c0,0,0,0,0,0h0ZM73.5,559.3c-.3.2-.6.4-.7.8,0,.2-.1.3-.1.5,0,0,0,0,0,0h0c0-.2,0-.3.1-.5.2-.3.4-.6.7-.7,0,0,0-.1,0-.2,0,0,0,0,0,0h0ZM71.6,559.7c-.1.1-.2.2-.3.3-.2.3-.2.6-.2,1,0-.3,0-.6.2-.8,0-.1.2-.2.3-.3,0,0,0-.1,0-.2h0s0,0,0,0h0ZM68.6,562.2s0,0,0,0c0,0,0,0,0,0-.1-.1-.2-.2-.2-.4h0c0,.2,0,.3.2.5,0,0,0,0,0,0h0ZM74.9,556.1c-.2,0-.4.2-.5.4-.1.1-.2.3-.3.5,0,0,0,0,0,0h0c0-.2.2-.3.3-.4.1-.2.3-.3.5-.4,0,0,0,0,0-.2h0s0,0,0,0h0ZM76.8,556.5c-.2,0-.5.1-.7.3-.2.1-.3.3-.4.5,0,0,0,0,0,0,.1-.2.2-.3.4-.4.2-.2.4-.3.7-.3,0,0,0,0,0,0h0c0,0,0,0,0,0h0ZM78.2,557.4s0,0,0,0c-.3,0-.5.1-.7.3,0,0-.1,0-.2.1,0,0,0,0,0,0h0s0,0,.1,0c.2-.2.5-.3.8-.3,0,0,0,0,0-.1h0ZM69.9,559.8h0c0,.2-.1.3-.3.3-.2,0-.4,0-.5,0-.1.1-.3.2-.4.1-.1,0-.2-.1-.3-.2,0,0,0-.1,0-.1h0c-.1,0-.3,0-.4,0h0c.1.1.3.1.4.1h0c0,0,0,0,0,.1,0,.1.2.2.3.2.2,0,.3,0,.4-.1.1.1.3.2.5,0,.1,0,.2-.2.2-.3,0,0,0,0,0-.1h0ZM70.2,563.4c-.2.1-.4.1-.6,0,0,0-.1-.1-.2-.2,0,0,0,0,0,0-.1.1-.3.2-.5.2-.2,0-.4-.1-.5-.3,0-.1-.1-.2-.1-.4h0c0,.2,0,.4.1.5,0,.2.3.2.4.3.2,0,.3,0,.5-.2,0,0,0,0,0,0,0,0,.1.1.2.2.2.1.4.1.6,0,.2-.1.3-.3.3-.6,0,.2-.1.4-.3.4ZM74.6,564.3c-.1,0-.3.1-.4.2-.2.1-.3.3-.4.5,0,0,0,0,0,0h0c0-.2.2-.3.4-.4.1,0,.3-.1.4-.2,0,0,0,0,0-.1s0,0,0,0h0ZM73.6,563.7s0,0,0,0c-.4.1-.7.4-.9.8h0s0,0,0,0c.2-.3.5-.6.9-.7,0,0,0,0,0-.1h0ZM71.9,563.6c-.2.2-.3.3-.4.5,0,.2-.1.3,0,.5,0,0,0,0,0,0h0c0-.2,0-.3,0-.4.1-.2.2-.4.4-.5,0,0,0-.1,0-.2,0,0,0,0,0,0h0ZM70.4,564.2c-.2.2-.3.5-.2.7h0c0-.2,0-.4.2-.6,0,0,0,0,0-.1,0,0,0,0,0,0ZM69.6,565.6h0s0,0,0,0c0-.1-.1-.2-.1-.3,0-.1,0-.2,0-.3h0c0,.1,0,.3,0,.4,0,.1,0,.2.1.3h0ZM70.3,567.1c-.1.1-.3.1-.4,0-.1,0-.3-.1-.3-.3,0,0,0,0,0,0,0,.2-.3.3-.5.4-.1,0-.3,0-.4-.1,0,0-.1-.2-.1-.3h0c0,.3,0,.4.1.4.1,0,.3.1.4.1.2,0,.4-.2.5-.4,0,0,0,0,0,0,0,.1.2.2.3.3.2,0,.3,0,.4,0,.1-.1.2-.3.2-.5,0,.1,0,.3-.2.3h0ZM68.7,566.5h0c0,0,0,0,0,0-.2,0-.3-.2-.3-.4h0c0,.2.1.4.3.5h0ZM56.6,546.9h0s0,0,0,0h0c0,0,0-.2,0-.2h0c0,.1,0,.2,0,.3h0ZM57,553.5h0s0,0,0,0c0,0,0-.1-.1-.2,0,0,0-.1,0-.2h0c0,0,0,.2,0,.3,0,0,0,.1,0,.1h0ZM58.7,554h0c0,.2-.1.3-.2.3-.1,0-.3.1-.5,0-.1,0-.2-.1-.3-.2,0,0,0,0-.1,0-.1,0-.2.1-.3.2-.2.1-.5,0-.6-.2,0,0-.1-.2-.1-.3h0c0,.1,0,.3.1.4.1.2.4.3.6.2.1,0,.2-.1.3-.2,0,0,0,0,0,0,0,0,.2.2.3.2.2,0,.3,0,.5,0,.2,0,.3-.3.2-.4h0ZM58.2,550.8c0,.2,0,.3-.2.4-.2.1-.5,0-.7-.2h0s0,0-.1,0c-.1.1-.3.2-.5.1-.2,0-.3-.1-.4-.3,0,0,0-.1,0-.2,0,0,0,.2,0,.2,0,.2.2.3.4.3.2,0,.4,0,.5-.2,0,0,0,0,0,0,.1.3.4.3.7.2.2-.1.3-.2.3-.5h0ZM56.7,550.2s0,0,0,0c0,0,0,0,0,0,0,0-.1-.2-.1-.3,0,.1,0,.3.1.4h0ZM59.2,551c-.2.2-.3.4-.4.7,0,.2,0,.4,0,.5,0-.1,0-.3,0-.4,0-.2.2-.5.3-.6,0,0,0,0,0,0h0c0-.1,0,0,0,0h0ZM60.7,550.5c-.5.3-.7.8-.6,1.4h0c0-.5.2-1,.7-1.2,0,0,0-.1,0-.2h0s0,0,0,0h0ZM61.5,551.4s0,0,0,0h0c.2-.4.5-.8.9-1.1,0,0,0,0,0,0h0c0,0,0,0,0,0-.4.3-.8.7-1,1.2h0ZM59.3,547.9c-.1,0-.2.2-.3.3-.2.3-.2.6-.2.9,0,0,0,0,0,0h0c0-.3,0-.6.2-.8,0-.1.2-.2.3-.3h0v-.2s0,0,0,0h0ZM60.9,547.4c-.2,0-.3.2-.5.4-.2.2-.3.4-.3.7,0,0,0,0,0,0,0-.2.2-.4.3-.6.1-.2.3-.3.4-.4,0,0,0,0,0-.1h0c0,0,0,0,0,0h0ZM62.9,547.4c-.2,0-.5.1-.7.2-.2.1-.4.4-.5.6,0,0,0,0,0,0,0-.2.2-.4.4-.6.2-.1.4-.2.7-.3,0,0,0,0,0,0h0c0,0,0,0,0,0h0ZM63.7,548.3h0c.2-.2.5-.3.8-.3,0,0,0,0,0,0h0c0,0,0,0,0,0-.3,0-.7.2-1,.4,0,0,0,0,0,0h.1ZM59.7,544.2c-.3.2-.5.4-.7.6-.2.3-.2.6-.2.9,0,0,0,0,0,0,0-.3.1-.5.2-.7.2-.2.4-.4.7-.6,0,0,0-.1,0-.2h0s0,0,0,0ZM61.9,543.7s0,0,0,0c-.2.2-.4.3-.7.5-.2.2-.3.5-.4.8,0,0,0,0,0,0h0c0-.2.2-.5.3-.7.2-.2.4-.4.6-.5,0,0,0,0,0,0h0ZM64.1,543.6c-.3.1-.6.3-.9.5-.2.2-.3.4-.3.7,0,0,0,0,0,0,0-.2.2-.4.3-.6.3-.2.6-.4.9-.5,0,0,0,0,0,0h0c0-.1,0,0,0,0h0ZM66,544.5c-.3,0-.5,0-.8,0-.2,0-.3.2-.4.3,0,0,0,0,0,0h0c.1,0,.2-.1.3-.2.3,0,.5,0,.8,0s0,0,0,0h0c0-.2,0-.1,0-.1h0ZM58.3,547.5c0,.2-.1.2-.3.3-.1,0-.3.1-.5,0-.1,0-.2-.1-.3-.2,0,0,0,0,0,0-.1,0-.2.1-.3.2-.2,0-.4,0-.6-.2,0,0,0,0,0,0h0s0,0,0,0h0s0,0,0,0h0c0,0,0,0,0,0,0,.1,0,.2,0,.4.1.2.4.3.6.2.1,0,.2-.1.3-.2h0c0,0,.2.2.3.2.2,0,.3,0,.5,0,0,0,.2-.1.2-.2,0,0,0-.2,0-.3,0,0,0,0,0,0h0ZM65.8,546.3s0,0,0,0c0,0,0,0,0,0-.5-.4-1.2-.7-1.9-.7-1.9,0-3.9.5-5.6,1.4,0,0,0,0,0,0,0,0,0,0,0,0,1.7-.9,3.6-1.4,5.6-1.4.7,0,1.4.3,1.9.7,0,0,0,0,0,0,0,0,0,0,0,0,0-.1,0-.2,0-.3,0,0,0,.1,0,.2h0ZM63,549.3c-.2,0-.4-.1-.6-.1-1.5,0-2.9.4-4.2,1.2,0,0,0,0,0,0,0,0,0,0,0,.1,0,0,0,0,0,0,1.3-.7,2.7-1.1,4.2-1.2.2,0,.4,0,.6.1,0,0,0,0,0,0v-.2h0ZM63,552.3h0s0,0,0,0c-.8,0-1.5,0-2.2.3-.8.2-1.5.6-2.2,1,0,0,0,0,0,0,0,0,0,0,0,0,.7-.4,1.4-.7,2.2-1,.7-.2,1.5-.3,2.2-.3h0v-.2ZM70.8,558.9c-.3.2-.6.4-1,.5h0c.3,0,.6-.2.9-.4h0c.5-.1,2.5-.8,3.7-.9.8,0,1.5.2,2.2.5.3.2.6.4.9.7,0,0,0,0,0,0s0,0,0,0c0-.2.1-.4.1-.6,0,.2,0,.4-.1.5,0,0,0,0,0,0,0,0,0,0,0,0-.3-.3-.6-.5-.9-.7-.7-.4-1.4-.6-2.2-.5-1.2,0-3.2.7-3.7.9,0,0,0,0,0,0h0ZM76,562.5c0,0-.1,0-.2,0-.2-.2-.3-.4-.5-.5-.2-.2-.5-.3-.8-.4-.5,0-1-.1-1.4,0-.9.1-1.8.4-2.6.9,0,0,0,0,0,0,0,0,0,0,0,0,.8-.5,1.7-.8,2.6-.9.5,0,1,0,1.4,0,.3,0,.6.2.8.4.2.2.4.3.5.5,0,0,.1,0,.2,0,0-.1,0-.2,0-.3h0c0,0,0,.2,0,.2h0ZM74,566s0,0,0,0c-.1-.1-.3-.3-.4-.4-.4-.2-.9-.3-1.4-.2-.7.1-1.3.4-1.9.8,0,0,0,0,0,0h0c.5-.4,1.2-.7,1.9-.8.5,0,.9,0,1.4.2.2.1.3.2.4.4,0,0,0,0,0,0,.1-.1.2-.3.2-.4,0,.1,0,.2-.2.3h0Z"/>
              <path class="cls-1" d="M79.8,544c0-1.8,0-3.1,0-3.1,0,0,0,0,0,0s0,.1,0,.1c0,0,0,1.2,0,2.9h0Z"/>
            </g>
            <path class="cls-11" d="M72.1,557.5h.1s.7-.2.7-.2c0,0,0,0,0,0,0-.3.2-.6.4-.9.2-.2.4-.4.6-.4.3-.1.7-.1,1,0,0,0,0,0,0,.1h0c-.2.1-.4.2-.5.4-.1.1-.2.3-.3.5,0,0,0,0,0,0,0,0,.4,0,.5,0,0,0,0,0,0,0,.1-.3.3-.7.6-.9.3-.2.7-.3,1-.2.2,0,.4.2.5.4,0,0,0,0,0,0-.2,0-.5.1-.7.3-.2.1-.3.3-.4.4,0,0,0,0,0,0,.2,0,.3,0,.5.1,0,0,0,0,0,0,.2-.3.5-.5.8-.6.5,0,1,.1,1.1.5,0,0,0,.1,0,.1-.3,0-.5.1-.7.3,0,0-.1,0-.1.1,0,0,0,0,0,0,.1.1.5.4.5.8,0,.2,0,.5-.1.7,0,0,0,0,0,0,0,0,0,0,0,0-.3-.3-.6-.6-.9-.7-.7-.4-1.4-.5-2.2-.5-1.2,0-3.2.7-3.7.9h0s.2-.3,1.3-1.3ZM75.3,560c-.3.1-.5.3-.6.6,0,0,0,0,0,0-.1,0-.3,0-.4,0,0,0,0,0,0,0,0-.2.1-.3.3-.4.2-.2.4-.3.6-.4,0,0,0,0,0,0h0c-.2-.2-.4-.3-.6-.3-.3,0-.6.1-.8.3-.3.3-.4.6-.4,1,0,0,0,0,0,0-.1,0-.2,0-.4,0,0,0,0,0,0,0,0-.2,0-.4.1-.5.2-.3.4-.6.7-.8,0,0,0-.1,0-.1-.4-.2-.8-.1-1.1.1-.2.1-.4.3-.5.6-.1.3-.2.7-.2,1,0,0,0,0,0,0-.2,0-.3,0-.4.1,0,0,0,0,0,0,0-.3,0-.7.2-1,0-.1.2-.3.3-.3,0,0,0,0,0,0s0,0,0,0c-.3,0-.6,0-.9.2-.3.2-.6.5-.6.9,0,.3,0,.5,0,.8,0,0,0,0,0,0-.1,0-.4.2-.5.2,0,0,0,0,0,0,0-.2-.2-.4-.4-.5-.2,0-.4,0-.6,0-.1,0-.2.2-.3.3,0,.2,0,.5.2.6,0,0,0,0,0,0-.1,0-.1,0-.2.2,0,.2,0,.4,0,.6.1.2.3.2.4.3.2,0,.3,0,.5-.2,0,0,0,0,0,0,0,0,.1.1.2.2.2.1.4.1.6,0,.2-.1.3-.3.3-.6,0-.1,0-.3-.1-.3,0,0,0,0,0,0,.8-.5,1.7-.8,2.6-.9.5,0,1,0,1.4,0,.3,0,.6.2.8.4.2.2.4.3.5.5,0,0,.1,0,.2,0,.1-.2.1-.5,0-.7-.1-.3-.3-.6-.5-.8h0c0,0,0,0,0-.1.2-.2.5-.3.7-.4,0,0,0,0,0,0-.2-.4-.7-.6-1.1-.4h0ZM80.3,540.6s-.2,9.6-.3,14.4c0,1.4-.3,2.8-.8,4.1-.5,1.5-1.3,2.9-2.2,4.3-.9,1.4-2.1,2.6-3.3,3.7-.5.4-1,.8-1.6,1.2-.9.5-1.8,1-2.7,1.4-.3.1-.6.3-.8.3-.3.1-.5.2-.8.2-.3,0-.5-.1-.8-.2-.2,0-.5-.2-.8-.3-.9-.4-1.9-.8-2.7-1.4-.6-.3-1.1-.7-1.6-1.2-1.3-1.1-2.4-2.3-3.3-3.7-.9-1.3-1.6-2.8-2.2-4.3-.5-1.3-.7-2.7-.8-4.1-.1-4.8-.3-14.4-.3-14.4,0,0,0,0,0,0,1.3-.5,2.6-1,4-1.3,1.9-.4,3.8-.8,5.7-.9.9,0,1.8-.1,2.7-.1h0c.9,0,1.8,0,2.7.1,1.9.2,3.8.5,5.7.9,1.3.3,2.7.8,4,1.3,0,0,0,0,0,0ZM56.6,558.2h7.6c-.7-.8-1.1-1.8-1.1-2.8h0c0-.1-6.9-.1-6.9-.1,0,1,.2,2,.4,2.9ZM67.5,565.1h-7.1c.5.6,1.1,1.1,1.7,1.6.5.4,1,.8,1.5,1.1.8.5,1.7,1,2.6,1.3.3.1.6.2.8.3.2,0,.3.1.4.2v-4.6h0ZM67.5,561.8h-9.4c.2.4.5.9.8,1.3.4.6.8,1.1,1.2,1.6h7.4v-2.9ZM67.5,559.8c-1.1,0-2.1-.5-2.9-1.2,0,0-.1,0-.2-.1h-7.8c0,.2.1.3.2.5.3.8.7,1.6,1.1,2.4h9.6s0-1.6,0-1.6ZM67.5,542.2c-.8,0-1.5,0-2.4.1-1.8.2-3.7.4-5.4.9-1.3.3-2.6.7-3.8,1.2,0,0,0,0,0,0,0,3.1.1,7.6.2,10.4h6.9v-2.6h0c-.8,0-1.5,0-2.2.3-.8.2-1.5.6-2.2,1,0,0,0,0,0,0,0,.1.2.2.2.4,0,.2,0,.4-.2.4-.1,0-.3.1-.5,0-.1,0-.2-.1-.3-.2,0,0,0,0,0,0-.1,0-.2.1-.3.2-.2.1-.5,0-.6-.2-.1-.2-.1-.4,0-.6,0,0,.2-.1.2-.2,0,0,0,0,0,0,0,0,0-.1-.1-.2,0-.2,0-.4.2-.6.2-.1.4-.1.6,0,.1,0,.2.2.3.3,0,0,0,0,0,0h.2c0-.1,0-.2,0-.2-.2-.6-.3-.9,0-1.3.1-.3.4-.4.6-.5.2,0,.3,0,.5,0,0,0,0,0,0,0-.2.2-.3.4-.4.7,0,.2,0,.4,0,.7,0,0,0,0,0,0,0,0,.3-.1.4-.1,0,0,0,0,0,0,0-.3,0-.7,0-1.1.2-.5.7-.7,1.2-.7,0,0,.2,0,.1.1-.5.3-.7.8-.6,1.4,0,0,0,0,0,0,.2,0,.4-.1.5-.2,0,0,0,0,0,0,0-.4.2-.8.4-1.2.3-.3.7-.5,1.2-.5,0,0,.2,0,.2.1,0,0,0,0,0,0-.4.3-.8.7-1,1.2,0,0,0,0,0,0,.3,0,.5,0,.8,0,0,0,0,0,0,0,.1-.3.3-.6.6-.7,0,0,0,0,0,0v-1.2s0,0,0,0c-.2,0-.4-.1-.6-.1-1.5,0-2.9.4-4.2,1.2,0,0,0,0,0,0,.2.4,0,.6-.2.7-.2.2-.6,0-.7-.2h0s0,0,0,0c-.1.1-.3.2-.5.1-.2,0-.3-.1-.4-.3-.1-.3,0-.6.4-.7h0s0,0,0,0c-.2-.2-.1-.5,0-.7,0,0,0,0,0,0,.2-.1.6,0,.7.2,0,0,0,0,0,.1,0,0,0,0,0,0,0,0,.2,0,.2,0,0,0,0-.1,0-.2,0-.6,0-1,.4-1.5.2-.2.8-.3.9-.1,0,0,0,0,0,0-.1,0-.2.2-.3.3-.2.3-.2.6-.2.9,0,0,0,0,0,0,.2,0,.4-.1.5-.2,0,0,0,0,0,0,0-.4.1-.9.4-1.2.3-.3,1-.6,1.3-.3,0,0,0,0,0,0-.2,0-.3.2-.4.4-.2.2-.3.4-.3.7,0,0,0,0,0,0,.2,0,.4,0,.6-.1,0,0,0,0,0-.1,0-.7.6-1.2,1.3-1.3.2,0,.5,0,.7.1,0,0,.1,0,.1.1,0,0,0,0,0,0h0c-.2,0-.5.1-.7.3-.2.1-.4.4-.5.6,0,0,0,0,0,0,.2,0,.4,0,.6,0,0,0,0,0,0,0,.1-.4.4-.7.8-.8.4-.2.9,0,1.2.3,0,0,0,0,0,0-.3,0-.7.2-1,.4,0,0,0,0,0,0h3.9v-6.2ZM70.8,558.9h0c-.3.2-.6.4-1,.6h0c0,.2,0,.3,0,.4,0,.1-.1.3-.2.3-.2,0-.4,0-.5,0-.1.1-.3.2-.4.1-.1,0-.2-.1-.3-.2,0,0,0-.1,0-.1-.1,0-.3,0-.4,0v9.9h0c.2,0,.4-.1.6-.2.2,0,.5-.2.8-.3.9-.4,1.8-.8,2.6-1.3.5-.3,1-.7,1.5-1.1,1.2-1,2.3-2.2,3.2-3.6.9-1.3,1.6-2.7,2.1-4.2.4-1.2.7-2.6.7-3.9h-6.8v.2c0,1.4-.8,2.8-2,3.5h0ZM79.6,551.8h-6.9v3h6.8c0-.9,0-1.9,0-3h0ZM79.7,548.8h-7v2.6h6.9c0-.8,0-1.7,0-2.6h0ZM79.7,545.4h-11.8v2.9h11.7c0-1,0-2,0-2.9h0ZM79.8,544.4s0,0,0,0c-1.2-.5-2.5-.9-3.8-1.2-1.8-.4-3.6-.7-5.4-.9-.9,0-1.7-.1-2.5-.1v2.9h11.8c0-.2,0-.4,0-.6h0ZM79.8,541s0,0,0,0c-1.2-.5-2.5-.9-3.8-1.2-1.8-.4-3.6-.7-5.4-.9-.9,0-1.7-.1-2.6-.1h0c-.9,0-1.7,0-2.6.1-1.9.2-3.7.4-5.5.9-1.3.3-2.6.7-3.8,1.2h0s0,1.3,0,3.1c0,0,0,0,0,0,1.2-.5,2.5-.9,3.8-1.2,1.8-.4,3.6-.7,5.4-.9.9,0,1.7-.1,2.6-.1h0c.9,0,1.7,0,2.6.1,1.8.2,3.7.4,5.4.9,1.3.3,2.6.7,3.8,1.2,0,0,0,0,0,0,0-1.8,0-3,0-3h0ZM73.4,564c-.2.1-.3.3-.5.5,0,0,0,0,0,0h-.3c.2-.5.5-.8.9-.9,0,0,0,0,0,0-.1-.4-.9-.3-1.2-.1-.3.2-.6.6-.7,1,0,0,0,0,0,0-.1,0-.2,0-.3,0,0,0,0,0,0,0,0-.2,0-.4,0-.5.1-.2.3-.4.4-.5s0,0,0,0h0c-.2-.1-.5-.1-.7,0-.3.2-.5.4-.6.7,0,.2,0,.5,0,.8,0,0,0,0,0,0-.1,0-.2,0-.3.1,0,0,0,0,0,0-.2-.3-.1-.7.1-1,0,0,0,0,0,0-.3,0-.5,0-.7.3-.2.2-.3.6-.2.9,0,.1,0,.2.1.3,0,0,0,0,0,0,0,0-.1.1-.2.2,0,0,0,0,0,0,0-.2-.2-.3-.4-.3-.2,0-.3,0-.4.1-.2.2-.2.5,0,.7,0,0,.1.1.2.1,0,0,0,0,0,0-.1,0-.2.2-.3.3,0,.2,0,.4.1.5.1,0,.2.1.4.1.2,0,.4-.2.5-.4,0,0,0,0,0,0,0,.1.2.2.3.3.2,0,.3,0,.4,0,.2-.1.2-.3.2-.5,0-.1-.2-.2-.3-.3,0,0,0,0,0,0,.5-.4,1.2-.7,1.9-.8.5,0,.9,0,1.4.2.2.1.3.2.4.4,0,0,0,0,0,0,.2-.2.2-.5,0-.7,0,0-.2-.2-.3-.2,0,0,0,0,0,0,0-.2.2-.4.4-.5.1,0,.3-.1.4-.2,0,0,0,0,0,0-.2-.4-.8-.4-1.2-.2ZM65.3,544c.3,0,.6.2.7.5,0,0,0,0,0,0-.3,0-.5,0-.8,0-.2,0-.3.2-.4.3s0,0,0,0h0c.3,0,.6.2.8.5.3.2.4.6.3.9,0,0,0,0,0,0,0,0,0,0,0,0-.3-.2-.6-.4-1-.6-.3-.1-.6-.2-1-.2-1.9,0-3.9.5-5.6,1.4,0,0,0,0,0,0,0,.1.1.3.1.4,0,.2-.1.2-.3.3-.2.2-.6.1-.7,0t0,0s0,0,0,0c-.1,0-.2.1-.3.2-.2,0-.4,0-.6-.2-.1-.3,0-.6.3-.8h0s0,0,0,0h0c-.1-.2,0-.5.2-.7.2-.1.7-.2.8.2,0,0,0,0,0,0h0c.1,0,.2,0,.3-.1,0,0,0,0,0-.1-.1-.5,0-1.1.3-1.5.4-.5,1-.7,1.5-.5,0,0,0,0,0,0-.2.2-.5.4-.7.6-.2.3-.2.6-.2.9,0,0,0,0,0,0,.3,0,.6-.2,1-.3,0,0,0,0,0,0,0-.2,0-.4,0-.6,0-.5.4-1,.9-1.2.3-.1.7-.2,1.1,0,0,0,0,0,0,0-.2.2-.4.3-.7.5-.2.2-.3.5-.3.8,0,0,0,0,0,0,.3,0,.6-.1.9-.2,0,0,0,0,0,0,0-.3.3-1.1.7-1.3.4-.3.9-.4,1.4-.3.1,0,.2.1.3.2,0,0,0,0,0,0-.3.1-.6.3-.9.5-.2.2-.3.4-.3.7,0,0,0,0,0,0,.3,0,.5,0,.8,0,0,0,0,0,0,0,.1-.3.4-.6.7-.7.3-.1.6-.2.9-.1Z"/>
            <path class="cls-7" d="M76.3,540.1c1,.3,1.9.6,2.9.9,0,0,0,0,0,0,0,.2,0,.2,0,.4s0,0,0,0c-.6-.2-1.4-.5-2.1-.7,0,0,0,0,0,0v.3s0,0,0,0c.8.2,1.5.4,2.2.7,0,0,0,0,0,0,0,.2,0,.4,0,.6,0,0,0,0,0,0-.7-.2-1.5-.5-2.2-.7,0,0,0,0,0,0v.2s0,0,0,0c.7.2,1.5.4,2.2.7,0,0,0,0,0,0,0,.2,0,.4,0,.6s0,0,0,0c-.9-.4-1.9-.7-2.9-.9,0,0,0,0,0,0,0-.8,0-1.6,0-2.4,0,0,0,0,0,0h0ZM73,541.9c.2,0,.4,0,.6.1,0,0,0,0,0,0v-.8s0,0,0,0c.5,0,1,.2,1.5.3,0,0,0,0,0,0,0,.3,0,.5,0,.8s0,0,0,0c.2,0,.4,0,.6.1,0,0,0,0,0,0,0-.6,0-1.6,0-2.4,0,0,0,0,0,0-.2,0-.4,0-.6-.1,0,0,0,0,0,0,0,.3,0,.6,0,.9t0,0c-.5-.1-1-.2-1.5-.3,0,0,0,0,0,0v-.9s0,0,0,0c-.2,0-.4,0-.6,0h0s0,0,0,0c0,.4,0,1.9,0,2.4h0ZM70.5,539.1c-.3,0-.5.2-.6.4v1.6c0,.2.1.3.3.4.8,0,1.6.2,2.5.3,0,0,0,0,0,0v-.6s0,0,0,0c-.6,0-1.4-.2-2.1-.3,0,0,0,0,0,0v-1.1c0,0,0,0,.1,0,.7,0,1.4.2,2.1.3,0,0,0,0,0,0v-.5s0,0,0,0c-.8-.1-1.4-.2-2.3-.3h0ZM69.4,539.1h0c-.8,0-1.6,0-2.4,0-.2,0-.4.1-.4.3v.9c0,.2.2.3.4.3.6,0,1.2,0,1.8,0,0,0,0,0,0,0v.2s0,0,0,0h0c-.7,0-1.4,0-2.1,0,0,0,0,0,0,0v.5s0,0,0,0c.8,0,1.7,0,2.5,0,.2,0,.4-.2.4-.3v-.8c0-.2-.2-.3-.3-.3-.6,0-1.3,0-1.9,0,0,0,0,0,0,0v-.2s0,0,0,0c.6,0,1.5,0,2.1,0,0,0,0,0,0,0v-.4s0,0-.1,0M65.8,540.6c.2,0,.3-.2.3-.4,0-.3,0-.5,0-.8,0-.2-.2-.3-.4-.3-.6,0-1.8.2-2.5.3v2.4h0s.6,0,.6,0c0,0,0,0,0,0h0v-.7h1.3c.1-.2.2,0,.3,0,0,.1.1.3.2.4h.6c0,0,0,0,0,0,0-.3-.2-.6-.4-.8h0ZM65.4,540.1c0,.1,0,.2-.2.2h-1.4c0,.1,0,.1,0,.1v-.5h1.5c0-.2.1-.1.1,0h0v.2ZM63.2,539.4h0ZM62.8,539.9c0-.1,0-.2-.1-.3,0,0-.2-.1-.3-.1-.7.1-1.5.3-2.2.4-.1,0-.2.1-.3.2,0,0-.1.2-.1.3v1.5c0,.1,0,.3.1.4,0,0,.2.1.3.1.7-.2,1.5-.3,2.2-.4.1,0,.3-.1.4-.2,0,0,.1-.2.1-.3v-1.6ZM62.1,541.2c0,0,0,.1,0,.1,0,0-.1,0-.2,0-.4,0-.9.2-1.3.3,0,0,0,0-.1,0,0,0,0,0,0-.1v-1c0,0,0,0,0-.1,0,0,.1,0,.2,0,.4,0,.9-.2,1.3-.2,0,0,.1,0,.1,0,0,0,0,0,0,.1v.9ZM59.5,540.6c0-.1,0-.2-.2-.3-.1,0-.3-.1-.4,0-.9.2-1.7.6-2.6.9,0,0,0,0,0,0v2.4s.6-.2.8-.3c0,0,0,0,0,0v-.7s0,0,0,0l2.2-.7c0,0,.1,0,.2-.1,0,0,0-.1,0-.2v-.9ZM58.8,541.3c0,0,0,.1-.1.2l-1.6.5s0,0,0,0v-.5s0,0,0,0c.5-.2,1.1-.4,1.6-.5,0,0,0,0,.1,0,0,.1,0,.2,0,.3h0Z"/>
            <path class="cls-3" d="M57.1,541.5s0,0,0,0h0c0-.1,0-.2,0-.2h0c.5-.2,1.1-.4,1.6-.5,0,0,0,0,.1,0h0c0,0,0,0-.1,0-.5.2-1.1.3-1.6.5h0M59.5,541.5c0,0,0,.1,0,.2,0,0-.1.1-.2.1l-2.2.7s0,0,0,0h0c0,.1,0,0,0,0l2.2-.7c0,0,.1,0,.2-.1,0,0,0-.1,0-.2h0ZM57.1,543.2s0,0,0,0c-.1,0-.8.3-.8.3h0c0,.1.6-.1.8-.2,0,0,0,0,0,0h0ZM62,540.2s-.1,0-.1,0c-.4,0-.9.2-1.3.2,0,0-.1,0-.2,0,0,0,0,0,0,.1h0c0,0,0,0,0,0,0,0,.1,0,.2,0,.4,0,.9-.2,1.3-.2,0,0,.1,0,.1,0,0,0,0,0,0,.1h0c0-.2,0-.2,0-.3h0ZM62.3,541.9c-.7.1-1.5.3-2.2.4-.1,0-.2,0-.3-.1,0,0-.1-.2-.1-.3h0s0,.1,0,.1c0,.1,0,.2.1.3,0,.1.2.2.3.2.7-.2,1.5-.3,2.2-.4.1,0,.3-.1.4-.2,0,0,.1-.2.1-.3h0s0,0-.1.2c-.1.1-.2.2-.4.2h0ZM65.3,539.8h-1.5c0,.1,0,.1,0,.1h0c0,.1,0,.1,0,.1h1.5c0-.2.1-.1.1,0h0s0-.1,0-.1c0,0,0-.1-.1,0h0ZM66.1,540.3v-.2c0,.2,0,.3-.3.4,0,0,0,0,0,0,.1,0,.2-.2.2-.3h0ZM66.2,541.5h-.6c0-.1,0-.3-.2-.4-.1-.2-.2-.2-.3-.2h-1.3v.3h1.3c.1-.2.2,0,.3,0,0,.1.1.3.2.4h.6c0,0,0,0,0,0h0c0-.1,0-.1,0-.1h0ZM63.8,541.7h-.6v.2h.6c0,0,0,0,0-.1h0q0-.1,0-.1h0ZM69.4,539.8c0,0,0,0,0,0h0c0,0,0,0,0,0-.6,0-1.5,0-2.1,0,0,0,0,0,0,0h0c0,0,0,0,0,0,.6,0,1.5,0,2.1,0h0ZM67,540.7c.6,0,1.2,0,1.8,0,0,0,0,0,0,0h0c0-.2,0-.2,0-.2-.6,0-1.1,0-1.8,0-.2,0-.4-.1-.4-.3h0c0,.3.2.4.4.4h0ZM69.1,541.5c-.8,0-1.7,0-2.5,0h0c.8,0,1.7,0,2.5.1.2,0,.4-.2.4-.3h0c0,0-.2.2-.4.2h0ZM72.8,540c-.7,0-1.4-.2-2.1-.3,0,0-.1,0-.1,0h0c0,0,0,0,.1,0,.7,0,1.4.2,2.1.3,0,0,0,0,0,0h0c0-.1,0-.1,0-.1h0ZM72.7,541.9c-.9-.1-1.7-.2-2.5-.3-.2,0-.3-.2-.3-.4h0c0,.3.1.5.3.5.8,0,1.6.1,2.5.3,0,0,0,0,0,0h0c0-.1,0-.1,0-.1h0ZM75.2,541.6h0c0-.2,0-.2,0-.2-.5-.1-1-.2-1.5-.3,0,0,0,0,0,0h0c0,.1,0,.1,0,.1.5,0,1,.2,1.5.3,0,0,0,0,0,0h0ZM73.6,542c-.2,0-.4,0-.6-.1h0c.2.1.4.2.6.2,0,0,0,0,0,0h0c0,0,0,0,0,0h0ZM75.8,542.4c-.2,0-.4,0-.6-.1,0,0,0,0,0,0h0c0,.2,0,.2,0,.2.2,0,.4,0,.6.1,0,0,0,0,0,0h0c0-.1,0-.1,0-.1h0ZM79.2,541.6c-.6-.2-1.4-.5-2.1-.7,0,0,0,0,0,0h0c0,.1,0,.1,0,.1.7.2,1.6.5,2.1.7,0,0,0,0,0,0h0c0,0,0,0,0,0h0ZM79.2,542.6c-.7-.2-1.5-.5-2.2-.7,0,0,0,0,0,0h0c0,.1,0,.1,0,.1.8.2,1.5.5,2.2.7,0,0,0,0,0,0h0c0-.1,0-.1,0-.1h0ZM79.2,543.5c-.9-.4-1.9-.7-2.9-.9,0,0,0,0,0,0h0c0,.1,0,.2,0,.2,1,.3,1.9.6,2.9.9,0,0,0,0,0,0h0c0-.1,0,0,0,0h0Z"/>
            <path d="M79.2,541.3v.2h-.2c0,0-.1,0-.1,0h0c-.3,0-.5-.2-.8-.3s-.5-.2-.7-.2h-.2c0,0-.2-.1-.2-.1h-.2c0,0,0,0,0,0h0v.3h.1s0,0,0,0h.1s.1,0,.1,0c.3,0,.6.2.8.2.3,0,.5.2.8.3h0s.1,0,.1,0h0v.5h-.2s-.1,0-.1,0c-.3-.1-.6-.2-.9-.3-.3,0-.6-.2-.9-.3h-.2c0,0,0,.2,0,.2v.2h.1s.2,0,.2,0h.2c0,0,0,0,0,0h0c.3.1.5.2.8.3.2,0,.5.2.7.2h0s0,0,0,0h0s0,0,0,0c0,.1,0,.3,0,.4h-.1c0,0,0,0,0,0h0c-.4-.2-.9-.3-1.3-.4s-.9-.3-1.2-.4h0c0-.2,0-.6,0-.9s0-1.3,0-1.3c0,0,.9.2,1.3.4.4.1.8.3,1.2.4h0c0,0,.1.1.1.1h0v.2ZM75.8,540.1c0,0-.1,0-.2,0s-.2,0-.2,0h0v.2h0v.2h0v.2c0,0,0,.2,0,.2h0c0,.1-.1.1-.1.1h0s0,0,0,0h0s-.5-.1-.5-.1c-.2,0-.4,0-.5-.1h-.2s0,0-.1,0h0v-.5h0v-.4h0c0,0,0,0-.1,0h0s0,0-.1,0-.1,0-.1,0h0c0,.2,0,.4,0,.6s0,.4,0,.7v.2c0,0,0,.1,0,.2,0,.1,0,.2,0,.3v.3h0s0,0,.1,0h0s.1,0,.1,0c0,0,.1,0,.2,0h0v-.2h0v-.6h0v-.2h0s0,0,0,0h0c0,0,.3,0,.5.1s.6.1.8.2h0s0,0,0,0h0s0,0,0,0h0v.2h0v.3h0v.2h0v.2h.1s0,0,0,0h0s.1,0,.1,0h0v-.2c0-.3,0-.6,0-.9,0-.3,0-.7,0-1h0c0-.1,0-.1,0-.1ZM71.3,539.3c-.4,0-.7,0-.8,0-.1,0-.2,0-.3.1,0,0-.2.2-.2.3,0,0,0,.8,0,.8v.8s0,0,0,.1,0,0,0,0c0,0,.1,0,.2,0,0,0,0,0,.1,0h0c.3,0,.7,0,1.1.1.4,0,.7,0,1.1.1h.2s0-.2,0-.2v-.2h-.2s-.1,0-.1,0h0c-.3,0-.6,0-.9-.1s-.6,0-.9-.1c0,0,0,0,0,0,0,0,0,0,0,0v-1.2s0,0,0-.1c0,0,0,0,.1,0,.2,0,1.9.2,2.1.3v-.4h0c-.4-.1-1-.2-1.5-.2ZM66.1,541c0,.1.1.3.1.4h-.5c0-.1,0-.3-.2-.4,0-.2-.2-.3-.4-.2-.2,0-1.3.1-1.3.1v.7h-.2s-.2,0-.2,0v-2.3s2.1-.2,2.4-.2.3.1.3.3c0,.3,0,.5,0,.8,0,.1-.1.3-.2.3.1.1.2.3.3.4ZM65.5,539.8c0,0,0,0,0-.1,0,0-.1,0-.2,0l-1.6.2v.7h.7c0,0,.7-.1.7-.1,0,0,.1,0,.2,0,0,0,0-.1,0-.2v-.3ZM62.7,539.9c0,.1,0,1.4,0,1.5,0,.2-.2.4-.4.4-.2,0-2,.4-2.1.4s-.4-.2-.4-.3v-1.5c0-.2.2-.3.3-.3.2,0,2-.4,2.1-.4.2,0,.3,0,.3.3ZM62.2,540.3c0-.1,0-.2-.3-.2-.3,0-1.1.2-1.4.2-.2,0-.3.1-.3.3v1c0,.1,0,.2.2.2s1.4-.3,1.5-.3c.1,0,.2-.1.2-.3,0-.1,0-.9,0-1ZM69.2,540.1c-.2,0-.4,0-.6,0h-1.4s0,0,0,0c0,0,0,0,0,0h0v-.2c0,0,0-.1,0-.2,0,0,0,0,.1,0,0,0,.9,0,1.4,0h.2c.2,0,.3,0,.5,0v-.4c-.2,0-.4,0-.6,0h0c-.1,0-.3,0-.4,0-.6,0-1.2,0-1.3,0,0,0-.1,0-.2,0,0,0,0,0,0,.1v.9c0,0,0,.1,0,.1,0,0,.1,0,.2,0h.6c.2,0,.4,0,.6,0,.2,0,.4,0,.6,0,0,0,0,0,0,0,0,0,0,0,0,.1h0c0,.2,0,.2,0,.2,0,0,0,0-.1,0h-1.6c-.2,0-.3,0-.5,0v.4c.2,0,.4,0,.6,0,.2,0,.4,0,.5,0h.4c.1,0,.2,0,.4,0h.2s.3,0,.3,0c0,0,.1,0,.2,0,0,0,0,0,.1-.2v-.9c0,0,0-.1,0-.1,0,0-.1,0-.2,0h0ZM59.4,540.6v.9c0,0,0,.1,0,.2,0,0,0,0-.1,0l-2.2.7v.8s-.6.2-.6.2v-1.1c0-.4,0-1.1,0-1.1s0,0,0,0c0,0,.7-.3,1.6-.6.3,0,.8-.3,1-.3.1,0,.2,0,.3,0,0,0,.1.1.2.2ZM58.9,541.3c0,0,0-.3,0-.3s0,0,0-.1c0,0,0,0-.1,0h0s-.5.1-.8.2-1,.3-1,.3c0,0,0,.7,0,.7l1.7-.6c0,0,.1,0,.1,0,0,0,0,0,0-.1ZM66.4,549.4v.6c0,0,0,.1,0,.2,0,0-.1,0-.2,0s-.1,0-.2,0c0,0,0-.1,0-.2v-.6c0,0,0,0,0,0s0,0,0,0h0v.6c0,.1,0,.2,0,.3,0,0,.2.1.3.1.1,0,.2,0,.3-.1,0-.1,0-.2,0-.3v-.6c0,0,0,0,0,0s0,0,0,0h0ZM67.2,549.4s0,0,0,0,0,0,0,0h-.5s0,0,0,0,0,0,0,0h.2v.9c0,0,0,0,0,0s0,0,0,0v-.9h.2ZM68,549.4s0,0,0,0,0,0,0,0h-.5s0,0,0,0,0,0,0,0h.2v.9c0,0,0,0,0,0,0,0,0,0,0,0h0v-.9h.2ZM68.9,549.8h-.3c0,0,0,0,0,0,0,0,0,0,0,0h.2c0,.2,0,.3-.2.4,0,0-.2,0-.2-.1,0,0,0-.2,0-.3s0-.2,0-.3c0,0,.1-.1.2-.1,0,0,.1,0,.2.1,0,0,0,0,0,0,0,0,0,0,0,0h0c0-.1-.2-.2-.3-.2-.1,0-.2,0-.3.2,0,.1-.1.3-.1.4s0,.3.1.4c0,.1.2.2.3.2s.1,0,.2,0c.1,0,.2-.2.2-.3,0,0,0-.1,0-.2,0,0,0-.1-.1-.1ZM71.6,549.4s0,0,0,0,0,0,0,0h-.5s0,0,0,0,0,0,0,0h.2v.9c0,0,0,0,0,0,0,0,0,0,0,0h0v-.9h.2ZM70.6,550h0c0,0,.1,0,.2-.1,0,0,.1-.2,0-.3,0-.1,0-.2-.1-.3,0,0-.2,0-.3,0h-.3s0,0,0,0,0,0,0,0v1s0,0,0,0h0s0,0,0,0h0v-.3h.2l.2.3s0,0,0,0,0,0,0,0,0,0,0,0l-.2-.3ZM70.3,549.9v-.4h.2c0,0,.1,0,.2,0,0,0,0,0,0,.1,0,.1-.1.2-.2.2h-.2ZM69.6,549.4c0,0,0,0-.1,0s-.1,0-.1.1l-.3,1s0,0,0,0c0,0,0,0,0,0,0,0,0,0,0,0v-.2h.5v.2c0,0,.1,0,.1,0s0,0,0,0c0,0,0,0,0,0l-.3-1ZM69.7,550.1h-.3l.2-.6.2.6h0ZM64.8,549.9c-.1,0-.2-.1-.4-.1,0,0-.1,0-.1-.2h0c0,0,.1-.1.2-.1,0,0,.2,0,.2,0,0,0,.1,0,.1,0s0-.2-.3-.2c0,0-.2,0-.2,0,0,0-.1.1-.1.2,0,.1,0,.2,0,.3s.1,0,.2,0,.2,0,.3.1c0,0,0,.1,0,.2s-.1,0-.2,0-.2,0-.2,0,0,0-.1,0c0,0,0,0,0,.1,0,.1.2.2.3.2.1,0,.2,0,.3-.1,0,0,0-.1,0-.2,0,0,0-.2-.1-.2h0ZM65.5,549.4s0,0,0,0c0,0,0,0,0,0h-.5s0,0,0,0c0,0,0,0,0,0h.2v.9c0,0,0,0,0,0s0,0,0,0v-.9h.2ZM58.8,545.1c.1-.3.3-.5.6-.7.1,0,.1-.1.1-.1,0,0,0,0-.2,0-.3,0-.5.1-.7.3-.2.2-.4.5-.5.8,0,.3,0,.7,0,1.1,0,0-.4.2-.6.3,0-.1,0-.2-.2-.3-.1-.1-.3-.1-.5,0-.1,0-.2.2-.2.4,0,.1,0,.2.1.3-.1,0-.2.1-.3.2-.1.1-.2.3-.1.4,0,.1.2.2.3.2.2,0,.3-.1.5-.3,0,0,.1.1.2.2,0,0,.2,0,.2,0,0,0,.1,0,.2,0,.1,0,.2-.2.2-.4,0-.2-.2-.3-.2-.4,1-.6,2-1,3.1-1.2.7-.2,1.5-.3,2.3-.4.5,0,1,0,1.4.1.4.1.7.3,1,.6h0c0-.4-.2-.7-.5-.8-.3-.2-.6-.3-.8-.3,0-.1.2-.2.3-.3.2-.2.4-.3.6-.3.2,0,.4,0,.6,0,0-.2-.2-.3-.4-.3-.2,0-.5,0-.7,0-.4.2-.7.5-.9.9-.4,0-.8,0-1.2,0,0-.3.2-.6.3-.9.2-.3.5-.4.8-.5,0,0,0,0,.1,0,0,0-.2-.1-.5-.1-.4,0-.8.2-1.1.6-.2.3-.3.7-.3,1.1-.6.1-1.4.3-1.4.3,0-.3,0-.5.2-.8.2-.3.4-.6.7-.7,0,0,.1,0,.1,0,0,0-.2,0-.3,0-.2,0-.4,0-.6.2-.4.2-.6.6-.6,1.1,0,.1,0,.5,0,.6-.5.1-1,.3-1.5.5,0-.3,0-.7.1-1ZM64.2,547.8s.2,0,.2,0c0,0,0,0-.1,0-.1,0-.3-.1-.5-.1s-.3,0-.5.1c-.3.2-.6.5-.7.8,0,0-.4,0-.5,0h-.6c0,0,0-.1,0-.2,0-.2.1-.4.3-.5.2-.2.5-.4.8-.5,0,0,0,0,0,0-.1,0-.2-.1-.4-.1-.7,0-1.3.6-1.3,1.3v.2s-.3,0-.4,0c-.2,0-.4,0-.7.2,0-.3,0-.5.2-.8.1-.2.3-.4.5-.6,0,0,.1,0,.2-.1,0,0-.1,0-.2,0-.4,0-.8.3-.9.6-.1.3-.2.7-.2,1-.2,0-.7.2-.9.3,0-.3,0-.5,0-.8,0-.2.2-.4.3-.6,0,0,0,0,.1-.1,0,0,0,0-.2,0-.3,0-.6.3-.7.7,0,.3-.1.7,0,1.1-.1,0-.5.2-.6.3,0,0,0-.2-.1-.3,0-.1-.2-.2-.3-.2s-.1,0-.2,0c0,0-.1,0-.1.2,0,0,0,.2,0,.3,0,0,0,0,0,.1,0,0,0,.1,0,.1-.1,0-.2,0-.3.2-.2.1-.2.3-.1.5,0,.1.2.2.3.2.2,0,.4-.1.5-.2,0,0,.1.2.2.2,0,0,.2.1.3.1s.1,0,.2,0c.1,0,.2-.2.2-.3,0-.1,0-.2-.1-.3h0c0,0,.3-.2.3-.2.4-.2.9-.4,1.4-.6.8-.3,1.5-.4,2.3-.5.2,0,.3,0,.5,0,.2,0,.4,0,.6.1v-.8h.3c.2-.3.5-.4.8-.5ZM63,550.9v1.2c-.1,0-.3,0-.4,0-1.1,0-2.1.3-3.1.8-.4.2-.9.4-1.3.7.1,0,.3.2.3.4,0,.2,0,.5-.4.5-.3,0-.3-.2-.4-.3,0,0-.3.2-.3.3,0,0-.2,0-.2,0s-.2,0-.3-.1c0,0,0-.2,0-.3,0-.1.1-.2.2-.3,0,0,.2,0,.2-.2,0,0-.2-.2-.2-.3,0-.2,0-.3.1-.4.1,0,.3,0,.4,0,.2,0,.2.4.3.4,0,0,.3-.2.5-.3-.2-.3-.3-.7-.3-1,0-.6.7-.9.9-.8-.2.2-.4.6-.4.9,0,.2,0,.5.1.7,0,0,.6-.2.8-.3-.2-.4-.2-.8,0-1.2.2-.4.6-.6,1-.6-.5.4-.8,1-.6,1.6.1,0,.8-.3.9-.3,0-.4,0-.8.3-1.2.2-.3.5-.5.9-.5,0,0,.1,0,.2,0t0,0h0c-.3.3-.5.5-.7.8-.1.2-.2.4-.1.6h0s.4,0,.6,0,.6,0,.6,0c0-.1.1-.2.2-.3.1-.1.2-.2.3-.3h0ZM74.7,556.1c-.2,0-.4.2-.6.4-.2.3-.3.7-.2.7h.3c.2,0,.3,0,.5,0,0,0,0,0,0,0,0,0,0,0,0,0,.1-.4.3-.7.7-.9.1,0,.3-.1.4-.1.2,0,.5,0,.6.3,0,0-.3,0-.7.4-.2.2-.3.3-.4.5,0,0,0,0,0,0,.2,0,.6.2.8.2,0,0,0,0,.1,0,.1-.2.2-.3.4-.4.2-.1.4-.2.6-.2h0c.4,0,.5.3.5.3,0,0-.1,0-.2,0-.3,0-.6.2-.8.5,0,0,0,.2,0,.2.3.2.5.6.5,1,0,0,0,.1,0,.1,0,0-.1,0-.2-.1-.2-.2-.4-.3-.6-.5-.4-.2-.8-.4-1.2-.5-.3,0-.7,0-1-.1-.7,0-1.5.1-2.2.3-.1,0-.6.2-1,.3h-.2c0,0,.2,0,.2,0,.2-.2.3-.3.5-.5h.1c0-.1.2-.2.2-.2l.8-.2c0,0,.2,0,.2-.2,0-.3.2-.6.4-.8.2-.3.4-.4.8-.5.4,0,.5,0,.5.1h0ZM68.9,562.2c-.1-.1-.2-.3-.2-.4,0-.2,0-.3.2-.4.2,0,.3,0,.5,0,.2.1.2.3.3.4,0,0,0,0,0,0,.2,0,.4-.2.6-.3h.1c0,0,0,0,0-.1,0-.2,0-.4,0-.6,0-.2,0-.5.2-.7.3-.5.8-.4.8-.4-.2.2-.3.5-.4.8,0,.2,0,.3,0,.5,0,0,0,.2,0,.2,0,0,.2,0,.3-.1.1,0,.3,0,.4-.1,0,0,0,0,0,0,0-.4.1-.9.4-1.3.2-.3.5-.4.8-.4.1,0,.3,0,.2,0,0,0-.1,0-.2.1-.2.1-.3.3-.4.5-.1.3-.2.6-.1.9.3,0,.5,0,.7-.1,0,0,0,0,0,0,0-.3.2-.8.5-1,.1-.1.3-.2.5-.2.1,0,.5.1.4.1-.2.1-.4.3-.6.4-.1.2-.2.3-.2.5,0,.1,0,.1,0,.1.2,0,.4,0,.6,0,0,0,.1,0,.1,0,0-.1.2-.3.3-.4.1-.1.3-.2.5-.2.4,0,.6.3.5.3-.3,0-.6.3-.8.5,0,0,0,0,0,0,.3.3.6.7.6,1.1,0,0,0,.2,0,.2-.2-.3-.5-.5-.8-.7-.4-.2-.9-.3-1.4-.3-.6,0-1.2,0-1.7.3-.6.2-1.2.5-1.8.8,0,0,.2.2.2.3,0,.2,0,.4-.1.5,0,0-.2,0-.3,0-.3,0-.3-.3-.4-.4,0,0-.1.2-.2.2-.2.1-.4.1-.6,0,0,0,0,0,0,0-.1-.2,0-.4,0-.5.1,0,.2-.1.2-.1h0ZM69.8,565.6c0,0,0-.2-.1-.3,0-.2-.1-.4,0-.6,0-.3.3-.5.6-.5-.1.1-.2.3-.2.5,0,.2,0,.4.2.5,0,0,0,0,0,0,.2,0,.3-.2.5-.2,0,0,0,0,0,0-.1-.4,0-.7.1-1.1.1-.3.4-.4.7-.5h0s.2,0,.2,0c-.2.1-.3.3-.4.6,0,.2-.1.5,0,.7,0,0,0,0,0,0,.2,0,.3,0,.5-.1,0,0,0,0,0,0,0-.3.2-.6.5-.9.2-.2.4-.3.7-.3.3,0,.4.1.4.1s0,0-.2,0c-.2,0-.3.2-.5.4-.1.1-.2.3-.2.5,0,0,0,0,0,0,.2,0,.4,0,.5.1,0,0,0,0,0,0,.1-.2.2-.4.4-.5.2-.1.3-.2.6-.2.1,0,.2,0,.3.1,0,0,.1.1,0,.1-.2,0-.4.2-.6.3-.2.3-.2.3-.2.4,0,0,0,0,0,.1.3.2.4.4.4.5,0,.1,0,.3-.2.2-.1-.2-.3-.3-.6-.4-.3-.1-.6-.2-1-.2s-.6,0-.9.2c-.4.1-.8.3-1.1.6,0,0-.1,0-.2.1-.1,0-.2.2-.3.3,0,0,0,0,0,0,.4.2.4.4.3.6,0,0-.2.1-.3,0-.3-.2-.2-.4-.4-.3,0,0-.2.2-.2.3-.1.1-.3.2-.4,0-.1-.1-.2-.3,0-.5,0,0,.2-.1.2-.2,0,0-.2-.1-.3-.2-.1-.1-.1-.3,0-.5,0,0,0,0,0,0,.2-.1.4,0,.5,0h0s.1.2.2.2,0,0,0,0c0,0,.4-.3.4-.3,0,0,0,0,0,0h0ZM71.6,554.6s0,0-.1,0,0,0-.1,0c0,0,0,0,0-.1,0,0,0,0,0,0,0,0,.1-.1.2-.2s0-.1,0-.2,0,0,0,0c0,0,0,.1-.1.1,0,0-.1,0-.2,0s0,0-.1,0c0,0,0,0,0-.1s0,0,0,0c0,0,.2,0,.2,0,0,0,0,0,.1-.1,0,0,0,0,0-.1s0,0,0,0c0,0,0,0-.1,0,0,0-.1,0-.2,0,0,0-.1-.1-.2-.2,0,0,0,0,0,0,0,0,.1,0,.2-.2,0,0,0,0,0,0,0,0,0,0,0,0,0,0,0-.1,0-.2s0,0,0-.1,0,0,0,0c0,0,0,.1,0,.2,0,0,0,.1-.1.1,0,0,0,0,0,0,0,0,0,0-.1-.1,0,0,0-.1,0-.2,0-.1.1-.2.2-.3,0,0,.1-.1.2-.2,0,0,0-.2,0-.2s0,.1-.1.1c-.2,0-.3.2-.5.3,0,0-.1.2-.1.3,0,0,0,.2,0,.2,0,0,0,0,0,0,0,0,0-.1-.1-.2,0,0,0-.1,0-.2s0,0,0,0c0,0-.1.1-.1.2,0,.1,0,.2,0,.3,0,.1.2.3.3.4,0,.1.2.2.2.4,0,0,0,.2,0,.3,0,.1,0,.2-.2.3,0,0,0,0,0,0,0,0-.2-.2-.3-.2-.1,0-.3-.1-.4-.2-.2,0-.3,0-.5,0-.2,0-.4,0-.6,0-.2,0-.3,0-.4,0-.1,0-.2-.1-.3-.2,0-.1,0-.2,0-.3,0,0,0-.2,0-.3,0,0,.1-.1.2-.2,0,0,.2,0,.3,0,0,0,0,0,.1,0s0,0,.1.1h0c0-.1,0-.3,0-.4,0,0-.1-.2-.2-.3,0,0,0,0,0,0,.1,0,.2,0,.3,0,0,0,.1,0,.1.1h0c0-.2,0-.3-.1-.4,0,0-.1-.1-.2-.2,0,0,0,0,0,0,0,0,.2,0,.2,0s0,0,0,0c0,0,0,0,0,0,0,0,0,0,0,0,0,0,0,0,0-.1-.1-.1-.2-.2-.4-.3,0,0,0,0,0,0,0,0,0-.1,0-.2,0,0,0,0,0,0,0,0,0,0,0,0,0,0,0,0,.2-.1,0,0,.1,0,.2,0s0,0,0,0,0,0,0,0c0,0-.2,0-.3,0-.1,0-.2,0-.4,0,0,0-.2,0-.3,0s-.1,0-.2,0c0,0,0,0,0-.1,0,0,0-.2,0-.2,0,0,0,0,.1-.1,0,0,0,0,0,0,0,0,0,0,0,0-.1,0-.2,0-.3.1,0,0-.1.1-.2.2,0,0,0,0,0,0,0,0,0,0,0,0,0,0-.2,0-.2.1s-.1.1-.2.1c0,0-.1,0-.2,0h0c-.1,0-.3,0-.3.1,0,0,0,0,0,0,0,0,0,0,0,0h0s0,0,0,0h0c0,0,0,0,0,0,0,0-.1,0-.2,0h0s0,0,0,0c-.1.1-.3.2-.4.3h0c0,0,0,0,0,0h0c0,0,0,0,0,0,0,0,0,0,0,0h0c0,.1,0,.2.1.2s0,0,0,0c0,0,0,0,.1,0,0,0,0,0,0,0h0s0,0,0,0c0,0,0,0,0,0,0,0,0,0,0,0,0,0,.1,0,.2,0s0,0,0,0c0,0,0,0,0,0,0,0,.1,0,.2,0h0c0,0,0,0,.1,0,0,0,0,0,0,0h0c0,0,0,.1,0,.2,0,0,0,0,0,.1,0,0,0,0,0,.1t0,0c0,0-.1.1-.2.2-.1.1-.2.2-.3.3,0,0,0,0,0,.1h0c0,.1,0,.2-.2.2-.1,0-.2-.1-.3-.2,0,0,0,0-.1-.1-.1-.2-.2,0-.3.1-.1.2-.2.3-.4.5,0,0,0,0,0,0,0,0,0,0,0,.1,0,0,0,.1,0,.2,0,.1,0,.2,0,.3,0,0,0,.1,0,.2v.2s0,0,0,0,0,0,0,0c0,0,.2,0,.3-.1,0,0,0,0,0,0,0,0,0,0,0,0,0,0,0,0,0,0h0s0,0,0,0h0c0-.1,0-.1,0-.2s0,0,0,0c0,0,0,0,.1-.1,0,0,0-.1,0-.2,0,0,0,0,0,0h0c0,0,0,0,0-.1,0,0,0,0,0-.1,0,0,.1-.1.2-.1,0,0,.2,0,.3,0,0,0,.1.2.1.3,0,0,0,.2.1.3,0,0,.1,0,.2,0,0,0,0,0,0,0h0s0,0,0,0c0,0,0,0,0,0h.1c0,.1,0,.2,0,.2h-.1s0,0,0,0c-.2,0-.4,0-.6,0h0s0,0,0,0,0,0,0,0c0,0,0,0,0,0,0,0,0,.1,0,.1,0,.3.1.6,0,.8,0,.1,0,.2,0,.3,0,0,0,0,0,0,0,0,0,0,0,0,0,0,0,0,0,.1s0,.1,0,.2c0,0,.1.1.2.2,0,0,0,0,0,0,0,0,0,0,.1,0h0c0,0,0-.2,0-.3s0,0,0-.1h0s0,0,0,0h0s0,0,0,0h0s0,0,0,0c0,0,0-.1,0-.2,0,0,0,0,0,0,0,0,0,0,0,0,0,0,0,0,0,0,0,0,0,0,0,0h0s0,0,0,0h0s0,0,0,0c0-.1,0-.3,0-.4,0,0,0,0,0-.1,0,0,.2,0,.3,0,.1,0,.3,0,.4.1h0c.2,0,.4,0,.6-.2t0,0c0,0,.1,0,.2.1.2.1.3.2.5.2.2,0,.5,0,.7,0,0,0,.1,0,.2,0,0,0,0,0,0,0,0,0,0,.2,0,.3s0,.1,0,.1c0,0,0,.1,0,.1h0c.1.2.1.5,0,.7,0,0-.2.2-.3.2-.1,0-.2.1-.3.1s-.2,0-.2,0c0,0-.2.1-.2.2,0,0,0,0,0,0,0,.1,0,.2,0,.3,0,0,0,0,0,0,0,0,.2,0,.3,0,0,0,0,0,0-.1,0,0,0,0,0,0h0c0-.1,0-.1,0-.2,0,0,0,0,0,0,0,0,0,0,0,0s0,0,0,0c.1,0,.2,0,.3-.1,0,0,0,0,0,0,0,0,0,0,0,0,.2-.2.5-.3.8-.4,0,0,0,0,0,0h0c0-.2,0-.3,0-.4,0,0,0-.2.1-.2s0,0,0,0c0,.1.2.2.3.2,0,0,0,0,.1,0,.1,0,.2.1.2.2,0,0,0,.1,0,.2,0,.1-.2.2-.3.4,0,0,0,.1-.2.2-.1,0-.2.1-.3.2,0,0-.1.1-.2.2,0,.1,0,.3-.1.4,0,0,0,0,0,0,.1,0,.2,0,.3-.1,0,0,0,0,0,0,0,0,0,0,0,0,0,0,0,0,0,0,0,0,0,0,0-.1,0,0,0,0,0,0,0,0,0,0,0,0,0,0,.1,0,.2,0,0,0,.2,0,.3-.1,0,0,0,0,0,0h0c0-.3.3-.6.6-.7,0,0,0,0,0,0s0,0,0-.1l-.2-.3c0,0-.1-.2-.1-.3,0-.1,0-.2,0-.3,0,0,0,0,0,0,0,0,.1-.1.2-.2,0,0,.1-.1.2-.2,0-.1,0-.2.1-.3,0,0,0-.2,0-.3s0,0,0,0c0,0,0,0,.1-.1,0,0,.1,0,.2,0,.1,0,.2,0,.3.1,0,0,.1,0,.2,0,0,0,.1,0,.2,0,0,0,0,0,0,0h0ZM67.9,552.9c0,.1,0,.2-.2.2h0s0,0,0-.2h0v-.2h0v-.2c0,0,0-.2,0-.2,0,0,0-.2,0-.3,0,0,0-.1,0-.2,0,0,0,0,0,0,0,0,0,0,0,0,0,0,0,0,0,0s0,0,0,0c.1,0,.2,0,.3,0,.1.1.2.3.2.5,0,.2,0,.5,0,.7h0ZM56.6,558.2h7.6c-.7-.8-1.1-1.8-1.1-2.8h0c0-.1-6.9-.1-6.9-.1,0,1,.2,2,.5,2.9h0ZM67.5,561.8h-9.4c.2.4.5.9.8,1.3.4.6.8,1.1,1.2,1.6h7.4v-2.9ZM79.7,548.8h-6.9v2.6h6.9c0-.8,0-1.7,0-2.6h0ZM79.7,544.4s0,0,0,0c-1.2-.5-2.5-.9-3.8-1.2-1.8-.4-3.6-.7-5.4-.9-.9,0-1.7-.1-2.5-.1v2.9h11.8c0-.2,0-.4,0-.6h0ZM72.3,548.7h-8.9s0,0,0,0v6.6c0,1.2.6,2.3,1.5,3.1.8.7,1.9,1.1,3,1.1.8,0,1.6-.2,2.3-.7.9-.5,1.6-1.3,1.9-2.3.1-.3.2-.7.2-1v-6.8s0,0,0,0h0ZM72.1,555.5c0,.3,0,.7-.2,1-.3.9-1,1.7-1.8,2.2-.7.4-1.4.6-2.2.6-1.1,0-2.1-.4-2.9-1.1-.9-.7-1.4-1.8-1.4-3v-6.3s0,0,0,0h8.5s0,0,0,0h0v6.6ZM69.5,559.5c-.3.1-.6.2-.9.2h0s0,0,0,0c0,0,0,.1.2.1.1,0,.2,0,.3-.2,0,0,0,0,0,0,0,.1.3.2.4.2.1,0,.1-.2,0-.3,0,0,0,0,0,0,0,0,0,0,0,0Z"/>
          </g>
        </g>
      </g>
      <path class="cls-12" d="M385.5,563.4c-26.5-44.4-72.4-36-101.8-51.3-1.4-.7,3.7,3.1,3.7,3.1l5.5,2.1,9.8,3.2,6.1,1.4,9.2,1.8,12.5,3.3,11.7,3.3,9.8,3.9,9.2,4.8,6.7,4.9,6,5.4,4.9,5.7,4.2,5,2.7,5.3s1.4.7-.1-1.8Z"/>
      <path class="cls-12" d="M17.4,554.5c11.2-24.5,47.6-17.4,98.7-38.9,0,0,2.6-.2-5.7,3.3-8.3,3.5-9.2,3.5-9.2,3.5l-16.3,4.7-22.4,5.3-13.8,3.7-9.9,2.6-6.3,3.2-8.9,7s-6.9,7.2-6.2,5.7Z"/>
      <path d="M173.1,467.8c-5.5,3.5-2.4,37.7-2.4,37.7h.8s-.9-27.8.6-32.6,1-5.1,1-5.1Z"/>
      <circle cx="175.9" cy="479.2" r="1.2"/>
      <circle cx="175.9" cy="491.3" r="1.2"/>
    </g>
  </g>
</svg>