<?xml version="1.0" encoding="UTF-8"?>
<svg xmlns="http://www.w3.org/2000/svg" version="1.1" viewBox="0 0 400 600">
  <defs>
    <style>
      .cls-1 {
        fill: #010101;
      }

      .cls-2 {
        fill: #d32027;
        stroke-width: 6px;
      }

      .cls-2, .cls-3 {
        stroke: #000;
      }

      .cls-4, .cls-5 {
        fill: #fff;
      }

      .cls-5, .cls-6, .cls-7, .cls-8, .cls-9, .cls-10, .cls-11 {
        fill-rule: evenodd;
      }

      .cls-6 {
        fill: #33a457;
      }

      .cls-7 {
        fill: #fff22d;
      }

      .cls-8 {
        fill: #f6d330;
      }

      .cls-10 {
        fill: #cc2229;
      }

      .cls-3 {
        fill: #333;
        stroke-width: 2px;
      }

      .cls-11 {
        fill: #cc2131;
      }
    </style>
  </defs>
  <!-- Generator: Adobe Illustrator 28.7.4, SVG Export Plug-In . SVG Version: 1.2.0 Build 166)  -->
  <g>
    <g id="_x34_">
      <g id="Layer_1">
        <g id="suit2">
          <path id="Shirt" class="cls-2" d="M281.2,502.8c5.6,3.7,17.7,7.7,28.6,9.9,0,0,30.8,5.3,37.9,7.7,57.4,22.3,50.4,79.7,50.4,79.7l-395.8-.2s-3.8-63.4,37.2-71.5c7.7-1.5,25.9-8.7,35.6-9.4,0,0,37.4-9,42.8-12.6.9,5.7,11.3-29.5,4-41.3,19,3.1,38.2-.2,68.9,0,42.8.4,77.3,2.9,91.1-.5-8.6,16.4-.8,38.2-.8,38.2Z"/>
          <g>
            <polygon class="cls-3" points="76 559.4 326.9 559.4 324.4 598.3 74.7 598.3 76 559.4"/>
            <path class="cls-3" d="M-.1,599.8s-6.3-40.2,22.5-62.8c8.8-6.9,74.2-47,62.1,63.3.5,1.1-84.6-.6-84.6-.6h0Z"/>
            <path class="cls-3" d="M395.7,599.8s6.3-40.2-22.5-62.8c-7.9-8.3-68.7-61.9-53.9,62.9-.5,1.1,76.4-.2,76.4-.2h0Z"/>
          </g>
          <path d="M196,505.5c-12.2,8.8-5.5,94.8-5.5,94.8h1.8s.1-10.1-.4-19.6-.7-12.2-.9-18.9c-.4-18.4,1.1-37.7,2.7-43.5,3.4-12.1,2.3-12.7,2.3-12.7Z"/>
          <circle cx="200.5" cy="523.5" r="1.2"/>
          <circle cx="199.5" cy="538.7" r="1.2"/>
          <circle cx="198.5" cy="556.7" r="1.2"/>
          <circle cx="199.5" cy="574.6" r="1.2"/>
          <circle cx="200.5" cy="588.7" r="1.2"/>
        </g>
      </g>
      <path id="Shirt-neck" class="cls-2" d="M118,506.4c3.8-10.5,11.4-29.4,4.1-41.2,19,3.1,38.2-.2,68.9,0,42.8.4,77.2,2.7,91-.6-8.6,16.4,3.1,40.7,3.1,40.7l-167.1,1.2Z"/>
      <g id="logos">
        <g id="puma">
          <g id="M-02-Footer_desktop">
            <g id="puma_logo_footer">
              <path id="Shape" class="cls-4" d="M88.2,520.2c-.2,0-.3.6-.6.9-.2.2-.5.2-.6.5,0,0,0,.3-.1.4-.1.3-.6.4-.6.7s.4.5.7.7c.3.2.3.4.6.5.3,0,.6-.2,1,0,.3,0,.6.2.6.4s0,.7-.3.6c-.1,0-.6-.2-1.2-.1-.7,0-1.6.3-1.6,1.1,0,.5.5,1,1,.9.4,0,.2-.5.4-.7.3-.3,1.8.9,3.2.9s1-.2,1.5-.6c0,0,.1-.1.2-.1s.2,0,.2,0c1.1.9,2,2.7,6.1,2.7.6,0,1.3.3,1.8.8.5.5.8,1.2,1,1.9.4,1.1,1.2,2.1,2.3,3.2,0,0,1,.8,1.1.8,0,0,.1.2,0,.3,0,.7-.1,2.7,1.4,2.8.4,0,.3-.3.3-.4,0-.3,0-.7.1-1,.3-.5-.5-.7-.5-1.8,0-.8-.7-.7-1-1.2-.2-.3-.4-.6-.4-1,0-2.4-.5-4-.8-4.4-.2-.3-.4-.4-.2-.6,1.3-.8,1.5-1.6,1.5-1.6.7-1.6,1.3-3,2.1-3.6.2-.1.6-.5.9-.6.8-.4,1.2-.6,1.4-.8.3-.3.7-1.1.3-1.5-.4-.6-1.1-.1-1.5,0-2.3,1.4-2.6,3.7-3.4,5.1-.7,1.1-1.7,1.9-2.6,2-.7,0-1.4,0-2.2-.4-1.8-.8-2.8-1.8-3-2-.5-.4-4.2-4-7.3-4.2,0,0-.4-.8-.5-.8-.2,0-.5.5-.6.5-.2,0-.4-.5-.6-.5Z"/>
            </g>
          </g>
        </g>
        <g id="puma-2" data-name="puma">
          <g id="M-02-Footer_desktop-2" data-name="M-02-Footer_desktop">
            <g id="puma_logo_footer-2" data-name="puma_logo_footer">
              <path id="Shape-2" data-name="Shape" class="cls-4" d="M295.4,519.4c-.2,0-.3.6-.6.9-.2.2-.5.2-.6.5,0,0,0,.3-.1.4-.1.3-.6.4-.6.7s.4.5.7.7c.3.2.3.4.6.5.3,0,.6-.2,1,0,.3,0,.6.2.6.4s0,.7-.3.6c-.1,0-.6-.2-1.2-.1-.7,0-1.6.3-1.6,1.1,0,.5.5,1,1,.9.4,0,.2-.5.4-.7.3-.3,1.8.9,3.2.9s1-.2,1.5-.6c0,0,.1-.1.2-.1s.2,0,.2,0c1.1.9,2,2.7,6.1,2.7.6,0,1.3.3,1.8.8.5.5.8,1.2,1,1.9.4,1.1,1.2,2.1,2.3,3.2,0,0,1,.8,1.1.8,0,0,.1.2,0,.3,0,.7-.1,2.7,1.4,2.8.4,0,.3-.3.3-.4,0-.3,0-.7.1-1,.3-.5-.5-.7-.5-1.8,0-.8-.7-.7-1-1.2-.2-.3-.4-.6-.4-1,0-2.4-.5-4-.8-4.4-.2-.3-.4-.4-.2-.6,1.3-.8,1.5-1.6,1.5-1.6.7-1.6,1.3-3,2.1-3.6.2-.1.6-.5.9-.6.8-.4,1.2-.6,1.4-.8.3-.3.7-1.1.3-1.5-.4-.6-1.1-.1-1.5,0-2.3,1.4-2.6,3.7-3.4,5.1-.7,1.1-1.7,1.9-2.6,2-.7,0-1.4,0-2.2-.4-1.8-.8-2.8-1.8-3-2-.5-.4-4.2-4-7.3-4.2,0,0-.4-.8-.5-.8-.2,0-.5.5-.6.5-.2,0-.4-.5-.6-.5Z"/>
            </g>
          </g>
        </g>
        <g>
          <path class="cls-10" d="M240.7,586.8l-1-8.3c-2.7-1.9-4.8-3.5-7.3-5.4-1.2-8.8,1-13.5,4.2-18,4-5.1,10.5-8.9,18.2-8.9,7.7,0,14.2,4,18,9.1,3.6,4.8,5.5,10.9,4.1,18.1l-6.9,5.1-1,8.3h-11c-.7.5-1.6,1-3.1,1.1-1.4,0-2.4-.5-3.1-1.1h-10.9Z"/>
          <path class="cls-8" d="M254.7,575.3c-.6-7.8-.7-17.3-1.2-25-.8-.2-2-.1-3,0-1,.3-1.7.6-2.5,1,1.5,7.4,3.3,16.8,4.8,24.1-2-7.1-4.8-16-6.8-23.1-1,.2-1.9.7-2.6,1.3-.7.6-1.1,1-1.8,2,2.9,6.2,6.4,14.2,9.4,20.4-3.4-5.6-7.5-13.1-11-18.7-.7.6-1.2,1-1.8,2.1-.6.9-.8,2-1,3,3.7,4.6,8.2,10,12,14.6-3.9-3.8-8.8-8.7-12.6-12.4-.4.8-.6,1.4-.7,2.7-.1,1.2.1,2.7.4,3.6l7.6,5.6.8,6.3h8.4c.6.8.8,1.1,1.8,1.2.9,0,1.5-.6,1.7-1.1h8.3l.8-6.3,7.5-5.6c.3-.9.5-2.4.4-3.6-.1-1.3-.4-2-.7-2.7-3.9,3.8-8.8,8.6-12.6,12.4,3.8-4.5,8.2-10,12-14.6-.2-1-.4-2.1-1-3-.7-1.1-1.1-1.6-1.8-2.2-3.4,5.6-7.6,13.1-11,18.7,3-6.2,6.4-14.2,9.4-20.3-.6-1-1.1-1.5-1.8-2-.8-.6-1.7-1.1-2.6-1.3-2.1,7.1-4.7,16-6.8,23.1,1.4-7.3,3.2-16.6,4.7-24-.7-.5-1.4-.8-2.4-1.1-1.1-.2-2.2-.2-3-.1-.6,7.7-.6,17.3-1.2,25h0Z"/>
        </g>
        <g>
          <path class="cls-9" d="M345.8,581l-8.5-4.2c-.2,0-.3-.3-.3-.5v-2.3c0-.2,0-.3.3-.5.9-.6,3.7-2.1,6.6-6.4,3.9-5.7,0-10.4-6.1-9.1-5.4,1.2-10.9,4.1-13.2,5.7-2.1,1.4-1.8,3.1-1.9,4.7.1.6.4.6.9,0,3.9-3.7,10-6.4,11.1-6.9s3.8-2.1,6.9-1.4c3,.7,2.3,4.8,1.4,6.5-1,1.9-3.9,4.6-5.2,5.3-.5.3-.7,0-.7-.4l.2-8.9c0-.6-.3-.9-.9-.6l-.9.5c-.6.4-.6.5-.7,1v10.2c-.1.2-.3.4-.4.4l-3.1,1.7c-.7.4-.5.9,0,1.1l2.5,1.2c.6.2.8.4.8,1v4.9c2.1-.4,2.3-1.5,2.3-2.2v-1.5c0-.4.3-.5.6-.4l7.2,3.5c.6.3,1,.2,1.5-.6.5-.8.5-1.2-.4-1.6h0ZM358.3,568.5c-1,.6-1.5,1.7-1.1,2.3.4.7,1.6.8,2.6.2,1-.6,1.4-1.6,1-2.3-.4-.7-1.6-.8-2.5-.2Z"/>
          <path class="cls-9" d="M354.6,569.2c-.3.3-.8,1.3-1.1,2-.3.6-.9,2-1.5,2s-.7-1.6-.7-2.2-.4-.7-.5-.6-.7.2-.8.8c-.1.6-.9,3.3-1.8,3.3s-1-1.6-1-2.1c0-.5-.3-.9-.8-.9s-.8.2-1,.4-.2.5-1.1.3c-.9,0-1.7.4-2.7,2.1-.6,1-1.1,2.9-.2,3.7.9.7,2.4-.6,2.8-1.1.4-.5.8-.9,1-1.2.2-.3.4-.3.4,0,0,.3.6,1.4,1.2,1.4.6,0,1.5-.5,2.4-2.2.2-.4.4-.3.5,0,0,.3.4,1.3,1.1,1.3s1.3-1,1.6-1.6c.2-.4.6-.2.6.2s-.2,9.4-.2,9.4c0,.4.2.5.5.5h1.3c.2,0,.4-.2.4-.5l.3-14.6c0-.4-.4-.6-.7-.2h0ZM344.6,575c-.3.4-1,1.6-1.6,1.4-.3-.2.1-1.4.3-1.8.3-.6,1.3-1.6,1.7-1.4.4.2-.2,1.3-.4,1.7h0ZM389.5,566c-.1.1-.3.3-.7,0-.7-.3-.8-1.7-1.2-2.9-.3-1.1-1.2-1.1-1.5-.5l-.9,1.4c-.2.3-.5,1-.9,1s-.2-.6-.2-1.2c0-.4-.2-.9-.6-.9s-1,.7-1.4,1.5c-.3.6-1,2.8-1.8,2.8s-.6-1.6-.6-2.1-.2-1.1-.7-1.1-.6.2-.7.4c-.2.2-.2.4-.8.3-.9,0-2.3.8-3.3,2.4-.6,1-1.3,3.1-.4,3.9.9.7,2.4-.9,2.8-1.5.4-.5.8-.9,1-1.2.2-.3.4-.3.4,0,0,.3.6,1.4,1.2,1.4.6,0,1.2-.2,2.1-1.9.2-.4.5-.4.6-.1s.1,1.1.7,1.1c1.1,0,2.3-2.6,2.6-3.2.3-.5.7-.4.8,0,.2.6.4,2.4,1.5,2.4s1.9-1.2,2.2-1.6c.3-.4.1-.9-.3-.5h0ZM377,567.7c-.3.4-.9,1.4-1.5,1.2-.3-.2,0-1,.3-1.4.3-.6,1.3-1.6,1.7-1.4.4.2-.3,1.2-.5,1.6h0ZM371.3,566.2s-2.5-1.8-3.2-2.6c-.5-.6-.1-1,.1-1.2,1.8-1.2,4.5-3,5.6-5.8,1-2.7-.6-5.1-1.8-5.5-1.6-.5-5,.5-6.7,3.7-1.1,2.1-1.6,2.7-1.8,8.3,0,1.1,0,2.3,0,3.6s-.1,4.9-.3,5.6c-.6,1.6,1.1.6,1.9,0,.8-.6.7-1.5.7-1.9s0-9.3.3-11.3c.2-1.2.4-3.5,1.6-5.5,1.3-2,2.6-1.2,3-.9.4.3.9,1.1.6,2.8-.4,2.6-3.4,5.4-4.2,6.3-.8.9-.6,1.6-.1,2.3.3.4,1.1,1.3,1.9,2.1.8.8.7,1.5.6,2-.4,1.6-4.7,5.9-4.7,5.9-.9,1,0,2.6.4,3.1.3.5.7.4,1,0,1.1-2,5.6-6.7,5.6-6.7,1.3-1.7.8-3.3-.4-4.2h0Z"/>
        </g>
        <path class="cls-4" d="M62.7,545l2.8-4.8H23.1l2.8,4.8h36.8ZM28.2,549l5.5,9.3,10.6,18,10.6-18,5.5-9.3H28.2ZM48.5,560.8l-4,6.8-4-6.8-4-6.8h16l-4,6.8ZM30.6,586.1c-.8,2.1-1.6,4.2-2.4,6.3-.8-2.1-1.6-4.2-2.4-6.3-.7,0-1.4,0-2,0,1.2,2.9,2.3,5.7,3.5,8.6,0,0,0,0,0,0,.3,0,.6,0,1,0,.3,0,.6,0,1,0,0,0,0,0,0,0,1.2-2.9,2.3-5.7,3.5-8.6-.7,0-1.4,0-2,0ZM54.7,586.1c-.3,0-.6,0-1,0-.3,0-.6,0-1,0,0,0,0,0,0,0-1.2,2.9-2.3,5.7-3.5,8.6.7,0,1.4,0,2,0,.8-2.1,1.6-4.2,2.4-6.3.8,2.1,1.6,4.2,2.4,6.3.7,0,1.4,0,2,0-1.2-2.9-2.3-5.7-3.5-8.6,0,0,0,0,0,0h0ZM34.3,586.1v8.7h6.4v-1.9h-4.5v-1.5h4.5v-1.9h-4.5v-1.5h4.5v-1.9h-6.4ZM44.2,586.1h-1.9v8.7h6.4v-1.9h-4.5v-6.8ZM65.2,591.2c-.1-.3-.3-.5-.5-.7-.2-.2-.5-.4-.7-.5-.3-.1-.6-.2-.9-.3-.3,0-.6-.1-1-.2-.3,0-.6,0-.9-.2-.2,0-.4-.2-.6-.3,0,0-.1-.1-.2-.2,0,0,0-.2,0-.3,0-.3.1-.5.4-.7s.7-.3,1.2-.3c.4,0,.8,0,1.1.3.3.2.6.4.7.6h0c0,0,0,0,0,0h0s1.3-.7,1.3-.7h0s0,0,0,0h0c-.5-1.1-1.6-1.7-3.2-1.7-.5,0-1,0-1.5.2-.5.2-.9.4-1.2.8-.3.4-.5.8-.5,1.4s0,.8.3,1.1c.2.3.4.6.8.8.3.2.6.3,1,.4.4.1.8.2,1.2.2,1.2.1,1.8.5,1.8,1.1s-.2.7-.5.8c-.3.2-.8.3-1.3.3-.5,0-.9-.1-1.4-.3-.4-.2-.7-.5-.8-.9h0c0,0,0,0,0,0h0s-1.4.7-1.4.7h0s0,0,0,0h0c.5,1.4,1.7,2.1,3.5,2.1.6,0,1.1,0,1.7-.3.5-.2.9-.5,1.2-.9.3-.4.5-.9.5-1.5,0-.3,0-.7-.2-1h0Z"/>
      </g>
      <path d="M173.1,467.8c-5.5,3.5-2.4,37.7-2.4,37.7h.8s-.9-27.8.6-32.6,1-5.1,1-5.1Z"/>
      <circle cx="175.9" cy="479.2" r="1.2"/>
      <circle cx="175.9" cy="491.3" r="1.2"/>
      <g>
        <path class="cls-5" d="M164.6,550.6v.8l-15.9-2.8-15.9,2.8v-.8l15.9-2.8,15.9,2.8Z"/>
        <path class="cls-6" d="M164.6,549.7v.8l-15.9-2.8-15.9,2.8v-.8l15.9-2.8,15.9,2.8Z"/>
        <path class="cls-11" d="M164.6,551.4l-15.9-2.8-15.9,2.8v2.8s.1,0,.1,0c0,0,5.7-3.2,15.8-3.2s15.7,3.1,15.7,3.2h.1c0,0,0-2.7,0-2.7Z"/>
        <path class="cls-7" d="M148.7,551.5c9.1,0,14.4,2.6,15.3,3v8.1c0,4.4-1,8.8-3.1,13.1-4.5,9.3-11.3,13-12.2,13.5-.9-.5-7.7-4.1-12.2-13.5-2.1-4.3-3.1-8.7-3.1-13.1v-8.1c.9-.4,6.3-3,15.4-3Z"/>
        <path class="cls-9" d="M132.9,554.1h-.1v8.5c0,4.5,1.1,9,3.2,13.4,4.9,10.2,12.5,13.8,12.6,13.8h.1c0,0,.1,0,.1,0,0,0,7.7-3.6,12.6-13.8,2.1-4.4,3.2-8.8,3.2-13.4v-8.5h-.1c0-.1-5.6-3.2-15.7-3.2s-15.7,3.1-15.8,3.2h0ZM148.7,551.5c9.1,0,14.4,2.6,15.3,3v8.1c0,4.4-1,8.8-3.1,13.1-4.5,9.3-11.3,13-12.2,13.5-.9-.5-7.7-4.1-12.2-13.5-2.1-4.3-3.1-8.7-3.1-13.1v-8.1c.9-.4,6.3-3,15.4-3h0Z"/>
      </g>
      <polygon class="cls-1" points="148.7 584.3 148.8 584.3 151.2 586.8 152 586 149.2 583.3 149.2 582.4 151.2 584.4 152 583.7 149.2 580.9 149.2 580.1 151.2 582.1 152 581.3 149.2 578.6 149.2 560.1 151.7 561.3 149 553.7 148.7 552.9 148.4 553.7 145.6 561.3 148.2 560.1 148.2 578.6 145.4 581.3 146.2 582.1 148.2 580.1 148.2 580.9 145.4 583.7 146.2 584.4 148.2 582.4 148.2 583.3 145.4 586 146.2 586.8 148.6 584.3 148.7 584.3"/>
    </g>
  </g>
</svg>