<?xml version="1.0" encoding="UTF-8"?>
<svg xmlns="http://www.w3.org/2000/svg" version="1.1" viewBox="0 0 400 600">
  <defs>
    <style>
      .cls-1 {
        fill: $[primary];
      }

      .cls-1, .cls-2 {
        stroke: #000;
      }

      .cls-1, .cls-3 {
        stroke-width: 6px;
      }

      .cls-4, .cls-2, .cls-3 {
        fill: #fff;
      }

      .cls-2 {
        stroke-miterlimit: 10;
      }

      .cls-5 {
        fill: #a01f1f;
      }

      .cls-3 {
        stroke: #fff;
      }

      .cls-6 {
        fill: #231f20;
      }

      .cls-7 {
        fill: #e51515;
      }

      .cls-8 {
        fill: #9a0000;
      }

      .cls-9 {
        fill: #f6d330;
      }

      .cls-9, .cls-10, .cls-11 {
        fill-rule: evenodd;
      }

      .cls-11 {
        fill: #cc2229;
      }
    </style>
  </defs>
  <!-- Generator: Adobe Illustrator 28.7.4, SVG Export Plug-In . SVG Version: 1.2.0 Build 166)  -->
  <g>
    <g id="_x32_1">
      <g id="Layer_1">
        <g id="suit2">
          <path id="Shirt" class="cls-1" d="M281.2,502.8c5.6,3.7,17.7,7.7,28.6,9.9,0,0,30.8,5.3,37.9,7.7,57.4,22.3,50.4,79.7,50.4,79.7l-395.8-.2s-3.8-63.4,37.2-71.5c7.7-1.5,25.9-8.7,35.6-9.4,0,0,37.4-9,42.8-12.6.9,5.7,11.3-29.5,4-41.3,19,3.1,38.2-.2,68.9,0,42.8.4,77.3,2.9,91.1-.5-8.6,16.4-.8,38.2-.8,38.2Z"/>
          <path d="M196,505.5c-12.2,8.8-5.5,94.8-5.5,94.8h1.8s.1-10.1-.4-19.6-.7-12.2-.9-18.9c-.4-18.4,1.1-37.7,2.7-43.5,3.4-12.1,2.3-12.7,2.3-12.7Z"/>
          <circle cx="200.5" cy="523.5" r="1.2"/>
          <circle cx="199.5" cy="538.7" r="1.2"/>
          <circle cx="198.5" cy="556.7" r="1.2"/>
          <circle cx="199.5" cy="574.6" r="1.2"/>
          <circle cx="200.5" cy="588.7" r="1.2"/>
        </g>
      </g>
      <path id="Shirt-neck" class="cls-1" d="M118,506.4c3.8-10.5,11.4-29.4,4.1-41.2,19,3.1,38.2-.2,68.9,0,42.8.4,77.2,2.7,91-.6-8.6,16.4,3.1,40.7,3.1,40.7l-167.1,1.2Z"/>
      <path d="M173.1,467.8c-5.5,3.5-2.4,37.7-2.4,37.7h.8s-.9-27.8.6-32.6,1-5.1,1-5.1Z"/>
      <circle cx="175.9" cy="479.2" r="1.2"/>
      <circle cx="175.9" cy="491.3" r="1.2"/>
      <path class="cls-3" d="M380.1,549.5c-24.9-32.8-66.7-27.3-93.9-38.9-1.3-.5,3.4,2.3,3.4,2.3l5,1.6,9,2.5,5.6,1.1,8.4,1.4,11.4,2.6,10.7,2.6,9,3,8.5,3.6,6.2,3.6,5.6,4,4.6,4.3,3.9,3.7,2.6,3.9s1.3.5-.1-1.3Z"/>
      <path class="cls-3" d="M18.8,548.5c11.1-23.1,46.9-16.4,97.3-36.7,0,0,2.6-.2-5.6,3.1-8.2,3.3-9.1,3.3-9.1,3.3l-16.1,4.4-22,5-13.6,3.5-9.8,2.5-6.2,3-8.7,6.6s-6.8,6.8-6.1,5.4Z"/>
      <polygon class="cls-8" points="55.4 525.4 58.8 537.6 84.2 531.5 79.4 520.1 55.4 525.4"/>
      <path class="cls-8" d="M333.3,518.9c13.9,2.9,16.9,4.6,24.7,8.4l-6.4,10.2-21.9-6.8,3.6-11.8Z"/>
      <g>
        <rect class="cls-4" x="222.5" y="519.2" width="74.1" height="44.3"/>
        <g>
          <rect class="cls-4" x="225.2" y="521.3" width="68.8" height="41.5"/>
          <path class="cls-5" d="M248.6,559"/>
          <g>
            <path d="M234.5,551.7l1.3-9.2h4.7v1.5h-.8v14.1h.8v1.6h-4.9v-1.6h.9v-11.8l-2,13.4h-2l-1.8-13.4v11.8h.7v1.6h-2.8v-1.6h.7v-14.2h-.7v-1.5h4.6l1.3,9.2Z"/>
            <path d="M259.5,558.2v1.5h-4.2v-1.5h.7v-16.6h-.8v-1.5h3.7v18.1h.6Z"/>
            <path d="M264.9,546.8c1,0,1.8.6,2.3,1.7.5,1.1.8,2.9.8,5s-.2,3.7-.7,4.8-1.2,1.7-2.2,1.7-.8,0-1.1-.3-.5-.3-.7-.7l-.2.8h-3.2v-1.5h.7v-16.6h-.8v-1.5h3.6v7.5c.2-.4.9-.8,1.5-.8ZM264.8,548.9c-.1-.3-.3-.5-.6-.5s-.5.3-.6.6-.1.7-.1,1.6v5.9c0,.3,0,.5,0,.6,0,.1,0,.3,0,.3s0,.2,0,.2c.1.3.4.6.6.6s.5-.2.6-.6c.1-.4.2-1.2.2-2.3v-4.9c0-.7,0-1.2-.2-1.5Z"/>
            <path d="M275.3,548.4c-.7-1.1-1.6-1.7-2.9-1.7s-2.3.6-2.9,1.7-1,2.8-1,4.9.3,3.8,1,5,1.6,1.7,2.9,1.7c2.7,0,4-2.2,4-6.7,0-2.2-.3-3.8-1-4.9ZM273.2,553.3c0,4.2,0,5.3-.8,5.3s-.6,0-.7-1,0-2.5,0-4.3,0-3.4.1-4.3.4-.9.7-.9c.4,0,.6.2.7,1.1.1.9,0,2.4,0,4.1Z"/>
            <path d="M289.7,548.4c-.7-1.1-1.6-1.7-2.9-1.7s-2.3.6-2.9,1.7-1,2.8-1,4.9.3,3.8,1,5,1.6,1.7,2.9,1.7c2.7,0,4-2.2,4-6.7,0-2.2-.3-3.8-1-4.9ZM287.5,553.3c0,4.2,0,5.3-.8,5.3s-.6,0-.7-1,0-2.5,0-4.3,0-3.4.1-4.3.4-.9.7-.9c.4,0,.6.2.7,1.1.1.9,0,2.4,0,4.1Z"/>
            <path d="M281.2,551c.3.1.6.2.9,0,.9-.5.8-2.1.8-2.1,0-.7,0-1.2-.3-1.6-.3-.4-.6-.6-1.1-.6-.9,0-1.4.9-1.7,1.2v-.9h-3.6v1.5h.7v9.6h-.7v1.5h4.5v-1.5h-.8v-8c0-1.4.8-1.8.8-1.8,0,0-.2.2-.2,1s.5,1.4.8,1.6Z"/>
            <path d="M253.9,551c.3.1.6.2.9,0,.9-.5.8-2.1.8-2.1,0-.7,0-1.2-.3-1.6-.3-.4-.6-.6-1.1-.6-.9,0-1.4.9-1.7,1.2v-.9h-3.6v1.5h.7v9.6h-.7v1.5h4.5v-1.5h-.8v-8c0-1.4.8-1.8.8-1.8,0,0-.2.2-.2,1,0,1,.5,1.4.8,1.6Z"/>
            <path d="M248.3,557.8s-.7.6-.7-.8v-6.1c0-1.1,0-2.1-.4-2.7-.6-.9-1.4-1.6-2.9-1.6s-1.9.2-2.5.7c-.6.5-1,1.3-1,2.2s.3,1.1.5,1.4.7.4,1.1.4.7-.2,1-.5.4-.7.4-1.2c0-.4-.1-.6-.2-.8-.1-.2-.2-.3-.5-.6,0,0,.2-.2.6-.2s.7,0,.8.3c.2.2.2.7.2,1.2v2.4c0,.2-.1.3-.3.3h-.9c-.4,0-1.1,0-1.5.3-.4.2-.9.6-1.2,1.4-.2.5-.4,1.2-.4,1.9,0,1.1.3,2.2.8,2.9s1,1.1,1.8,1.1c1.4,0,2-1.1,2-1.1.3.4.6.6.8.8.3.1.5.3,1.1.3,1,0,1.6-.9,1.6-.9l-.3-1.2ZM244.8,556.6c0,.6,0,.9-.2,1.2s-.2.4-.5.4c-.5,0-.8-.6-.8-2s0-.9,0-1.2,0-.7.2-.8c0-.2.2-.3.4-.4s.3,0,.6,0h0c.1,0,.2,0,.2.2v2.7h0Z"/>
          </g>
          <polygon class="cls-7" points="294 521.3 294 542.2 259.4 533.7 225.2 542.1 225.2 521.3 294 521.3"/>
        </g>
      </g>
      <g>
        <rect class="cls-2" x="116.8" y="544.9" width="51.9" height="20.8"/>
        <g id="layer1">
          <g id="g6981">
            <path id="path7114" class="cls-6" d="M119.2,561.4h.4v1.2h1.5v-1.2h.4v2.7h-.4v-1.2h-1.5v1.2h-.4v-2.7Z"/>
            <path id="path7116" class="cls-6" d="M127.3,563.1c0,.7-.4,1-1.1,1s-1.1-.3-1.1-1v-1.7h.4v1.7c0,.5.3.7.8.7s.7-.3.7-.7v-1.7h.4v1.7Z"/>
            <path id="path7118" class="cls-6" d="M131.9,564.1c-.8,0-1.3-.7-1.3-1.4s.4-1.5,1.3-1.5,1.1.3,1.2.9h-.4c0-.4-.4-.6-.8-.6-.7,0-1,.6-1,1.2s.4,1.1,1,1.1c.3,0,.6,0,.8-.3.1-.1,0-.4,0-.6h-.9v-.3h1.2v1c-.3.4-.7.5-1.2.5Z"/>
            <path id="path7120" class="cls-6" d="M137.6,563.8c.7,0,1-.6,1-1.1s-.3-1.1-1-1.1-1,.6-1,1.1.3,1.1,1,1.1ZM137.6,561.3c.9,0,1.3.7,1.3,1.4s-.4,1.4-1.3,1.4-1.3-.7-1.3-1.4.4-1.4,1.3-1.4Z"/>
            <path id="path7122" class="cls-6" d="M146.4,562.5h.7c.4,0,.6-.1.6-.4s-.3-.4-.6-.4h-.7v.9ZM146.4,563.8h.9c.3,0,.5-.2.5-.5s-.3-.4-.6-.4h-.8v.9ZM146,561.4h1c.3,0,.6,0,.7,0,.2.1.3.3.3.6s-.2.5-.4.6h0c.3,0,.5.3.5.7s-.3.8-.8.8h-1.3v-2.7Z"/>
            <path id="path7124" class="cls-6" d="M152.9,563.8c.7,0,1-.6,1-1.1s-.3-1.1-1-1.1-1,.6-1,1.1.3,1.1,1,1.1ZM152.9,561.3c.9,0,1.3.7,1.3,1.4s-.5,1.4-1.3,1.4-1.3-.7-1.3-1.4.4-1.4,1.3-1.4Z"/>
            <path id="path7126" class="cls-6" d="M159.3,562.1c0-.4-.3-.6-.7-.6s-.6.1-.6.5.4.4.9.5c.4,0,.9.2.9.8s-.6.8-1.1.8-1.1-.3-1.1-.9h.3c0,.4.4.7.8.7s.7-.1.7-.5-.4-.4-.9-.5c-.4,0-.9-.2-.9-.7s.5-.8,1-.8,1,.3,1,.9h-.4Z"/>
            <path id="path7128" class="cls-6" d="M165.3,562.1c0-.4-.3-.6-.7-.6s-.6.1-.6.5.4.4.9.5c.4,0,.9.2.9.8s-.6.8-1.1.8-1.2-.3-1.2-.9h.4c0,.4.4.7.8.7s.7-.1.7-.5-.5-.4-.9-.5c-.4,0-.9-.2-.9-.7s.5-.8,1-.8,1,.3,1,.9h-.3Z"/>
            <path id="path7130" class="cls-6" d="M122.5,547.1v4.8h1.7s.2,0,.2,0c1,0,1.7-1.3,1.7-2.2.1-1-.5-2.6-1.9-2.6-.4,0-1.8,0-1.8,0ZM122.5,552.5v5.8h1.6s.9,0,1.7-.6c.8-.6,1.2-1.6,1.1-2.7,0-1-.8-2.4-2.4-2.5h-1.9ZM126.2,546.6c1.3,0,2.2.8,2.2.9.7.6.9,1.6.7,2.5-.2,1.5-2.1,2.2-2.1,2.2,1.6.2,2.7,1.4,2.9,2.7.2,1.3-.3,2.4-1.3,3.2-1,.8-2.6,1-3.4,1h-6.7v-.5c.9,0,1,0,1-.3,0-1.3,0-10.4,0-10.7s-.1-.3-1-.3c0-.2,0-.5,0-.5h7.6Z"/>
            <path id="path7132" class="cls-6" d="M136.5,547.2c-.8.6-1.4,1.9-1.7,2.9-.4,1.6-.4,3.6,0,5.5.5,2,1.7,2.7,2.5,2.8,1.4.3,2.3-.5,2.8-1.3,1-1.5,1.2-4.5.9-6.3-.3-1.6-.7-2.7-1.5-3.5-.9-.8-2.3-.8-3-.3ZM144,554.9c-.6,1.8-1.7,2.9-3.1,3.6-1.8,1-4.3,1.1-6,0-1.1-.7-3.9-2.4-3.5-6.5,0-.9.5-3.1,3-4.8,1.7-1.1,4.1-1.4,6.3-.4,3.5,1.6,4.2,5.6,3.3,8Z"/>
            <path id="path7134" class="cls-6" d="M154.3,547.1c0,.9,0,2.8,0,2.8h-.4c-.3-1.2-.8-2.2-1.8-2.7-.9-.5-2.4-.7-3.3.1-.5.5-.6,1-.4,1.6.3.8,1.2,1.1,1.9,1.4.6.2,1.8.6,1.8.6,1.4.5,2.9,1.4,3.3,3,.2.7.2,1.4,0,2.1-.3,1.5-1.3,1.9-1.9,2.3-.3.2-2.9,1.2-6,.2-.6-.2-1.4-.5-1.4-.5v-3.4s.3,0,.5,0c.2.6.4,1.2.9,1.9,1.1,1.6,2.6,2,4.2,1.7.7-.2,1.4-.6,1.6-1.3.2-.8.2-2.1-2.2-2.9-1.7-.8-3.8-1.1-4.8-3-.4-1.1-.3-2.9,1-3.8,1.3-.9,2.6-1.1,4.1-.9,1.5.2,1.9.4,2.8.8Z"/>
            <path id="path7136" class="cls-6" d="M165.4,547.1c0,.9,0,2.8,0,2.8h-.4c-.3-1.2-.8-2.2-1.8-2.7-.9-.5-2.4-.7-3.3.1-.5.5-.6,1-.4,1.6.3.8,1.2,1.1,1.9,1.4.6.2,1.8.6,1.8.6,1.4.5,2.9,1.4,3.3,3,.2.7.2,1.4,0,2.1-.3,1.5-1.3,1.9-1.9,2.3-.3.2-2.9,1.2-6,.2-.6-.2-1.4-.5-1.4-.5v-3.4s.3,0,.5,0c.2.6.4,1.2.9,1.9,1.1,1.6,2.6,2,4.2,1.7.7-.2,1.4-.6,1.6-1.3.2-.8.2-2.1-2.2-2.9-1.7-.8-3.8-1.1-4.8-3-.4-1.1-.3-2.9,1-3.8,1.3-.9,2.6-1.1,4.1-.9,1.5.2,1.9.4,2.8.8Z"/>
          </g>
        </g>
      </g>
      <g>
        <rect class="cls-2" x="116.8" y="517.7" width="51.8" height="23.6"/>
        <g>
          <path class="cls-11" d="M123,539.8l-.5-4.3c-1.4-1-2.5-1.8-3.8-2.8-.6-4.5.5-7,2.2-9.3,2.1-2.6,5.5-4.6,9.5-4.6,4.1,0,7.4,2,9.4,4.7,1.9,2.5,2.9,5.6,2.1,9.3l-3.6,2.6-.5,4.3h-5.8c-.4.3-.8.5-1.6.6-.8,0-1.2-.3-1.6-.6h-5.7Z"/>
          <path class="cls-9" d="M130.4,533.9c-.3-4-.4-8.9-.6-12.9-.4-.1-1,0-1.6,0-.5.2-.9.3-1.3.5.8,3.8,1.7,8.6,2.5,12.4-1.1-3.7-2.5-8.3-3.6-11.9-.5.1-1,.4-1.4.7-.4.3-.6.5-1,1,1.5,3.2,3.4,7.3,4.9,10.5-1.8-2.9-4-6.7-5.8-9.6-.3.3-.6.5-1,1.1-.3.5-.4,1-.5,1.5,2,2.4,4.3,5.2,6.3,7.5-2.1-2-4.6-4.5-6.6-6.4-.2.4-.3.7-.4,1.4,0,.6,0,1.4.2,1.8l4,2.9.4,3.2h4.4c.3.4.4.6.9.6.5,0,.8-.3.9-.6h4.4l.4-3.2,4-2.9c.1-.5.2-1.2.2-1.8,0-.7-.2-1-.4-1.4-2.1,1.9-4.6,4.5-6.6,6.4,2-2.3,4.3-5.2,6.3-7.5-.1-.5-.2-1.1-.5-1.5-.4-.6-.6-.8-.9-1.1-1.8,2.9-4,6.7-5.8,9.6,1.6-3.2,3.4-7.3,4.9-10.5-.3-.5-.6-.8-.9-1-.4-.3-.9-.6-1.4-.7-1.1,3.6-2.5,8.3-3.6,11.9.8-3.8,1.7-8.6,2.4-12.4-.4-.3-.8-.4-1.2-.6-.6-.1-1.1-.1-1.6,0-.3,4-.3,8.9-.6,12.9h0Z"/>
          <path class="cls-10" d="M142.4,538.4h2.1c0,.4.2.6.3.6.1,0,1,0,1.4,0,.2,0,.3,0,.3-.6s0-.5-.3-.5c-.9,0-1.8,0-2.7,0-.9-.2-1-.4-1.1-1.1,0-1,.4-1.2,1.4-1.3,1,0,2.1,0,3.1,0,1.1,0,1.4.4,1.4,1.3h-1.9c0-.4,0-.6-.3-.6-.5,0-.9,0-1.4,0-.2,0-.4,0-.4.5s0,.5.3.5c.8,0,1.6,0,2.3,0,1.3,0,1.3.6,1.4,1.2,0,.8-.3,1.1-.5,1.3-.2,0-1.2.2-1.4.2h-2c-.5,0-1,0-1.5-.2-.5-.1-.5-.7-.5-1.3h0ZM161.6,539.9h1.8v-4.4h-1.8v4.4ZM164.6,539.9h1.8v-4.4h-1.8v4.4ZM160.6,537.6c0-.1,0-.3-.1-.4-.3-.5-1.4-.5-2.4-.5-.8,0-1.9,0-2.3.3-.1.1-.2.4-.3.6,0,.3,0,.5,0,.7,0,.2,0,1.1.5,1.3.4.3,1.6.3,2.1.3s1.9,0,2.1-.3c.4-.1.4-.6.5-.9h-1.8c0,.3-.3.6-.8.5-.5,0-.8,0-.8-.7h3.4c0-.3,0-.6,0-.9h0ZM158.9,537.9h-1.6c0-.1,0-.2,0-.3.1-.3.4-.3.7-.3.5,0,.7.1.8.3,0,0,0,.2,0,.3h0ZM149.4,539.9h1.8v-1.9c0-.3.1-.5.8-.5.6,0,.8.2.8.5v1.9h1.8v-1.9c0-.6,0-.9-.4-1.1-.4-.2-.9-.2-1.4-.2s-1.1,0-1.5.3v-1.5h-1.8v4.4h0Z"/>
        </g>
      </g>
      <rect class="cls-2" x="125.2" y="572.3" width="164.5" height="24.9"/>
      <g>
        <path id="svg_1" d="M173.5,579.7l1.9.2c.9,0,1,.8,1,1.3v2.3h-8.9v-2.3c0-.5,0-1.2,1-1.3l1.9-.2v-1.9h-11.6v1.9l1.9.2c.9,0,1,.8,1,1.3v7.5c0,.5,0,1.2-1,1.3l-1.9.2v1.9h11.6v-1.9l-1.9-.2c-.9,0-1-.8-1-1.3v-2.3h8.9v2.3c0,.5,0,1.2-1,1.3l-1.9.2v1.9h11.6v-1.9l-1.9-.2c-.9,0-1-.8-1-1.3v-7.5c0-.5,0-1.2,1-1.3l1.9-.2v-1.9h-11.6v1.9h0Z"/>
        <path id="svg_2" d="M250.4,577.8h-14.2v1.9l1.7.2c.6,0,1,.3,1,1.2v7.6c0,.5,0,1.2-1,1.3l-1.9.2v1.9h14.4c5.2,0,9.4-2.1,9.4-7.2s-4.3-7.2-9.4-7.2M249.4,589.4h-4.9v-8.9h4.9c2.9,0,3.8,1.3,3.8,4.4s-1,4.4-3.8,4.4"/>
        <path id="svg_3" d="M284.1,590c-.9,0-1.2-.7-1.5-1.1l-6.7-10.2c-.5-.7-.8-1-1.5-1h-10.9v1.9l2.6.3c.4,0,.9.6.5,1.2l-4.9,8c-.2.3-.5.7-1,.8l-1.9.2v1.9h9.2v-1.9h-1.6c-.7-.2-1.1-.7-.7-1.2l.7-1.2h8.9l.6,1c.6.9-.1,1.2-.8,1.3l-1.6.2v1.9h12.5v-1.9l-1.9-.2ZM267.9,585.2l2.7-4.4,2.9,4.4h-5.6Z"/>
        <path id="svg_4" d="M225.9,579.7l1.9.2c.9,0,1,.8,1,1.3v7.2l-7.6-10.1c-.3-.5-.6-.6-1.5-.6h-9.9v1.9l1.9.2c.9,0,1,.8,1,1.3v7.5c0,.5,0,1.2-1,1.3l-1.9.2v1.9h9.2v-1.9l-1.9-.2c-.9,0-1-.8-1-1.3v-7.2l7.6,10c.4.5.6.6,1.5.6h7v-11c0-.5,0-1.2,1-1.3l1.9-.2v-1.9h-9.2v2h0Z"/>
        <path id="svg_5" d="M197.4,577.3c-9.4,0-11.8,4.1-11.8,7.7s2.4,7.7,11.8,7.7,11.8-4.1,11.8-7.7-2.4-7.7-11.8-7.7M197.4,590c-3.7,0-5.1-1.5-5.1-4.9s1.5-4.9,5.1-4.9,5.1,1.5,5.1,4.9-1.5,4.9-5.1,4.9"/>
        <path id="svg_6" d="M149.1,575.3c-.6,2.9-.9,4.3-1.4,6.3-.5,2-.9,3.9-1.6,4.8-.7.9-1.6,1.1-2.2,1.2-.3,0-.6,0-1.3,0s-.9,0-1.3,0c-.6,0-1.6-.3-2.2-1.2-.7-.9-1.1-2.8-1.6-4.8-.5-2.1-.8-3.4-1.4-6.3,0,0-.6,0-.9,0-.4,0-.7,0-1,0,0,0,.4,6,.6,8.5.2,2.7.5,7.2.8,10.6,0,0,.6,0,1.5.1.9,0,1.4,0,1.4,0,.4-1.5.9-3.6,1.4-4.5.5-.7,1.1-.8,1.5-.9.6,0,1.1,0,1.4,0h0c.2,0,.8,0,1.4,0,.4,0,1.1.1,1.5.9.6.9,1,3,1.4,4.5,0,0,.4,0,1.4,0,.9,0,1.5-.1,1.5-.1.3-3.4.6-7.9.8-10.6.2-2.5.6-8.5.6-8.5-.3,0-.6,0-1,0-.3,0-.9,0-.9,0"/>
        <path id="svg_7" d="M156.6,578.8c-.4-3.8-2.9-4.6-5.1-5-1.1-.2-3.1-.3-4.4-.4-1.1,0-3.7-.1-4.5-.1s-3.4,0-4.5.1c-1.3,0-3.3.2-4.4.4-2.2.4-4.8,1.2-5.1,5-.1,1-.1,2.4-.1,3.8,0,2.4.2,4,.4,5.2,0,.8.4,3.1.8,4.3.6,1.7,1.1,2.1,1.7,2.6,1.1.9,2.9,1.2,3.3,1.3,2.1.4,6.2.4,8,.4s6,0,8-.4c.4,0,2.2-.3,3.3-1.3.6-.5,1.1-1,1.7-2.6.4-1.2.7-3.5.8-4.3.1-1.1.3-2.8.4-5.2,0-1.5,0-2.8-.2-3.8M155.2,585.2c-.2,3-.5,4.9-.9,6.2-.3,1.2-.8,1.9-1.4,2.5-1,.9-2.4,1.1-3.3,1.3-1.8.3-4.8.4-7.2.4s-5.4,0-7.2-.4c-.8-.1-2.2-.3-3.3-1.3-.6-.6-1-1.3-1.4-2.5-.4-1.3-.7-3.1-.9-6.2-.1-1.8-.1-4.8,0-6.4.3-2.4,1.5-3.6,4-4,1.2-.2,2.8-.4,4.3-.4,1.2,0,3.2-.1,4.3-.1,1.1,0,3.1,0,4.3.1,1.5,0,3.1.2,4.3.4,2.5.5,3.7,1.7,4,4,.2,1.6.2,4.5,0,6.4"/>
      </g>
      <g>
        <rect class="cls-4" x="186.8" y="470.4" width="51.1" height="30.6"/>
        <g>
          <rect class="cls-4" x="188.7" y="471.9" width="47.5" height="28.6"/>
          <path class="cls-5" d="M204.8,497.9"/>
          <g>
            <path d="M195.1,492.8l.9-6.3h3.3v1h-.5v9.8h.5v1.1h-3.4v-1.1h.7v-8.2l-1.4,9.2h-1.4l-1.3-9.2v8.2h.5v1.1h-1.9v-1.1h.5v-9.8h-.5v-1h3.2l.9,6.3Z"/>
            <path d="M212.4,497.3v1.1h-2.9v-1.1h.5v-11.5h-.5v-1h2.5v12.5h.4Z"/>
            <path d="M216.1,489.4c.7,0,1.2.4,1.6,1.2.4.8.6,2,.6,3.4s-.1,2.5-.5,3.3-.9,1.2-1.5,1.2-.5,0-.7-.2-.3-.2-.5-.5v.5h-2.4v-1.1h.5v-11.5h-.5v-1h2.5v5.2c.2-.3.6-.5,1-.5ZM216,490.9c0-.2-.2-.3-.4-.3s-.4.2-.4.4,0,.5,0,1.1v4c0,.2,0,.3,0,.4,0,.1,0,.2,0,.2s0,.1,0,.2c0,.2.3.4.4.4s.4-.1.4-.4c0-.3.1-.8.1-1.6v-3.4c0-.5,0-.8-.1-1Z"/>
            <path d="M223.2,490.5c-.5-.8-1.1-1.2-2-1.2s-1.6.4-2,1.2-.7,1.9-.7,3.4.2,2.6.7,3.4,1.1,1.2,2,1.2c1.8,0,2.7-1.5,2.7-4.6,0-1.5-.2-2.6-.7-3.4ZM221.8,493.9c0,2.9,0,3.6-.6,3.6s-.4,0-.5-.7,0-1.8,0-3,0-2.3,0-3,.3-.7.5-.7c.3,0,.4.1.5.8,0,.6,0,1.7,0,2.8Z"/>
            <path d="M233.2,490.5c-.5-.8-1.1-1.2-2-1.2s-1.6.4-2,1.2-.7,1.9-.7,3.4.2,2.6.7,3.4,1.1,1.2,2,1.2c1.8,0,2.7-1.5,2.7-4.6,0-1.5-.2-2.6-.7-3.4ZM231.7,493.9c0,2.9,0,3.6-.6,3.6s-.4,0-.5-.7,0-1.8,0-3,0-2.3,0-3,.3-.7.5-.7c.3,0,.4.1.5.8,0,.6,0,1.7,0,2.8Z"/>
            <path d="M227.3,492.3c.2.1.4.1.6,0,.6-.3.6-1.4.6-1.4,0-.5,0-.8-.2-1.1-.2-.3-.4-.4-.8-.4-.6,0-1,.6-1.2.8v-.6h-2.5v1h.5v6.6h-.5v1h3.1v-1h-.6v-5.5c0-1,.5-1.2.5-1.2,0,0-.2.2-.2.7s.3,1,.6,1.1Z"/>
            <path d="M208.5,492.3c.2.1.4.1.6,0,.6-.3.6-1.4.6-1.4,0-.5,0-.8-.2-1.1-.2-.3-.4-.4-.8-.4-.6,0-1,.6-1.2.8v-.6h-2.5v1h.5v6.6h-.5v1h3.1v-1h-.6v-5.5c0-1,.5-1.2.5-1.2,0,0-.2.2-.2.7,0,.7.3,1,.6,1.1Z"/>
            <path d="M204.6,497.1s-.5.4-.5-.5v-4.2c0-.8,0-1.4-.3-1.8-.4-.6-1-1.1-2-1.1s-1.3.1-1.7.5c-.4.3-.7.9-.7,1.5s.2.7.4,1,.5.3.8.3.5-.1.7-.3.3-.5.3-.8c0-.3,0-.4-.1-.6,0-.1-.1-.2-.3-.4,0,0,.2-.2.4-.2s.5,0,.6.2c.1.2.2.4.2.8v1.7c0,.1,0,.2-.2.2h-.6c-.2,0-.8,0-1,.2-.2.1-.7.4-.9,1-.1.4-.2.8-.2,1.3,0,.8.2,1.5.5,2s.7.8,1.3.8c1,0,1.4-.7,1.4-.7.2.3.4.4.6.5.2.1.4.2.8.2.7,0,1.1-.6,1.1-.6l-.2-.8ZM202.2,496.2c0,.4,0,.6-.1.8s-.2.3-.3.3c-.4,0-.5-.4-.5-1.4s0-.6,0-.8,0-.4.1-.6c0-.1.1-.2.3-.2s.2,0,.4,0h0c0,0,.1,0,.1.1v1.9h0Z"/>
          </g>
          <polygon class="cls-7" points="236.2 471.9 236.2 486.2 212.3 480.4 188.7 486.2 188.7 471.9 236.2 471.9"/>
        </g>
      </g>
    </g>
  </g>
</svg>