<?xml version="1.0" encoding="UTF-8"?>
<svg xmlns="http://www.w3.org/2000/svg" version="1.1" viewBox="0 0 400 600">
  <defs>
    <style>
      .cls-1 {
        fill: $[secondary];
      }

      .cls-2 {
        fill: #f0df40;
      }

      .cls-2, .cls-3, .cls-4, .cls-5, .cls-6, .cls-7, .cls-8 {
        fill-rule: evenodd;
      }

      .cls-9 {
        fill: #150a00;
      }

      .cls-9, .cls-10{
        stroke: #000;
		fill:$[primary];
      }

      .cls-9, .cls-11 {
        stroke-width: 6px;
      }

      .cls-12, .cls-3, .cls-10 {
        fill: #fff;
      }

      .cls-4 {
        fill: #e6bf3e;
      }

      .cls-5 {
        fill: #32593c;
      }

      .cls-6 {
        fill: #d0d1d3;
      }

      .cls-7 {
        fill: #cc5637;
      }

      .cls-10 {
        stroke-width: 10px;
      }

      .cls-8 {
        fill: #dfa43b;
      }

      .cls-13 {
        fill: $[accent];
      }

      .cls-11 {
        fill: $[secondary];
		stroke: #000;
      }
    </style>
  </defs>
  <!-- Generator: Adobe Illustrator 28.7.4, SVG Export Plug-In . SVG Version: 1.2.0 Build 166)  -->
  <g>
    <g id="_x31_5">
      <g id="Layer_1">
        <g id="suit2">
          <path id="Shirt" class="cls-9" d="M281.2,502.8c5.6,3.7,17.7,7.7,28.6,9.9,0,0,30.8,5.3,37.9,7.7,57.4,22.3,50.4,79.7,50.4,79.7l-395.8-.2s-3.8-63.4,37.2-71.5c7.7-1.5,25.9-8.7,35.6-9.4,0,0,37.4-9,42.8-12.6.9,5.7,11.3-29.5,4-41.3,19,3.1,38.2-.2,68.9,0,42.8.4,77.3,2.9,91.1-.5-8.6,16.4-.8,38.2-.8,38.2Z"/>
          <g>
            <path class="cls-1" d="M337.9,520.3c-4.8,8.1-7.5,68.1,6.6,76.7,26.5.5,50.9,0,50.9,0,0,0,5.6-58.5-57.5-76.7Z"/>
            <path class="cls-1" d="M65.9,523.8c5.3,2.6,2.7,63-10.7,73.2-26.3.5-50.5,0-50.5,0,0,0,2.5-63.7,61.2-73.2Z"/>
          </g>
          <g>
            <path class="cls-13" d="M62,524.7c10.7,57.2-57.1,72.5-57.1,72.5,0,0-9.1-68.4,57.1-72.5Z"/>
            <path class="cls-13" d="M342.1,521.9c-5.2,73,53.4,75.1,53.4,75.1,0,0,5.2-57.3-53.4-75.1Z"/>
          </g>
          <path d="M196,505.5c-12.2,8.8-5.5,94.8-5.5,94.8h1.8s.1-10.1-.4-19.6-.7-12.2-.9-18.9c-.4-18.4,1.1-37.7,2.7-43.5,3.4-12.1,2.3-12.7,2.3-12.7Z"/>
          <circle cx="200.5" cy="523.5" r="1.2"/>
          <circle cx="199.5" cy="538.7" r="1.2"/>
          <circle cx="198.5" cy="556.7" r="1.2"/>
          <circle cx="199.5" cy="574.6" r="1.2"/>
          <circle cx="200.5" cy="588.7" r="1.2"/>
        </g>
      </g>
      <path id="Shirt-neck" class="cls-11" d="M118,506.4c3.8-10.5,11.4-29.4,4.1-41.2,19,3.1,38.2-.2,68.9,0,42.8.4,77.2,2.7,91-.6-8.6,16.4,3.1,40.7,3.1,40.7l-167.1,1.2Z"/>
      <g>
        <path class="cls-10" d="M30.1,548.5c-.2.9-.7,2.3-1.4,4.3-.2.5-.4,1-.4,1.2,0,.2-.2.7-.4,1.1-.2.4-.4,1.1-.6,1.6-.1.5-.3,1-.4,1.3-.1.2-.3.7-.3,1-.1.4-.3.6-.8,1-.8.6-2.4,1.9-3.4,3-.5.5-1,1-1.2,1.2s-.5.5-.7.7c-.1.2-.4.5-.6.8-.7,1-2,3-2.1,3.3,0,.1-.1.3-.2.3-.3.2-1.2,3.4-1.4,4.7,0,.7-.4,2.2-.6,3.3-.7,2.9-.5,4.2.8,5.1,1.2.8,2.2.7,4.1-.4.8-.5,1.4-.9,1.7-1.2.2-.3.5-.6.7-.6.3-.2.8-.8,1.4-1.6.2-.2.4-.6.6-.8.2-.2.5-.6.6-.9.2-.3.5-.7.7-.9.2-.2.8-1.1,1.4-2,.6-.9,1.3-1.9,1.5-2.2.2-.3.6-.9.8-1.2.4-.6.4-.6,1.1-.8.4-.1,1.1-.3,1.5-.4,1.2-.3,1.9-.5,3.2-.8.7-.2,1.7-.4,2.2-.5.5-.1,1.1-.3,1.5-.3.3,0,.8-.2,1-.3s.6-.2.8-.2c.2,0,.5,0,.6-.1s.4-.1.6,0c.2,0,.4,0,.6,0,.3-.1.2-.2-.2-.7-.2-.3-1.3-2-2.3-3.7-2-3.3-2.1-3.6-1.6-3.9s.5-.5.8-.9.7-1.1.9-1.4c.2-.4.6-.9.8-1.2s.5-.6.6-.7c.1,0,.2-.3.2-.4s.1-.3.2-.4.6-.8,1.2-1.6,1.6-2.4,2.2-3.3c.6-1,1.8-2.7,2.6-3.9.8-1.2,1.4-2.1,1.5-2.2s.5-.7,1.1-1.6,1.5-2.2,2.1-3.1c1.7-2.4,1.9-2.6,1.8-2.8-.1-.2-.6,0-1,.4-1.3,1.4-3,3-4.4,4.1-.4.3-.8.7-1,.9-.2.2-.8.8-1.5,1.3s-1.5,1.2-1.9,1.6c-.4.4-1.3,1.1-1.9,1.6-1.1.9-1.9,1.6-3.4,3-.4.4-1,.8-1.1.9-.3.2-.8.6-2.9,2.6-.6.5-1.2,1-1.3,1.1-.2,0-.4,0-1.1-1.2-1.4-2.1-2.4-3.6-2.6-3.7-.3-.2-.5,0-.7,1h0ZM32.6,553.2c.7,1.1,1.3,1.9,1.4,2s.4-.2.8-.5c1.4-1.2,3-2.6,4-3.4.6-.5,1.4-1.2,1.9-1.6.5-.4,1.1-1,1.4-1.3.3-.3.7-.6.8-.8,0-.1.3-.3.4-.4s.5-.5.8-.8c.7-.8,1-1,1.4-1,.3,0,.3,0,0,.6-.2.3-.4.6-.5.7s-.4.4-.7.9c-.3.4-.7.9-.8,1.1s-.8,1.1-1.5,2.2c-.7,1-1.3,1.9-1.4,2s-.3.4-.5.7-.4.7-.5.8c-.5.7-.9,1.3-.9,1.5,0,0,0,.2-.2.3s-.6.7-1.1,1.5l-.9,1.4,2,3.1c1.1,1.7,1.9,3.2,1.9,3.3,0,0-.4.2-.9.3-.4,0-1.2.3-1.7.4-.5.1-1.2.3-1.5.4s-1,.2-1.5.4-1.1.2-1.3.3c-.2,0-1,.2-1.7.4-.7.2-1.6.4-1.9.5-.5,0-.6.1-1.1,1-.3.5-.6.9-.7.9s-.6.8-1.2,1.7c-1.7,2.5-2.5,3.7-3.2,4.7-.4.5-.7,1-.7,1.1,0,.1-.2.3-.4.4s-.5.4-.7.6c-.7.9-1.5,1.7-2.4,2.2s-1,.5-1.5.5c-.3,0-.6-.2-.7-.3-.2-.3,0-2.2.5-3.5.3-1,1-2.2,1.6-3.1,0,0,.2-.3.3-.4.4-.6,1.1-1.3,3.1-3.5.3-.3.7-.8.9-1,.2-.2.4-.4.5-.5s.6-.6,1.1-1.2c1-1.2,1.1-1.6.6-2-.2-.1-.4-.1-.6.1-.9.8-2,2.3-2.3,3.1,0,.2-.5.7-.8,1-.7.6-1.6,1.5-2.3,2.3-.7.8-1.2,1.1-1.4.9-.1-.2.7-2.4,1.2-3.1.1-.2.3-.5.5-.8.6-1.3,2.2-3.2,3.9-4.9,1-1,2.8-2.5,3.3-2.8s.7-.5,1-1.3c.2-.5.5-1.2.5-1.3s.2-.9.5-1.5c.2-.6.5-1.4.6-1.6,0-.3.3-1,.5-1.6.2-.6.5-1.4.6-1.8.3-1.2.4-1.1,1.8,1h0Z"/>
        <path class="cls-10" d="M23.3,571.5c-.2.3-.7,1-1,1.4-1.1,1.2-1.9,2.9-1.6,3.2.4.3,1.9-1.1,2.5-2.4.2-.4.3-.7.4-.7s.1-.2.1-.3c0-.1.3-.6.5-1.1.2-.4.3-.9.3-1-.1-.2-.7.2-1.2.9Z"/>
        <path class="cls-10" d="M378.3,559.4c-.8-.4-2-1.3-3.8-2.6-.4-.3-.9-.6-1-.7-.1,0-.6-.4-.9-.7-.4-.3-1-.7-1.4-1-.4-.3-.9-.6-1.1-.8-.2-.2-.6-.4-.9-.6-.3-.2-.5-.5-.7-1-.3-1-1.2-2.8-1.9-4.1-.3-.6-.7-1.3-.8-1.5s-.4-.6-.5-.8c-.2-.2-.4-.5-.6-.8-.8-1-2.4-2.8-2.6-2.9-.1,0-.3-.2-.3-.3,0-.3-2.9-2.1-4.1-2.6-.7-.3-2-1-3-1.5-2.6-1.5-3.9-1.6-5.1-.6-1.1.9-1.2,1.9-.7,4,.2.9.5,1.6.7,1.9.2.3.4.7.4.8,0,.3.5,1,1.2,1.8.2.2.5.6.6.8.2.2.5.6.7.9.2.3.5.6.7.9.2.2.9,1.1,1.6,1.9.7.8,1.5,1.7,1.7,2,.2.3.7.8.9,1.1.5.5.5.6.5,1.3,0,.4,0,1.1,0,1.6,0,1.3,0,1.9,0,3.3,0,.7,0,1.7,0,2.2,0,.5,0,1.2,0,1.5,0,.3,0,.8,0,1s0,.6,0,.8c0,.2-.1.5,0,.6s0,.4,0,.6c0,.1-.1.4,0,.6,0,.3.1.3.7,0,.4-.2,2.2-.7,4.2-1.2,3.8-1,4-1,4.2-.4s.4.6.7,1,.9,1,1.1,1.3c.3.3.7.8,1,1.1s.5.6.5.7c0,.1.2.3.3.4s.3.2.3.3.6.8,1.3,1.6,1.8,2.1,2.6,3c.8.9,2.1,2.5,3,3.5.9,1.1,1.7,2,1.7,2s.6.7,1.2,1.5,1.7,2.1,2.4,2.9c1.8,2.3,2,2.6,2.2,2.5.3,0,.2-.5-.1-1.1-1-1.7-2.1-3.7-2.8-5.3-.2-.4-.5-1-.6-1.2-.1-.2-.5-1-.8-1.7s-.8-1.8-1.1-2.3c-.3-.5-.7-1.5-1-2.2-.6-1.3-1-2.2-2-4.1-.3-.5-.5-1.1-.6-1.4,0-.4-.3-.9-1.7-3.5-.4-.7-.7-1.4-.7-1.6,0-.2.2-.3,1.4-.7,2.4-.8,4.1-1.4,4.3-1.5.3-.2,0-.5-.8-.9h0ZM373.1,560.5c-1.2.4-2.2.7-2.3.8s0,.4.3.9c.8,1.7,1.7,3.6,2.2,4.7.3.7.8,1.7,1,2.2.3.5.6,1.3.8,1.7.2.4.4.8.5.9.1.1.2.3.3.5s.3.6.6,1c.6.9.7,1.2.5,1.6-.1.3-.2.3-.6-.3-.3-.3-.5-.6-.5-.7s-.3-.5-.7-.9c-.3-.4-.7-.9-.8-1.1s-.9-1.1-1.7-2.1c-.8-.9-1.5-1.8-1.5-1.9s-.3-.4-.6-.7-.6-.6-.7-.7c-.5-.7-1-1.3-1.2-1.3,0,0-.2-.1-.2-.2s-.5-.8-1.1-1.5l-1.1-1.3-3.6,1c-2,.5-3.6,1-3.6.9,0,0,0-.5,0-.9,0-.4,0-1.2,0-1.7,0-.5,0-1.2,0-1.5s0-1,0-1.5,0-1.1,0-1.3c0-.2,0-1,0-1.8,0-.7,0-1.6,0-1.9,0-.5,0-.6-.6-1.4-.4-.4-.7-.9-.7-.9s-.6-.8-1.3-1.6c-1.9-2.3-2.9-3.4-3.6-4.4-.4-.5-.8-.9-.8-1,0,0-.2-.3-.3-.5s-.2-.6-.4-.8c-.7-.9-1.2-1.9-1.5-3s-.3-1.1,0-1.6c.1-.3.4-.6.5-.6.4,0,2.1.7,3.2,1.4.8.6,1.9,1.5,2.5,2.4,0,.1.2.3.3.4.5.6,1,1.4,2.5,4,.2.4.6.9.7,1.1.2.2.3.5.4.6s.4.7.9,1.4c.9,1.2,1.3,1.5,1.7,1.1.2-.2.2-.3,0-.7-.5-1.1-1.6-2.5-2.4-3.1-.2-.1-.5-.6-.7-1-.4-.9-1-1.9-1.6-2.9-.6-.9-.7-1.5-.5-1.6.2,0,2.1,1.4,2.6,2,.1.2.4.5.6.7,1,1,2.5,3,3.6,5.1.7,1.2,1.6,3.4,1.8,4s.3.8,1,1.3c.5.4,1,.8,1.2.8s.8.5,1.3.9c.5.4,1.2.8,1.4,1,.2.1.9.6,1.4.9.5.4,1.2.9,1.6,1,1.1.6,1,.7-1.5,1.4h0Z"/>
        <path class="cls-10" d="M358,546.6c-.3-.3-.8-.9-1.1-1.4-.9-1.4-2.3-2.6-2.7-2.4-.4.3.6,2.1,1.6,3.1.3.3.6.5.6.6s.1.1.3.2c.1,0,.5.4.9.7.4.3.8.6.9.5.3,0,0-.8-.6-1.4Z"/>
      </g>
      <g>
        <path class="cls-12" d="M30.1,548.5c-.2.9-.7,2.3-1.4,4.3-.2.5-.4,1-.4,1.2,0,.2-.2.7-.4,1.1-.2.4-.4,1.1-.6,1.6-.1.5-.3,1-.4,1.3-.1.2-.3.7-.3,1-.1.4-.3.6-.8,1-.8.6-2.4,1.9-3.4,3-.5.5-1,1-1.2,1.2s-.5.5-.7.7c-.1.2-.4.5-.6.8-.7,1-2,3-2.1,3.3,0,.1-.1.3-.2.3-.3.2-1.2,3.4-1.4,4.7,0,.7-.4,2.2-.6,3.3-.7,2.9-.5,4.2.8,5.1,1.2.8,2.2.7,4.1-.4.8-.5,1.4-.9,1.7-1.2.2-.3.5-.6.7-.6.3-.2.8-.8,1.4-1.6.2-.2.4-.6.6-.8.2-.2.5-.6.6-.9.2-.3.5-.7.7-.9.2-.2.8-1.1,1.4-2,.6-.9,1.3-1.9,1.5-2.2.2-.3.6-.9.8-1.2.4-.6.4-.6,1.1-.8.4-.1,1.1-.3,1.5-.4,1.2-.3,1.9-.5,3.2-.8.7-.2,1.7-.4,2.2-.5.5-.1,1.1-.3,1.5-.3.3,0,.8-.2,1-.3s.6-.2.8-.2c.2,0,.5,0,.6-.1s.4-.1.6,0c.2,0,.4,0,.6,0,.3-.1.2-.2-.2-.7-.2-.3-1.3-2-2.3-3.7-2-3.3-2.1-3.6-1.6-3.9s.5-.5.8-.9.7-1.1.9-1.4c.2-.4.6-.9.8-1.2s.5-.6.6-.7c.1,0,.2-.3.2-.4s.1-.3.2-.4.6-.8,1.2-1.6,1.6-2.4,2.2-3.3c.6-1,1.8-2.7,2.6-3.9.8-1.2,1.4-2.1,1.5-2.2s.5-.7,1.1-1.6,1.5-2.2,2.1-3.1c1.7-2.4,1.9-2.6,1.8-2.8-.1-.2-.6,0-1,.4-1.3,1.4-3,3-4.4,4.1-.4.3-.8.7-1,.9-.2.2-.8.8-1.5,1.3s-1.5,1.2-1.9,1.6c-.4.4-1.3,1.1-1.9,1.6-1.1.9-1.9,1.6-3.4,3-.4.4-1,.8-1.1.9-.3.2-.8.6-2.9,2.6-.6.5-1.2,1-1.3,1.1-.2,0-.4,0-1.1-1.2-1.4-2.1-2.4-3.6-2.6-3.7-.3-.2-.5,0-.7,1h0ZM32.6,553.2c.7,1.1,1.3,1.9,1.4,2s.4-.2.8-.5c1.4-1.2,3-2.6,4-3.4.6-.5,1.4-1.2,1.9-1.6.5-.4,1.1-1,1.4-1.3.3-.3.7-.6.8-.8,0-.1.3-.3.4-.4s.5-.5.8-.8c.7-.8,1-1,1.4-1,.3,0,.3,0,0,.6-.2.3-.4.6-.5.7s-.4.4-.7.9c-.3.4-.7.9-.8,1.1s-.8,1.1-1.5,2.2c-.7,1-1.3,1.9-1.4,2s-.3.4-.5.7-.4.7-.5.8c-.5.7-.9,1.3-.9,1.5,0,0,0,.2-.2.3s-.6.7-1.1,1.5l-.9,1.4,2,3.1c1.1,1.7,1.9,3.2,1.9,3.3,0,0-.4.2-.9.3-.4,0-1.2.3-1.7.4-.5.1-1.2.3-1.5.4s-1,.2-1.5.4-1.1.2-1.3.3c-.2,0-1,.2-1.7.4-.7.2-1.6.4-1.9.5-.5,0-.6.1-1.1,1-.3.5-.6.9-.7.9s-.6.8-1.2,1.7c-1.7,2.5-2.5,3.7-3.2,4.7-.4.5-.7,1-.7,1.1,0,.1-.2.3-.4.4s-.5.4-.7.6c-.7.9-1.5,1.7-2.4,2.2s-1,.5-1.5.5c-.3,0-.6-.2-.7-.3-.2-.3,0-2.2.5-3.5.3-1,1-2.2,1.6-3.1,0,0,.2-.3.3-.4.4-.6,1.1-1.3,3.1-3.5.3-.3.7-.8.9-1,.2-.2.4-.4.5-.5s.6-.6,1.1-1.2c1-1.2,1.1-1.6.6-2-.2-.1-.4-.1-.6.1-.9.8-2,2.3-2.3,3.1,0,.2-.5.7-.8,1-.7.6-1.6,1.5-2.3,2.3-.7.8-1.2,1.1-1.4.9-.1-.2.7-2.4,1.2-3.1.1-.2.3-.5.5-.8.6-1.3,2.2-3.2,3.9-4.9,1-1,2.8-2.5,3.3-2.8s.7-.5,1-1.3c.2-.5.5-1.2.5-1.3s.2-.9.5-1.5c.2-.6.5-1.4.6-1.6,0-.3.3-1,.5-1.6.2-.6.5-1.4.6-1.8.3-1.2.4-1.1,1.8,1h0Z"/>
        <path class="cls-12" d="M23.3,571.5c-.2.3-.7,1-1,1.4-1.1,1.2-1.9,2.9-1.6,3.2.4.3,1.9-1.1,2.5-2.4.2-.4.3-.7.4-.7s.1-.2.1-.3c0-.1.3-.6.5-1.1.2-.4.3-.9.3-1-.1-.2-.7.2-1.2.9Z"/>
        <path class="cls-12" d="M378.3,559.4c-.8-.4-2-1.3-3.8-2.6-.4-.3-.9-.6-1-.7-.1,0-.6-.4-.9-.7-.4-.3-1-.7-1.4-1-.4-.3-.9-.6-1.1-.8-.2-.2-.6-.4-.9-.6-.3-.2-.5-.5-.7-1-.3-1-1.2-2.8-1.9-4.1-.3-.6-.7-1.3-.8-1.5s-.4-.6-.5-.8c-.2-.2-.4-.5-.6-.8-.8-1-2.4-2.8-2.6-2.9-.1,0-.3-.2-.3-.3,0-.3-2.9-2.1-4.1-2.6-.7-.3-2-1-3-1.5-2.6-1.5-3.9-1.6-5.1-.6-1.1.9-1.2,1.9-.7,4,.2.9.5,1.6.7,1.9.2.3.4.7.4.8,0,.3.5,1,1.2,1.8.2.2.5.6.6.8.2.2.5.6.7.9.2.3.5.6.7.9.2.2.9,1.1,1.6,1.9.7.8,1.5,1.7,1.7,2,.2.3.7.8.9,1.1.5.5.5.6.5,1.3,0,.4,0,1.1,0,1.6,0,1.3,0,1.9,0,3.3,0,.7,0,1.7,0,2.2,0,.5,0,1.2,0,1.5,0,.3,0,.8,0,1s0,.6,0,.8c0,.2-.1.5,0,.6s0,.4,0,.6c0,.1-.1.4,0,.6,0,.3.1.3.7,0,.4-.2,2.2-.7,4.2-1.2,3.8-1,4-1,4.2-.4s.4.6.7,1,.9,1,1.1,1.3c.3.3.7.8,1,1.1s.5.6.5.7c0,.1.2.3.3.4s.3.2.3.3.6.8,1.3,1.6,1.8,2.1,2.6,3c.8.9,2.1,2.5,3,3.5.9,1.1,1.7,2,1.7,2s.6.7,1.2,1.5,1.7,2.1,2.4,2.9c1.8,2.3,2,2.6,2.2,2.5.3,0,.2-.5-.1-1.1-1-1.7-2.1-3.7-2.8-5.3-.2-.4-.5-1-.6-1.2-.1-.2-.5-1-.8-1.7s-.8-1.8-1.1-2.3c-.3-.5-.7-1.5-1-2.2-.6-1.3-1-2.2-2-4.1-.3-.5-.5-1.1-.6-1.4,0-.4-.3-.9-1.7-3.5-.4-.7-.7-1.4-.7-1.6,0-.2.2-.3,1.4-.7,2.4-.8,4.1-1.4,4.3-1.5.3-.2,0-.5-.8-.9h0ZM373.1,560.5c-1.2.4-2.2.7-2.3.8s0,.4.3.9c.8,1.7,1.7,3.6,2.2,4.7.3.7.8,1.7,1,2.2.3.5.6,1.3.8,1.7.2.4.4.8.5.9.1.1.2.3.3.5s.3.6.6,1c.6.9.7,1.2.5,1.6-.1.3-.2.3-.6-.3-.3-.3-.5-.6-.5-.7s-.3-.5-.7-.9c-.3-.4-.7-.9-.8-1.1s-.9-1.1-1.7-2.1c-.8-.9-1.5-1.8-1.5-1.9s-.3-.4-.6-.7-.6-.6-.7-.7c-.5-.7-1-1.3-1.2-1.3,0,0-.2-.1-.2-.2s-.5-.8-1.1-1.5l-1.1-1.3-3.6,1c-2,.5-3.6,1-3.6.9,0,0,0-.5,0-.9,0-.4,0-1.2,0-1.7,0-.5,0-1.2,0-1.5s0-1,0-1.5,0-1.1,0-1.3c0-.2,0-1,0-1.8,0-.7,0-1.6,0-1.9,0-.5,0-.6-.6-1.4-.4-.4-.7-.9-.7-.9s-.6-.8-1.3-1.6c-1.9-2.3-2.9-3.4-3.6-4.4-.4-.5-.8-.9-.8-1,0,0-.2-.3-.3-.5s-.2-.6-.4-.8c-.7-.9-1.2-1.9-1.5-3s-.3-1.1,0-1.6c.1-.3.4-.6.5-.6.4,0,2.1.7,3.2,1.4.8.6,1.9,1.5,2.5,2.4,0,.1.2.3.3.4.5.6,1,1.4,2.5,4,.2.4.6.9.7,1.1.2.2.3.5.4.6s.4.7.9,1.4c.9,1.2,1.3,1.5,1.7,1.1.2-.2.2-.3,0-.7-.5-1.1-1.6-2.5-2.4-3.1-.2-.1-.5-.6-.7-1-.4-.9-1-1.9-1.6-2.9-.6-.9-.7-1.5-.5-1.6.2,0,2.1,1.4,2.6,2,.1.2.4.5.6.7,1,1,2.5,3,3.6,5.1.7,1.2,1.6,3.4,1.8,4s.3.8,1,1.3c.5.4,1,.8,1.2.8s.8.5,1.3.9c.5.4,1.2.8,1.4,1,.2.1.9.6,1.4.9.5.4,1.2.9,1.6,1,1.1.6,1,.7-1.5,1.4h0Z"/>
        <path class="cls-12" d="M358,546.6c-.3-.3-.8-.9-1.1-1.4-.9-1.4-2.3-2.6-2.7-2.4-.4.3.6,2.1,1.6,3.1.3.3.6.5.6.6s.1.1.3.2c.1,0,.5.4.9.7.4.3.8.6.9.5.3,0,0-.8-.6-1.4Z"/>
      </g>
      <path d="M173.1,467.8c-5.5,3.5-2.4,37.7-2.4,37.7h.8s-.9-27.8.6-32.6,1-5.1,1-5.1Z"/>
      <circle cx="175.9" cy="479.2" r="1.2"/>
      <circle cx="175.9" cy="491.3" r="1.2"/>
      <g>
        <polygon points="233.1 500.2 221.6 500.2 221.6 478.5 233.4 478.5 233.4 478.6 231.8 480.7 224.4 480.8 224.4 487.1 232.8 487.1 232.8 487.3 231.7 489.2 224.4 489.2 224.4 498.2 234.1 498.2 234.1 498.3 233.1 500.2"/>
        <g>
          <path d="M268.5,500.3l-7.6-11.6c3.2,0,5.5-.5,6.7-1.6,1-1,1.2-2.2,1.2-3.4,0-2.5-1.4-3.5-4.2-3.5h-4.4v20h-2.8v-21.7h7.5c2.3,0,4.3.7,5.5,1.9.8.9,1.3,1.8,1.3,3,0,4.1-2.7,5.8-6.9,6.2l6.9,10.7h-3Z"/>
          <path d="M204,496.8c-1,.5-3.1,1.8-7.4,1.8s-11.2-4.3-11.2-11.9,4.9-11.9,11.1-11.9,7.1,1.8,7.3,1.9l1.9-1.3c-1.4-1.1-4.3-2.9-9.3-2.9-9,0-14.7,6.4-14.7,13.9s5.9,14.2,14.7,14.2,4.7-.5,6.7-1.3c.9-.4,1.5-.8,2.3-1.3l-1.5-1.3Z"/>
        </g>
        <polygon points="210.6 478.4 210.7 478.4 210.7 498.2 219.5 498.2 219.6 498.3 218.5 500.2 207.9 500.2 207.9 479.5 210.6 478.4"/>
        <path d="M234.8,500.3l10.6-22.5h0c0,0,.3,0,.3,0l10.3,22.4v.2c0,0-3,0-3,0h0c-.9-1.8-1.3-3-7.9-17.3l-3.4,7.8h5.2l1,1.9v.2c0,0-7.2,0-7.2,0-.2.6-2.9,6.2-3.4,7.2h-2.5Z"/>
        <polygon points="233.1 500.2 221.6 500.2 221.6 478.5 233.4 478.5 233.4 478.6 231.8 480.7 224.4 480.8 224.4 487.1 232.8 487.1 232.8 487.3 231.7 489.2 224.4 489.2 224.4 498.2 234.1 498.2 234.1 498.3 233.1 500.2"/>
        <g>
          <path d="M268.5,500.3l-7.6-11.6c3.2,0,5.5-.5,6.7-1.6,1-1,1.2-2.2,1.2-3.4,0-2.5-1.4-3.5-4.2-3.5h-4.4v20h-2.8v-21.7h7.5c2.3,0,4.3.7,5.5,1.9.8.9,1.3,1.8,1.3,3,0,4.1-2.7,5.8-6.9,6.2l6.9,10.7h-3Z"/>
          <path d="M204,496.8c-1,.5-3.1,1.8-7.4,1.8s-11.2-4.3-11.2-11.9,4.9-11.9,11.1-11.9,7.1,1.8,7.3,1.9l1.9-1.3c-1.4-1.1-4.3-2.9-9.3-2.9-9,0-14.7,6.4-14.7,13.9s5.9,14.2,14.7,14.2,4.7-.5,6.7-1.3c.9-.4,1.5-.8,2.3-1.3l-1.5-1.3Z"/>
        </g>
        <polygon points="210.6 478.4 210.7 478.4 210.7 498.2 219.5 498.2 219.6 498.3 218.5 500.2 207.9 500.2 207.9 479.5 210.6 478.4"/>
        <path d="M234.8,500.3l10.6-22.5h0c0,0,.3,0,.3,0l10.3,22.4v.2c0,0-3,0-3,0h0c-.9-1.8-1.3-3-7.9-17.3l-3.4,7.8h5.2l1,1.9v.2c0,0-7.2,0-7.2,0-.2.6-2.9,6.2-3.4,7.2h-2.5Z"/>
      </g>
      <g>
        <path class="cls-4" d="M145.8,525.6c10.7,0,19.3,8.7,19.3,19.3s-8.7,19.3-19.3,19.3-19.3-8.7-19.3-19.3,8.7-19.3,19.3-19.3h0Z"/>
        <path class="cls-5" d="M140.6,533s2-2.7,5-2.7c3,0,4.7,1.8,4.7,1.8l10.4,11.6s2.1,2,1.3,4.3c-.8,2.3-5.1,7.2-16,7.4-10.9.2-15.5-5.5-15.5-5.5,0,0-2.2-3,0-5.5,2.2-2.6,10-11.4,10-11.4Z"/>
        <path class="cls-6" d="M146.1,534s-1.9-.3-3.4,1.2c-1.4,1.5-1.3,3.5-1.3,3.5l1.3-1.8s.2-.1,0-.4c0-.2-.1-.3-.1-.3v-.4h5.5c0,0,1.5-.1,1.5,1.4s-1,1.6-1,1.6c0,0,1.6.3,1.6,2.1s-1.9,2.3-1.9,2.3h-4.1s-.4-.2,0-.4c.4-.1.6-.2.6-.4v-.2s-.9-.1-1.5-.9c-.6-.8-.5-2-.5-2h-.8s-.5.8-.5.8c0,0,.2,2,1.2,2.8s1.6,1.7,3.9,1.6c2.3,0,3.9-1.3,3.9-1.3l.4-.4s.2-.3.5-.1c.3.2-.3.8-.3.8,0,0-1.4,1.8-4.9,2.1-3.5.2-5.9-3.4-5.8-3.6.1-.2-.5.7-.2.8.4.2.2.5.2.5h-2.6s-.2.1-.2-.2.3-.3.3-.3c0,0,.9,0,1.2-.5.3-.5.8-1.2.8-1.2,0,0-.3-1.5-.2-2.2s.5-4.1,3.2-5.2c2.7-1.1,5.4-.2,5.4-.2,0,0,.5.3.8,0s.5-.5.8,0c.2.5.8,1.4.8,1.4,0,0,.2.8-.8.1-1.1-.6-2.9-1-2.9-1h-.9,0ZM143.8,539.3h.9v1.9s-.5-.1-.7-.6c-.2-.4-.2-1.3-.2-1.3h0ZM142.5,538.5h.4s.2-.6.7-1c.5-.4,1.1-.5,1.1-.5,0,0,.1-.5-.2-.5-.4,0-.7,0-.7,0,0,0-.2,0-.4.3-.2.3-.9,1.6-.9,1.6h0ZM143.9,538.5h.9v-1s-.4,0-.6.4c-.3.4-.3.5-.3.5h0ZM145.9,537.4v1.1h1.7s.7-.2.7-1.1-.7-1-.7-1h-1.7v.5h1s.3-.3.6,0c.3.4.3.5.3.5,0,0,0,.6-.5,0-.6-.5-1.3-.3-1.3-.3h0ZM146,539.3v2.1c0,0,.8.2,1.4-.4.6-.5.5-.4.5-.4,0,0,0,0,.3,0,.2.2-.1.5-.1.5,0,0-.2.3-.8.6-.6.3-1.2.3-1.2.3v.3s.4.2,1,.2c.6,0,.7,0,.7,0,0,0,1.1-.3,1.1-1.7s-1.3-1.6-1.3-1.6h-1.6Z"/>
        <path class="cls-6" d="M140.1,532.1s2.2-2.7,5.5-2.8,5.2,1.9,5.2,1.9l11.3,12.3s1.9,2.3,1.1,4.8-5.3,8-17,8.2c-11.7.2-16.6-6.1-16.6-6.1,0,0-2.3-3.8,0-6.6,2.4-2.8,10.6-11.9,10.6-11.9ZM140.7,533.1s2-2.6,4.9-2.7c3,0,4.7,1.8,4.7,1.8l10.3,11.5s2.1,2,1.3,4.2c-.8,2.3-5.1,7.1-15.8,7.4-10.8.2-15.3-5.5-15.3-5.5,0,0-2.2-2.9,0-5.5s9.9-11.3,9.9-11.3h0Z"/>
        <path class="cls-6" d="M136.5,549.2l-1.1,1.4-4.8-3.5.2-.2c0,0,.2.1.3.2.1,0,.2.1.3.1.1,0,.2,0,.3,0,0,0,.1,0,.2-.2l2.1-3.3c0,0,0-.1.1-.2,0,0,0-.2-.1-.3,0,0-.1-.2-.2-.3-.1-.1-.2-.2-.2-.2l.2-.3,2.9,2.1-.2.2c0,0-.2,0-.3-.2-.1,0-.2-.1-.3-.1-.1,0-.2,0-.3,0,0,0-.1.1-.2.2l-2,3c0,.1-.1.2-.2.4,0,.1,0,.2,0,.3,0,0,.1.2.2.3.1,0,.2.2.5.4.2.1.4.3.6.4.2.1.4.2.5.1.2,0,.4,0,.7-.2.2,0,.5-.2.7-.3l.3.2h0ZM142.4,548c.2.3.3.6.3,1,0,.4,0,.7-.2,1.1-.1.4-.3.7-.6,1-.2.3-.5.5-.8.7-.4.2-.7.3-1.1.4-.4,0-.8,0-1.3-.1-.4-.1-.7-.3-1-.5-.3-.2-.5-.5-.7-.8-.2-.3-.3-.6-.3-1s0-.7.2-1.1c.2-.4.4-.8.6-1,.3-.3.6-.5.9-.7.4-.2.7-.2,1.1-.3.4,0,.8,0,1.2.1.4.1.7.3,1,.5.3.2.5.5.7.7h0ZM140.2,551.3c.2-.2.4-.4.5-.7.1-.2.3-.5.4-.9,0-.3.2-.6.2-.8,0-.3,0-.6,0-.8,0-.2-.1-.4-.2-.6-.1-.2-.3-.3-.6-.4-.4-.1-.8,0-1.2.4-.4.3-.7.9-1,1.6-.1.3-.2.6-.2.9,0,.3,0,.6,0,.8,0,.2.1.5.2.6.1.2.3.3.5.3.2,0,.5,0,.7,0,.2,0,.4-.2.6-.4h0ZM147.9,548.7h-.3c0-.2-.2-.5-.4-.7-.2-.3-.3-.4-.4-.4,0,0-.2,0-.3,0h-.5v4.2c0,0,0,.2.1.2,0,0,.1.1.2.2,0,0,.1,0,.2,0,.1,0,.2,0,.3,0v.3h-2.7c0,0,0-.2,0-.2,0,0,.2,0,.3,0,.1,0,.2,0,.2,0,0,0,.2-.1.2-.2,0,0,0-.2,0-.2v-4.2h-.5c-.1,0-.2,0-.3,0-.1,0-.3.2-.4.4-.1.3-.2.5-.3.8h-.3v-1.5s4.8,0,4.8,0v1.5s0,0,0,0ZM154.4,545.7c-.1,0-.2,0-.3.2-.1,0-.2.1-.3.2,0,0-.1.2-.1.4s0,.4.1.7l.5,1.9c.1.6,0,1.1-.2,1.5-.3.5-.8.8-1.4,1-.8.2-1.4.2-1.9,0-.5-.2-.8-.6-1-1.2l-.7-2.6c0-.1,0-.2-.1-.2,0,0-.1,0-.2-.1h-.3c0,0-.2,0-.2,0v-.3c0,0,2.7-.8,2.7-.8v.3s0,0-.2,0c0,0-.2,0-.2.1,0,0-.1.1-.2.2,0,0,0,.2,0,.2l.7,2.6c.1.5.4.8.7,1,.3.2.7.2,1.1,0,.4-.1.7-.3.9-.7.2-.3.2-.7,0-1.2l-.5-1.7c0-.3-.2-.5-.2-.7,0-.1-.2-.2-.3-.3,0,0-.2,0-.4,0s-.3,0-.4,0v-.3c0,0,2.3-.7,2.3-.7v.3q0,0,0,0ZM158.7,548.7c-.3.2-.7.3-1,.4-.3.1-.6.2-.8.2v.4c-.1,0-.5.2-.5.2l-.9-1.6.3-.2c.2.1.4.2.5.3.2.1.4.2.7.2.2,0,.5,0,.7,0,.2,0,.5-.1.7-.2.4-.2.6-.4.7-.7.1-.2.1-.5,0-.7,0-.2-.2-.3-.5-.3-.2,0-.5,0-.9,0-.2,0-.5.1-.7.2-.2,0-.4.1-.6.1-.4,0-.8,0-1.1,0-.3-.1-.5-.3-.7-.6,0-.2-.1-.4-.1-.6,0-.2,0-.4.2-.7,0-.2.2-.4.5-.7.2-.2.5-.4.8-.6.3-.2.6-.3.9-.4.3,0,.5-.1.7-.1v-.3c.1,0,.5-.2.5-.2l.8,1.5-.3.2c-.2-.1-.4-.2-.5-.4-.2,0-.4-.2-.5-.2-.2,0-.4,0-.6,0-.2,0-.4,0-.6.2-.3.1-.5.3-.6.6,0,.2,0,.4,0,.6.1.2.2.3.5.3s.5,0,.9,0c.2,0,.4-.1.7-.2.2,0,.4-.1.6-.1.4,0,.8,0,1.1,0,.3.1.5.3.7.6.1.2.1.4.1.7,0,.2,0,.5-.2.7-.1.2-.3.5-.5.7-.2.2-.5.4-.9.7h0Z"/>
        <path class="cls-6" d="M145.8,524.7c11.1,0,20.2,9.1,20.2,20.2s-9.1,20.2-20.2,20.2-20.2-9.1-20.2-20.2,9.1-20.2,20.2-20.2h0ZM145.8,525.7c10.6,0,19.2,8.6,19.2,19.2s-8.6,19.2-19.2,19.2-19.2-8.6-19.2-19.2,8.6-19.2,19.2-19.2h0Z"/>
      </g>
      <g id="layer1">
        <path id="path917" class="cls-12" d="M101,595.9c-.1,0-.2-.1-.3-.2,0,0-.3-.6-.6-1.1-.7-1.3-3.1-5.7-3.9-7.1-1.2-2.1-2.2-3.9-4-6.9-.3-.4-.3-.5-.3-.7,0-.3.3-.5.6-.5.2,0,2.5,1.4,5.8,3.3.4.2.8.5.9.5.3,0,.7,0,.9,0,.3-.1.5-.3,1.2-1.2,2.9-3.5,6.9-8,10.5-11.8,2.7-2.8,6-6.2,6.2-6.3.2,0,.4,0,.5.1.1.2,0,.3-.5,1.2-4.8,8.1-10.8,19.6-15.5,29.5-.2.5-.4.9-.5,1,0,0-.1.1-.2.2-.1,0-.2.1-.4.1-.2,0-.3,0-.5,0h0Z"/>
        <path id="path857" class="cls-12" d="M136,588.3s0,0,0-.2c0,0,2.3-3,2.9-3.8l.2-.2-1.4-1.9c-.9-1.2-1.4-1.9-1.4-2h0c0-.1,1.1-.1,1.1-.1h1.1s.9,1.2.9,1.2c.5.7.9,1.2.9,1.2,0,0,.4-.6.9-1.2l.9-1.2h1.1c1.1,0,1.1,0,1.1,0,0,0,0,.1,0,.1,0,0-.7.9-1.4,1.9l-1.4,1.9.2.3c.9,1.2,2.7,3.6,2.8,3.7,0,0,0,.2,0,.2,0,0-.1,0-1.1,0h-1.1l-1-1.3c-.6-.7-1-1.3-1.1-1.3,0,0-.5.6-1.1,1.3l-1,1.3h-1.1c-.9,0-1.1,0-1.1,0h0ZM168,586.9h.3v-1.2c0-.9,0-1.1,0-1.2-.1,0-1.7,0-2.2,0-.8,0-1.3.3-1.4.7,0,.3,0,.8,0,1,.3.5.7.6,2.2.7.4,0,.9,0,1.1,0h0ZM165.4,588.3c-.5,0-1.1-.2-1.5-.4-.1,0-.4-.2-.5-.4-.5-.5-.7-.9-.7-1.8,0-.7,0-1,.3-1.5.2-.4.4-.6.8-.8.7-.4,1.4-.5,3.2-.6,1.2,0,1.3,0,1.4,0,0,0,0-.4-.1-.6-.4-.8-1.9-.9-3.5-.5-.4.1-.5.1-.6,0,0,0-.3-.4-.6-1-.2-.5-.3-.5.5-.7,1.3-.4,2.8-.5,3.8-.2.2,0,.5.2.7.3.4.2.5.2.8.5.4.4.7.7.8,1.3.2.6.2,1,.2,3.7v2.6h-2.3c-1.3,0-2.5,0-2.7,0h0ZM153.9,588.3s0-1,0-4.2,0-4.1,0-4.2c0,0,.4,0,1,0,.7,0,.9,0,.9,0,0,0,0,.2,0,.3v.2s.2-.2.2-.2c.5-.4,1.2-.6,2.1-.6,1.8,0,3,.8,3.4,2.4.1.3.1.4.1,3.2,0,2.2,0,2.9,0,2.9,0,0-.2,0-1,0s-1,0-1.1,0c0,0,0-.3,0-2.7s0-2.7,0-2.8c-.1-.6-.5-1-1-1.1-.4,0-1.1,0-1.4,0-.5.1-.9.6-1,1.1,0,.2,0,1.1,0,2.8s0,2.6,0,2.7c0,0-.2,0-1.1,0s-1,0-1,0h0ZM117.8,588.3s0-1.3,0-5.8,0-5.7,0-5.8c0,0,.3,0,2.3,0,3.5,0,4.1,0,5.2.6.3.2.5.3.8.6.7.6,1,1.3,1.1,2.3.2,1.7-.6,3.1-2.3,3.8-.2,0-.4.2-.4.2,0,0,.7.9,1.5,2,1.6,2,1.7,2.1,1.4,2.2,0,0-.6,0-1.3,0h-1.2s-2.2-2.8-2.2-2.8l-2.2-2.8h1.3c1.4,0,1.6,0,2.1-.3.5-.2.9-.7,1-1.2,0-.4,0-1.2,0-1.5-.3-.7-.8-1-1.9-1.1-.2,0-1,0-1.6,0-1.2,0-1.2,0-1.3,0,0,0-.2.1-.2.2,0,0,0,1.2,0,4.8v4.7s-1,0-1,0c-.7,0-1,0-1,0h0ZM149.2,586.8c.8-.2,1.4-.7,1.7-1.6.1-.4.2-1.2,0-1.7-.3-1.2-1.2-1.9-2.4-1.9s-1.7.4-2.1,1.2c-.3.5-.4.9-.3,1.6,0,.8.3,1.3.8,1.8.3.3.7.5,1.1.6.3,0,.9,0,1.2,0h0ZM147.6,588.5c-2-.4-3.4-1.9-3.6-3.9-.2-2.1,1.1-4,3.2-4.6,1.9-.5,3.9.1,5,1.5.7.9,1,2,.8,3.1-.2,1.9-1.4,3.3-3.4,3.8-.5.1-1.6.2-2.1,0h0ZM134.4,583.4c.1-.2-.2-1-.6-1.3-.4-.4-.9-.6-1.6-.6-.7,0-1.3.2-1.7.6-.4.4-.8,1.1-.7,1.3,0,0,0,0,2.3,0s2.2,0,2.3,0h0ZM131.4,588.5c-1.1-.2-1.8-.5-2.5-1.2-1.2-1.1-1.6-2.8-1.1-4.4.4-1.5,1.7-2.6,3.3-3,.6-.1,1.6-.1,2.2,0,1.9.5,3.2,2.1,3.2,4.3v.6s-3.3,0-3.3,0c-3.6,0-3.4,0-3.4.2.2.6.7,1.2,1.3,1.5.5.2,1.4.3,2.1.2.4,0,.9-.3,1.3-.5.2-.1.3-.2.4-.2.1,0,1.1,1,1.1,1.2,0,.2-.9.8-1.6,1-.2,0-.5.2-.7.2-.4,0-1.7.1-2.2,0h0Z"/>
      </g>
      <path class="cls-3" d="M239.5,541.8v12.1h10.6v-2.4h-7.4v-2.5h6.5v-2.4h-6.5v-2.4h7.3v-2.4h-10.4Z"/>
      <path class="cls-3" d="M223.9,541.8v12.1h3.1v-3.8h3.8l2.2,3.8h3.6l-2.6-4.5c1.3-.7,2.2-2,2.2-3.6,0-3.2-2.5-4.1-4.5-4.1h-7.9ZM227,544.2h4.5c.6,0,1.2.4,1.2,1.8s-.1,1.7-1.2,1.7h-4.5v-3.5Z"/>
      <path class="cls-12" d="M252.9,541.8v12.1h3.1v-7.8l7,7.8h3.1v-12.1h-3.1v7.8l-7-7.8h-3.1Z"/>
      <path class="cls-12" d="M273.3,541.8l-5.4,12.1h3.6l.8-2.1h6.1l.8,2.1h3.6l-5.4-12.1h-4.3ZM275.5,544.1l2.1,5.3h-4.2l2.1-5.3Z"/>
      <path class="cls-12" d="M300.3,541.8v12.1h10.1v-2.4h-6.9v-9.7h-3.1Z"/>
      <path class="cls-12" d="M308.9,541.8v2.4h4.7v9.7h3.1v-9.7h4.7v-2.4h-12.6Z"/>
      <path class="cls-12" d="M284.4,541.8v8.2c0,3.4,3.5,4.2,6.3,4.2s6.3-.7,6.3-4.2v-8.2h-3.1v8.1c0,1.3-1.9,1.7-3.1,1.7s-3.1-.4-3.1-1.7v-8.1h-3.1Z"/>
      <g>
        <path class="cls-7" d="M245.1,569.5l-.6.3c-.1.1-.3.2-.4.2l-.3-.3-.7-1.7c-.3-.7-.5-1.4-.7-2.1l-.8-2.2c-.1-.2-.3-.2-.3,0l-1,2.5-4.7,19c-.3.9-.6,1.8-1,2.7-.5.8-.7,1.5-.8,2-.1.7,0,1.3.3,1.7l.2-.2c.5-.3.8-.4,1-.3.1,0,.2,0,.2.2l.2.5.2.8.5.6c.5.5.9.8,1.2.7l.6-.4c.4-.5,1-.7,1.7-.7.3,0,.4.2.4.4l-.5,1.4.5-.2c.2,0,.5,0,.8,0l.7.2,1.5-.7c.9-.4,1.7-.8,2.5-1.3.9-.6,1.7-1.2,2.3-2,.6-.9,1.1-1.9,1.3-2.9l.2-5-.4-2.3-3.1-10.2-.2-.5h-.6c0-.1-.2-.1-.2-.1h0ZM241.8,566.6l1.2,4.8.7,11.4.9-2.1.6-4.6c0-.6.2-1.2.6-1.8.1-.2.3-.2.5,0l1,1.7,1.8,5.6.3,2.9c0,1,0,1.8-.3,2.6-.3.8-.8,1.6-1.3,2.3l-1.8,2-1.8,1.6c-.6.4-1.5.6-2.5.7h-1.1c.5-.7.7-1.3.8-1.7,0-.4-.1-.6-.4-.8-.2,0-.7,0-1.4.5l-1,.8v-1.4c0-.6,0-1-.4-1.3-.4-.2-.8-.3-1.3-.2l-1.5.8c-.3.2-.4,0-.4-.1l.4-1.6,3-7.8,1.4-8.1v-.3c.1,0,1.1-4,1.1-4v-.9c0-.8.2-1.2.6-1.2.3,0,.4.1.5.4h0Z"/>
        <path class="cls-8" d="M243,571.4l-1.2-4.8c0-.2-.2-.4-.5-.4-.3,0-.5.4-.6,1.2v.9l-.9,4v.3c-.1,0-1.5,8.1-1.5,8.1l-3,7.8-.4,1.6c0,.2,0,.3.4.1l1.5-.8c.5,0,.9,0,1.3.2.4.3.5.7.4,1.3v1.4l1-.8c.7-.4,1.2-.6,1.4-.5.3.2.4.4.4.8,0,.5-.3,1.1-.8,1.7h1.1c1,0,1.9-.3,2.5-.7l1.8-1.6,1.8-2c.5-.8.9-1.5,1.3-2.3.3-.8.4-1.6.3-2.6l-.3-2.9-1.8-5.6-1-1.7c-.2-.2-.3-.2-.5,0-.3.6-.5,1.2-.6,1.8l-.6,4.6-.9,2.1-.7-11.4h0ZM241.7,568.4l.4.7.7,4.2v9.6c.1,0-.1,2.5-.1,2.5l-.5,1.4-.6,1.2-1.9,2.3c-.1.3-.3.3-.5,0l-.5-1.1c0-.2-.2-.3-.4-.3h-1.3c0,0,0-.7,0-.7v-1c.1,0,.6-1.3.6-1.3l2.1-7.8v-2.4c.1,0,.5-1,.5-1l.2-1,.3-.6v-.3l.6-1.5.2-2.5.3-.6h0ZM245.7,576.6c.1-.7.3-1,.4-1,.2,0,.5.4.9,1.3l1.8,5.5v2.2c0,.8-.1,1.6-.4,2.3l-1.5,2.6c-.5.8-1.2,1.7-1.9,2.4-1.2.7-2,1-2.7.9-.2,0-.2-.2-.1-.5l2-7.3,1.6-8.3h0Z"/>
        <path class="cls-2" d="M242.2,569l-.4-.7-.3.6-.2,2.5-.6,1.5v.3l-.3.6-.2,1-.4,1v2.4c-.1,0-2.3,7.8-2.3,7.8l-.5,1.3v1c-.1,0,0,.6,0,.6h.9c0,0,.5,0,.5,0,.2,0,.4,0,.4.3l.5,1.1c.2.2.4.2.5,0l1.9-2.3.6-1.2.5-1.4.3-2.5v-9.6c-.1,0-.9-4.2-.9-4.2h0ZM240.9,579.1l.2.7v4.9c0,1-.4,1.9-.9,2.7-.2.3-.4.3-.6,0-.3-.3-.4-.5-.7-.5h-.7c.3-.6.6-1.3.6-2.2l.3-1.7.3-.6.9-2c.3-1,.5-1.4.6-1.3h0Z"/>
        <path class="cls-3" d="M241.1,579.7l-.2-.7c-.1-.1-.3.4-.6,1.3l-.9,2-.3.6-.3,1.7c0,.8-.3,1.6-.6,2.2h.7c.3,0,.4.1.7.4.2.2.4.2.6,0,.6-.8.9-1.7,1.1-2.7v-4.9q-.1,0-.1,0Z"/>
        <path class="cls-2" d="M246.1,575.6c-.1,0-.3.3-.4,1l-1.6,8.3-2,7.3c0,.3,0,.5.1.5.6.2,1.5-.1,2.7-.9.8-.7,1.4-1.5,1.9-2.4l1.5-2.6c.2-.8.4-1.5.4-2.3v-2.2s-1.8-5.5-1.8-5.5c-.3-.9-.6-1.3-.9-1.3h0Z"/>
        <path class="cls-3" d="M298.3,577.3h-4.2v12h4.2v-8.3l.2-1.5c.2-.3.7-.5,1.3-.5s1,.2,1.3.5l.2,1.5v8.3h4.2v-9.6c0-.8-.3-1.5-1-2-.7-.4-1.7-.6-2.7-.6l-2,.3c-.6.2-1.2.6-1.5,1.2v-1.2h0ZM288.2,577.3h-4v12h4.1v-6.5c0-.8.2-1.5.7-1.9.5-.5,1.5-.8,3.1-.8v-3l-2.3.4c-.6.2-1.2.8-1.5,1.4v-1.5ZM262.1,577.1l-2,.3-1.5,1.1v-6.3h-4.2v17.1h4v-1.3c.1,0,1.5,1.2,1.5,1.2l2.1.3c1.9,0,3-.6,3.6-1.6.3-1.2.6-2.7.6-4.8s-.2-3.3-.6-4.5c-.5-1.1-1.7-1.6-3.4-1.6h0ZM260.2,579.1c.8,0,1.4.4,1.5,1l.2,3.1c0,1.7-.1,2.8-.3,3.4-.2.6-.7,1-1.4,1s-1-.3-1.3-1l-.3-3.4.2-3.1c.2-.6.7-1,1.4-1h0ZM281,589.3v-12h-4.4v8.3c0,.6-.1,1.1-.3,1.4s-.6.5-1.2.5-1-.2-1.3-.5l-.3-1.4v-8.3h-4.1v9.6c0,.8.3,1.5,1,1.9.7.4,1.5.7,2.6.7l2.1-.3,1.5-1.2v1.2h4.4Z"/>
      </g>
      <path id="path63" class="cls-12" d="M111.2,514.2c-.3,0-.5.2-.6.5-.1.2-.1.5,0,.8v.5c.1,0-.4.1-.4.1v.4c.1,0,.6-.1.6-.1l.7,2.6h.5c0-.1-.7-2.8-.7-2.8l.7-.2h.5c0-.1.5,1.7.5,1.7.2.6.5.8,1.1.7s.3-.1.4-.2v-.4c-.2,0-.3.2-.4.2s-.3,0-.4,0c0,0-.2-.2-.2-.4l-.5-1.7.8-.2v-.4c-.1,0-.9.2-.9.2l-.3-.9-.4.3.2.7h-.5c0,.1-.7.3-.7.3v-.5c-.3-.4-.1-.7.2-.8s.2,0,.3,0v-.4c-.2,0-.3,0-.5,0ZM95.8,518.8c0,0-.2,0-.2.2,0,0,0,.2,0,.2s0,.2.2.2c0,0,.2,0,.3,0s.2,0,.2-.2c0,0,0-.2,0-.3s0-.2-.2-.2c0,0-.2,0-.3,0ZM90.3,520.5l1.2,4.3h.5c0-.1-.8-3-.8-3-.1-.4-.2-.7-.3-.8h0c.1.2.2.3.3.4l2.4,2.8h.2c0,0,.5-3.8.5-3.8,0,0,0-.2,0-.5h0c0,.3.1.6.2.8l.8,2.9h.5c0-.1-1.2-4.4-1.2-4.4l-.6.2-.5,3.3c0,0,0,.3,0,.6h0c0-.1-.2-.3-.3-.5l-2.2-2.6-.7.2ZM105.9,517.3c-.3,0-.5.2-.7.5-.2.2-.2.5-.1.7s.2.4.3.5c.1.1.4.2.7.2.3,0,.5,0,.6.1,0,0,.2.1.2.2,0,.3,0,.5-.5.6s-.6,0-.9,0v.5c.4,0,.7,0,1,0s.6-.3.7-.5c.2-.2.2-.5.1-.7s-.2-.4-.3-.5c-.2-.1-.4-.2-.7-.2-.3,0-.4,0-.5-.1,0,0-.2-.1-.2-.3s0-.2,0-.3c0-.1.2-.2.4-.2.3,0,.5,0,.8,0v-.5c-.4,0-.6,0-.8,0ZM98.5,519.4c-.5.1-.8.4-1,.8-.2.4-.2.8,0,1.3s.2.5.4.7c.2.2.4.3.7.4.3,0,.5,0,.8,0s.6-.2.8-.5v-.5c-.3.2-.5.4-.8.5s-.6,0-.8,0c-.2-.2-.4-.4-.5-.8s0-.7,0-1c.1-.3.4-.5.7-.6s.5,0,.8,0v-.5c-.4,0-.6,0-.9,0ZM103,518.1c-.5.1-.8.4-1,.8-.2.4-.2.8,0,1.3s.4.8.7,1c.3.2.8.3,1.2.1s.8-.4,1-.8c.2-.4.2-.8,0-1.3s-.4-.8-.7-1.1c-.3-.2-.7-.3-1.2-.1ZM108.6,516.5c-.5.1-.8.4-1,.8-.2.4-.2.8,0,1.3s.4.8.7,1c.3.2.7.3,1.2.1s.8-.4,1-.8c.2-.4.2-.8,0-1.3s-.4-.8-.7-1.1c-.3-.2-.7-.3-1.2-.1ZM101.1,518.7c-.2,0-.3.2-.4.3-.1.2-.2.4-.2.6h0s-.2-.6-.2-.6h-.5c0,.1.9,3.2.9,3.2h.5c0-.1-.4-1.7-.4-1.7,0-.3,0-.6,0-.9,0-.2.2-.4.4-.5s.3,0,.4,0v-.5c-.2,0-.3,0-.4,0ZM95.9,520.2l.9,3h.5c0-.1-.9-3.2-.9-3.2h-.5ZM103.1,518.5c.3,0,.6,0,.8.1.2.2.4.4.5.8s.1.7,0,.9c-.1.2-.3.4-.6.5s-.6,0-.8,0c-.2-.2-.4-.4-.5-.8s0-.7,0-1c.1-.3.3-.4.7-.5ZM108.7,516.9c.3,0,.6,0,.8.1.2.2.4.4.5.8s.1.7,0,.9c-.1.3-.3.4-.6.5s-.6,0-.8,0c-.2-.2-.4-.4-.5-.8s-.1-.7,0-1c.1-.3.3-.4.7-.5ZM110.2,520.9c0,0-.2,0-.2.2,0,0,0,.2,0,.2s0,.2.2.2c0,0,.2,0,.3,0s.2,0,.2-.2c0,0,0-.2,0-.3s0-.2-.2-.2c0,0-.2,0-.3,0ZM91.9,526.1l1.2,4.3,1.1-.3c.5-.1.8-.3,1.1-.6.3-.3.5-.6.6-1,0-.4,0-.8,0-1.2-.4-1.4-1.3-1.9-2.8-1.4l-1.2.3ZM92.5,526.4l.7-.2c1.2-.3,1.9,0,2.2,1.1s.1,1-.1,1.4c-.2.4-.6.7-1.2.8l-.6.2-1-3.4ZM115.1,520.8c-.3,0-.5.2-.7.5-.2.2-.2.5-.1.7s.2.4.3.5c.1.1.4.2.7.2.3,0,.5,0,.6.1,0,0,.2.1.2.2,0,.3,0,.5-.5.6s-.6,0-.9,0v.5c.4,0,.7,0,1,0s.6-.3.7-.5c.2-.2.2-.5.1-.7s-.2-.4-.3-.5c-.2-.1-.4-.2-.7-.2-.3,0-.4,0-.5-.1,0,0-.2-.1-.2-.3s0-.2,0-.3c0-.1.2-.2.4-.2.3,0,.5,0,.8,0v-.5c-.4,0-.6,0-.8,0ZM113,521.4c-.5.1-.8.4-1,.8-.2.4-.2.8,0,1.3s.2.5.4.7c.2.2.4.3.7.4.3,0,.5,0,.8,0s.6-.2.8-.5v-.5c-.3.2-.5.4-.8.5s-.6,0-.8,0c-.2-.2-.4-.4-.5-.8s0-.7,0-1c.1-.3.4-.5.7-.6s.5,0,.8,0v-.5c-.4,0-.6,0-.9,0ZM100.5,524.9c-.4.1-.7.4-.8.9h0s-.1-.5-.1-.5h-.5c0,.1.9,3.2.9,3.2h.5c0-.1-.5-1.9-.5-1.9,0-.3,0-.5,0-.8.1-.2.3-.4.5-.4.5-.1.8.1,1,.8l.5,1.7h.5c0-.1-.5-2-.5-2-.1-.4-.3-.7-.5-.9-.2-.2-.5-.2-.9-.1ZM106.7,523.2c-.4.1-.7.4-.8.8h0s-.1-.5-.1-.5h-.5c0,.1.9,3.2.9,3.2h.5c0-.1-.5-1.9-.5-1.9,0-.3,0-.5,0-.8,0-.2.2-.4.5-.4.5-.1.8.1.9.7l.5,1.8h.5c0-.1-.5-1.9-.5-1.9,0-.3,0-.5,0-.7,0-.2.2-.4.5-.4s.4,0,.6,0c.1.1.3.3.4.7l.5,1.8h.5c0-.1-.5-2-.5-2-.2-.8-.7-1.1-1.4-1s-.7.4-.8.9c-.1-.2-.3-.3-.5-.4-.2,0-.4,0-.6,0ZM103.4,524.1c-.2,0-.4.1-.6.3-.2.1-.3.2-.4.3v.5c.4-.3.7-.5,1-.7s.7,0,.8.6l-.9.4c-.6.3-.9.7-.7,1.3s.2.5.4.6c.2.1.5.1.8,0s.7-.4.8-.8h0s.1.5.1.5h.5c0-.1-.6-2.1-.6-2.1-.2-.8-.7-1-1.4-.8ZM95.8,526.4l2.1,2.7v.6c-.1.3-.3.5-.5.6s-.2,0-.3,0v.4c.2,0,.3,0,.5,0,.5-.1.7-.5.8-1.2l.4-3.9h-.5c0,.1-.2,2.7-.2,2.7,0,.1,0,.2,0,.2h0s-.1-.2-.1-.2l-1.5-2.1-.5.2ZM110.4,522.2l.9,3h.5c0-.1-.9-3.2-.9-3.2h-.5ZM104.5,525.5v.3c.2.3.1.5,0,.7-.1.2-.3.4-.5.4s-.3,0-.5,0c-.1,0-.2-.2-.3-.3s0-.3,0-.5c0-.1.2-.2.5-.3l.7-.3Z"/>
      <path id="path103" class="cls-12" d="M81.6,522.8h0c0,.3.2,2-.3,4.8-.3,1.6-.9,3.7-2.1,5.9l.2.8s1.3-2.2,4.5-3.5h.1s.2-.2.2-.2l-2.2-7.9h-.3s0,0,0,0ZM85.1,523.7c-.2,1.7-.7,3.4-1.4,4.7l.7,2.4h0c0,0-.1.1-.1.1-3.3,1.2-4.8,3.4-4.8,3.4,3.1-3.4,7.6-3.5,7.6-3.5h.3c0-.1-2-7.1-2-7.1h-.2s0,0,0,0ZM88.1,524.7s-.2.6-1,1.8c-.2.3-.3.5-.5.8l1,3.6h-.2c0,.1-1,0-2.6.5-1.6.4-3.8,1.5-5.4,3h0s4.3-3.3,10.5-2.9h0s.2-.1.2-.1l-1.8-6.5h-.2s0,0,0,0Z"/>
      <path id="path63-2" data-name="path63" class="cls-12" d="M323.3,521.4c-.3,0-.5,0-.8.2-.2.2-.4.4-.4.7v.5c-.1,0-.6-.1-.6-.1v.4c0,0,.4.1.4.1l-.5,2.7h.5c0,0,.5-2.6.5-2.6h.7c0,.1.5.2.5.2l-.4,1.8c-.1.6,0,1,.6,1.1s.4,0,.5,0v-.4s-.1,0-.3,0-.3-.1-.3-.2c0-.1,0-.3,0-.5l.3-1.8.8.2v-.4c0,0-.7-.2-.7-.2l.2-.9h-.5c0,0-.2.8-.2.8h-.5c0-.1-.7-.2-.7-.2v-.5c.2-.4.4-.6.7-.6s.2,0,.3.1v-.4c0,0-.1,0-.3-.1ZM307.4,518.5c0,0-.2,0-.3,0,0,0-.1.1-.1.2s0,.2,0,.3c0,0,.1.1.2.1s.2,0,.2,0c0,0,.1-.1.1-.2s0-.2,0-.2c0,0-.1-.1-.2-.1ZM301.8,517.5l-.9,4.4h.5c0,0,.6-2.8.6-2.8,0-.4.1-.7.1-.9h0c0,.2,0,.4,0,.5l.8,3.6h.2s2.1-3,2.1-3c0,0,.1-.2.2-.4h0c0,.3-.2.6-.2.8l-.6,2.9h.5c0,.1.9-4.3.9-4.3h-.6c0-.1-2,2.6-2,2.6,0,0-.2.2-.3.5h0c0-.1,0-.3,0-.6l-.7-3.3h-.7ZM317.2,521.8c-.3,0-.6,0-.8.1-.2.1-.4.3-.4.6s0,.4,0,.6c0,.2.3.3.5.5.2.2.4.3.5.4,0,0,0,.2,0,.3,0,.3-.3.4-.7.3s-.5-.2-.7-.5v.5c0,.2.3.3.6.3s.6,0,.9,0c.2-.1.4-.3.4-.6s0-.4,0-.6c0-.2-.3-.3-.5-.5-.2-.1-.4-.3-.4-.4,0,0,0-.2,0-.3s0-.2.2-.3c.1,0,.3,0,.4,0,.3,0,.5.2.7.4v-.5c0-.1-.3-.2-.5-.3ZM309.7,520.3c-.5,0-.9,0-1.3.2-.4.3-.6.6-.7,1.2s0,.6,0,.8c0,.3.2.5.4.7.2.2.4.3.7.3s.6,0,.9,0v-.5c-.2.1-.5.2-.7.1s-.6-.2-.7-.5c-.1-.2-.2-.6-.1-.9s.2-.6.5-.8c.2-.2.5-.3.9-.2s.5.2.7.4v-.5c0-.1-.3-.2-.6-.3ZM314.2,521.2c-.5,0-.9,0-1.3.2-.3.2-.6.6-.7,1.1s0,.9.2,1.2c.2.3.6.6,1,.7s.9,0,1.2-.2c.3-.2.6-.6.7-1.1s0-.9-.2-1.3c-.2-.3-.5-.6-1-.6ZM319.9,522.3c-.5,0-.9,0-1.3.2-.3.2-.6.6-.7,1.1s0,.9.2,1.2c.2.3.6.6,1,.7s.9,0,1.2-.2c.3-.2.6-.6.7-1.1s0-.9-.2-1.3c-.2-.3-.5-.6-1-.6ZM312.3,520.8c-.2,0-.4,0-.5,0-.2,0-.3.2-.4.4h0s.1-.6.1-.6h-.5c0,0-.6,3-.6,3h.5c0,0,.3-1.5.3-1.5,0-.3.2-.6.4-.8.2-.2.4-.2.6-.2s.3,0,.4.2v-.5s0,0-.2-.1ZM306.9,519.8l-.6,3.1h.5c0,0,.6-3,.6-3h-.5ZM314.1,521.6c.3,0,.5.2.7.5.1.2.2.6,0,.9s-.2.7-.4.8c-.2.2-.5.2-.8.2s-.5-.2-.7-.5c-.1-.2-.2-.6-.1-.9s.2-.7.5-.8c.2-.2.5-.2.8-.2ZM319.8,522.7c.3,0,.5.2.7.5.1.2.2.6,0,.9s-.2.7-.4.8c-.2.2-.5.2-.8.2s-.5-.2-.7-.5c-.1-.2-.2-.6-.1-.9s.2-.7.5-.8c.2-.2.5-.2.8-.2ZM319.4,526.9c0,0-.2,0-.3,0,0,0-.1.1-.1.2s0,.2,0,.3c0,0,.1.1.2.1s.2,0,.2,0c0,0,.1-.1.1-.2s0-.2,0-.2c0,0-.1-.1-.2-.1ZM300.7,523.3l-.9,4.4,1.2.2c.5,0,.9,0,1.3,0,.4-.1.7-.3,1-.6.3-.3.4-.7.5-1.1.3-1.4-.3-2.3-1.9-2.6l-1.2-.2ZM301.1,523.9h.7c1.2.4,1.7,1,1.4,2.2s-.4,1-.7,1.2c-.4.2-.9.3-1.4.2h-.6c0-.1.7-3.6.7-3.6ZM323.8,529.1c-.3,0-.6,0-.8.1-.2.1-.4.3-.4.6s0,.4,0,.6c0,.2.3.3.5.5.2.2.4.3.5.4,0,0,0,.2,0,.3,0,.3-.3.4-.7.3s-.5-.2-.7-.5v.5c0,.2.3.3.6.3s.6,0,.9,0c.2-.1.4-.3.4-.6s0-.4,0-.6c0-.2-.3-.3-.5-.5-.2-.1-.4-.3-.4-.4,0,0,0-.2,0-.3s0-.2.2-.3c.1,0,.3,0,.4,0,.3,0,.5.2.7.4v-.5c0-.1-.3-.2-.5-.3ZM321.6,528.7c-.5,0-.9,0-1.3.2-.4.3-.6.6-.7,1.2s0,.6,0,.8c0,.3.2.5.4.7.2.2.4.3.7.3s.6,0,.9,0v-.5c-.2.1-.5.2-.7.1s-.6-.2-.7-.5c-.1-.2-.2-.6-.1-.9s.2-.6.5-.8c.2-.2.5-.3.9-.2s.5.2.7.4v-.5c0-.1-.3-.2-.6-.3ZM308.9,526.2c-.4,0-.8,0-1.1.4h0s.1-.5.1-.5h-.5c0,0-.6,3-.6,3h.5c0,0,.4-1.7.4-1.7,0-.3.2-.5.4-.7.2-.2.4-.2.7-.2.5,0,.7.5.5,1.1l-.4,1.8h.5c0,0,.4-1.8.4-1.8,0-.4,0-.7,0-1-.1-.3-.4-.4-.7-.5ZM315.2,527.4c-.4,0-.8,0-1.1.4h0s0-.5,0-.5h-.5c0,0-.6,3-.6,3h.5c0,0,.4-1.7.4-1.7,0-.3.2-.5.4-.7.2-.2.4-.2.6-.2.5,0,.6.4.5,1.1l-.4,1.8h.5c0,0,.4-1.7.4-1.7,0-.3.2-.5.4-.7.2-.2.4-.2.6-.2s.4.2.5.3c0,.2,0,.4,0,.8l-.4,1.8h.5c0,0,.4-1.8.4-1.8.2-.8,0-1.3-.8-1.5s-.8,0-1.2.4c0-.2-.1-.4-.2-.5-.1-.1-.3-.2-.5-.3ZM311.9,526.7c-.2,0-.4,0-.6,0-.2,0-.4,0-.5.1v.5c.3-.2.6-.3,1-.2s.6.4.5.9h-1c-.7,0-1.1.2-1.2.8s0,.5.1.7c.1.2.4.3.7.4s.8,0,1.1-.4h0s0,.5,0,.5h.5c0,0,.4-1.9.4-1.9.2-.8-.1-1.2-.9-1.4ZM304.1,525.3l.6,3.3-.4.5c-.2.3-.4.4-.7.3s-.2,0-.3-.1v.4s0,0,.2.1c.5,0,.9-.2,1.3-.7l2.1-3.3h-.5c0-.1-1.4,2.1-1.4,2.1,0,.1,0,.2-.1.2h0s0-.3,0-.3l-.4-2.6h-.6ZM318.9,528.2l-.6,3.1h.5c0,0,.6-3,.6-3h-.5ZM312.1,528.5v.3c-.1.3-.2.5-.4.6-.2.1-.4.2-.7.1s-.3-.1-.4-.2c0-.1-.1-.3,0-.4s.1-.3.2-.4c.1,0,.3,0,.6,0h.8Z"/>
      <path id="path103-2" data-name="path103" class="cls-12" d="M293,515.7h0c0,.2-.7,1.9-2.4,4.1-1,1.3-2.5,2.9-4.6,4.3l-.2.8s2.2-1.4,5.6-1.1h.1s.2,0,.2,0l1.6-8h-.3c0-.1,0-.1,0-.1ZM295.7,518.1c-1,1.5-2.2,2.7-3.4,3.5l-.5,2.5h0s-.2,0-.2,0c-3.5-.4-5.8.9-5.8.9,4.3-1.6,8.4.4,8.4.4h.3s1.4-7.1,1.4-7.1h-.2c0-.1,0-.1,0-.1ZM297.9,520.3s-.5.4-1.8,1.2c-.3.2-.5.3-.8.5l-.7,3.6h-.2s-.9-.5-2.5-.9c-1.6-.4-4.1-.4-6.1.2h0s5.3-.9,10.7,2.2h0s.2,0,.2,0l1.3-6.7h-.2c0-.1,0-.1,0-.1Z"/>
    </g>
  </g>
</svg>