<?xml version="1.0" encoding="UTF-8"?>
<svg xmlns="http://www.w3.org/2000/svg" version="1.1" viewBox="0 0 400 600">
  <!-- Generator: Adobe Illustrator 29.5.1, SVG Export Plug-In . SVG Version: 2.1.0 Build 141)  -->
  <defs>
    <style>
      .st0 {
        isolation: isolate;
      }

      .st1 {
        fill: #251f12;
      }

      .st2 {
        fill: #fff;
        mix-blend-mode: screen;
        opacity: .62;
      }

      .st3 {
        opacity: .5;
      }
    </style>
  </defs>
  <g class="st0">
    <g id="Layer_1">
      <g id="beard_elderly_1">
        <path class="st1" d="M146.94,428.49c10.78,0,20.08-7.35,26.69-6.67,14.45,1.47,22.86-1.84,26.24-5.41.3-.32.58-.65.84-1,.25.35.53.69.84,1,3.39,3.57,11.79,6.88,26.24,5.41,6.61-.67,15.91,6.67,26.69,6.67s15.66-6.42,15.66-6.42c-6.67,1.8-13.86-.26-20.53-8.47-6.67-8.21-16.32-10.85-25.67-10.27-10.23.64-9.93-3.34-18.4-2.47-2.1.21-3.69,1.12-4.83,2.4-1.14-1.29-2.73-2.19-4.83-2.4-8.47-.87-8.16,3.11-18.4,2.47-9.35-.58-18.99,2.05-25.67,10.27-6.67,8.21-13.86,10.27-20.53,8.47,0,0,4.88,6.42,15.66,6.42Z"/>
        <path class="st1" d="M346.5,302.11s-5.73,44.78-25.79,60.72c-20.06,15.94-9.91,29.12-24.12,47.52-14.21,18.41-38.86,30.65-48.44,35.21-9.58,4.55-16.27,7.59-27.73,12.14-11.46,4.55-20.71-3.04-20.71-3.04,0,0-9.25,7.59-20.71,3.04-11.46-4.55-18.15-7.59-27.73-12.14-9.58-4.55-31.06-16.8-45.27-35.21-14.21-18.41-7.23-31.58-27.29-47.52-20.06-15.94-25.79-60.72-25.79-60.72-.53,3.36-3.03,6.73-2.92,11.07.76,30.97,6.41,74.88,9.04,91.82,3.26,21.04,13.23,43.91,30.42,58.33,17.19,14.42,22.68,17.14,40.83,30.81,18.15,13.66,29.84,10.67,47.76,15.94,17.5,5.15,21.67,10.63,21.67,10.63,0,0,7.59-6.01,21.67-10.63,17.66-5.79,29.61-2.28,47.76-15.94,18.15-13.66,24.33-16.51,41.52-30.93,17.19-14.42,26.85-43.91,31.17-62.46,3.88-16.65,5.99-68.69,8.13-98.64.44-6.13-2.92,3.42-3.46,0Z"/>
      </g>
      <g id="details" class="st3">
        <g>
          <path class="st2" d="M345.83,326.19c.41,1.99.57,4.01.53,6.04-.04,1.9-.25,3.8-.61,5.67-.33,1.71-.78,3.41-1.48,5.01-.65,1.48-1.56,2.97-2.96,3.84-.16.1-.33.19-.5.27-.07.03-.18-.06-.09-.1,1.46-.71,2.39-2.17,3.05-3.6.72-1.58,1.17-3.28,1.5-4.98.35-1.78.56-3.6.64-5.41.08-2.01-.04-4.03-.39-6.01-.35-2-.94-3.97-1.67-5.86-.09-.24-.19-.49-.29-.73-.06-.14.19-.15.24-.05.92,1.88,1.61,3.87,2.04,5.92Z"/>
          <path class="st2" d="M341.89,339.6c.41,1.99.57,4.01.53,6.04-.04,1.9-.25,3.8-.61,5.67-.33,1.71-.78,3.41-1.48,5.01-.65,1.48-1.56,2.97-2.96,3.84-.16.1-.33.19-.5.27-.07.03-.18-.06-.09-.1,1.46-.71,2.39-2.17,3.05-3.6.72-1.58,1.17-3.28,1.5-4.98.35-1.78.56-3.6.64-5.41.08-2.01-.04-4.03-.39-6.01-.35-2-.94-3.97-1.67-5.86-.09-.24-.19-.49-.29-.73-.06-.14.19-.15.24-.05.92,1.88,1.61,3.87,2.04,5.92Z"/>
          <path class="st2" d="M335.15,353.99c.41,1.99.57,4.01.53,6.04-.04,1.9-.25,3.8-.61,5.67-.33,1.71-.78,3.41-1.48,5.01-.65,1.48-1.56,2.97-2.96,3.84-.16.1-.33.19-.5.27-.07.03-.18-.06-.09-.1,1.46-.71,2.39-2.17,3.05-3.6.72-1.58,1.17-3.28,1.5-4.98.35-1.78.56-3.6.64-5.41.08-2.01-.04-4.03-.39-6.01-.35-2-.94-3.97-1.67-5.86-.09-.24-.19-.49-.29-.73-.06-.14.19-.15.24-.05.92,1.88,1.61,3.87,2.04,5.92Z"/>
          <path class="st2" d="M342.99,369.91c.41,1.99.57,4.01.53,6.04-.04,1.9-.25,3.8-.61,5.67-.33,1.71-.78,3.41-1.48,5.01-.65,1.48-1.56,2.97-2.96,3.84-.16.1-.33.19-.5.27-.07.03-.18-.06-.09-.1,1.46-.71,2.39-2.17,3.05-3.6.72-1.58,1.17-3.28,1.5-4.98.35-1.78.56-3.6.64-5.41.08-2.01-.04-4.03-.39-6.01-.35-2-.94-3.97-1.67-5.86-.09-.24-.19-.49-.29-.73-.06-.14.19-.15.24-.05.92,1.88,1.61,3.87,2.04,5.92Z"/>
          <path class="st2" d="M337.3,365.27c.41,1.99.57,4.01.53,6.04-.04,1.9-.25,3.8-.61,5.67-.33,1.71-.78,3.41-1.48,5.01-.65,1.48-1.56,2.97-2.96,3.84-.16.1-.33.19-.5.27-.07.03-.18-.06-.09-.1,1.46-.71,2.39-2.17,3.05-3.6.72-1.58,1.17-3.28,1.5-4.98.35-1.78.56-3.6.64-5.41.08-2.01-.04-4.03-.39-6.01-.35-2-.94-3.97-1.67-5.86-.09-.24-.19-.49-.29-.73-.06-.14.19-.15.24-.05.92,1.88,1.61,3.87,2.04,5.92Z"/>
          <path class="st2" d="M329.47,363.22c.41,1.99.57,4.01.53,6.04-.04,1.9-.25,3.8-.61,5.67-.33,1.71-.78,3.41-1.48,5.01-.65,1.48-1.56,2.97-2.96,3.84-.16.1-.33.19-.5.27-.07.03-.18-.06-.09-.1,1.46-.71,2.39-2.17,3.05-3.6.72-1.58,1.17-3.28,1.5-4.98.35-1.78.56-3.6.64-5.41.08-2.01-.04-4.03-.39-6.01-.35-2-.94-3.97-1.67-5.86-.09-.24-.19-.49-.29-.73-.06-.14.19-.15.24-.05.92,1.88,1.61,3.87,2.04,5.92Z"/>
          <path class="st2" d="M324.07,368.89c.41,1.99.57,4.01.53,6.04-.04,1.9-.25,3.8-.61,5.67-.33,1.71-.78,3.41-1.48,5.01-.65,1.48-1.56,2.97-2.96,3.84-.16.1-.33.19-.5.27-.07.03-.18-.06-.09-.1,1.46-.71,2.39-2.17,3.05-3.6.72-1.58,1.17-3.28,1.5-4.98.35-1.78.56-3.6.64-5.41.08-2.01-.04-4.03-.39-6.01-.35-2-.94-3.97-1.67-5.86-.09-.24-.19-.49-.29-.73-.06-.14.19-.15.24-.05.92,1.88,1.61,3.87,2.04,5.92Z"/>
          <path class="st2" d="M333.36,378.68c.41,1.99.57,4.01.53,6.04-.04,1.9-.25,3.8-.61,5.67-.33,1.71-.78,3.41-1.48,5.01-.65,1.48-1.56,2.97-2.96,3.84-.16.1-.33.19-.5.27-.07.03-.18-.06-.09-.1,1.46-.71,2.39-2.17,3.05-3.6.72-1.58,1.17-3.28,1.5-4.98.35-1.78.56-3.6.64-5.41.08-2.01-.04-4.03-.39-6.01-.35-2-.94-3.97-1.67-5.86-.09-.24-.19-.49-.29-.73-.06-.14.19-.15.24-.05.92,1.88,1.61,3.87,2.04,5.92Z"/>
          <path class="st2" d="M337.3,394.57c.41,1.99.57,4.01.53,6.04-.04,1.9-.25,3.8-.61,5.67-.33,1.71-.78,3.41-1.48,5.01-.65,1.48-1.56,2.97-2.96,3.84-.16.1-.33.19-.5.27-.07.03-.18-.06-.09-.1,1.46-.71,2.39-2.17,3.05-3.6.72-1.58,1.17-3.28,1.5-4.98.35-1.78.56-3.6.64-5.41.08-2.01-.04-4.03-.39-6.01-.35-2-.94-3.97-1.67-5.86-.09-.24-.19-.49-.29-.73-.06-.14.19-.15.24-.05.92,1.88,1.61,3.87,2.04,5.92Z"/>
          <path class="st2" d="M329.47,388.63c.41,1.99.57,4.01.53,6.04-.04,1.9-.25,3.8-.61,5.67-.33,1.71-.78,3.41-1.48,5.01-.65,1.48-1.56,2.97-2.96,3.84-.16.1-.33.19-.5.27-.07.03-.18-.06-.09-.1,1.46-.71,2.39-2.17,3.05-3.6.72-1.58,1.17-3.28,1.5-4.98.35-1.78.56-3.6.64-5.41.08-2.01-.04-4.03-.39-6.01-.35-2-.94-3.97-1.67-5.86-.09-.24-.19-.49-.29-.73-.06-.14.19-.15.24-.05.92,1.88,1.61,3.87,2.04,5.92Z"/>
          <path class="st2" d="M153.35,414.9c-1.34,1.52-2.85,2.88-4.5,4.07-1.54,1.12-3.19,2.09-4.89,2.94-1.56.77-3.19,1.44-4.88,1.84-1.57.38-3.31.55-4.85-.04-.18-.07-.35-.15-.52-.24-.07-.03-.06-.18.02-.14,1.45.73,3.18.6,4.72.26,1.69-.37,3.32-1.05,4.87-1.81,1.63-.8,3.21-1.72,4.7-2.75,1.65-1.15,3.19-2.46,4.56-3.94,1.38-1.49,2.6-3.14,3.67-4.87.14-.22.27-.45.41-.67.08-.13.23.05.18.16-.95,1.87-2.11,3.62-3.49,5.2Z"/>
          <path class="st2" d="M161.65,411.43c-1.03,1.75-2.26,3.36-3.65,4.84-1.3,1.39-2.74,2.65-4.25,3.8-1.39,1.05-2.86,2.01-4.45,2.73-1.47.67-3.14,1.16-4.77.87-.19-.03-.37-.08-.56-.14-.07-.02-.1-.17,0-.14,1.56.45,3.23,0,4.68-.63,1.59-.69,3.07-1.65,4.45-2.69,1.45-1.09,2.83-2.29,4.1-3.59,1.41-1.44,2.67-3.02,3.74-4.72,1.08-1.72,1.96-3.57,2.69-5.47.09-.24.19-.49.27-.74.05-.14.24,0,.21.12-.58,2.02-1.39,3.95-2.46,5.76Z"/>
          <path class="st2" d="M170.7,409.78c-1.03,1.75-2.26,3.36-3.65,4.84-1.3,1.39-2.74,2.65-4.25,3.8-1.39,1.05-2.86,2.01-4.45,2.73-1.47.67-3.14,1.16-4.77.87-.19-.03-.37-.08-.56-.14-.07-.02-.1-.17,0-.14,1.56.45,3.23,0,4.68-.63,1.59-.69,3.07-1.65,4.45-2.69,1.45-1.09,2.83-2.29,4.1-3.59,1.41-1.44,2.67-3.02,3.74-4.72,1.08-1.72,1.96-3.57,2.69-5.47.09-.24.19-.49.27-.74.05-.14.24,0,.21.12-.58,2.02-1.39,3.95-2.46,5.76Z"/>
          <path class="st2" d="M177.44,409.78c-1.03,1.75-2.26,3.36-3.65,4.84-1.3,1.39-2.74,2.65-4.25,3.8-1.39,1.05-2.86,2.01-4.45,2.73-1.47.67-3.14,1.16-4.77.87-.19-.03-.37-.08-.56-.14-.07-.02-.1-.17,0-.14,1.56.45,3.23,0,4.68-.63,1.59-.69,3.07-1.65,4.45-2.69,1.45-1.09,2.83-2.29,4.1-3.59,1.41-1.44,2.67-3.02,3.74-4.72,1.08-1.72,1.96-3.57,2.69-5.47.09-.24.19-.49.27-.74.05-.14.24,0,.21.12-.58,2.02-1.39,3.95-2.46,5.76Z"/>
          <path class="st2" d="M184.66,407.93c-1.03,1.75-2.26,3.36-3.65,4.84-1.3,1.39-2.74,2.65-4.25,3.8-1.39,1.05-2.86,2.01-4.45,2.73-1.47.67-3.14,1.16-4.77.87-.19-.03-.37-.08-.56-.14-.07-.02-.1-.17,0-.14,1.56.45,3.23,0,4.68-.63,1.59-.69,3.07-1.65,4.45-2.69,1.45-1.09,2.83-2.29,4.1-3.59,1.41-1.44,2.67-3.02,3.74-4.72,1.08-1.72,1.96-3.57,2.69-5.47.09-.24.19-.49.27-.74.05-.14.24,0,.21.12-.58,2.02-1.39,3.95-2.46,5.76Z"/>
          <path class="st2" d="M191.26,407.16c-1.03,1.75-2.26,3.36-3.65,4.84-1.3,1.39-2.74,2.65-4.25,3.8-1.39,1.05-2.86,2.01-4.45,2.73-1.47.67-3.14,1.16-4.77.87-.19-.03-.37-.08-.56-.14-.07-.02-.1-.17,0-.14,1.56.45,3.23,0,4.68-.63,1.59-.69,3.07-1.65,4.45-2.69,1.45-1.09,2.83-2.29,4.1-3.59,1.41-1.44,2.67-3.02,3.74-4.72,1.08-1.72,1.96-3.57,2.69-5.47.09-.24.19-.49.27-.74.05-.14.24,0,.21.12-.58,2.02-1.39,3.95-2.46,5.76Z"/>
          <path class="st2" d="M198.21,408.94c-1.03,1.75-2.26,3.36-3.65,4.84-1.3,1.39-2.74,2.65-4.25,3.8-1.39,1.05-2.86,2.01-4.45,2.73-1.47.67-3.14,1.16-4.77.87-.19-.03-.37-.08-.56-.14-.07-.02-.1-.17,0-.14,1.56.45,3.23,0,4.68-.63,1.59-.69,3.07-1.65,4.45-2.69,1.45-1.09,2.83-2.29,4.1-3.59,1.41-1.44,2.67-3.02,3.74-4.72,1.08-1.72,1.96-3.57,2.69-5.47.09-.24.19-.49.27-.74.05-.14.24,0,.21.12-.58,2.02-1.39,3.95-2.46,5.76Z"/>
          <path class="st2" d="M247.53,415.05c1.34,1.52,2.85,2.88,4.5,4.07,1.54,1.12,3.19,2.09,4.89,2.94,1.56.77,3.19,1.44,4.88,1.84,1.57.38,3.31.55,4.85-.04.18-.07.35-.15.52-.24.07-.03.06-.18-.02-.14-1.45.73-3.18.6-4.72.26-1.69-.37-3.32-1.05-4.87-1.81-1.63-.8-3.21-1.72-4.7-2.75-1.65-1.15-3.19-2.46-4.56-3.94-1.38-1.49-2.6-3.14-3.67-4.87-.14-.22-.27-.45-.41-.67-.08-.13-.23.05-.18.16.95,1.87,2.11,3.62,3.49,5.2Z"/>
          <path class="st2" d="M239.23,411.58c1.03,1.75,2.26,3.36,3.65,4.84,1.3,1.39,2.74,2.65,4.25,3.8,1.39,1.05,2.86,2.01,4.45,2.73,1.47.67,3.14,1.16,4.77.87.19-.03.37-.08.56-.14.07-.02.1-.17,0-.14-1.56.45-3.23,0-4.68-.63-1.59-.69-3.07-1.65-4.45-2.69-1.45-1.09-2.83-2.29-4.1-3.59-1.41-1.44-2.67-3.02-3.74-4.72-1.08-1.72-1.96-3.57-2.69-5.47-.09-.24-.19-.49-.27-.74-.05-.14-.24,0-.21.12.58,2.02,1.39,3.95,2.46,5.76Z"/>
          <path class="st2" d="M230.18,409.94c1.03,1.75,2.26,3.36,3.65,4.84,1.3,1.39,2.74,2.65,4.25,3.8,1.39,1.05,2.86,2.01,4.45,2.73,1.47.67,3.14,1.16,4.77.87.19-.03.37-.08.56-.14.07-.02.1-.17,0-.14-1.56.45-3.23,0-4.68-.63-1.59-.69-3.07-1.65-4.45-2.69-1.45-1.09-2.83-2.29-4.1-3.59-1.41-1.44-2.67-3.02-3.74-4.72-1.08-1.72-1.96-3.57-2.69-5.47-.09-.24-.19-.49-.27-.74-.05-.14-.24,0-.21.12.58,2.02,1.39,3.95,2.46,5.76Z"/>
          <path class="st2" d="M223.44,409.94c1.03,1.75,2.26,3.36,3.65,4.84,1.3,1.39,2.74,2.65,4.25,3.8,1.39,1.05,2.86,2.01,4.45,2.73,1.47.67,3.14,1.16,4.77.87.19-.03.37-.08.56-.14.07-.02.1-.17,0-.14-1.56.45-3.23,0-4.68-.63-1.59-.69-3.07-1.65-4.45-2.69-1.45-1.09-2.83-2.29-4.1-3.59-1.41-1.44-2.67-3.02-3.74-4.72-1.08-1.72-1.96-3.57-2.69-5.47-.09-.24-.19-.49-.27-.74-.05-.14-.24,0-.21.12.58,2.02,1.39,3.95,2.46,5.76Z"/>
          <path class="st2" d="M216.21,408.08c1.03,1.75,2.26,3.36,3.65,4.84,1.3,1.39,2.74,2.65,4.25,3.8,1.39,1.05,2.86,2.01,4.45,2.73,1.47.67,3.14,1.16,4.77.87.19-.03.37-.08.56-.14.07-.02.1-.17,0-.14-1.56.45-3.23,0-4.68-.63-1.59-.69-3.07-1.65-4.45-2.69-1.45-1.09-2.83-2.29-4.1-3.59-1.41-1.44-2.67-3.02-3.74-4.72-1.08-1.72-1.96-3.57-2.69-5.47-.09-.24-.19-.49-.27-.74-.05-.14-.24,0-.21.12.58,2.02,1.39,3.95,2.46,5.76Z"/>
          <path class="st2" d="M209.61,407.31c1.03,1.75,2.26,3.36,3.65,4.84,1.3,1.39,2.74,2.65,4.25,3.8,1.39,1.05,2.86,2.01,4.45,2.73,1.47.67,3.14,1.16,4.77.87.19-.03.37-.08.56-.14.07-.02.1-.17,0-.14-1.56.45-3.23,0-4.68-.63-1.59-.69-3.07-1.65-4.45-2.69-1.45-1.09-2.83-2.29-4.1-3.59-1.41-1.44-2.67-3.02-3.74-4.72-1.08-1.72-1.96-3.57-2.69-5.47-.09-.24-.19-.49-.27-.74-.05-.14-.24,0-.21.12.58,2.02,1.39,3.95,2.46,5.76Z"/>
          <path class="st2" d="M202.66,409.09c1.03,1.75,2.26,3.36,3.65,4.84,1.3,1.39,2.74,2.65,4.25,3.8,1.39,1.05,2.86,2.01,4.45,2.73,1.47.67,3.14,1.16,4.77.87.19-.03.37-.08.56-.14.07-.02.1-.17,0-.14-1.56.45-3.23,0-4.68-.63-1.59-.69-3.07-1.65-4.45-2.69-1.45-1.09-2.83-2.29-4.1-3.59-1.41-1.44-2.67-3.02-3.74-4.72-1.08-1.72-1.96-3.57-2.69-5.47-.09-.24-.19-.49-.27-.74-.05-.14-.24,0-.21.12.58,2.02,1.39,3.95,2.46,5.76Z"/>
          <path class="st2" d="M312.7,385.97c.41,1.99.57,4.01.53,6.04-.04,1.9-.25,3.8-.61,5.67-.33,1.71-.78,3.41-1.48,5.01-.65,1.48-1.56,2.97-2.96,3.84-.16.1-.33.19-.5.27-.07.03-.18-.06-.09-.1,1.46-.71,2.39-2.17,3.05-3.6.72-1.58,1.17-3.28,1.5-4.98.35-1.78.56-3.6.64-5.41.08-2.01-.04-4.03-.39-6.01-.35-2-.94-3.97-1.67-5.86-.09-.24-.19-.49-.29-.73-.06-.14.19-.15.24-.05.92,1.88,1.61,3.87,2.04,5.92Z"/>
          <path class="st2" d="M307.8,399.97c.41,1.99.57,4.01.53,6.04-.04,1.9-.25,3.8-.61,5.67-.33,1.71-.78,3.41-1.48,5.01-.65,1.48-1.56,2.97-2.96,3.84-.16.1-.33.19-.5.27-.07.03-.18-.06-.09-.1,1.46-.71,2.39-2.17,3.05-3.6.72-1.58,1.17-3.28,1.5-4.98.35-1.78.56-3.6.64-5.41.08-2.01-.04-4.03-.39-6.01-.35-2-.94-3.97-1.67-5.86-.09-.24-.19-.49-.29-.73-.06-.14.19-.15.24-.05.92,1.88,1.61,3.87,2.04,5.92Z"/>
          <path class="st2" d="M302.11,414.03c.41,1.99.57,4.01.53,6.04-.04,1.9-.25,3.8-.61,5.67-.33,1.71-.78,3.41-1.48,5.01-.65,1.48-1.56,2.97-2.96,3.84-.16.1-.33.19-.5.27-.07.03-.18-.06-.09-.1,1.46-.71,2.39-2.17,3.05-3.6.72-1.58,1.17-3.28,1.5-4.98.35-1.78.56-3.6.64-5.41.08-2.01-.04-4.03-.39-6.01-.35-2-.94-3.97-1.67-5.86-.09-.24-.19-.49-.29-.73-.06-.14.19-.15.24-.05.92,1.88,1.61,3.87,2.04,5.92Z"/>
          <path class="st2" d="M295.48,422.59c.41,1.99.57,4.01.53,6.04-.04,1.9-.25,3.8-.61,5.67-.33,1.71-.78,3.41-1.48,5.01-.65,1.48-1.56,2.97-2.96,3.84-.16.1-.33.19-.5.27-.07.03-.18-.06-.09-.1,1.46-.71,2.39-2.17,3.05-3.6.72-1.58,1.17-3.28,1.5-4.98.35-1.78.56-3.6.64-5.41.08-2.01-.04-4.03-.39-6.01-.35-2-.94-3.97-1.67-5.86-.09-.24-.19-.49-.29-.73-.06-.14.19-.15.24-.05.92,1.88,1.61,3.87,2.04,5.92Z"/>
          <path class="st2" d="M288.12,428.87c.41,1.99.57,4.01.53,6.04-.04,1.9-.25,3.8-.61,5.67-.33,1.71-.78,3.41-1.48,5.01-.65,1.48-1.56,2.97-2.96,3.84-.16.1-.33.19-.5.27-.07.03-.18-.06-.09-.1,1.46-.71,2.39-2.17,3.05-3.6.72-1.58,1.17-3.28,1.5-4.98.35-1.78.56-3.6.64-5.41.08-2.01-.04-4.03-.39-6.01-.35-2-.94-3.97-1.67-5.86-.09-.24-.19-.49-.29-.73-.06-.14.19-.15.24-.05.92,1.88,1.61,3.87,2.04,5.92Z"/>
          <path class="st2" d="M278.76,436c.41,1.99.57,4.01.53,6.04-.04,1.9-.25,3.8-.61,5.67-.33,1.71-.78,3.41-1.48,5.01-.65,1.48-1.56,2.97-2.96,3.84-.16.1-.33.19-.5.27-.07.03-.18-.06-.09-.1,1.46-.71,2.39-2.17,3.05-3.6.72-1.58,1.17-3.28,1.5-4.98.35-1.78.56-3.6.64-5.41.08-2.01-.04-4.03-.39-6.01-.35-2-.94-3.97-1.67-5.86-.09-.24-.19-.49-.29-.73-.06-.14.19-.15.24-.05.92,1.88,1.61,3.87,2.04,5.92Z"/>
          <path class="st2" d="M269.59,442.37c.41,1.99.57,4.01.53,6.04-.04,1.9-.25,3.8-.61,5.67-.33,1.71-.78,3.41-1.48,5.01-.65,1.48-1.56,2.97-2.96,3.84-.16.1-.33.19-.5.27-.07.03-.18-.06-.09-.1,1.46-.71,2.39-2.17,3.05-3.6.72-1.58,1.17-3.28,1.5-4.98.35-1.78.56-3.6.64-5.41.08-2.01-.04-4.03-.39-6.01-.35-2-.94-3.97-1.67-5.86-.09-.24-.19-.49-.29-.73-.06-.14.19-.15.24-.05.92,1.88,1.61,3.87,2.04,5.92Z"/>
          <path class="st2" d="M261.18,446.93c.41,1.99.57,4.01.53,6.04-.04,1.9-.25,3.8-.61,5.67-.33,1.71-.78,3.41-1.48,5.01-.65,1.48-1.56,2.97-2.96,3.84-.16.1-.33.19-.5.27-.07.03-.18-.06-.09-.1,1.46-.71,2.39-2.17,3.05-3.6.72-1.58,1.17-3.28,1.5-4.98.35-1.78.56-3.6.64-5.41.08-2.01-.04-4.03-.39-6.01-.35-2-.94-3.97-1.67-5.86-.09-.24-.19-.49-.29-.73-.06-.14.19-.15.24-.05.92,1.88,1.61,3.87,2.04,5.92Z"/>
          <path class="st2" d="M252.42,452.21c.41,1.99.57,4.01.53,6.04-.04,1.9-.25,3.8-.61,5.67-.33,1.71-.78,3.41-1.48,5.01-.65,1.48-1.56,2.97-2.96,3.84-.16.1-.33.19-.5.27-.07.03-.18-.06-.09-.1,1.46-.71,2.39-2.17,3.05-3.6.72-1.58,1.17-3.28,1.5-4.98.35-1.78.56-3.6.64-5.41.08-2.01-.04-4.03-.39-6.01-.35-2-.94-3.97-1.67-5.86-.09-.24-.19-.49-.29-.73-.06-.14.19-.15.24-.05.92,1.88,1.61,3.87,2.04,5.92Z"/>
          <path class="st2" d="M245.07,456.14c.41,1.99.57,4.01.53,6.04-.04,1.9-.25,3.8-.61,5.67-.33,1.71-.78,3.41-1.48,5.01-.65,1.48-1.56,2.97-2.96,3.84-.16.1-.33.19-.5.27-.07.03-.18-.06-.09-.1,1.46-.71,2.39-2.17,3.05-3.6.72-1.58,1.17-3.28,1.5-4.98.35-1.78.56-3.6.64-5.41.08-2.01-.04-4.03-.39-6.01-.35-2-.94-3.97-1.67-5.86-.09-.24-.19-.49-.29-.73-.06-.14.19-.15.24-.05.92,1.88,1.61,3.87,2.04,5.92Z"/>
          <path class="st2" d="M236.02,459.99c.41,1.99.57,4.01.53,6.04-.04,1.9-.25,3.8-.61,5.67-.33,1.71-.78,3.41-1.48,5.01-.65,1.48-1.56,2.97-2.96,3.84-.16.1-.33.19-.5.27-.07.03-.18-.06-.09-.1,1.46-.71,2.39-2.17,3.05-3.6.72-1.58,1.17-3.28,1.5-4.98.35-1.78.56-3.6.64-5.41.08-2.01-.04-4.03-.39-6.01-.35-2-.94-3.97-1.67-5.86-.09-.24-.19-.49-.29-.73-.06-.14.19-.15.24-.05.92,1.88,1.61,3.87,2.04,5.92Z"/>
          <path class="st2" d="M227.74,463.1c.41,1.99.57,4.01.53,6.04-.04,1.9-.25,3.8-.61,5.67-.33,1.71-.78,3.41-1.48,5.01-.65,1.48-1.56,2.97-2.96,3.84-.16.1-.33.19-.5.27-.07.03-.18-.06-.09-.1,1.46-.71,2.39-2.17,3.05-3.6.72-1.58,1.17-3.28,1.5-4.98.35-1.78.56-3.6.64-5.41.08-2.01-.04-4.03-.39-6.01-.35-2-.94-3.97-1.67-5.86-.09-.24-.19-.49-.29-.73-.06-.14.19-.15.24-.05.92,1.88,1.61,3.87,2.04,5.92Z"/>
          <path class="st2" d="M217.34,465.62c.41,1.99.57,4.01.53,6.04-.04,1.9-.25,3.8-.61,5.67-.33,1.71-.78,3.41-1.48,5.01-.65,1.48-1.56,2.97-2.96,3.84-.16.1-.33.19-.5.27-.07.03-.18-.06-.09-.1,1.46-.71,2.39-2.17,3.05-3.6.72-1.58,1.17-3.28,1.5-4.98.35-1.78.56-3.6.64-5.41.08-2.01-.04-4.03-.39-6.01-.35-2-.94-3.97-1.67-5.86-.09-.24-.19-.49-.29-.73-.06-.14.19-.15.24-.05.92,1.88,1.61,3.87,2.04,5.92Z"/>
          <path class="st2" d="M208.5,465.62c.41,1.99.57,4.01.53,6.04-.04,1.9-.25,3.8-.61,5.67-.33,1.71-.78,3.41-1.48,5.01-.65,1.48-1.56,2.97-2.96,3.84-.16.1-.33.19-.5.27-.07.03-.18-.06-.09-.1,1.46-.71,2.39-2.17,3.05-3.6.72-1.58,1.17-3.28,1.5-4.98.35-1.78.56-3.6.64-5.41.08-2.01-.04-4.03-.39-6.01-.35-2-.94-3.97-1.67-5.86-.09-.24-.19-.49-.29-.73-.06-.14.19-.15.24-.05.92,1.88,1.61,3.87,2.04,5.92Z"/>
          <path class="st2" d="M203.08,463.1c.41,1.99.57,4.01.53,6.04-.04,1.9-.25,3.8-.61,5.67-.33,1.71-.78,3.41-1.48,5.01-.65,1.48-1.56,2.97-2.96,3.84-.16.1-.33.19-.5.27-.07.03-.18-.06-.09-.1,1.46-.71,2.39-2.17,3.05-3.6.72-1.58,1.17-3.28,1.5-4.98.35-1.78.56-3.6.64-5.41.08-2.01-.04-4.03-.39-6.01-.35-2-.94-3.97-1.67-5.86-.09-.24-.19-.49-.29-.73-.06-.14.19-.15.24-.05.92,1.88,1.61,3.87,2.04,5.92Z"/>
          <path class="st2" d="M321.23,396.62c.41,1.99.57,4.01.53,6.04-.04,1.9-.25,3.8-.61,5.67-.33,1.71-.78,3.41-1.48,5.01-.65,1.48-1.56,2.97-2.96,3.84-.16.1-.33.19-.5.27-.07.03-.18-.06-.09-.1,1.46-.71,2.39-2.17,3.05-3.6.72-1.58,1.17-3.28,1.5-4.98.35-1.78.56-3.6.64-5.41.08-2.01-.04-4.03-.39-6.01-.35-2-.94-3.97-1.67-5.86-.09-.24-.19-.49-.29-.73-.06-.14.19-.15.24-.05.92,1.88,1.61,3.87,2.04,5.92Z"/>
          <path class="st2" d="M313.49,410.48c.41,1.99.57,4.01.53,6.04-.04,1.9-.25,3.8-.61,5.67-.33,1.71-.78,3.41-1.48,5.01-.65,1.48-1.56,2.97-2.96,3.84-.16.1-.33.19-.5.27-.07.03-.18-.06-.09-.1,1.46-.71,2.39-2.17,3.05-3.6.72-1.58,1.17-3.28,1.5-4.98.35-1.78.56-3.6.64-5.41.08-2.01-.04-4.03-.39-6.01-.35-2-.94-3.97-1.67-5.86-.09-.24-.19-.49-.29-.73-.06-.14.19-.15.24-.05.92,1.88,1.61,3.87,2.04,5.92Z"/>
          <path class="st2" d="M304.96,423.89c.41,1.99.57,4.01.53,6.04-.04,1.9-.25,3.8-.61,5.67-.33,1.71-.78,3.41-1.48,5.01-.65,1.48-1.56,2.97-2.96,3.84-.16.1-.33.19-.5.27-.07.03-.18-.06-.09-.1,1.46-.71,2.39-2.17,3.05-3.6.72-1.58,1.17-3.28,1.5-4.98.35-1.78.56-3.6.64-5.41.08-2.01-.04-4.03-.39-6.01-.35-2-.94-3.97-1.67-5.86-.09-.24-.19-.49-.29-.73-.06-.14.19-.15.24-.05.92,1.88,1.61,3.87,2.04,5.92Z"/>
          <path class="st2" d="M292.63,437.3c.41,1.99.57,4.01.53,6.04-.04,1.9-.25,3.8-.61,5.67-.33,1.71-.78,3.41-1.48,5.01-.65,1.48-1.56,2.97-2.96,3.84-.16.1-.33.19-.5.27-.07.03-.18-.06-.09-.1,1.46-.71,2.39-2.17,3.05-3.6.72-1.58,1.17-3.28,1.5-4.98.35-1.78.56-3.6.64-5.41.08-2.01-.04-4.03-.39-6.01-.35-2-.94-3.97-1.67-5.86-.09-.24-.19-.49-.29-.73-.06-.14.19-.15.24-.05.92,1.88,1.61,3.87,2.04,5.92Z"/>
          <path class="st2" d="M283.57,446c.41,1.99.57,4.01.53,6.04-.04,1.9-.25,3.8-.61,5.67-.33,1.71-.78,3.41-1.48,5.01-.65,1.48-1.56,2.97-2.96,3.84-.16.1-.33.19-.5.27-.07.03-.18-.06-.09-.1,1.46-.71,2.39-2.17,3.05-3.6.72-1.58,1.17-3.28,1.5-4.98.35-1.78.56-3.6.64-5.41.08-2.01-.04-4.03-.39-6.01-.35-2-.94-3.97-1.67-5.86-.09-.24-.19-.49-.29-.73-.06-.14.19-.15.24-.05.92,1.88,1.61,3.87,2.04,5.92Z"/>
          <path class="st2" d="M273.08,454.57c.41,1.99.57,4.01.53,6.04-.04,1.9-.25,3.8-.61,5.67-.33,1.71-.78,3.41-1.48,5.01-.65,1.48-1.56,2.97-2.96,3.84-.16.1-.33.19-.5.27-.07.03-.18-.06-.09-.1,1.46-.71,2.39-2.17,3.05-3.6.72-1.58,1.17-3.28,1.5-4.98.35-1.78.56-3.6.64-5.41.08-2.01-.04-4.03-.39-6.01-.35-2-.94-3.97-1.67-5.86-.09-.24-.19-.49-.29-.73-.06-.14.19-.15.24-.05.92,1.88,1.61,3.87,2.04,5.92Z"/>
          <path class="st2" d="M261.86,461.52c.41,1.99.57,4.01.53,6.04-.04,1.9-.25,3.8-.61,5.67-.33,1.71-.78,3.41-1.48,5.01-.65,1.48-1.56,2.97-2.96,3.84-.16.1-.33.19-.5.27-.07.03-.18-.06-.09-.1,1.46-.71,2.39-2.17,3.05-3.6.72-1.58,1.17-3.28,1.5-4.98.35-1.78.56-3.6.64-5.41.08-2.01-.04-4.03-.39-6.01-.35-2-.94-3.97-1.67-5.86-.09-.24-.19-.49-.29-.73-.06-.14.19-.15.24-.05.92,1.88,1.61,3.87,2.04,5.92Z"/>
          <path class="st2" d="M248.81,469.76c.41,1.99.57,4.01.53,6.04-.04,1.9-.25,3.8-.61,5.67-.33,1.71-.78,3.41-1.48,5.01-.65,1.48-1.56,2.97-2.96,3.84-.16.1-.33.19-.5.27-.07.03-.18-.06-.09-.1,1.46-.71,2.39-2.17,3.05-3.6.72-1.58,1.17-3.28,1.5-4.98.35-1.78.56-3.6.64-5.41.08-2.01-.04-4.03-.39-6.01-.35-2-.94-3.97-1.67-5.86-.09-.24-.19-.49-.29-.73-.06-.14.19-.15.24-.05.92,1.88,1.61,3.87,2.04,5.92Z"/>
          <path class="st2" d="M236.02,474.93c.41,1.99.57,4.01.53,6.04-.04,1.9-.25,3.8-.61,5.67-.33,1.71-.78,3.41-1.48,5.01-.65,1.48-1.56,2.97-2.96,3.84-.16.1-.33.19-.5.27-.07.03-.18-.06-.09-.1,1.46-.71,2.39-2.17,3.05-3.6.72-1.58,1.17-3.28,1.5-4.98.35-1.78.56-3.6.64-5.41.08-2.01-.04-4.03-.39-6.01-.35-2-.94-3.97-1.67-5.86-.09-.24-.19-.49-.29-.73-.06-.14.19-.15.24-.05.92,1.88,1.61,3.87,2.04,5.92Z"/>
          <path class="st2" d="M224.9,479.03c.41,1.99.57,4.01.53,6.04-.04,1.9-.25,3.8-.61,5.67-.33,1.71-.78,3.41-1.48,5.01-.65,1.48-1.56,2.97-2.96,3.84-.16.1-.33.19-.5.27-.07.03-.18-.06-.09-.1,1.46-.71,2.39-2.17,3.05-3.6.72-1.58,1.17-3.28,1.5-4.98.35-1.78.56-3.6.64-5.41.08-2.01-.04-4.03-.39-6.01-.35-2-.94-3.97-1.67-5.86-.09-.24-.19-.49-.29-.73-.06-.14.19-.15.24-.05.92,1.88,1.61,3.87,2.04,5.92Z"/>
          <path class="st2" d="M211.35,481.02c.41,1.99.57,4.01.53,6.04-.04,1.9-.25,3.8-.61,5.67-.33,1.71-.78,3.41-1.48,5.01-.65,1.48-1.56,2.97-2.96,3.84-.16.1-.33.19-.5.27-.07.03-.18-.06-.09-.1,1.46-.71,2.39-2.17,3.05-3.6.72-1.58,1.17-3.28,1.5-4.98.35-1.78.56-3.6.64-5.41.08-2.01-.04-4.03-.39-6.01-.35-2-.94-3.97-1.67-5.86-.09-.24-.19-.49-.29-.73-.06-.14.19-.15.24-.05.92,1.88,1.61,3.87,2.04,5.92Z"/>
          <path class="st2" d="M204.52,480.39c.41,1.99.57,4.01.53,6.04-.04,1.9-.25,3.8-.61,5.67-.33,1.71-.78,3.41-1.48,5.01-.65,1.48-1.56,2.97-2.96,3.84-.16.1-.33.19-.5.27-.07.03-.18-.06-.09-.1,1.46-.71,2.39-2.17,3.05-3.6.72-1.58,1.17-3.28,1.5-4.98.35-1.78.56-3.6.64-5.41.08-2.01-.04-4.03-.39-6.01-.35-2-.94-3.97-1.67-5.86-.09-.24-.19-.49-.29-.73-.06-.14.19-.15.24-.05.92,1.88,1.61,3.87,2.04,5.92Z"/>
          <path class="st2" d="M329.47,413.38c.41,1.99.57,4.01.53,6.04-.04,1.9-.25,3.8-.61,5.67-.33,1.71-.78,3.41-1.48,5.01-.65,1.48-1.56,2.97-2.96,3.84-.16.1-.33.19-.5.27-.07.03-.18-.06-.09-.1,1.46-.71,2.39-2.17,3.05-3.6.72-1.58,1.17-3.28,1.5-4.98.35-1.78.56-3.6.64-5.41.08-2.01-.04-4.03-.39-6.01-.35-2-.94-3.97-1.67-5.86-.09-.24-.19-.49-.29-.73-.06-.14.19-.15.24-.05.92,1.88,1.61,3.87,2.04,5.92Z"/>
          <path class="st2" d="M321.89,420.15c.41,1.99.57,4.01.53,6.04-.04,1.9-.25,3.8-.61,5.67-.33,1.71-.78,3.41-1.48,5.01-.65,1.48-1.56,2.97-2.96,3.84-.16.1-.33.19-.5.27-.07.03-.18-.06-.09-.1,1.46-.71,2.39-2.17,3.05-3.6.72-1.58,1.17-3.28,1.5-4.98.35-1.78.56-3.6.64-5.41.08-2.01-.04-4.03-.39-6.01-.35-2-.94-3.97-1.67-5.86-.09-.24-.19-.49-.29-.73-.06-.14.19-.15.24-.05.92,1.88,1.61,3.87,2.04,5.92Z"/>
          <path class="st2" d="M311.72,431.92c.41,1.99.57,4.01.53,6.04-.04,1.9-.25,3.8-.61,5.67-.33,1.71-.78,3.41-1.48,5.01-.65,1.48-1.56,2.97-2.96,3.84-.16.1-.33.19-.5.27-.07.03-.18-.06-.09-.1,1.46-.71,2.39-2.17,3.05-3.6.72-1.58,1.17-3.28,1.5-4.98.35-1.78.56-3.6.64-5.41.08-2.01-.04-4.03-.39-6.01-.35-2-.94-3.97-1.67-5.86-.09-.24-.19-.49-.29-.73-.06-.14.19-.15.24-.05.92,1.88,1.61,3.87,2.04,5.92Z"/>
          <path class="st2" d="M302.11,443.94c.41,1.99.57,4.01.53,6.04-.04,1.9-.25,3.8-.61,5.67-.33,1.71-.78,3.41-1.48,5.01-.65,1.48-1.56,2.97-2.96,3.84-.16.1-.33.19-.5.27-.07.03-.18-.06-.09-.1,1.46-.71,2.39-2.17,3.05-3.6.72-1.58,1.17-3.28,1.5-4.98.35-1.78.56-3.6.64-5.41.08-2.01-.04-4.03-.39-6.01-.35-2-.94-3.97-1.67-5.86-.09-.24-.19-.49-.29-.73-.06-.14.19-.15.24-.05.92,1.88,1.61,3.87,2.04,5.92Z"/>
          <path class="st2" d="M292.63,452.21c.41,1.99.57,4.01.53,6.04-.04,1.9-.25,3.8-.61,5.67-.33,1.71-.78,3.41-1.48,5.01-.65,1.48-1.56,2.97-2.96,3.84-.16.1-.33.19-.5.27-.07.03-.18-.06-.09-.1,1.46-.71,2.39-2.17,3.05-3.6.72-1.58,1.17-3.28,1.5-4.98.35-1.78.56-3.6.64-5.41.08-2.01-.04-4.03-.39-6.01-.35-2-.94-3.97-1.67-5.86-.09-.24-.19-.49-.29-.73-.06-.14.19-.15.24-.05.92,1.88,1.61,3.87,2.04,5.92Z"/>
          <path class="st2" d="M279.69,462.56c.41,1.99.57,4.01.53,6.04-.04,1.9-.25,3.8-.61,5.67-.33,1.71-.78,3.41-1.48,5.01-.65,1.48-1.56,2.97-2.96,3.84-.16.1-.33.19-.5.27-.07.03-.18-.06-.09-.1,1.46-.71,2.39-2.17,3.05-3.6.72-1.58,1.17-3.28,1.5-4.98.35-1.78.56-3.6.64-5.41.08-2.01-.04-4.03-.39-6.01-.35-2-.94-3.97-1.67-5.86-.09-.24-.19-.49-.29-.73-.06-.14.19-.15.24-.05.92,1.88,1.61,3.87,2.04,5.92Z"/>
          <path class="st2" d="M266.75,471.59c.41,1.99.57,4.01.53,6.04-.04,1.9-.25,3.8-.61,5.67-.33,1.71-.78,3.41-1.48,5.01-.65,1.48-1.56,2.97-2.96,3.84-.16.1-.33.19-.5.27-.07.03-.18-.06-.09-.1,1.46-.71,2.39-2.17,3.05-3.6.72-1.58,1.17-3.28,1.5-4.98.35-1.78.56-3.6.64-5.41.08-2.01-.04-4.03-.39-6.01-.35-2-.94-3.97-1.67-5.86-.09-.24-.19-.49-.29-.73-.06-.14.19-.15.24-.05.92,1.88,1.61,3.87,2.04,5.92Z"/>
          <path class="st2" d="M254.5,479.67c.41,1.99.57,4.01.53,6.04-.04,1.9-.25,3.8-.61,5.67-.33,1.71-.78,3.41-1.48,5.01-.65,1.48-1.56,2.97-2.96,3.84-.16.1-.33.19-.5.27-.07.03-.18-.06-.09-.1,1.46-.71,2.39-2.17,3.05-3.6.72-1.58,1.17-3.28,1.5-4.98.35-1.78.56-3.6.64-5.41.08-2.01-.04-4.03-.39-6.01-.35-2-.94-3.97-1.67-5.86-.09-.24-.19-.49-.29-.73-.06-.14.19-.15.24-.05.92,1.88,1.61,3.87,2.04,5.92Z"/>
          <path class="st2" d="M243.13,484.18c.41,1.99.57,4.01.53,6.04-.04,1.9-.25,3.8-.61,5.67-.33,1.71-.78,3.41-1.48,5.01-.65,1.48-1.56,2.97-2.96,3.84-.16.1-.33.19-.5.27-.07.03-.18-.06-.09-.1,1.46-.71,2.39-2.17,3.05-3.6.72-1.58,1.17-3.28,1.5-4.98.35-1.78.56-3.6.64-5.41.08-2.01-.04-4.03-.39-6.01-.35-2-.94-3.97-1.67-5.86-.09-.24-.19-.49-.29-.73-.06-.14.19-.15.24-.05.92,1.88,1.61,3.87,2.04,5.92Z"/>
          <path class="st2" d="M229.9,487.16c.41,1.99.57,4.01.53,6.04-.04,1.9-.25,3.8-.61,5.67-.33,1.71-.78,3.41-1.48,5.01-.65,1.48-1.56,2.97-2.96,3.84-.16.1-.33.19-.5.27-.07.03-.18-.06-.09-.1,1.46-.71,2.39-2.17,3.05-3.6.72-1.58,1.17-3.28,1.5-4.98.35-1.78.56-3.6.64-5.41.08-2.01-.04-4.03-.39-6.01-.35-2-.94-3.97-1.67-5.86-.09-.24-.19-.49-.29-.73-.06-.14.19-.15.24-.05.92,1.88,1.61,3.87,2.04,5.92Z"/>
          <path class="st2" d="M218.29,490.6c.41,1.99.57,4.01.53,6.04-.04,1.9-.25,3.8-.61,5.67-.33,1.71-.78,3.41-1.48,5.01-.65,1.48-1.56,2.97-2.96,3.84-.16.1-.33.19-.5.27-.07.03-.18-.06-.09-.1,1.46-.71,2.39-2.17,3.05-3.6.72-1.58,1.17-3.28,1.5-4.98.35-1.78.56-3.6.64-5.41.08-2.01-.04-4.03-.39-6.01-.35-2-.94-3.97-1.67-5.86-.09-.24-.19-.49-.29-.73-.06-.14.19-.15.24-.05.92,1.88,1.61,3.87,2.04,5.92Z"/>
          <path class="st2" d="M207.86,494.93c.41,1.99.57,4.01.53,6.04-.04,1.9-.25,3.8-.61,5.67-.33,1.71-.78,3.41-1.48,5.01-.65,1.48-1.56,2.97-2.96,3.84-.16.1-.33.19-.5.27-.07.03-.18-.06-.09-.1,1.46-.71,2.39-2.17,3.05-3.6.72-1.58,1.17-3.28,1.5-4.98.35-1.78.56-3.6.64-5.41.08-2.01-.04-4.03-.39-6.01-.35-2-.94-3.97-1.67-5.86-.09-.24-.19-.49-.29-.73-.06-.14.19-.15.24-.05.92,1.88,1.61,3.87,2.04,5.92Z"/>
          <path class="st2" d="M344.05,352.38c.41,1.99.57,4.01.53,6.04-.04,1.9-.25,3.8-.61,5.67-.33,1.71-.78,3.41-1.48,5.01-.65,1.48-1.56,2.97-2.96,3.84-.16.1-.33.19-.5.27-.07.03-.18-.06-.09-.1,1.46-.71,2.39-2.17,3.05-3.6.72-1.58,1.17-3.28,1.5-4.98.35-1.78.56-3.6.64-5.41.08-2.01-.04-4.03-.39-6.01-.35-2-.94-3.97-1.67-5.86-.09-.24-.19-.49-.29-.73-.06-.14.19-.15.24-.05.92,1.88,1.61,3.87,2.04,5.92Z"/>
          <path class="st2" d="M339.05,346.75c.41,1.99.57,4.01.53,6.04-.04,1.9-.25,3.8-.61,5.67-.33,1.71-.78,3.41-1.48,5.01-.65,1.48-1.56,2.97-2.96,3.84-.16.1-.33.19-.5.27-.07.03-.18-.06-.09-.1,1.46-.71,2.39-2.17,3.05-3.6.72-1.58,1.17-3.28,1.5-4.98.35-1.78.56-3.6.64-5.41.08-2.01-.04-4.03-.39-6.01-.35-2-.94-3.97-1.67-5.86-.09-.24-.19-.49-.29-.73-.06-.14.19-.15.24-.05.92,1.88,1.61,3.87,2.04,5.92Z"/>
          <path class="st2" d="M347.58,318.03c.41,1.99.57,4.01.53,6.04-.04,1.9-.25,3.8-.61,5.67-.33,1.71-.78,3.41-1.48,5.01-.65,1.48-1.56,2.97-2.96,3.84-.16.1-.33.19-.5.27-.07.03-.18-.06-.09-.1,1.46-.71,2.39-2.17,3.05-3.6.72-1.58,1.17-3.28,1.5-4.98.35-1.78.56-3.6.64-5.41.08-2.01-.04-4.03-.39-6.01-.35-2-.94-3.97-1.67-5.86-.09-.24-.19-.49-.29-.73-.06-.14.19-.15.24-.05.92,1.88,1.61,3.87,2.04,5.92Z"/>
        </g>
        <g>
          <path class="st2" d="M53.77,325.99c-.41,1.99-.57,4.01-.53,6.04.04,1.9.25,3.8.61,5.67.33,1.71.78,3.41,1.48,5.01.65,1.48,1.56,2.97,2.96,3.84.16.1.33.19.5.27.07.03.18-.06.09-.1-1.46-.71-2.39-2.17-3.05-3.6-.72-1.58-1.17-3.28-1.5-4.98-.35-1.78-.56-3.6-.64-5.41-.08-2.01.04-4.03.39-6.01.35-2,.94-3.97,1.67-5.86.09-.24.19-.49.29-.73.06-.14-.19-.15-.24-.05-.92,1.88-1.61,3.87-2.04,5.92Z"/>
          <path class="st2" d="M57.72,339.4c-.41,1.99-.57,4.01-.53,6.04.04,1.9.25,3.8.61,5.67.33,1.71.78,3.41,1.48,5.01.65,1.48,1.56,2.97,2.96,3.84.16.1.33.19.5.27.07.03.18-.06.09-.1-1.46-.71-2.39-2.17-3.05-3.6-.72-1.58-1.17-3.28-1.5-4.98-.35-1.78-.56-3.6-.64-5.41-.08-2.01.04-4.03.39-6.01.35-2,.94-3.97,1.67-5.86.09-.24.19-.49.29-.73.06-.14-.19-.15-.24-.05-.92,1.88-1.61,3.87-2.04,5.92Z"/>
          <path class="st2" d="M64.45,353.79c-.41,1.99-.57,4.01-.53,6.04.04,1.9.25,3.8.61,5.67.33,1.71.78,3.41,1.48,5.01.65,1.48,1.56,2.97,2.96,3.84.16.1.33.19.5.27.07.03.18-.06.09-.1-1.46-.71-2.39-2.17-3.05-3.6-.72-1.58-1.17-3.28-1.5-4.98-.35-1.78-.56-3.6-.64-5.41-.08-2.01.04-4.03.39-6.01.35-2,.94-3.97,1.67-5.86.09-.24.19-.49.29-.73.06-.14-.19-.15-.24-.05-.92,1.88-1.61,3.87-2.04,5.92Z"/>
          <path class="st2" d="M56.62,369.71c-.41,1.99-.57,4.01-.53,6.04.04,1.9.25,3.8.61,5.67.33,1.71.78,3.41,1.48,5.01.65,1.48,1.56,2.97,2.96,3.84.16.1.33.19.5.27.07.03.18-.06.09-.1-1.46-.71-2.39-2.17-3.05-3.6-.72-1.58-1.17-3.28-1.5-4.98-.35-1.78-.56-3.6-.64-5.41-.08-2.01.04-4.03.39-6.01.35-2,.94-3.97,1.67-5.86.09-.24.19-.49.29-.73.06-.14-.19-.15-.24-.05-.92,1.88-1.61,3.87-2.04,5.92Z"/>
          <path class="st2" d="M62.3,365.06c-.41,1.99-.57,4.01-.53,6.04.04,1.9.25,3.8.61,5.67.33,1.71.78,3.41,1.48,5.01.65,1.48,1.56,2.97,2.96,3.84.16.1.33.19.5.27.07.03.18-.06.09-.1-1.46-.71-2.39-2.17-3.05-3.6-.72-1.58-1.17-3.28-1.5-4.98-.35-1.78-.56-3.6-.64-5.41-.08-2.01.04-4.03.39-6.01.35-2,.94-3.97,1.67-5.86.09-.24.19-.49.29-.73.06-.14-.19-.15-.24-.05-.92,1.88-1.61,3.87-2.04,5.92Z"/>
          <path class="st2" d="M70.14,363.01c-.41,1.99-.57,4.01-.53,6.04.04,1.9.25,3.8.61,5.67.33,1.71.78,3.41,1.48,5.01.65,1.48,1.56,2.97,2.96,3.84.16.1.33.19.5.27.07.03.18-.06.09-.1-1.46-.71-2.39-2.17-3.05-3.6-.72-1.58-1.17-3.28-1.5-4.98-.35-1.78-.56-3.6-.64-5.41-.08-2.01.04-4.03.39-6.01.35-2,.94-3.97,1.67-5.86.09-.24.19-.49.29-.73.06-.14-.19-.15-.24-.05-.92,1.88-1.61,3.87-2.04,5.92Z"/>
          <path class="st2" d="M75.53,368.69c-.41,1.99-.57,4.01-.53,6.04.04,1.9.25,3.8.61,5.67.33,1.71.78,3.41,1.48,5.01.65,1.48,1.56,2.97,2.96,3.84.16.1.33.19.5.27.07.03.18-.06.09-.1-1.46-.71-2.39-2.17-3.05-3.6-.72-1.58-1.17-3.28-1.5-4.98-.35-1.78-.56-3.6-.64-5.41-.08-2.01.04-4.03.39-6.01.35-2,.94-3.97,1.67-5.86.09-.24.19-.49.29-.73.06-.14-.19-.15-.24-.05-.92,1.88-1.61,3.87-2.04,5.92Z"/>
          <path class="st2" d="M66.25,378.48c-.41,1.99-.57,4.01-.53,6.04.04,1.9.25,3.8.61,5.67.33,1.71.78,3.41,1.48,5.01.65,1.48,1.56,2.97,2.96,3.84.16.1.33.19.5.27.07.03.18-.06.09-.1-1.46-.71-2.39-2.17-3.05-3.6-.72-1.58-1.17-3.28-1.5-4.98-.35-1.78-.56-3.6-.64-5.41-.08-2.01.04-4.03.39-6.01.35-2,.94-3.97,1.67-5.86.09-.24.19-.49.29-.73.06-.14-.19-.15-.24-.05-.92,1.88-1.61,3.87-2.04,5.92Z"/>
          <path class="st2" d="M62.3,394.37c-.41,1.99-.57,4.01-.53,6.04.04,1.9.25,3.8.61,5.67.33,1.71.78,3.41,1.48,5.01.65,1.48,1.56,2.97,2.96,3.84.16.1.33.19.5.27.07.03.18-.06.09-.1-1.46-.71-2.39-2.17-3.05-3.6-.72-1.58-1.17-3.28-1.5-4.98-.35-1.78-.56-3.6-.64-5.41-.08-2.01.04-4.03.39-6.01.35-2,.94-3.97,1.67-5.86.09-.24.19-.49.29-.73.06-.14-.19-.15-.24-.05-.92,1.88-1.61,3.87-2.04,5.92Z"/>
          <path class="st2" d="M70.14,388.43c-.41,1.99-.57,4.01-.53,6.04.04,1.9.25,3.8.61,5.67.33,1.71.78,3.41,1.48,5.01.65,1.48,1.56,2.97,2.96,3.84.16.1.33.19.5.27.07.03.18-.06.09-.1-1.46-.71-2.39-2.17-3.05-3.6-.72-1.58-1.17-3.28-1.5-4.98-.35-1.78-.56-3.6-.64-5.41-.08-2.01.04-4.03.39-6.01.35-2,.94-3.97,1.67-5.86.09-.24.19-.49.29-.73.06-.14-.19-.15-.24-.05-.92,1.88-1.61,3.87-2.04,5.92Z"/>
          <path class="st2" d="M81.22,376.43c-.41,1.99-.57,4.01-.53,6.04.04,1.9.25,3.8.61,5.67.33,1.71.78,3.41,1.48,5.01.65,1.48,1.56,2.97,2.96,3.84.16.1.33.19.5.27.07.03.18-.06.09-.1-1.46-.71-2.39-2.17-3.05-3.6-.72-1.58-1.17-3.28-1.5-4.98-.35-1.78-.56-3.6-.64-5.41-.08-2.01.04-4.03.39-6.01.35-2,.94-3.97,1.67-5.86.09-.24.19-.49.29-.73.06-.14-.19-.15-.24-.05-.92,1.88-1.61,3.87-2.04,5.92Z"/>
          <path class="st2" d="M86.91,385.77c-.41,1.99-.57,4.01-.53,6.04.04,1.9.25,3.8.61,5.67.33,1.71.78,3.41,1.48,5.01.65,1.48,1.56,2.97,2.96,3.84.16.1.33.19.5.27.07.03.18-.06.09-.1-1.46-.71-2.39-2.17-3.05-3.6-.72-1.58-1.17-3.28-1.5-4.98-.35-1.78-.56-3.6-.64-5.41-.08-2.01.04-4.03.39-6.01.35-2,.94-3.97,1.67-5.86.09-.24.19-.49.29-.73.06-.14-.19-.15-.24-.05-.92,1.88-1.61,3.87-2.04,5.92Z"/>
          <path class="st2" d="M91.81,399.77c-.41,1.99-.57,4.01-.53,6.04.04,1.9.25,3.8.61,5.67.33,1.71.78,3.41,1.48,5.01.65,1.48,1.56,2.97,2.96,3.84.16.1.33.19.5.27.07.03.18-.06.09-.1-1.46-.71-2.39-2.17-3.05-3.6-.72-1.58-1.17-3.28-1.5-4.98-.35-1.78-.56-3.6-.64-5.41-.08-2.01.04-4.03.39-6.01.35-2,.94-3.97,1.67-5.86.09-.24.19-.49.29-.73.06-.14-.19-.15-.24-.05-.92,1.88-1.61,3.87-2.04,5.92Z"/>
          <path class="st2" d="M97.49,413.83c-.41,1.99-.57,4.01-.53,6.04.04,1.9.25,3.8.61,5.67.33,1.71.78,3.41,1.48,5.01.65,1.48,1.56,2.97,2.96,3.84.16.1.33.19.5.27.07.03.18-.06.09-.1-1.46-.71-2.39-2.17-3.05-3.6-.72-1.58-1.17-3.28-1.5-4.98-.35-1.78-.56-3.6-.64-5.41-.08-2.01.04-4.03.39-6.01.35-2,.94-3.97,1.67-5.86.09-.24.19-.49.29-.73.06-.14-.19-.15-.24-.05-.92,1.88-1.61,3.87-2.04,5.92Z"/>
          <path class="st2" d="M104.13,422.39c-.41,1.99-.57,4.01-.53,6.04.04,1.9.25,3.8.61,5.67.33,1.71.78,3.41,1.48,5.01.65,1.48,1.56,2.97,2.96,3.84.16.1.33.19.5.27.07.03.18-.06.09-.1-1.46-.71-2.39-2.17-3.05-3.6-.72-1.58-1.17-3.28-1.5-4.98-.35-1.78-.56-3.6-.64-5.41-.08-2.01.04-4.03.39-6.01.35-2,.94-3.97,1.67-5.86.09-.24.19-.49.29-.73.06-.14-.19-.15-.24-.05-.92,1.88-1.61,3.87-2.04,5.92Z"/>
          <path class="st2" d="M111.48,428.67c-.41,1.99-.57,4.01-.53,6.04.04,1.9.25,3.8.61,5.67.33,1.71.78,3.41,1.48,5.01.65,1.48,1.56,2.97,2.96,3.84.16.1.33.19.5.27.07.03.18-.06.09-.1-1.46-.71-2.39-2.17-3.05-3.6-.72-1.58-1.17-3.28-1.5-4.98-.35-1.78-.56-3.6-.64-5.41-.08-2.01.04-4.03.39-6.01.35-2,.94-3.97,1.67-5.86.09-.24.19-.49.29-.73.06-.14-.19-.15-.24-.05-.92,1.88-1.61,3.87-2.04,5.92Z"/>
          <path class="st2" d="M120.84,435.8c-.41,1.99-.57,4.01-.53,6.04.04,1.9.25,3.8.61,5.67.33,1.71.78,3.41,1.48,5.01.65,1.48,1.56,2.97,2.96,3.84.16.1.33.19.5.27.07.03.18-.06.09-.1-1.46-.71-2.39-2.17-3.05-3.6-.72-1.58-1.17-3.28-1.5-4.98-.35-1.78-.56-3.6-.64-5.41-.08-2.01.04-4.03.39-6.01.35-2,.94-3.97,1.67-5.86.09-.24.19-.49.29-.73.06-.14-.19-.15-.24-.05-.92,1.88-1.61,3.87-2.04,5.92Z"/>
          <path class="st2" d="M130.01,442.17c-.41,1.99-.57,4.01-.53,6.04.04,1.9.25,3.8.61,5.67.33,1.71.78,3.41,1.48,5.01.65,1.48,1.56,2.97,2.96,3.84.16.1.33.19.5.27.07.03.18-.06.09-.1-1.46-.71-2.39-2.17-3.05-3.6-.72-1.58-1.17-3.28-1.5-4.98-.35-1.78-.56-3.6-.64-5.41-.08-2.01.04-4.03.39-6.01.35-2,.94-3.97,1.67-5.86.09-.24.19-.49.29-.73.06-.14-.19-.15-.24-.05-.92,1.88-1.61,3.87-2.04,5.92Z"/>
          <path class="st2" d="M138.43,446.73c-.41,1.99-.57,4.01-.53,6.04.04,1.9.25,3.8.61,5.67.33,1.71.78,3.41,1.48,5.01.65,1.48,1.56,2.97,2.96,3.84.16.1.33.19.5.27.07.03.18-.06.09-.1-1.46-.71-2.39-2.17-3.05-3.6-.72-1.58-1.17-3.28-1.5-4.98-.35-1.78-.56-3.6-.64-5.41-.08-2.01.04-4.03.39-6.01.35-2,.94-3.97,1.67-5.86.09-.24.19-.49.29-.73.06-.14-.19-.15-.24-.05-.92,1.88-1.61,3.87-2.04,5.92Z"/>
          <path class="st2" d="M147.19,452.01c-.41,1.99-.57,4.01-.53,6.04.04,1.9.25,3.8.61,5.67.33,1.71.78,3.41,1.48,5.01.65,1.48,1.56,2.97,2.96,3.84.16.1.33.19.5.27.07.03.18-.06.09-.1-1.46-.71-2.39-2.17-3.05-3.6-.72-1.58-1.17-3.28-1.5-4.98-.35-1.78-.56-3.6-.64-5.41-.08-2.01.04-4.03.39-6.01.35-2,.94-3.97,1.67-5.86.09-.24.19-.49.29-.73.06-.14-.19-.15-.24-.05-.92,1.88-1.61,3.87-2.04,5.92Z"/>
          <path class="st2" d="M154.54,455.94c-.41,1.99-.57,4.01-.53,6.04.04,1.9.25,3.8.61,5.67.33,1.71.78,3.41,1.48,5.01.65,1.48,1.56,2.97,2.96,3.84.16.1.33.19.5.27.07.03.18-.06.09-.1-1.46-.71-2.39-2.17-3.05-3.6-.72-1.58-1.17-3.28-1.5-4.98-.35-1.78-.56-3.6-.64-5.41-.08-2.01.04-4.03.39-6.01.35-2,.94-3.97,1.67-5.86.09-.24.19-.49.29-.73.06-.14-.19-.15-.24-.05-.92,1.88-1.61,3.87-2.04,5.92Z"/>
          <path class="st2" d="M163.59,459.79c-.41,1.99-.57,4.01-.53,6.04.04,1.9.25,3.8.61,5.67.33,1.71.78,3.41,1.48,5.01.65,1.48,1.56,2.97,2.96,3.84.16.1.33.19.5.27.07.03.18-.06.09-.1-1.46-.71-2.39-2.17-3.05-3.6-.72-1.58-1.17-3.28-1.5-4.98-.35-1.78-.56-3.6-.64-5.41-.08-2.01.04-4.03.39-6.01.35-2,.94-3.97,1.67-5.86.09-.24.19-.49.29-.73.06-.14-.19-.15-.24-.05-.92,1.88-1.61,3.87-2.04,5.92Z"/>
          <path class="st2" d="M171.86,462.9c-.41,1.99-.57,4.01-.53,6.04.04,1.9.25,3.8.61,5.67.33,1.71.78,3.41,1.48,5.01.65,1.48,1.56,2.97,2.96,3.84.16.1.33.19.5.27.07.03.18-.06.09-.1-1.46-.71-2.39-2.17-3.05-3.6-.72-1.58-1.17-3.28-1.5-4.98-.35-1.78-.56-3.6-.64-5.41-.08-2.01.04-4.03.39-6.01.35-2,.94-3.97,1.67-5.86.09-.24.19-.49.29-.73.06-.14-.19-.15-.24-.05-.92,1.88-1.61,3.87-2.04,5.92Z"/>
          <path class="st2" d="M182.26,465.42c-.41,1.99-.57,4.01-.53,6.04.04,1.9.25,3.8.61,5.67.33,1.71.78,3.41,1.48,5.01.65,1.48,1.56,2.97,2.96,3.84.16.1.33.19.5.27.07.03.18-.06.09-.1-1.46-.71-2.39-2.17-3.05-3.6-.72-1.58-1.17-3.28-1.5-4.98-.35-1.78-.56-3.6-.64-5.41-.08-2.01.04-4.03.39-6.01.35-2,.94-3.97,1.67-5.86.09-.24.19-.49.29-.73.06-.14-.19-.15-.24-.05-.92,1.88-1.61,3.87-2.04,5.92Z"/>
          <path class="st2" d="M191.1,465.42c-.41,1.99-.57,4.01-.53,6.04.04,1.9.25,3.8.61,5.67.33,1.71.78,3.41,1.48,5.01.65,1.48,1.56,2.97,2.96,3.84.16.1.33.19.5.27.07.03.18-.06.09-.1-1.46-.71-2.39-2.17-3.05-3.6-.72-1.58-1.17-3.28-1.5-4.98-.35-1.78-.56-3.6-.64-5.41-.08-2.01.04-4.03.39-6.01.35-2,.94-3.97,1.67-5.86.09-.24.19-.49.29-.73.06-.14-.19-.15-.24-.05-.92,1.88-1.61,3.87-2.04,5.92Z"/>
          <path class="st2" d="M196.53,462.9c-.41,1.99-.57,4.01-.53,6.04.04,1.9.25,3.8.61,5.67.33,1.71.78,3.41,1.48,5.01.65,1.48,1.56,2.97,2.96,3.84.16.1.33.19.5.27.07.03.18-.06.09-.1-1.46-.71-2.39-2.17-3.05-3.6-.72-1.58-1.17-3.28-1.5-4.98-.35-1.78-.56-3.6-.64-5.41-.08-2.01.04-4.03.39-6.01.35-2,.94-3.97,1.67-5.86.09-.24.19-.49.29-.73.06-.14-.19-.15-.24-.05-.92,1.88-1.61,3.87-2.04,5.92Z"/>
          <path class="st2" d="M78.37,396.42c-.41,1.99-.57,4.01-.53,6.04.04,1.9.25,3.8.61,5.67.33,1.71.78,3.41,1.48,5.01.65,1.48,1.56,2.97,2.96,3.84.16.1.33.19.5.27.07.03.18-.06.09-.1-1.46-.71-2.39-2.17-3.05-3.6-.72-1.58-1.17-3.28-1.5-4.98-.35-1.78-.56-3.6-.64-5.41-.08-2.01.04-4.03.39-6.01.35-2,.94-3.97,1.67-5.86.09-.24.19-.49.29-.73.06-.14-.19-.15-.24-.05-.92,1.88-1.61,3.87-2.04,5.92Z"/>
          <path class="st2" d="M86.12,410.28c-.41,1.99-.57,4.01-.53,6.04.04,1.9.25,3.8.61,5.67.33,1.71.78,3.41,1.48,5.01.65,1.48,1.56,2.97,2.96,3.84.16.1.33.19.5.27.07.03.18-.06.09-.1-1.46-.71-2.39-2.17-3.05-3.6-.72-1.58-1.17-3.28-1.5-4.98-.35-1.78-.56-3.6-.64-5.41-.08-2.01.04-4.03.39-6.01.35-2,.94-3.97,1.67-5.86.09-.24.19-.49.29-.73.06-.14-.19-.15-.24-.05-.92,1.88-1.61,3.87-2.04,5.92Z"/>
          <path class="st2" d="M94.65,423.69c-.41,1.99-.57,4.01-.53,6.04.04,1.9.25,3.8.61,5.67.33,1.71.78,3.41,1.48,5.01.65,1.48,1.56,2.97,2.96,3.84.16.1.33.19.5.27.07.03.18-.06.09-.1-1.46-.71-2.39-2.17-3.05-3.6-.72-1.58-1.17-3.28-1.5-4.98-.35-1.78-.56-3.6-.64-5.41-.08-2.01.04-4.03.39-6.01.35-2,.94-3.97,1.67-5.86.09-.24.19-.49.29-.73.06-.14-.19-.15-.24-.05-.92,1.88-1.61,3.87-2.04,5.92Z"/>
          <path class="st2" d="M106.97,437.1c-.41,1.99-.57,4.01-.53,6.04.04,1.9.25,3.8.61,5.67.33,1.71.78,3.41,1.48,5.01.65,1.48,1.56,2.97,2.96,3.84.16.1.33.19.5.27.07.03.18-.06.09-.1-1.46-.71-2.39-2.17-3.05-3.6-.72-1.58-1.17-3.28-1.5-4.98-.35-1.78-.56-3.6-.64-5.41-.08-2.01.04-4.03.39-6.01.35-2,.94-3.97,1.67-5.86.09-.24.19-.49.29-.73.06-.14-.19-.15-.24-.05-.92,1.88-1.61,3.87-2.04,5.92Z"/>
          <path class="st2" d="M116.04,445.79c-.41,1.99-.57,4.01-.53,6.04.04,1.9.25,3.8.61,5.67.33,1.71.78,3.41,1.48,5.01.65,1.48,1.56,2.97,2.96,3.84.16.1.33.19.5.27.07.03.18-.06.09-.1-1.46-.71-2.39-2.17-3.05-3.6-.72-1.58-1.17-3.28-1.5-4.98-.35-1.78-.56-3.6-.64-5.41-.08-2.01.04-4.03.39-6.01.35-2,.94-3.97,1.67-5.86.09-.24.19-.49.29-.73.06-.14-.19-.15-.24-.05-.92,1.88-1.61,3.87-2.04,5.92Z"/>
          <path class="st2" d="M126.53,454.37c-.41,1.99-.57,4.01-.53,6.04.04,1.9.25,3.8.61,5.67.33,1.71.78,3.41,1.48,5.01.65,1.48,1.56,2.97,2.96,3.84.16.1.33.19.5.27.07.03.18-.06.09-.1-1.46-.71-2.39-2.17-3.05-3.6-.72-1.58-1.17-3.28-1.5-4.98-.35-1.78-.56-3.6-.64-5.41-.08-2.01.04-4.03.39-6.01.35-2,.94-3.97,1.67-5.86.09-.24.19-.49.29-.73.06-.14-.19-.15-.24-.05-.92,1.88-1.61,3.87-2.04,5.92Z"/>
          <path class="st2" d="M137.75,461.32c-.41,1.99-.57,4.01-.53,6.04.04,1.9.25,3.8.61,5.67.33,1.71.78,3.41,1.48,5.01.65,1.48,1.56,2.97,2.96,3.84.16.1.33.19.5.27.07.03.18-.06.09-.1-1.46-.71-2.39-2.17-3.05-3.6-.72-1.58-1.17-3.28-1.5-4.98-.35-1.78-.56-3.6-.64-5.41-.08-2.01.04-4.03.39-6.01.35-2,.94-3.97,1.67-5.86.09-.24.19-.49.29-.73.06-.14-.19-.15-.24-.05-.92,1.88-1.61,3.87-2.04,5.92Z"/>
          <path class="st2" d="M150.79,469.56c-.41,1.99-.57,4.01-.53,6.04.04,1.9.25,3.8.61,5.67.33,1.71.78,3.41,1.48,5.01.65,1.48,1.56,2.97,2.96,3.84.16.1.33.19.5.27.07.03.18-.06.09-.1-1.46-.71-2.39-2.17-3.05-3.6-.72-1.58-1.17-3.28-1.5-4.98-.35-1.78-.56-3.6-.64-5.41-.08-2.01.04-4.03.39-6.01.35-2,.94-3.97,1.67-5.86.09-.24.19-.49.29-.73.06-.14-.19-.15-.24-.05-.92,1.88-1.61,3.87-2.04,5.92Z"/>
          <path class="st2" d="M163.59,474.73c-.41,1.99-.57,4.01-.53,6.04.04,1.9.25,3.8.61,5.67.33,1.71.78,3.41,1.48,5.01.65,1.48,1.56,2.97,2.96,3.84.16.1.33.19.5.27.07.03.18-.06.09-.1-1.46-.71-2.39-2.17-3.05-3.6-.72-1.58-1.17-3.28-1.5-4.98-.35-1.78-.56-3.6-.64-5.41-.08-2.01.04-4.03.39-6.01.35-2,.94-3.97,1.67-5.86.09-.24.19-.49.29-.73.06-.14-.19-.15-.24-.05-.92,1.88-1.61,3.87-2.04,5.92Z"/>
          <path class="st2" d="M174.71,478.83c-.41,1.99-.57,4.01-.53,6.04.04,1.9.25,3.8.61,5.67.33,1.71.78,3.41,1.48,5.01.65,1.48,1.56,2.97,2.96,3.84.16.1.33.19.5.27.07.03.18-.06.09-.1-1.46-.71-2.39-2.17-3.05-3.6-.72-1.58-1.17-3.28-1.5-4.98-.35-1.78-.56-3.6-.64-5.41-.08-2.01.04-4.03.39-6.01.35-2,.94-3.97,1.67-5.86.09-.24.19-.49.29-.73.06-.14-.19-.15-.24-.05-.92,1.88-1.61,3.87-2.04,5.92Z"/>
          <path class="st2" d="M188.26,480.82c-.41,1.99-.57,4.01-.53,6.04.04,1.9.25,3.8.61,5.67.33,1.71.78,3.41,1.48,5.01.65,1.48,1.56,2.97,2.96,3.84.16.1.33.19.5.27.07.03.18-.06.09-.1-1.46-.71-2.39-2.17-3.05-3.6-.72-1.58-1.17-3.28-1.5-4.98-.35-1.78-.56-3.6-.64-5.41-.08-2.01.04-4.03.39-6.01.35-2,.94-3.97,1.67-5.86.09-.24.19-.49.29-.73.06-.14-.19-.15-.24-.05-.92,1.88-1.61,3.87-2.04,5.92Z"/>
          <path class="st2" d="M195.08,480.19c-.41,1.99-.57,4.01-.53,6.04.04,1.9.25,3.8.61,5.67.33,1.71.78,3.41,1.48,5.01.65,1.48,1.56,2.97,2.96,3.84.16.1.33.19.5.27.07.03.18-.06.09-.1-1.46-.71-2.39-2.17-3.05-3.6-.72-1.58-1.17-3.28-1.5-4.98-.35-1.78-.56-3.6-.64-5.41-.08-2.01.04-4.03.39-6.01.35-2,.94-3.97,1.67-5.86.09-.24.19-.49.29-.73.06-.14-.19-.15-.24-.05-.92,1.88-1.61,3.87-2.04,5.92Z"/>
          <path class="st2" d="M70.14,413.18c-.41,1.99-.57,4.01-.53,6.04.04,1.9.25,3.8.61,5.67.33,1.71.78,3.41,1.48,5.01.65,1.48,1.56,2.97,2.96,3.84.16.1.33.19.5.27.07.03.18-.06.09-.1-1.46-.71-2.39-2.17-3.05-3.6-.72-1.58-1.17-3.28-1.5-4.98-.35-1.78-.56-3.6-.64-5.41-.08-2.01.04-4.03.39-6.01.35-2,.94-3.97,1.67-5.86.09-.24.19-.49.29-.73.06-.14-.19-.15-.24-.05-.92,1.88-1.61,3.87-2.04,5.92Z"/>
          <path class="st2" d="M77.72,419.95c-.41,1.99-.57,4.01-.53,6.04.04,1.9.25,3.8.61,5.67.33,1.71.78,3.41,1.48,5.01.65,1.48,1.56,2.97,2.96,3.84.16.1.33.19.5.27.07.03.18-.06.09-.1-1.46-.71-2.39-2.17-3.05-3.6-.72-1.58-1.17-3.28-1.5-4.98-.35-1.78-.56-3.6-.64-5.41-.08-2.01.04-4.03.39-6.01.35-2,.94-3.97,1.67-5.86.09-.24.19-.49.29-.73.06-.14-.19-.15-.24-.05-.92,1.88-1.61,3.87-2.04,5.92Z"/>
          <path class="st2" d="M87.88,431.71c-.41,1.99-.57,4.01-.53,6.04.04,1.9.25,3.8.61,5.67.33,1.71.78,3.41,1.48,5.01.65,1.48,1.56,2.97,2.96,3.84.16.1.33.19.5.27.07.03.18-.06.09-.1-1.46-.71-2.39-2.17-3.05-3.6-.72-1.58-1.17-3.28-1.5-4.98-.35-1.78-.56-3.6-.64-5.41-.08-2.01.04-4.03.39-6.01.35-2,.94-3.97,1.67-5.86.09-.24.19-.49.29-.73.06-.14-.19-.15-.24-.05-.92,1.88-1.61,3.87-2.04,5.92Z"/>
          <path class="st2" d="M97.49,443.74c-.41,1.99-.57,4.01-.53,6.04.04,1.9.25,3.8.61,5.67.33,1.71.78,3.41,1.48,5.01.65,1.48,1.56,2.97,2.96,3.84.16.1.33.19.5.27.07.03.18-.06.09-.1-1.46-.71-2.39-2.17-3.05-3.6-.72-1.58-1.17-3.28-1.5-4.98-.35-1.78-.56-3.6-.64-5.41-.08-2.01.04-4.03.39-6.01.35-2,.94-3.97,1.67-5.86.09-.24.19-.49.29-.73.06-.14-.19-.15-.24-.05-.92,1.88-1.61,3.87-2.04,5.92Z"/>
          <path class="st2" d="M106.97,452.01c-.41,1.99-.57,4.01-.53,6.04.04,1.9.25,3.8.61,5.67.33,1.71.78,3.41,1.48,5.01.65,1.48,1.56,2.97,2.96,3.84.16.1.33.19.5.27.07.03.18-.06.09-.1-1.46-.71-2.39-2.17-3.05-3.6-.72-1.58-1.17-3.28-1.5-4.98-.35-1.78-.56-3.6-.64-5.41-.08-2.01.04-4.03.39-6.01.35-2,.94-3.97,1.67-5.86.09-.24.19-.49.29-.73.06-.14-.19-.15-.24-.05-.92,1.88-1.61,3.87-2.04,5.92Z"/>
          <path class="st2" d="M119.91,462.36c-.41,1.99-.57,4.01-.53,6.04.04,1.9.25,3.8.61,5.67.33,1.71.78,3.41,1.48,5.01.65,1.48,1.56,2.97,2.96,3.84.16.1.33.19.5.27.07.03.18-.06.09-.1-1.46-.71-2.39-2.17-3.05-3.6-.72-1.58-1.17-3.28-1.5-4.98-.35-1.78-.56-3.6-.64-5.41-.08-2.01.04-4.03.39-6.01.35-2,.94-3.97,1.67-5.86.09-.24.19-.49.29-.73.06-.14-.19-.15-.24-.05-.92,1.88-1.61,3.87-2.04,5.92Z"/>
          <path class="st2" d="M132.85,471.39c-.41,1.99-.57,4.01-.53,6.04.04,1.9.25,3.8.61,5.67.33,1.71.78,3.41,1.48,5.01.65,1.48,1.56,2.97,2.96,3.84.16.1.33.19.5.27.07.03.18-.06.09-.1-1.46-.71-2.39-2.17-3.05-3.6-.72-1.58-1.17-3.28-1.5-4.98-.35-1.78-.56-3.6-.64-5.41-.08-2.01.04-4.03.39-6.01.35-2,.94-3.97,1.67-5.86.09-.24.19-.49.29-.73.06-.14-.19-.15-.24-.05-.92,1.88-1.61,3.87-2.04,5.92Z"/>
          <path class="st2" d="M145.1,479.47c-.41,1.99-.57,4.01-.53,6.04.04,1.9.25,3.8.61,5.67.33,1.71.78,3.41,1.48,5.01.65,1.48,1.56,2.97,2.96,3.84.16.1.33.19.5.27.07.03.18-.06.09-.1-1.46-.71-2.39-2.17-3.05-3.6-.72-1.58-1.17-3.28-1.5-4.98-.35-1.78-.56-3.6-.64-5.41-.08-2.01.04-4.03.39-6.01.35-2,.94-3.97,1.67-5.86.09-.24.19-.49.29-.73.06-.14-.19-.15-.24-.05-.92,1.88-1.61,3.87-2.04,5.92Z"/>
          <path class="st2" d="M156.48,483.98c-.41,1.99-.57,4.01-.53,6.04.04,1.9.25,3.8.61,5.67.33,1.71.78,3.41,1.48,5.01.65,1.48,1.56,2.97,2.96,3.84.16.1.33.19.5.27.07.03.18-.06.09-.1-1.46-.71-2.39-2.17-3.05-3.6-.72-1.58-1.17-3.28-1.5-4.98-.35-1.78-.56-3.6-.64-5.41-.08-2.01.04-4.03.39-6.01.35-2,.94-3.97,1.67-5.86.09-.24.19-.49.29-.73.06-.14-.19-.15-.24-.05-.92,1.88-1.61,3.87-2.04,5.92Z"/>
          <path class="st2" d="M169.7,486.96c-.41,1.99-.57,4.01-.53,6.04.04,1.9.25,3.8.61,5.67.33,1.71.78,3.41,1.48,5.01.65,1.48,1.56,2.97,2.96,3.84.16.1.33.19.5.27.07.03.18-.06.09-.1-1.46-.71-2.39-2.17-3.05-3.6-.72-1.58-1.17-3.28-1.5-4.98-.35-1.78-.56-3.6-.64-5.41-.08-2.01.04-4.03.39-6.01.35-2,.94-3.97,1.67-5.86.09-.24.19-.49.29-.73.06-.14-.19-.15-.24-.05-.92,1.88-1.61,3.87-2.04,5.92Z"/>
          <path class="st2" d="M181.31,490.4c-.41,1.99-.57,4.01-.53,6.04.04,1.9.25,3.8.61,5.67.33,1.71.78,3.41,1.48,5.01.65,1.48,1.56,2.97,2.96,3.84.16.1.33.19.5.27.07.03.18-.06.09-.1-1.46-.71-2.39-2.17-3.05-3.6-.72-1.58-1.17-3.28-1.5-4.98-.35-1.78-.56-3.6-.64-5.41-.08-2.01.04-4.03.39-6.01.35-2,.94-3.97,1.67-5.86.09-.24.19-.49.29-.73.06-.14-.19-.15-.24-.05-.92,1.88-1.61,3.87-2.04,5.92Z"/>
          <path class="st2" d="M191.74,494.73c-.41,1.99-.57,4.01-.53,6.04.04,1.9.25,3.8.61,5.67.33,1.71.78,3.41,1.48,5.01.65,1.48,1.56,2.97,2.96,3.84.16.1.33.19.5.27.07.03.18-.06.09-.1-1.46-.71-2.39-2.17-3.05-3.6-.72-1.58-1.17-3.28-1.5-4.98-.35-1.78-.56-3.6-.64-5.41-.08-2.01.04-4.03.39-6.01.35-2,.94-3.97,1.67-5.86.09-.24.19-.49.29-.73.06-.14-.19-.15-.24-.05-.92,1.88-1.61,3.87-2.04,5.92Z"/>
          <path class="st2" d="M55.55,352.18c-.41,1.99-.57,4.01-.53,6.04.04,1.9.25,3.8.61,5.67.33,1.71.78,3.41,1.48,5.01.65,1.48,1.56,2.97,2.96,3.84.16.1.33.19.5.27.07.03.18-.06.09-.1-1.46-.71-2.39-2.17-3.05-3.6-.72-1.58-1.17-3.28-1.5-4.98-.35-1.78-.56-3.6-.64-5.41-.08-2.01.04-4.03.39-6.01.35-2,.94-3.97,1.67-5.86.09-.24.19-.49.29-.73.06-.14-.19-.15-.24-.05-.92,1.88-1.61,3.87-2.04,5.92Z"/>
          <path class="st2" d="M60.56,346.54c-.41,1.99-.57,4.01-.53,6.04.04,1.9.25,3.8.61,5.67.33,1.71.78,3.41,1.48,5.01.65,1.48,1.56,2.97,2.96,3.84.16.1.33.19.5.27.07.03.18-.06.09-.1-1.46-.71-2.39-2.17-3.05-3.6-.72-1.58-1.17-3.28-1.5-4.98-.35-1.78-.56-3.6-.64-5.41-.08-2.01.04-4.03.39-6.01.35-2,.94-3.97,1.67-5.86.09-.24.19-.49.29-.73.06-.14-.19-.15-.24-.05-.92,1.88-1.61,3.87-2.04,5.92Z"/>
          <path class="st2" d="M52.03,317.83c-.41,1.99-.57,4.01-.53,6.04.04,1.9.25,3.8.61,5.67.33,1.71.78,3.41,1.48,5.01.65,1.48,1.56,2.97,2.96,3.84.16.1.33.19.5.27.07.03.18-.06.09-.1-1.46-.71-2.39-2.17-3.05-3.6-.72-1.58-1.17-3.28-1.5-4.98-.35-1.78-.56-3.6-.64-5.41-.08-2.01.04-4.03.39-6.01.35-2,.94-3.97,1.67-5.86.09-.24.19-.49.29-.73.06-.14-.19-.15-.24-.05-.92,1.88-1.61,3.87-2.04,5.92Z"/>
        </g>
      </g>
    </g>
  </g>
</svg>