<?xml version="1.0" encoding="UTF-8"?>
<svg id="Layer_1" xmlns="http://www.w3.org/2000/svg" version="1.1" viewBox="0 0 400 600">
  <!-- Generator: Adobe Illustrator 29.5.1, SVG Export Plug-In . SVG Version: 2.1.0 Build 141)  -->
  <defs>
    <style>
      .st0 {
        fill-rule: evenodd;
        stroke: #000;
		stroke-width:0.4;
		fill:$[hairColor];
      }
    </style>
  </defs>
  <path id="beard2" class="st0" d="M200,410c55,0,55,15,55,30,70,0,85-35,85-140h10c0,130-13.43,154.13-23.43,164.13s-76.57,55.87-126.57,55.87-116.48-45.87-126.48-55.87-23.52-34.13-23.52-164.13h10c0,105,15,140,85,140,0-15,0-30,55-30ZM155,440c0,20,5,30,25,30,10,0,10-10,20-10s10,10,20,10c20,0,25-10,25-30s-15-20-45-20-45,0-45,20Z"/>
</svg>