<?xml version="1.0" encoding="UTF-8"?>
<svg id="Layer_1" xmlns="http://www.w3.org/2000/svg" version="1.1" viewBox="0 0 400 600">
  <!-- Generator: Adobe Illustrator 29.5.1, SVG Export Plug-In . SVG Version: 2.1.0 Build 141)  -->
  <defs>
    <style>
      .st0 {
        fill-rule: evenodd;
        stroke: #000;
		stroke-width:0.4;
		fill:$[hairColor];
      }
    </style>
  </defs>
  <path id="beard1" class="st0" d="M200,410c45,0,50,10,50,10,30,0,90-15,90-120h10c0,130-14,151.48-24,161.48s-76,58.52-126,58.52-116-48.52-126-58.52-24-31.48-24-161.48h10c0,105,60,120,90,120,0,0,5-10,50-10ZM155,440c0,20,5,30,25,30,10,0,10-10,20-10s10,10,20,10c20,0,25-10,25-30s-15-20-45-20-45,0-45,20Z"/>
</svg>