<?xml version="1.0" encoding="UTF-8"?>
<svg id="svg3" xmlns="http://www.w3.org/2000/svg" version="1.1" xmlns:cc="http://creativecommons.org/ns#" xmlns:dc="http://purl.org/dc/elements/1.1/" xmlns:inkscape="http://www.inkscape.org/namespaces/inkscape" xmlns:rdf="http://www.w3.org/1999/02/22-rdf-syntax-ns#" xmlns:sodipodi="http://sodipodi.sourceforge.net/DTD/sodipodi-0.dtd" xmlns:svg="http://www.w3.org/2000/svg" viewBox="0 0 400 600">
  <!-- Generator: Adobe Illustrator 29.5.1, SVG Export Plug-In . SVG Version: 2.1.0 Build 141)  -->
  <defs>
    <style>
      .st0 {
        stroke: #000;
      }
    </style>
  </defs>
  <sodipodi:namedview id="namedview5" bordercolor="#666666" borderopacity="1" gridtolerance="10" guidetolerance="10" inkscape:current-layer="svg3" inkscape:cx="247.89175" inkscape:cy="448.22416" inkscape:document-rotation="0" inkscape:guide-bbox="true" inkscape:pageopacity="0" inkscape:pageshadow="2" inkscape:window-height="1417" inkscape:window-maximized="1" inkscape:window-width="2560" inkscape:window-x="1912" inkscape:window-y="-8" inkscape:zoom="9.5035151" objecttolerance="10" pagecolor="#ffffff" showgrid="false" showguides="true">
    <sodipodi:guide id="guide11" orientation="0,-1" position="203.27381,87.797619"/>
  </sodipodi:namedview>
  <path id="honest_abe" class="st0" d="M341.86,329.76c-18.78,98.42-39.49,102.79-40.73,106.12-16.86,17.72-52.86,38.72-62.49,41.41-18.05,5.04-27.17,6.53-27.22,4.6-.08-2.84,0-14.95,0-14.95,0,0-7.23-.02-11.19,0-3.99.02-11.47,0-11.47,0,0,0,.03,11.26,0,14.95-.02,2.55-15.62-1-29.08-4.6-9.66-2.58-48.65-24.5-61.95-42.67-2.08-2.47-22.7-13.45-39.52-104.86h-10c6.25,93.09,14.94,106.35,17.26,110.89,0,0,59.95,67.54,134.75,67.61,75,.06,132.9-67.61,132.9-67.61,2.6-5.72,8.11-11.64,18.73-110.89h-10Z" sodipodi:nodetypes="ccsscscssccccsccc"/>
  <path id="mustache1" class="st0" d="M150,425c-5-5,25-20,35-20,5,0,10,5,15,5s10-5,15-5c10,0,40,15,35,20s-5-5-50-5-45,10-50,5Z"/>
</svg>