<?xml version="1.0" encoding="UTF-8"?>
<svg id="Layer_1" xmlns="http://www.w3.org/2000/svg" version="1.1" viewBox="0 0 400 600">
  <!-- Generator: Adobe Illustrator 29.5.1, SVG Export Plug-In . SVG Version: 2.1.0 Build 141)  -->
  <defs>
    <style>
      .st0 {
        fill: #fff;
      }

      .st1 {
        opacity: .25;
      }

      .st2 {
        fill: #222;
      }
    </style>
  </defs>
  <g id="beard_3">
    <path id="beard" class="st2" d="M47.37,298.72c0,5.13-4.25,59.93-4.88,84.06-.63,24.13,6.26,40.05,6.26,40.05l1.88-8.73c1.88,21.05,41.31,64.7,41.31,64.7l1.25-7.19c10.64,21.05,51.96,55.97,78.25,67.78,26.29,11.81,28.8,17.97,28.8,17.97,0,0,2.5-6.16,28.8-17.97,26.29-11.81,67.61-46.73,78.25-67.78l1.25,7.19s39.44-43.65,41.31-64.7l1.88,8.73s6.89-15.92,6.26-40.05c-.63-24.13-5.14-79.62-5.14-84.76-2.61,0-5.61-.61-5.61-.61,0,0-10.65,25.97-24.97,93.84-21.28,26.7-33.77,42.37-45.66,55.2-11.89,12.84-45.7,38.51-48.2,34.4-2.5-4.11-13.77-9.76-17.53-11.3-2.82-1.16-.23-11.13-3.66-15.75-1.14-1.54-4.63-1.58-6.98-1.71-2.35.13-5.42.04-6.56,1.59-3.43,4.62-1.27,14.72-4.08,15.87-3.76,1.54-15.02,7.19-17.53,11.3-2.5,4.11-36.31-21.57-48.2-34.4-11.89-12.84-25.27-30.04-46.55-56.74-14.7-56.37-23.95-92.3-23.95-92.3"/>
    <g id="details" class="st1">
      <path class="st0" d="M308.54,478.8s39.44-43.65,41.31-64.7l1.88,8.73s6.89-15.92,6.26-40.05c-.13-5.05-1.09-12.23-.82-18.46-6.26,48.24-42.46,91.92-42.46,91.92l10.66-44.82s-42.9,89.73-77.84,98.74c-34.94,9.01-46.5-25.69-46.5-25.69-2.67-6.66-21.05,32.65-49.34,22.04-57.48-21.54-68.92-88.3-68.92-88.3l4.63,33.48s-37.67-37.78-44.15-86.32c.07-1.38-.42,8.6-.42,8.6.01,2.1-.27,6.93-.32,8.82-.63,24.13,6.26,40.05,6.26,40.05l1.88-8.73c1.88,21.05,41.31,64.7,41.31,64.7l1.25-7.19c10.64,21.05,51.96,55.97,78.25,67.78,26.29,11.81,28.8,17.97,28.8,17.97,0,0,2.5-6.16,28.79-17.97,26.29-11.81,67.61-46.73,78.25-67.78l1.25,7.19Z"/>
      <path class="st0" d="M359.12,350.22s0,0,0,0h0s0,0,0,0Z"/>
    </g>
  </g>
</svg>