<?xml version="1.0" encoding="UTF-8"?>
<svg id="Layer_1" xmlns="http://www.w3.org/2000/svg" version="1.1" viewBox="0 0 400 600">
  <!-- Generator: Adobe Illustrator 29.5.1, SVG Export Plug-In . SVG Version: 2.1.0 Build 141)  -->
  <defs>
    <style>
      .st0 {
        fill: #fff;
      }

      .st1 {
        opacity: .25;
      }

      .st2 {
        fill: #251f12;
      }
    </style>
  </defs>
  <g id="beard_5">
    <path id="beard" class="st2" d="M348.7,412.16c.28-1.87-.15-4.53-.98-6.94-.4-1.27-.68-2.51-.85-3.67,1.25-24.41,3.48-61.95,2.21-62.1-1.69-.2-11.03-1.3-11.03-1.3,0,0-16.57,74.82-34.78,86.91-2.46,1.63-9.09,7.47-21.53,6.1-12.44-1.37-21.5-25.72-25.13-27.78-7.26-4.14-16.94-7.06-29.39-9.73-12.45-2.68-19.36,2.19-27.31,2.19s-14.87-4.87-27.31-2.19c-12.45,2.68-22.13,5.6-29.39,9.73-2.9,1.65-12.33,26.52-22.03,27.78-14.6,1.91-23.16-2.59-25.2-5.48-21.41-30.27-33.1-80.49-33.1-80.49,0,0-9.25.34-11.69.43s1.39,47.4,1.73,53.97c.02.32.02,1.38.08,3.03-.17,1.23-.45,2.56-.88,3.93-.83,2.4-1.25,5.07-.98,6.94.06.51.13.96.2,1.36-.74,1.9-1.11,3.85-.9,5.34.19,1.88.6,3.08.6,3.08,0,0-.24-1.24-.17-3.09.01-1.39.52-3.02,1.37-4.68-.44,1.48-.63,2.92-.46,4.08.14,1.35.39,2.34.52,2.8-.08.33-.16.65-.21.97-.21,1.22-.13,2.36,0,3.31.32,1.89.82,3.08.82,3.08,0,0-.15-1.26.04-3.09.14-1.67.99-3.59,2.33-5.54.03.16.07.33.11.5-1,2.18-1.53,4.52-1.29,6.25.03.29.07.56.1.82-.05.23-.11.45-.15.68-.21,1.22-.13,2.36,0,3.31.32,1.89.82,3.08.82,3.08,0,0-.15-1.26.04-3.09.1-1.14.52-2.39,1.2-3.68.03.13.06.26.09.39.01.06.02.13.03.18-.19,1-.25,1.94-.14,2.75.13,1.29.36,2.25.5,2.73,0,.18-.02.37-.01.54,0,.11,0,.21-.02.32-.29,2.47-.12,5.15.56,6.96.17.49.34.93.49,1.31-.31,1.97-.25,3.93.28,5.38.6,1.83,1.27,2.97,1.27,2.97,0,0-.51-1.19-.85-3.03-.29-1.37-.15-3.04.33-4.78-.11,1.51.02,2.95.44,4.08.43,1.31.89,2.26,1.12,2.7-.01.33-.01.66,0,.98.06,1.23.39,2.34.72,3.26.73,1.83,1.48,2.94,1.48,2.94,0,0-.43-1.22-.64-3.05-.24-1.78.25-3.94,1.28-6.18.05.07.11.16.17.25,0,.03-.01.06-.02.09-.64,2.44-.7,5.08-.03,6.9.09.28.19.54.28.79,0,.23,0,.46,0,.69.06,1.23.39,2.34.72,3.26.73,1.83,1.48,2.94,1.48,2.94,0,0-.43-1.22-.64-3.05-.19-1.37.06-2.96.65-4.64-.12,1.53.01,3,.43,4.14.41,1.25.85,2.17,1.09,2.63.08.44.18.85.31,1.23.6,1.83,1.27,2.97,1.27,2.97,0,0-.51-1.19-.85-3.03-.17-.82-.19-1.76-.07-2.74.23.57.49,1.11.77,1.61.43.86.76,1.35.76,1.35,0,0-.05-.14-.11-.37.1.13.19.27.3.39.63.79,1.22,1.42,1.65,1.86.3.86.66,1.64,1.06,2.29.27.47.53.88.77,1.24.12,1.98.6,3.91,1.44,5.27.99,1.73,1.9,2.78,1.9,2.78,0,0-.76-1.12-1.49-2.88-.58-1.32-.81-2.98-.71-4.76.22,1.51.66,2.91,1.31,3.97.71,1.24,1.37,2.12,1.69,2.52.06.33.13.65.22.97.32,1.21.89,2.27,1.41,3.13,1.12,1.71,2.1,2.72,2.1,2.72,0,0-.69-1.15-1.29-2.94-.65-1.81-.6-4.12,0-6.59.05-.21.08-.41.12-.62.02.42.04.84.03,1.27-.1,2.49.41,5.1,1.46,6.81.15.27.3.52.45.75.05.23.09.46.15.68.32,1.21.89,2.27,1.41,3.13,1.12,1.71,2.1,2.72,2.1,2.72,0,0-.69-1.15-1.29-2.94-.48-1.33-.58-2.93-.36-4.66.22,1.53.66,2.96,1.32,4.03.68,1.19,1.31,2.04,1.64,2.47.17.42.36.82.57,1.17.99,1.73,1.9,2.78,1.9,2.78,0,0-.76-1.12-1.49-2.88-.36-.82-.58-1.77-.67-2.8.02.04.04.08.06.11,1.12,1.71,2.1,2.72,2.1,2.72,0,0-.69-1.15-1.29-2.94-.32-.88-.47-1.89-.47-2.97.15.36.32.71.51,1.02.09.17.19.32.28.47.22,1.46.66,2.82,1.29,3.85.15.26.29.5.44.73.05.25.1.49.17.73.32,1.21.89,2.27,1.41,3.13,1.12,1.71,2.1,2.72,2.1,2.72,0,0-.69-1.15-1.29-2.94-.48-1.34-.58-2.95-.36-4.69.14.54.26,1.1.36,1.67.35,2.47,1.32,5.01,2.67,6.6,1.29,1.62,2.38,2.56,2.38,2.56,0,0-.95-1.03-2-2.71-.93-1.42-1.48-3.35-1.64-5.41.41.92.91,1.76,1.47,2.42,1.29,1.62,2.38,2.56,2.38,2.56,0,0-.95-1.03-2-2.7-.81-1.25-1.34-2.87-1.56-4.64.49,1.47,1.18,2.82,2.02,3.8.93,1.16,1.74,1.96,2.13,2.33.12.32.25.63.39.94.54,1.17,1.29,2.15,1.96,2.96,1.42,1.59,2.57,2.48,2.57,2.48,0,0-.89-1.07-1.81-2.78-.98-1.73-1.34-4.02-1.19-6.53,0-.21,0-.42,0-.63.1.41.19.83.26,1.25.35,2.47,1.32,5.01,2.67,6.6.2.25.39.48.58.7.09.22.17.44.27.66.54,1.16,1.29,2.15,1.97,2.96,1.42,1.59,2.57,2.48,2.57,2.48,0,0-.89-1.07-1.81-2.78-.72-1.27-1.1-2.84-1.2-4.58.49,1.49,1.19,2.86,2.04,3.86.89,1.11,1.67,1.89,2.08,2.28.24.4.5.77.78,1.1,1.29,1.62,2.38,2.56,2.38,2.56,0,0-.95-1.03-2-2.71-.51-.77-.89-1.69-1.17-2.7.03.03.06.07.08.1,1.42,1.59,2.57,2.48,2.57,2.48,0,0-.89-1.07-1.81-2.78-.48-.84-.8-1.82-1-2.89.22.34.44.67.69.95.12.15.24.3.36.44.49,1.42,1.16,2.73,1.98,3.69.2.24.38.47.57.68.09.24.19.48.3.71.54,1.16,1.29,2.15,1.96,2.96,1.42,1.59,2.57,2.48,2.57,2.48,0,0-.89-1.07-1.81-2.78-.82-1.45-1.2-3.29-1.22-5.32.46,1.76,1.21,3.42,2.17,4.61.46,1.14,1.04,2.18,1.72,2.97,1.29,1.62,2.38,2.56,2.38,2.56,0,0-.95-1.03-2-2.7-.21-.32-.4-.68-.57-1.05.6.63,1,.98,1,.98,0,0-.55-.59-1.26-1.6-.35-.9-.59-1.9-.72-2.96.49,1.47,1.18,2.82,2.02,3.8.93,1.16,1.74,1.96,2.13,2.33.12.32.25.63.39.94.54,1.16,1.29,2.15,1.96,2.96,1.42,1.59,2.57,2.48,2.57,2.48,0,0-.89-1.07-1.81-2.78-.98-1.73-1.34-4.02-1.19-6.52,0-.21,0-.42,0-.63.1.41.19.83.26,1.26.35,2.47,1.32,5.01,2.67,6.6.2.25.39.48.58.7.09.22.17.44.27.66.54,1.16,1.29,2.15,1.96,2.96,1.42,1.59,2.57,2.48,2.57,2.48,0,0-.89-1.07-1.81-2.78-.72-1.27-1.1-2.84-1.2-4.58.49,1.49,1.19,2.86,2.04,3.86.89,1.11,1.66,1.89,2.07,2.28.24.4.5.77.78,1.1,1.29,1.62,2.38,2.56,2.38,2.56,0,0-.95-1.03-2-2.71-.51-.77-.89-1.7-1.17-2.7.03.03.06.07.08.1,1.42,1.59,2.57,2.48,2.57,2.48,0,0-.89-1.07-1.81-2.78-.48-.84-.81-1.82-1-2.9.22.34.44.67.69.95.12.15.24.3.36.44.49,1.42,1.16,2.73,1.98,3.69.2.24.38.47.57.68.09.24.19.48.3.71.54,1.16,1.29,2.15,1.97,2.96,1.42,1.59,2.57,2.48,2.57,2.48,0,0-.89-1.07-1.81-2.78-.58-1.03-.94-2.27-1.11-3.62.93,1.05,1.61,1.65,1.61,1.65,0,0-.76-.83-1.67-2.2-.04-.51-.06-1.04-.05-1.58.06.08.12.16.18.24.93,1.16,1.74,1.96,2.13,2.33.12.32.25.63.39.94.54,1.16,1.29,2.15,1.97,2.96,1.42,1.59,2.57,2.48,2.57,2.48,0,0-.89-1.07-1.81-2.78-.98-1.73-1.34-4.02-1.19-6.52,0-.21,0-.42,0-.63.1.41.19.83.26,1.25.35,2.47,1.32,5.01,2.67,6.6.2.25.39.48.58.7.09.22.17.44.27.66.54,1.17,1.29,2.15,1.96,2.96,1.42,1.59,2.57,2.48,2.57,2.48,0,0-.89-1.07-1.81-2.78-.72-1.27-1.1-2.84-1.2-4.58.49,1.49,1.19,2.86,2.04,3.86.89,1.11,1.67,1.89,2.08,2.28.24.4.5.77.78,1.1,1.29,1.62,2.38,2.56,2.38,2.56,0,0-.95-1.03-2-2.7-.51-.77-.89-1.7-1.17-2.7.03.03.06.07.08.1,1.42,1.59,2.57,2.48,2.57,2.48,0,0-.89-1.07-1.81-2.78-.48-.84-.81-1.82-1-2.89.22.34.44.67.69.95.12.15.24.3.36.44.49,1.42,1.16,2.73,1.98,3.69.2.24.38.47.57.68.09.24.19.48.3.71.54,1.16,1.29,2.15,1.96,2.96,1.42,1.59,2.57,2.48,2.57,2.48,0,0-.89-1.07-1.81-2.78-.69-1.22-1.07-2.73-1.18-4.39.43.98.94,1.86,1.53,2.56,1.29,1.62,2.38,2.56,2.38,2.56,0,0-.95-1.03-2-2.71-.62-.95-1.07-2.13-1.35-3.42.08.2.16.4.25.59.49,1.05,1.14,1.95,1.76,2.71.47,1.22,1.07,2.33,1.79,3.17,1.29,1.62,2.38,2.56,2.38,2.56,0,0-.95-1.03-2-2.71-.3-.46-.56-.98-.78-1.53.82.8,1.38,1.24,1.38,1.24,0,0-.89-1.07-1.81-2.78,0-.01-.01-.03-.02-.05.93.93,1.58,1.43,1.58,1.43,0,0-.89-1.07-1.81-2.78-.04-.07-.08-.16-.12-.23-.07-.61-.11-1.23-.12-1.86,0-.14-.02-.28-.02-.42.49,1.78,1.27,3.44,2.26,4.6.2.25.39.48.58.7.09.22.17.44.27.66.54,1.17,1.29,2.15,1.96,2.96,1.42,1.59,2.57,2.48,2.57,2.48,0,0-.89-1.07-1.81-2.78-.72-1.27-1.1-2.84-1.2-4.58.49,1.49,1.19,2.86,2.04,3.86.89,1.11,1.67,1.89,2.07,2.28.24.4.5.77.78,1.1,1.29,1.62,2.38,2.56,2.38,2.56,0,0-.95-1.03-2-2.71-.51-.77-.89-1.7-1.17-2.7.03.03.06.07.08.1,1.42,1.59,2.57,2.48,2.57,2.48,0,0-.89-1.07-1.81-2.78-.48-.84-.81-1.82-1-2.89.22.34.44.67.69.95.12.15.24.3.36.44.49,1.42,1.16,2.73,1.98,3.69.2.24.38.47.57.68.09.24.19.48.3.71.54,1.17,1.29,2.15,1.96,2.96,1.42,1.59,2.57,2.48,2.57,2.48,0,0-.89-1.07-1.81-2.78-.76-1.35-1.15-3.05-1.21-4.92.16,1.16.55,2.21.92,3.07.87,1.8,1.69,2.88,1.69,2.88,0,0-.52-1.2-.85-3.02-.28-1.36-.15-2.96.32-4.66,0,1.54.23,2.99.73,4.11.5,1.23,1.01,2.13,1.28,2.58.11.43.24.84.4,1.21.73,1.8,1.48,2.91,1.48,2.91,0,0-.59-1.17-1.06-2.99-.24-.84-.32-1.81-.27-2.84.02.04.03.08.05.12.2.42.4.8.59,1.14.19.51.33.79.33.79,0,0-.02-.11-.04-.3.47.8.82,1.25.82,1.25,0,0-.52-1.2-.85-3.02-.04-.18-.06-.37-.08-.55,0-.15,0-.3.01-.46.01-.47.07-.96.19-1.47.06.19.13.37.21.55.07.17.14.33.21.49.01,1.47.25,2.86.73,3.94.44,1.08.88,1.91,1.17,2.4.14.45.24.7.24.7,0,0-.04-.17-.1-.46.1.17.17.27.17.27,0,0-.08-.16-.2-.43-.04-.22-.08-.49-.12-.81.09.26.18.51.28.76.48,1.18,1.19,2.19,1.82,3.01,1.34,1.62,2.45,2.55,2.45,2.55,0,0-.84-1.1-1.67-2.82-.68-1.34-.99-3-.98-4.82.31,1.61.71,2.61.71,2.61,0,0-.32-1.23-.37-3.08-.02-.34,0-.7.04-1.07.15.43.28.77.37,1,.01.72.06,1.44.18,2.13.21,1.22.67,2.31,1.11,3.2.95,1.77,1.84,2.83,1.84,2.83,0,0-.58-1.19-1.01-3-.24-.92-.29-1.95-.18-3.05.12.27.23.52.35.76.09.17.18.33.27.49.11.34.19.52.19.52,0,0-.03-.12-.07-.32.79,1.35,1.45,2.14,1.45,2.14,0,0-.58-1.19-1.01-3-.14-.54-.21-1.13-.23-1.74.42,1.21.81,1.93.81,1.93,0,0-.46-1.21-.73-3.04-.02-.09-.02-.19-.03-.28.02-.19.05-.38.08-.57.39,1.34.78,2.15.78,2.15,0,0-.19-1.04-.17-2.61.23.51.43.91.57,1.17.02.34.05.66.11.96.31,1.87.8,3.06.8,3.06,0,0-.29-1.15-.36-2.9,0,.02.01.04.02.05.07.19.14.37.2.54.05.61.15,1.18.32,1.68.14.48.28.91.42,1.29-.38,1.94-.39,3.87.08,5.31.53,1.84,1.15,3,1.15,3,0,0-.46-1.21-.73-3.04-.15-.85-.12-1.82.05-2.84.01.04.02.08.03.12.51,1.41,1.04,2.4,1.26,2.79.08.17.13.26.13.26,0,0-.01-.04-.04-.1,0,0,.01.02.01.02,0,0-.38-1.23-.51-3.07-.06-.65-.02-1.35.1-2.07.04.11.09.21.13.32.11.54.25,1.05.39,1.51-.02,1.03.09,2,.35,2.81.53,1.84,1.15,3,1.15,3,0,0-.46-1.21-.73-3.04-.06-.34-.08-.7-.09-1.06.39.84.69,1.32.69,1.32,0,0-.21-.69-.38-1.81.04.08.06.13.06.13,0,0-.03-.08-.08-.22-.05-.35-.09-.74-.13-1.17,0-.06,0-.13,0-.2.02-.11.04-.22.07-.34.05.23.11.46.18.68.53,1.84,1.15,3,1.15,3,0,0-.46-1.21-.73-3.04-.11-.65-.12-1.37-.04-2.13.08.18.14.32.2.43,0,.06.01.11.02.17.13,1.23.26,2.55.61,3.75.12.42.28.81.44,1.19-.15,1.46-.07,2.86.28,3.96.53,1.84,1.15,3,1.15,3,0,0-.46-1.21-.73-3.04-.13-.76-.12-1.62,0-2.52.11.18.22.37.32.54.03.05.07.1.1.14.39.94.74,1.61.91,1.91.08.17.13.26.13.26,0,0-.01-.04-.04-.1,0,0,.01.02.01.02,0,0-.11-.38-.24-1.02.34.44.64.79.86,1.04.49,1.53.99,2.47.99,2.47,0,0-.46-1.21-.73-3.04-.06-.34-.08-.7-.09-1.06.39.84.69,1.32.69,1.32,0,0-.21-.69-.38-1.81.04.08.06.13.06.13,0,0-.03-.08-.08-.22-.05-.35-.09-.74-.13-1.17,0-.05,0-.11,0-.17.32.91.61,1.54.75,1.82.36.94.65,1.49.65,1.49,0,0-.46-1.21-.73-3.04-.11-.65-.12-1.37-.04-2.13.08.18.14.32.2.43,0,.06.01.11.02.17.13,1.23.26,2.55.61,3.75.35,1.2.94,2.25,1.48,3.11.11.17.22.32.33.47,0,.01.01.03.02.04,0,0,0,.02,0,.02,0,0,0,0,0-.01.14.3.22.46.22.46,0,0-.04-.12-.11-.32.95,1.29,1.69,2.03,1.69,2.03,0,0-.69-1.11-1.32-2.83.28-.4.66-.98,1.08-1.69.49,1.55,1,2.5,1,2.5,0,0-.45-1.19-.72-3.01.43-.89.89-1.95,1.09-3.16.12-.69.16-1.41.18-2.13.1-.23.23-.57.37-1,.04.37.06.73.04,1.07-.02.62-.06,1.17-.12,1.62-.19.48-.32.76-.32.76,0,0,.1-.12.26-.34-.1.65-.19,1.03-.19,1.03,0,0,.2-.5.43-1.36.25-.35.57-.83.92-1.42-.02.13-.03.2-.03.2,0,0,0-.02.01-.02-.01.06-.02.1-.02.1,0,0,.04-.1.1-.27.04-.09.09-.22.16-.38.07-.12.13-.24.2-.36.12-.24.24-.49.35-.76.11,1.1.06,2.14-.18,3.05-.43,1.81-1.01,3-1.01,3,0,0,.74-.89,1.59-2.39-.08.49-.15.77-.15.77,0,0,.18-.44.39-1.19,0,0,0-.01.01-.02.44-.89.9-1.98,1.11-3.2.12-.69.16-1.41.18-2.13.1-.23.23-.57.37-1,.04.37.06.73.04,1.07-.05,1.85-.37,3.08-.37,3.08,0,0,.49-1.19.8-3.06.17-.82.16-1.79.02-2.82.03-.17.06-.34.09-.52.08-.21.18-.55.31-.99.15.6.24,1.17.25,1.72.08,1.84-.15,3.09-.15,3.09,0,0,.33-.68.68-1.83.12-.16.3-.41.51-.72.18.78.26,1.53.22,2.21-.05,1.85-.37,3.08-.37,3.08,0,0,.32-.78.6-2.07.3-.39.96-1.3,1.67-2.61.44-.89.9-1.98,1.11-3.2.12-.69.16-1.41.18-2.13.1-.23.23-.57.37-1,.04.37.06.73.04,1.07-.05,1.85-.37,3.08-.37,3.08,0,0,.41-1.01.72-2.61.01,1.82-.3,3.48-.98,4.82-.84,1.73-1.67,2.82-1.67,2.82,0,0,1.11-.93,2.45-2.55.64-.82,1.34-1.83,1.82-3.01.1-.25.19-.5.28-.76-.04.32-.08.59-.12.81-.12.27-.2.43-.2.43,0,0,.06-.1.17-.27-.06.29-.1.46-.1.46,0,0,.1-.26.24-.7.29-.49.73-1.32,1.17-2.4.48-1.08.71-2.47.73-3.94.07-.16.14-.32.21-.49.08-.17.14-.36.21-.55.11.51.18,1,.19,1.47,0,.16,0,.31.01.47-.02.19-.05.37-.08.55-.34,1.82-.85,3.02-.85,3.02,0,0,.34-.45.82-1.25-.03.19-.04.3-.04.3,0,0,.14-.28.33-.79.19-.34.39-.71.59-1.13.02-.04.03-.08.05-.12.05,1.03-.02,1.99-.27,2.84-.47,1.81-1.06,2.99-1.06,2.99,0,0,.75-1.11,1.48-2.91.16-.37.29-.78.4-1.21.27-.45.78-1.35,1.28-2.59.42-.94.65-2.13.71-3.39.06-.02.13-.03.19-.05.33,1.45.4,2.81.15,3.99-.34,1.82-.85,3.02-.85,3.02,0,0,.83-1.08,1.69-2.88.38-.87.76-1.91.92-3.07-.06,1.87-.45,3.57-1.21,4.92-.92,1.71-1.81,2.78-1.81,2.78,0,0,1.15-.9,2.57-2.48.68-.81,1.43-1.8,1.97-2.96.11-.23.2-.47.3-.71.18-.21.37-.43.57-.68.81-.96,1.49-2.26,1.98-3.69.12-.14.24-.28.36-.44.05-.05.09-.12.13-.18.14-.06.28-.12.43-.18-.2.84-.49,1.61-.87,2.3-.92,1.71-1.81,2.78-1.81,2.78,0,0,1.15-.9,2.57-2.48.03-.03.06-.07.08-.1-.28,1.01-.67,1.93-1.17,2.7-1.04,1.68-2,2.71-2,2.71,0,0,1.09-.94,2.38-2.56.28-.33.54-.7.78-1.1.41-.39,1.19-1.17,2.08-2.28.85-1,1.54-2.36,2.03-3.85,0,0,0,0,0,0-.1,1.73-.48,3.3-1.2,4.57-.92,1.71-1.81,2.78-1.81,2.78,0,0,1.15-.9,2.57-2.48.68-.81,1.43-1.8,1.97-2.96.1-.21.19-.43.27-.66.19-.22.38-.45.58-.7.63-.75,1.18-1.7,1.62-2.76.19-.12.38-.24.57-.36-.02.27-.04.54-.08.81-.04.08-.07.16-.12.23-.92,1.71-1.81,2.78-1.81,2.78,0,0,.65-.51,1.58-1.44,0,.01-.01.03-.02.05-.92,1.71-1.81,2.78-1.81,2.78,0,0,.57-.44,1.38-1.24-.22.55-.48,1.07-.78,1.53-1.04,1.68-2,2.71-2,2.71,0,0,1.09-.94,2.38-2.56.71-.84,1.32-1.95,1.79-3.17.62-.76,1.28-1.66,1.76-2.71.09-.19.17-.39.25-.59-.28,1.29-.73,2.47-1.35,3.42-1.04,1.68-2,2.71-2,2.71,0,0,1.09-.94,2.38-2.56.59-.7,1.11-1.58,1.53-2.56-.11,1.66-.49,3.17-1.18,4.39-.92,1.71-1.81,2.78-1.81,2.78,0,0,1.15-.9,2.57-2.48.68-.81,1.43-1.8,1.97-2.96.11-.23.2-.47.3-.71.18-.21.37-.44.57-.68.81-.96,1.49-2.26,1.98-3.69.12-.14.24-.28.36-.44.24-.29.47-.61.69-.95-.2,1.07-.53,2.05-1,2.89-.92,1.71-1.81,2.78-1.81,2.78,0,0,1.15-.9,2.57-2.48.03-.03.06-.07.08-.1-.28,1.01-.67,1.93-1.17,2.7-1.04,1.68-2,2.7-2,2.7,0,0,1.09-.94,2.38-2.56.28-.33.54-.7.78-1.1.41-.39,1.19-1.17,2.08-2.28.85-1,1.55-2.37,2.04-3.86-.1,1.74-.48,3.31-1.2,4.58-.92,1.71-1.81,2.78-1.81,2.78,0,0,1.15-.9,2.57-2.48.67-.81,1.43-1.8,1.96-2.96.1-.21.19-.43.27-.66.19-.22.38-.45.58-.7,1.22-1.43,2.12-3.63,2.55-5.86.14-.04.28-.09.42-.13-.02,2.02-.41,3.85-1.22,5.29-.92,1.71-1.81,2.78-1.81,2.78,0,0,1.15-.9,2.57-2.48.68-.81,1.43-1.8,1.96-2.96.14-.3.27-.62.39-.94.39-.37,1.2-1.17,2.13-2.33.06-.07.12-.16.18-.24,0,.54,0,1.07-.05,1.58-.91,1.37-1.67,2.2-1.67,2.2,0,0,.69-.6,1.61-1.65-.17,1.36-.53,2.59-1.11,3.62-.92,1.71-1.81,2.78-1.81,2.78,0,0,1.15-.9,2.57-2.48.68-.81,1.43-1.8,1.96-2.96.11-.23.2-.47.3-.71.18-.21.37-.44.57-.68.81-.96,1.49-2.26,1.98-3.69.12-.14.24-.28.36-.44.24-.29.47-.61.69-.95-.2,1.07-.53,2.05-1,2.89-.92,1.71-1.81,2.78-1.81,2.78,0,0,1.15-.9,2.57-2.48.03-.03.06-.07.08-.1-.28,1.01-.67,1.93-1.17,2.7-1.04,1.68-2,2.7-2,2.7,0,0,1.09-.94,2.38-2.56.28-.33.54-.7.78-1.1.41-.39,1.19-1.17,2.08-2.28.85-1,1.55-2.37,2.04-3.86-.1,1.74-.48,3.31-1.2,4.58-.92,1.71-1.81,2.78-1.81,2.78,0,0,1.15-.9,2.57-2.48.68-.81,1.43-1.8,1.97-2.96.1-.21.19-.44.27-.66.19-.22.38-.45.58-.7,1.35-1.59,2.33-4.13,2.67-6.6.07-.42.16-.84.26-1.25,0,.21,0,.42,0,.63.15,2.5-.22,4.8-1.19,6.53-.92,1.71-1.81,2.78-1.81,2.78,0,0,1.15-.9,2.57-2.48.67-.81,1.43-1.8,1.96-2.96.14-.3.27-.62.39-.94.39-.37,1.2-1.17,2.13-2.33.84-.99,1.53-2.33,2.02-3.8-.13,1.06-.38,2.06-.72,2.96-.72,1.01-1.26,1.6-1.26,1.6,0,0,.4-.35,1-.98-.17.37-.36.73-.57,1.05-1.04,1.68-2,2.7-2,2.7,0,0,1.09-.94,2.38-2.56.68-.8,1.26-1.83,1.72-2.97.95-1.2,1.71-2.85,2.17-4.61-.02,2.03-.4,3.87-1.22,5.32-.92,1.71-1.81,2.78-1.81,2.78,0,0,1.15-.9,2.57-2.48.68-.81,1.43-1.8,1.97-2.96.11-.23.2-.47.3-.71.18-.21.37-.44.57-.68.81-.96,1.49-2.26,1.98-3.69.12-.14.24-.28.36-.44.24-.29.47-.61.69-.95-.2,1.07-.53,2.05-1,2.9-.92,1.71-1.81,2.78-1.81,2.78,0,0,1.15-.9,2.57-2.48.03-.03.06-.07.08-.1-.28,1.01-.67,1.93-1.17,2.7-1.04,1.68-2,2.71-2,2.71,0,0,1.09-.94,2.38-2.56.28-.33.54-.7.78-1.1.41-.39,1.19-1.17,2.07-2.28.85-1,1.55-2.37,2.04-3.86-.1,1.74-.48,3.31-1.2,4.58-.92,1.71-1.81,2.78-1.81,2.78,0,0,1.15-.9,2.57-2.48.68-.81,1.43-1.8,1.96-2.96.1-.21.19-.44.27-.66.19-.22.38-.45.58-.7,1.35-1.59,2.33-4.13,2.67-6.6.07-.42.16-.84.26-1.26,0,.21,0,.42,0,.63.15,2.5-.22,4.8-1.19,6.53-.92,1.71-1.81,2.78-1.81,2.78,0,0,1.15-.9,2.57-2.48.68-.81,1.43-1.8,1.96-2.96.14-.3.27-.62.39-.94.39-.37,1.2-1.17,2.13-2.33.84-.99,1.53-2.33,2.02-3.8-.22,1.77-.75,3.4-1.56,4.64-1.04,1.68-2,2.71-2,2.71,0,0,1.09-.94,2.38-2.56.56-.66,1.06-1.5,1.47-2.42-.16,2.07-.7,3.99-1.64,5.41-1.04,1.68-2,2.71-2,2.71,0,0,1.09-.94,2.38-2.56,1.35-1.59,2.33-4.13,2.67-6.6.1-.57.22-1.12.36-1.67.22,1.74.13,3.36-.36,4.69-.6,1.78-1.29,2.94-1.29,2.94,0,0,.98-1.01,2.1-2.72.52-.87,1.09-1.92,1.41-3.13.07-.24.12-.49.17-.73.14-.23.29-.47.44-.73.63-1.03,1.07-2.39,1.29-3.85.09-.15.18-.31.28-.47.19-.31.35-.65.51-1.01,0,1.08-.15,2.09-.47,2.97-.6,1.78-1.29,2.94-1.29,2.94,0,0,.98-1.01,2.1-2.72.02-.04.04-.08.06-.11-.09,1.03-.31,1.98-.67,2.8-.73,1.77-1.49,2.88-1.49,2.88,0,0,.91-1.04,1.9-2.78.22-.35.4-.75.57-1.17.34-.43.97-1.28,1.65-2.47.66-1.07,1.11-2.5,1.32-4.03.22,1.73.12,3.33-.36,4.66-.6,1.78-1.29,2.94-1.29,2.94,0,0,.98-1.01,2.1-2.72.52-.87,1.09-1.92,1.41-3.13.06-.22.11-.45.15-.68.15-.23.3-.48.45-.75,1.05-1.71,1.56-4.32,1.46-6.81,0-.43,0-.85.03-1.27.04.21.08.42.12.62.6,2.46.65,4.77,0,6.59-.6,1.78-1.29,2.94-1.29,2.94,0,0,.98-1.01,2.1-2.72.52-.87,1.09-1.92,1.41-3.13.09-.32.16-.64.22-.97.32-.4.98-1.28,1.69-2.52.65-1.06,1.09-2.47,1.31-3.98.1,1.78-.13,3.44-.71,4.76-.73,1.77-1.49,2.88-1.49,2.88,0,0,.91-1.04,1.9-2.78.84-1.36,1.32-3.29,1.44-5.27.24-.36.5-.77.77-1.24.41-.65.76-1.43,1.06-2.29.43-.44,1.01-1.06,1.65-1.86.1-.12.2-.26.3-.39-.07.23-.11.37-.11.37,0,0,.33-.49.76-1.35.29-.5.54-1.04.77-1.61.12.99.1,1.92-.07,2.74-.34,1.83-.85,3.03-.85,3.03,0,0,.67-1.14,1.27-2.97.14-.37.24-.79.31-1.22.24-.46.68-1.38,1.09-2.63.42-1.14.55-2.6.43-4.14.59,1.68.84,3.27.65,4.64-.21,1.83-.64,3.05-.64,3.05,0,0,.75-1.11,1.48-2.94.33-.92.66-2.03.72-3.26.01-.23,0-.46,0-.69.09-.25.19-.51.28-.8.67-1.82.61-4.46-.03-6.9,0-.03-.01-.06-.02-.09.07-.09.12-.18.17-.25,1.03,2.24,1.52,4.4,1.28,6.18-.21,1.83-.64,3.05-.64,3.05,0,0,.75-1.11,1.48-2.94.33-.92.66-2.03.72-3.26.02-.32.02-.65,0-.98.23-.44.69-1.38,1.12-2.7.41-1.13.55-2.57.44-4.08.48,1.74.62,3.41.33,4.78-.34,1.83-.85,3.03-.85,3.03,0,0,.67-1.14,1.27-2.97.53-1.45.59-3.41.28-5.38.16-.38.33-.82.49-1.32.68-1.81.84-4.49.56-6.96,0-.11,0-.21-.02-.32,0-.17,0-.36-.01-.54.13-.48.37-1.44.5-2.73.08-.58.07-1.22-.01-1.9.11-.26.21-.51.31-.77.49,1.06.8,2.09.88,3.03.2,1.83.04,3.09.04,3.09,0,0,.49-1.19.82-3.08.12-.95.2-2.08,0-3.31-.04-.22-.09-.45-.15-.68.04-.26.07-.53.1-.82.12-.85.04-1.86-.18-2.92.13-.54.23-1.08.31-1.6.57,1.16.93,2.28,1.02,3.31.2,1.83.04,3.09.04,3.09,0,0,.49-1.19.82-3.08.12-.95.21-2.08,0-3.31-.05-.32-.13-.65-.21-.97.13-.46.38-1.45.52-2.8.16-1.16-.02-2.6-.46-4.08.86,1.66,1.36,3.29,1.37,4.67.07,1.85-.17,3.09-.17,3.09,0,0,.41-1.21.6-3.08.21-1.49-.16-3.44-.9-5.34.07-.4.14-.85.2-1.36ZM347.79,411.87c-.55-1.19-.95-2.38-1.23-3.5.61,1.24,1.04,2.42,1.23,3.5ZM341.9,441.14c-.28-1.26-.42-2.5-.45-3.64.34,1.31.5,2.55.45,3.64ZM288.11,501.11c-.17.22-.31.39-.43.53.03-.13.07-.26.1-.38.23-.94.52-1.84.86-2.67-.1.89-.28,1.74-.53,2.53ZM245.72,529.88c-.17.22-.31.39-.43.53.03-.13.07-.26.1-.38.15-.61.32-1.21.52-1.78.09-.15.19-.3.27-.45-.11.73-.26,1.43-.47,2.09ZM211.92,547.85c-.09-.33-.18-.66-.29-.99,0-.18-.01-.36-.03-.54-.02-.17-.05-.35-.08-.53.12-.3.25-.69.39-1.16.05.14.1.28.15.42.1,1.01.05,1.95-.13,2.8ZM177.72,537.59s.01-.05.02-.07c.07.1.15.21.24.33-.03.5-.06,1-.07,1.51-.12-.55-.18-1.14-.18-1.76ZM174.23,537.26c0,.05,0,.11,0,.16-.04-.53-.1-1.06-.17-1.57.05-.42.11-.84.2-1.26.05.86.06,1.74-.02,2.67ZM57.95,442.45c-.05-1.1.11-2.34.45-3.65-.03,1.15-.17,2.39-.45,3.65ZM190.73,548.39c-.06-.6-.05-1.24.03-1.92,0,.01.02.03.02.03,0,0,0-.02-.01-.05.02-.2.06-.4.09-.61.03-.1.06-.2.08-.3.04.2.09.4.15.58-.03.16-.04.32-.07.49-.1.58-.21,1.18-.29,1.77ZM210.75,542.14c.09.15.17.3.25.46.14.61.21,1.2.22,1.76-.15-.59-.33-1.18-.5-1.75-.03-.09-.04-.17-.07-.25.03-.07.06-.14.09-.21ZM81.24,469.73c0-.06-.02-.12-.03-.18.05.05.09.09.14.14,0,0,0,.01,0,.02l-.12.03ZM84.95,478.8c.02-.13.03-.26.05-.39.04.37.08.74.1,1.12.05.58.1,1.18.17,1.78-.2-.54-.34-1.11-.44-1.73.03-.26.07-.52.11-.78ZM89.18,483.55c.18.86.31,1.78.36,2.74.01.13.02.26.03.39-.09-.15-.2-.34-.33-.57-.11-.81-.13-1.67-.07-2.56ZM106.16,495.63c0-.13-.01-.26-.02-.4.11.36.21.73.3,1.1.15.57.31,1.16.49,1.75-.29-.51-.54-1.07-.75-1.67-.01-.26-.02-.52-.03-.78ZM111.21,499.9c.34.84.63,1.73.85,2.67.03.13.07.26.1.38-.11-.14-.26-.31-.43-.53-.25-.79-.43-1.64-.53-2.53ZM129.63,513.41c0-.13-.01-.27-.02-.4.11.36.21.73.3,1.1.15.57.31,1.16.49,1.75-.29-.51-.54-1.07-.75-1.67-.01-.26-.02-.52-.03-.78ZM134.67,517.68c.34.84.63,1.73.86,2.67.03.13.07.26.1.38-.11-.14-.26-.31-.43-.53-.25-.79-.43-1.64-.53-2.53ZM148.55,524.4c0-.13-.01-.27-.02-.4.11.36.21.73.3,1.1.15.57.31,1.16.49,1.75-.29-.51-.54-1.07-.75-1.67-.01-.26-.02-.52-.03-.78ZM153.65,529.11c.09.16.18.3.27.45.2.57.37,1.17.52,1.78.03.13.07.26.1.38-.11-.14-.26-.31-.43-.53-.21-.66-.36-1.36-.47-2.09ZM165.62,532.83c0-.13-.01-.27-.02-.4.11.36.21.73.3,1.1.15.57.31,1.16.49,1.75-.29-.51-.54-1.07-.75-1.67-.01-.26-.02-.52-.03-.78ZM168.77,533.56c.04.14.07.28.11.42-.05-.16-.11-.33-.16-.5.02.03.04.06.06.08ZM170.67,537.1c.34.84.63,1.73.85,2.67.03.13.07.25.1.38-.11-.14-.26-.31-.43-.53-.25-.79-.43-1.64-.53-2.53ZM184.85,544.36c0,.24.02.47,0,.71,0,.04,0,.08,0,.12,0-.02,0-.02,0-.04,0-.25,0-.51,0-.8ZM184.86,545.26s0,.07,0,.11c0-.04,0-.08,0-.13,0,0,0,.01,0,.02ZM201.73,559.74c.06-.09.12-.18.18-.28.34.78.63,1.31.77,1.55-.16.61-.33,1.12-.48,1.52-.29-.84-.45-1.78-.47-2.79ZM204.93,553.9s0-.01,0-.02c0,.04,0,.08,0,.13,0-.04,0-.07,0-.11ZM214.99,543.95s0-.01,0-.02c0,.04,0,.08,0,.13,0-.04,0-.07,0-.11ZM214.99,543.88s0-.08,0-.12c0-.24,0-.47,0-.7,0,.28,0,.54,0,.78,0,.02,0,.02,0,.04ZM228.33,538.46c.11-.45.24-.89.38-1.32.09-.04.19-.07.28-.11-.09.44-.2.87-.33,1.29-.17.22-.31.39-.43.53.03-.13.07-.26.1-.38ZM251.02,523.79c.07-.3.15-.6.24-.89.02-.01.04-.02.06-.03,0,.07,0,.15-.01.22,0,.26-.01.52-.03.78-.2.6-.45,1.16-.75,1.67.18-.59.34-1.18.49-1.75ZM264.32,519.04c.23-.94.52-1.84.85-2.67-.1.89-.28,1.74-.53,2.53-.17.22-.31.39-.43.53.03-.13.07-.26.1-.38ZM269.94,512.8c.09-.37.19-.74.3-1.1,0,.13-.02.26-.02.4,0,.26-.01.52-.03.78-.2.6-.45,1.16-.75,1.67.18-.59.34-1.18.49-1.75ZM293.4,495.02c.09-.37.19-.74.3-1.1,0,.13-.02.27-.02.4,0,.26-.01.52-.03.78-.2.6-.45,1.16-.75,1.67.18-.59.34-1.18.49-1.75ZM310.31,484.97c.05-.95.18-1.87.36-2.73.06.89.04,1.75-.07,2.56-.13.23-.24.42-.33.57.01-.13.02-.26.03-.39ZM314.74,478.22c.02-.38.06-.75.1-1.12.02.13.03.27.05.4.05.26.08.52.11.78-.09.62-.24,1.2-.44,1.73.07-.6.12-1.2.17-1.78ZM170.3,420.35c6.91.97,18.56-2.17,29.63-2.17s24,3.49,30.92,2.52c6.91-.97,28.55,24.52,28.85,32.61.2,5.54-4.57,9.27-10.1,11.46-5.53,2.19-8.3,9-13.14,10.71-4.84,1.7-16,6.16-24.53,4.54-11.88-2.25-21.08-.61-26.31-.17-11.84,1-16.92-2.67-21.76-4.37-4.84-1.7-7.61-8.52-13.14-10.71-5.53-2.19-9.78-3.35-10.1-11.44-.2-5.21,22.77-33.96,29.68-32.98ZM53.3,409.68c-.28,1.12-.69,2.31-1.23,3.5.2-1.08.62-2.26,1.23-3.5ZM52.32,422.27c-.07-.5-.16-1.46-.11-2.7,0-.87.22-1.85.58-2.86-.19,1.17-.11,2.27,0,3.18.03.2.07.38.11.57-.21.6-.42,1.21-.58,1.82ZM54.55,427.39c.1-1.21.53-2.58,1.22-3.98.01.06.03.13.05.19-.18.67-.39,1.36-.66,2.06-.21.56-.42,1.14-.61,1.73ZM56.51,432.28c0-.17.02-.34.03-.51.07.83.11,1.72.08,2.65-.01.1-.03.19-.03.29-.06-.54-.12-1.38-.08-2.42ZM59.49,448.71c-.18-.86-.19-1.85-.06-2.89.07,1.18.39,2.25.7,3.14.08.19.15.37.23.55-.08.62-.15,1.24-.17,1.86-.17-.49-.48-1.42-.71-2.65ZM63.25,448.93c.06-.14.12-.29.18-.43-.02.13-.04.26-.06.39l-.12.04ZM63.95,451.7c-.01.86-.06,1.74-.21,2.67-.08.58-.16,1.18-.22,1.78-.18-1.31-.02-2.85.43-4.45ZM67.13,463.1c-.18-.53-.42-1.34-.61-2.37-.24-1.12-.19-2.43.1-3.83.1.43.2.87.27,1.31.07.47.16.93.27,1.4-.17,1.22-.18,2.42-.03,3.49ZM69.95,464.66c-.5-.77-.89-1.69-1.17-2.7,0-.08-.02-.15-.03-.22-.16-1.21.01-2.58.46-4.04.44,1.33.82,2.84,1.02,4.45.14,1.42.45,2.88.89,4.19-.34-.44-.74-1.01-1.16-1.68ZM72.71,464.91c.21,1.1.32,2.28.32,3.51-.27-1.04-.36-2.23-.32-3.51ZM75.91,474.47c-.37-.83-.59-1.8-.68-2.85.33,1.15.87,2.17,1.37,3.01.12.18.23.35.34.51.05.62.12,1.25.23,1.86-.28-.46-.78-1.34-1.27-2.53ZM80.95,476.81c.18.86.31,1.78.36,2.72.05.58.1,1.18.17,1.78-.47-1.29-.64-2.85-.53-4.51ZM86.55,487.74c-.29-.5-.7-1.28-1.11-2.27-.52-1.18-.75-2.63-.72-4.2.1.2.2.4.32.59.15.27.3.52.45.75.05.23.09.46.15.68.05.18.11.35.17.53.07,1.39.32,2.75.75,3.93ZM87.6,480.91c.07-.41.15-.83.25-1.25.03.06.06.13.09.19.05.63.08,1.27.07,1.92-.02.56-.01,1.12.03,1.68-.25-.77-.39-1.62-.44-2.53ZM89.29,486.38c.12.16.21.28.29.38.03.42.07.83.12,1.25-.18-.51-.32-1.06-.42-1.64ZM96.42,492.25c-.51-.78-.91-1.72-1.19-2.75.53,1.11,1.25,2.06,1.9,2.84.15.17.29.32.43.47.17.61.35,1.22.57,1.82-.36-.42-1.01-1.25-1.71-2.38ZM101.84,494.05c.33.84.63,1.73.85,2.66.15.57.31,1.16.49,1.75-.7-1.23-1.15-2.76-1.34-4.41ZM109.36,504.32c-.38-.47-.93-1.19-1.51-2.14-.73-1.11-1.22-2.53-1.48-4.09.14.19.28.38.42.55.2.25.39.48.58.7.09.22.17.44.27.66.08.18.17.34.26.51.32,1.37.81,2.7,1.45,3.81ZM109.16,497.44c0-.42,0-.84.02-1.27.04.06.08.12.12.18.17.61.31,1.25.42,1.89.08.55.19,1.11.33,1.66-.38-.73-.68-1.57-.89-2.46ZM111.83,502.69c.14.14.26.26.36.35.11.41.22.82.35,1.23-.27-.48-.51-1.01-.71-1.58ZM119.88,510.03c-.51-.78-.91-1.72-1.19-2.75.53,1.11,1.25,2.06,1.9,2.84.15.17.29.32.43.47.17.61.35,1.22.57,1.82-.36-.43-1.01-1.25-1.71-2.38ZM125.3,511.84c.33.83.63,1.73.85,2.66.15.57.31,1.16.49,1.75-.7-1.23-1.15-2.76-1.34-4.41ZM132.82,522.1c-.38-.47-.93-1.19-1.51-2.13-.73-1.11-1.22-2.53-1.48-4.09.14.19.28.38.42.55.2.25.39.48.58.7.09.22.17.44.27.66.08.18.17.34.26.51.32,1.37.81,2.7,1.45,3.81ZM132.63,515.23c0-.42,0-.84.02-1.27.04.06.08.12.12.18.17.61.31,1.25.42,1.89.08.55.19,1.11.33,1.66-.38-.73-.68-1.57-.89-2.46ZM135.29,520.48c.14.14.26.26.36.35.11.41.22.82.35,1.23-.27-.48-.51-1.01-.71-1.58ZM138.81,521.02c-.2-.3-.37-.64-.54-.98,0-.2,0-.4,0-.61.4.62.83,1.19,1.24,1.68.15.17.29.32.43.47.17.61.35,1.22.56,1.82-.36-.43-1.01-1.25-1.71-2.38ZM144.23,522.83c.33.83.63,1.73.85,2.66.15.57.31,1.16.49,1.75-.7-1.23-1.15-2.76-1.34-4.41ZM151.75,533.09c-.38-.47-.93-1.19-1.51-2.14-.73-1.11-1.22-2.53-1.48-4.09.14.19.28.38.42.55.2.25.39.48.58.7.09.22.17.44.27.66.08.18.17.34.26.51.32,1.37.81,2.7,1.45,3.81ZM151.55,526.22c0-.42,0-.84.02-1.27.04.06.08.12.12.18.17.61.31,1.25.42,1.89.08.55.19,1.11.33,1.66-.38-.73-.68-1.57-.89-2.46ZM154.21,531.46c.14.14.26.26.36.35.11.41.22.82.35,1.23-.27-.48-.51-1.01-.71-1.58ZM161.3,531.25c.33.83.63,1.73.85,2.66.15.57.31,1.16.49,1.75-.7-1.23-1.15-2.76-1.34-4.41ZM168.82,541.52c-.38-.47-.93-1.19-1.51-2.14-.73-1.11-1.22-2.53-1.48-4.09.14.19.28.38.42.55.2.25.39.48.58.7.09.22.17.44.27.66.08.18.17.34.26.51.32,1.37.81,2.7,1.45,3.81ZM168.62,534.64c0-.22,0-.45,0-.67.16.33.31.61.44.84.04.21.09.42.12.64.08.55.19,1.11.33,1.66-.38-.73-.68-1.57-.89-2.46ZM171.29,539.89c.14.14.26.26.36.35.11.41.22.82.35,1.23-.27-.48-.51-1.01-.71-1.58ZM178.25,545.84c-.22-.52-.52-1.33-.78-2.35-.29-1.02-.35-2.23-.21-3.52.15.37.25.59.25.59,0,0-.09-.47-.14-1.26.07.2.13.39.21.57.11.28.23.54.34.78.01.23.03.46.05.69.02.18.06.36.09.54-.13,1.38-.08,2.76.17,3.96ZM181.65,546.95c.1.63.23,1.17.35,1.62-.17-.47-.37-1.06-.54-1.74-.18-.64-.27-1.36-.28-2.12.04.07.08.14.11.19,0,.03.02.06.03.09.05.21.1.43.14.65.03.14.06.28.09.43.02.31.05.61.11.89ZM189.05,545.8c-.1-.53-.21-1.22-.27-2.06-.02-.21-.03-.43-.03-.65.08-.31.18-.63.29-.96.04.17.08.34.12.5-.07.57-.12,1.14-.11,1.7,0,.26.02.51.05.76-.02.24-.04.48-.04.72ZM190.6,549.85s0,.03,0,.04c0-.02,0-.04,0-.06,0,0,0,.01.01.02ZM194.15,550.95c.01-.1.03-.21.05-.31.04.27.07.55.1.83-.04-.14-.09-.32-.15-.52ZM197.04,557.85c-.06-.65-.02-1.35.1-2.07.04.11.09.21.13.32.11.54.25,1.05.39,1.51-.02.94.08,1.83.3,2.59-.22-.47-.48-1.05-.72-1.73-.07-.19-.14-.39-.19-.6,0,0,0,0,0,0ZM199.18,555.24c.01-.1.03-.21.05-.31.04.27.07.55.1.83-.04-.14-.09-.32-.15-.52ZM202.7,560.93c-.09-.35-.26-1.1-.38-2.09.01-.04.03-.08.04-.13.09-.16.18-.32.27-.49.08-.16.16-.33.24-.51-.02.64.02,1.26.1,1.83-.04.33-.09.66-.17.96-.03.15-.07.28-.11.42ZM205.91,554.8c-.03.14-.07.28-.11.41.13-.77.12-1.66,0-2.6.09-.46.17-.96.21-1.5.2,1.34.19,2.6-.1,3.69ZM210.1,547.89c.02-.2.02-.4.02-.61.01.04.02.07.03.11-.02.18-.04.35-.06.5ZM211.28,550.07c.04-.15.08-.3.12-.45,0-.04.01-.08.02-.12,0,.03.02.07.03.1-.06.17-.11.33-.16.47ZM212.32,548.95c-.04.2-.07.32-.07.32,0,0,.08-.19.19-.52.05-.09.11-.19.16-.28-.03.99-.14,1.79-.23,2.31,0-.52-.06-1.08-.16-1.65.04-.06.07-.12.11-.18ZM212.87,550.56c-.25,1.06-.55,1.89-.76,2.41.04-.2.08-.41.12-.62.08-.38.11-.81.12-1.24.16-.48.46-1.43.67-2.71.03-.14.04-.29.06-.44.06.93,0,1.81-.21,2.61ZM218.4,545.52c-.18.68-.37,1.27-.54,1.74.12-.45.24-.99.35-1.62.06-.28.09-.58.11-.89.03-.14.06-.28.09-.42.04-.22.09-.43.14-.64,0-.03.02-.06.03-.09.03-.06.07-.13.11-.19,0,.76-.1,1.48-.28,2.12ZM222.38,542.18c-.26,1.02-.57,1.83-.78,2.35.26-1.2.31-2.58.17-3.96.03-.18.07-.35.09-.54.03-.22.04-.46.05-.69.01-.02.02-.04.03-.06.13-.03.27-.06.4-.1,0,.04-.01.07-.01.07,0,0,.01-.03.03-.07.09-.02.17-.05.26-.07.08,1.12,0,2.17-.26,3.08ZM227.85,540.16c.12-.41.24-.82.35-1.23.1-.09.22-.21.36-.35-.2.57-.43,1.1-.71,1.58ZM232.54,538.07c-.59.94-1.14,1.67-1.52,2.14.64-1.12,1.13-2.45,1.45-3.81.09-.17.18-.33.26-.51.09-.18.16-.38.24-.57.28-.13.57-.26.85-.4-.28,1.18-.71,2.26-1.29,3.14ZM237.21,534.35c.14-.46.27-.92.39-1.37.11-.06.21-.13.32-.19-.2.56-.43,1.09-.71,1.57ZM244.93,531.73c.12-.41.24-.82.35-1.23.1-.09.22-.21.36-.35-.2.57-.43,1.1-.71,1.58ZM247.4,527.36c.14-.55.25-1.1.33-1.66.02-.14.06-.28.08-.43.16-.13.32-.25.48-.38,0,0,0,0,0,0-.21.89-.51,1.73-.89,2.46ZM249.61,529.64c-.59.94-1.14,1.67-1.52,2.14.64-1.12,1.13-2.45,1.45-3.81.09-.17.18-.33.26-.51.1-.21.19-.43.27-.66.19-.22.38-.45.58-.7.15-.17.28-.36.42-.55-.26,1.55-.75,2.97-1.48,4.09ZM254.28,525.93c.18-.59.34-1.18.49-1.75.23-.93.52-1.83.85-2.66-.19,1.65-.64,3.18-1.34,4.41ZM261.04,519.71c-.7,1.13-1.36,1.95-1.71,2.38.22-.6.4-1.21.56-1.82.14-.15.29-.3.43-.47.25-.29.5-.62.75-.96.17-.1.33-.21.5-.31,0,.07,0,.14,0,.21-.16.34-.34.68-.54.98ZM263.85,520.74c.12-.41.24-.82.35-1.23.1-.09.22-.21.36-.35-.2.57-.43,1.1-.71,1.58ZM266.66,514.72c.02-.1.04-.19.05-.28.17-.15.33-.3.5-.46-.21.87-.51,1.68-.88,2.4.14-.55.25-1.1.33-1.66ZM268.54,518.65c-.59.94-1.14,1.67-1.51,2.14.64-1.12,1.13-2.45,1.45-3.81.09-.17.18-.33.26-.51.1-.21.19-.43.27-.66.19-.22.38-.45.58-.7.15-.17.29-.36.42-.55-.26,1.55-.75,2.97-1.48,4.09ZM273.21,514.94c.18-.59.34-1.18.49-1.75.23-.94.52-1.83.85-2.66-.19,1.65-.64,3.18-1.34,4.41ZM279.97,508.72c-.7,1.13-1.36,1.96-1.72,2.38.22-.6.4-1.21.57-1.82.14-.15.29-.3.43-.47.65-.78,1.37-1.73,1.9-2.84-.28,1.03-.67,1.97-1.19,2.75ZM287.31,502.96c.12-.41.24-.82.35-1.23.1-.09.22-.21.36-.35-.2.57-.43,1.1-.71,1.58ZM289.79,498.59c.14-.55.25-1.1.33-1.66.05-.3.11-.59.17-.89.13-.13.27-.25.4-.38,0,.15,0,.31,0,.46-.21.89-.51,1.73-.89,2.46ZM292,500.86c-.59.94-1.14,1.67-1.51,2.13.64-1.12,1.13-2.44,1.45-3.81.09-.17.18-.33.26-.5.1-.21.19-.43.27-.66.19-.22.38-.45.58-.7.15-.17.29-.36.42-.55-.26,1.55-.75,2.97-1.48,4.09ZM296.67,497.15c.18-.59.34-1.18.49-1.75.23-.94.52-1.83.85-2.66-.19,1.65-.64,3.18-1.34,4.41ZM303.43,490.94c-.7,1.13-1.36,1.96-1.71,2.38.22-.6.4-1.21.57-1.82.14-.15.29-.3.43-.47.65-.78,1.37-1.73,1.9-2.84-.28,1.03-.67,1.97-1.19,2.75ZM310.14,486.7c.05-.42.09-.84.12-1.25.08-.1.18-.23.29-.38-.09.58-.23,1.13-.42,1.64ZM311.81,482.12c.04-.56.05-1.12.03-1.67,0-.51.01-1.01.04-1.51.07-.05.14-.1.21-.15.06.27.11.54.16.81-.05.91-.19,1.76-.44,2.53ZM314.41,484.15c-.41.99-.83,1.77-1.11,2.27.43-1.17.68-2.54.75-3.93.06-.17.12-.35.17-.53.06-.22.11-.45.15-.68.15-.23.3-.48.45-.75.11-.18.22-.38.32-.59.03,1.56-.2,3.02-.72,4.2ZM318.37,480c.07-.6.12-1.2.17-1.78.05-.95.18-1.87.36-2.73.11,1.66-.06,3.22-.53,4.51ZM323.94,473.15c-.49,1.19-.99,2.07-1.27,2.53.11-.61.18-1.24.23-1.86.11-.16.23-.33.35-.51.5-.84,1.04-1.85,1.37-3.01-.09,1.05-.31,2.02-.68,2.85ZM326.82,467.1c0-1.22.12-2.41.32-3.51.04,1.28-.06,2.47-.32,3.51ZM329.89,463.35c-.42.68-.82,1.24-1.16,1.68.43-1.31.74-2.78.89-4.19.2-1.61.58-3.12,1.02-4.45.44,1.46.62,2.84.46,4.04,0,.08-.02.15-.03.22-.28,1.01-.67,1.93-1.17,2.7ZM333.33,459.41c-.19,1.03-.43,1.85-.61,2.38.15-1.07.13-2.27-.03-3.49.11-.46.2-.93.27-1.4.07-.45.17-.88.27-1.31.29,1.39.34,2.71.1,3.83ZM336.33,454.83c-.06-.6-.14-1.2-.22-1.78-.15-.93-.2-1.81-.21-2.67.46,1.6.62,3.14.43,4.45ZM336.41,447.18c.06.15.12.29.18.43l-.12-.04c-.02-.13-.04-.26-.06-.39ZM340.35,447.4c-.23,1.23-.53,2.17-.71,2.65-.03-.62-.09-1.25-.17-1.86.08-.18.15-.35.23-.54.32-.89.63-1.95.7-3.13.14,1.04.13,2.03-.05,2.89ZM343.26,433.38c0-.09-.02-.19-.03-.29-.03-.93,0-1.81.08-2.64.02.17.03.35.03.52.04,1.04-.02,1.88-.08,2.42ZM345.3,426.08c-.07-.21-.14-.43-.22-.64.03-.09.06-.19.09-.28.06.32.1.62.13.92ZM347.52,420.96c-.16-.61-.37-1.22-.58-1.82.04-.18.07-.37.11-.57.12-.91.19-2.01,0-3.18.36,1.01.57,1.98.58,2.86.04,1.24-.05,2.2-.11,2.7Z"/>
    <g id="details" class="st1">
      <path class="st0" d="M66.27,373.94s-9.84,12.37-4.77,26.58c-4.84-8.94-7.08-16.7,4.77-26.58Z"/>
      <path class="st0" d="M339.61,398.77s4.14-15.25-6.13-26.3c7.98,6.3,13.11,12.53,6.13,26.3Z"/>
      <path class="st0" d="M142.69,470.4s-9.62,24.11,6.81,40.73c-6.37-11.44-3.58-17.84-3.58-17.84,0,0,1.08,13.76,12.03,25.57-7.77-18.76-9.85-32.05-8.6-42.69,0,0-4.65,7.02-4.31,12.34-3.7-7.9-2.35-18.11-2.35-18.11Z"/>
      <path class="st0" d="M173.32,396.33s-4.23,10.56,3.01,17.86c-2.81-5.02-1.58-7.82-1.58-7.82,0,0,.48,6.03,5.3,11.21-3.43-8.23-4.34-14.05-3.8-18.72,0,0-2.04,3.08-1.9,5.41-1.63-3.46-1.04-7.94-1.04-7.94Z"/>
      <path class="st0" d="M75.58,394.27s-17.36,19.3-7.68,40.58c-2.02-12.94,2.8-17.98,2.8-17.98,0,0-3.74,13.29,2.46,28.15-.81-20.29,1.83-33.48,6.67-43.04,0,0-6.78,4.98-8.31,10.1-.75-8.69,4.05-17.81,4.05-17.81Z"/>
      <path class="st0" d="M337.94,437.05s6.28-19.78-7.78-32.08c5.74,8.76,3.88,14.02,3.88,14.02,0,0-1.66-10.91-11.07-19.69,7.28,14.51,9.7,24.99,9.32,33.55,0,0,3.3-5.87,2.73-10.09,3.41,6.08,2.92,14.31,2.92,14.31Z"/>
      <path class="st0" d="M172.99,489.36s-4.33,20.92,13.63,45.52c-10.39-4.05-22.34-23.55-13.63-45.52Z"/>
      <path class="st0" d="M188.84,396.33s-1.83,8.87,5.78,19.31c-4.41-1.72-9.47-9.99-5.78-19.31Z"/>
      <path class="st0" d="M209.84,397.1s1.65,8.23-4.55,17.77c3.65-1.53,7.75-9.1,4.55-17.77Z"/>
      <path class="st0" d="M319.89,459.39s4.12-15.08-7.85-33.87c7.4,3.44,15.23,18.23,7.85,33.87Z"/>
      <path class="st0" d="M124.2,456.93s-7.08,13.94.87,34.76c-6.56-4.86-11.24-20.92-.87-34.76Z"/>
      <path class="st0" d="M137.37,422.03s-4.64,9.14.57,22.79c-4.3-3.19-7.37-13.72-.57-22.79Z"/>
      <path class="st0" d="M149.55,408.09s-4.64,9.14.57,22.79c-4.3-3.19-7.37-13.72-.57-22.79Z"/>
      <path class="st0" d="M161.94,398.72s-4.64,9.14.57,22.79c-4.3-3.19-7.37-13.72-.57-22.79Z"/>
      <path class="st0" d="M88.33,427.68s-8.47,13.14-2.71,34.66c-6.02-5.51-9.03-21.97,2.71-34.66Z"/>
      <path class="st0" d="M225.61,487.09s-.55,28.16-10.08,44.6c7.81-4.62,12.31-22.33,12.31-22.33,0,0,1.32,7.87-.72,19.91,6.54-16.59,6.1-34.21-1.51-42.18Z"/>
      <path class="st0" d="M223.48,396.66s-.32,12.98-4.59,20.58c3.47-2.15,5.51-10.33,5.51-10.33,0,0,.56,3.62-.37,9.18,2.94-7.67,2.79-15.79-.55-19.44Z"/>
      <path class="st0" d="M292.92,439.02s8.41,23.89,5.57,40.73c5.12-6.35,3.33-22.69,3.33-22.69,0,0,3.59,6.21,5.67,17,.28-16.04-5.65-30.73-14.57-35.04Z"/>
      <path class="st0" d="M104.44,478.03s-2.88-25.17,3.65-40.95c-6.4,5.05-8.3,21.38-8.3,21.38,0,0-2.12-6.86-1.74-17.83-3.84,15.57-1.34,31.22,6.4,37.41Z"/>
      <path class="st0" d="M244.22,481.13s6.3,14.24-2.01,35.71c8.67-12.05,8.89-27.06,2.01-35.71Z"/>
      <path class="st0" d="M259.1,471.29s7.03,10.03.25,33.59c7.73-10.54,6.72-25.43-.25-33.59Z"/>
      <path class="st0" d="M253.75,407.46s2.54,7.74-6.33,21.43c6.96-5.22,9.19-14.89,6.33-21.43Z"/>
      <path class="st0" d="M238.71,400.24s3.17,6.17-2.45,18.87c6.16-4.55,7.22-12.62,2.45-18.87Z"/>
      <path class="st0" d="M201.05,489.47s-8.44,25.78,6.16,50.26c-13.79-8.77-19.17-28.78-6.16-50.26Z"/>
      <path class="st0" d="M273.36,455.81s8.83,12.52,2.13,39.76c7.11-12.38,8.58-26.42-2.13-39.76Z"/>
      <path class="st0" d="M265.22,422.03s2.41,9.51-7.04,19.37c6.6-2.78,10.35-8.69,7.04-19.37Z"/>
    </g>
  </g>
</svg>