<?xml version="1.0" encoding="UTF-8"?>
<svg xmlns="http://www.w3.org/2000/svg" version="1.1" viewBox="0 0 400 600">
  <!-- Generator: Adobe Illustrator 29.5.1, SVG Export Plug-In . SVG Version: 2.1.0 Build 141)  -->
  <defs>
    <style>
      .st0 {
        isolation: isolate;
      }

      .st1 {
        fill: $[hairColor];
      }

      .st2 {
        fill: #fff;
        mix-blend-mode: screen;
        opacity: .62;
      }

      .st3 {
        opacity: .5;
      }
    </style>
  </defs>
  <g class="st0">
    <g id="Layer_1">
      <g id="beard_2">
        <path id="beard" class="st1" d="M346.63,451.79c2.68-13.15,4.22-27.84,4.36-44.27,2.84-36.23,4.77-82.32.02-108.35l-4.51,2.93c-.88,26.22-32.48,78.98-59.02,115.59-38.21,2.92-51.44-25.98-76.56-16.84-6.5,2.36-14.61,2.36-21.11,0-25.12-9.13-34.96,19.97-73.18,17.05-30.01-33.85-62.67-89.58-63.71-115.79l-4.18,9.73c-4.3,23.38-1.29,65.95.99,95.81.34,39.17,8.69,68.5,21.32,90.45.29-5.31,1.32-10.62,3.78-14.33.11.2.23.4.34.61.7,3.5,3.89,16.88,14.01,31.7,5.66,8.28,23.2,24.57,23.25,24.6-.11-5.43.22-10.99,3.69-14.61,0,0,.38.81,1.17,2.21,10.51,18.4,34.31,31.17,61.76,33.81-3.82-3.21-7.54-8.46-6.62-16.54,0,0,3.21,8.05,23.9,17.22,4.04,2.26,11.41,4.81,11.41,4.81,0,0,7.37-1.92,14.46-5.43,14.15-7.14,21.91-17.74,23.23-22.46,0,0,2.53,9.14.5,18.62,2.32-.55,4.68-1.17,7.08-1.85,22.28-6.39,40.55-18.97,48.84-35.07,4.09-7.95,5.88-16.34,3.76-24.71,0,0,9.14,7.4,8.91,22.42,14.31-15.93,26.03-37.62,32.07-67.08,0,0,.01-.02.02-.03,0-.06.02-.13.02-.19ZM137.06,438.53c.34-3.64,3.5-6.85,7.86-8.99,19.83-9.7,55.44-10.2,55.44-10.2,0,0,35.61.5,55.44,10.2,4.36,2.13,7.52,5.35,7.86,8.99.43,4.56-12.8,6.79-31.24,14.22-30.52,12.29-30.7,11.4-70.8-1.59-18.91-6.13-25-8.06-24.57-12.63Z"/>
        <g id="details" class="st3">
          <g>
            <path class="st2" d="M153.02,413.76c-1.37,1.25-2.92,2.35-4.6,3.33-1.58.92-3.26,1.71-5.01,2.41-1.6.63-3.26,1.18-5,1.51-1.61.31-3.38.45-4.96-.04-.18-.06-.36-.12-.53-.19-.07-.03-.07-.15.03-.11,1.49.6,3.25.49,4.83.21,1.73-.31,3.4-.86,4.99-1.48,1.67-.65,3.28-1.41,4.81-2.26,1.69-.94,3.27-2.02,4.67-3.22,1.42-1.22,2.66-2.57,3.75-3.99.14-.18.28-.37.42-.55.08-.1.24.04.19.13-.97,1.53-2.16,2.96-3.57,4.26Z"/>
            <path class="st2" d="M161.52,410.92c-1.05,1.43-2.32,2.75-3.74,3.96-1.34,1.14-2.8,2.17-4.35,3.11-1.42.86-2.93,1.65-4.55,2.23-1.51.54-3.22.95-4.89.71-.19-.03-.38-.07-.57-.11-.07-.02-.1-.14,0-.11,1.6.37,3.31,0,4.79-.52,1.63-.56,3.14-1.35,4.55-2.2,1.48-.89,2.89-1.88,4.2-2.94,1.44-1.18,2.74-2.47,3.83-3.87,1.11-1.41,2.01-2.93,2.75-4.48.1-.2.19-.4.28-.6.05-.11.25,0,.21.1-.59,1.65-1.42,3.24-2.51,4.72Z"/>
            <path class="st2" d="M154.79,418.39c-1.05,1.43-2.32,2.75-3.74,3.96-1.34,1.14-2.8,2.17-4.35,3.11-1.42.86-2.93,1.65-4.55,2.23-1.51.54-3.22.95-4.89.71-.19-.03-.38-.07-.57-.11-.07-.02-.1-.14,0-.11,1.6.37,3.31,0,4.79-.52,1.63-.56,3.14-1.35,4.55-2.2,1.48-.89,2.89-1.88,4.2-2.94,1.44-1.18,2.74-2.47,3.83-3.87,1.11-1.41,2.01-2.93,2.75-4.48.1-.2.19-.4.28-.6.05-.11.25,0,.21.1-.59,1.65-1.42,3.24-2.51,4.72Z"/>
            <path class="st2" d="M170.78,409.57c-1.05,1.43-2.32,2.75-3.74,3.96-1.34,1.14-2.8,2.17-4.35,3.11-1.42.86-2.93,1.65-4.55,2.23-1.51.54-3.22.95-4.89.71-.19-.03-.38-.07-.57-.11-.07-.02-.1-.14,0-.11,1.6.37,3.31,0,4.79-.52,1.63-.56,3.14-1.35,4.55-2.2,1.48-.89,2.89-1.88,4.2-2.94,1.44-1.18,2.74-2.47,3.83-3.87,1.11-1.41,2.01-2.93,2.75-4.48.1-.2.19-.4.28-.6.05-.11.25,0,.21.1-.59,1.65-1.42,3.24-2.51,4.72Z"/>
            <path class="st2" d="M171.09,413.79c-1.05,1.43-2.32,2.75-3.74,3.96-1.34,1.14-2.8,2.17-4.35,3.11-1.42.86-2.93,1.65-4.55,2.23-1.51.54-3.22.95-4.89.71-.19-.03-.38-.07-.57-.11-.07-.02-.1-.14,0-.11,1.6.37,3.31,0,4.79-.52,1.63-.56,3.14-1.35,4.55-2.2,1.48-.89,2.89-1.88,4.2-2.94,1.44-1.18,2.74-2.47,3.83-3.87,1.11-1.41,2.01-2.93,2.75-4.48.1-.2.19-.4.28-.6.05-.11.25,0,.21.1-.59,1.65-1.42,3.24-2.51,4.72Z"/>
            <path class="st2" d="M177.68,409.57c-1.05,1.43-2.32,2.75-3.74,3.96-1.34,1.14-2.8,2.17-4.35,3.11-1.42.86-2.93,1.65-4.55,2.23-1.51.54-3.22.95-4.89.71-.19-.03-.38-.07-.57-.11-.07-.02-.1-.14,0-.11,1.6.37,3.31,0,4.79-.52,1.63-.56,3.14-1.35,4.55-2.2,1.48-.89,2.89-1.88,4.2-2.94,1.44-1.18,2.74-2.47,3.83-3.87,1.11-1.41,2.01-2.93,2.75-4.48.1-.2.19-.4.28-.6.05-.11.25,0,.21.1-.59,1.65-1.42,3.24-2.51,4.72Z"/>
            <path class="st2" d="M185.07,408.05c-1.05,1.43-2.32,2.75-3.74,3.96-1.34,1.14-2.8,2.17-4.35,3.11-1.42.86-2.93,1.65-4.55,2.23-1.51.54-3.22.95-4.89.71-.19-.03-.38-.07-.57-.11-.07-.02-.1-.14,0-.11,1.6.37,3.31,0,4.79-.52,1.63-.56,3.14-1.35,4.55-2.2,1.48-.89,2.89-1.88,4.2-2.94,1.44-1.18,2.74-2.47,3.83-3.87,1.11-1.41,2.01-2.93,2.75-4.48.1-.2.19-.4.28-.6.05-.11.25,0,.21.1-.59,1.65-1.42,3.24-2.51,4.72Z"/>
            <path class="st2" d="M191.83,407.42c-1.05,1.43-2.32,2.75-3.74,3.96-1.34,1.14-2.8,2.17-4.35,3.11-1.42.86-2.93,1.65-4.55,2.23-1.51.54-3.22.95-4.89.71-.19-.03-.38-.07-.57-.11-.07-.02-.1-.14,0-.11,1.6.37,3.31,0,4.79-.52,1.63-.56,3.14-1.35,4.55-2.2,1.48-.89,2.89-1.88,4.2-2.94,1.44-1.18,2.74-2.47,3.83-3.87,1.11-1.41,2.01-2.93,2.75-4.48.1-.2.19-.4.28-.6.05-.11.25,0,.21.1-.59,1.65-1.42,3.24-2.51,4.72Z"/>
            <path class="st2" d="M198.94,408.88c-1.05,1.43-2.32,2.75-3.74,3.96-1.34,1.14-2.8,2.17-4.35,3.11-1.42.86-2.93,1.65-4.55,2.23-1.51.54-3.22.95-4.89.71-.19-.03-.38-.07-.57-.11-.07-.02-.1-.14,0-.11,1.6.37,3.31,0,4.79-.52,1.63-.56,3.14-1.35,4.55-2.2,1.48-.89,2.89-1.88,4.2-2.94,1.44-1.18,2.74-2.47,3.83-3.87,1.11-1.41,2.01-2.93,2.75-4.48.1-.2.19-.4.28-.6.05-.11.25,0,.21.1-.59,1.65-1.42,3.24-2.51,4.72Z"/>
            <path class="st2" d="M205.75,408.17c-1.05,1.43-2.32,2.75-3.74,3.96-1.34,1.14-2.8,2.17-4.35,3.11-1.42.86-2.93,1.65-4.55,2.23-1.51.54-3.22.95-4.89.71-.19-.03-.38-.07-.57-.11-.07-.02-.1-.14,0-.11,1.6.37,3.31,0,4.79-.52,1.63-.56,3.14-1.35,4.55-2.2,1.48-.89,2.89-1.88,4.2-2.94,1.44-1.18,2.74-2.47,3.83-3.87,1.11-1.41,2.01-2.93,2.75-4.48.1-.2.19-.4.28-.6.05-.11.25,0,.21.1-.59,1.65-1.42,3.24-2.51,4.72Z"/>
            <path class="st2" d="M249.42,413.88c1.37,1.25,2.92,2.35,4.6,3.33,1.58.92,3.26,1.71,5.01,2.41,1.6.63,3.26,1.18,5,1.51,1.61.31,3.38.45,4.96-.04.18-.06.36-.12.53-.19.07-.03.07-.15-.03-.11-1.49.6-3.25.49-4.83.21-1.73-.31-3.4-.86-4.99-1.48-1.67-.65-3.28-1.41-4.81-2.26-1.69-.94-3.27-2.02-4.67-3.22-1.42-1.22-2.66-2.57-3.75-3.99-.14-.18-.28-.37-.42-.55-.08-.1-.24.04-.19.13.97,1.53,2.16,2.96,3.57,4.26Z"/>
            <path class="st2" d="M240.92,411.04c1.05,1.43,2.32,2.75,3.74,3.96,1.34,1.14,2.8,2.17,4.35,3.11,1.42.86,2.93,1.65,4.55,2.23,1.51.54,3.22.95,4.89.71.19-.03.38-.07.57-.11.07-.02.1-.14,0-.11-1.6.37-3.31,0-4.79-.52-1.63-.56-3.14-1.35-4.55-2.2-1.48-.89-2.89-1.88-4.2-2.94-1.44-1.18-2.74-2.47-3.83-3.87-1.11-1.41-2.01-2.93-2.75-4.48-.1-.2-.19-.4-.28-.6-.05-.11-.25,0-.21.1.59,1.65,1.42,3.24,2.51,4.72Z"/>
            <path class="st2" d="M246.55,417.79c1.05,1.43,2.32,2.75,3.74,3.96,1.34,1.14,2.8,2.17,4.35,3.11,1.42.86,2.93,1.65,4.55,2.23,1.51.54,3.22.95,4.89.71.19-.03.38-.07.57-.11.07-.02.1-.14,0-.11-1.6.37-3.31,0-4.79-.52-1.63-.56-3.14-1.35-4.55-2.2-1.48-.89-2.89-1.88-4.2-2.94-1.44-1.18-2.74-2.47-3.83-3.87-1.11-1.41-2.01-2.93-2.75-4.48-.1-.2-.19-.4-.28-.6-.05-.11-.25,0-.21.1.59,1.65,1.42,3.24,2.51,4.72Z"/>
            <path class="st2" d="M231.66,409.7c1.05,1.43,2.32,2.75,3.74,3.96,1.34,1.14,2.8,2.17,4.35,3.11,1.42.86,2.93,1.65,4.55,2.23,1.51.54,3.22.95,4.89.71.19-.03.38-.07.57-.11.07-.02.1-.14,0-.11-1.6.37-3.31,0-4.79-.52-1.63-.56-3.14-1.35-4.55-2.2-1.48-.89-2.89-1.88-4.2-2.94-1.44-1.18-2.74-2.47-3.83-3.87-1.11-1.41-2.01-2.93-2.75-4.48-.1-.2-.19-.4-.28-.6-.05-.11-.25,0-.21.1.59,1.65,1.42,3.24,2.51,4.72Z"/>
            <path class="st2" d="M232.09,414.9c1.05,1.43,2.32,2.75,3.74,3.96,1.34,1.14,2.8,2.17,4.35,3.11,1.42.86,2.93,1.65,4.55,2.23,1.51.54,3.22.95,4.89.71.19-.03.38-.07.57-.11.07-.02.1-.14,0-.11-1.6.37-3.31,0-4.79-.52-1.63-.56-3.14-1.35-4.55-2.2-1.48-.89-2.89-1.88-4.2-2.94-1.44-1.18-2.74-2.47-3.83-3.87-1.11-1.41-2.01-2.93-2.75-4.48-.1-.2-.19-.4-.28-.6-.05-.11-.25,0-.21.1.59,1.65,1.42,3.24,2.51,4.72Z"/>
            <path class="st2" d="M224.76,409.7c1.05,1.43,2.32,2.75,3.74,3.96,1.34,1.14,2.8,2.17,4.35,3.11,1.42.86,2.93,1.65,4.55,2.23,1.51.54,3.22.95,4.89.71.19-.03.38-.07.57-.11.07-.02.1-.14,0-.11-1.6.37-3.31,0-4.79-.52-1.63-.56-3.14-1.35-4.55-2.2-1.48-.89-2.89-1.88-4.2-2.94-1.44-1.18-2.74-2.47-3.83-3.87-1.11-1.41-2.01-2.93-2.75-4.48-.1-.2-.19-.4-.28-.6-.05-.11-.25,0-.21.1.59,1.65,1.42,3.24,2.51,4.72Z"/>
            <path class="st2" d="M217.36,408.17c1.05,1.43,2.32,2.75,3.74,3.96,1.34,1.14,2.8,2.17,4.35,3.11,1.42.86,2.93,1.65,4.55,2.23,1.51.54,3.22.95,4.89.71.19-.03.38-.07.57-.11.07-.02.1-.14,0-.11-1.6.37-3.31,0-4.79-.52-1.63-.56-3.14-1.35-4.55-2.2-1.48-.89-2.89-1.88-4.2-2.94-1.44-1.18-2.74-2.47-3.83-3.87-1.11-1.41-2.01-2.93-2.75-4.48-.1-.2-.19-.4-.28-.6-.05-.11-.25,0-.21.1.59,1.65,1.42,3.24,2.51,4.72Z"/>
            <path class="st2" d="M210.61,407.55c1.05,1.43,2.32,2.75,3.74,3.96,1.34,1.14,2.8,2.17,4.35,3.11,1.42.86,2.93,1.65,4.55,2.23,1.51.54,3.22.95,4.89.71.19-.03.38-.07.57-.11.07-.02.1-.14,0-.11-1.6.37-3.31,0-4.79-.52-1.63-.56-3.14-1.35-4.55-2.2-1.48-.89-2.89-1.88-4.2-2.94-1.44-1.18-2.74-2.47-3.83-3.87-1.11-1.41-2.01-2.93-2.75-4.48-.1-.2-.19-.4-.28-.6-.05-.11-.25,0-.21.1.59,1.65,1.42,3.24,2.51,4.72Z"/>
            <path class="st2" d="M203.49,409c1.05,1.43,2.32,2.75,3.74,3.96,1.34,1.14,2.8,2.17,4.35,3.11,1.42.86,2.93,1.65,4.55,2.23,1.51.54,3.22.95,4.89.71.19-.03.38-.07.57-.11.07-.02.1-.14,0-.11-1.6.37-3.31,0-4.79-.52-1.63-.56-3.14-1.35-4.55-2.2-1.48-.89-2.89-1.88-4.2-2.94-1.44-1.18-2.74-2.47-3.83-3.87-1.11-1.41-2.01-2.93-2.75-4.48-.1-.2-.19-.4-.28-.6-.05-.11-.25,0-.21.1.59,1.65,1.42,3.24,2.51,4.72Z"/>
            <path class="st2" d="M196.65,408.05c1.05,1.43,2.32,2.75,3.74,3.96,1.34,1.14,2.8,2.17,4.35,3.11,1.42.86,2.93,1.65,4.55,2.23,1.51.54,3.22.95,4.89.71.19-.03.38-.07.57-.11.07-.02.1-.14,0-.11-1.6.37-3.31,0-4.79-.52-1.63-.56-3.14-1.35-4.55-2.2-1.48-.89-2.89-1.88-4.2-2.94-1.44-1.18-2.74-2.47-3.83-3.87-1.11-1.41-2.01-2.93-2.75-4.48-.1-.2-.19-.4-.28-.6-.05-.11-.25,0-.21.1.59,1.65,1.42,3.24,2.51,4.72Z"/>
          </g>
          <g>
            <path class="st2" d="M53.05,334.58c-.68,2.71-.94,5.47-.87,8.23.07,2.6.42,5.19,1.01,7.74.54,2.33,1.29,4.65,2.45,6.82,1.07,2.02,2.58,4.05,4.91,5.23.27.14.55.26.83.37.11.04.3-.08.16-.14-2.42-.97-3.97-2.96-5.06-4.91-1.2-2.15-1.94-4.47-2.48-6.79-.57-2.43-.94-4.9-1.06-7.37-.14-2.74.06-5.5.64-8.2.58-2.73,1.55-5.41,2.76-7.99.16-.33.31-.67.48-1,.09-.19-.31-.21-.39-.07-1.52,2.57-2.67,5.27-3.37,8.07Z"/>
            <path class="st2" d="M59.58,352.86c-.68,2.71-.94,5.47-.87,8.23.07,2.6.42,5.19,1.01,7.74.54,2.33,1.29,4.65,2.45,6.82,1.07,2.02,2.58,4.05,4.91,5.23.27.14.55.26.83.37.11.04.3-.08.16-.14-2.42-.97-3.97-2.96-5.06-4.91-1.2-2.15-1.94-4.47-2.48-6.79-.57-2.43-.94-4.9-1.06-7.37-.14-2.74.06-5.5.64-8.2.58-2.73,1.55-5.41,2.76-7.99.16-.33.31-.67.48-1,.09-.19-.31-.21-.39-.07-1.52,2.57-2.67,5.27-3.37,8.07Z"/>
            <path class="st2" d="M70.74,372.48c-.68,2.71-.94,5.47-.87,8.23.07,2.6.42,5.19,1.01,7.74.54,2.33,1.29,4.65,2.45,6.82,1.07,2.02,2.58,4.05,4.91,5.23.27.14.55.26.83.37.11.04.3-.08.16-.14-2.42-.97-3.97-2.96-5.06-4.91-1.2-2.15-1.94-4.47-2.48-6.79-.57-2.43-.94-4.9-1.06-7.37-.14-2.74.06-5.5.64-8.2.58-2.73,1.55-5.41,2.76-7.99.16-.33.31-.67.48-1,.09-.19-.31-.21-.39-.07-1.52,2.57-2.67,5.27-3.37,8.07Z"/>
            <path class="st2" d="M57.76,394.19c-.68,2.71-.94,5.47-.87,8.23.07,2.6.42,5.19,1.01,7.74.54,2.33,1.29,4.65,2.45,6.82,1.07,2.02,2.58,4.05,4.91,5.23.27.14.55.26.83.37.11.04.3-.08.16-.14-2.42-.97-3.97-2.96-5.06-4.91-1.2-2.15-1.94-4.47-2.48-6.79-.57-2.43-.94-4.9-1.06-7.37-.14-2.74.06-5.5.64-8.2.58-2.73,1.55-5.41,2.76-7.99.16-.33.31-.67.48-1,.09-.19-.31-.21-.39-.07-1.52,2.57-2.67,5.27-3.37,8.07Z"/>
            <path class="st2" d="M67.18,387.85c-.68,2.71-.94,5.47-.87,8.23.07,2.6.42,5.19,1.01,7.74.54,2.33,1.29,4.65,2.45,6.82,1.07,2.02,2.58,4.05,4.91,5.23.27.14.55.26.83.37.11.04.3-.08.16-.14-2.42-.97-3.97-2.96-5.06-4.91-1.2-2.15-1.94-4.47-2.48-6.79-.57-2.43-.94-4.9-1.06-7.37-.14-2.74.06-5.5.64-8.2.58-2.73,1.55-5.41,2.76-7.99.16-.33.31-.67.48-1,.09-.19-.31-.21-.39-.07-1.52,2.57-2.67,5.27-3.37,8.07Z"/>
            <path class="st2" d="M80.16,385.06c-.68,2.71-.94,5.47-.87,8.23.07,2.6.42,5.19,1.01,7.74.54,2.33,1.29,4.65,2.45,6.82,1.07,2.02,2.58,4.05,4.91,5.23.27.14.55.26.83.37.11.04.3-.08.16-.14-2.42-.97-3.97-2.96-5.06-4.91-1.2-2.15-1.94-4.47-2.48-6.79-.57-2.43-.94-4.9-1.06-7.37-.14-2.74.06-5.5.64-8.2.58-2.73,1.55-5.41,2.76-7.99.16-.33.31-.67.48-1,.09-.19-.31-.21-.39-.07-1.52,2.57-2.67,5.27-3.37,8.07Z"/>
            <path class="st2" d="M87.45,396.48c-.68,2.71-.94,5.47-.87,8.23.07,2.6.42,5.19,1.01,7.74.54,2.33,1.29,4.65,2.45,6.82,1.07,2.02,2.58,4.05,4.91,5.23.27.14.55.26.83.37.11.04.3-.08.16-.14-2.42-.97-3.97-2.96-5.06-4.91-1.2-2.15-1.94-4.47-2.48-6.79-.57-2.43-.94-4.9-1.06-7.37-.14-2.74.06-5.5.64-8.2.58-2.73,1.55-5.41,2.76-7.99.16-.33.31-.67.48-1,.09-.19-.31-.21-.39-.07-1.52,2.57-2.67,5.27-3.37,8.07Z"/>
            <path class="st2" d="M73.71,406.14c-.68,2.71-.94,5.47-.87,8.23.07,2.6.42,5.19,1.01,7.74.54,2.33,1.29,4.65,2.45,6.82,1.07,2.02,2.58,4.05,4.91,5.23.27.14.55.26.83.37.11.04.3-.08.16-.14-2.42-.97-3.97-2.96-5.06-4.91-1.2-2.15-1.94-4.47-2.48-6.79-.57-2.43-.94-4.9-1.06-7.37-.14-2.74.06-5.5.64-8.2.58-2.73,1.55-5.41,2.76-7.99.16-.33.31-.67.48-1,.09-.19-.31-.21-.39-.07-1.52,2.57-2.67,5.27-3.37,8.07Z"/>
            <path class="st2" d="M67.18,427.8c-.68,2.71-.94,5.47-.87,8.23.07,2.6.42,5.19,1.01,7.74.54,2.33,1.29,4.65,2.45,6.82,1.07,2.02,2.58,4.05,4.91,5.23.27.14.55.26.83.37.11.04.3-.08.16-.14-2.42-.97-3.97-2.96-5.06-4.91-1.2-2.15-1.94-4.47-2.48-6.79-.57-2.43-.94-4.9-1.06-7.37-.14-2.74.06-5.5.64-8.2.58-2.73,1.55-5.41,2.76-7.99.16-.33.31-.67.48-1,.09-.19-.31-.21-.39-.07-1.52,2.57-2.67,5.27-3.37,8.07Z"/>
            <path class="st2" d="M57.76,432.85c-.68,2.71-.94,5.47-.87,8.23.07,2.6.42,5.19,1.01,7.74.54,2.33,1.29,4.65,2.45,6.82,1.07,2.02,2.58,4.05,4.91,5.23.27.14.55.26.83.37.11.04.3-.08.16-.14-2.42-.97-3.97-2.96-5.06-4.91-1.2-2.15-1.94-4.47-2.48-6.79-.57-2.43-.94-4.9-1.06-7.37-.14-2.74.06-5.5.64-8.2.58-2.73,1.55-5.41,2.76-7.99.16-.33.31-.67.48-1,.09-.19-.31-.21-.39-.07-1.52,2.57-2.67,5.27-3.37,8.07Z"/>
            <path class="st2" d="M80.16,419.71c-.68,2.71-.94,5.47-.87,8.23.07,2.6.42,5.19,1.01,7.74.54,2.33,1.29,4.65,2.45,6.82,1.07,2.02,2.58,4.05,4.91,5.23.27.14.55.26.83.37.11.04.3-.08.16-.14-2.42-.97-3.97-2.96-5.06-4.91-1.2-2.15-1.94-4.47-2.48-6.79-.57-2.43-.94-4.9-1.06-7.37-.14-2.74.06-5.5.64-8.2.58-2.73,1.55-5.41,2.76-7.99.16-.33.31-.67.48-1,.09-.19-.31-.21-.39-.07-1.52,2.57-2.67,5.27-3.37,8.07Z"/>
            <path class="st2" d="M97.65,412.52c-.68,2.71-.94,5.47-.87,8.23.07,2.6.42,5.19,1.01,7.74.54,2.33,1.29,4.65,2.45,6.82,1.07,2.02,2.58,4.05,4.91,5.23.27.14.55.26.83.37.11.04.3-.08.16-.14-2.42-.97-3.97-2.96-5.06-4.91-1.2-2.15-1.94-4.47-2.48-6.79-.57-2.43-.94-4.9-1.06-7.37-.14-2.74.06-5.5.64-8.2.58-2.73,1.55-5.41,2.76-7.99.16-.33.31-.67.48-1,.09-.19-.31-.21-.39-.07-1.52,2.57-2.67,5.27-3.37,8.07Z"/>
            <path class="st2" d="M108.3,423.89c-.68,2.71-.94,5.47-.87,8.23.07,2.6.42,5.19,1.01,7.74.54,2.33,1.29,4.65,2.45,6.82,1.07,2.02,2.58,4.05,4.91,5.23.27.14.55.26.83.37.11.04.3-.08.16-.14-2.42-.97-3.97-2.96-5.06-4.91-1.2-2.15-1.94-4.47-2.48-6.79-.57-2.43-.94-4.9-1.06-7.37-.14-2.74.06-5.5.64-8.2.58-2.73,1.55-5.41,2.76-7.99.16-.33.31-.67.48-1,.09-.19-.31-.21-.39-.07-1.52,2.57-2.67,5.27-3.37,8.07Z"/>
            <path class="st2" d="M116.05,435.17c-.68,2.71-.94,5.47-.87,8.23.07,2.6.42,5.19,1.01,7.74.54,2.33,1.29,4.65,2.45,6.82,1.07,2.02,2.58,4.05,4.91,5.23.27.14.55.26.83.37.11.04.3-.08.16-.14-2.42-.97-3.97-2.96-5.06-4.91-1.2-2.15-1.94-4.47-2.48-6.79-.57-2.43-.94-4.9-1.06-7.37-.14-2.74.06-5.5.64-8.2.58-2.73,1.55-5.41,2.76-7.99.16-.33.31-.67.48-1,.09-.19-.31-.21-.39-.07-1.52,2.57-2.67,5.27-3.37,8.07Z"/>
            <path class="st2" d="M125.47,454.35c-.68,2.71-.94,5.47-.87,8.23.07,2.6.42,5.19,1.01,7.74.54,2.33,1.29,4.65,2.45,6.82,1.07,2.02,2.58,4.05,4.91,5.23.27.14.55.26.83.37.11.04.3-.08.16-.14-2.42-.97-3.97-2.96-5.06-4.91-1.2-2.15-1.94-4.47-2.48-6.79-.57-2.43-.94-4.9-1.06-7.37-.14-2.74.06-5.5.64-8.2.58-2.73,1.55-5.41,2.76-7.99.16-.33.31-.67.48-1,.09-.19-.31-.21-.39-.07-1.52,2.57-2.67,5.27-3.37,8.07Z"/>
            <path class="st2" d="M128.49,431.21c-.68,2.71-.94,5.47-.87,8.23.07,2.6.42,5.19,1.01,7.74.54,2.33,1.29,4.65,2.45,6.82,1.07,2.02,2.58,4.05,4.91,5.23.27.14.55.26.83.37.11.04.3-.08.16-.14-2.42-.97-3.97-2.96-5.06-4.91-1.2-2.15-1.94-4.47-2.48-6.79-.57-2.43-.94-4.9-1.06-7.37-.14-2.74.06-5.5.64-8.2.58-2.73,1.55-5.41,2.76-7.99.16-.33.31-.67.48-1,.09-.19-.31-.21-.39-.07-1.52,2.57-2.67,5.27-3.37,8.07Z"/>
            <path class="st2" d="M136.47,466.01c-.68,2.71-.94,5.47-.87,8.23.07,2.6.42,5.19,1.01,7.74.54,2.33,1.29,4.65,2.45,6.82,1.07,2.02,2.58,4.05,4.91,5.23.27.14.55.26.83.37.11.04.3-.08.16-.14-2.42-.97-3.97-2.96-5.06-4.91-1.2-2.15-1.94-4.47-2.48-6.79-.57-2.43-.94-4.9-1.06-7.37-.14-2.74.06-5.5.64-8.2.58-2.73,1.55-5.41,2.76-7.99.16-.33.31-.67.48-1,.09-.19-.31-.21-.39-.07-1.52,2.57-2.67,5.27-3.37,8.07Z"/>
            <path class="st2" d="M144.78,456.28c-.68,2.71-.94,5.47-.87,8.23.07,2.6.42,5.19,1.01,7.74.54,2.33,1.29,4.65,2.45,6.82,1.07,2.02,2.58,4.05,4.91,5.23.27.14.55.26.83.37.11.04.3-.08.16-.14-2.42-.97-3.97-2.96-5.06-4.91-1.2-2.15-1.94-4.47-2.48-6.79-.57-2.43-.94-4.9-1.06-7.37-.14-2.74.06-5.5.64-8.2.58-2.73,1.55-5.41,2.76-7.99.16-.33.31-.67.48-1,.09-.19-.31-.21-.39-.07-1.52,2.57-2.67,5.27-3.37,8.07Z"/>
            <path class="st2" d="M148.64,474.57c-.68,2.71-.94,5.47-.87,8.23.07,2.6.42,5.19,1.01,7.74.54,2.33,1.29,4.65,2.45,6.82,1.07,2.02,2.58,4.05,4.91,5.23.27.14.55.26.83.37.11.04.3-.08.16-.14-2.42-.97-3.97-2.96-5.06-4.91-1.2-2.15-1.94-4.47-2.48-6.79-.57-2.43-.94-4.9-1.06-7.37-.14-2.74.06-5.5.64-8.2.58-2.73,1.55-5.41,2.76-7.99.16-.33.31-.67.48-1,.09-.19-.31-.21-.39-.07-1.52,2.57-2.67,5.27-3.37,8.07Z"/>
            <path class="st2" d="M164.15,484.3c-.68,2.71-.94,5.47-.87,8.23.07,2.6.42,5.19,1.01,7.74.54,2.33,1.29,4.65,2.45,6.82,1.07,2.02,2.58,4.05,4.91,5.23.27.14.55.26.83.37.11.04.3-.08.16-.14-2.42-.97-3.97-2.96-5.06-4.91-1.2-2.15-1.94-4.47-2.48-6.79-.57-2.43-.94-4.9-1.06-7.37-.14-2.74.06-5.5.64-8.2.58-2.73,1.55-5.41,2.76-7.99.16-.33.31-.67.48-1,.09-.19-.31-.21-.39-.07-1.52,2.57-2.67,5.27-3.37,8.07Z"/>
            <path class="st2" d="M159.44,461.62c-.68,2.71-.94,5.47-.87,8.23.07,2.6.42,5.19,1.01,7.74.54,2.33,1.29,4.65,2.45,6.82,1.07,2.02,2.58,4.05,4.91,5.23.27.14.55.26.83.37.11.04.3-.08.16-.14-2.42-.97-3.97-2.96-5.06-4.91-1.2-2.15-1.94-4.47-2.48-6.79-.57-2.43-.94-4.9-1.06-7.37-.14-2.74.06-5.5.64-8.2.58-2.73,1.55-5.41,2.76-7.99.16-.33.31-.67.48-1,.09-.19-.31-.21-.39-.07-1.52,2.57-2.67,5.27-3.37,8.07Z"/>
            <path class="st2" d="M179.34,492.98c-.68,2.71-.94,5.47-.87,8.23.07,2.6.42,5.19,1.01,7.74.54,2.33,1.29,4.65,2.45,6.82,1.07,2.02,2.58,4.05,4.91,5.23.27.14.55.26.83.37.11.04.3-.08.16-.14-2.42-.97-3.97-2.96-5.06-4.91-1.2-2.15-1.94-4.47-2.48-6.79-.57-2.43-.94-4.9-1.06-7.37-.14-2.74.06-5.5.64-8.2.58-2.73,1.55-5.41,2.76-7.99.16-.33.31-.67.48-1,.09-.19-.31-.21-.39-.07-1.52,2.57-2.67,5.27-3.37,8.07Z"/>
            <path class="st2" d="M172.03,465.28c-.68,2.71-.94,5.47-.87,8.23.07,2.6.42,5.19,1.01,7.74.54,2.33,1.29,4.65,2.45,6.82,1.07,2.02,2.58,4.05,4.91,5.23.27.14.55.26.83.37.11.04.3-.08.16-.14-2.42-.97-3.97-2.96-5.06-4.91-1.2-2.15-1.94-4.47-2.48-6.79-.57-2.43-.94-4.9-1.06-7.37-.14-2.74.06-5.5.64-8.2.58-2.73,1.55-5.41,2.76-7.99.16-.33.31-.67.48-1,.09-.19-.31-.21-.39-.07-1.52,2.57-2.67,5.27-3.37,8.07Z"/>
            <path class="st2" d="M193.28,499.19c-.68,2.71-.94,5.47-.87,8.23.07,2.6.42,5.19,1.01,7.74.54,2.33,1.29,4.65,2.45,6.82,1.07,2.02,2.58,4.05,4.91,5.23.27.14.55.26.83.37.11.04.3-.08.16-.14-2.42-.97-3.97-2.96-5.06-4.91-1.2-2.15-1.94-4.47-2.48-6.79-.57-2.43-.94-4.9-1.06-7.37-.14-2.74.06-5.5.64-8.2.58-2.73,1.55-5.41,2.76-7.99.16-.33.31-.67.48-1,.09-.19-.31-.21-.39-.07-1.52,2.57-2.67,5.27-3.37,8.07Z"/>
            <path class="st2" d="M195.01,471.74c-.68,2.71-.94,5.47-.87,8.23.07,2.6.42,5.19,1.01,7.74.54,2.33,1.29,4.65,2.45,6.82,1.07,2.02,2.58,4.05,4.91,5.23.27.14.55.26.83.37.11.04.3-.08.16-.14-2.42-.97-3.97-2.96-5.06-4.91-1.2-2.15-1.94-4.47-2.48-6.79-.57-2.43-.94-4.9-1.06-7.37-.14-2.74.06-5.5.64-8.2.58-2.73,1.55-5.41,2.76-7.99.16-.33.31-.67.48-1,.09-.19-.31-.21-.39-.07-1.52,2.57-2.67,5.27-3.37,8.07Z"/>
            <path class="st2" d="M184.05,469.96c-.68,2.71-.94,5.47-.87,8.23.07,2.6.42,5.19,1.01,7.74.54,2.33,1.29,4.65,2.45,6.82,1.07,2.02,2.58,4.05,4.91,5.23.27.14.55.26.83.37.11.04.3-.08.16-.14-2.42-.97-3.97-2.96-5.06-4.91-1.2-2.15-1.94-4.47-2.48-6.79-.57-2.43-.94-4.9-1.06-7.37-.14-2.74.06-5.5.64-8.2.58-2.73,1.55-5.41,2.76-7.99.16-.33.31-.67.48-1,.09-.19-.31-.21-.39-.07-1.52,2.57-2.67,5.27-3.37,8.07Z"/>
            <path class="st2" d="M184.05,529.55c-.68,2.71-.94,5.47-.87,8.23.07,2.6.42,5.19,1.01,7.74.54,2.33,1.29,4.65,2.45,6.82,1.07,2.02,2.58,4.05,4.91,5.23.27.14.55.26.83.37.11.04.3-.08.16-.14-2.42-.97-3.97-2.96-5.06-4.91-1.2-2.15-1.94-4.47-2.48-6.79-.57-2.43-.94-4.9-1.06-7.37-.14-2.74.06-5.5.64-8.2.58-2.73,1.55-5.41,2.76-7.99.16-.33.31-.67.48-1,.09-.19-.31-.21-.39-.07-1.52,2.57-2.67,5.27-3.37,8.07Z"/>
            <path class="st2" d="M153.35,529.55c-.68,2.71-.94,5.47-.87,8.23.07,2.6.42,5.19,1.01,7.74.54,2.33,1.29,4.65,2.45,6.82,1.07,2.02,2.58,4.05,4.91,5.23.27.14.55.26.83.37.11.04.3-.08.16-.14-2.42-.97-3.97-2.96-5.06-4.91-1.2-2.15-1.94-4.47-2.48-6.79-.57-2.43-.94-4.9-1.06-7.37-.14-2.74.06-5.5.64-8.2.58-2.73,1.55-5.41,2.76-7.99.16-.33.31-.67.48-1,.09-.19-.31-.21-.39-.07-1.52,2.57-2.67,5.27-3.37,8.07Z"/>
            <path class="st2" d="M93.8,430.61c-.68,2.71-.94,5.47-.87,8.23.07,2.6.42,5.19,1.01,7.74.54,2.33,1.29,4.65,2.45,6.82,1.07,2.02,2.58,4.05,4.91,5.23.27.14.55.26.83.37.11.04.3-.08.16-.14-2.42-.97-3.97-2.96-5.06-4.91-1.2-2.15-1.94-4.47-2.48-6.79-.57-2.43-.94-4.9-1.06-7.37-.14-2.74.06-5.5.64-8.2.58-2.73,1.55-5.41,2.76-7.99.16-.33.31-.67.48-1,.09-.19-.31-.21-.39-.07-1.52,2.57-2.67,5.27-3.37,8.07Z"/>
            <path class="st2" d="M106.63,449.5c-.68,2.71-.94,5.47-.87,8.23.07,2.6.42,5.19,1.01,7.74.54,2.33,1.29,4.65,2.45,6.82,1.07,2.02,2.58,4.05,4.91,5.23.27.14.55.26.83.37.11.04.3-.08.16-.14-2.42-.97-3.97-2.96-5.06-4.91-1.2-2.15-1.94-4.47-2.48-6.79-.57-2.43-.94-4.9-1.06-7.37-.14-2.74.06-5.5.64-8.2.58-2.73,1.55-5.41,2.76-7.99.16-.33.31-.67.48-1,.09-.19-.31-.21-.39-.07-1.52,2.57-2.67,5.27-3.37,8.07Z"/>
            <path class="st2" d="M120.76,467.78c-.68,2.71-.94,5.47-.87,8.23.07,2.6.42,5.19,1.01,7.74.54,2.33,1.29,4.65,2.45,6.82,1.07,2.02,2.58,4.05,4.91,5.23.27.14.55.26.83.37.11.04.3-.08.16-.14-2.42-.97-3.97-2.96-5.06-4.91-1.2-2.15-1.94-4.47-2.48-6.79-.57-2.43-.94-4.9-1.06-7.37-.14-2.74.06-5.5.64-8.2.58-2.73,1.55-5.41,2.76-7.99.16-.33.31-.67.48-1,.09-.19-.31-.21-.39-.07-1.52,2.57-2.67,5.27-3.37,8.07Z"/>
            <path class="st2" d="M141.18,486.07c-.68,2.71-.94,5.47-.87,8.23.07,2.6.42,5.19,1.01,7.74.54,2.33,1.29,4.65,2.45,6.82,1.07,2.02,2.58,4.05,4.91,5.23.27.14.55.26.83.37.11.04.3-.08.16-.14-2.42-.97-3.97-2.96-5.06-4.91-1.2-2.15-1.94-4.47-2.48-6.79-.57-2.43-.94-4.9-1.06-7.37-.14-2.74.06-5.5.64-8.2.58-2.73,1.55-5.41,2.76-7.99.16-.33.31-.67.48-1,.09-.19-.31-.21-.39-.07-1.52,2.57-2.67,5.27-3.37,8.07Z"/>
            <path class="st2" d="M156.19,497.92c-.68,2.71-.94,5.47-.87,8.23.07,2.6.42,5.19,1.01,7.74.54,2.33,1.29,4.65,2.45,6.82,1.07,2.02,2.58,4.05,4.91,5.23.27.14.55.26.83.37.11.04.3-.08.16-.14-2.42-.97-3.97-2.96-5.06-4.91-1.2-2.15-1.94-4.47-2.48-6.79-.57-2.43-.94-4.9-1.06-7.37-.14-2.74.06-5.5.64-8.2.58-2.73,1.55-5.41,2.76-7.99.16-.33.31-.67.48-1,.09-.19-.31-.21-.39-.07-1.52,2.57-2.67,5.27-3.37,8.07Z"/>
            <path class="st2" d="M173.57,509.61c-.68,2.71-.94,5.47-.87,8.23.07,2.6.42,5.19,1.01,7.74.54,2.33,1.29,4.65,2.45,6.82,1.07,2.02,2.58,4.05,4.91,5.23.27.14.55.26.83.37.11.04.3-.08.16-.14-2.42-.97-3.97-2.96-5.06-4.91-1.2-2.15-1.94-4.47-2.48-6.79-.57-2.43-.94-4.9-1.06-7.37-.14-2.74.06-5.5.64-8.2.58-2.73,1.55-5.41,2.76-7.99.16-.33.31-.67.48-1,.09-.19-.31-.21-.39-.07-1.52,2.57-2.67,5.27-3.37,8.07Z"/>
            <path class="st2" d="M192.15,519.08c-.68,2.71-.94,5.47-.87,8.23.07,2.6.42,5.19,1.01,7.74.54,2.33,1.29,4.65,2.45,6.82,1.07,2.02,2.58,4.05,4.91,5.23.27.14.55.26.83.37.11.04.3-.08.16-.14-2.42-.97-3.97-2.96-5.06-4.91-1.2-2.15-1.94-4.47-2.48-6.79-.57-2.43-.94-4.9-1.06-7.37-.14-2.74.06-5.5.64-8.2.58-2.73,1.55-5.41,2.76-7.99.16-.33.31-.67.48-1,.09-.19-.31-.21-.39-.07-1.52,2.57-2.67,5.27-3.37,8.07Z"/>
            <path class="st2" d="M197.99,533.75c-.68,2.71-.94,5.47-.87,8.23.07,2.6.42,5.19,1.01,7.74.54,2.33,1.29,4.65,2.45,6.82,1.07,2.02,2.58,4.05,4.91,5.23.27.14.55.26.83.37.11.04.3-.08.16-.14-2.42-.97-3.97-2.96-5.06-4.91-1.2-2.15-1.94-4.47-2.48-6.79-.57-2.43-.94-4.9-1.06-7.37-.14-2.74.06-5.5.64-8.2.58-2.73,1.55-5.41,2.76-7.99.16-.33.31-.67.48-1,.09-.19-.31-.21-.39-.07-1.52,2.57-2.67,5.27-3.37,8.07Z"/>
            <path class="st2" d="M80.16,453.45c-.68,2.71-.94,5.47-.87,8.23.07,2.6.42,5.19,1.01,7.74.54,2.33,1.29,4.65,2.45,6.82,1.07,2.02,2.58,4.05,4.91,5.23.27.14.55.26.83.37.11.04.3-.08.16-.14-2.42-.97-3.97-2.96-5.06-4.91-1.2-2.15-1.94-4.47-2.48-6.79-.57-2.43-.94-4.9-1.06-7.37-.14-2.74.06-5.5.64-8.2.58-2.73,1.55-5.41,2.76-7.99.16-.33.31-.67.48-1,.09-.19-.31-.21-.39-.07-1.52,2.57-2.67,5.27-3.37,8.07Z"/>
            <path class="st2" d="M70.74,454.76c-.68,2.71-.94,5.47-.87,8.23.07,2.6.42,5.19,1.01,7.74.54,2.33,1.29,4.65,2.45,6.82,1.07,2.02,2.58,4.05,4.91,5.23.27.14.55.26.83.37.11.04.3-.08.16-.14-2.42-.97-3.97-2.96-5.06-4.91-1.2-2.15-1.94-4.47-2.48-6.79-.57-2.43-.94-4.9-1.06-7.37-.14-2.74.06-5.5.64-8.2.58-2.73,1.55-5.41,2.76-7.99.16-.33.31-.67.48-1,.09-.19-.31-.21-.39-.07-1.52,2.57-2.67,5.27-3.37,8.07Z"/>
            <path class="st2" d="M92.72,462.68c-.68,2.71-.94,5.47-.87,8.23.07,2.6.42,5.19,1.01,7.74.54,2.33,1.29,4.65,2.45,6.82,1.07,2.02,2.58,4.05,4.91,5.23.27.14.55.26.83.37.11.04.3-.08.16-.14-2.42-.97-3.97-2.96-5.06-4.91-1.2-2.15-1.94-4.47-2.48-6.79-.57-2.43-.94-4.9-1.06-7.37-.14-2.74.06-5.5.64-8.2.58-2.73,1.55-5.41,2.76-7.99.16-.33.31-.67.48-1,.09-.19-.31-.21-.39-.07-1.52,2.57-2.67,5.27-3.37,8.07Z"/>
            <path class="st2" d="M84.87,479.91c-.68,2.71-.94,5.47-.87,8.23.07,2.6.42,5.19,1.01,7.74.54,2.33,1.29,4.65,2.45,6.82,1.07,2.02,2.58,4.05,4.91,5.23.27.14.55.26.83.37.11.04.3-.08.16-.14-2.42-.97-3.97-2.96-5.06-4.91-1.2-2.15-1.94-4.47-2.48-6.79-.57-2.43-.94-4.9-1.06-7.37-.14-2.74.06-5.5.64-8.2.58-2.73,1.55-5.41,2.76-7.99.16-.33.31-.67.48-1,.09-.19-.31-.21-.39-.07-1.52,2.57-2.67,5.27-3.37,8.07Z"/>
            <path class="st2" d="M109.56,478.72c-.68,2.71-.94,5.47-.87,8.23.07,2.6.42,5.19,1.01,7.74.54,2.33,1.29,4.65,2.45,6.82,1.07,2.02,2.58,4.05,4.91,5.23.27.14.55.26.83.37.11.04.3-.08.16-.14-2.42-.97-3.97-2.96-5.06-4.91-1.2-2.15-1.94-4.47-2.48-6.79-.57-2.43-.94-4.9-1.06-7.37-.14-2.74.06-5.5.64-8.2.58-2.73,1.55-5.41,2.76-7.99.16-.33.31-.67.48-1,.09-.19-.31-.21-.39-.07-1.52,2.57-2.67,5.27-3.37,8.07Z"/>
            <path class="st2" d="M98.51,495.39c-.68,2.71-.94,5.47-.87,8.23.07,2.6.42,5.19,1.01,7.74.54,2.33,1.29,4.65,2.45,6.82,1.07,2.02,2.58,4.05,4.91,5.23.27.14.55.26.83.37.11.04.3-.08.16-.14-2.42-.97-3.97-2.96-5.06-4.91-1.2-2.15-1.94-4.47-2.48-6.79-.57-2.43-.94-4.9-1.06-7.37-.14-2.74.06-5.5.64-8.2.58-2.73,1.55-5.41,2.76-7.99.16-.33.31-.67.48-1,.09-.19-.31-.21-.39-.07-1.52,2.57-2.67,5.27-3.37,8.07Z"/>
            <path class="st2" d="M125.47,495.12c-.68,2.71-.94,5.47-.87,8.23.07,2.6.42,5.19,1.01,7.74.54,2.33,1.29,4.65,2.45,6.82,1.07,2.02,2.58,4.05,4.91,5.23.27.14.55.26.83.37.11.04.3-.08.16-.14-2.42-.97-3.97-2.96-5.06-4.91-1.2-2.15-1.94-4.47-2.48-6.79-.57-2.43-.94-4.9-1.06-7.37-.14-2.74.06-5.5.64-8.2.58-2.73,1.55-5.41,2.76-7.99.16-.33.31-.67.48-1,.09-.19-.31-.21-.39-.07-1.52,2.57-2.67,5.27-3.37,8.07Z"/>
            <path class="st2" d="M115.55,502.22c-.68,2.71-.94,5.47-.87,8.23.07,2.6.42,5.19,1.01,7.74.54,2.33,1.29,4.65,2.45,6.82,1.07,2.02,2.58,4.05,4.91,5.23.27.14.55.26.83.37.11.04.3-.08.16-.14-2.42-.97-3.97-2.96-5.06-4.91-1.2-2.15-1.94-4.47-2.48-6.79-.57-2.43-.94-4.9-1.06-7.37-.14-2.74.06-5.5.64-8.2.58-2.73,1.55-5.41,2.76-7.99.16-.33.31-.67.48-1,.09-.19-.31-.21-.39-.07-1.52,2.57-2.67,5.27-3.37,8.07Z"/>
            <path class="st2" d="M141.18,506.39c-.68,2.71-.94,5.47-.87,8.23.07,2.6.42,5.19,1.01,7.74.54,2.33,1.29,4.65,2.45,6.82,1.07,2.02,2.58,4.05,4.91,5.23.27.14.55.26.83.37.11.04.3-.08.16-.14-2.42-.97-3.97-2.96-5.06-4.91-1.2-2.15-1.94-4.47-2.48-6.79-.57-2.43-.94-4.9-1.06-7.37-.14-2.74.06-5.5.64-8.2.58-2.73,1.55-5.41,2.76-7.99.16-.33.31-.67.48-1,.09-.19-.31-.21-.39-.07-1.52,2.57-2.67,5.27-3.37,8.07Z"/>
            <path class="st2" d="M134.89,514.53c-.68,2.71-.94,5.47-.87,8.23.07,2.6.42,5.19,1.01,7.74.54,2.33,1.29,4.65,2.45,6.82,1.07,2.02,2.58,4.05,4.91,5.23.27.14.55.26.83.37.11.04.3-.08.16-.14-2.42-.97-3.97-2.96-5.06-4.91-1.2-2.15-1.94-4.47-2.48-6.79-.57-2.43-.94-4.9-1.06-7.37-.14-2.74.06-5.5.64-8.2.58-2.73,1.55-5.41,2.76-7.99.16-.33.31-.67.48-1,.09-.19-.31-.21-.39-.07-1.52,2.57-2.67,5.27-3.37,8.07Z"/>
            <path class="st2" d="M162.61,520.51c-.68,2.71-.94,5.47-.87,8.23.07,2.6.42,5.19,1.01,7.74.54,2.33,1.29,4.65,2.45,6.82,1.07,2.02,2.58,4.05,4.91,5.23.27.14.55.26.83.37.11.04.3-.08.16-.14-2.42-.97-3.97-2.96-5.06-4.91-1.2-2.15-1.94-4.47-2.48-6.79-.57-2.43-.94-4.9-1.06-7.37-.14-2.74.06-5.5.64-8.2.58-2.73,1.55-5.41,2.76-7.99.16-.33.31-.67.48-1,.09-.19-.31-.21-.39-.07-1.52,2.57-2.67,5.27-3.37,8.07Z"/>
            <path class="st2" d="M56,370.29c-.68,2.71-.94,5.47-.87,8.23.07,2.6.42,5.19,1.01,7.74.54,2.33,1.29,4.65,2.45,6.82,1.07,2.02,2.58,4.05,4.91,5.23.27.14.55.26.83.37.11.04.3-.08.16-.14-2.42-.97-3.97-2.96-5.06-4.91-1.2-2.15-1.94-4.47-2.48-6.79-.57-2.43-.94-4.9-1.06-7.37-.14-2.74.06-5.5.64-8.2.58-2.73,1.55-5.41,2.76-7.99.16-.33.31-.67.48-1,.09-.19-.31-.21-.39-.07-1.52,2.57-2.67,5.27-3.37,8.07Z"/>
            <path class="st2" d="M64.29,362.61c-.68,2.71-.94,5.47-.87,8.23.07,2.6.42,5.19,1.01,7.74.54,2.33,1.29,4.65,2.45,6.82,1.07,2.02,2.58,4.05,4.91,5.23.27.14.55.26.83.37.11.04.3-.08.16-.14-2.42-.97-3.97-2.96-5.06-4.91-1.2-2.15-1.94-4.47-2.48-6.79-.57-2.43-.94-4.9-1.06-7.37-.14-2.74.06-5.5.64-8.2.58-2.73,1.55-5.41,2.76-7.99.16-.33.31-.67.48-1,.09-.19-.31-.21-.39-.07-1.52,2.57-2.67,5.27-3.37,8.07Z"/>
            <path class="st2" d="M50.16,323.45c-.68,2.71-.94,5.47-.87,8.23.07,2.6.42,5.19,1.01,7.74.54,2.33,1.29,4.65,2.45,6.82,1.07,2.02,2.58,4.05,4.91,5.23.27.14.55.26.83.37.11.04.3-.08.16-.14-2.42-.97-3.97-2.96-5.06-4.91-1.2-2.15-1.94-4.47-2.48-6.79-.57-2.43-.94-4.9-1.06-7.37-.14-2.74.06-5.5.64-8.2.58-2.73,1.55-5.41,2.76-7.99.16-.33.31-.67.48-1,.09-.19-.31-.21-.39-.07-1.52,2.57-2.67,5.27-3.37,8.07Z"/>
          </g>
          <g>
            <path class="st2" d="M347.59,334.03c.7,2.7.99,5.46.94,8.23-.05,2.6-.38,5.19-.95,7.74-.52,2.34-1.25,4.66-2.39,6.84-1.06,2.03-2.55,4.07-4.87,5.27-.27.14-.55.26-.83.38-.11.04-.31-.08-.16-.14,2.41-.99,3.94-2.99,5.02-4.95,1.18-2.16,1.9-4.49,2.43-6.81.55-2.43.9-4.91,1-7.38.12-2.74-.1-5.49-.7-8.19-.61-2.73-1.59-5.4-2.83-7.97-.16-.33-.32-.66-.49-.99-.09-.19.31-.21.39-.07,1.54,2.56,2.71,5.25,3.43,8.05Z"/>
            <path class="st2" d="M341.21,352.37c.7,2.7.99,5.46.94,8.23-.05,2.6-.38,5.19-.95,7.74-.52,2.34-1.25,4.66-2.39,6.84-1.06,2.03-2.55,4.07-4.87,5.27-.27.14-.55.26-.83.38-.11.04-.31-.08-.16-.14,2.41-.99,3.94-2.99,5.02-4.95,1.18-2.16,1.9-4.49,2.43-6.81.55-2.43.9-4.91,1-7.38.12-2.74-.1-5.49-.7-8.19-.61-2.73-1.59-5.4-2.83-7.97-.16-.33-.32-.66-.49-.99-.09-.19.31-.21.39-.07,1.54,2.56,2.71,5.25,3.43,8.05Z"/>
            <path class="st2" d="M330.21,372.07c.7,2.7.99,5.46.94,8.23-.05,2.6-.38,5.19-.95,7.74-.52,2.34-1.25,4.66-2.39,6.84-1.06,2.03-2.55,4.07-4.87,5.27-.27.14-.55.26-.83.38-.11.04-.31-.08-.16-.14,2.41-.99,3.94-2.99,5.02-4.95,1.18-2.16,1.9-4.49,2.43-6.81.55-2.43.9-4.91,1-7.38.12-2.74-.1-5.49-.7-8.19-.61-2.73-1.59-5.4-2.83-7.97-.16-.33-.32-.66-.49-.99-.09-.19.31-.21.39-.07,1.54,2.56,2.71,5.25,3.43,8.05Z"/>
            <path class="st2" d="M343.35,393.68c.7,2.7.99,5.46.94,8.23-.05,2.6-.38,5.19-.95,7.74-.52,2.34-1.25,4.66-2.39,6.84-1.06,2.03-2.55,4.07-4.87,5.27-.27.14-.55.26-.83.38-.11.04-.31-.08-.16-.14,2.41-.99,3.94-2.99,5.02-4.95,1.18-2.16,1.9-4.49,2.43-6.81.55-2.43.9-4.91,1-7.38.12-2.74-.1-5.49-.7-8.19-.61-2.73-1.59-5.4-2.83-7.97-.16-.33-.32-.66-.49-.99-.09-.19.31-.21.39-.07,1.54,2.56,2.71,5.25,3.43,8.05Z"/>
            <path class="st2" d="M333.88,387.42c.7,2.7.99,5.46.94,8.23-.05,2.6-.38,5.19-.95,7.74-.52,2.34-1.25,4.66-2.39,6.84-1.06,2.03-2.55,4.07-4.87,5.27-.27.14-.55.26-.83.38-.11.04-.31-.08-.16-.14,2.41-.99,3.94-2.99,5.02-4.95,1.18-2.16,1.9-4.49,2.43-6.81.55-2.43.9-4.91,1-7.38.12-2.74-.1-5.49-.7-8.19-.61-2.73-1.59-5.4-2.83-7.97-.16-.33-.32-.66-.49-.99-.09-.19.31-.21.39-.07,1.54,2.56,2.71,5.25,3.43,8.05Z"/>
            <path class="st2" d="M320.88,384.72c.7,2.7.99,5.46.94,8.23-.05,2.6-.38,5.19-.95,7.74-.52,2.34-1.25,4.66-2.39,6.84-1.06,2.03-2.55,4.07-4.87,5.27-.27.14-.55.26-.83.38-.11.04-.31-.08-.16-.14,2.41-.99,3.94-2.99,5.02-4.95,1.18-2.16,1.9-4.49,2.43-6.81.55-2.43.9-4.91,1-7.38.12-2.74-.1-5.49-.7-8.19-.61-2.73-1.59-5.4-2.83-7.97-.16-.33-.32-.66-.49-.99-.09-.19.31-.21.39-.07,1.54,2.56,2.71,5.25,3.43,8.05Z"/>
            <path class="st2" d="M313.69,396.2c.7,2.7.99,5.46.94,8.23-.05,2.6-.38,5.19-.95,7.74-.52,2.34-1.25,4.66-2.39,6.84-1.06,2.03-2.55,4.07-4.87,5.27-.27.14-.55.26-.83.38-.11.04-.31-.08-.16-.14,2.41-.99,3.94-2.99,5.02-4.95,1.18-2.16,1.9-4.49,2.43-6.81.55-2.43.9-4.91,1-7.38.12-2.74-.1-5.49-.7-8.19-.61-2.73-1.59-5.4-2.83-7.97-.16-.33-.32-.66-.49-.99-.09-.19.31-.21.39-.07,1.54,2.56,2.71,5.25,3.43,8.05Z"/>
            <path class="st2" d="M327.49,405.75c.7,2.7.99,5.46.94,8.23-.05,2.6-.38,5.19-.95,7.74-.52,2.34-1.25,4.66-2.39,6.84-1.06,2.03-2.55,4.07-4.87,5.27-.27.14-.55.26-.83.38-.11.04-.31-.08-.16-.14,2.41-.99,3.94-2.99,5.02-4.95,1.18-2.16,1.9-4.49,2.43-6.81.55-2.43.9-4.91,1-7.38.12-2.74-.1-5.49-.7-8.19-.61-2.73-1.59-5.4-2.83-7.97-.16-.33-.32-.66-.49-.99-.09-.19.31-.21.39-.07,1.54,2.56,2.71,5.25,3.43,8.05Z"/>
            <path class="st2" d="M334.19,427.36c.7,2.7.99,5.46.94,8.23-.05,2.6-.38,5.19-.95,7.74-.52,2.34-1.25,4.66-2.39,6.84-1.06,2.03-2.55,4.07-4.87,5.27-.27.14-.55.26-.83.38-.11.04-.31-.08-.16-.14,2.41-.99,3.94-2.99,5.02-4.95,1.18-2.16,1.9-4.49,2.43-6.81.55-2.43.9-4.91,1-7.38.12-2.74-.1-5.49-.7-8.19-.61-2.73-1.59-5.4-2.83-7.97-.16-.33-.32-.66-.49-.99-.09-.19.31-.21.39-.07,1.54,2.56,2.71,5.25,3.43,8.05Z"/>
            <path class="st2" d="M343.65,432.34c.7,2.7.99,5.46.94,8.23-.05,2.6-.38,5.19-.95,7.74-.52,2.34-1.25,4.66-2.39,6.84-1.06,2.03-2.55,4.07-4.87,5.27-.27.14-.55.26-.83.38-.11.04-.31-.08-.16-.14,2.41-.99,3.94-2.99,5.02-4.95,1.18-2.16,1.9-4.49,2.43-6.81.55-2.43.9-4.91,1-7.38.12-2.74-.1-5.49-.7-8.19-.61-2.73-1.59-5.4-2.83-7.97-.16-.33-.32-.66-.49-.99-.09-.19.31-.21.39-.07,1.54,2.56,2.71,5.25,3.43,8.05Z"/>
            <path class="st2" d="M321.15,419.37c.7,2.7.99,5.46.94,8.23-.05,2.6-.38,5.19-.95,7.74-.52,2.34-1.25,4.66-2.39,6.84-1.06,2.03-2.55,4.07-4.87,5.27-.27.14-.55.26-.83.38-.11.04-.31-.08-.16-.14,2.41-.99,3.94-2.99,5.02-4.95,1.18-2.16,1.9-4.49,2.43-6.81.55-2.43.9-4.91,1-7.38.12-2.74-.1-5.49-.7-8.19-.61-2.73-1.59-5.4-2.83-7.97-.16-.33-.32-.66-.49-.99-.09-.19.31-.21.39-.07,1.54,2.56,2.71,5.25,3.43,8.05Z"/>
            <path class="st2" d="M303.61,412.31c.7,2.7.99,5.46.94,8.23-.05,2.6-.38,5.19-.95,7.74-.52,2.34-1.25,4.66-2.39,6.84-1.06,2.03-2.55,4.07-4.87,5.27-.27.14-.55.26-.83.38-.11.04-.31-.08-.16-.14,2.41-.99,3.94-2.99,5.02-4.95,1.18-2.16,1.9-4.49,2.43-6.81.55-2.43.9-4.91,1-7.38.12-2.74-.1-5.49-.7-8.19-.61-2.73-1.59-5.4-2.83-7.97-.16-.33-.32-.66-.49-.99-.09-.19.31-.21.39-.07,1.54,2.56,2.71,5.25,3.43,8.05Z"/>
            <path class="st2" d="M294.92,426.22c.7,2.7.99,5.46.94,8.23-.05,2.6-.38,5.19-.95,7.74-.52,2.34-1.25,4.66-2.39,6.84-1.06,2.03-2.55,4.07-4.87,5.27-.27.14-.55.26-.83.38-.11.04-.31-.08-.16-.14,2.41-.99,3.94-2.99,5.02-4.95,1.18-2.16,1.9-4.49,2.43-6.81.55-2.43.9-4.91,1-7.38.12-2.74-.1-5.49-.7-8.19-.61-2.73-1.59-5.4-2.83-7.97-.16-.33-.32-.66-.49-.99-.09-.19.31-.21.39-.07,1.54,2.56,2.71,5.25,3.43,8.05Z"/>
            <path class="st2" d="M285.38,435.11c.7,2.7.99,5.46.94,8.23-.05,2.6-.38,5.19-.95,7.74-.52,2.34-1.25,4.66-2.39,6.84-1.06,2.03-2.55,4.07-4.87,5.27-.27.14-.55.26-.83.38-.11.04-.31-.08-.16-.14,2.41-.99,3.94-2.99,5.02-4.95,1.18-2.16,1.9-4.49,2.43-6.81.55-2.43.9-4.91,1-7.38.12-2.74-.1-5.49-.7-8.19-.61-2.73-1.59-5.4-2.83-7.97-.16-.33-.32-.66-.49-.99-.09-.19.31-.21.39-.07,1.54,2.56,2.71,5.25,3.43,8.05Z"/>
            <path class="st2" d="M276.11,454.36c.7,2.7.99,5.46.94,8.23-.05,2.6-.38,5.19-.95,7.74-.52,2.34-1.25,4.66-2.39,6.84-1.06,2.03-2.55,4.07-4.87,5.27-.27.14-.55.26-.83.38-.11.04-.31-.08-.16-.14,2.41-.99,3.94-2.99,5.02-4.95,1.18-2.16,1.9-4.49,2.43-6.81.55-2.43.9-4.91,1-7.38.12-2.74-.1-5.49-.7-8.19-.61-2.73-1.59-5.4-2.83-7.97-.16-.33-.32-.66-.49-.99-.09-.19.31-.21.39-.07,1.54,2.56,2.71,5.25,3.43,8.05Z"/>
            <path class="st2" d="M272.91,431.25c.7,2.7.99,5.46.94,8.23-.05,2.6-.38,5.19-.95,7.74-.52,2.34-1.25,4.66-2.39,6.84-1.06,2.03-2.55,4.07-4.87,5.27-.27.14-.55.26-.83.38-.11.04-.31-.08-.16-.14,2.41-.99,3.94-2.99,5.02-4.95,1.18-2.16,1.9-4.49,2.43-6.81.55-2.43.9-4.91,1-7.38.12-2.74-.1-5.49-.7-8.19-.61-2.73-1.59-5.4-2.83-7.97-.16-.33-.32-.66-.49-.99-.09-.19.31-.21.39-.07,1.54,2.56,2.71,5.25,3.43,8.05Z"/>
            <path class="st2" d="M265.21,466.11c.7,2.7.99,5.46.94,8.23-.05,2.6-.38,5.19-.95,7.74-.52,2.34-1.25,4.66-2.39,6.84-1.06,2.03-2.55,4.07-4.87,5.27-.27.14-.55.26-.83.38-.11.04-.31-.08-.16-.14,2.41-.99,3.94-2.99,5.02-4.95,1.18-2.16,1.9-4.49,2.43-6.81.55-2.43.9-4.91,1-7.38.12-2.74-.1-5.49-.7-8.19-.61-2.73-1.59-5.4-2.83-7.97-.16-.33-.32-.66-.49-.99-.09-.19.31-.21.39-.07,1.54,2.56,2.71,5.25,3.43,8.05Z"/>
            <path class="st2" d="M256.82,456.45c.7,2.7.99,5.46.94,8.23-.05,2.6-.38,5.19-.95,7.74-.52,2.34-1.25,4.66-2.39,6.84-1.06,2.03-2.55,4.07-4.87,5.27-.27.14-.55.26-.83.38-.11.04-.31-.08-.16-.14,2.41-.99,3.94-2.99,5.02-4.95,1.18-2.16,1.9-4.49,2.43-6.81.55-2.43.9-4.91,1-7.38.12-2.74-.1-5.49-.7-8.19-.61-2.73-1.59-5.4-2.83-7.97-.16-.33-.32-.66-.49-.99-.09-.19.31-.21.39-.07,1.54,2.56,2.71,5.25,3.43,8.05Z"/>
            <path class="st2" d="M253.1,474.76c.7,2.7.99,5.46.94,8.23-.05,2.6-.38,5.19-.95,7.74-.52,2.34-1.25,4.66-2.39,6.84-1.06,2.03-2.55,4.07-4.87,5.27-.27.14-.55.26-.83.38-.11.04-.31-.08-.16-.14,2.41-.99,3.94-2.99,5.02-4.95,1.18-2.16,1.9-4.49,2.43-6.81.55-2.43.9-4.91,1-7.38.12-2.74-.1-5.49-.7-8.19-.61-2.73-1.59-5.4-2.83-7.97-.16-.33-.32-.66-.49-.99-.09-.19.31-.21.39-.07,1.54,2.56,2.71,5.25,3.43,8.05Z"/>
            <path class="st2" d="M237.67,484.61c.7,2.7.99,5.46.94,8.23-.05,2.6-.38,5.19-.95,7.74-.52,2.34-1.25,4.66-2.39,6.84-1.06,2.03-2.55,4.07-4.87,5.27-.27.14-.55.26-.83.38-.11.04-.31-.08-.16-.14,2.41-.99,3.94-2.99,5.02-4.95,1.18-2.16,1.9-4.49,2.43-6.81.55-2.43.9-4.91,1-7.38.12-2.74-.1-5.49-.7-8.19-.61-2.73-1.59-5.4-2.83-7.97-.16-.33-.32-.66-.49-.99-.09-.19.31-.21.39-.07,1.54,2.56,2.71,5.25,3.43,8.05Z"/>
            <path class="st2" d="M242.21,461.9c.7,2.7.99,5.46.94,8.23-.05,2.6-.38,5.19-.95,7.74-.52,2.34-1.25,4.66-2.39,6.84-1.06,2.03-2.55,4.07-4.87,5.27-.27.14-.55.26-.83.38-.11.04-.31-.08-.16-.14,2.41-.99,3.94-2.99,5.02-4.95,1.18-2.16,1.9-4.49,2.43-6.81.55-2.43.9-4.91,1-7.38.12-2.74-.1-5.49-.7-8.19-.61-2.73-1.59-5.4-2.83-7.97-.16-.33-.32-.66-.49-.99-.09-.19.31-.21.39-.07,1.54,2.56,2.71,5.25,3.43,8.05Z"/>
            <path class="st2" d="M222.55,493.42c.7,2.7.99,5.46.94,8.23-.05,2.6-.38,5.19-.95,7.74-.52,2.34-1.25,4.66-2.39,6.84-1.06,2.03-2.55,4.07-4.87,5.27-.27.14-.55.26-.83.38-.11.04-.31-.08-.16-.14,2.41-.99,3.94-2.99,5.02-4.95,1.18-2.16,1.9-4.49,2.43-6.81.55-2.43.9-4.91,1-7.38.12-2.74-.1-5.49-.7-8.19-.61-2.73-1.59-5.4-2.83-7.97-.16-.33-.32-.66-.49-.99-.09-.19.31-.21.39-.07,1.54,2.56,2.71,5.25,3.43,8.05Z"/>
            <path class="st2" d="M229.65,465.66c.7,2.7.99,5.46.94,8.23-.05,2.6-.38,5.19-.95,7.74-.52,2.34-1.25,4.66-2.39,6.84-1.06,2.03-2.55,4.07-4.87,5.27-.27.14-.55.26-.83.38-.11.04-.31-.08-.16-.14,2.41-.99,3.94-2.99,5.02-4.95,1.18-2.16,1.9-4.49,2.43-6.81.55-2.43.9-4.91,1-7.38.12-2.74-.1-5.49-.7-8.19-.61-2.73-1.59-5.4-2.83-7.97-.16-.33-.32-.66-.49-.99-.09-.19.31-.21.39-.07,1.54,2.56,2.71,5.25,3.43,8.05Z"/>
            <path class="st2" d="M208.66,499.74c.7,2.7.99,5.46.94,8.23-.05,2.6-.38,5.19-.95,7.74-.52,2.34-1.25,4.66-2.39,6.84-1.06,2.03-2.55,4.07-4.87,5.27-.27.14-.55.26-.83.38-.11.04-.31-.08-.16-.14,2.41-.99,3.94-2.99,5.02-4.95,1.18-2.16,1.9-4.49,2.43-6.81.55-2.43.9-4.91,1-7.38.12-2.74-.1-5.49-.7-8.19-.61-2.73-1.59-5.4-2.83-7.97-.16-.33-.32-.66-.49-.99-.09-.19.31-.21.39-.07,1.54,2.56,2.71,5.25,3.43,8.05Z"/>
            <path class="st2" d="M206.71,472.3c.7,2.7.99,5.46.94,8.23-.05,2.6-.38,5.19-.95,7.74-.52,2.34-1.25,4.66-2.39,6.84-1.06,2.03-2.55,4.07-4.87,5.27-.27.14-.55.26-.83.38-.11.04-.31-.08-.16-.14,2.41-.99,3.94-2.99,5.02-4.95,1.18-2.16,1.9-4.49,2.43-6.81.55-2.43.9-4.91,1-7.38.12-2.74-.1-5.49-.7-8.19-.61-2.73-1.59-5.4-2.83-7.97-.16-.33-.32-.66-.49-.99-.09-.19.31-.21.39-.07,1.54,2.56,2.71,5.25,3.43,8.05Z"/>
            <path class="st2" d="M217.66,470.43c.7,2.7.99,5.46.94,8.23-.05,2.6-.38,5.19-.95,7.74-.52,2.34-1.25,4.66-2.39,6.84-1.06,2.03-2.55,4.07-4.87,5.27-.27.14-.55.26-.83.38-.11.04-.31-.08-.16-.14,2.41-.99,3.94-2.99,5.02-4.95,1.18-2.16,1.9-4.49,2.43-6.81.55-2.43.9-4.91,1-7.38.12-2.74-.1-5.49-.7-8.19-.61-2.73-1.59-5.4-2.83-7.97-.16-.33-.32-.66-.49-.99-.09-.19.31-.21.39-.07,1.54,2.56,2.71,5.25,3.43,8.05Z"/>
            <path class="st2" d="M218.13,530.02c.7,2.7.99,5.46.94,8.23-.05,2.6-.38,5.19-.95,7.74-.52,2.34-1.25,4.66-2.39,6.84-1.06,2.03-2.55,4.07-4.87,5.27-.27.14-.55.26-.83.38-.11.04-.31-.08-.16-.14,2.41-.99,3.94-2.99,5.02-4.95,1.18-2.16,1.9-4.49,2.43-6.81.55-2.43.9-4.91,1-7.38.12-2.74-.1-5.49-.7-8.19-.61-2.73-1.59-5.4-2.83-7.97-.16-.33-.32-.66-.49-.99-.09-.19.31-.21.39-.07,1.54,2.56,2.71,5.25,3.43,8.05Z"/>
            <path class="st2" d="M255.88,522.61c.7,2.7.99,5.46.94,8.23-.05,2.6-.38,5.19-.95,7.74-.52,2.34-1.25,4.66-2.39,6.84-1.06,2.03-2.55,4.07-4.87,5.27-.27.14-.55.26-.83.38-.11.04-.31-.08-.16-.14,2.41-.99,3.94-2.99,5.02-4.95,1.18-2.16,1.9-4.49,2.43-6.81.55-2.43.9-4.91,1-7.38.12-2.74-.1-5.49-.7-8.19-.61-2.73-1.59-5.4-2.83-7.97-.16-.33-.32-.66-.49-.99-.09-.19.31-.21.39-.07,1.54,2.56,2.71,5.25,3.43,8.05Z"/>
            <path class="st2" d="M307.6,430.38c.7,2.7.99,5.46.94,8.23-.05,2.6-.38,5.19-.95,7.74-.52,2.34-1.25,4.66-2.39,6.84-1.06,2.03-2.55,4.07-4.87,5.27-.27.14-.55.26-.83.38-.11.04-.31-.08-.16-.14,2.41-.99,3.94-2.99,5.02-4.95,1.18-2.16,1.9-4.49,2.43-6.81.55-2.43.9-4.91,1-7.38.12-2.74-.1-5.49-.7-8.19-.61-2.73-1.59-5.4-2.83-7.97-.16-.33-.32-.66-.49-.99-.09-.19.31-.21.39-.07,1.54,2.56,2.71,5.25,3.43,8.05Z"/>
            <path class="st2" d="M294.92,449.36c.7,2.7.99,5.46.94,8.23-.05,2.6-.38,5.19-.95,7.74-.52,2.34-1.25,4.66-2.39,6.84-1.06,2.03-2.55,4.07-4.87,5.27-.27.14-.55.26-.83.38-.11.04-.31-.08-.16-.14,2.41-.99,3.94-2.99,5.02-4.95,1.18-2.16,1.9-4.49,2.43-6.81.55-2.43.9-4.91,1-7.38.12-2.74-.1-5.49-.7-8.19-.61-2.73-1.59-5.4-2.83-7.97-.16-.33-.32-.66-.49-.99-.09-.19.31-.21.39-.07,1.54,2.56,2.71,5.25,3.43,8.05Z"/>
            <path class="st2" d="M280.93,467.76c.7,2.7.99,5.46.94,8.23-.05,2.6-.38,5.19-.95,7.74-.52,2.34-1.25,4.66-2.39,6.84-1.06,2.03-2.55,4.07-4.87,5.27-.27.14-.55.26-.83.38-.11.04-.31-.08-.16-.14,2.41-.99,3.94-2.99,5.02-4.95,1.18-2.16,1.9-4.49,2.43-6.81.55-2.43.9-4.91,1-7.38.12-2.74-.1-5.49-.7-8.19-.61-2.73-1.59-5.4-2.83-7.97-.16-.33-.32-.66-.49-.99-.09-.19.31-.21.39-.07,1.54,2.56,2.71,5.25,3.43,8.05Z"/>
            <path class="st2" d="M260.66,486.2c.7,2.7.99,5.46.94,8.23-.05,2.6-.38,5.19-.95,7.74-.52,2.34-1.25,4.66-2.39,6.84-1.06,2.03-2.55,4.07-4.87,5.27-.27.14-.55.26-.83.38-.11.04-.31-.08-.16-.14,2.41-.99,3.94-2.99,5.02-4.95,1.18-2.16,1.9-4.49,2.43-6.81.55-2.43.9-4.91,1-7.38.12-2.74-.1-5.49-.7-8.19-.61-2.73-1.59-5.4-2.83-7.97-.16-.33-.32-.66-.49-.99-.09-.19.31-.21.39-.07,1.54,2.56,2.71,5.25,3.43,8.05Z"/>
            <path class="st2" d="M245.73,498.17c.7,2.7.99,5.46.94,8.23-.05,2.6-.38,5.19-.95,7.74-.52,2.34-1.25,4.66-2.39,6.84-1.06,2.03-2.55,4.07-4.87,5.27-.27.14-.55.26-.83.38-.11.04-.31-.08-.16-.14,2.41-.99,3.94-2.99,5.02-4.95,1.18-2.16,1.9-4.49,2.43-6.81.55-2.43.9-4.91,1-7.38.12-2.74-.1-5.49-.7-8.19-.61-2.73-1.59-5.4-2.83-7.97-.16-.33-.32-.66-.49-.99-.09-.19.31-.21.39-.07,1.54,2.56,2.71,5.25,3.43,8.05Z"/>
            <path class="st2" d="M228.45,510c.7,2.7.99,5.46.94,8.23-.05,2.6-.38,5.19-.95,7.74-.52,2.34-1.25,4.66-2.39,6.84-1.06,2.03-2.55,4.07-4.87,5.27-.27.14-.55.26-.83.38-.11.04-.31-.08-.16-.14,2.41-.99,3.94-2.99,5.02-4.95,1.18-2.16,1.9-4.49,2.43-6.81.55-2.43.9-4.91,1-7.38.12-2.74-.1-5.49-.7-8.19-.61-2.73-1.59-5.4-2.83-7.97-.16-.33-.32-.66-.49-.99-.09-.19.31-.21.39-.07,1.54,2.56,2.71,5.25,3.43,8.05Z"/>
            <path class="st2" d="M209.94,519.62c.7,2.7.99,5.46.94,8.23-.05,2.6-.38,5.19-.95,7.74-.52,2.34-1.25,4.66-2.39,6.84-1.06,2.03-2.55,4.07-4.87,5.27-.27.14-.55.26-.83.38-.11.04-.31-.08-.16-.14,2.41-.99,3.94-2.99,5.02-4.95,1.18-2.16,1.9-4.49,2.43-6.81.55-2.43.9-4.91,1-7.38.12-2.74-.1-5.49-.7-8.19-.61-2.73-1.59-5.4-2.83-7.97-.16-.33-.32-.66-.49-.99-.09-.19.31-.21.39-.07,1.54,2.56,2.71,5.25,3.43,8.05Z"/>
            <path class="st2" d="M205.02,533.73c.7,2.7.99,5.46.94,8.23-.05,2.6-.38,5.19-.95,7.74-.52,2.34-1.25,4.66-2.39,6.84-1.06,2.03-2.55,4.07-4.87,5.27-.27.14-.55.26-.83.38-.11.04-.31-.08-.16-.14,2.41-.99,3.94-2.99,5.02-4.95,1.18-2.16,1.9-4.49,2.43-6.81.55-2.43.9-4.91,1-7.38.12-2.74-.1-5.49-.7-8.19-.61-2.73-1.59-5.4-2.83-7.97-.16-.33-.32-.66-.49-.99-.09-.19.31-.21.39-.07,1.54,2.56,2.71,5.25,3.43,8.05Z"/>
            <path class="st2" d="M321.42,453.12c.7,2.7.99,5.46.94,8.23-.05,2.6-.38,5.19-.95,7.74-.52,2.34-1.25,4.66-2.39,6.84-1.06,2.03-2.55,4.07-4.87,5.27-.27.14-.55.26-.83.38-.11.04-.31-.08-.16-.14,2.41-.99,3.94-2.99,5.02-4.95,1.18-2.16,1.9-4.49,2.43-6.81.55-2.43.9-4.91,1-7.38.12-2.74-.1-5.49-.7-8.19-.61-2.73-1.59-5.4-2.83-7.97-.16-.33-.32-.66-.49-.99-.09-.19.31-.21.39-.07,1.54,2.56,2.71,5.25,3.43,8.05Z"/>
            <path class="st2" d="M330.85,454.35c.7,2.7.99,5.46.94,8.23-.05,2.6-.38,5.19-.95,7.74-.52,2.34-1.25,4.66-2.39,6.84-1.06,2.03-2.55,4.07-4.87,5.27-.27.14-.55.26-.83.38-.11.04-.31-.08-.16-.14,2.41-.99,3.94-2.99,5.02-4.95,1.18-2.16,1.9-4.49,2.43-6.81.55-2.43.9-4.91,1-7.38.12-2.74-.1-5.49-.7-8.19-.61-2.73-1.59-5.4-2.83-7.97-.16-.33-.32-.66-.49-.99-.09-.19.31-.21.39-.07,1.54,2.56,2.71,5.25,3.43,8.05Z"/>
            <path class="st2" d="M308.93,462.44c.7,2.7.99,5.46.94,8.23-.05,2.6-.38,5.19-.95,7.74-.52,2.34-1.25,4.66-2.39,6.84-1.06,2.03-2.55,4.07-4.87,5.27-.27.14-.55.26-.83.38-.11.04-.31-.08-.16-.14,2.41-.99,3.94-2.99,5.02-4.95,1.18-2.16,1.9-4.49,2.43-6.81.55-2.43.9-4.91,1-7.38.12-2.74-.1-5.49-.7-8.19-.61-2.73-1.59-5.4-2.83-7.97-.16-.33-.32-.66-.49-.99-.09-.19.31-.21.39-.07,1.54,2.56,2.71,5.25,3.43,8.05Z"/>
            <path class="st2" d="M319.76,472.66c.7,2.7.99,5.46.94,8.23-.05,2.6-.38,5.19-.95,7.74-.52,2.34-1.25,4.66-2.39,6.84-1.06,2.03-2.55,4.07-4.87,5.27-.27.14-.55.26-.83.38-.11.04-.31-.08-.16-.14,2.41-.99,3.94-2.99,5.02-4.95,1.18-2.16,1.9-4.49,2.43-6.81.55-2.43.9-4.91,1-7.38.12-2.74-.1-5.49-.7-8.19-.61-2.73-1.59-5.4-2.83-7.97-.16-.33-.32-.66-.49-.99-.09-.19.31-.21.39-.07,1.54,2.56,2.71,5.25,3.43,8.05Z"/>
            <path class="st2" d="M292.22,478.61c.7,2.7.99,5.46.94,8.23-.05,2.6-.38,5.19-.95,7.74-.52,2.34-1.25,4.66-2.39,6.84-1.06,2.03-2.55,4.07-4.87,5.27-.27.14-.55.26-.83.38-.11.04-.31-.08-.16-.14,2.41-.99,3.94-2.99,5.02-4.95,1.18-2.16,1.9-4.49,2.43-6.81.55-2.43.9-4.91,1-7.38.12-2.74-.1-5.49-.7-8.19-.61-2.73-1.59-5.4-2.83-7.97-.16-.33-.32-.66-.49-.99-.09-.19.31-.21.39-.07,1.54,2.56,2.71,5.25,3.43,8.05Z"/>
            <path class="st2" d="M303.39,495.19c.7,2.7.99,5.46.94,8.23-.05,2.6-.38,5.19-.95,7.74-.52,2.34-1.25,4.66-2.39,6.84-1.06,2.03-2.55,4.07-4.87,5.27-.27.14-.55.26-.83.38-.11.04-.31-.08-.16-.14,2.41-.99,3.94-2.99,5.02-4.95,1.18-2.16,1.9-4.49,2.43-6.81.55-2.43.9-4.91,1-7.38.12-2.74-.1-5.49-.7-8.19-.61-2.73-1.59-5.4-2.83-7.97-.16-.33-.32-.66-.49-.99-.09-.19.31-.21.39-.07,1.54,2.56,2.71,5.25,3.43,8.05Z"/>
            <path class="st2" d="M276.43,495.13c.7,2.7.99,5.46.94,8.23-.05,2.6-.38,5.19-.95,7.74-.52,2.34-1.25,4.66-2.39,6.84-1.06,2.03-2.55,4.07-4.87,5.27-.27.14-.55.26-.83.38-.11.04-.31-.08-.16-.14,2.41-.99,3.94-2.99,5.02-4.95,1.18-2.16,1.9-4.49,2.43-6.81.55-2.43.9-4.91,1-7.38.12-2.74-.1-5.49-.7-8.19-.61-2.73-1.59-5.4-2.83-7.97-.16-.33-.32-.66-.49-.99-.09-.19.31-.21.39-.07,1.54,2.56,2.71,5.25,3.43,8.05Z"/>
            <path class="st2" d="M286.41,502.16c.7,2.7.99,5.46.94,8.23-.05,2.6-.38,5.19-.95,7.74-.52,2.34-1.25,4.66-2.39,6.84-1.06,2.03-2.55,4.07-4.87,5.27-.27.14-.55.26-.83.38-.11.04-.31-.08-.16-.14,2.41-.99,3.94-2.99,5.02-4.95,1.18-2.16,1.9-4.49,2.43-6.81.55-2.43.9-4.91,1-7.38.12-2.74-.1-5.49-.7-8.19-.61-2.73-1.59-5.4-2.83-7.97-.16-.33-.32-.66-.49-.99-.09-.19.31-.21.39-.07,1.54,2.56,2.71,5.25,3.43,8.05Z"/>
            <path class="st2" d="M260.82,506.53c.7,2.7.99,5.46.94,8.23-.05,2.6-.38,5.19-.95,7.74-.52,2.34-1.25,4.66-2.39,6.84-1.06,2.03-2.55,4.07-4.87,5.27-.27.14-.55.26-.83.38-.11.04-.31-.08-.16-.14,2.41-.99,3.94-2.99,5.02-4.95,1.18-2.16,1.9-4.49,2.43-6.81.55-2.43.9-4.91,1-7.38.12-2.74-.1-5.49-.7-8.19-.61-2.73-1.59-5.4-2.83-7.97-.16-.33-.32-.66-.49-.99-.09-.19.31-.21.39-.07,1.54,2.56,2.71,5.25,3.43,8.05Z"/>
            <path class="st2" d="M267.16,514.61c.7,2.7.99,5.46.94,8.23-.05,2.6-.38,5.19-.95,7.74-.52,2.34-1.25,4.66-2.39,6.84-1.06,2.03-2.55,4.07-4.87,5.27-.27.14-.55.26-.83.38-.11.04-.31-.08-.16-.14,2.41-.99,3.94-2.99,5.02-4.95,1.18-2.16,1.9-4.49,2.43-6.81.55-2.43.9-4.91,1-7.38.12-2.74-.1-5.49-.7-8.19-.61-2.73-1.59-5.4-2.83-7.97-.16-.33-.32-.66-.49-.99-.09-.19.31-.21.39-.07,1.54,2.56,2.71,5.25,3.43,8.05Z"/>
            <path class="st2" d="M236.59,523.7c.7,2.7.99,5.46.94,8.23-.05,2.6-.38,5.19-.95,7.74-.52,2.34-1.25,4.66-2.39,6.84-1.06,2.03-2.55,4.07-4.87,5.27-.27.14-.55.26-.83.38-.11.04-.31-.08-.16-.14,2.41-.99,3.94-2.99,5.02-4.95,1.18-2.16,1.9-4.49,2.43-6.81.55-2.43.9-4.91,1-7.38.12-2.74-.1-5.49-.7-8.19-.61-2.73-1.59-5.4-2.83-7.97-.16-.33-.32-.66-.49-.99-.09-.19.31-.21.39-.07,1.54,2.56,2.71,5.25,3.43,8.05Z"/>
            <path class="st2" d="M344.93,369.76c.7,2.7.99,5.46.94,8.23-.05,2.6-.38,5.19-.95,7.74-.52,2.34-1.25,4.66-2.39,6.84-1.06,2.03-2.55,4.07-4.87,5.27-.27.14-.55.26-.83.38-.11.04-.31-.08-.16-.14,2.41-.99,3.94-2.99,5.02-4.95,1.18-2.16,1.9-4.49,2.43-6.81.55-2.43.9-4.91,1-7.38.12-2.74-.1-5.49-.7-8.19-.61-2.73-1.59-5.4-2.83-7.97-.16-.33-.32-.66-.49-.99-.09-.19.31-.21.39-.07,1.54,2.56,2.71,5.25,3.43,8.05Z"/>
            <path class="st2" d="M336.57,362.15c.7,2.7.99,5.46.94,8.23-.05,2.6-.38,5.19-.95,7.74-.52,2.34-1.25,4.66-2.39,6.84-1.06,2.03-2.55,4.07-4.87,5.27-.27.14-.55.26-.83.38-.11.04-.31-.08-.16-.14,2.41-.99,3.94-2.99,5.02-4.95,1.18-2.16,1.9-4.49,2.43-6.81.55-2.43.9-4.91,1-7.38.12-2.74-.1-5.49-.7-8.19-.61-2.73-1.59-5.4-2.83-7.97-.16-.33-.32-.66-.49-.99-.09-.19.31-.21.39-.07,1.54,2.56,2.71,5.25,3.43,8.05Z"/>
            <path class="st2" d="M350.4,322.88c.7,2.7.99,5.46.94,8.23-.05,2.6-.38,5.19-.95,7.74-.52,2.34-1.25,4.66-2.39,6.84-1.06,2.03-2.55,4.07-4.87,5.27-.27.14-.55.26-.83.38-.11.04-.31-.08-.16-.14,2.41-.99,3.94-2.99,5.02-4.95,1.18-2.16,1.9-4.49,2.43-6.81.55-2.43.9-4.91,1-7.38.12-2.74-.1-5.49-.7-8.19-.61-2.73-1.59-5.4-2.83-7.97-.16-.33-.32-.66-.49-.99-.09-.19.31-.21.39-.07,1.54,2.56,2.71,5.25,3.43,8.05Z"/>
          </g>
        </g>
      </g>
    </g>
  </g>
</svg>