<?xml version="1.0" encoding="UTF-8"?>
<svg id="Layer_1" xmlns="http://www.w3.org/2000/svg" version="1.1" viewBox="0 0 400 600">
  <!-- Generator: Adobe Illustrator 29.5.1, SVG Export Plug-In . SVG Version: 2.1.0 Build 141)  -->
  <defs>
    <style>
      .st0 {
        fill: #55534b;
      }

      .st1 {
        fill: $[hairColor];
      }
    </style>
  </defs>
  <g id="beard_8">
    <g id="beard">
      <path class="st1" d="M191.87,470.48c-17.91-.62-27.55-3.32-38.47-6.94-12.51-4.14-52.23-37.25-66.64-56.21-12.86-16.92-20.84-56.61-27.13-81.39h-11.13c.13-.32-2.96,117.91,18.78,148.17,6.33,8.82,23.19,30.84,39.49,41.12-2.82-6.59-5.79-14.22-6.47-20.52,0,0,.7,1.31,1.94,3.48,9.41,16.52,25.27,30.64,45.68,39.93.07.03.14.07.22.1-1.02-5.46-1.77-12.24-.54-17.14,0,0,28.36,34.1,51.18,34.1,9.15,0,36.56-22.89,39.31-32.57,0,0,1.47,13.24.01,22.28,2.47-.69,54.49-17.89,68.68-48.2.31-.67.18-1.37.2-1.99,0,0,1.04,4.41,1.9,10.16,10.05-7.12,20.4-13.18,22.99-19.98,22.7-59.47,18.97-144.4,19.57-158.95h-11.48c-6.3,24.66-19.52,76.11-32,92.52-14.41,18.96-48.77,40.94-61.28,45.08-11.1,3.68-20.95,6.4-39.45,6.95"/>
      <g>
        <path class="st1" d="M195.59,396.38c-7.62,3.39-31.07,13-53.52,13.62-5.25.14-18.31,5.69-13.05,16.01.86,1.69,4.07,5.74,9.55,2.07,7.93-5.3,26.89-12.08,57.72-12.35,1.01,0,1.86-.81,1.86-1.82v-15.83c0-1.33-1.34-2.25-2.56-1.7Z"/>
        <path class="st1" d="M258.4,410c-22.46-.62-45.9-10.22-53.52-13.62-1.22-.54-2.56.37-2.56,1.7v15.83c0,1.01.85,1.81,1.86,1.82,30.82.26,49.79,7.05,57.72,12.35,5.48,3.66,8.69-.39,9.55-2.07,5.26-10.32-7.81-15.87-13.05-16.01Z"/>
      </g>
    </g>
    <path id="details" class="st0" d="M339.98,325.94c-6.3,24.3-21.16,78.21-33.04,93.85-14.41,18.96-47.73,39.61-60.24,43.76-11.1,3.68-20.95,6.4-39.45,6.95l-15.38-.02c-17.91-.62-27.55-3.32-38.47-6.94-12.51-4.14-53.01-38.32-67.42-57.28-12.86-16.92-20.06-55.54-26.35-80.32-5.75,0-11.25.34-11.13,0,.48,4.99,5.1,120.6,19.71,139.83,4.05,5.32,11.6,11.71,20.58,18.23-1.98-11.08-3.99-25.81-1.51-29.86,0,0,6.72,14.44,16.8,30.12,7.75,12.06,19.6,22.41,34.23,30.01.06.03.12.06.19.1-.49-6.73.68-12.8,4.66-17.59,0,0,41.56,37.73,52.44,37.73,16.58,0,47.69-31.42,50.04-38.51,0,0,3.68,12.82,2.93,24.55,5.94-2.36,17.58-8.31,30.46-15.78,18.15-10.54,30.33-26.27,32.08-43.49.28-2.76.21-5.2-.35-7.15,0,0,8.03,8.47,10.21,22.39,4.61-3.84,8.45-7.51,10.92-10.77,14.61-19.23,18.97-129.35,19.57-139.83-2.16,0-9.32.06-11.48,0ZM62.69,355.28s-9.84,10.83-4.77,23.26c-4.84-7.83-7.08-14.61,4.77-23.26ZM66.27,378.54s-9.84,10.83-4.77,23.26c-4.84-7.83-7.08-14.61,4.77-23.26ZM70.9,443c-6.2-13.01-2.46-24.64-2.46-24.64,0,0-4.83,4.41-2.8,15.73-9.68-18.62,7.68-35.52,7.68-35.52,0,0-4.8,7.98-4.05,15.59,1.53-4.47,8.31-8.84,8.31-8.84-4.84,8.36-7.48,19.91-6.67,37.67ZM85.62,451.13c-6.02-4.82-9.03-19.23,2.71-30.34,0,0-8.47,11.5-2.71,30.34ZM105.92,472.79c-7.74-5.42-10.24-19.11-6.4-32.74-.37,9.61,1.74,15.61,1.74,15.61,0,0,1.9-14.29,8.3-18.71-6.53,13.82-3.65,35.84-3.65,35.84ZM125.59,459.66s-7.08,12.2.87,30.42c-6.56-4.26-11.24-18.31-.87-30.42ZM145.36,481.47s-2.63,4.65,3.86,13.21c-16.5-12.6-7.47-30.14-7.47-30.14,0,0-1.14,7.49,2.65,13.39-.43-3.93,4.02-9,4.02-9-1.03,7.81,1.27,17.64,9.27,31.63-11.01-8.93-12.33-19.09-12.33-19.09ZM170.76,477.21s-4.33,18.31,13.63,39.84c-10.39-3.55-22.34-20.61-13.63-39.84ZM198.51,479.1s-8.45,22.57,6.16,43.99c-13.79-7.68-19.17-25.19-6.16-43.99ZM221.43,514.53c2.03-10.54.72-17.43.72-17.43,0,0-4.51,15.5-12.31,19.55,9.53-14.38,10.08-39.03,10.08-39.03,7.61,6.97,8.05,22.39,1.51,36.92ZM242.2,492.97c7.35-12.19.49-20.84.49-20.84,7.19,5.4,7.6,14.19-.49,20.84ZM259.35,501.1c6.78-20.62-.25-29.4-.25-29.4,6.97,7.14,7.98,20.17.25,29.4ZM278.27,493.76c6.7-23.84-2.13-34.8-2.13-34.8,10.71,11.68,9.24,23.97,2.13,34.8ZM304.75,467.29c-1.68-7.57-5.02-11.84-5.02-11.84,0,0,1.19,11.53-4.11,16.25,3.42-12.08-4.06-28.7-4.06-28.7,8.69,2.7,14.04,12.89,13.19,24.29ZM321.63,455.39s4.12-13.2-7.85-29.64c7.4,3.01,15.23,15.95,7.85,29.64ZM336.56,433.72s.49-7.2-2.92-12.52c.57,3.7-2.73,8.83-2.73,8.83.38-7.49-2.04-16.66-9.32-29.36,9.41,7.69,11.07,17.24,11.07,17.24,0,0,1.86-4.6-3.88-12.27,14.06,10.77,7.78,28.08,7.78,28.08ZM339.39,399.34s4.14-13.35-6.13-23.02c7.98,5.51,13.11,10.97,6.13,23.02ZM336.7,353.94c7.98,5.51,13.11,10.97,6.13,23.02,0,0,4.14-13.35-6.13-23.02Z"/>
  </g>
</svg>