<?xml version="1.0" encoding="UTF-8"?>
<svg xmlns="http://www.w3.org/2000/svg" version="1.1" viewBox="0 0 400 600">
  <!-- Generator: Adobe Illustrator 29.5.1, SVG Export Plug-In . SVG Version: 2.1.0 Build 141)  -->
  <defs>
    <style>
      .st0 {
        isolation: isolate;
      }

      .st1 {
        fill: #222;
      }

      .st2 {
        fill: #fff;
        mix-blend-mode: screen;
        opacity: .62;
      }

      .st3 {
        opacity: .5;
      }
    </style>
  </defs>
  <g class="st0">
    <g id="Layer_1">
      <g id="beard_7">
        <path id="beard" class="st1" d="M254,412.84c-6.12-2.98-33.08-22.02-45.22-22.02,0,0-2.14,3.91-8.55,3.59-6.41.32-8.55-3.59-8.55-3.59-12.14,0-39.1,19.04-45.22,22.02-23.09,11.24-13.48,23.45-7.72,22.7-24.47,52.4,7.73,72.07,34.04,79.37,17.8,4.93,37.09,4.93,54.89,0,26.31-7.29,58.51-26.96,34.04-79.37,5.77.75,15.37-11.46-7.72-22.7ZM193.84,482.17c-39.5-3.64-49.99-40.34-52.05-49.9,0-.06.04-.09.05-.15,1.78-11.75,58.4-10.8,58.4-10.8,0,0,56.61-.95,58.4,10.8,0,.06.04.09.05.15-2.05,9.56-12.55,46.26-52.05,49.9h-12.79Z"/>
        <g id="details" class="st3">
          <g>
            <path class="st2" d="M258.96,447.52c.39,1.99.55,4.01.51,6.04-.04,1.9-.25,3.8-.59,5.67-.32,1.71-.75,3.41-1.43,5.01-.63,1.48-1.51,2.97-2.87,3.84-.16.1-.32.19-.49.27-.06.03-.18-.06-.09-.1,1.41-.71,2.32-2.17,2.95-3.6.7-1.58,1.13-3.28,1.45-4.98.33-1.78.55-3.6.62-5.41.08-2.01-.03-4.03-.37-6.01-.34-2-.91-3.97-1.61-5.86-.09-.24-.18-.49-.28-.73-.05-.14.18-.15.23-.05.89,1.88,1.56,3.87,1.97,5.92Z"/>
            <path class="st2" d="M259.62,459.52c.39,1.99.55,4.01.51,6.04-.04,1.9-.25,3.8-.59,5.67-.32,1.71-.75,3.41-1.43,5.01-.63,1.48-1.51,2.97-2.87,3.84-.16.1-.32.19-.49.27-.06.03-.18-.06-.09-.1,1.41-.71,2.32-2.17,2.95-3.6.7-1.58,1.13-3.28,1.45-4.98.33-1.78.55-3.6.62-5.41.08-2.01-.03-4.03-.37-6.01-.34-2-.91-3.97-1.61-5.86-.09-.24-.18-.49-.28-.73-.05-.14.18-.15.23-.05.89,1.88,1.56,3.87,1.97,5.92Z"/>
            <path class="st2" d="M264.35,469.59c.39,1.99.55,4.01.51,6.04-.04,1.9-.25,3.8-.59,5.67-.32,1.71-.75,3.41-1.43,5.01-.63,1.48-1.51,2.97-2.87,3.84-.16.1-.32.19-.49.27-.06.03-.18-.06-.09-.1,1.41-.71,2.32-2.17,2.95-3.6.7-1.58,1.13-3.28,1.45-4.98.33-1.78.55-3.6.62-5.41.08-2.01-.03-4.03-.37-6.01-.34-2-.91-3.97-1.61-5.86-.09-.24-.18-.49-.28-.73-.05-.14.18-.15.23-.05.89,1.88,1.56,3.87,1.97,5.92Z"/>
            <path class="st2" d="M251.28,471.69c.63,2.63,1,5.3,1.14,7.95.13,2.49.07,4.95-.15,7.37-.2,2.21-.54,4.39-1.17,6.42-.58,1.88-1.45,3.74-2.92,4.76-.17.12-.35.22-.53.31-.07.03-.21-.09-.11-.14,1.55-.8,2.44-2.63,3.04-4.44.65-2,.99-4.19,1.2-6.38.22-2.3.29-4.65.21-7.02-.09-2.62-.41-5.28-.98-7.9-.57-2.65-1.4-5.27-2.38-7.82-.13-.33-.25-.66-.39-.98-.07-.18.19-.18.26-.04,1.19,2.55,2.13,5.2,2.79,7.93Z"/>
            <path class="st2" d="M241.5,482.18c.39,1.99.55,4.01.51,6.04-.04,1.9-.25,3.8-.59,5.67-.32,1.71-.75,3.41-1.43,5.01-.63,1.48-1.51,2.97-2.87,3.84-.16.1-.32.19-.49.27-.06.03-.18-.06-.09-.1,1.41-.71,2.32-2.17,2.95-3.6.7-1.58,1.13-3.28,1.45-4.98.33-1.78.55-3.6.62-5.41.08-2.01-.03-4.03-.37-6.01-.34-2-.91-3.97-1.61-5.86-.09-.24-.18-.49-.28-.73-.05-.14.18-.15.23-.05.89,1.88,1.56,3.87,1.97,5.92Z"/>
            <path class="st2" d="M228.71,485.16c.39,1.99.55,4.01.51,6.04-.04,1.9-.25,3.8-.59,5.67-.32,1.71-.75,3.41-1.43,5.01-.63,1.48-1.51,2.97-2.87,3.84-.16.1-.32.19-.49.27-.06.03-.18-.06-.09-.1,1.41-.71,2.32-2.17,2.95-3.6.7-1.58,1.13-3.28,1.45-4.98.33-1.78.55-3.6.62-5.41.08-2.01-.03-4.03-.37-6.01-.34-2-.91-3.97-1.61-5.86-.09-.24-.18-.49-.28-.73-.05-.14.18-.15.23-.05.89,1.88,1.56,3.87,1.97,5.92Z"/>
            <path class="st2" d="M217.48,488.6c.39,1.99.55,4.01.51,6.04-.04,1.9-.25,3.8-.59,5.67-.32,1.71-.75,3.41-1.43,5.01-.63,1.48-1.51,2.97-2.87,3.84-.16.1-.32.19-.49.27-.06.03-.18-.06-.09-.1,1.41-.71,2.32-2.17,2.95-3.6.7-1.58,1.13-3.28,1.45-4.98.33-1.78.55-3.6.62-5.41.08-2.01-.03-4.03-.37-6.01-.34-2-.91-3.97-1.61-5.86-.09-.24-.18-.49-.28-.73-.05-.14.18-.15.23-.05.89,1.88,1.56,3.87,1.97,5.92Z"/>
            <path class="st2" d="M207.39,492.93c.39,1.99.55,4.01.51,6.04-.04,1.9-.25,3.8-.59,5.67-.32,1.71-.75,3.41-1.43,5.01-.63,1.48-1.51,2.97-2.87,3.84-.16.1-.32.19-.49.27-.06.03-.18-.06-.09-.1,1.41-.71,2.32-2.17,2.95-3.6.7-1.58,1.13-3.28,1.45-4.98.33-1.78.55-3.6.62-5.41.08-2.01-.03-4.03-.37-6.01-.34-2-.91-3.97-1.61-5.86-.09-.24-.18-.49-.28-.73-.05-.14.18-.15.23-.05.89,1.88,1.56,3.87,1.97,5.92Z"/>
          </g>
          <g>
            <path class="st2" d="M140.23,444.73c-.39,1.99-.55,4.01-.51,6.04.04,1.9.25,3.8.59,5.67.32,1.71.75,3.41,1.43,5.01.63,1.48,1.51,2.97,2.87,3.84.16.1.32.19.49.27.06.03.18-.06.09-.1-1.41-.71-2.32-2.17-2.95-3.6-.7-1.58-1.13-3.28-1.45-4.98-.33-1.78-.55-3.6-.62-5.41-.08-2.01.03-4.03.37-6.01.34-2,.91-3.97,1.61-5.86.09-.24.18-.49.28-.73.05-.14-.18-.15-.23-.05-.89,1.88-1.56,3.87-1.97,5.92Z"/>
            <path class="st2" d="M139.57,459.32c-.39,1.99-.55,4.01-.51,6.04.04,1.9.25,3.8.59,5.67.32,1.71.75,3.41,1.43,5.01.63,1.48,1.51,2.97,2.87,3.84.16.1.32.19.49.27.06.03.18-.06.09-.1-1.41-.71-2.32-2.17-2.95-3.6-.7-1.58-1.13-3.28-1.45-4.98-.33-1.78-.55-3.6-.62-5.41-.08-2.01.03-4.03.37-6.01.34-2,.91-3.97,1.61-5.86.09-.24.18-.49.28-.73.05-.14-.18-.15-.23-.05-.89,1.88-1.56,3.87-1.97,5.92Z"/>
            <path class="st2" d="M134.84,469.39c-.39,1.99-.55,4.01-.51,6.04.04,1.9.25,3.8.59,5.67.32,1.71.75,3.41,1.43,5.01.63,1.48,1.51,2.97,2.87,3.84.16.1.32.19.49.27.06.03.18-.06.09-.1-1.41-.71-2.32-2.17-2.95-3.6-.7-1.58-1.13-3.28-1.45-4.98-.33-1.78-.55-3.6-.62-5.41-.08-2.01.03-4.03.37-6.01.34-2,.91-3.97,1.61-5.86.09-.24.18-.49.28-.73.05-.14-.18-.15-.23-.05-.89,1.88-1.56,3.87-1.97,5.92Z"/>
            <path class="st2" d="M147.93,470.72c-.66,2.71-1.04,5.46-1.19,8.18-.14,2.56-.09,5.1.13,7.58.2,2.27.54,4.51,1.17,6.6.59,1.93,1.46,3.85,2.96,4.89.17.12.35.23.54.32.07.04.21-.1.12-.15-1.58-.82-2.49-2.69-3.09-4.56-.66-2.05-.99-4.31-1.2-6.56-.21-2.37-.28-4.79-.19-7.22.1-2.7.44-5.43,1.03-8.14.6-2.73,1.45-5.43,2.46-8.05.13-.34.26-.68.4-1.01.08-.19-.19-.19-.26-.04-1.22,2.63-2.2,5.36-2.88,8.17Z"/>
            <path class="st2" d="M157.69,481.98c-.39,1.99-.55,4.01-.51,6.04.04,1.9.25,3.8.59,5.67.32,1.71.75,3.41,1.43,5.01.63,1.48,1.51,2.97,2.87,3.84.16.1.32.19.49.27.06.03.18-.06.09-.1-1.41-.71-2.32-2.17-2.95-3.6-.7-1.58-1.13-3.28-1.45-4.98-.33-1.78-.55-3.6-.62-5.41-.08-2.01.03-4.03.37-6.01.34-2,.91-3.97,1.61-5.86.09-.24.18-.49.28-.73.05-.14-.18-.15-.23-.05-.89,1.88-1.56,3.87-1.97,5.92Z"/>
            <path class="st2" d="M170.48,484.96c-.39,1.99-.55,4.01-.51,6.04.04,1.9.25,3.8.59,5.67.32,1.71.75,3.41,1.43,5.01.63,1.48,1.51,2.97,2.87,3.84.16.1.32.19.49.27.06.03.18-.06.09-.1-1.41-.71-2.32-2.17-2.95-3.6-.7-1.58-1.13-3.28-1.45-4.98-.33-1.78-.55-3.6-.62-5.41-.08-2.01.03-4.03.37-6.01.34-2,.91-3.97,1.61-5.86.09-.24.18-.49.28-.73.05-.14-.18-.15-.23-.05-.89,1.88-1.56,3.87-1.97,5.92Z"/>
            <path class="st2" d="M181.71,488.4c-.39,1.99-.55,4.01-.51,6.04.04,1.9.25,3.8.59,5.67.32,1.71.75,3.41,1.43,5.01.63,1.48,1.51,2.97,2.87,3.84.16.1.32.19.49.27.06.03.18-.06.09-.1-1.41-.71-2.32-2.17-2.95-3.6-.7-1.58-1.13-3.28-1.45-4.98-.33-1.78-.55-3.6-.62-5.41-.08-2.01.03-4.03.37-6.01.34-2,.91-3.97,1.61-5.86.09-.24.18-.49.28-.73.05-.14-.18-.15-.23-.05-.89,1.88-1.56,3.87-1.97,5.92Z"/>
            <path class="st2" d="M191.8,492.73c-.39,1.99-.55,4.01-.51,6.04.04,1.9.25,3.8.59,5.67.32,1.71.75,3.41,1.43,5.01.63,1.48,1.51,2.97,2.87,3.84.16.1.32.19.49.27.06.03.18-.06.09-.1-1.41-.71-2.32-2.17-2.95-3.6-.7-1.58-1.13-3.28-1.45-4.98-.33-1.78-.55-3.6-.62-5.41-.08-2.01.03-4.03.37-6.01.34-2,.91-3.97,1.61-5.86.09-.24.18-.49.28-.73.05-.14-.18-.15-.23-.05-.89,1.88-1.56,3.87-1.97,5.92Z"/>
          </g>
          <g>
            <path class="st2" d="M154.66,414.03c-1.29,1.83-2.76,3.45-4.35,4.88-1.49,1.34-3.08,2.51-4.73,3.53-1.51.93-3.08,1.73-4.72,2.21-1.52.45-3.2.66-4.69-.05-.17-.08-.34-.18-.5-.28-.06-.04-.06-.22.02-.16,1.4.88,3.07.72,4.56.31,1.64-.45,3.21-1.26,4.71-2.17,1.58-.96,3.1-2.06,4.54-3.3,1.6-1.38,3.09-2.95,4.41-4.72,1.34-1.79,2.51-3.77,3.55-5.84.13-.27.27-.54.39-.81.07-.15.23.07.18.19-.92,2.24-2.04,4.34-3.38,6.23Z"/>
            <path class="st2" d="M162.69,409.87c-.99,2.1-2.19,4.03-3.53,5.8-1.26,1.66-2.65,3.18-4.11,4.56-1.34,1.26-2.77,2.41-4.3,3.27-1.43.8-3.04,1.39-4.62,1.04-.18-.04-.36-.1-.54-.16-.07-.03-.09-.2,0-.17,1.51.54,3.13,0,4.53-.76,1.54-.82,2.97-1.98,4.3-3.23,1.4-1.31,2.74-2.75,3.96-4.3,1.36-1.72,2.59-3.62,3.62-5.67,1.04-2.07,1.9-4.29,2.6-6.56.09-.29.18-.59.27-.88.05-.17.23.01.2.15-.56,2.42-1.35,4.74-2.38,6.91Z"/>
            <path class="st2" d="M171.44,407.9c-.99,2.1-2.19,4.03-3.53,5.8-1.26,1.66-2.65,3.18-4.11,4.56-1.34,1.26-2.77,2.41-4.3,3.27-1.43.8-3.04,1.39-4.62,1.04-.18-.04-.36-.1-.54-.16-.07-.03-.09-.2,0-.17,1.51.54,3.13,0,4.53-.76,1.54-.82,2.97-1.98,4.3-3.23,1.4-1.31,2.74-2.75,3.96-4.3,1.36-1.72,2.59-3.62,3.62-5.67,1.04-2.07,1.9-4.29,2.6-6.56.09-.29.18-.59.27-.88.05-.17.23.01.2.15-.56,2.42-1.35,4.74-2.38,6.91Z"/>
            <path class="st2" d="M177.96,407.9c-.99,2.1-2.19,4.03-3.53,5.8-1.26,1.66-2.65,3.18-4.11,4.56-1.34,1.26-2.77,2.41-4.3,3.27-1.43.8-3.04,1.39-4.62,1.04-.18-.04-.36-.1-.54-.16-.07-.03-.09-.2,0-.17,1.51.54,3.13,0,4.53-.76,1.54-.82,2.97-1.98,4.3-3.23,1.4-1.31,2.74-2.75,3.96-4.3,1.36-1.72,2.59-3.62,3.62-5.67,1.04-2.07,1.9-4.29,2.6-6.56.09-.29.18-.59.27-.88.05-.17.23.01.2.15-.56,2.42-1.35,4.74-2.38,6.91Z"/>
            <path class="st2" d="M184.95,405.67c-.99,2.1-2.19,4.03-3.53,5.8-1.26,1.66-2.65,3.18-4.11,4.56-1.34,1.26-2.77,2.41-4.3,3.27-1.43.8-3.04,1.39-4.62,1.04-.18-.04-.36-.1-.54-.16-.07-.03-.09-.2,0-.17,1.51.54,3.13,0,4.53-.76,1.54-.82,2.97-1.98,4.3-3.23,1.4-1.31,2.74-2.75,3.96-4.3,1.36-1.72,2.59-3.62,3.62-5.67,1.04-2.07,1.9-4.29,2.6-6.56.09-.29.18-.59.27-.88.05-.17.23.01.2.15-.56,2.42-1.35,4.74-2.38,6.91Z"/>
            <path class="st2" d="M191.34,404.75c-.99,2.1-2.19,4.03-3.53,5.8-1.26,1.66-2.65,3.18-4.11,4.56-1.34,1.26-2.77,2.41-4.3,3.27-1.43.8-3.04,1.39-4.62,1.04-.18-.04-.36-.1-.54-.16-.07-.03-.09-.2,0-.17,1.51.54,3.13,0,4.53-.76,1.54-.82,2.97-1.98,4.3-3.23,1.4-1.31,2.74-2.75,3.96-4.3,1.36-1.72,2.59-3.62,3.62-5.67,1.04-2.07,1.9-4.29,2.6-6.56.09-.29.18-.59.27-.88.05-.17.23.01.2.15-.56,2.42-1.35,4.74-2.38,6.91Z"/>
            <path class="st2" d="M198.68,403.73c-.99,2.1-2.19,4.03-3.53,5.8-1.26,1.66-2.65,3.18-4.11,4.56-1.34,1.26-2.77,2.41-4.3,3.27-1.43.8-3.04,1.39-4.62,1.04-.18-.04-.36-.1-.54-.16-.07-.03-.09-.2,0-.17,1.51.54,3.13,0,4.53-.76,1.54-.82,2.97-1.98,4.3-3.23,1.4-1.31,2.74-2.75,3.96-4.3,1.36-1.72,2.59-3.62,3.62-5.67,1.04-2.07,1.9-4.29,2.6-6.56.09-.29.18-.59.27-.88.05-.17.23.01.2.15-.56,2.42-1.35,4.74-2.38,6.91Z"/>
            <path class="st2" d="M245.76,414.21c1.29,1.83,2.76,3.45,4.35,4.88,1.49,1.34,3.08,2.51,4.73,3.53,1.51.93,3.08,1.73,4.72,2.21,1.52.45,3.2.66,4.69-.05.17-.08.34-.18.5-.28.06-.04.06-.22-.02-.16-1.4.88-3.07.72-4.56.31-1.64-.45-3.21-1.26-4.71-2.17-1.58-.96-3.1-2.06-4.54-3.3-1.6-1.38-3.09-2.95-4.41-4.72-1.34-1.79-2.51-3.77-3.55-5.84-.13-.27-.27-.54-.39-.81-.07-.15-.23.07-.18.19.92,2.24,2.04,4.34,3.38,6.23Z"/>
            <path class="st2" d="M237.73,410.05c.99,2.1,2.19,4.03,3.53,5.8,1.26,1.66,2.65,3.18,4.11,4.56,1.34,1.26,2.77,2.41,4.3,3.27,1.43.8,3.04,1.39,4.62,1.04.18-.04.36-.1.54-.16.07-.03.09-.2,0-.17-1.51.54-3.13,0-4.53-.76-1.54-.82-2.97-1.98-4.3-3.23-1.4-1.31-2.74-2.75-3.96-4.3-1.36-1.72-2.59-3.62-3.62-5.67-1.04-2.07-1.9-4.29-2.6-6.56-.09-.29-.18-.59-.27-.88-.05-.17-.23.01-.2.15.56,2.42,1.35,4.74,2.38,6.91Z"/>
            <path class="st2" d="M228.98,408.08c.99,2.1,2.19,4.03,3.53,5.8,1.26,1.66,2.65,3.18,4.11,4.56,1.34,1.26,2.77,2.41,4.3,3.27,1.43.8,3.04,1.39,4.62,1.04.18-.04.36-.1.54-.16.07-.03.09-.2,0-.17-1.51.54-3.13,0-4.53-.76-1.54-.82-2.97-1.98-4.3-3.23-1.4-1.31-2.74-2.75-3.96-4.3-1.36-1.72-2.59-3.62-3.62-5.67-1.04-2.07-1.9-4.29-2.6-6.56-.09-.29-.18-.59-.27-.88-.05-.17-.23.01-.2.15.56,2.42,1.35,4.74,2.38,6.91Z"/>
            <path class="st2" d="M222.45,408.08c.99,2.1,2.19,4.03,3.53,5.8,1.26,1.66,2.65,3.18,4.11,4.56,1.34,1.26,2.77,2.41,4.3,3.27,1.43.8,3.04,1.39,4.62,1.04.18-.04.36-.1.54-.16.07-.03.09-.2,0-.17-1.51.54-3.13,0-4.53-.76-1.54-.82-2.97-1.98-4.3-3.23-1.4-1.31-2.74-2.75-3.96-4.3-1.36-1.72-2.59-3.62-3.62-5.67-1.04-2.07-1.9-4.29-2.6-6.56-.09-.29-.18-.59-.27-.88-.05-.17-.23.01-.2.15.56,2.42,1.35,4.74,2.38,6.91Z"/>
            <path class="st2" d="M215.47,405.85c.99,2.1,2.19,4.03,3.53,5.8,1.26,1.66,2.65,3.18,4.11,4.56,1.34,1.26,2.77,2.41,4.3,3.27,1.43.8,3.04,1.39,4.62,1.04.18-.04.36-.1.54-.16.07-.03.09-.2,0-.17-1.51.54-3.13,0-4.53-.76-1.54-.82-2.97-1.98-4.3-3.23-1.4-1.31-2.74-2.75-3.96-4.3-1.36-1.72-2.59-3.62-3.62-5.67-1.04-2.07-1.9-4.29-2.6-6.56-.09-.29-.18-.59-.27-.88-.05-.17-.23.01-.2.15.56,2.42,1.35,4.74,2.38,6.91Z"/>
            <path class="st2" d="M209.08,404.93c.99,2.1,2.19,4.03,3.53,5.8,1.26,1.66,2.65,3.18,4.11,4.56,1.34,1.26,2.77,2.41,4.3,3.27,1.43.8,3.04,1.39,4.62,1.04.18-.04.36-.1.54-.16.07-.03.09-.2,0-.17-1.51.54-3.13,0-4.53-.76-1.54-.82-2.97-1.98-4.3-3.23-1.4-1.31-2.74-2.75-3.96-4.3-1.36-1.72-2.59-3.62-3.62-5.67-1.04-2.07-1.9-4.29-2.6-6.56-.09-.29-.18-.59-.27-.88-.05-.17-.23.01-.2.15.56,2.42,1.35,4.74,2.38,6.91Z"/>
            <path class="st2" d="M201.92,403.73c.99,2.1,2.19,4.03,3.53,5.8,1.26,1.66,2.65,3.18,4.11,4.56,1.34,1.26,2.77,2.41,4.3,3.27,1.43.8,3.04,1.39,4.62,1.04.18-.04.36-.1.54-.16.07-.03.09-.2,0-.17-1.51.54-3.13,0-4.53-.76-1.54-.82-2.97-1.98-4.3-3.23-1.4-1.31-2.74-2.75-3.96-4.3-1.36-1.72-2.59-3.62-3.62-5.67-1.04-2.07-1.9-4.29-2.6-6.56-.09-.29-.18-.59-.27-.88-.05-.17-.23.01-.2.15.56,2.42,1.35,4.74,2.38,6.91Z"/>
          </g>
        </g>
      </g>
    </g>
  </g>
</svg>