<?xml version="1.0" encoding="UTF-8"?>
<svg id="Layer_1" xmlns="http://www.w3.org/2000/svg" version="1.1" viewBox="0 0 400 600">
  <!-- Generator: Adobe Illustrator 29.5.1, SVG Export Plug-In . SVG Version: 2.1.0 Build 141)  -->
  <defs>
    <style>
      .st0 {
        fill: #2a1a00;
      }

      .st1 {
        fill: #fff;
        opacity: .25;
      }
    </style>
  </defs>
  <g id="beard_6">
    <g id="beard">
      <path class="st0" d="M338.29,339.03c-14.66,38.42-30.78,147.45-138.06,147.45s-126.61-112.35-138.46-145.75h-11.04l.1,5.81,1.21,76.71c0,11.61,4.51,29.9,10.53,40.46,16.26,28.52,36.67,47.48,56.79,60.11-7.78-7.43-15.54-16.58-16.92-24.67,0,0,10.22,9.97,22.64,21.31,15.23,13.91,35.74,23.69,58.46,27.05,10.54,1.56,17.1,1.43,17.1,1.43,0,0,2.74.05,7.53-.33,26.19-2.11,50.34-12.41,67.63-28.3,10.64-9.78,19.81-20.03,20.07-26.52,0,0-.04,10.83-7.01,25.41,19.25-13.52,38.31-33.14,53.27-61.74,4.91-9.38,7.12-19.53,7.12-29.71v-89.19c-3.12.29-6.86.47-10.95.47Z"/>
      <path class="st0" d="M139.89,432.23c42.13-5.62,37.55-15.64,60.76-15.64s18.62,10.02,60.76,15.64c42.13,5.62,25.34-32.99,25.34-32.99-5.8,40.57-68.7-6.6-70.83-3.67-.61.84-2.12,1.6-3.96,2.25-7.16,2.55-15.45,2.55-22.61,0-1.84-.65-3.35-1.41-3.96-2.25-2.14-2.93-65.03,44.23-70.83,3.67,0,0-16.79,38.61,25.34,32.99Z"/>
    </g>
    <path id="details" class="st1" d="M307.92,471.83c3.43-14.77,1.17-20.19-4.79-30.23-14.98,49.33-64.56,73.66-64.56,73.66,2.73-8.62,7.43-15.66.38-24.27,1.64,21.11-38.31,29.15-38.31,29.15-24.59-13.67-48.03-11.25-45.95-31.23-5.74,4.17-7.46,17.57-7.46,17.57-13.71-4.08-45.61-42.19-55.67-64.88-2.74,14.64,7.96,30.23,7.96,30.23-42.83-44.41-44.96-85.18-48.7-125.3l1.21,76.72c0,11.61,4.51,29.9,10.53,40.46,16.26,28.52,36.67,47.48,56.79,60.11-7.78-7.43-15.54-16.58-16.92-24.67,0,0,10.22,9.97,22.64,21.31,15.23,13.91,35.74,23.69,58.46,27.05,10.54,1.56,17.1,1.43,17.1,1.43,0,0,2.74.05,7.53-.33,26.19-2.11,50.34-12.41,67.63-28.3,10.64-9.78,19.81-20.03,20.07-26.52,0,0-.04,10.83-7.01,25.41,19.25-13.52,38.31-33.14,53.27-61.74,4.91-9.38,7.12-19.53,7.12-29.71v-78.87c-3.08,56-41.32,122.94-41.32,122.94Z"/>
  </g>
</svg>