<?xml version="1.0" encoding="UTF-8"?>
<svg id="Layer_1" xmlns="http://www.w3.org/2000/svg" version="1.1" viewBox="0 0 400 600">
  <!-- Generator: Adobe Illustrator 29.5.1, SVG Export Plug-In . SVG Version: 2.1.0 Build 141)  -->
  <defs>
    <style>
      .st0 {
        fill: #fff;
      }

      .st1 {
        opacity: .25;
      }

      .st2 {
        fill: #251f12;
      }
    </style>
  </defs>
  <g id="beard_10">
    <path id="beard" class="st2" d="M354.45,362.95c.69-9.85-1.94-42.63-1.94-59.46,0-6.81-10.78,7.44-10.78,7.44,0,0-6.83,42.91-8.52,47.48s-2.26,13.48-5.39,18.26-3.91,13.78-5.74,15.13c-1.83,1.35-3.48,13.01-8.35,17.09s-14,20.08-15.83,22.39c-1.83,2.3-12.72,19.45-15.65,20.6-2.93,1.15-11.51,6.96-11.51,6.96,0,0-2.3-.86-.47-8.35,1.83-7.48-1.83-31.08-9.52-35.97-7.69-4.89-17.95-8.35-31.14-11.51-13.19-3.17-20.27,7.13-28.69,7.13s-16-10.3-29.19-7.13c-13.19,3.17-23.45,6.62-31.14,11.51-7.69,4.89-11.36,28.49-9.52,35.97,1.83,7.48-.46,8.35-.46,8.35,0,0-13.59-10.24-16.52-11.39-2.93-1.15-10.17-11.96-12-14.26-1.83-2.3-8.5-16.88-14.43-22.09-4.7-4.13-4.6-11.87-6.43-13.22-1.83-1.35-5.35-8.91-6.26-13.22-.72-3.4-2.53-11.29-4.52-15.3-1.72-3.45-12.17-60.17-12.17-60.17,0,0-11.06-13.88-10.98-7.54s.55,56.65.91,64.42c.12,2.49,1.39,28.32,2.6,34.95h0s.01.07.02.11c.29,1.61.62,3.29.95,5,3.58,20.88,1.01,34.41,14.14,53.33,14.18,20.42,19.5,19.49,27.18,31.1,7.68,11.6,12.41,9.28,21.86,17.64s29.54,18.56,40.18,27.85c10.64,9.28,37.9,7.89,45.54,9.75,7.64,1.86,27.14-2.78,37.77-8.82,10.64-6.03,12.41-7.89,21.86-10.67,9.45-2.78,17.13-16.24,26.59-17.64,9.45-1.39,18.32-18.1,25.41-22.28,7.09-4.18,17.69-12.78,20.09-23.67,2.39-10.89,15.85-31.24,18.32-47.34s3.77-52.41,3.77-52.41ZM137.65,446.47c1.47-9.5,3.3-17.84,11.72-19.57,8.43-1.73,12.09-7.48,19.42-6.33,7.33,1.15,20.15,1.73,31.87,1.73s24.54-.58,31.87-1.73c7.33-1.15,10.99,4.6,19.42,6.33,8.43,1.73,10.26,10.07,11.72,19.57,1.47,9.5-4.76,15.83-10.62,18.42-5.86,2.59-8.79,10.65-13.92,12.66-5.13,2.01-13.92,7.77-17.95,5.76-4.03-2.01-10.62,1.15-13.19-3.17-2.57-4.32,1.1-4.06,2.56-4.06s4.4-2.01,9.16-4.32c4.76-2.3,3.3-4.03,3.3-4.03,0,0-10.26,3.17-12.82,2.59-2.57-.58-9.52.86-9.52.86,0,0-6.96-1.44-9.52-.86-2.57.58-12.82-2.59-12.82-2.59,0,0-1.47,1.73,3.3,4.03,4.76,2.3,7.69,4.32,9.16,4.32s5.13-.26,2.57,4.06c-2.57,4.32-9.16,1.15-13.19,3.17-4.03,2.01-12.82-3.74-17.95-5.76-5.13-2.01-8.06-10.07-13.92-12.66-5.86-2.59-12.09-8.92-10.62-18.42Z"/>
    <g id="details">
      <g class="st1">
        <path class="st0" d="M61.78,359.25s-9.84,10.83-4.77,23.26c-4.84-7.83-7.08-14.61,4.77-23.26Z"/>
        <path class="st0" d="M72.65,386.76s-15.13,9.77-13.89,27.47c-2.66-11.8-2.74-21.25,13.89-27.47Z"/>
        <path class="st0" d="M345.78,382.39s4.14-13.35-6.13-23.02c7.98,5.51,13.11,10.97,6.13,23.02Z"/>
        <path class="st0" d="M344.91,415.85s1.9-16.08-12.45-30.71c10.7,8.82,18,16.93,12.45,30.71Z"/>
        <path class="st0" d="M143.6,470.52s-11.39,29.09,6.07,48.25c-6.6-13.38-3.31-21.11-3.31-21.11,0,0,.71,16.35,12.33,29.99-7.89-22.04-9.71-37.79-7.98-50.52,0,0-5.34,8.55-5.16,14.87-3.8-9.26-1.96-21.48-1.96-21.48Z"/>
        <path class="st0" d="M75.51,407.36s-18.05,18.17-8.72,37.45c-1.75-11.82,3.26-16.57,3.26-16.57,0,0-4.1,12.3,1.85,25.77-.36-18.6,2.63-30.78,7.76-39.68,0,0-7,4.75-8.66,9.49-.56-7.96,4.52-16.45,4.52-16.45Z"/>
        <path class="st0" d="M337.41,444.71s7.35-18.64-9.51-30.4c6.9,8.33,4.73,13.28,4.73,13.28,0,0-2.05-10.33-13.34-18.71,8.78,13.78,11.75,23.7,11.36,31.79,0,0,3.89-5.52,3.18-9.52,4.11,5.78,3.58,13.55,3.58,13.55Z"/>
        <path class="st0" d="M170.43,486.06s-5.66,23.93,17.9,52.08c-13.63-4.65-29.3-26.95-17.9-52.08Z"/>
        <path class="st0" d="M319.9,469.22s5.82-17.89-13.01-40.78c11.39,4.37,23.77,22.33,13.01,40.78Z"/>
        <path class="st0" d="M128.63,462.63s-10.77,19.14-.78,46.51c-8.96-6.08-14.62-27.29.78-46.51Z"/>
        <path class="st0" d="M92.34,427.53s-11.93,16.67-5.72,42.59c-7.56-6.31-10.47-26.22,5.72-42.59Z"/>
        <path class="st0" d="M221.06,490.99s-.85,30.34-12.18,48.12c9.22-5.04,14.65-24.15,14.65-24.15,0,0,1.49,8.47-.98,21.45,7.81-17.93,7.42-36.9-1.48-45.42Z"/>
        <path class="st0" d="M291.48,449.04s8.57,21.65,5.83,36.85c5.09-5.7,3.2-20.48,3.2-20.48,0,0,3.63,5.64,5.79,15.4.18-14.49-5.85-27.81-14.81-31.77Z"/>
        <path class="st0" d="M106.87,488.65s-2.85-25,3.7-40.69c-6.41,5.03-8.33,21.25-8.33,21.25,0,0-2.11-6.81-1.72-17.72-3.86,15.48-1.38,31.02,6.35,37.16Z"/>
        <path class="st0" d="M241.93,483.72s7.04,18.7-3.91,47.75c10.98-16.49,11.87-36.53,3.91-47.75Z"/>
        <path class="st0" d="M257.9,469.3s7.89,12.99,3.04,51.86c6.89-19.09,4.64-41.76-3.04-51.86Z"/>
        <path class="st0" d="M198.86,489.94s-8.95,26.01,5.25,50.22c-13.67-8.49-18.7-28.43-5.25-50.22Z"/>
        <path class="st0" d="M274.37,462.85s11.69,14.51,2.82,46.07c9.41-14.34,11.36-30.61-2.82-46.07Z"/>
      </g>
      <g class="st1">
        <path class="st0" d="M264.01,445.87s5.47-.28,5.25-4.56c.8,3.1.71,5.31-5.25,4.56Z"/>
        <path class="st0" d="M263.65,441.01s4.51-3.85,3.87-10.33c.99,4.29,1.15,7.76-3.87,10.33Z"/>
        <path class="st0" d="M133.5,440.44s-1.71,3.87,3.23,6.44c-3.8-1.42-6.28-2.88-3.23-6.44Z"/>
        <path class="st0" d="M135.01,431.78s-2.13,3.68,2.7,8.13c-3.77-2.83-6.17-5.25-2.7-8.13Z"/>
        <path class="st0" d="M230.24,418.89s2.35-9.48-7.16-12.13c4.16,2.66,3.42,5.21,3.42,5.21,0,0-1.83-4.31-8.24-6.31,5.54,4.81,7.8,8.79,8.21,12.47,0,0,1.57-3.07.91-4.75,2.54,1.95,2.86,5.51,2.86,5.51Z"/>
        <path class="st0" d="M261.75,432.44s6.61-4.89,3.07-9.23c.7,2.78-1.14,4.07-1.14,4.07,0,0,1.47-3.07-.79-6.12.21,4.44-.84,7.45-2.71,9.73,0,0,2.57-1.35,3.17-2.53.24,1.89-1.6,4.07-1.6,4.07Z"/>
        <path class="st0" d="M139.35,420.77s-5.01,1.08-1.17,8.01c-1.08-3.44.32-3.67.32-3.67,0,0-.78,2.38,1.72,7.11-.93-4.93-.5-7.51.76-8.79,0,0-2.04-.18-2.37.72-.53-2.19.73-3.38.73-3.38Z"/>
        <path class="st0" d="M215.5,420.55s3.28-3.52-5.26-12.14c5.41,2.87,10.95,9.25,5.26,12.14Z"/>
        <path class="st0" d="M149,412.83s-4.97,2.85-1.07,13.16c-3.79-3.95-5.92-11.42,1.07-13.16Z"/>
        <path class="st0" d="M239.14,419.17s1.61-7.16-6.39-11.61c4.51-.55,9.87,3.37,6.39,11.61Z"/>
        <path class="st0" d="M254.34,426.5s5.28-4.96,1.97-12.22c3.62,1.66,5.3,7.27-1.97,12.22Z"/>
        <path class="st0" d="M192.23,420.39s-.07-6.05,3.4-9.74c-2.93,1.12-4.47,5-4.47,5,0,0-.58-1.67.08-4.29-2.33,3.67-1.99,7.44.99,9.03Z"/>
        <path class="st0" d="M157.61,421.56s-1.88-7.97.98-12.03c-3,.81-3.6,5.56-3.6,5.56,0,0-1.16-2.32-1.19-5.62-1.56,4.3-.05,9.33,3.82,12.09Z"/>
        <path class="st0" d="M246.58,411.35s1.73,7.06-1.06,11.65c2.9-1.55,3.53-6.2,3.53-6.2,0,0,1.09,1.9,1.09,5.01,1.54-4.47.14-8.85-3.56-10.46Z"/>
        <path class="st0" d="M181.39,419.78s-1.37-6.16,6.09-12.27c-6.32,2.72-8.55,7.98-6.09,12.27Z"/>
        <path class="st0" d="M174.19,419.41s-1.76-5.13,5.08-15.1c-5.28,4.04-7.11,10.81-5.08,15.1Z"/>
        <path class="st0" d="M203.8,421s3.47-4.77-3.74-9.3c6.55,1.63,9.4,5.33,3.74,9.3Z"/>
        <path class="st0" d="M165.77,418.71s-3.24-6.2,4.69-13.76c-5.95,2.5-8.9,6.84-4.69,13.76Z"/>
      </g>
    </g>
  </g>
</svg>