<?xml version="1.0" encoding="UTF-8"?>
<svg id="Layer_1" xmlns="http://www.w3.org/2000/svg" version="1.1" viewBox="0 0 400 600">
  <!-- Generator: Adobe Illustrator 29.5.1, SVG Export Plug-In . SVG Version: 2.1.0 Build 141)  -->
  <defs>
    <style>
      .st0 {
        fill: #fff;
      }

      .st1 {
        fill: $[hairColor];
      }

      .st2 {
        opacity: .2;
      }
    </style>
  </defs>
  <g id="beard_4">
    <g id="beard">
      <path class="st1" d="M344.71,429.36c8.09-28.43,1.56-71.52.66-75.13-1.39-5.53-10.26-1.83-10.26-1.83,0,0-17.75,68.93-47.27,94.43-29.52,25.51-46.79,41.63-62.8,38.28-16.01-3.35-22.25-12.23-16-18.5,6.25-6.27,4.11-10.26,4.11-10.26-5,2.09-13.14-.84-13.14-.84,0,0-7.58,2.93-12.59.84,0,0-1.3,3.98,4.95,10.26,6.25,6.27,1.65,15.15-14.36,18.5-16.01,3.35-34.65-12.26-64.17-37.76-29.52-25.51-47.74-92.92-47.74-92.92,0,0-13.14-7.3-12.22.57.84,7.21-4.74,37.38,2.3,68.35s7.7,34.86,8.69,37.25c1.96,5.87,4.22,13.16,4.22,13.16l.49-2.71c.45.55.92,1.17,1.39,1.82,1.49,2.49,3.11,4.9,4.87,7.18.36.46.74.95,1.15,1.44l2.71,5.37s.07-.96.1-2.05c1.33,1.5,2.8,3.09,4.43,4.74,5.08,5.97,8.86,10.34,8.86,10.34v-2.04c.64.56,1.3,1.11,1.97,1.67,1.85,2.62,4.56,6.32,6.13,7.85v-2.2s8.08,10.48,13.49,14.41v-2.16s10.85,11,19.98,14.85v-1.96s16,10.07,19.51,9.82l3.29-1.57s3.45,2.74,7.05,3.34c0,0,1.54-1.71,2.59-1.77,1.12-.06,10.58,3.33,16.65,3.65,0,0,1.26-2.83,2.15-2.08,3.4,2.89,10.57,2.92,14.2,4.31-.02.89,1.97.89,1.95,0,3.63-1.38,10.8-1.42,14.2-4.31.89-.75,2.15,2.08,2.15,2.08,6.07-.32,15.54-3.7,16.65-3.65,1.05.05,2.59,1.77,2.59,1.77,3.6-.6,7.05-3.34,7.05-3.34l3.29,1.57c3.5.24,19.51-9.82,19.51-9.82v1.96c9.13-3.85,19.98-14.85,19.98-14.85v2.16c5.41-3.93,13.49-14.41,13.49-14.41v2.2c2.56-2.5,8.11-10.7,8.11-10.7v3.21s6.14-7.1,13.28-15.56c.02,1.26.11,2.52.11,2.52l3.36-6.64c2.21-2.64,3.4-5.3,5.51-7.87l1.13,1.3s4.17-15.87,12.25-44.31Z"/>
      <path class="st1" d="M198.72,404.56c-.68-8.07-11.83-12.48-25.06-7.43-13.23,5.06-34.64,28.26-46.34,29.03-10.6.69-16.24-5.32-15.3-11.64.94-6.32,6.81-7.43,10.4-7.27,3.59.16,6.24,2.69,6.81,3.48,0,0-.76-6.8-10.02-6.8s-16.88,8.76-13.1,18.24c3.78,9.48,13.67,14.94,34.46,12.57,20.8-2.37,59.37-15.8,58.15-30.18Z"/>
      <path class="st1" d="M201.08,404.56c.68-8.07,11.83-12.48,25.06-7.43,13.23,5.06,34.64,28.26,46.34,29.03,10.6.69,16.24-5.32,15.3-11.64-.94-6.32-6.81-7.43-10.4-7.27-3.59.16-6.24,2.69-6.81,3.48,0,0,.76-6.8,10.02-6.8s16.88,8.76,13.1,18.24c-3.78,9.48-13.67,14.94-34.46,12.57-20.8-2.37-59.37-15.8-58.15-30.18Z"/>
    </g>
    <g id="details" class="st2">
      <path class="st0" d="M298.64,497.34c-29.52,25.51-59.03,27.18-75.04,23.84-16.01-3.35-12.53-20.08-17.62-23.48-2.6-1.73-5.84-17.35-5.84-17.35,0,0-1.72,15.25-4.94,17.33-6.26,4.04-.62,20.15-16.62,23.5-16.01,3.35-45.53,1.67-75.04-23.84-17.58-15.19-31.28-35.29-41.33-43.89,1.07,1.48,6.9,20.33,6.9,20.33l.49-2.71c2.11,2.57,4.56,6.53,6.77,9.17l3.36,6.64s.09-1.26.11-2.52c7.14,8.46,13.28,15.56,13.28,15.56v-3.21s5.55,8.2,8.11,10.7v-2.2s8.08,10.48,13.49,14.41v-2.16s10.85,11,19.98,14.85v-1.96s16,10.07,19.51,9.82l3.29-1.57s3.45,2.74,7.05,3.34c0,0,1.54-1.71,2.59-1.77,1.12-.06,10.58,3.33,16.65,3.65,0,0,1.26-2.83,2.15-2.08,3.4,2.89,10.57,2.92,14.2,4.31-.02.89,1.97.89,1.95,0,3.63-1.38,10.8-1.42,14.2-4.31.89-.75,2.15,2.08,2.15,2.08,6.07-.32,15.54-3.7,16.65-3.65,1.05.05,2.59,1.77,2.59,1.77,3.6-.6,7.05-3.34,7.05-3.34l3.29,1.57c3.5.24,19.51-9.82,19.51-9.82v1.96c9.13-3.85,19.98-14.85,19.98-14.85v2.16c5.41-3.93,13.49-14.41,13.49-14.41v2.2c2.56-2.5,8.11-10.7,8.11-10.7v3.21s6.14-7.1,13.28-15.56c.02,1.26.11,2.52.11,2.52l3.36-6.64c2.21-2.64,3.4-5.3,5.51-7.87l1.13,1.3s3.58-15.67,4.64-17.14c-10.05,8.6-20.88,25.61-38.46,40.81Z"/>
      <g>
        <path class="st0" d="M220.95,412.02s.45.24,1.19.7c.73.45,1.77,1.1,3.03,1.88,2.48,1.54,5.83,3.5,9.16,5.47,3.34,1.97,6.69,3.96,9.21,5.48,2.51,1.53,4.18,2.63,4.18,2.63,0,0-2.08-.41-4.97-1.45-2.89-1.04-6.65-2.65-10.07-4.7-3.46-2.01-6.53-4.45-8.61-6.45-2.1-2.01-3.11-3.56-3.11-3.56Z"/>
        <path class="st0" d="M207.88,401.22s1.13.4,2.63,1.09c1.5.7,3.42,1.66,5.24,2.7,1.83,1.03,3.59,2.15,4.94,3.01,1.34.87,2.26,1.55,2.26,1.55,0,0-1.24.05-2.96-.33-1.72-.37-3.93-1.13-5.86-2.24-1.95-1.08-3.59-2.51-4.68-3.66-1.09-1.16-1.58-2.11-1.58-2.11Z"/>
        <path class="st0" d="M244.21,412.97s-1.37-.66-3.28-1.72c-1.9-1.06-4.37-2.49-6.78-3.95-2.42-1.46-4.79-2.96-6.62-4.07-1.82-1.13-3.08-1.94-3.08-1.94,0,0,1.6.09,3.82.74,2.22.63,5.06,1.79,7.57,3.33,2.54,1.51,4.7,3.39,6.18,4.9,1.47,1.51,2.19,2.71,2.19,2.71Z"/>
        <path class="st0" d="M262.69,429.27s-1.17-.77-2.75-1.97c-1.57-1.21-3.6-2.82-5.54-4.47-1.93-1.68-3.86-3.35-5.31-4.61-1.45-1.29-2.44-2.22-2.44-2.22,0,0,1.47.27,3.41,1.13,1.94.85,4.36,2.26,6.39,4.01,2.06,1.72,3.7,3.74,4.76,5.33,1.06,1.59,1.48,2.8,1.48,2.8Z"/>
        <path class="st0" d="M206.13,405.46s1.37,1.14,3.35,2.8c1.98,1.67,4.6,3.85,7.3,5.91,2.7,2.06,5.5,4.02,7.77,5.38,1.15.64,2.07,1.28,2.8,1.61.7.38,1.09.63,1.09.63,0,0-.48-.05-1.3-.2-.82-.15-2.02-.37-3.36-.85-2.7-.9-6.1-2.58-8.93-4.79-2.89-2.17-5.16-4.8-6.64-6.86-1.48-2.07-2.07-3.63-2.07-3.63Z"/>
        <path class="st0" d="M225.17,408.07s2.24.78,5.37,2.28c3.12,1.51,7.17,3.68,10.89,6.23,3.75,2.52,7.15,5.45,9.26,7.98,1.1,1.23,1.71,2.45,2.13,3.27.29.89.39,1.37.39,1.37,0,0-.32-.42-.89-1.15-.61-.7-1.63-1.57-2.87-2.6-1.23-1.04-2.84-2.11-4.5-3.32-1.71-1.17-3.52-2.42-5.34-3.67-3.67-2.48-7.3-5.04-10-7-2.7-1.96-4.43-3.38-4.43-3.38Z"/>
      </g>
      <g>
        <path class="st0" d="M176.59,412.02s-.45.24-1.19.7c-.73.45-1.77,1.1-3.03,1.88-2.48,1.54-5.83,3.5-9.16,5.47-3.34,1.97-6.69,3.96-9.21,5.48-2.51,1.53-4.18,2.63-4.18,2.63,0,0,2.08-.41,4.97-1.45,2.89-1.04,6.65-2.65,10.07-4.7,3.46-2.01,6.53-4.45,8.61-6.45,2.1-2.01,3.11-3.56,3.11-3.56Z"/>
        <path class="st0" d="M190.43,400.46s-1.13.4-2.63,1.09c-1.5.7-3.42,1.66-5.24,2.7-1.83,1.03-3.59,2.15-4.94,3.01-1.34.87-2.26,1.55-2.26,1.55,0,0,1.24.05,2.96-.33,1.72-.37,3.93-1.13,5.86-2.24,1.95-1.08,3.59-2.51,4.68-3.66,1.09-1.16,1.58-2.11,1.58-2.11Z"/>
        <path class="st0" d="M153.34,416.32s1.37-.66,3.28-1.72c1.9-1.06,4.37-2.49,6.78-3.95,2.42-1.46,4.79-2.96,6.62-4.07,1.82-1.13,3.08-1.94,3.08-1.94,0,0-1.6.09-3.82.74-2.22.63-5.06,1.79-7.57,3.33-2.54,1.51-4.7,3.39-6.18,4.9-1.47,1.51-2.19,2.71-2.19,2.71Z"/>
        <path class="st0" d="M132.67,431.9s1.17-.77,2.75-1.97c1.57-1.21,3.6-2.82,5.54-4.47,1.93-1.68,3.86-3.35,5.31-4.61,1.45-1.29,2.44-2.22,2.44-2.22,0,0-1.47.27-3.41,1.13-1.94.85-4.36,2.26-6.39,4.01-2.06,1.72-3.7,3.74-4.76,5.33-1.06,1.59-1.48,2.8-1.48,2.8Z"/>
        <path class="st0" d="M191.14,406.3s-1.37,1.14-3.35,2.8c-1.98,1.67-4.6,3.85-7.3,5.91-2.7,2.06-5.5,4.02-7.77,5.38-1.15.64-2.07,1.28-2.8,1.61-.7.38-1.09.63-1.09.63,0,0,.48-.05,1.3-.2.82-.15,2.02-.37,3.36-.85,2.7-.9,6.1-2.58,8.93-4.79,2.89-2.17,5.16-4.8,6.64-6.86,1.48-2.07,2.07-3.63,2.07-3.63Z"/>
        <path class="st0" d="M172.81,408.78s-2.24.78-5.37,2.28c-3.12,1.51-7.17,3.68-10.89,6.23-3.75,2.52-7.15,5.45-9.26,7.98-1.1,1.23-1.71,2.45-2.13,3.27-.29.89-.39,1.37-.39,1.37,0,0,.32-.42.89-1.15.61-.7,1.63-1.57,2.87-2.6,1.23-1.04,2.84-2.11,4.5-3.32,1.71-1.17,3.52-2.42,5.34-3.67,3.67-2.48,7.3-5.04,10-7,2.7-1.96,4.43-3.38,4.43-3.38Z"/>
      </g>
    </g>
  </g>
</svg>