<?xml version="1.0" encoding="UTF-8"?>
<svg id="Layer_1" xmlns="http://www.w3.org/2000/svg" version="1.1" viewBox="0 0 400 600">
  <!-- Generator: Adobe Illustrator 29.5.1, SVG Export Plug-In . SVG Version: 2.1.0 Build 141)  -->
  <defs>
    <style>
      .st0 {
        fill: #fff;
        opacity: .25;
      }

      .st1 {
        fill: #0e0000;
      }
    </style>
  </defs>
  <g id="beard_9">
    <path id="beard" class="st1" d="M348.26,406.14c2.2-21.58,1.99-42.89-.86-73.94l-2.17-6.71c-4.36,22.39-18.01,75.1-54.84,116.16-2.23-10.99-15.28-55.7-79.47-46.69,0,0-13.39,3.77-8.3,18,0,0,61.64-1.39,69.34,46.41-9.7,8.03-20.59,15.2-32.88,21.04,0,0-31.89,13.5-11-8.92h-56.16c20.89,22.41-9.59,8.92-9.59,8.92-12.29-5.84-23.18-13.02-32.88-21.04,7.7-47.8,67.62-46.41,67.62-46.41,5.08-14.23-6.58-18-6.58-18-64.19-9.01-77.24,35.69-79.47,46.69-39.37-43.9-52.72-97.61-56.08-116.85l-1.99,6.37c-2.21,26.56-2.15,49.06-.4,69.18,4.14,63.63,20.05,98.52,42.24,124.08-.44-5.43-.59-10.88-.44-16.32.32.32.63.64.97.95,8.63,25.68,37.11,50.88,43.59,53.77-1.18-4.62-2.36-9.24-3.54-13.87,29.23,23.28,50.36,33.59,70.95,33.75,6.39.05,47.99-19.89,56.87-34.76.06-.1.12-.19.17-.29.63,5.56-.03,11.21-1.68,16.56.06-.02.11-.04.17-.07,18.01-9.01,38.37-41.76,39.25-45.62,1.86,4.89-2.08,14.74-3.19,21.63,24.43-24.08,44.55-64.85,50.38-134.03Z"/>
    <path id="details" class="st0" d="M322.93,466.19c2.44-16.27-14.62-30.73-14.62-30.73,7.92,22.3-20.71,80.75-20.71,80.75,1-21.07-12.18-31.94-12.18-31.94.61,23.5-25.58,57.25-25.58,57.25,6.7-9.64-7.31-33.14-7.31-33.14,0,27.12-26.8,44.59-26.8,44.59-8.53-1.2-32.28-32.54-32.28-32.54-4.87,6.63,4.26,32.54,4.26,32.54-26.19-9.64-35.93-50.02-35.93-50.02-11.57,9.04-4.26,32.54-4.26,32.54-19.49-16.87-27.41-57.6-27.41-57.6-9.14,7.48-4.87,34.1-4.87,34.1-18.88-22.9-28.62-71.71-28.62-71.71-6.09,9.64,0,34.95,0,34.95-17.93-20.38-29.16-67-35.06-99,1.39,79.27,18.37,119.59,43.22,148.22-.49-6.1-.65-12.22-.39-18.33,7.31,26.67,37.78,53.73,44.5,56.73-1.18-4.62-2.36-9.24-3.54-13.87,29.23,23.28,50.36,33.59,70.95,33.75,6.39.05,47.99-19.89,56.87-34.76.06-.1.12-.19.17-.29.63,5.56-.03,11.21-1.68,16.56.06-.02.11-.04.17-.07,18.01-9.01,38.37-41.76,39.25-45.62,1.86,4.89-2.08,14.74-3.19,21.63,26.91-26.53,48.61-73.33,51.71-156.07-11.33,39.9-26.67,82.09-26.67,82.09Z"/>
  </g>
</svg>