<?xml version="1.0" encoding="UTF-8"?>
<svg id="Layer_1" xmlns="http://www.w3.org/2000/svg" version="1.1" viewBox="0 0 400 600">
  <!-- Generator: Adobe Illustrator 29.5.1, SVG Export Plug-In . SVG Version: 2.1.0 Build 141)  -->
  <defs>
    <style>
      .st0 {
        stroke: #000;
      }
    </style>
  </defs>
  <path id="honest_abe_stache" class="st0" d="M340,300c0,105-85,140-85,140,0,0-5,30-15,30-30,0-30-10-40-10s-10,10-40,10c-10,0-15-30-15-30,0,0-85-35-85-140h-10c0,105,10.22,144.17,10.22,144.17,0,0,64.78,75.83,139.78,75.83s139.87-76.09,139.87-76.09c0,0,10.13-38.91,10.13-143.91h-10ZM150,425c-5-5,25-20,35-20,5,0,10,5,15,5s10-5,15-5c10,0,40,15,35,20s-5-5-50-5-45,10-50,5Z"/>
</svg>