<?xml version="1.0" encoding="UTF-8"?>
<svg id="Layer_1" xmlns="http://www.w3.org/2000/svg" version="1.1" viewBox="0 0 400 600">
  <!-- Generator: Adobe Illustrator 29.5.1, SVG Export Plug-In . SVG Version: 2.1.0 Build 141)  -->
  <defs>
    <style>
      .st0 {
        stroke: #000;
		stroke-width:0.4;
		fill:$[hairColor];
      }
    </style>
  </defs>
  <path id="honest_abe" class="st0" d="M340,300c0,105-85,140-85,140,0,0-5,30-15,30-30,0-30-10-40-10s-10,10-40,10c-10,0-15-30-15-30,0,0-85-35-85-140h-10c0,105,9.52,142.48,9.52,142.48,0,0,65.48,77.52,140.48,77.52s140.48-77.52,140.48-77.52c0,0,9.52-37.48,9.52-142.48h-10Z"/>
</svg>