<?xml version="1.0" encoding="UTF-8"?>
<svg xmlns="http://www.w3.org/2000/svg" version="1.1" viewBox="0 0 400 600">
  <!-- Generator: Adobe Illustrator 29.5.1, SVG Export Plug-In . SVG Version: 2.1.0 Build 141)  -->
  <defs>
    <style>
      .st0 {
        mix-blend-mode: multiply;
        opacity: .6;
      }

      .st0, .st1 {
        fill: #a96f53;
      }

      .st2 {
        isolation: isolate;
      }
    </style>
  </defs>
  <g class="st2">
    <g id="Misc_Line_Style">
      <g id="mouth_Wrinkles_2">
        <path class="st0" d="M277.15,424.28c-.51-3.76-1.66-7.54-3.41-11.25-1.57-3.33-3.92-6.41-6.19-9.55-2.58-3.56-4.89-7.2-6-11.05-.05-.17-.39-.09-.41.02-.68,3.02,1.38,6.36,3.34,9.26,2.12,3.13,4.65,6.17,6.44,9.39,4.05,7.26,5.65,15.08,5.18,22.33-.28,4.29-1.24,8.37-2.48,12.4-.05.17.32.2.37.07,2.64-6.7,4.17-14.09,3.15-21.63Z"/>
        <path class="st0" d="M123.09,424.28c.51-3.76,1.66-7.54,3.41-11.25,1.57-3.33,3.92-6.41,6.19-9.55,2.58-3.56,4.89-7.2,6-11.05.05-.17.39-.09.41.02.68,3.02-1.38,6.36-3.34,9.26-2.12,3.13-4.65,6.17-6.44,9.39-4.05,7.26-5.65,15.08-5.18,22.33.28,4.29,1.24,8.37,2.48,12.4.05.17-.32.2-.37.07-2.64-6.7-4.17-14.09-3.15-21.63Z"/>
      </g>
      <g id="mouth_Wrinkles_1">
        <g>
          <path class="st1" d="M271.07,417.01c-.95-2.4-2.43-4.51-4.16-6.41-3.28-3.58-7.21-6.43-11.15-9.23-1.88-1.33-3.73-2.69-5.48-4.19-1.73-1.49-3.41-3.13-4.75-4.98-.33-.46-.7-.9-1.02-1.37-.09-.13-.31.04-.25.17.48,1.06,1.03,2.05,1.7,3,.66.92,1.38,1.78,2.18,2.58,1.61,1.63,3.42,3.04,5.26,4.4,1.84,1.36,3.73,2.66,5.57,4.03,1.93,1.44,3.79,3,5.52,4.67,1.82,1.76,3.5,3.7,4.72,5.93,1.27,2.33,1.94,4.95,2.17,7.58.24,2.68.03,5.41-.46,8.05-.53,2.81-1.44,5.52-2.34,8.23-.44,1.34-.91,2.68-1.28,4.05-.37,1.39-.65,2.8-.89,4.21-.07.44-.14.88-.21,1.32.3-.78.6-1.56.9-2.35.32-.84.65-1.68.98-2.52.26-1,.56-1.99.9-2.98.91-2.7,1.87-5.39,2.54-8.17.65-2.68,1.02-5.43.99-8.19-.03-2.67-.45-5.36-1.43-7.85Z"/>
          <path class="st1" d="M286.47,413.39c-.49-2.9-1.16-5.77-2.12-8.55-.05-.15-.29-.01-.27.12.95,5.16,1.87,10.33,2.12,15.58.25,5.3-.63,10.51-1.85,15.65-.34,1.43-.68,2.86-1.03,4.28-.35,1.43-.73,2.86-.97,4.31-.05.29.42.13.48-.05.86-2.53,1.54-5.14,2.23-7.73.68-2.57,1.26-5.17,1.66-7.79.8-5.26.63-10.58-.25-15.81Z"/>
        </g>
        <g>
          <path class="st1" d="M129.87,417.01c.95-2.4,2.43-4.51,4.16-6.41,3.28-3.58,7.21-6.43,11.15-9.23,1.88-1.33,3.73-2.69,5.48-4.19,1.73-1.49,3.41-3.13,4.75-4.98.33-.46.7-.9,1.02-1.37.09-.13.31.04.25.17-.48,1.06-1.03,2.05-1.7,3-.66.92-1.38,1.78-2.18,2.58-1.61,1.63-3.42,3.04-5.26,4.4-1.84,1.36-3.73,2.66-5.57,4.03-1.93,1.44-3.79,3-5.52,4.67-1.82,1.76-3.5,3.7-4.72,5.93-1.27,2.33-1.94,4.95-2.17,7.58-.24,2.68-.03,5.41.46,8.05.53,2.81,1.44,5.52,2.34,8.23.44,1.34.91,2.68,1.28,4.05.37,1.39.65,2.8.89,4.21.07.44.14.88.21,1.32-.3-.78-.6-1.56-.9-2.35-.32-.84-.65-1.68-.98-2.52-.26-1-.56-1.99-.9-2.98-.91-2.7-1.87-5.39-2.54-8.17-.65-2.68-1.02-5.43-.99-8.19.03-2.67.45-5.36,1.43-7.85Z"/>
          <path class="st1" d="M114.46,413.39c.49-2.9,1.16-5.77,2.12-8.55.05-.15.29-.01.27.12-.95,5.16-1.87,10.33-2.12,15.58-.25,5.3.63,10.51,1.85,15.65.34,1.43.68,2.86,1.03,4.28.35,1.43.73,2.86.97,4.31.05.29-.42.13-.48-.05-.86-2.53-1.54-5.14-2.23-7.73-.68-2.57-1.26-5.17-1.66-7.79-.8-5.26-.63-10.58.25-15.81Z"/>
        </g>
      </g>
    </g>
  </g>
</svg>