<?xml version="1.0" encoding="UTF-8"?>
<svg xmlns="http://www.w3.org/2000/svg" version="1.1" viewBox="0 0 400 600">
  <!-- Generator: Adobe Illustrator 29.5.1, SVG Export Plug-In . SVG Version: 2.1.0 Build 141)  -->
  <defs>
    <style>
      .st0 {
        mix-blend-mode: multiply;
        opacity: .55;
      }

      .st1 {
        fill: #a96f53;
      }

      .st2 {
        isolation: isolate;
      }

      .st3 {
        fill: #7b553d;
      }
    </style>
  </defs>
  <g class="st2">
    <g id="Misc_Line_Style">
      <g id="moles_1">
        <g class="st0">
          <path class="st3" d="M272.22,391.67c-.06-.24-.19-.44-.38-.58-.23-.16-.44-.2-.71-.22-.05,0-.1,0-.16,0-.02-.05-.04-.11-.06-.13-.05-.05-.09-.1-.14-.15,0,0,0,0,0,0-.01,0-.02-.02-.04-.02-.08-.04-.16-.09-.25-.12-.07-.03-.13-.04-.2-.05-.11-.04-.22-.04-.33-.02-.12,0-.24.04-.36.1-.08.05-.16.1-.24.15-.15.11-.27.25-.36.42-.22.36-.41.73-.57,1.13-.04.1-.08.21-.1.32-.03.16-.08.34-.08.51,0,.14,0,.31.05.44.1.27.14.35.35.55.02.02.04.03.06.04.09.06.19.11.29.15.02,0,.05.02.07.02.11.02.23.04.34.05.15.01.32-.02.47-.04.06,0,.13-.02.19-.04.17-.05.34-.11.5-.17.06-.02.12-.05.18-.08.6-.31,1.2-.8,1.43-1.51.07-.23.1-.51.04-.74Z"/>
          <path class="st3" d="M278.69,387.71c-1.04,0-2.02,2.05-.63,2.05,1.04,0,2.02-2.05.63-2.05Z"/>
          <path class="st3" d="M284.31,393.76c-.69,0-1.34,1.36-.42,1.36.69,0,1.34-1.36.42-1.36Z"/>
          <path class="st3" d="M291.92,370.69c-.31,0-.61.62-.19.62.31,0,.61-.62.19-.62Z"/>
          <path class="st3" d="M241.01,380.69c-.06-.06-.11-.12-.17-.18-.14-.1-.3-.15-.47-.15-.15,0-.29.02-.42.08-.15.04-.29.12-.42.23-.13.1-.25.22-.34.36-.1.12-.17.25-.21.41-.02.09-.03.19-.05.28-.01.18.03.35.12.5.06.06.11.12.17.18.14.1.3.15.47.15.15,0,.29-.02.42-.08.15-.04.29-.12.42-.23.13-.1.25-.22.34-.36.1-.12.17-.25.21-.41l.05-.28c.01-.18-.03-.35-.12-.5Z"/>
          <path class="st3" d="M232.08,365.13c-1.13,0-2.19,2.22-.69,2.22,1.13,0,2.19-2.22.69-2.22Z"/>
          <path class="st3" d="M225.74,386.18c-.99,0-1.92,1.95-.6,1.95.99,0,1.92-1.95.6-1.95Z"/>
          <path class="st3" d="M297.32,375.78s-.04-.04-.06-.07c-.05-.05-.1-.11-.15-.16l-.19-.1c-.11-.04-.23-.05-.34-.02-.09,0-.17.02-.25.06-.09.02-.17.06-.25.12-.09.04-.16.1-.23.18-.08.06-.14.13-.19.22-.08.1-.15.22-.19.36-.02.08-.03.16-.05.25,0,.08.01.16.02.23.03.07.06.14.09.21.05.05.1.11.15.16l.19.1c.11.04.23.05.34.02.09,0,.17-.02.25-.06.13-.04.26-.1.37-.2.03-.02.07-.05.1-.07.11-.08.19-.17.26-.29.08-.09.13-.2.17-.32.01-.07.03-.15.04-.22.01-.14-.02-.28-.09-.4Z"/>
          <path class="st3" d="M302.64,359.6c-.08-.12-.19-.2-.32-.24-.03-.01-.06-.02-.09-.03-.01,0-.03-.01-.04-.02,0,0,0,0-.01,0-.1-.03-.2-.03-.3,0-.12.03-.23.08-.32.16-.05.04-.11.1-.16.16-.04.04-.07.07-.11.11,0,0-.02.02-.03.03,0,0,0,0-.01.01-.06.06-.11.13-.15.22-.08.14-.13.29-.14.46-.01.15.02.29.1.41.08.12.19.2.32.24.14.04.29.05.44,0,.17-.04.32-.12.46-.23.14-.11.26-.24.35-.4.08-.14.13-.29.14-.46.01-.15-.02-.29-.1-.41Z"/>
          <path class="st3" d="M304.63,360.8c-.7,0-1.36,1.38-.43,1.38.7,0,1.36-1.38.43-1.38Z"/>
          <path class="st3" d="M302.65,290.55c-.17-.1-.34-.2-.53-.24-.09-.02-.18-.03-.27-.04-.07-.15-.2-.27-.36-.33-.3-.1-.7,0-.94.23h0s-.04.02-.06.04c-.25.15-.44.37-.6.63-.04.07-.08.14-.12.21-.12.22-.23.45-.32.69-.15.39-.22.83-.21,1.26-.02.15,0,.29.08.42.04.14.12.25.24.33.24.17.54.21.82.13.18-.05.34-.09.52-.15.27-.1.47-.21.72-.38.18-.12.33-.29.49-.44,0,0,0,0,0,0,.16-.1.31-.22.43-.38.14-.15.25-.32.32-.52.09-.17.14-.35.15-.54,0-.33-.09-.72-.37-.89Z"/>
          <path class="st3" d="M296.78,284.23c-1.25,0-2.43,2.47-.76,2.47,1.25,0,2.43-2.47.76-2.47Z"/>
          <path class="st3" d="M302.22,303.24c-1.25,0-2.43,2.47-.76,2.47,1.25,0,2.43-2.47.76-2.47Z"/>
        </g>
        <g class="st0">
          <path class="st3" d="M127.56,392.41c.22.72.83,1.21,1.43,1.51.06.03.12.06.18.08.16.06.33.13.5.17.06.02.13.03.19.04.14.02.32.05.47.04.12,0,.23-.03.34-.05.02,0,.05-.01.07-.02.1-.04.2-.09.29-.15.02-.01.04-.03.06-.04.21-.2.25-.27.35-.55.05-.14.05-.31.05-.44,0-.17-.04-.36-.08-.51-.02-.11-.06-.22-.1-.32-.16-.4-.35-.77-.57-1.13-.1-.17-.22-.3-.36-.42-.08-.05-.16-.1-.24-.15-.11-.06-.23-.09-.36-.1-.11-.02-.22-.02-.33.02-.07.01-.14.03-.2.05-.09.03-.17.08-.25.12-.01,0-.03.01-.04.02,0,0,0,0,0,0-.05.05-.09.1-.14.15-.02.02-.04.08-.06.13-.05,0-.1,0-.16,0-.27.02-.48.06-.71.22-.19.13-.32.34-.38.58-.06.23-.03.51.04.74Z"/>
          <path class="st3" d="M121.05,387.71c1.04,0,2.02,2.05.63,2.05-1.04,0-2.02-2.05-.63-2.05Z"/>
          <path class="st3" d="M115.43,393.76c.69,0,1.34,1.36.42,1.36-.69,0-1.34-1.36-.42-1.36Z"/>
          <path class="st3" d="M107.82,370.69c.31,0,.61.62.19.62-.31,0-.61-.62-.19-.62Z"/>
          <path class="st3" d="M158.73,380.69c.06-.06.11-.12.17-.18.14-.1.3-.15.47-.15.15,0,.29.02.42.08.15.04.29.12.42.23.13.1.25.22.34.36.1.12.17.25.21.41.02.09.03.19.05.28.01.18-.03.35-.12.5-.06.06-.11.12-.17.18-.14.1-.3.15-.47.15-.15,0-.29-.02-.42-.08-.15-.04-.29-.12-.42-.23-.13-.1-.25-.22-.34-.36-.1-.12-.17-.25-.21-.41l-.05-.28c-.01-.18.03-.35.12-.5Z"/>
          <path class="st3" d="M167.66,365.13c1.13,0,2.19,2.22.69,2.22-1.13,0-2.19-2.22-.69-2.22Z"/>
          <path class="st3" d="M174,386.18c.99,0,1.92,1.95.6,1.95-.99,0-1.92-1.95-.6-1.95Z"/>
          <path class="st3" d="M102.42,375.78s.04-.04.06-.07c.05-.05.1-.11.15-.16l.19-.1c.11-.04.23-.05.34-.02.09,0,.17.02.25.06.09.02.17.06.25.12.09.04.16.1.23.18.08.06.14.13.19.22.08.1.15.22.19.36.02.08.03.16.05.25,0,.08-.01.16-.02.23-.03.07-.06.14-.09.21-.05.05-.1.11-.15.16l-.19.1c-.11.04-.23.05-.34.02-.09,0-.17-.02-.25-.06-.13-.04-.26-.1-.37-.2-.03-.02-.07-.05-.1-.07-.11-.08-.19-.17-.26-.29-.08-.09-.13-.2-.17-.32-.01-.07-.03-.15-.04-.22-.01-.14.02-.28.09-.4Z"/>
          <path class="st3" d="M97.1,359.6c.08-.12.19-.2.32-.24.03-.01.06-.02.09-.03.01,0,.03-.01.04-.02,0,0,0,0,.01,0,.1-.03.2-.03.3,0,.12.03.22.08.32.16.05.04.11.1.16.16.04.04.07.07.11.11,0,0,.02.02.03.03,0,0,0,0,.01.01.06.06.11.13.15.22.08.14.13.29.14.46.01.15-.02.29-.1.41-.08.12-.19.2-.32.24-.14.04-.29.05-.44,0-.17-.04-.32-.12-.46-.23-.14-.11-.26-.24-.35-.4-.08-.14-.13-.29-.14-.46-.01-.15.02-.29.1-.41Z"/>
          <path class="st3" d="M95.11,360.8c.7,0,1.36,1.38.43,1.38-.7,0-1.36-1.38-.43-1.38Z"/>
          <path class="st3" d="M97.09,290.55c.17-.1.34-.2.53-.24.09-.02.18-.03.27-.04.07-.15.2-.27.36-.33.3-.1.7,0,.94.23h0s.04.02.06.04c.25.15.44.37.6.63.04.07.08.14.12.21.12.22.23.45.32.69.15.39.22.83.21,1.26.02.15,0,.29-.08.42-.04.14-.12.25-.24.33-.24.17-.54.21-.82.13-.18-.05-.34-.09-.52-.15-.27-.1-.47-.21-.72-.38-.18-.12-.33-.29-.49-.44,0,0,0,0,0,0-.16-.1-.31-.22-.43-.38-.14-.15-.25-.32-.32-.52-.09-.17-.14-.35-.15-.54,0-.33.09-.72.37-.89Z"/>
          <path class="st3" d="M102.96,284.23c1.25,0,2.43,2.47.76,2.47-1.25,0-2.43-2.47-.76-2.47Z"/>
          <path class="st3" d="M97.52,303.24c1.25,0,2.43,2.47.76,2.47-1.25,0-2.43-2.47-.76-2.47Z"/>
        </g>
      </g>
      <g id="mouth_Wrinkles_1">
        <g>
          <path class="st1" d="M268.72,417.01c-.94-2.4-2.39-4.51-4.1-6.41-3.23-3.58-7.09-6.43-10.97-9.23-1.85-1.33-3.67-2.69-5.39-4.19-1.7-1.49-3.36-3.13-4.68-4.98-.33-.46-.69-.9-1-1.37-.08-.13-.31.04-.25.17.47,1.06,1.01,2.05,1.68,3,.65.92,1.36,1.78,2.15,2.58,1.59,1.63,3.36,3.04,5.17,4.4,1.81,1.36,3.67,2.66,5.48,4.03,1.9,1.44,3.72,3,5.43,4.67,1.79,1.76,3.45,3.7,4.64,5.93,1.25,2.33,1.91,4.95,2.14,7.58.23,2.68.03,5.41-.46,8.05-.52,2.81-1.42,5.52-2.3,8.23-.44,1.34-.9,2.68-1.26,4.05-.36,1.39-.64,2.8-.88,4.21-.07.44-.14.88-.21,1.32.3-.78.59-1.56.89-2.35.32-.84.64-1.68.96-2.52.26-1,.56-1.99.88-2.98.9-2.7,1.84-5.39,2.5-8.17.64-2.68,1.01-5.43.97-8.19-.03-2.67-.44-5.36-1.41-7.85Z"/>
          <path class="st1" d="M274.04,413.39c-.48-2.9-1.14-5.77-2.09-8.55-.05-.15-.29-.01-.27.12.94,5.16,1.84,10.33,2.08,15.58.25,5.3-.62,10.51-1.82,15.65-.33,1.43-.67,2.86-1.01,4.28-.35,1.43-.72,2.86-.96,4.31-.05.29.42.13.48-.05.85-2.53,1.52-5.14,2.19-7.73.67-2.57,1.24-5.17,1.64-7.79.79-5.26.62-10.58-.25-15.81Z"/>
        </g>
        <g>
          <path class="st1" d="M129.77,417.01c.94-2.4,2.39-4.51,4.1-6.41,3.23-3.58,7.09-6.43,10.97-9.23,1.85-1.33,3.67-2.69,5.39-4.19,1.7-1.49,3.36-3.13,4.68-4.98.33-.46.69-.9,1-1.37.08-.13.31.04.25.17-.47,1.06-1.01,2.05-1.68,3-.65.92-1.36,1.78-2.15,2.58-1.59,1.63-3.36,3.04-5.17,4.4-1.81,1.36-3.67,2.66-5.48,4.03-1.9,1.44-3.72,3-5.43,4.67-1.79,1.76-3.45,3.7-4.64,5.93-1.25,2.33-1.91,4.95-2.14,7.58-.23,2.68-.03,5.41.46,8.05.52,2.81,1.42,5.52,2.3,8.23.44,1.34.9,2.68,1.26,4.05.36,1.39.64,2.8.88,4.21.07.44.14.88.21,1.32-.3-.78-.59-1.56-.89-2.35-.32-.84-.64-1.68-.96-2.52-.26-1-.56-1.99-.88-2.98-.9-2.7-1.84-5.39-2.5-8.17-.64-2.68-1.01-5.43-.97-8.19.03-2.67.44-5.36,1.41-7.85Z"/>
          <path class="st1" d="M124.45,413.39c.48-2.9,1.14-5.77,2.09-8.55.05-.15.29-.01.27.12-.94,5.16-1.84,10.33-2.08,15.58-.25,5.3.62,10.51,1.82,15.65.33,1.43.67,2.86,1.01,4.28.35,1.43.72,2.86.96,4.31.05.29-.42.13-.48-.05-.85-2.53-1.52-5.14-2.19-7.73-.67-2.57-1.24-5.17-1.64-7.79-.79-5.26-.62-10.58.25-15.81Z"/>
        </g>
      </g>
    </g>
  </g>
</svg>