<?xml version="1.0" encoding="UTF-8"?>
<svg xmlns="http://www.w3.org/2000/svg" version="1.1" viewBox="0 0 400 600">
  <!-- Generator: Adobe Illustrator 29.5.1, SVG Export Plug-In . SVG Version: 2.1.0 Build 141)  -->
  <defs>
    <style>
      .st0 {
        isolation: isolate;
      }

      .st1 {
        opacity: .6;
      }

      .st1, .st2 {
        fill: #673d0f;
      }

      .st3 {
        mix-blend-mode: multiply;
      }
    </style>
  </defs>
  <g class="st0">
    <g id="Misc_Line_Style">
      <g id="mouth_Wrinkles_1">
        <g>
          <path class="st2" d="M268.72,417.01c-.94-2.4-2.39-4.51-4.1-6.41-3.23-3.58-7.09-6.43-10.97-9.23-1.85-1.33-3.67-2.69-5.39-4.19-1.7-1.49-3.36-3.13-4.68-4.98-.33-.46-.69-.9-1-1.37-.08-.13-.31.04-.25.17.47,1.06,1.01,2.05,1.68,3,.65.92,1.36,1.78,2.15,2.58,1.59,1.63,3.36,3.04,5.17,4.4,1.81,1.36,3.67,2.66,5.48,4.03,1.9,1.44,3.72,3,5.43,4.67,1.79,1.76,3.45,3.7,4.64,5.93,1.25,2.33,1.91,4.95,2.14,7.58.23,2.68.03,5.41-.46,8.05-.52,2.81-1.42,5.52-2.3,8.23-.44,1.34-.9,2.68-1.26,4.05-.36,1.39-.64,2.8-.88,4.21-.07.44-.14.88-.21,1.32.3-.78.59-1.56.89-2.35.32-.84.64-1.68.96-2.52.26-1,.56-1.99.88-2.98.9-2.7,1.84-5.39,2.5-8.17.64-2.68,1.01-5.43.97-8.19-.03-2.67-.44-5.36-1.41-7.85Z"/>
          <path class="st2" d="M274.04,413.39c-.48-2.9-1.14-5.77-2.09-8.55-.05-.15-.29-.01-.27.12.94,5.16,1.84,10.33,2.08,15.58.25,5.3-.62,10.51-1.82,15.65-.33,1.43-.67,2.86-1.01,4.28-.35,1.43-.72,2.86-.96,4.31-.05.29.42.13.48-.05.85-2.53,1.52-5.14,2.19-7.73.67-2.57,1.24-5.17,1.64-7.79.79-5.26.62-10.58-.25-15.81Z"/>
        </g>
        <g>
          <path class="st2" d="M129.77,417.01c.94-2.4,2.39-4.51,4.1-6.41,3.23-3.58,7.09-6.43,10.97-9.23,1.85-1.33,3.67-2.69,5.39-4.19,1.7-1.49,3.36-3.13,4.68-4.98.33-.46.69-.9,1-1.37.08-.13.31.04.25.17-.47,1.06-1.01,2.05-1.68,3-.65.92-1.36,1.78-2.15,2.58-1.59,1.63-3.36,3.04-5.17,4.4-1.81,1.36-3.67,2.66-5.48,4.03-1.9,1.44-3.72,3-5.43,4.67-1.79,1.76-3.45,3.7-4.64,5.93-1.25,2.33-1.91,4.95-2.14,7.58-.23,2.68-.03,5.41.46,8.05.52,2.81,1.42,5.52,2.3,8.23.44,1.34.9,2.68,1.26,4.05.36,1.39.64,2.8.88,4.21.07.44.14.88.21,1.32-.3-.78-.59-1.56-.89-2.35-.32-.84-.64-1.68-.96-2.52-.26-1-.56-1.99-.88-2.98-.9-2.7-1.84-5.39-2.5-8.17-.64-2.68-1.01-5.43-.97-8.19.03-2.67.44-5.36,1.41-7.85Z"/>
          <path class="st2" d="M124.45,413.39c.48-2.9,1.14-5.77,2.09-8.55.05-.15.29-.01.27.12-.94,5.16-1.84,10.33-2.08,15.58-.25,5.3.62,10.51,1.82,15.65.33,1.43.67,2.86,1.01,4.28.35,1.43.72,2.86.96,4.31.05.29-.42.13-.48-.05-.85-2.53-1.52-5.14-2.19-7.73-.67-2.57-1.24-5.17-1.64-7.79-.79-5.26-.62-10.58.25-15.81Z"/>
        </g>
      </g>
      <g id="chin_Wrinkles_1" class="st3">
        <path class="st1" d="M232.82,460.25c-2.04,1.18-3.69,2.86-5.36,4.51-.84.83-1.69,1.65-2.62,2.38-.99.78-2.08,1.45-3.15,2.11-2.27,1.41-4.64,2.69-7.13,3.66-2.35.92-4.82,1.53-7.31,1.93-5.01.8-10.16.66-15.12-.4-4.97-1.07-9.85-2.91-14.1-5.71-1.77-1.17-3.55-2.35-5.23-3.64-1.7-1.31-3.35-2.74-4.6-4.5-.3-.42-.55-.86-.76-1.34-.06-.14-.31-.01-.26.12.73,2.02,1.99,3.67,3.55,5.13,1.6,1.51,3.41,2.78,5.21,4.03,2.03,1.41,4.09,2.7,6.33,3.75,2.37,1.11,4.83,2,7.36,2.66,5.05,1.32,10.27,1.72,15.46,1.17,2.59-.28,5.16-.8,7.64-1.61,2.57-.84,5-2.02,7.34-3.38,2.24-1.3,4.47-2.69,6.38-4.46,1.77-1.65,3.32-3.52,5.16-5.09.44-.38.89-.73,1.37-1.06.22-.15.04-.37-.17-.25Z"/>
        <path class="st1" d="M215.54,476.49c-3.59,1.18-7.24,2.22-10.99,2.75-3.83.54-7.76.61-11.58-.05-2.1-.36-4.18-.93-6.12-1.81-.1-.04-.27.14-.16.2,3.41,1.81,7.15,2.69,11,2.82,3.97.13,7.95-.41,11.8-1.36,2.11-.52,4.18-1.17,6.18-2,.39-.16.33-.7-.14-.55Z"/>
      </g>
    </g>
  </g>
</svg>