<?xml version="1.0" encoding="UTF-8"?>
<svg xmlns="http://www.w3.org/2000/svg" version="1.1" viewBox="0 0 400 600">
  <!-- Generator: Adobe Illustrator 29.5.1, SVG Export Plug-In . SVG Version: 2.1.0 Build 141)  -->
  <defs>
    <style>
      .st0 {
        opacity: .7;
      }

      .st0, .st1, .st2 {
        mix-blend-mode: multiply;
      }

      .st3 {
        isolation: isolate;
      }

      .st4 {
        fill: #300000;
      }

      .st1, .st5 {
        fill: #673d0f;
        opacity: .6;
      }
    </style>
  </defs>
  <g class="st3">
    <g id="Misc_Line_Style">
      <g id="moles_2" class="st0">
        <path class="st4" d="M279.45,360.86s-.07-.02-.11-.03c-.13-.43-.7-.78-1.2-.61-1.12.37-1.73,1.22-2.24,2.14-.9,1.62-1.02,5.26,2,5.01,2.12-.17,2.87-2.85,2.78-4.34-.04-.78-.42-1.76-1.23-2.16Z"/>
        <path class="st4" d="M285.4,362.33c-.25.2-.6.84-.4,1.15,0,.23.05.43.27.52.59.26,1.15-.74,1.15-1.11,0-.64-.33-1.1-1.02-.56Z"/>
        <path class="st4" d="M282.09,372.8c-1.11-.15-1.98.77-2.48,1.5-.15.21-.27.43-.41.65-.62.86-.99,2.08-1.1,2.81-.12.82-.04,1.72.67,2.31.85.71,2.24-.25,2.76-.87.95-1.13,3.61-6,.56-6.4Z"/>
        <path class="st4" d="M291.61,367.1c-.76-.41-1.42.86-1.23,1.37-.05.17-.08.34-.11.52-.02.17.07.34.29.32.8-.09,2.01-1.71,1.06-2.21Z"/>
        <path class="st4" d="M298.78,356.52h0c.19-.35-.19-.56-.55-.21-.07.07-.11.15-.17.22-.41.24-.79.73-.9.94-.11.24-.13.58-.04.83-.13.39-.23.81-.04,1.16.04.09.17.13.27.12,1.18-.09,2.32-2.26,1.43-3.05Z"/>
        <path class="st4" d="M272.52,395.32c-.61-.13-1.08.37-1.25.92-.26.43-.4.97-.46,1.33-.09.56,0,1,.56,1.35.58.37,1.26-.6,1.43-.95.38-.75,1.05-2.36-.28-2.65Z"/>
        <path class="st4" d="M111.01,369.69c-.89-.99-2.34-2.34-3.61-1.26-.4.13-.76.46-1.02,1.06-1.03,2.45,1.31,5.68,2.99,7.52,1.48,1.63,4,1.83,4.54-.47.52-2.25-1.4-5.19-2.9-6.85Z"/>
        <path class="st4" d="M121.44,384.4c-.15-.02-.29.03-.42.09-.38-.15-.8.45-.79.72.02.58.37,1.51,1.19,1.42.43-.05.78-.46.76-.83-.01-.42-.15-1.34-.74-1.4Z"/>
        <path class="st4" d="M135.04,402.8c-.28-.47-.48-1.09-1.21-1.01-.47.06-.83.49-.82.89,0,.05.01.1.02.15-.44.77-.05,1.47.35,2.26.31.61.87,1.62,1.75,1.56h0c.3.17.68-.06.87-.27.93-1.06-.13-2.69-.95-3.58Z"/>
        <path class="st4" d="M154.43,441.46c-.09-.2-.25-.22-.43-.15-.49-.67-.69-1.43-1.64-1.74-.5-.17-.96.54-.95.88.03.8.3,1.53.77,2.21.25.36.63.87,1.07,1.16.17.16.37.31.64.4.39.13.79-.4.84-.67.05-.23.04-.46,0-.69.04-.45-.09-.91-.31-1.4Z"/>
        <path class="st4" d="M160.78,452.2c-.08-.12-.16-.24-.25-.36-.32-.41-1.05.32-.87.68.23.45.45,1.12,1.03,1.3.38.12.81-.38.84-.66.03-.28.04-.56.06-.83.03-.51-.46-.41-.81-.12Z"/>
        <path class="st4" d="M226.48,462.05c-.34-1.01-1.04-1.9-2.1-2.26-.47-.16-.95.43-1.1.73-.07.14-.12.28-.18.43-.31.2-.58.48-.74.72-.87,1.35-.95,3.54.35,4.69.72.64,1.37.77,1.92.6.55-.06,1.11-.47,1.42-.78.65-.65.82-1.7.84-2.53.02-.39-.13-1.02-.41-1.61Z"/>
        <path class="st4" d="M186.26,468.06c-.71-.02-1.48.43-1.36,1.13,0,0,0,0,0,0-.05.13-.09.26-.09.38,0,.91,1.14,2.39,2.12,1.3.52-.58.46-2.78-.68-2.82Z"/>
        <path class="st4" d="M247.54,446.51c-.36-.51-1.18.26-1.21.65-.47.61-.66,1.47.28,1.69.53.13.98-.49,1.1-.86.15-.46.12-1.06-.17-1.48Z"/>
        <path class="st4" d="M301.64,335.01c-.23-.46-.93.04-1.16.49-.17.16-.29.42-.34.61-.16.69-.09,1.57.5,2.09.16.14.47,0,.59-.12.94-.84.92-2.05.41-3.08Z"/>
      </g>
      <g id="mouth_Wrinkles_2">
        <path class="st1" d="M271.05,415.28c-.47-3.76-1.53-7.54-3.16-11.25-1.46-3.33-3.63-6.41-5.74-9.55-2.39-3.56-4.53-7.2-5.55-11.05-.05-.17-.36-.09-.38.02-.63,3.02,1.27,6.36,3.09,9.26,1.97,3.13,4.3,6.17,5.97,9.39,3.75,7.26,5.23,15.08,4.8,22.33-.25,4.29-1.15,8.37-2.29,12.4-.05.17.3.2.35.07,2.45-6.7,3.86-14.09,2.92-21.63Z"/>
        <path class="st1" d="M128.34,415.28c.47-3.76,1.53-7.54,3.16-11.25,1.46-3.33,3.63-6.41,5.74-9.55,2.39-3.56,4.53-7.2,5.55-11.05.05-.17.36-.09.38.02.63,3.02-1.27,6.36-3.09,9.26-1.97,3.13-4.3,6.17-5.97,9.39-3.75,7.26-5.23,15.08-4.8,22.33.25,4.29,1.15,8.37,2.29,12.4.05.17-.3.2-.35.07-2.45-6.7-3.86-14.09-2.92-21.63Z"/>
      </g>
      <g id="chin_Wrinkles_1" class="st2">
        <path class="st5" d="M232.82,460.25c-2.04,1.18-3.69,2.86-5.36,4.51-.84.83-1.69,1.65-2.62,2.38-.99.78-2.08,1.45-3.15,2.11-2.27,1.41-4.64,2.69-7.13,3.66-2.35.92-4.82,1.53-7.31,1.93-5.01.8-10.16.66-15.12-.4-4.97-1.07-9.85-2.91-14.1-5.71-1.77-1.17-3.55-2.35-5.23-3.64-1.7-1.31-3.35-2.74-4.6-4.5-.3-.42-.55-.86-.76-1.34-.06-.14-.31-.01-.26.12.73,2.02,1.99,3.67,3.55,5.13,1.6,1.51,3.41,2.78,5.21,4.03,2.03,1.41,4.09,2.7,6.33,3.75,2.37,1.11,4.83,2,7.36,2.66,5.05,1.32,10.27,1.72,15.46,1.17,2.59-.28,5.16-.8,7.64-1.61,2.57-.84,5-2.02,7.34-3.38,2.24-1.3,4.47-2.69,6.38-4.46,1.77-1.65,3.32-3.52,5.16-5.09.44-.38.89-.73,1.37-1.06.22-.15.04-.37-.17-.25Z"/>
        <path class="st5" d="M215.54,476.49c-3.59,1.18-7.24,2.22-10.99,2.75-3.83.54-7.76.61-11.58-.05-2.1-.36-4.18-.93-6.12-1.81-.1-.04-.27.14-.16.2,3.41,1.81,7.15,2.69,11,2.82,3.97.13,7.95-.41,11.8-1.36,2.11-.52,4.18-1.17,6.18-2,.39-.16.33-.7-.14-.55Z"/>
      </g>
    </g>
  </g>
</svg>