<?xml version="1.0" encoding="UTF-8"?>
<svg xmlns="http://www.w3.org/2000/svg" version="1.1" viewBox="0 0 400 600">
  <!-- Generator: Adobe Illustrator 29.5.1, SVG Export Plug-In . SVG Version: 2.1.0 Build 141)  -->
  <defs>
    <style>
      .st0 {
        mix-blend-mode: multiply;
        opacity: .7;
      }

      .st1 {
        fill: #a96f53;
      }

      .st2 {
        isolation: isolate;
      }

      .st3 {
        fill: #7c614b;
      }
    </style>
  </defs>
  <g class="st2">
    <g id="Misc_Line_Style">
      <g id="moles_2" class="st0">
        <path class="st3" d="M293.64,343.75s-.09-.02-.13-.04c-.16-.5-.84-.9-1.43-.71-1.34.43-2.07,1.41-2.68,2.48-1.07,1.87-1.22,6.07,2.39,5.78,2.53-.2,3.43-3.3,3.32-5.02-.05-.9-.5-2.04-1.47-2.49Z"/>
        <path class="st3" d="M300.76,345.45c-.3.23-.72.97-.48,1.33,0,.26.06.49.33.6.71.3,1.37-.85,1.38-1.28,0-.74-.4-1.27-1.22-.65Z"/>
        <path class="st3" d="M296.8,357.54c-1.33-.17-2.37.89-2.97,1.74-.17.24-.33.49-.49.75-.74.99-1.18,2.4-1.32,3.24-.15.95-.04,1.98.8,2.67,1.02.82,2.68-.29,3.3-1,1.14-1.31,4.32-6.93.67-7.39Z"/>
        <path class="st3" d="M308.19,350.96c-.9-.47-1.7.99-1.48,1.59-.06.19-.1.4-.14.6-.03.19.09.4.35.37.96-.11,2.4-1.97,1.26-2.55Z"/>
        <path class="st3" d="M316.77,338.73h0c.23-.4-.22-.65-.66-.25-.09.08-.13.17-.21.25-.49.27-.95.84-1.07,1.08-.14.28-.16.67-.04.96-.16.44-.27.93-.05,1.34.05.11.2.15.33.14,1.41-.1,2.78-2.61,1.72-3.53Z"/>
        <path class="st3" d="M285.35,383.56c-.73-.15-1.29.43-1.49,1.07-.31.49-.48,1.13-.55,1.53-.11.65,0,1.15.67,1.55.7.43,1.51-.69,1.72-1.09.46-.87,1.26-2.73-.34-3.06Z"/>
        <path class="st3" d="M92.08,353.95c-1.07-1.14-2.8-2.7-4.32-1.45-.48.16-.91.53-1.22,1.23-1.23,2.83,1.57,6.56,3.57,8.69,1.77,1.88,4.78,2.11,5.43-.55.62-2.6-1.68-6-3.47-7.91Z"/>
        <path class="st3" d="M104.56,370.94c-.18-.02-.34.03-.5.11-.46-.17-.96.52-.94.83.02.67.45,1.75,1.42,1.64.52-.06.93-.53.91-.96-.02-.48-.17-1.54-.89-1.61Z"/>
        <path class="st3" d="M120.84,392.19c-.34-.54-.58-1.26-1.45-1.16-.56.06-.99.57-.98,1.03,0,.06.02.11.02.17-.52.89-.06,1.69.41,2.61.37.71,1.04,1.87,2.1,1.8h0c.36.19.81-.06,1.04-.31,1.11-1.23-.16-3.1-1.14-4.14Z"/>
        <path class="st3" d="M144.03,436.84c-.11-.23-.3-.25-.51-.17-.59-.77-.83-1.66-1.96-2.01-.6-.19-1.15.62-1.14,1.02.03.92.36,1.77.92,2.55.3.41.75,1.01,1.28,1.34.21.19.44.35.76.46.47.16.94-.46,1.01-.77.06-.27.04-.54,0-.8.05-.52-.11-1.05-.37-1.61Z"/>
        <path class="st3" d="M151.64,449.24c-.1-.14-.19-.28-.3-.42-.39-.47-1.25.37-1.04.78.27.52.54,1.3,1.24,1.5.45.14.96-.44,1-.76.03-.32.05-.64.07-.96.04-.59-.55-.47-.97-.14Z"/>
        <path class="st3" d="M230.26,460.62c-.41-1.16-1.25-2.19-2.52-2.61-.56-.19-1.13.49-1.31.85-.08.16-.14.33-.22.49-.38.24-.7.55-.88.83-1.04,1.56-1.14,4.09.42,5.42.87.74,1.64.89,2.29.7.65-.06,1.33-.54,1.7-.9.78-.75.98-1.97,1-2.92.02-.46-.16-1.18-.49-1.86Z"/>
        <path class="st3" d="M182.13,467.57c-.85-.03-1.77.49-1.63,1.31,0,0,0,0,0,0-.06.15-.1.3-.1.44,0,1.05,1.37,2.76,2.54,1.5.62-.68.55-3.21-.81-3.26Z"/>
        <path class="st3" d="M255.45,442.67c-.43-.59-1.41.3-1.45.75-.56.7-.79,1.7.33,1.95.63.14,1.17-.57,1.32-.99.18-.53.14-1.23-.2-1.71Z"/>
        <path class="st3" d="M320.19,313.9c-.27-.53-1.11.05-1.39.57-.2.19-.35.48-.41.71-.19.8-.11,1.82.6,2.41.19.16.57,0,.71-.13,1.12-.97,1.1-2.37.49-3.55Z"/>
      </g>
      <g id="mouth_Wrinkles_1">
        <g>
          <path class="st1" d="M271.07,417.01c-.95-2.4-2.43-4.51-4.16-6.41-3.28-3.58-7.21-6.43-11.15-9.23-1.88-1.33-3.73-2.69-5.48-4.19-1.73-1.49-3.41-3.13-4.75-4.98-.33-.46-.7-.9-1.02-1.37-.09-.13-.31.04-.25.17.48,1.06,1.03,2.05,1.7,3,.66.92,1.38,1.78,2.18,2.58,1.61,1.63,3.42,3.04,5.26,4.4,1.84,1.36,3.73,2.66,5.57,4.03,1.93,1.44,3.79,3,5.52,4.67,1.82,1.76,3.5,3.7,4.72,5.93,1.27,2.33,1.94,4.95,2.17,7.58.24,2.68.03,5.41-.46,8.05-.53,2.81-1.44,5.52-2.34,8.23-.44,1.34-.91,2.68-1.28,4.05-.37,1.39-.65,2.8-.89,4.21-.07.44-.14.88-.21,1.32.3-.78.6-1.56.9-2.35.32-.84.65-1.68.98-2.52.26-1,.56-1.99.9-2.98.91-2.7,1.87-5.39,2.54-8.17.65-2.68,1.02-5.43.99-8.19-.03-2.67-.45-5.36-1.43-7.85Z"/>
          <path class="st1" d="M286.47,413.39c-.49-2.9-1.16-5.77-2.12-8.55-.05-.15-.29-.01-.27.12.95,5.16,1.87,10.33,2.12,15.58.25,5.3-.63,10.51-1.85,15.65-.34,1.43-.68,2.86-1.03,4.28-.35,1.43-.73,2.86-.97,4.31-.05.29.42.13.48-.05.86-2.53,1.54-5.14,2.23-7.73.68-2.57,1.26-5.17,1.66-7.79.8-5.26.63-10.58-.25-15.81Z"/>
        </g>
        <g>
          <path class="st1" d="M129.87,417.01c.95-2.4,2.43-4.51,4.16-6.41,3.28-3.58,7.21-6.43,11.15-9.23,1.88-1.33,3.73-2.69,5.48-4.19,1.73-1.49,3.41-3.13,4.75-4.98.33-.46.7-.9,1.02-1.37.09-.13.31.04.25.17-.48,1.06-1.03,2.05-1.7,3-.66.92-1.38,1.78-2.18,2.58-1.61,1.63-3.42,3.04-5.26,4.4-1.84,1.36-3.73,2.66-5.57,4.03-1.93,1.44-3.79,3-5.52,4.67-1.82,1.76-3.5,3.7-4.72,5.93-1.27,2.33-1.94,4.95-2.17,7.58-.24,2.68-.03,5.41.46,8.05.53,2.81,1.44,5.52,2.34,8.23.44,1.34.91,2.68,1.28,4.05.37,1.39.65,2.8.89,4.21.07.44.14.88.21,1.32-.3-.78-.6-1.56-.9-2.35-.32-.84-.65-1.68-.98-2.52-.26-1-.56-1.99-.9-2.98-.91-2.7-1.87-5.39-2.54-8.17-.65-2.68-1.02-5.43-.99-8.19.03-2.67.45-5.36,1.43-7.85Z"/>
          <path class="st1" d="M114.46,413.39c.49-2.9,1.16-5.77,2.12-8.55.05-.15.29-.01.27.12-.95,5.16-1.87,10.33-2.12,15.58-.25,5.3.63,10.51,1.85,15.65.34,1.43.68,2.86,1.03,4.28.35,1.43.73,2.86.97,4.31.05.29-.42.13-.48-.05-.86-2.53-1.54-5.14-2.23-7.73-.68-2.57-1.26-5.17-1.66-7.79-.8-5.26-.63-10.58.25-15.81Z"/>
        </g>
      </g>
    </g>
  </g>
</svg>