<?xml version="1.0" encoding="UTF-8"?>
<svg xmlns="http://www.w3.org/2000/svg" version="1.1" viewBox="0 0 400 600">
  <!-- Generator: Adobe Illustrator 29.5.1, SVG Export Plug-In . SVG Version: 2.1.0 Build 141)  -->
  <defs>
    <style>
      .st0 {
        opacity: .55;
      }

      .st0, .st1, .st2 {
        mix-blend-mode: multiply;
      }

      .st1, .st3 {
        fill: #a96f53;
        opacity: .6;
      }

      .st4 {
        isolation: isolate;
      }

      .st5 {
        fill: #7b553d;
      }
    </style>
  </defs>
  <g class="st4">
    <g id="Misc_Line_Style">
      <g id="moles_1">
        <g class="st0">
          <path class="st5" d="M272.22,391.67c-.06-.24-.19-.44-.38-.58-.23-.16-.44-.2-.71-.22-.05,0-.1,0-.16,0-.02-.05-.04-.11-.06-.13-.05-.05-.09-.1-.14-.15,0,0,0,0,0,0-.01,0-.02-.02-.04-.02-.08-.04-.16-.09-.25-.12-.07-.03-.13-.04-.2-.05-.11-.04-.22-.04-.33-.02-.12,0-.24.04-.36.1-.08.05-.16.1-.24.15-.15.11-.27.25-.36.42-.22.36-.41.73-.57,1.13-.04.1-.08.21-.1.32-.03.16-.08.34-.08.51,0,.14,0,.31.05.44.1.27.14.35.35.55.02.02.04.03.06.04.09.06.19.11.29.15.02,0,.05.02.07.02.11.02.23.04.34.05.15.01.32-.02.47-.04.06,0,.13-.02.19-.04.17-.05.34-.11.5-.17.06-.02.12-.05.18-.08.6-.31,1.2-.8,1.43-1.51.07-.23.1-.51.04-.74Z"/>
          <path class="st5" d="M278.69,387.71c-1.04,0-2.02,2.05-.63,2.05,1.04,0,2.02-2.05.63-2.05Z"/>
          <path class="st5" d="M284.31,393.76c-.69,0-1.34,1.36-.42,1.36.69,0,1.34-1.36.42-1.36Z"/>
          <path class="st5" d="M291.92,370.69c-.31,0-.61.62-.19.62.31,0,.61-.62.19-.62Z"/>
          <path class="st5" d="M241.01,380.69c-.06-.06-.11-.12-.17-.18-.14-.1-.3-.15-.47-.15-.15,0-.29.02-.42.08-.15.04-.29.12-.42.23-.13.1-.25.22-.34.36-.1.12-.17.25-.21.41-.02.09-.03.19-.05.28-.01.18.03.35.12.5.06.06.11.12.17.18.14.1.3.15.47.15.15,0,.29-.02.42-.08.15-.04.29-.12.42-.23.13-.1.25-.22.34-.36.1-.12.17-.25.21-.41l.05-.28c.01-.18-.03-.35-.12-.5Z"/>
          <path class="st5" d="M232.08,365.13c-1.13,0-2.19,2.22-.69,2.22,1.13,0,2.19-2.22.69-2.22Z"/>
          <path class="st5" d="M225.74,386.18c-.99,0-1.92,1.95-.6,1.95.99,0,1.92-1.95.6-1.95Z"/>
          <path class="st5" d="M297.32,375.78s-.04-.04-.06-.07c-.05-.05-.1-.11-.15-.16l-.19-.1c-.11-.04-.23-.05-.34-.02-.09,0-.17.02-.25.06-.09.02-.17.06-.25.12-.09.04-.16.1-.23.18-.08.06-.14.13-.19.22-.08.1-.15.22-.19.36-.02.08-.03.16-.05.25,0,.08.01.16.02.23.03.07.06.14.09.21.05.05.1.11.15.16l.19.1c.11.04.23.05.34.02.09,0,.17-.02.25-.06.13-.04.26-.1.37-.2.03-.02.07-.05.1-.07.11-.08.19-.17.26-.29.08-.09.13-.2.17-.32.01-.07.03-.15.04-.22.01-.14-.02-.28-.09-.4Z"/>
          <path class="st5" d="M302.64,359.6c-.08-.12-.19-.2-.32-.24-.03-.01-.06-.02-.09-.03-.01,0-.03-.01-.04-.02,0,0,0,0-.01,0-.1-.03-.2-.03-.3,0-.12.03-.23.08-.32.16-.05.04-.11.1-.16.16-.04.04-.07.07-.11.11,0,0-.02.02-.03.03,0,0,0,0-.01.01-.06.06-.11.13-.15.22-.08.14-.13.29-.14.46-.01.15.02.29.1.41.08.12.19.2.32.24.14.04.29.05.44,0,.17-.04.32-.12.46-.23.14-.11.26-.24.35-.4.08-.14.13-.29.14-.46.01-.15-.02-.29-.1-.41Z"/>
          <path class="st5" d="M304.63,360.8c-.7,0-1.36,1.38-.43,1.38.7,0,1.36-1.38.43-1.38Z"/>
          <path class="st5" d="M302.65,290.55c-.17-.1-.34-.2-.53-.24-.09-.02-.18-.03-.27-.04-.07-.15-.2-.27-.36-.33-.3-.1-.7,0-.94.23h0s-.04.02-.06.04c-.25.15-.44.37-.6.63-.04.07-.08.14-.12.21-.12.22-.23.45-.32.69-.15.39-.22.83-.21,1.26-.02.15,0,.29.08.42.04.14.12.25.24.33.24.17.54.21.82.13.18-.05.34-.09.52-.15.27-.1.47-.21.72-.38.18-.12.33-.29.49-.44,0,0,0,0,0,0,.16-.1.31-.22.43-.38.14-.15.25-.32.32-.52.09-.17.14-.35.15-.54,0-.33-.09-.72-.37-.89Z"/>
          <path class="st5" d="M296.78,284.23c-1.25,0-2.43,2.47-.76,2.47,1.25,0,2.43-2.47.76-2.47Z"/>
          <path class="st5" d="M302.22,303.24c-1.25,0-2.43,2.47-.76,2.47,1.25,0,2.43-2.47.76-2.47Z"/>
        </g>
        <g class="st0">
          <path class="st5" d="M127.56,392.41c.22.72.83,1.21,1.43,1.51.06.03.12.06.18.08.16.06.33.13.5.17.06.02.13.03.19.04.14.02.32.05.47.04.12,0,.23-.03.34-.05.02,0,.05-.01.07-.02.1-.04.2-.09.29-.15.02-.01.04-.03.06-.04.21-.2.25-.27.35-.55.05-.14.05-.31.05-.44,0-.17-.04-.36-.08-.51-.02-.11-.06-.22-.1-.32-.16-.4-.35-.77-.57-1.13-.1-.17-.22-.3-.36-.42-.08-.05-.16-.1-.24-.15-.11-.06-.23-.09-.36-.1-.11-.02-.22-.02-.33.02-.07.01-.14.03-.2.05-.09.03-.17.08-.25.12-.01,0-.03.01-.04.02,0,0,0,0,0,0-.05.05-.09.1-.14.15-.02.02-.04.08-.06.13-.05,0-.1,0-.16,0-.27.02-.48.06-.71.22-.19.13-.32.34-.38.58-.06.23-.03.51.04.74Z"/>
          <path class="st5" d="M121.05,387.71c1.04,0,2.02,2.05.63,2.05-1.04,0-2.02-2.05-.63-2.05Z"/>
          <path class="st5" d="M115.43,393.76c.69,0,1.34,1.36.42,1.36-.69,0-1.34-1.36-.42-1.36Z"/>
          <path class="st5" d="M107.82,370.69c.31,0,.61.62.19.62-.31,0-.61-.62-.19-.62Z"/>
          <path class="st5" d="M158.73,380.69c.06-.06.11-.12.17-.18.14-.1.3-.15.47-.15.15,0,.29.02.42.08.15.04.29.12.42.23.13.1.25.22.34.36.1.12.17.25.21.41.02.09.03.19.05.28.01.18-.03.35-.12.5-.06.06-.11.12-.17.18-.14.1-.3.15-.47.15-.15,0-.29-.02-.42-.08-.15-.04-.29-.12-.42-.23-.13-.1-.25-.22-.34-.36-.1-.12-.17-.25-.21-.41l-.05-.28c-.01-.18.03-.35.12-.5Z"/>
          <path class="st5" d="M167.66,365.13c1.13,0,2.19,2.22.69,2.22-1.13,0-2.19-2.22-.69-2.22Z"/>
          <path class="st5" d="M174,386.18c.99,0,1.92,1.95.6,1.95-.99,0-1.92-1.95-.6-1.95Z"/>
          <path class="st5" d="M102.42,375.78s.04-.04.06-.07c.05-.05.1-.11.15-.16l.19-.1c.11-.04.23-.05.34-.02.09,0,.17.02.25.06.09.02.17.06.25.12.09.04.16.1.23.18.08.06.14.13.19.22.08.1.15.22.19.36.02.08.03.16.05.25,0,.08-.01.16-.02.23-.03.07-.06.14-.09.21-.05.05-.1.11-.15.16l-.19.1c-.11.04-.23.05-.34.02-.09,0-.17-.02-.25-.06-.13-.04-.26-.1-.37-.2-.03-.02-.07-.05-.1-.07-.11-.08-.19-.17-.26-.29-.08-.09-.13-.2-.17-.32-.01-.07-.03-.15-.04-.22-.01-.14.02-.28.09-.4Z"/>
          <path class="st5" d="M97.1,359.6c.08-.12.19-.2.32-.24.03-.01.06-.02.09-.03.01,0,.03-.01.04-.02,0,0,0,0,.01,0,.1-.03.2-.03.3,0,.12.03.22.08.32.16.05.04.11.1.16.16.04.04.07.07.11.11,0,0,.02.02.03.03,0,0,0,0,.01.01.06.06.11.13.15.22.08.14.13.29.14.46.01.15-.02.29-.1.41-.08.12-.19.2-.32.24-.14.04-.29.05-.44,0-.17-.04-.32-.12-.46-.23-.14-.11-.26-.24-.35-.4-.08-.14-.13-.29-.14-.46-.01-.15.02-.29.1-.41Z"/>
          <path class="st5" d="M95.11,360.8c.7,0,1.36,1.38.43,1.38-.7,0-1.36-1.38-.43-1.38Z"/>
          <path class="st5" d="M97.09,290.55c.17-.1.34-.2.53-.24.09-.02.18-.03.27-.04.07-.15.2-.27.36-.33.3-.1.7,0,.94.23h0s.04.02.06.04c.25.15.44.37.6.63.04.07.08.14.12.21.12.22.23.45.32.69.15.39.22.83.21,1.26.02.15,0,.29-.08.42-.04.14-.12.25-.24.33-.24.17-.54.21-.82.13-.18-.05-.34-.09-.52-.15-.27-.1-.47-.21-.72-.38-.18-.12-.33-.29-.49-.44,0,0,0,0,0,0-.16-.1-.31-.22-.43-.38-.14-.15-.25-.32-.32-.52-.09-.17-.14-.35-.15-.54,0-.33.09-.72.37-.89Z"/>
          <path class="st5" d="M102.96,284.23c1.25,0,2.43,2.47.76,2.47-1.25,0-2.43-2.47-.76-2.47Z"/>
          <path class="st5" d="M97.52,303.24c1.25,0,2.43,2.47.76,2.47-1.25,0-2.43-2.47-.76-2.47Z"/>
        </g>
      </g>
      <g id="mouth_Wrinkles_2">
        <path class="st1" d="M271.05,424.28c-.47-3.76-1.53-7.54-3.16-11.25-1.46-3.33-3.63-6.41-5.74-9.55-2.39-3.56-4.53-7.2-5.55-11.05-.05-.17-.36-.09-.38.02-.63,3.02,1.27,6.36,3.09,9.26,1.97,3.13,4.3,6.17,5.97,9.39,3.75,7.26,5.23,15.08,4.8,22.33-.25,4.29-1.15,8.37-2.29,12.4-.05.17.3.2.35.07,2.45-6.7,3.86-14.09,2.92-21.63Z"/>
        <path class="st1" d="M128.34,424.28c.47-3.76,1.53-7.54,3.16-11.25,1.46-3.33,3.63-6.41,5.74-9.55,2.39-3.56,4.53-7.2,5.55-11.05.05-.17.36-.09.38.02.63,3.02-1.27,6.36-3.09,9.26-1.97,3.13-4.3,6.17-5.97,9.39-3.75,7.26-5.23,15.08-4.8,22.33.25,4.29,1.15,8.37,2.29,12.4.05.17-.3.2-.35.07-2.45-6.7-3.86-14.09-2.92-21.63Z"/>
      </g>
      <g id="chin_Wrinkles_1" class="st2">
        <path class="st3" d="M232.82,460.25c-2.04,1.18-3.69,2.86-5.36,4.51-.84.83-1.69,1.65-2.62,2.38-.99.78-2.08,1.45-3.15,2.11-2.27,1.41-4.64,2.69-7.13,3.66-2.35.92-4.82,1.53-7.31,1.93-5.01.8-10.16.66-15.12-.4-4.97-1.07-9.85-2.91-14.1-5.71-1.77-1.17-3.55-2.35-5.23-3.64-1.7-1.31-3.35-2.74-4.6-4.5-.3-.42-.55-.86-.76-1.34-.06-.14-.31-.01-.26.12.73,2.02,1.99,3.67,3.55,5.13,1.6,1.51,3.41,2.78,5.21,4.03,2.03,1.41,4.09,2.7,6.33,3.75,2.37,1.11,4.83,2,7.36,2.66,5.05,1.32,10.27,1.72,15.46,1.17,2.59-.28,5.16-.8,7.64-1.61,2.57-.84,5-2.02,7.34-3.38,2.24-1.3,4.47-2.69,6.38-4.46,1.77-1.65,3.32-3.52,5.16-5.09.44-.38.89-.73,1.37-1.06.22-.15.04-.37-.17-.25Z"/>
        <path class="st3" d="M215.54,476.49c-3.59,1.18-7.24,2.22-10.99,2.75-3.83.54-7.76.61-11.58-.05-2.1-.36-4.18-.93-6.12-1.81-.1-.04-.27.14-.16.2,3.41,1.81,7.15,2.69,11,2.82,3.97.13,7.95-.41,11.8-1.36,2.11-.52,4.18-1.17,6.18-2,.39-.16.33-.7-.14-.55Z"/>
      </g>
    </g>
  </g>
</svg>