<?xml version="1.0" encoding="UTF-8"?>
<svg xmlns="http://www.w3.org/2000/svg" version="1.1" viewBox="0 0 400 600">
  <!-- Generator: Adobe Illustrator 29.5.1, SVG Export Plug-In . SVG Version: 2.1.0 Build 141)  -->
  <defs>
    <style>
      .st0 {
        opacity: .55;
      }

      .st0, .st1, .st2 {
        mix-blend-mode: multiply;
      }

      .st1, .st3 {
        opacity: .6;
      }

      .st1, .st3, .st4 {
        fill: #a96f53;
      }

      .st5 {
        isolation: isolate;
      }

      .st6 {
        fill: #7b553d;
      }
    </style>
  </defs>
  <g class="st5">
    <g id="Misc_Line_Style">
      <g id="moles_1">
        <g class="st0">
          <path class="st6" d="M280.32,391.67c-.07-.24-.21-.44-.42-.58-.26-.16-.49-.2-.79-.22-.06,0-.12,0-.17,0-.02-.05-.05-.11-.06-.13-.05-.05-.1-.1-.15-.15,0,0,0,0,0,0-.01,0-.03-.02-.04-.02-.09-.04-.18-.09-.28-.12-.07-.03-.15-.04-.22-.05-.12-.04-.24-.04-.37-.02-.14,0-.27.04-.4.1-.09.05-.17.1-.26.15-.16.11-.29.25-.4.42-.25.36-.46.73-.63,1.13-.04.1-.08.21-.11.32-.04.16-.09.34-.09.51,0,.14,0,.31.06.44.11.27.16.35.39.55.02.02.04.03.06.04.1.06.21.11.32.15.03,0,.05.02.08.02.13.02.25.04.38.05.17.01.36-.02.52-.04.07,0,.14-.02.21-.04.19-.05.37-.11.56-.17.07-.02.14-.05.2-.08.66-.31,1.33-.8,1.58-1.51.08-.23.11-.51.04-.74Z"/>
          <path class="st6" d="M287.49,387.71c-1.15,0-2.23,2.05-.7,2.05,1.15,0,2.23-2.05.7-2.05Z"/>
          <path class="st6" d="M293.7,393.76c-.76,0-1.48,1.36-.47,1.36.76,0,1.48-1.36.47-1.36Z"/>
          <path class="st6" d="M302.13,370.69c-.35,0-.67.62-.21.62.35,0,.67-.62.21-.62Z"/>
          <path class="st6" d="M245.77,380.69c-.06-.06-.12-.12-.19-.18-.16-.1-.33-.15-.52-.15-.16,0-.32.02-.46.08-.17.04-.33.12-.47.23-.15.1-.27.22-.37.36-.11.12-.19.25-.24.41-.02.09-.04.19-.06.28-.01.18.03.35.13.5.06.06.12.12.19.18.16.1.33.15.52.15.16,0,.32-.02.46-.08.17-.04.33-.12.47-.23.15-.1.27-.22.37-.36.11-.12.19-.25.24-.41l.06-.28c.01-.18-.03-.35-.13-.5Z"/>
          <path class="st6" d="M235.88,365.13c-1.25,0-2.42,2.22-.76,2.22,1.25,0,2.42-2.22.76-2.22Z"/>
          <path class="st6" d="M228.86,386.18c-1.1,0-2.12,1.95-.67,1.95,1.1,0,2.12-1.95.67-1.95Z"/>
          <path class="st6" d="M308.11,375.78s-.04-.04-.06-.07c-.05-.05-.11-.11-.16-.16l-.21-.1c-.13-.04-.25-.05-.38-.02-.1,0-.19.02-.27.06-.1.02-.19.06-.27.12-.1.04-.18.1-.25.18-.08.06-.15.13-.21.22-.09.1-.16.22-.21.36-.02.08-.03.16-.05.25,0,.08.01.16.02.23.03.07.06.14.1.21.05.05.11.11.16.16l.21.1c.13.04.25.05.38.02.1,0,.19-.02.27-.06.15-.04.28-.1.41-.2.04-.02.07-.05.11-.07.12-.08.21-.17.29-.29.08-.09.15-.2.19-.32.02-.07.03-.15.05-.22.01-.14-.02-.28-.1-.4Z"/>
          <path class="st6" d="M314,359.6c-.09-.12-.21-.2-.35-.24-.03-.01-.07-.02-.1-.03-.02,0-.03-.01-.05-.02,0,0,0,0-.01,0-.11-.03-.22-.03-.34,0-.13.03-.25.08-.36.16-.06.04-.12.1-.18.16-.04.04-.08.07-.12.11-.01,0-.02.02-.03.03,0,0-.01,0-.02.01-.07.06-.13.13-.17.22-.09.14-.14.29-.16.46-.01.15.02.29.11.41.09.12.21.2.35.24.16.04.32.05.48,0,.19-.04.36-.12.51-.23.16-.11.29-.24.39-.4.09-.14.14-.29.16-.46.01-.15-.02-.29-.11-.41Z"/>
          <path class="st6" d="M316.2,360.8c-.78,0-1.51,1.38-.47,1.38.78,0,1.51-1.38.47-1.38Z"/>
          <path class="st6" d="M314.01,290.55c-.18-.1-.38-.2-.59-.24-.1-.02-.2-.03-.3-.04-.08-.15-.22-.27-.4-.33-.33-.1-.77,0-1.04.23h0s-.04.02-.06.04c-.27.15-.49.37-.66.63-.04.07-.09.14-.13.21-.14.22-.25.45-.35.69-.17.39-.25.83-.23,1.26-.02.15,0,.29.08.42.05.14.13.25.26.33.27.17.6.21.91.13.19-.05.38-.09.57-.15.3-.1.52-.21.8-.38.2-.12.37-.29.54-.44,0,0,0,0,.01,0,.18-.1.34-.22.48-.38.16-.15.27-.32.35-.52.1-.17.15-.35.16-.54,0-.33-.1-.72-.41-.89Z"/>
          <path class="st6" d="M307.52,284.23c-1.39,0-2.69,2.47-.85,2.47,1.39,0,2.69-2.47.85-2.47Z"/>
          <path class="st6" d="M313.53,303.24c-1.39,0-2.69,2.47-.85,2.47,1.39,0,2.69-2.47.85-2.47Z"/>
        </g>
        <g class="st0">
          <path class="st6" d="M120.17,392.41c.25.72.92,1.21,1.58,1.51.07.03.14.06.2.08.18.06.37.13.56.17.07.02.14.03.21.04.16.02.35.05.52.04.13,0,.26-.03.38-.05.03,0,.05-.01.08-.02.11-.04.22-.09.32-.15.02-.01.04-.03.06-.04.23-.2.28-.27.39-.55.06-.14.06-.31.06-.44,0-.17-.05-.36-.09-.51-.03-.11-.07-.22-.11-.32-.17-.4-.39-.77-.63-1.13-.11-.17-.24-.3-.4-.42-.09-.05-.17-.1-.26-.15-.13-.06-.26-.09-.4-.1-.12-.02-.25-.02-.37.02-.08.01-.15.03-.22.05-.09.03-.19.08-.28.12-.01,0-.03.01-.04.02,0,0,0,0,0,0-.05.05-.1.1-.15.15-.02.02-.04.08-.06.13-.06,0-.12,0-.17,0-.3.02-.53.06-.79.22-.21.13-.35.34-.42.58-.07.23-.04.51.04.74Z"/>
          <path class="st6" d="M112.96,387.71c1.15,0,2.23,2.05.7,2.05-1.15,0-2.23-2.05-.7-2.05Z"/>
          <path class="st6" d="M106.74,393.76c.76,0,1.48,1.36.47,1.36-.76,0-1.48-1.36-.47-1.36Z"/>
          <path class="st6" d="M98.32,370.69c.35,0,.67.62.21.62-.35,0-.67-.62-.21-.62Z"/>
          <path class="st6" d="M154.67,380.69c.06-.06.12-.12.19-.18.16-.1.33-.15.52-.15.16,0,.32.02.46.08.17.04.33.12.47.23.15.1.27.22.37.36.11.12.19.25.24.41.02.09.04.19.06.28.01.18-.03.35-.13.5-.06.06-.12.12-.19.18-.16.1-.33.15-.52.15-.16,0-.32-.02-.46-.08-.17-.04-.33-.12-.47-.23-.15-.1-.27-.22-.37-.36-.11-.12-.19-.25-.24-.41l-.06-.28c-.01-.18.03-.35.13-.5Z"/>
          <path class="st6" d="M164.57,365.13c1.25,0,2.42,2.22.76,2.22-1.25,0-2.42-2.22-.76-2.22Z"/>
          <path class="st6" d="M171.58,386.18c1.1,0,2.12,1.95.67,1.95-1.1,0-2.12-1.95-.67-1.95Z"/>
          <path class="st6" d="M92.34,375.78s.04-.04.06-.07c.05-.05.11-.11.16-.16l.21-.1c.13-.04.25-.05.38-.02.1,0,.19.02.27.06.1.02.19.06.27.12.1.04.18.1.25.18.08.06.15.13.21.22.09.1.16.22.21.36.02.08.03.16.05.25,0,.08-.01.16-.02.23-.03.07-.06.14-.1.21-.05.05-.11.11-.16.16l-.21.1c-.13.04-.25.05-.38.02-.1,0-.19-.02-.27-.06-.15-.04-.28-.1-.41-.2-.04-.02-.07-.05-.11-.07-.12-.08-.21-.17-.29-.29-.08-.09-.15-.2-.19-.32-.02-.07-.03-.15-.05-.22-.01-.14.02-.28.1-.4Z"/>
          <path class="st6" d="M86.44,359.6c.09-.12.21-.2.35-.24.03-.01.07-.02.1-.03.02,0,.03-.01.05-.02,0,0,0,0,.01,0,.11-.03.22-.03.34,0,.13.03.25.08.36.16.06.04.12.1.18.16.04.04.08.07.12.11.01,0,.02.02.03.03,0,0,.01,0,.02.01.07.06.13.13.17.22.09.14.14.29.16.46.01.15-.02.29-.11.41-.09.12-.21.2-.35.24-.16.04-.32.05-.48,0-.19-.04-.36-.12-.51-.23-.16-.11-.29-.24-.39-.4-.09-.14-.14-.29-.16-.46-.01-.15.02-.29.11-.41Z"/>
          <path class="st6" d="M84.25,360.8c.78,0,1.51,1.38.47,1.38-.78,0-1.51-1.38-.47-1.38Z"/>
          <path class="st6" d="M86.44,290.55c.18-.1.38-.2.59-.24.1-.02.2-.03.3-.04.08-.15.22-.27.4-.33.33-.1.77,0,1.04.23h0s.04.02.06.04c.27.15.49.37.66.63.04.07.09.14.13.21.14.22.25.45.35.69.17.39.25.83.23,1.26.02.15,0,.29-.08.42-.05.14-.13.25-.26.33-.27.17-.6.21-.91.13-.2-.05-.38-.09-.57-.15-.3-.1-.52-.21-.8-.38-.2-.12-.37-.29-.54-.44,0,0,0,0-.01,0-.18-.1-.34-.22-.48-.38-.16-.15-.27-.32-.35-.52-.1-.17-.15-.35-.16-.54,0-.33.1-.72.41-.89Z"/>
          <path class="st6" d="M92.93,284.23c1.39,0,2.69,2.47.85,2.47-1.39,0-2.69-2.47-.85-2.47Z"/>
          <path class="st6" d="M86.91,303.24c1.39,0,2.69,2.47.85,2.47-1.39,0-2.69-2.47-.85-2.47Z"/>
        </g>
      </g>
      <g id="chin_Wrinkles_1" class="st2">
        <path class="st3" d="M232.82,460.25c-2.04,1.18-3.69,2.86-5.36,4.51-.84.83-1.69,1.65-2.62,2.38-.99.78-2.08,1.45-3.15,2.11-2.27,1.41-4.64,2.69-7.13,3.66-2.35.92-4.82,1.53-7.31,1.93-5.01.8-10.16.66-15.12-.4-4.97-1.07-9.85-2.91-14.1-5.71-1.77-1.17-3.55-2.35-5.23-3.64-1.7-1.31-3.35-2.74-4.6-4.5-.3-.42-.55-.86-.76-1.34-.06-.14-.31-.01-.26.12.73,2.02,1.99,3.67,3.55,5.13,1.6,1.51,3.41,2.78,5.21,4.03,2.03,1.41,4.09,2.7,6.33,3.75,2.37,1.11,4.83,2,7.36,2.66,5.05,1.32,10.27,1.72,15.46,1.17,2.59-.28,5.16-.8,7.64-1.61,2.57-.84,5-2.02,7.34-3.38,2.24-1.3,4.47-2.69,6.38-4.46,1.77-1.65,3.32-3.52,5.16-5.09.44-.38.89-.73,1.37-1.06.22-.15.04-.37-.17-.25Z"/>
        <path class="st3" d="M215.54,476.49c-3.59,1.18-7.24,2.22-10.99,2.75-3.83.54-7.76.61-11.58-.05-2.1-.36-4.18-.93-6.12-1.81-.1-.04-.27.14-.16.2,3.41,1.81,7.15,2.69,11,2.82,3.97.13,7.95-.41,11.8-1.36,2.11-.52,4.18-1.17,6.18-2,.39-.16.33-.7-.14-.55Z"/>
      </g>
      <g id="mouth_Wrinkles_2">
        <path class="st1" d="M277.15,424.28c-.51-3.76-1.66-7.54-3.41-11.25-1.57-3.33-3.92-6.41-6.19-9.55-2.58-3.56-4.89-7.2-6-11.05-.05-.17-.39-.09-.41.02-.68,3.02,1.38,6.36,3.34,9.26,2.12,3.13,4.65,6.17,6.44,9.39,4.05,7.26,5.65,15.08,5.18,22.33-.28,4.29-1.24,8.37-2.48,12.4-.05.17.32.2.37.07,2.64-6.7,4.17-14.09,3.15-21.63Z"/>
        <path class="st1" d="M123.09,424.28c.51-3.76,1.66-7.54,3.41-11.25,1.57-3.33,3.92-6.41,6.19-9.55,2.58-3.56,4.89-7.2,6-11.05.05-.17.39-.09.41.02.68,3.02-1.38,6.36-3.34,9.26-2.12,3.13-4.65,6.17-6.44,9.39-4.05,7.26-5.65,15.08-5.18,22.33.28,4.29,1.24,8.37,2.48,12.4.05.17-.32.2-.37.07-2.64-6.7-4.17-14.09-3.15-21.63Z"/>
      </g>
      <g id="mouth_Wrinkles_1">
        <g>
          <path class="st4" d="M271.07,417.01c-.95-2.4-2.43-4.51-4.16-6.41-3.28-3.58-7.21-6.43-11.15-9.23-1.88-1.33-3.73-2.69-5.48-4.19-1.73-1.49-3.41-3.13-4.75-4.98-.33-.46-.7-.9-1.02-1.37-.09-.13-.31.04-.25.17.48,1.06,1.03,2.05,1.7,3,.66.92,1.38,1.78,2.18,2.58,1.61,1.63,3.42,3.04,5.26,4.4,1.84,1.36,3.73,2.66,5.57,4.03,1.93,1.44,3.79,3,5.52,4.67,1.82,1.76,3.5,3.7,4.72,5.93,1.27,2.33,1.94,4.95,2.17,7.58.24,2.68.03,5.41-.46,8.05-.53,2.81-1.44,5.52-2.34,8.23-.44,1.34-.91,2.68-1.28,4.05-.37,1.39-.65,2.8-.89,4.21-.07.44-.14.88-.21,1.32.3-.78.6-1.56.9-2.35.32-.84.65-1.68.98-2.52.26-1,.56-1.99.9-2.98.91-2.7,1.87-5.39,2.54-8.17.65-2.68,1.02-5.43.99-8.19-.03-2.67-.45-5.36-1.43-7.85Z"/>
          <path class="st4" d="M286.47,413.39c-.49-2.9-1.16-5.77-2.12-8.55-.05-.15-.29-.01-.27.12.95,5.16,1.87,10.33,2.12,15.58.25,5.3-.63,10.51-1.85,15.65-.34,1.43-.68,2.86-1.03,4.28-.35,1.43-.73,2.86-.97,4.31-.05.29.42.13.48-.05.86-2.53,1.54-5.14,2.23-7.73.68-2.57,1.26-5.17,1.66-7.79.8-5.26.63-10.58-.25-15.81Z"/>
        </g>
        <g>
          <path class="st4" d="M129.87,417.01c.95-2.4,2.43-4.51,4.16-6.41,3.28-3.58,7.21-6.43,11.15-9.23,1.88-1.33,3.73-2.69,5.48-4.19,1.73-1.49,3.41-3.13,4.75-4.98.33-.46.7-.9,1.02-1.37.09-.13.31.04.25.17-.48,1.06-1.03,2.05-1.7,3-.66.92-1.38,1.78-2.18,2.58-1.61,1.63-3.42,3.04-5.26,4.4-1.84,1.36-3.73,2.66-5.57,4.03-1.93,1.44-3.79,3-5.52,4.67-1.82,1.76-3.5,3.7-4.72,5.93-1.27,2.33-1.94,4.95-2.17,7.58-.24,2.68-.03,5.41.46,8.05.53,2.81,1.44,5.52,2.34,8.23.44,1.34.91,2.68,1.28,4.05.37,1.39.65,2.8.89,4.21.07.44.14.88.21,1.32-.3-.78-.6-1.56-.9-2.35-.32-.84-.65-1.68-.98-2.52-.26-1-.56-1.99-.9-2.98-.91-2.7-1.87-5.39-2.54-8.17-.65-2.68-1.02-5.43-.99-8.19.03-2.67.45-5.36,1.43-7.85Z"/>
          <path class="st4" d="M114.46,413.39c.49-2.9,1.16-5.77,2.12-8.55.05-.15.29-.01.27.12-.95,5.16-1.87,10.33-2.12,15.58-.25,5.3.63,10.51,1.85,15.65.34,1.43.68,2.86,1.03,4.28.35,1.43.73,2.86.97,4.31.05.29-.42.13-.48-.05-.86-2.53-1.54-5.14-2.23-7.73-.68-2.57-1.26-5.17-1.66-7.79-.8-5.26-.63-10.58.25-15.81Z"/>
        </g>
      </g>
    </g>
  </g>
</svg>