<?xml version="1.0" encoding="UTF-8"?>
<svg xmlns="http://www.w3.org/2000/svg" version="1.1" viewBox="0 0 400 600">
  <!-- Generator: Adobe Illustrator 29.5.1, SVG Export Plug-In . SVG Version: 2.1.0 Build 141)  -->
  <defs>
    <style>
      .st0 {
        opacity: .6;
      }

      .st0, .st1 {
        fill: #a96f53;
      }

      .st2 {
        isolation: isolate;
      }

      .st3 {
        mix-blend-mode: multiply;
      }

      .st4 {
        opacity: .6;
      }
    </style>
  </defs>
  <g class="st2">
    <g id="Misc_Line_Style">
      <g id="side_Wrinkles_2">
        <g class="st4">
          <path class="st1" d="M321.61,358.03c-13.42,5.32-24.27,16.01-32.83,29.34-8.48,13.21-12.68,32.88-14.17,49.24-.07.75-.93-.19-.92-.68.28-18.18,4.95-38.38,14.2-52.9,7.79-12.24,20.1-24.24,33.23-26.02.35-.05.95.84.48,1.02Z"/>
        </g>
        <g class="st4">
          <path class="st1" d="M79.31,358.03c13.42,5.32,24.27,16.01,32.83,29.34,8.48,13.21,12.68,32.88,14.17,49.24.07.75.93-.19.92-.68-.28-18.18-4.95-38.38-14.2-52.9-7.79-12.24-20.1-24.24-33.23-26.02-.35-.05-.95.84-.48,1.02Z"/>
        </g>
      </g>
      <g id="chin_Wrinkles_1" class="st3">
        <path class="st0" d="M232.82,460.25c-2.04,1.18-3.69,2.86-5.36,4.51-.84.83-1.69,1.65-2.62,2.38-.99.78-2.08,1.45-3.15,2.11-2.27,1.41-4.64,2.69-7.13,3.66-2.35.92-4.82,1.53-7.31,1.93-5.01.8-10.16.66-15.12-.4-4.97-1.07-9.85-2.91-14.1-5.71-1.77-1.17-3.55-2.35-5.23-3.64-1.7-1.31-3.35-2.74-4.6-4.5-.3-.42-.55-.86-.76-1.34-.06-.14-.31-.01-.26.12.73,2.02,1.99,3.67,3.55,5.13,1.6,1.51,3.41,2.78,5.21,4.03,2.03,1.41,4.09,2.7,6.33,3.75,2.37,1.11,4.83,2,7.36,2.66,5.05,1.32,10.27,1.72,15.46,1.17,2.59-.28,5.16-.8,7.64-1.61,2.57-.84,5-2.02,7.34-3.38,2.24-1.3,4.47-2.69,6.38-4.46,1.77-1.65,3.32-3.52,5.16-5.09.44-.38.89-.73,1.37-1.06.22-.15.04-.37-.17-.25Z"/>
        <path class="st0" d="M215.54,476.49c-3.59,1.18-7.24,2.22-10.99,2.75-3.83.54-7.76.61-11.58-.05-2.1-.36-4.18-.93-6.12-1.81-.1-.04-.27.14-.16.2,3.41,1.81,7.15,2.69,11,2.82,3.97.13,7.95-.41,11.8-1.36,2.11-.52,4.18-1.17,6.18-2,.39-.16.33-.7-.14-.55Z"/>
      </g>
    </g>
  </g>
</svg>