<?xml version="1.0" encoding="UTF-8"?>
<svg xmlns="http://www.w3.org/2000/svg" version="1.1" viewBox="0 0 400 600">
  <!-- Generator: Adobe Illustrator 29.5.1, SVG Export Plug-In . SVG Version: 2.1.0 Build 141)  -->
  <defs>
    <style>
      .st0 {
        fill: #a96f53;
        mix-blend-mode: multiply;
        opacity: .6;
      }

      .st1 {
        isolation: isolate;
      }
    </style>
  </defs>
  <g class="st1">
    <g id="Misc_Line_Style">
      <g id="mouth_Wrinkles_2">
        <path class="st0" d="M277.15,424.28c-.51-3.76-1.66-7.54-3.41-11.25-1.57-3.33-3.92-6.41-6.19-9.55-2.58-3.56-4.89-7.2-6-11.05-.05-.17-.39-.09-.41.02-.68,3.02,1.38,6.36,3.34,9.26,2.12,3.13,4.65,6.17,6.44,9.39,4.05,7.26,5.65,15.08,5.18,22.33-.28,4.29-1.24,8.37-2.48,12.4-.05.17.32.2.37.07,2.64-6.7,4.17-14.09,3.15-21.63Z"/>
        <path class="st0" d="M123.09,424.28c.51-3.76,1.66-7.54,3.41-11.25,1.57-3.33,3.92-6.41,6.19-9.55,2.58-3.56,4.89-7.2,6-11.05.05-.17.39-.09.41.02.68,3.02-1.38,6.36-3.34,9.26-2.12,3.13-4.65,6.17-6.44,9.39-4.05,7.26-5.65,15.08-5.18,22.33.28,4.29,1.24,8.37,2.48,12.4.05.17-.32.2-.37.07-2.64-6.7-4.17-14.09-3.15-21.63Z"/>
      </g>
    </g>
  </g>
</svg>