<?xml version="1.0" encoding="UTF-8"?>
<svg xmlns="http://www.w3.org/2000/svg" version="1.1" viewBox="0 0 400 600">
  <!-- Generator: Adobe Illustrator 29.5.1, SVG Export Plug-In . SVG Version: 2.1.0 Build 141)  -->
  <defs>
    <style>
      .st0 {
        isolation: isolate;
      }

      .st1 {
        fill: #673d0f;
        opacity: .6;
      }

      .st2 {
        mix-blend-mode: multiply;
      }
    </style>
  </defs>
  <g class="st0">
    <g id="Misc_Line_Style">
      <g id="side_Wrinkles_1">
        <path class="st1" d="M309.74,334.31c-6.98,30.07-25.31,53.83-37.48,80.99-.29.64.48.71.73.25,10.97-20.55,24.55-39.47,32.55-61.96,2.24-6.3,3.79-12.69,4.96-19.36.09-.5-.67-.28-.76.09Z"/>
        <path class="st1" d="M90.39,334.31c6.98,30.07,25.31,53.83,37.48,80.99.29.64-.48.71-.73.25-10.97-20.55-24.55-39.47-32.55-61.96-2.24-6.3-3.79-12.69-4.96-19.36-.09-.5.67-.28.76.09Z"/>
      </g>
      <g id="chin_Wrinkles_1" class="st2">
        <path class="st1" d="M232.82,460.25c-2.04,1.18-3.69,2.86-5.36,4.51-.84.83-1.69,1.65-2.62,2.38-.99.78-2.08,1.45-3.15,2.11-2.27,1.41-4.64,2.69-7.13,3.66-2.35.92-4.82,1.53-7.31,1.93-5.01.8-10.16.66-15.12-.4-4.97-1.07-9.85-2.91-14.1-5.71-1.77-1.17-3.55-2.35-5.23-3.64-1.7-1.31-3.35-2.74-4.6-4.5-.3-.42-.55-.86-.76-1.34-.06-.14-.31-.01-.26.12.73,2.02,1.99,3.67,3.55,5.13,1.6,1.51,3.41,2.78,5.21,4.03,2.03,1.41,4.09,2.7,6.33,3.75,2.37,1.11,4.83,2,7.36,2.66,5.05,1.32,10.27,1.72,15.46,1.17,2.59-.28,5.16-.8,7.64-1.61,2.57-.84,5-2.02,7.34-3.38,2.24-1.3,4.47-2.69,6.38-4.46,1.77-1.65,3.32-3.52,5.16-5.09.44-.38.89-.73,1.37-1.06.22-.15.04-.37-.17-.25Z"/>
        <path class="st1" d="M215.54,476.49c-3.59,1.18-7.24,2.22-10.99,2.75-3.83.54-7.76.61-11.58-.05-2.1-.36-4.18-.93-6.12-1.81-.1-.04-.27.14-.16.2,3.41,1.81,7.15,2.69,11,2.82,3.97.13,7.95-.41,11.8-1.36,2.11-.52,4.18-1.17,6.18-2,.39-.16.33-.7-.14-.55Z"/>
      </g>
    </g>
  </g>
</svg>