<?xml version="1.0" encoding="UTF-8"?>
<svg id="_x32_" xmlns="http://www.w3.org/2000/svg" version="1.1" xmlns:xlink="http://www.w3.org/1999/xlink" viewBox="0 0 400 600">
  <!-- Generator: Adobe Illustrator 29.4.0, SVG Export Plug-In . SVG Version: 2.1.0 Build 152)  -->
  <defs>
    <style>
      .st0 {
        fill: #7ccced;
      }

      .st1 {
        fill: #fff;
      }

      .st2 {
        display: none;
        stroke-width: 2px;
      }

      .st2, .st3, .st4, .st5 {
        stroke: #000;
      }

      .st3 {
        stroke-width: 4px;
      }

      .st3, .st4, .st5 {
        fill: #000219;
      }

      .st6 {
        fill: #eb1a2c;
      }

      .st4 {
        stroke-width: 6px;
      }

      .st5 {
        filter: url(#drop-shadow-1);
        stroke-width: 5px;
      }

      .st7 {
        fill: #192c4e;
      }
    </style>
    <filter id="drop-shadow-1" x="15" y="182" width="370" height="154" filterUnits="userSpaceOnUse">
      <feOffset dx="0" dy="10"/>
      <feGaussianBlur result="blur" stdDeviation="10"/>
      <feFlood flood-color="#000" flood-opacity=".5"/>
      <feComposite in2="blur" operator="in"/>
      <feComposite in="SourceGraphic"/>
    </filter>
  </defs>
  <g id="driver-hat">
    <path id="hat-curve" class="st5" d="M57.8,231.3l45.8-15,107.7-11.6,89.3,8,31.7,14.7,14.6,22s9.2,31.2,2.6,38.6-6.5,8.2-51.1-5.6-140-12.3-173.2-6-52,15.7-52,15.7c0,0-22,5.7-24.8-8.6s9.3-52.3,9.3-52.3Z"/>
    <path id="hat-button" class="st2" d="M199.8,82c3.4,0,7.2.6,8.8,1.5,1.6.8,2.9,2,2.9,2.5s.2,1.7.5,2.5c.4,1.3-1.3,1.5-12,1.5s-12.4-.2-12-1.5c.3-.8.4-1.9.3-2.5-.1-.5,1.1-1.6,2.7-2.4,1.5-.9,5.4-1.5,8.8-1.6Z"/>
    <path id="hat" class="st4" d="M54,246.1c-1.2,1.2-2.7,1.7-3.1.4-.3-.8-.5-6.1-.5-11.7s.6-15.5,1.3-21.8c.8-6.3,1.9-13.5,2.5-16,.7-2.5,2.4-8.3,3.9-13s3.8-14.6,5.1-22,3.1-16.4,4-20,2.7-8.9,4.1-11.9,4.3-7.3,6.5-9.5c2.1-2.3,7.3-6,11.5-8.2,4.2-2.3,10.8-5.3,14.8-6.7,4-1.4,11.5-3.7,16.8-5.1,5.3-1.4,13.5-3.3,18.2-4.2,4.7-.9,15.8-2.7,24.5-3.9,11.2-1.6,21.1-2.3,34.2-2.4h0c13.3,0,23,.5,34.6,1.9,8.8,1.1,20.8,3,26.6,4.1,5.8,1.1,15.5,3.3,21.6,5,6,1.6,14.4,4.3,18.7,6,4.2,1.7,10.2,4.5,13.3,6.2,3.1,1.8,7.4,5,9.5,7.2,2.3,2.3,5.3,7.1,7.1,11.3,2,4.7,4,12,5.6,21,1.4,7.5,3.5,17.8,4.7,22.7s3.2,11.7,4.3,15c1.2,3.3,3,11.8,4,19,.9,7.2,1.7,17.9,1.7,24s-.3,11.8-.7,12.7c-.6,1.5-2.5,1.1-4.9-1.1-82.3-31.9-211-31.2-289.9,1Z"/>
    <path id="hatSides" class="st3" d="M69.6,237.7c-6.6,3.6-13.2,7.4-14.7,8.4-2.2,1.6-2.7,1.7-3.1.4-.2-.8-.4-6.1-.4-11.7,0-5.7.6-15.5,1.3-21.8s1.9-13.5,2.5-16,2.4-8.3,3.9-13,3.8-14.6,5.1-22c0,0,12,72.1,5.4,75.7h0ZM336.8,162c1.3,7.4,3.6,17.3,5.1,22s3.2,10.5,3.9,13c.6,2.5,1.7,9.7,2.5,16,.7,6.3,1.3,16.1,1.3,21.8s-.2,10.9-.5,11.7c-.4,1.3-.8,1.2-3.1-.4-1.4-1-8-4.8-14.6-8.4-6.6-3.6,5.4-75.7,5.4-75.7h0Z"/>
  </g>
  <g>
    <path class="st0" d="M178.9,93.9c.4,5.8.8,11.7,1.2,17.5,13-.9,26.1-.9,39.2,0,.4-5.8.8-11.7,1.2-17.5-13.8-.9-27.7-.9-41.5,0Z"/>
    <path class="st6" d="M195.3,93.2c0,5.8.2,11.7.3,17.5,2.9,0,5.9,0,8.8,0,0-5.8.2-11.7.3-17.5-3.1,0-6.2,0-9.4,0Z"/>
    <path class="st7" d="M184.2,93.5c.3,5.8.6,11.7.9,17.5,1.3,0,2.6-.1,4-.2-.2-5.8-.4-11.7-.7-17.5-1.4,0-2.8.1-4.2.2Z"/>
    <path class="st7" d="M203.1,93.2c0,5.8-.1,11.7-.2,17.5,1.3,0,2.6,0,4,0,.1-5.8.3-11.7.4-17.5-1.4,0-2.8,0-4.2,0Z"/>
    <path class="st7" d="M211.5,93.4c-.2,5.8-.4,11.7-.7,17.5,1.3,0,2.6.1,4,.2.3-5.8.6-11.7.9-17.5-1.4,0-2.8-.1-4.2-.2Z"/>
    <path class="st7" d="M219.9,93.8c-.4,5.8-.8,11.7-1.1,17.5,1.3,0,2.6.2,4,.3.5-5.8.9-11.7,1.4-17.5-1.4-.1-2.8-.2-4.2-.3Z"/>
    <path class="st7" d="M192.6,93.2c.1,5.8.3,11.7.4,17.5,1.3,0,2.6,0,4,0,0-5.8-.1-11.7-.2-17.5-1.4,0-2.8,0-4.2,0Z"/>
    <path class="st7" d="M175.8,94.1c.5,5.8.9,11.7,1.4,17.5,1.3-.1,2.6-.2,4-.3-.4-5.8-.8-11.7-1.1-17.5-1.4,0-2.8.2-4.2.3Z"/>
  </g>
  <g>
    <path class="st0" d="M174.7,172.4l-7.1,16h3.5l1-2.6h5.8l1,2.6h3.5l-7.1-16s-.5,0-.5,0ZM192.6,172.4c-4.7,0-8.2,3.5-8.2,8.1s3.5,8.2,8.2,8.2,5.2-1.2,6.7-3.5h0c0-.1-2.8-2-2.8-2h-.1c-1,1.7-2.2,2.3-3.9,2.3-2.6,0-4.6-2.1-4.6-5s1.9-4.9,4.6-4.9,2.9.7,3.6,1.9h0c0,.1,2.7-1.8,2.7-1.8h0c-1.4-2.3-3.5-3.4-6.4-3.4h0ZM239.7,172.4c-4.7,0-8.2,3.5-8.2,8.1s3.5,8.2,8.3,8.2,4.4-.8,5.8-2.2c1.5-1.5,2.2-3.8,2-6.5h0c0-.1-7.6-.1-7.6-.1v3.1h3.9c-.4,1.3-1.8,2.6-4.1,2.6s-4.6-2.1-4.6-5,1.9-4.9,4.6-4.9,2.8.7,3.7,2v.2c0,0,2.9-2,2.9-2h0c-1.4-2.4-3.6-3.5-6.5-3.5h0ZM213.7,172.5v16h3.3v-6.7c0-.7,0-1.4,0-2,.4.5.9,1,1.4,1.4l7.9,7.4h0s.6,0,.6,0v-16h-3.3v6.7c0,.7,0,1.3,0,1.9-.4-.5-.9-.9-1.4-1.3l-7.9-7.4h0s-.6,0-.6,0ZM152.5,172.6v15.9h3.5v-5.4h1.8l3.2,5.4h4.1l-3.6-6c1.9-.8,2.9-2.5,2.9-4.7,0-3.3-2.2-5.3-6-5.3,0,0-5.9,0-5.9,0ZM203.7,172.6v15.9h3.6v-15.9s-3.6,0-3.6,0ZM156,175.8h2.3c1.7,0,2.4.7,2.4,2.1s-.8,2.2-2.4,2.2h-2.3v-4.3ZM174.9,178.4s.1.6.4,1.3l1.4,3.5h-3.6l1.4-3.5c.3-.7.4-1.3.4-1.3Z"/>
    <path class="st6" d="M143.7,150.8v16.1h4.2v-8.9s4.6,6.4,4.8,6.7c.2-.3,4.9-6.7,4.9-6.7v8.8h4.4v-16.1h-4.5c0,.1-4.8,7.1-4.8,7.1,0,0-4.8-7-4.8-7.1,0,0-4.2,0-4.2,0ZM171.6,150.8c0,.2-7.1,15.7-7.3,16h4.8c0-.2,1.3-2.7,1.3-2.7h7.9s1.2,2.6,1.3,2.8h4.7c-.2-.4-7.3-15.9-7.4-16.1,0,0-5.3,0-5.3,0ZM186.6,150.8v16.1h4.5v-4.9h2.9s2.8,4.8,2.9,4.9h5c-.3-.4-3.2-5.5-3.2-5.5,0,0,3.2-.9,3.2-5.1s-4.3-5.5-7.4-5.5c0,0-7.9,0-7.9,0ZM204.3,150.8v3.9h5.1v12.2h4.5v-12.2h5.1v-3.9s-14.7,0-14.7,0ZM222.6,150.8v16.1h4.3v-16.1s-4.3,0-4.3,0ZM231.8,150.8c0,.3,0,15.8,0,16.1h4.3v-8.6s7.6,8.4,7.7,8.5h3.5v-16h-4.1v8.9s-7.7-8.8-7.8-8.9h-3.5ZM252,150.8v16.1h4.4v-16.1s-4.4,0-4.4,0ZM191.1,154.3h4.2c1.1,0,2.3.4,2.3,2s-1.5,2-2.3,2h-4.2v-4ZM174.3,155l2.6,5.5h-5.1l2.5-5.5Z"/>
    <path class="st1" d="M256.2,128.3c-2.9,0-4.8,2-4.8,4.4,0,2.7,1.9,4,4.3,5l.8.3c1.5.7,2.2,1.1,2.2,2.1,0,.9-.6,1.6-2,1.6s-2.6-.9-3.2-2.1l-2.9,1.6c.8,1.8,2.9,3.4,6,3.4s5.6-1.6,5.7-4.5c0-2.5-1.6-4.1-4.5-5.3l-.8-.3c-1.1-.5-2-1-2-1.9s.5-1.3,1.4-1.3,1.8.6,2.2,1.4l2.7-1.6c-1.1-2-3-2.8-5-2.8ZM217.6,128.4l-7.1,16h3.5l1-2.6h5.8l1,2.6h3.5l-7.1-16h-.5ZM229.3,128.4v16.1h3.5v-5.9c0-1.8,0-2.7,0-2.7,0,0,.6.9,1.2,1.7l3.3,4.1h.5l3.4-4.1c.6-.7,1.2-1.7,1.2-1.7,0,0-.1.9-.1,2.7v5.9h3.5v-16.1h-.5l-7.7,8.7-7.7-8.7h-.5ZM148.3,128.5l-5.9,12.7,1.3,3.3h.6l3.5-8c.6-1.2.8-2,.8-2,0,0,.2.8.8,2l3.5,8h.6l1.3-3.3-5.9-12.7s-.5,0-.5,0ZM137.8,128.6l4.2,11.5,2-4.3-2.5-7.2h-3.7ZM155.5,128.6l-2.5,7.2,2,4.3,4.2-11.5h-3.8ZM164.1,128.6v15.9h3.6v-15.9s-3.6,0-3.6,0ZM174.5,128.6v15.9h10.5v-2.9h-6.9v-13s-3.6,0-3.6,0ZM188.7,128.6v15.9h10.5v-2.9h-6.9v-13s-3.6,0-3.6,0ZM202.8,128.6v15.9h3.6v-15.9s-3.6,0-3.6,0ZM217.9,134.4s.2.6.4,1.2l1.4,3.5h-3.6l1.3-3.5c.3-.7.4-1.2.4-1.2Z"/>
  </g>
</svg>