<?xml version="1.0" encoding="UTF-8"?>
<svg id="Layer_1" xmlns="http://www.w3.org/2000/svg" version="1.1" viewBox="0 0 400 600">
  <!-- Generator: Adobe Illustrator 29.5.1, SVG Export Plug-In . SVG Version: 2.1.0 Build 141)  -->
  <defs>
    <style>
      .st0 {
        fill: #fff;
      }

      .st1 {
        opacity: .25;
      }

      .st2 {
        fill: #251f12;
      }
    </style>
  </defs>
  <g id="hair_2">
    <path id="hair" class="st2" d="M340.97,319.6c16.99-29.49,24.17-50,23.94-55.43-.22-5.42,4.22-13.58,7.28-32.52,1.95-12.1-2.98-35.04-2.98-35.04,7.93,1.3,4.83-35.22,4.83-35.22,4.43-4.88-1.85-29.22-1.85-29.22,6.68-7.68,2.19-35.41.54-27.62-2.33,11-11.89,1.98-11.89,1.98,9.94-5.9,2.72-22.18,2.72-22.18-3.49,17.11-26.05,11.76-26.05,11.76,24.1-8.28,15.29-15.84,15.29-15.84.29,6.97-21.91,9.78-43.17,9.47-21.26-.31-44.88-32.36-66.67-19.48-21.78,12.88-60.44,2.87-80.42,7.95-19.98,5.09-15.97,25.15-40.64,19.49-24.67-5.66-50.19,19.7-50.19,19.7-1.04-23.36,21.05-14.81,11.15-17.4-48.78,6.78-38.86,41.26-38.86,41.26-16.4,5.52-9.99,19.09-7.92,27.47-16.7,17.18-10.44,38.05-4.18,53.44,3.47,8.53-5.8,24.77,2.11,36.22,7.91,11.46,12.37,12.43,12.24,23s11.65,42,11.65,42c9.05-12.6-1.54-35.89,9.79-44.66,11.33-8.77-3.14-24.74-1.49-36.4,1.65-11.66,14.21-24.97,10.25-35.11-3.46-8.84,4.02-13.84,4.02-13.84,31.89,26.44,99.12-14.91,113.14-5,20.41,14.43,61.65-1.83,61.65-1.83,21.16,19.63,64.63,13.95,64.63,13.95-4.43,8.76,5.19,33.08,9.88,43.83,4.69,10.75-2.12,18.01,1.4,34.08,9.4,11.59,9.81,41.18,9.81,41.18Z"/>
    <g id="details" class="st1">
      <path class="st0" d="M223.11,82.21s-.96,1.31-2.77,3.53c-.92,1.11-1.64,2.57-2.65,4.15-.98,1.59-1.74,3.55-2.85,5.55-1.84,4.16-3.85,9.01-6,14.31-2.18,5.27-4.67,10.92-7.93,16.44-1.53,2.77-3.6,5.41-5.44,8.06-2.22,2.52-4.23,5.07-6.85,7.23-1.28,1.09-2.38,2.24-3.74,3.21-1.39.94-2.75,1.86-4.08,2.75-2.5,1.89-5.66,3.03-8.15,4.37-2.61,1.24-5.38,1.94-7.63,2.74-2.23.85-4.45,1.12-6.15,1.53-3.47.71-5.43,1.05-5.43,1.05,0,0,1.82-.72,4.99-1.85,1.56-.6,3.59-1.1,5.55-2.19,1.97-1.05,4.38-2,6.66-3.36,1.11-.7,2.27-1.44,3.47-2.2,1.24-.72,2.45-1.51,3.52-2.47,1.12-.9,2.28-1.83,3.46-2.78,1.11-.99,2.12-2.08,3.21-3.14,2.32-2.05,3.9-4.61,5.99-6.95,1.68-2.54,3.57-5.04,4.99-7.74,3.24-5.24,5.79-10.77,8.45-15.92,2.56-5.17,5.24-10.01,7.86-14.04,1.45-1.99,2.66-3.82,4.09-5.36,1.45-1.52,2.54-2.91,3.69-3.88,2.33-1.95,3.73-3.03,3.73-3.03Z"/>
      <path class="st0" d="M166.19,86.11s-.75.85-2.05,2.35c-.78.7-1.14,1.73-1.89,2.74-.66,1.03-1.11,2.35-1.65,3.69-.42,1.4-.78,2.92-1.04,4.58-.25,1.69-.5,3.47-.77,5.32-.32,1.86-.6,3.87-1.28,5.85-.57,2.01-1.53,4.01-2.5,6.01-1.29,1.9-2.48,3.85-4.14,5.55-1.42,1.82-3.38,3.29-5.12,4.78-1.67,1.54-3.8,2.65-5.56,3.87-1.74,1.25-3.76,2.08-5.45,2.99-3.38,1.84-6.59,2.92-8.74,3.76-2.19.78-3.44,1.23-3.44,1.23,0,0,1-.71,2.74-1.95,1.73-1.23,4.39-2.82,7.18-4.98,1.38-1.09,3.09-2.11,4.53-3.42,1.44-1.3,3.21-2.52,4.61-4,1.48-1.44,2.99-2.92,4.23-4.54,1.45-1.54,2.4-3.29,3.5-4.97.9-1.75,1.84-3.5,2.42-5.33.65-1.81,1.24-3.63,1.71-5.46.47-1.81,1.01-3.62,1.61-5.32.55-1.72,1.36-3.33,2.2-4.78.94-1.43,1.85-2.71,2.96-3.73,1.15-1,2-1.95,2.99-2.46,1.89-1.13,2.96-1.77,2.96-1.77Z"/>
      <path class="st0" d="M88.68,118.97s.73.74,2,2.02c1.23,1.32,2.98,3.22,5.09,5.49,2.06,2.26,4.51,4.84,7.12,7.52,2.63,2.67,5.45,5.41,8.39,7.84,5.81,5.04,12.09,8.61,17.11,10.76,2.53,1.11,4.64,2.04,6.12,2.69,1.48.73,2.33,1.15,2.33,1.15,0,0-3.56.34-8.94-.4-2.69-.39-5.84-1.19-9.12-2.68-1.61-.82-3.32-1.59-4.93-2.74-1.65-1.04-3.24-2.31-4.83-3.57-3.09-2.72-6.05-5.71-8.55-8.9-1.32-1.49-2.42-3.18-3.52-4.7-1.11-1.49-2.06-3.06-2.94-4.49-1.8-2.82-3.07-5.35-3.96-7.14-.87-1.82-1.37-2.85-1.37-2.85Z"/>
      <path class="st0" d="M41.98,258.11s-1.54-2.01-2.35-5.4c-.37-1.68-.62-3.69-.44-5.82.07-2.15.67-4.4,1.36-6.63.87-2.2,1.92-4.34,3.2-6.27,1.33-1.9,2.69-3.62,4.11-4.97,1.27-1.42,2.74-2.4,3.6-3.15.92-.73,1.49-1.11,1.49-1.11,0,0-.24.55-.74,1.46-.52.9-1.25,2.17-2.03,3.71-.86,1.51-1.72,3.3-2.69,5.18-.85,1.91-1.77,3.93-2.49,5.99-1.48,4.1-2.38,8.3-2.74,11.53-.41,3.23-.27,5.48-.27,5.48Z"/>
      <path class="st0" d="M51.77,194.29s-.93,1.67-2.11,4.04c-1.22,2.36-2.75,5.4-3.92,8.42-1.25,3.02-2.12,6.05-2.68,8.42-.29,1.19-.57,2.22-.67,2.92-.15.72-.3,1.17-.3,1.17,0,0-.24-.31-.55-.91-.28-.61-.8-1.47-.99-2.65-.31-1.15-.36-2.6-.2-4.18.14-1.59.61-3.32,1.28-5.04,1.37-3.45,3.78-6.72,6-8.89,2.22-2.19,4.11-3.3,4.11-3.3Z"/>
      <path class="st0" d="M184.03,88.33s.66.57,1.48,1.85c.79,1.28,1.63,3.32,2.02,6.02.15,1.36.3,2.86.12,4.51,0,1.63-.43,3.4-.78,5.24-.63,1.82-.98,3.75-1.92,5.65-.85,1.91-1.69,3.86-2.83,5.75-1.07,1.91-2.26,3.77-3.58,5.55-1.22,1.82-2.6,3.54-4.02,5.14-1.4,1.61-2.7,3.21-4.15,4.57-1.4,1.4-2.78,2.69-4.04,3.87-2.51,2.37-4.94,4.09-6.52,5.35-1.63,1.23-2.58,1.9-2.58,1.9,0,0,.67-.89,1.84-2.43,1.15-1.55,2.99-3.62,4.96-6.19.98-1.29,2.03-2.68,3.2-4.11,1.19-1.42,2.15-3.04,3.37-4.61,1.24-1.57,2.26-3.26,3.38-4.94,1.19-1.67,2.21-3.4,3.14-5.15,1.1-1.72,1.91-3.47,2.74-5.19.88-1.72,1.45-3.42,2.17-5.07.42-1.63,1.16-3.26,1.41-4.76.39-1.52.62-2.94.83-4.27.67-5.28-.23-8.69-.23-8.69Z"/>
      <path class="st0" d="M322.7,135.92s-.38,1.19-1.57,3.16c-1.23,1.94-3.16,4.69-6.13,7.71-2.96,3.01-6.94,6.26-11.66,9.39-2.41,1.51-4.92,3.09-7.62,4.52-2.79,1.33-5.48,2.88-8.46,4.08-2.97,1.2-5.86,2.51-8.92,3.49-3.02,1.04-5.96,2.11-8.96,2.87-5.89,1.72-11.55,2.96-16.47,3.82-4.84,1.04-9.11,1.24-11.97,1.69-2.9.34-4.57.47-4.57.47,0,0,1.54-.51,4.26-1.3,2.7-.81,6.64-1.78,11.17-3.27,2.28-.72,4.74-1.49,7.37-2.24,2.56-.87,5.25-1.78,8.04-2.73,2.85-.84,5.52-2.11,8.42-3.1,2.92-.99,5.63-2.3,8.45-3.48,2.89-1.1,5.47-2.54,8.19-3.77,2.59-1.35,5.18-2.65,7.58-4.01,2.31-1.43,4.71-2.69,6.72-4.1,2.11-1.34,3.97-2.7,5.72-3.94,1.64-1.31,3.27-2.46,4.54-3.58,1.33-1.09,2.39-2.1,3.25-2.94,1.71-1.69,2.59-2.73,2.59-2.73Z"/>
      <path class="st0" d="M154.59,163.46s-.53.78-1.46,2.16c-.48.67-1.04,1.5-1.85,2.33-.8.83-1.61,1.9-2.74,2.78-2.12,1.93-4.88,3.94-8.32,5.53-1.75.74-3.54,1.57-5.6,2.03-2,.56-4.16.89-6.34,1.18-2.25.11-4.5.23-6.81.06-2.26-.01-4.6-.52-6.8-.84-4.45-.89-8.62-2.19-12.12-3.63-1.76-.63-3.34-1.44-4.74-2.08-1.4-.62-2.6-1.29-3.59-1.83-1.95-1.11-3.07-1.74-3.07-1.74,0,0,1.16.29,3.19.8,2.01.56,4.88,1.25,8.25,2.02,3.38.76,7.25,1.44,11.3,1.92,4.02.36,8.23.53,12.21.13,8.02-.71,15.09-3.53,20.13-6.15,1.31-.6,2.36-1.31,3.41-1.84,1.02-.54,1.9-1.08,2.62-1.51,1.48-.83,2.32-1.31,2.32-1.31Z"/>
      <path class="st0" d="M285.84,110.99s-1.19-.16-3.27-.44c-2.09-.32-4.96-.69-8.44-1.06-1.73-.21-3.61-.34-5.58-.49-1.96-.2-4.06-.16-6.18-.28-2.14-.01-4.33.01-6.54.12-2.22.03-4.45.31-6.65.57-8.88,1.02-17.2,3.77-23.22,6.32-1.54.6-2.83,1.29-4.08,1.82-1.24.54-2.26,1.07-3.12,1.5-1.76.84-2.77,1.32-2.77,1.32,0,0,.67-.72,1.93-1.96.64-.61,1.39-1.39,2.43-2.15,1.03-.77,2.09-1.74,3.51-2.58,2.72-1.78,6.18-3.72,10.37-5.24,2.08-.77,4.3-1.51,6.65-2.05,2.35-.57,4.78-1.02,7.26-1.34,2.48-.24,4.99-.49,7.45-.48,2.47-.1,4.88.13,7.19.27,4.61.48,8.82,1.21,12.23,2.2,3.43.9,6.21,1.92,7.99,2.69,1.81.8,2.84,1.25,2.84,1.25Z"/>
      <path class="st0" d="M74.27,182.25s-1.28.66-2.78,1.64c-1.54.96-3.29,2.22-4.89,3.58-.82.67-1.55,1.4-2.31,2.09-.7.71-1.41,1.38-2.02,1.99-.66.62-1.2,1.14-1.59,1.5-.4.37-.7.58-.7.58,0,0-.39-1.1-.18-2.75.09-.83.42-1.77.95-2.74.54-.97,1.39-1.92,2.35-2.82,1.09-.82,2.23-1.61,3.55-2.12,1.26-.55,2.59-.87,3.74-1.03,2.34-.3,3.88.08,3.88.08Z"/>
      <path class="st0" d="M63.44,225.86s-.22,1.19-.53,2.86c-.35,1.66-.98,3.77-1.68,5.85-.74,2.07-1.56,4.13-2.33,5.72-.35.79-.82,1.47-1.02,1.95-.26.48-.47.76-.47.76,0,0-.75-1.11-1.14-2.87-.39-1.75-.27-4.12.51-6.37.8-2.26,2.25-4.37,3.72-5.78.71-.72,1.52-1.24,2.01-1.61.56-.38.94-.51.94-.51Z"/>
      <path class="st0" d="M70.32,199.28s-1.06,1.44-2.38,3.54c-1.37,2.08-3.03,4.81-4.49,7.58-1.52,2.76-2.77,5.61-3.74,7.82-.51,1.1-.98,2.03-1.24,2.7-.31.66-.55,1.05-.55,1.05,0,0-.68-1.57-.82-4-.11-1.22.04-2.64.35-4.14.33-1.51.95-3.08,1.72-4.61,1.64-3.04,4.21-5.79,6.64-7.5,2.43-1.72,4.51-2.44,4.51-2.44Z"/>
      <path class="st0" d="M65.05,258.4s.38,1.69.27,4.2c-.13,2.5-.83,5.8-2.18,8.97-1.36,3.17-3.37,6.21-5.31,8.3-1.94,2.1-3.68,3.27-3.68,3.27,0,0,.08-.43.31-1.15.29-.69.52-1.73.96-2.9.83-2.37,2.04-5.44,3.33-8.5,1.33-3.05,2.74-6.1,4-8.39,1.28-2.28,2.3-3.81,2.3-3.81Z"/>
      <path class="st0" d="M50.56,174.99s-.96,1.33-2.44,3.16c-1.49,1.82-3.57,4.1-5.59,6.35-2.05,2.24-4.01,4.47-5.51,6.24-.69.89-1.45,1.63-1.81,2.19-.43.55-.75.88-.75.88,0,0-.36-1.36.17-3.51.52-2.13,2.09-4.92,4.32-7.39,2.25-2.46,5.06-4.59,7.41-5.94,2.37-1.35,4.19-1.97,4.19-1.97Z"/>
      <path class="st0" d="M55.79,249.94s.18.27.28.8c.06.52.26,1.26.25,2.11.04,1.72-.35,3.95-1.17,6.11-.84,2.15-2.13,4.22-3.48,5.67-1.35,1.46-2.72,2.21-2.72,2.21,0,0,.08-1.2.24-2.86.22-1.66.74-3.81,1.54-5.91.83-2.1,1.95-4.14,3.03-5.64,1.12-1.5,2.03-2.49,2.03-2.49Z"/>
      <path class="st0" d="M338.22,147.32s1.76-1.11,4.09-2.97c1.18-.91,2.52-1.99,3.9-3.21,1.38-1.22,2.81-2.54,4.14-3.99,2.74-2.79,5.16-5.96,6.94-8.45.92-1.22,1.69-2.27,2.18-3.05.53-.75.89-1.15.89-1.15,0,0-.03.61-.19,1.64-.19,1-.32,2.55-.88,4.14-.45,1.68-1.24,3.46-2.21,5.26-.99,1.79-2.28,3.49-3.71,5.04-2.93,3.03-6.61,5.15-9.71,6.01-3.1.9-5.44.73-5.44.73Z"/>
      <path class="st0" d="M346.55,109.42s.71,1.85.67,4.47c0,2.61-.98,5.89-3.04,8.53-.49.67-1.14,1.24-1.71,1.83-.55.62-1.34,1.02-1.97,1.52-.63.5-1.43.8-2.1,1.15-.66.37-1.41.58-2.07.79-1.29.47-2.58.56-3.41.7-.85.11-1.36.12-1.36.12,0,0,.29-.32.85-.78.59-.43,1.34-1.11,2.22-1.9,1.79-1.54,3.98-3.63,5.75-5.98,1.84-2.31,3.36-4.86,4.41-6.91,1.12-2.02,1.76-3.53,1.76-3.53Z"/>
      <path class="st0" d="M358.29,152.92s.23.48.37,1.34c.11.83.3,2.07.15,3.41-.17,2.75-1.51,5.93-3.69,8.3-1.13,1.14-2.38,2.14-3.71,2.88-1.34.71-2.67,1.25-3.91,1.52-2.46.59-4.31.51-4.31.51,0,0,.26-.32.76-.79.5-.45,1.2-1.09,2.05-1.87.86-.73,1.8-1.62,2.84-2.5.97-.96,2.05-1.9,3-2.98,1.94-2.08,3.67-4.37,4.76-6.33,1.19-1.91,1.68-3.51,1.68-3.51Z"/>
      <path class="st0" d="M356.09,207.98s.58.31,1.35,1.02c.74.71,1.79,1.79,2.61,3.22,1.77,2.84,2.7,7.01,2.38,11.08-.32,4.08-1.71,8.03-3.27,10.83-.7,1.42-1.65,2.51-2.13,3.31-.56.78-.94,1.21-.94,1.21,0,0-.01-.52.08-1.39.1-.86.25-2.1.43-3.58.2-1.45.42-3.14.67-4.95.24-1.79.51-3.7.58-5.6.32-3.79.22-7.56-.33-10.39-.41-2.86-1.43-4.75-1.43-4.75Z"/>
      <path class="st0" d="M350.68,192.72s.92-1.26,2.37-2.94c1.47-1.67,3.53-3.69,5.59-5.68,2.08-1.98,4.16-3.96,5.71-5.44.74-.79,1.53-1.36,1.92-1.87.46-.47.79-.72.79-.72,0,0,.11,1.8-.59,4.14-.71,2.32-2.35,4.98-4.54,7.09-2.21,2.09-4.93,3.64-7.19,4.46-2.29.81-4.06.96-4.06.96Z"/>
      <path class="st0" d="M356.17,249.81s.96,1,1.76,2.63c.77,1.63,1.27,3.9,1.08,6.2-.22,2.29-1.2,4.56-2.47,6.08-1.29,1.52-2.65,2.26-2.65,2.26,0,0-.03-.32.01-.82.11-.48.02-1.21.12-2,.09-1.61.23-3.66.41-5.74.21-2.07.49-4.18.89-5.81.42-1.63.86-2.79.86-2.79Z"/>
      <path class="st0" d="M341.23,254.59s2.32,2.35,4.66,6.31c1.15,1.98,2.32,4.36,3.2,6.99.95,2.62,1.52,5.49,1.83,8.38.02,1.45.2,2.9.05,4.33-.06,1.43-.22,2.84-.55,4.19-.26,1.35-.58,2.65-1.11,3.85-.47,1.2-.85,2.35-1.51,3.34-1.07,2.04-2.34,3.6-3.3,4.66-.92,1.07-1.49,1.64-1.49,1.64,0,0,.22-.71.68-1.9.23-.59.52-1.3.84-2.12.2-.85.42-1.79.74-2.8.36-1,.42-2.13.68-3.29.28-1.16.32-2.4.45-3.68.2-1.27.08-2.6.14-3.94.1-1.34-.14-2.71-.19-4.07-.4-5.46-1.82-10.91-2.96-15.01-1.13-4.11-2.16-6.88-2.16-6.88Z"/>
      <path class="st0" d="M326.2,206.77s1.74,1.28,3.58,3.56c1.82,2.28,3.69,5.57,4.52,9.07.85,3.49.6,7.13-.35,9.71-.44,1.3-1.09,2.32-1.54,3.02-.46.7-.78,1.08-.78,1.08,0,0-.07-.46-.1-1.21.07-.75-.12-1.83-.21-3.07-.24-2.5-.74-5.73-1.54-8.95-.73-3.23-1.76-6.46-2.44-8.96-.68-2.55-1.13-4.24-1.13-4.24Z"/>
      <path class="st0" d="M241.98,86.87s.11.55.11,1.59c0,.52-.04,1.15-.14,1.87-.12.7-.28,1.51-.56,2.29-.27.78-.62,1.62-1.07,2.32-.23.35-.45.74-.7,1.08-.27.3-.54.61-.81.92-.56.61-1.18,1.05-1.81,1.54-.65.33-1.3.74-1.97,1.02-.67.2-1.34.4-2.01.6-.66.12-1.32.15-1.95.22-.63.11-1.24,0-1.82-.03-.58-.03-1.12-.1-1.62-.16-1.99-.45-3.29-.99-3.29-.99,0,0,1.34-.37,3.3-.56.49-.11,1.02-.22,1.58-.3.56-.11,1.15-.15,1.74-.32.6-.14,1.22-.33,1.85-.43.62-.21,1.24-.43,1.87-.65.62-.23,1.21-.57,1.82-.84.55-.43,1.16-.68,1.66-1.16.51-.45,1.01-.89,1.42-1.45.23-.24.41-.54.59-.83.18-.28.38-.54.51-.86.31-.59.53-1.2.74-1.77.16-.59.31-1.12.39-1.59.17-.93.19-1.51.19-1.51Z"/>
      <path class="st0" d="M316.58,104.56s-3.64,2.92-9.25,6.89c-5.6,4-13.16,9.06-20.7,14.05-7.55,4.97-15.11,9.88-20.4,13.88-2.63,2.01-4.68,3.82-5.62,5.25-1.01,1.45-.58,2.36-.64,2.36,0,0-.12-.18-.35-.51-.2-.34-.35-1.05-.05-1.96.51-1.85,2.29-4.32,4.7-6.84,4.84-5.11,12.27-10.81,19.97-15.91,7.72-5.07,15.75-9.55,21.91-12.58,6.15-3.06,10.43-4.64,10.43-4.64Z"/>
      <path class="st0" d="M304.24,100.34s-1.05.17-2.88.38c-.93.07-2,.31-3.33.25-1.31-.02-2.87.03-4.51-.11-3.24-.3-7.06-.92-10.79-2.14-3.84-1.11-7.46-2.84-10.98-4.57-3.42-1.84-6.66-3.72-9.6-5.52-2.96-1.77-5.69-3.31-8.18-4.52-2.51-1.12-4.78-1.88-6.5-2.26-1.78-.33-2.79-.52-2.79-.52,0,0,1.01-.16,2.93-.36,1.9-.1,4.72.07,7.88.84,3.12.79,6.53,2.09,9.86,3.67,3.34,1.55,6.64,3.39,9.98,5.07,1.64.86,3.27,1.73,4.93,2.49,1.66.76,3.24,1.57,4.88,2.19,3.2,1.38,6.37,2.34,9.18,3.16,1.42.33,2.73.63,3.89.9,1.16.31,2.32.39,3.21.56,1.81.29,2.84.49,2.84.49Z"/>
      <path class="st0" d="M250.92,123.98s-2.46,1.62-6.01,3.67c-1.75,1.02-3.8,2.2-5.99,3.47-2.14,1.29-4.46,2.53-6.64,3.97-2.26,1.3-4.36,2.79-6.35,4.15-.96.72-1.89,1.42-2.78,2.08-.82.71-1.6,1.39-2.38,2.02-1.34,1.34-2.64,2.52-3.33,3.45-.83.94-1.3,1.48-1.3,1.48,0,0,.08-.58.34-1.68.16-.54.24-1.25.66-1.98.37-.75.76-1.64,1.34-2.56,1.18-1.82,2.85-3.88,4.93-5.78,1.07-.88,2.11-1.96,3.32-2.75,1.18-.85,2.39-1.72,3.63-2.47,4.99-3.05,10.21-5.07,14.1-6.04,3.9-1.03,6.46-1.03,6.46-1.03Z"/>
      <path class="st0" d="M65.44,112.47c.12.02-1.13,1.04-2.14,3.04-.6.91-1.06,2.17-1.69,3.53-.5,1.4-1.09,2.97-1.53,4.67-.48,1.71-.86,3.54-1.16,5.46-.36,1.92-.42,3.91-.58,5.94-.04,2.02,0,4.07.24,6.09.05,2.09.69,3.97,1.05,5.95.68,1.82,1.08,3.83,2.05,5.46.91,1.66,1.62,3.43,2.81,4.8.52.74,1.04,1.47,1.54,2.18.61.63,1.2,1.25,1.78,1.85,1.14,1.23,2.24,2.39,3.48,3.24,1.2.89,2.2,1.85,3.23,2.55,1.07.66,2,1.23,2.76,1.71,1.52,1.02,2.38,1.6,2.38,1.6,0,0-1.11-.23-3.06-.63-.96-.24-2.14-.53-3.48-.86-1.3-.41-2.63-1.07-4.12-1.75-1.56-.61-3.03-1.54-4.46-2.67-.74-.54-1.5-1.1-2.28-1.68-.65-.7-1.31-1.42-1.98-2.15-1.42-1.41-2.54-3.14-3.56-5-1.12-1.79-1.67-3.97-2.47-6-.37-2.24-.98-4.39-.98-6.72-.24-2.26.03-4.62.24-6.88.31-2.28.74-4.51,1.4-6.63.57-2.12,1.35-4.12,2.2-5.96.77-1.83,1.78-3.49,2.65-4.93.97-1.43,1.79-2.65,2.74-3.61.82-1.01,1.57-1.58,2.12-1.97.52-.4.8-.62.8-.62Z"/>
      <path class="st0" d="M68.55,124.11s.87,3.25,3.4,7.37c1.2,2.09,2.91,4.36,4.75,6.75,1.99,2.31,4.05,4.82,6.5,7.08,1.13,1.19,2.3,2.37,3.57,3.44,1.25,1.08,2.34,2.26,3.61,3.25,2.36,2.11,4.7,3.99,6.66,5.67,1.99,1.68,3.64,3.07,4.8,4.05,1.12,1.04,1.75,1.64,1.75,1.64,0,0-.95-.27-2.56-.83-1.57-.59-3.95-1.32-6.44-2.59-2.55-1.2-5.44-2.71-8.22-4.64-2.86-1.85-5.61-4.11-8.1-6.56-4.99-4.9-8.46-10.91-9.56-15.94-.61-2.49-.72-4.68-.58-6.24.12-1.56.42-2.46.42-2.46Z"/>
      <path class="st0" d="M333.05,191.92s.16.02.46.07c.31,0,.73.13,1.28.51.6.29,1.14.89,1.85,1.55.63.75,1.39,1.57,2.06,2.69.74,1.04,1.4,2.34,2.11,3.72.62,1.46,1.37,2.94,1.88,4.69,1.23,3.35,2.01,7.31,2.58,11.31.18,2.03.43,4.05.43,6.08.11,2.02.03,4-.11,5.9-.05,1.92-.31,3.72-.58,5.42-.12.85-.25,1.67-.36,2.47-.18.77-.35,1.51-.52,2.23-.6,2.88-1.37,5.1-1.94,6.62-.56,1.51-.88,2.37-.88,2.37,0,0,.13-.97.36-2.68.13-.83.29-1.84.47-3,.17-1.16.25-2.5.43-3.91.19-1.41.31-2.96.38-4.6.11-1.63.2-3.34.18-5.11,0-.88.01-1.78.02-2.69-.06-.9-.11-1.82-.14-2.74-.02-1.85-.29-3.68-.48-5.53-.22-1.83-.5-3.66-.85-5.41-.39-1.74-.71-3.49-1.19-5.08-.87-3.24-1.92-6.14-2.99-8.44-.51-1.19-1.07-2.14-1.54-3.06-.53-.76-.97-1.62-1.4-2.03-.4-.51-.78-.91-1.07-1.05-.27-.19-.42-.3-.42-.3Z"/>
      <path class="st0" d="M267.28,188.76s1.32-.12,3.64-.34c1.17-.05,2.57-.21,4.08-.49,1.53-.25,3.21-.44,5.03-.92,3.68-.74,7.73-2.04,11.85-3.65,2.03-.85,4.08-1.79,6.08-2.82,2.02-1.02,3.99-2.14,5.83-3.38,1.94-1.15,3.68-2.47,5.4-3.75,1.61-1.36,3.34-2.62,4.72-4.01,2.96-2.68,5.31-5.41,7.17-7.84.82-1.24,1.78-2.35,2.32-3.41.56-1.06,1.28-1.95,1.57-2.74.78-1.58,1.22-2.49,1.22-2.49,0,0,.03.95-.02,2.66.03.87-.28,1.87-.52,3.06-.19,1.2-.76,2.48-1.32,3.9-1.22,2.81-3.16,6.02-6.01,9.11-1.37,1.57-2.95,3.12-4.71,4.6-1.82,1.44-3.67,2.93-5.76,4.22-2.07,1.32-4.28,2.51-6.56,3.59-2.23,1.12-4.68,1.95-7,2.77-2.39.73-4.71,1.41-7.04,1.78-2.26.52-4.49.73-6.54.87-2.01.26-3.96.15-5.63.12-1.68.02-3.07-.14-4.21-.32-2.29-.34-3.59-.54-3.59-.54Z"/>
      <path class="st0" d="M335.85,178.94s.16.52-.11,1.53c-.21.97-.76,2.29-1.74,3.8-.96,1.51-2.42,3.16-4.3,4.75-1,.75-1.96,1.6-3.17,2.28-1.19.69-2.39,1.41-3.71,2-1.3.62-2.7,1.1-4.09,1.57-1.34.54-2.85.75-4.21,1.1-1.35.37-2.78.43-4.07.6-1.28.2-2.54.18-3.68.18-2.27.08-4.16-.19-5.46-.37-1.3-.19-2.02-.34-2.02-.34,0,0,.72-.22,1.94-.54,1.22-.31,2.95-.68,4.92-1.25.99-.27,2.06-.52,3.14-.88,1.08-.36,2.25-.64,3.37-1.07,2.27-.82,4.68-1.64,6.87-2.74,2.32-.95,4.37-2.19,6.38-3.31,1.93-1.18,3.7-2.35,5.2-3.42,2.96-2.16,4.84-3.8,4.73-3.89Z"/>
      <path class="st0" d="M127.36,188.93s1.41-.43,3.9-1.08c2.53-.58,6.03-1.65,10.23-2.73,4.19-1.17,9.04-2.53,14.16-4.08,5.04-1.67,10.49-3.31,15.56-5.42,10.36-3.95,19.66-9.08,25.41-13.86,1.46-1.18,2.65-2.35,3.79-3.37.97-1.08,1.91-2.02,2.56-2.84,1.23-1.66,2.03-2.62,2.03-2.62,0,0-.28,1.07-.93,2.96-.84,1.83-2.1,4.51-4.62,7.37-1.24,1.44-2.68,2.95-4.47,4.4-1.71,1.5-3.71,2.96-5.9,4.35-2.2,1.39-4.52,2.79-7.08,4-2.54,1.23-5.16,2.43-7.88,3.49-10.9,4.26-22.73,6.82-31.7,8.05-9.03,1.22-15.08,1.38-15.08,1.38Z"/>
      <path class="st0" d="M247.81,143.52s.31,3.21-1.94,7.72c-1.12,2.23-2.75,4.79-5.15,7.23-2.26,2.53-5.37,4.83-8.61,7-3.43,2.02-7.06,3.83-10.72,5.19-3.68,1.33-7.22,2.35-10.38,2.94-3.07.76-5.82.92-7.66,1.15-1.87.19-2.94.25-2.94.25,0,0,.93-.39,2.56-1.09,1.61-.7,4.02-1.46,6.68-2.66,1.35-.56,2.8-1.16,4.34-1.8,1.48-.7,3.02-1.45,4.66-2.15,1.61-.74,3.1-1.68,4.77-2.45,1.61-.84,3.1-1.82,4.68-2.72,1.47-.98,3.02-1.92,4.38-2.94,1.31-1.06,2.8-1.99,3.95-3.07,2.52-2.04,4.54-4.15,6.28-5.99,3.36-3.73,5.09-6.6,5.09-6.6Z"/>
      <path class="st0" d="M319.52,114.5s.3.46.29,1.5c.05.99-.14,2.41-.68,4.12-.53,1.71-1.51,3.68-2.91,5.71-.77.98-1.48,2.06-2.46,3.03-.96.98-1.94,1.98-3.06,2.9-1.1.94-2.32,1.77-3.53,2.59-1.15.87-2.55,1.47-3.77,2.16-1.21.72-2.57,1.14-3.77,1.65-1.19.53-2.41.84-3.51,1.14-2.17.67-4.06.91-5.36,1.07-1.3.16-2.03.2-2.03.2,0,0,.64-.4,1.73-1.03,1.1-.62,2.66-1.43,4.42-2.5.89-.52,1.85-1.04,2.8-1.67.94-.63,2-1.2,2.97-1.91,1.97-1.38,4.09-2.81,5.91-4.45,1.99-1.53,3.64-3.26,5.29-4.87,1.55-1.65,2.96-3.24,4.13-4.66,2.29-2.86,3.67-4.93,3.54-4.99Z"/>
      <path class="st0" d="M140.98,102.81s-1.07,1.91-2.59,4.58c-1.54,2.65-3.67,5.92-5.83,9.13-2.2,3.17-4.47,6.29-6.33,8.65-.91,1.19-1.82,2.13-2.36,2.85-.59.7-.99,1.08-.99,1.08,0,0,.13-2.17,1.06-5.26.93-3.09,2.77-7,5.14-10.47,2.38-3.46,5.26-6.41,7.65-8.19,1.18-.92,2.3-1.46,3.02-1.89.79-.41,1.23-.47,1.23-.47Z"/>
      <path class="st0" d="M118.2,105.2s-.22,1.19-.53,2.86c-.35,1.66-.98,3.77-1.68,5.85-.74,2.07-1.56,4.13-2.33,5.72-.35.79-.82,1.47-1.02,1.95-.26.48-.47.76-.47.76,0,0-.75-1.11-1.14-2.87-.39-1.75-.27-4.12.51-6.37.8-2.26,2.25-4.37,3.72-5.78.71-.72,1.52-1.24,2.01-1.61.56-.38.94-.51.94-.51Z"/>
    </g>
  </g>
</svg>