<?xml version="1.0" encoding="UTF-8"?>
<svg id="Layer_1" xmlns="http://www.w3.org/2000/svg" version="1.1" viewBox="0 0 400 600">
  <!-- Generator: Adobe Illustrator 29.5.1, SVG Export Plug-In . SVG Version: 2.1.0 Build 141)  -->
  <defs>
    <style>
      .st0 {
        fill: #fff;
      }

      .st1 {
        opacity: .4;
      }

      .st2 {
        fill: #222;
      }
    </style>
  </defs>
  <g id="hair_6">
    <path id="hair" class="st2" d="M346.16,161.31c9.43-14.94-22.31-77.58-115.6-85.39.03-.08.06-.16.1-.25.29-.75.67-1.65.91-2.73.25-1.07.67-2.26.88-3.58.18-1.33.53-2.75.61-4.27.09-1.52.28-3.12.2-4.77,0-.72-.01-1.46-.05-2.2.07-.26.16-.52.22-.79.75-2.17,1.12-4.5,1.39-6.87.25-1.17.12-2.39.11-3.6-.03-1.21,0-2.42-.32-3.62-.32-2.43-1.21-4.74-2.17-6.97-.64-1.05-1.27-2.1-1.89-3.13-.7-.99-1.54-1.87-2.29-2.79-1.65-1.71-3.36-3.3-5.23-4.51-1.76-1.35-3.69-2.29-5.38-3.25-1.8-.8-3.4-1.61-4.92-2.15-1.52-.53-2.81-1.06-3.93-1.36-2.22-.64-3.49-1-3.49-1,0,0,.05.02.11.04-6.79-2.05-14.95-2.48-24.21-1.03-17.82,2.78-24.32,14.35-24.78,26.75-.65,1.08-1.24,2.21-1.85,3.36-.7,1.92-1.59,3.86-1.81,5.95-.53,2.05-.3,4.16-.29,6.24.53,2,.63,4.13,1.64,5.91.42.92.83,1.83,1.24,2.72.45.87,1.08,1.61,1.6,2.4.54.77,1.07,1.52,1.59,2.25.57.68,1.21,1.27,1.78,1.88,1.19,1.16,2.19,2.34,3.26,3.19.19.15.37.28.54.42-84.77,13.06-113.41,67.62-108.15,82.99-14.95,9.64-31.24,20.72-14.95,96.3,8.36,38.78,15.6,51.01,15.6,51.01,13.85-38.56,9.13-23.56,22.05-48.05,19.54-37.02,10.34-35.07,13.88-45.73,3.51-2.59,12.13-5.01,22.09-7.3,30.29-6.98,10.48,6.09,79.84,6.09s52.12-15.85,82.42-8.87c9.96,2.3,31.65,1.91,31.65,1.91,3.54,10.66-4.52,25.22,14.6,53.9,15.36,23.04,8.2,9.5,22.05,48.05,0,0,7.24-12.23,15.6-51.01,16.2-75.11.2-86.52-14.67-96.12ZM208.73,19.25c1.1.36,2.34.96,3.8,1.56,1.46.61,3,1.49,4.71,2.37,1.59,1.04,3.41,2.05,5.03,3.44,1.73,1.27,3.26,2.89,4.72,4.58.65.91,1.39,1.78,1.98,2.74.52.99,1.04,1.99,1.57,3.01.75,2.13,1.43,4.29,1.57,6.55.23,1.11.11,2.24.06,3.36-.05.8-.04,1.59-.14,2.37-1.46-6.56-4.01-12.83-7-17.08-.72-1.14-1.53-2.09-2.26-2.93-.68-.87-1.52-1.48-2.07-2.04-1.28-.99-2.1-1.48-2.1-1.48,0,0,.77.54,1.95,1.62.5.61,1.24,1.23,1.84,2.14.64.87,1.34,1.86,1.95,3.03,2.64,4.54,4.63,11.2,5.39,17.9.09,1.68.33,3.36.26,5.01.01.5,0,.99,0,1.49-.63,1.9-1.54,3.67-2.41,5.34-.83,1.81-1.86,3.43-2.85,4.92-.26.39-.51.78-.75,1.15,8.18-24.6,1.27-42.45-15.58-49.15.11.04.21.07.33.11ZM163.53,72.06c-.56-.51-1.2-1.02-1.76-1.6-.5-.62-1.02-1.26-1.56-1.91-.51-.67-1.15-1.31-1.61-2.05-.41-.76-.84-1.54-1.27-2.33-1.05-1.54-1.23-3.38-1.88-5.15-.13-1.84-.52-3.73-.17-5.62.04-1.89.71-3.71,1.22-5.53.72,11.43,6.04,22.82,11.91,28.05-.52-.35-1.09-.73-1.71-1.15-1.05-.72-1.99-1.72-3.17-2.71Z"/>
    <g id="details">
      <g class="st1">
        <path class="st0" d="M194.5,207.27s-.41-.27-1.17-.77c-.83-.42-1.75-1.41-2.95-2.73-1.14-1.35-2.37-3.09-3.66-5.17-1.26-2.1-2.65-4.51-3.82-7.3-1.35-2.72-2.37-5.83-3.65-9.07-1.01-3.32-2.31-6.77-3.08-10.49-.95-3.68-1.72-7.53-2.33-11.48-.69-3.94-.95-8-1.41-12.03-.07-4.06-.44-8.12-.25-12.12.13-4,.21-7.93.74-11.71.38-3.79.83-7.43,1.63-10.83.72-3.4,1.23-6.65,2.17-9.54.81-2.92,1.62-5.56,2.35-7.9.9-2.27,1.69-4.26,2.33-5.89,1.34-3.23,2.1-5.08,2.1-5.08,0,0-.51,1.94-1.41,5.33-.47,1.68-1.03,3.72-1.68,6.06-.46,2.39-.97,5.09-1.62,7.99-.73,2.89-1.03,6.12-1.52,9.49-.56,3.36-.73,6.96-1.03,10.66-.42,3.69-.28,7.54-.4,11.43-.15,3.9.27,7.85.36,11.8.4,3.93.61,7.9,1.24,11.74.58,3.85,1.11,7.65,1.95,11.26.67,3.65,1.68,7.09,2.45,10.4,1.04,3.22,1.85,6.36,2.99,9.08,2.01,5.57,4.22,10.01,6.09,12.85,1,1.34,1.73,2.52,2.51,3.05.69.62,1.05.95,1.05.95Z"/>
        <path class="st0" d="M184.4,133.52s-.06,3.89.26,9.61c.25,5.72.86,13.27,2.1,20.7,1.15,7.44,3.01,14.74,4.71,20.17.82,2.73,1.55,5.01,2.18,6.56.56,1.58.84,2.53.84,2.53,0,0-.57-.77-1.49-2.17-.92-1.41-2.28-3.41-3.53-6.04-.7-1.28-1.37-2.71-1.95-4.28-.62-1.55-1.33-3.18-1.81-4.95-1.15-3.48-2.05-7.3-2.68-11.16-1.27-7.74-1.25-15.63-.53-21.43.68-5.82,1.9-9.53,1.9-9.53Z"/>
        <path class="st0" d="M163.6,87.67s-.22.33-.63.96c-.4.63-1.08,1.52-1.64,2.78-.65,1.21-1.34,2.71-1.98,4.55-.75,1.77-1.26,3.92-2.05,6.15-.59,2.31-1.35,4.77-1.85,7.46-.59,2.67-1.06,5.5-1.53,8.44-.57,2.92-.74,6.01-1.19,9.09-.2,3.12-.61,6.27-.61,9.45-.18,3.17-.22,6.34-.11,9.46-.02,3.13.28,6.18.44,9.15.25,2.96.65,5.8.91,8.53.48,2.69.94,5.23,1.36,7.57.57,2.32,1.09,4.44,1.56,6.33.38,1.92,1.06,3.48,1.46,4.82.84,2.69,1.33,4.22,1.33,4.22,0,0-.73-1.43-2.01-3.93-.58-1.28-1.47-2.77-2.11-4.63-.7-1.84-1.54-3.91-2.28-6.23-.62-2.36-1.3-4.92-2.02-7.62-.49-2.75-1.17-5.65-1.51-8.69-.26-3.05-.79-6.19-.78-9.41-.15-3.22-.17-6.48-.02-9.75.05-3.27.51-6.51.76-9.71.47-3.18.87-6.32,1.55-9.3.56-3.01,1.33-5.86,2.14-8.54.73-2.7,1.71-5.16,2.51-7.46,1.83-4.53,3.73-8.1,5.44-10.41.73-1.23,1.58-1.92,2.08-2.47.51-.53.79-.82.79-.82Z"/>
        <path class="st0" d="M153.6,202.07s-1.07-.73-2.79-2.22c-1.66-1.57-4.11-3.8-6.46-7-2.33-3.19-5.04-7-7.22-11.52-2.24-4.47-4.24-9.47-5.67-14.65-1.47-5.16-2.4-10.48-2.88-15.49-.16-2.51-.4-4.94-.32-7.24.07-2.3,0-4.47.18-6.47.25-4,.8-7.29,1.25-9.57.46-2.27.72-3.57.72-3.57,0,0,0,1.33.01,3.65-.15,2.3.06,5.6.15,9.51.01,1.96.3,4.07.45,6.3.14,2.23.64,4.55.87,6.96.78,4.79,1.71,9.88,3.2,14.81.63,2.5,1.47,4.93,2.3,7.33.91,2.36,1.72,4.73,2.73,6.91,1.88,4.44,3.96,8.45,5.96,11.75,2.01,3.3,3.83,5.97,5.24,7.73,1.45,1.76,2.28,2.77,2.28,2.77Z"/>
        <path class="st0" d="M124.06,105.04s-.32,1.28-.88,3.53c-.61,2.22-1.2,5.47-2.02,9.31-.77,3.85-1.48,8.38-2.03,13.23-.39,2.41-.42,4.94-.71,7.48-.14,2.55-.27,5.14-.29,7.73.09,2.58-.09,5.19.2,7.71.25,2.53.26,5.05.72,7.42.38,2.39.59,4.74,1.16,6.88.52,2.15.82,4.27,1.53,6.07.64,1.83,1.15,3.55,1.6,5.08.62,1.46,1.16,2.73,1.61,3.78.87,2.14,1.37,3.36,1.37,3.36,0,0-.73-1.09-2.02-2.99-.62-.98-1.37-2.17-2.24-3.53-.72-1.45-1.52-3.09-2.33-4.93-.92-1.8-1.44-3.92-2.2-6.1-.81-2.18-1.31-4.57-1.78-7.05-.58-2.47-.82-5.07-1.08-7.72-.34-2.64-.22-5.34-.34-8.04.13-5.38.57-10.75,1.5-15.69.8-4.96,2.15-9.45,3.26-13.27,2.41-7.62,4.95-12.27,4.95-12.27Z"/>
        <path class="st0" d="M98.15,140.76s-.41,3.62-.16,8.92c.07,2.64.36,5.7.82,8.92.54,3.21,1.17,6.61,2.26,9.88.39,1.68,1.11,3.25,1.67,4.85.59,1.58,1.35,3.07,1.98,4.56.67,1.47,1.5,2.79,2.17,4.13.66,1.35,1.5,2.47,2.18,3.59.74,1.07,1.27,2.2,1.94,3.02.63.87,1.19,1.62,1.64,2.24.91,1.26,1.4,2.03,1.4,2.03,0,0-.72-.51-1.92-1.49-.6-.5-1.33-1.1-2.16-1.8-.88-.66-1.67-1.61-2.59-2.59-.9-1.01-1.98-2.03-2.82-3.35-.87-1.29-1.94-2.57-2.75-4.1-.77-1.53-1.78-3.03-2.43-4.73-.64-1.7-1.46-3.37-1.92-5.17-1.1-3.54-1.72-7.23-1.96-10.68-.21-3.46-.09-6.7.33-9.43.77-5.47,2.32-8.79,2.32-8.79Z"/>
        <path class="st0" d="M90.88,118.56s-2.09,4.34-3.57,11.22c-.7,3.44-1.43,7.46-1.6,11.82-.23,2.17-.06,4.42-.11,6.7.05,2.28.3,4.59.49,6.9.37,2.29.59,4.61,1.07,6.84.57,2.21.9,4.45,1.51,6.55.62,2.1,1.22,4.13,1.78,6.06.69,1.89,1.34,3.68,1.94,5.34,1.1,3.37,2.42,6.01,3.19,7.94.78,1.94,1.22,3.05,1.22,3.05,0,0-.7-.95-1.86-2.67-1.06-1.78-3-4.1-4.52-7.37-.82-1.6-1.75-3.32-2.6-5.21-.74-1.94-1.53-3.99-2.34-6.11-.72-2.15-1.3-4.45-1.9-6.77-.55-2.34-.83-4.78-1.26-7.19-.42-4.88-.59-9.82.06-14.38.2-2.29.69-4.46,1.15-6.51.47-2.04,1.08-3.93,1.69-5.64,1.21-3.44,2.74-6.06,3.76-7.88,1.1-1.78,1.88-2.68,1.88-2.68Z"/>
        <path class="st0" d="M63.87,156.69s.1,2.98,1.02,7.14c.44,2.08,1.04,4.45,1.92,6.9.38,1.24.94,2.46,1.46,3.71.46,1.28,1.2,2.45,1.79,3.68.64,1.21,1.37,2.37,2.05,3.54.81,1.08,1.51,2.22,2.25,3.28,1.61,2.02,3.1,3.95,4.54,5.48,1.35,1.63,2.63,2.87,3.5,3.77.87.91,1.34,1.48,1.34,1.48,0,0-.66-.28-1.77-.86-1.07-.64-2.79-1.32-4.49-2.68-1.83-1.21-3.72-2.95-5.66-4.94-.88-1.08-1.83-2.17-2.71-3.35-.78-1.25-1.63-2.5-2.36-3.81-.62-1.38-1.38-2.69-1.84-4.12-.56-1.38-.96-2.8-1.28-4.19-.69-2.76-.93-5.42-.89-7.68.06-4.54,1.14-7.36,1.14-7.36Z"/>
        <path class="st0" d="M196.75,97.73s.19.37.55,1.05c.34.69.92,1.66,1.45,3.02,1.16,2.68,2.65,6.55,4.07,11.34,1.31,4.81,2.91,10.43,4.01,16.58,1.2,6.13,2.1,12.75,2.7,19.4.3,3.33.49,6.66.61,9.95.22,3.28.07,6.53.09,9.66-.09,6.27-.72,12.09-1.28,17.06-.7,4.96-1.52,9.04-2.23,11.86-.72,2.81-1.13,4.42-1.13,4.42,0,0,.15-1.65.4-4.55.41-2.86.48-7.02.84-11.93.06-2.47.13-5.14.2-7.97-.04-2.82-.08-5.8-.13-8.88-.23-6.15-.45-12.72-1.13-19.26-.51-6.55-1.35-13.07-2.21-19.17-.85-6.11-1.81-11.78-2.79-16.62-1.07-4.8-1.84-8.88-2.69-11.61-.76-2.79-1.31-4.36-1.31-4.36Z"/>
        <path class="st0" d="M213.94,81.78s1.52,1.37,4.19,3.76c1.25,1.28,2.54,3.1,4.17,5.09,1.44,2.1,2.94,4.58,4.38,7.39,1.23,2.9,2.8,5.98,3.8,9.48,1.26,3.42,2.16,7.15,2.96,11.04.68,3.9,1.37,7.96,1.69,12.11.16,2.08.32,4.17.48,6.28l.1,6.34c.07,4.24-.45,8.45-.71,12.6-.6,4.11-.91,8.21-1.78,12.07-.39,1.94-.77,3.84-1.14,5.71-.52,1.83-1.02,3.62-1.51,5.36-.89,3.51-2.13,6.69-3.18,9.66-.95,3-2.31,5.56-3.36,7.87-1.02,2.33-2.07,4.28-3.01,5.84-1.84,3.12-2.89,4.91-2.89,4.91,0,0,.81-1.91,2.23-5.26.77-1.63,1.61-3.66,2.38-6.07.79-2.4,1.85-5.02,2.65-8.02.86-2.98,1.87-6.16,2.53-9.66.83-3.45,1.47-7.12,2.08-10.94.77-3.79.99-7.79,1.5-11.81.17-4.05.58-8.16.44-12.28l.03-6.17c-.12-2.05-.23-4.08-.34-6.1-.23-4.04-.82-7.99-1.4-11.79-.77-3.76-1.34-7.45-2.36-10.82-.76-3.46-2.09-6.5-3.1-9.4-1.26-2.77-2.45-5.34-3.62-7.51-1.35-2.04-2.41-3.96-3.52-5.36-2.34-2.74-3.67-4.3-3.67-4.3Z"/>
        <path class="st0" d="M233.89,205.02s2.18-3.92,4.77-10.03c1.32-3.04,2.75-6.62,4.12-10.51,1.37-3.89,2.71-8.07,3.79-12.33.66-2.1,1.04-4.27,1.56-6.37.48-2.11.84-4.22,1.25-6.24.4-2.03.61-4.02.93-5.9.33-1.88.47-3.67.67-5.33.14-1.66.43-3.18.51-4.54.1-1.36.18-2.55.25-3.53.15-1.96.29-3.1.29-3.1,0,0,.19,1.11.44,3.07.22,1.96.67,4.78.67,8.19.04,1.7.14,3.56-.02,5.51-.14,1.95-.13,4.03-.45,6.14-.32,2.11-.47,4.33-.97,6.51-.5,2.18-.85,4.45-1.49,6.63-1.2,4.39-2.65,8.71-4.36,12.6-1.67,3.9-3.52,7.41-5.3,10.27-3.54,5.76-6.67,8.96-6.67,8.96Z"/>
        <path class="st0" d="M252.22,87.67s.33.26.94.75c.6.51,1.56,1.15,2.62,2.18.92,1.16,2.26,2.48,3.44,4.22,1.11,1.77,2.54,3.72,3.52,6.14,1.19,2.32,2.15,4.98,3.14,7.8.93,2.83,1.82,5.88,2.44,9.08.62,3.2,1.25,6.52,1.53,9.95.47,3.4.44,6.89.65,10.37-.15,3.48-.03,6.97-.43,10.38-.23,3.42-.69,6.76-1.28,9.96-.42,3.23-1.33,6.26-2.04,9.15-.68,2.9-1.76,5.52-2.52,7.98-.77,2.47-1.91,4.58-2.73,6.5-.8,1.93-1.73,3.5-2.47,4.81-1.5,2.58-2.36,4.05-2.36,4.05,0,0,.62-1.59,1.69-4.38.56-1.38,1.27-3.03,1.83-5.03.56-2,1.39-4.17,2-6.63.56-2.48,1.41-5.09,1.86-7.97.48-2.87,1.1-5.86,1.43-9.01.48-3.13.71-6.39.93-9.7.35-3.3.18-6.69.3-10.05-.17-3.36-.09-6.75-.5-10.04-.25-3.31-.65-6.54-1.16-9.66-.53-3.1-1.12-6.1-1.81-8.9-.75-2.78-1.48-5.42-2.45-7.73-.81-2.4-1.91-4.39-2.76-6.26-.92-1.81-1.99-3.18-2.76-4.45-1.92-2.23-3.07-3.49-3.07-3.49Z"/>
        <path class="st0" d="M276.2,118.56s2.01,4.46,3.88,11.59c.88,3.57,1.78,7.8,2.29,12.4.29,2.3.52,4.69.59,7.13.18,2.43.03,4.92.03,7.41-.12,2.48-.44,4.96-.68,7.4-.45,2.42-.85,4.81-1.46,7.06-.71,2.23-1.23,4.44-2.13,6.39-.89,1.95-1.63,3.83-2.58,5.42-.98,1.58-1.92,2.99-2.75,4.22-.84,1.22-1.82,2.11-2.5,2.92-1.43,1.56-2.27,2.4-2.27,2.4,0,0,.62-1.04,1.69-2.87.52-.92,1.3-1.91,1.9-3.24.58-1.34,1.23-2.85,1.99-4.44.7-1.62,1.17-3.52,1.87-5.41.68-1.91.95-4.07,1.54-6.2.49-2.16.65-4.47,1.08-6.76.18-2.33.44-4.69.52-7.07.04-2.38.23-4.76.1-7.12-.05-2.35-.06-4.67-.25-6.92-.23-4.49-.72-8.68-1.11-12.29-.86-7.2-1.76-12.02-1.76-12.02Z"/>
        <path class="st0" d="M288.74,193.09s.78-1.22,1.99-3.42c.5-1.16,1.25-2.42,1.83-4.08.61-1.63,1.31-3.45,1.94-5.49,1.41-4.03,2.43-8.93,3.46-14.16.94-5.25,1.69-10.9,2.01-16.57.15-2.83.27-5.68.23-8.47-.13-2.79-.06-5.55-.4-8.18-.19-2.66-.52-5.2-.92-7.6-.27-2.44-.96-4.63-1.44-6.71-.44-2.1-1.23-3.88-1.71-5.56-.48-1.69-1.1-3.06-1.66-4.18-1.02-2.31-1.6-3.63-1.6-3.63,0,0,.82,1.18,2.24,3.25.72,1.04,1.56,2.34,2.3,3.95.75,1.6,1.84,3.34,2.44,5.46.68,2.09,1.61,4.31,2.11,6.8.64,2.45,1.26,5.06,1.54,7.82.86,5.48.89,11.41.64,17.29-.42,5.88-1.25,11.72-2.54,17.07-1.3,5.35-2.97,10.21-4.73,14.22-.79,2.04-1.79,3.8-2.66,5.34-.82,1.57-1.82,2.81-2.49,3.87-.71,1.04-1.46,1.68-1.89,2.2-.45.49-.69.76-.69.76Z"/>
        <path class="st0" d="M310.11,118.56s.58.74,1.52,2.07c.51.64.91,1.57,1.48,2.61.6,1.04,1.06,2.27,1.54,3.64.98,2.73,1.67,6.07,2,9.68.38,3.61.23,7.47-.06,11.31-.82,7.65-2.93,15.08-5.37,20.23-2.4,5.2-4.83,8.09-4.83,8.09,0,0,.29-.92.86-2.44.57-1.53,1.2-3.78,1.94-6.44.71-2.68,1.45-5.81,2.08-9.2.67-3.38,1.17-7.01,1.56-10.65.35-3.64.56-7.29.5-10.7-.02-1.71-.13-3.35-.22-4.92-.24-1.53-.25-3.05-.56-4.37-.45-2.72-.98-4.89-1.56-6.45-.59-1.54-.88-2.44-.88-2.44Z"/>
        <path class="st0" d="M310.75,193.09s2.81-2.1,6.59-5.55c1.86-1.77,4.04-3.78,6.09-6.18,1.1-1.13,2.03-2.47,3.06-3.75,1.03-1.28,1.85-2.73,2.76-4.12.71-1.49,1.69-2.86,2.2-4.41.56-1.53,1.28-2.97,1.54-4.52.42-1.5.77-2.97.85-4.42.18-1.43.37-2.8.26-4.08-.07-1.27.02-2.48-.06-3.53-.16-1.05-.29-1.97-.41-2.72-.21-1.53-.29-2.45-.29-2.45,0,0,.39.78,1,2.23.3.73.66,1.62,1.08,2.64.35,1.04.57,2.28.85,3.64.36,1.35.43,2.85.4,4.45,0,.8.04,1.63,0,2.47-.14.83-.28,1.68-.42,2.55-.21,1.76-.78,3.48-1.42,5.2-.55,1.77-1.57,3.32-2.35,5.01-1.04,1.51-2,3.09-3.15,4.45-1.13,1.38-2.31,2.68-3.55,3.81-2.4,2.36-4.95,4.13-7.17,5.55-4.52,2.72-7.86,3.72-7.86,3.72Z"/>
      </g>
      <g class="st1">
        <path class="st0" d="M185.59,27.03s-.4.66-1.16,1.77c-.23.58-.5,1.29-.81,2.1-.15.88-.43,1.81-.58,2.87-.27,2.12-.47,4.61-.36,7.29.06,2.68.29,5.54.68,8.39.36,2.85.85,5.7,1.44,8.34.56,2.65,1.27,5.08,1.92,7.18.73,2.06,1.4,3.77,2.03,4.92.69,1.1,1.07,1.79,1.07,1.79,0,0-.6-.51-1.63-1.49-.89-1.05-2.16-2.59-3.28-4.63-1.09-2.03-2.19-4.49-3-7.19-.9-2.69-1.46-5.64-1.9-8.59-.34-2.97-.52-5.95-.29-8.76.13-2.8.7-5.42,1.43-7.59.34-1.09.9-2.05,1.29-2.89.56-.8,1.06-1.5,1.46-2.07,1.04-.92,1.67-1.43,1.67-1.43Z"/>
        <path class="st0" d="M194.71,34.67s.5.38,1.3,1.07c.43.32.8.84,1.25,1.45.49.6.98,1.32,1.3,2.13.42.8.8,1.69,1.04,2.66.32.96.58,1.98.72,3.05.41,2.13.46,4.41.46,6.67-.11,4.54-1.02,8.99-2.01,12.25-1.01,3.26-2.06,5.35-2.06,5.35,0,0,.03-2.27.16-5.59.14-3.33.48-7.72.56-12.07.07-2.17.07-4.35-.04-6.36-.1-2.02-.29-3.9-.66-5.46-.14-.82-.33-1.5-.56-2.11-.2-.62-.37-1.2-.68-1.62-.52-.88-.77-1.4-.77-1.4Z"/>
        <path class="st0" d="M196.93,24.4s.78.3,2.06.94c1.2.77,3,1.94,4.57,3.72,1.69,1.72,3.19,4.02,4.51,6.59.6,1.3,1.25,2.64,1.67,4.08.53,1.41.77,2.89,1.15,4.36.15,1.49.44,2.98.41,4.46.1,1.48-.04,2.93-.22,4.33-.07,1.4-.54,2.73-.81,3.98-.33,1.25-.87,2.39-1.27,3.44-1.02,2.06-2.04,3.68-2.92,4.73-.84,1.07-1.35,1.64-1.35,1.64,0,0,.26-.71.76-1.9.61-1.15,1.04-2.93,1.66-4.96.46-2.09.91-4.51.98-7.13.09-1.31.03-2.66-.07-4.03,0-1.37-.33-2.75-.49-4.13-1-5.51-3.15-10.87-5.59-14.53-1.18-1.87-2.4-3.26-3.36-4.2-1.07-.89-1.68-1.39-1.68-1.39Z"/>
        <path class="st0" d="M211.98,32.28s.61.41,1.61,1.21c.9.89,2.23,2.2,3.3,4.01,2.3,3.56,4.2,8.86,4.45,14.33.08,2.72-.07,5.47-.77,7.97-.25,1.27-.73,2.44-1.2,3.54-.39,1.12-1.08,2.09-1.56,3.01-.46.94-1.21,1.66-1.72,2.35-.51.7-1.09,1.22-1.56,1.65-.94.85-1.48,1.33-1.48,1.33,0,0,.41-.57,1.13-1.56.37-.48.83-1.05,1.2-1.8.36-.74.93-1.5,1.29-2.43.35-.93.9-1.88,1.15-2.98.33-1.08.63-2.22.82-3.42.29-1.19.32-2.45.46-3.71.07-1.27.08-2.57,0-3.86-.08-2.59-.58-5.16-1.11-7.56-.38-1.17-.59-2.35-1.02-3.41-.36-1.08-.77-2.08-1.22-2.98-.85-1.82-1.75-3.26-2.48-4.22-.82-.93-1.29-1.46-1.29-1.46Z"/>
        <path class="st0" d="M175.3,37.53s-.15.59-.47,1.61c-.08.5-.17,1.11-.27,1.8-.03.71-.06,1.51-.1,2.38-.02,3.48.44,8.11,1.25,12.71.79,4.6,1.87,9.16,3,12.52.6,1.66,1.12,3.06,1.63,4,.54.91.84,1.48.84,1.48,0,0-.51-.39-1.39-1.17-.77-.83-1.88-2.05-2.87-3.68-.97-1.63-1.95-3.6-2.7-5.78-.83-2.17-1.36-4.55-1.83-6.94-.35-2.4-.63-4.82-.56-7.11-.01-2.28.31-4.42.73-6.21.42-1.79,1.17-3.26,1.69-4.22.65-.89,1.07-1.38,1.07-1.38Z"/>
        <path class="st0" d="M173.24,27.98s-1.38,1.66-2.95,4.31c-.85,1.29-1.59,2.91-2.38,4.61-.69,1.74-1.46,3.58-1.84,5.5-.52,1.9-.72,3.84-.84,5.67-.1.91,0,1.8-.03,2.65-.04.85.09,1.64.18,2.38.12.73.1,1.43.24,2.03.12.6.22,1.13.3,1.56.14.88.23,1.38.23,1.38,0,0-.23-.46-.65-1.28-.37-.83-1.03-1.99-1.37-3.51-.2-.75-.47-1.56-.56-2.44-.1-.88-.37-1.81-.31-2.78.04-.97-.1-1.98.1-2.99.14-1.01.24-2.05.52-3.06.95-4.09,3.21-7.83,5.35-10.29,2.1-2.5,4.02-3.74,4.02-3.74Z"/>
      </g>
    </g>
  </g>
</svg>