<?xml version="1.0" encoding="UTF-8"?>
<svg id="Layer_1" xmlns="http://www.w3.org/2000/svg" version="1.1" viewBox="0 0 400 600">
  <!-- Generator: Adobe Illustrator 29.5.1, SVG Export Plug-In . SVG Version: 2.1.0 Build 141)  -->
  <defs>
    <style>
      .st0 {
        fill: #fff;
      }

      .st1 {
        opacity: .25;
      }

      .st2 {
        fill: $[hairColor];
      }
    </style>
  </defs>
  <g id="hair_4">
    <path id="hair" class="st2" d="M313.89,191.71c7.41,4.34,9.03,12.28,7.91,23.77-1.12,11.5-9.03,25.48,5.22,45.49,14.25,20.01,10.39,19.75,9.9,45.79s4.7,20.63,4.7,20.63c0,0,8.63-7.73,12.04-23.93,3.46-16.41.48-16.53,4.53-24.38,7.53-14.6,2.2-27.75,7.13-54.81,5.45-29.91-6.7-61.74-30.25-67.09,3.33-19.47-4-40.82-22.14-56.72-27.74-24.31-58.07-28.2-85.93-21.33,0,0-75.49-12.19-102.79,17.87,0,0-20.76-10.06-46.67,27.21-18.98,27.29-40.65,40.99-35.88,52.73,0,0-2.35,15.83-5.65,21.22s.69,24.82,3.22,31.48c0,0-2.49,11.59-1.91,11.3-1.25,7.01,5.79,13.11,7.12,20.68,3.07,17.45,4.7,19.98,2.2,32.83-3.47,17.86,15.83,38.65,15.83,38.65,0,0,5.09-10.21,5.73-19.47.64-9.26-8.83-31.2,2.49-43.16,11.31-11.97,7.25-15.04,7.55-30.6.29-15.56,14.81-28.92,24.91-34.63,1.67-.9,7.32,1.09,10.01,1.83,7.54,2.08,21.81,1.81,37.44-6.31,12.48-6.48,28.36-4.57,35.73-1.76,14.34,5.48,28.14,7.05,44.74-.81,16.6-7.86,29.01-5.55,39.85-10.8,10.84-5.25,18.61-5.47,24.64-1.73,6.03,3.74,13.22,7.74,18.35,6.05"/>
    <g id="details" class="st1">
      <path class="st0" d="M223.58,183.17s.08-.61.23-1.74c.18-1.13.4-2.81.33-4.92.05-1.05.01-2.22-.2-3.49-.15-1.27-.27-2.64-.71-4.06-.34-1.44-.73-2.96-1.41-4.5-.53-1.58-1.3-3.17-2.19-4.8-.75-1.68-2.05-3.23-3.1-4.93-1.38-1.54-2.54-3.3-4.23-4.78-3.04-3.2-7.06-5.94-11.37-8.47-4.37-2.52-9.46-4.29-14.73-5.72-5.41-1.17-10.88-1.96-16.66-2.03-11.43-.3-23.04.28-33.9.56-10.87.33-21.07.27-29.81-.26-8.68-.56-16.12-1.87-20.4-4.46-2.13-1.28-3.14-2.95-3.29-4.1-.17-1.14-.08-1.75-.08-1.75,0,0-.02.63.26,1.72.25,1.12,1.4,2.56,3.48,3.67,4.23,2.27,11.56,3.01,20.13,3.3,8.63.3,18.74-.2,29.57-.62,10.85-.4,22.4-1.13,34.16-.94,5.82.13,11.84,1.03,17.44,2.33,5.55,1.57,10.89,3.51,15.47,6.22,4.57,2.68,8.62,5.77,11.65,9.23,1.69,1.61,2.83,3.49,4.18,5.15,1.02,1.82,2.28,3.47,2.98,5.24.82,1.73,1.58,3.4,2,5.06.57,1.63.86,3.22,1.09,4.71.33,1.48.34,2.89.4,4.19.11,1.29.05,2.49-.08,3.56-.09,2.16-.53,3.79-.81,4.91-.27,1.12-.41,1.72-.41,1.72Z"/>
      <path class="st0" d="M154.58,190.54s-.77-1.15-2.45-3.07c-1.65-1.92-4.34-4.57-8.16-7.41-1.96-1.39-4.18-2.85-6.84-4.13-2.57-1.36-5.67-2.39-8.85-3.39-3.3-.81-6.75-1.51-10.44-1.7-3.8-.32-7.31-.25-11.1-.16-7.46.17-14.86.9-21.86,1.48-6.99.6-13.69.9-19.51.77-2.91-.04-5.61-.32-7.96-.64-1.17-.21-2.26-.4-3.28-.58-.99-.23-1.88-.5-2.69-.71-1.65-.37-2.73-1-3.53-1.29-.78-.33-1.2-.5-1.2-.5,0,0,.45.14,1.28.41.85.23,1.99.73,3.64,1.01.81.16,1.69.37,2.67.54.99.11,2.06.24,3.21.37,2.29.16,4.88.27,7.69.23,5.63-.04,12.05-.72,18.99-1.39,6.94-.66,14.35-1.5,22.05-1.76,3.79-.06,7.93-.06,11.67.31,3.88.25,7.76,1.05,11.3,1.99,3.48,1.09,6.7,2.37,9.32,3.9,2.71,1.45,4.9,3.06,6.81,4.57,3.74,3.07,5.91,5.95,7.34,7.94,1.38,2.01,1.88,3.21,1.88,3.21Z"/>
      <path class="st0" d="M56.38,155.58c0-.07,1.56.38,4.29.41,2.71.14,6.63-.09,11.3-.48,9.36-.78,21.75-2.66,34.45-3.32,3.18-.11,6.38-.2,9.57-.02.83.06,1.53.03,2.44.17l2.26.32c1.55.33,3.2.65,4.61,1.18,5.89,1.89,10.17,5.34,13.69,8.05,3.51,2.79,6.3,5.15,8.67,6.34,1.18.57,2.13,1.03,2.84,1.2.7.22,1.07.33,1.07.33,0,0-.39-.06-1.12-.18-.74-.08-1.8-.36-3.09-.85-2.57-.99-5.92-3-9.59-5.57-3.7-2.52-8.13-5.36-13.47-6.88-1.34-.45-2.65-.63-4.05-.91l-2.27-.24c-.6-.1-1.45-.08-2.17-.12-3-.14-6.11-.01-9.21.12-6.22.28-12.47.85-18.36,1.25-5.88.44-11.42.67-16.17.78-2.38.06-4.56,0-6.5-.12-1.94-.14-3.61-.24-5-.49-2.78-.36-4.17-1.07-4.2-.98Z"/>
      <path class="st0" d="M129.04,201.29s-.35-.05-.99-.15c-.65-.09-1.6-.21-2.79-.54-2.4-.56-5.69-1.9-9.41-3.31-3.76-1.38-8.42-1.76-13.46-1.44-2.52.14-5.11.48-7.76.85-2.66.43-5.37.87-8.08,1.31-2.67.45-5.59.67-8.39.86-2.8.14-5.56.07-8.23-.09-5.34-.34-10.23-1.4-14.27-2.56-4.06-1.16-7.19-2.67-9.31-3.75-2.11-1.12-3.16-1.94-3.16-1.94,0,0,1.23.6,3.47,1.43,2.22.86,5.53,1.8,9.52,2.66,4,.88,8.76,1.4,13.85,1.55,1.27,0,2.56.01,3.87.02,1.3-.06,2.62-.12,3.96-.18,2.64-.22,5.24-.43,8-.92,2.73-.41,5.47-.82,8.16-1.22,2.74-.36,5.48-.56,8.16-.62,5.35-.16,10.58.8,14.45,2.53,3.83,1.75,6.58,3.5,8.85,4.28,1.09.43,2,.74,2.62.92.62.2.95.3.95.3Z"/>
      <path class="st0" d="M231.15,194.1s.3-.51.87-1.47c.51-.98,1.27-2.41,2-4.32,1.48-3.79,2.73-9.55,2.29-16.47-.47-6.88-2.85-14.94-8.11-22.12-2.67-3.54-6.04-6.84-10.08-9.41-4.18-2.59-8.5-5.47-12.58-8.42-8.24-5.9-16.15-12.12-23.69-17.76-7.45-5.73-14.56-10.9-21.17-14.57-6.55-3.72-12.68-5.82-17.14-6.08-2.22-.2-3.97-.08-5.16.07-1.18.19-1.81.3-1.81.3,0,0,.62-.15,1.77-.44,1.17-.23,2.93-.53,5.21-.46,4.57.02,11.06,1.75,17.95,5.26,6.9,3.51,14.31,8.49,22.03,13.99,7.65,5.59,15.62,11.7,23.87,17.45,4.14,2.9,8.28,5.57,12.51,8.33,4.33,2.85,7.91,6.47,10.7,10.3,2.73,3.88,4.77,7.96,5.92,12.01,1.2,4.03,1.7,7.95,1.75,11.54.16,7.22-1.81,13.01-3.62,16.74-.89,1.89-1.85,3.25-2.48,4.17-.68.89-1.04,1.37-1.04,1.37Z"/>
      <path class="st0" d="M239.46,102.07s1.69.66,4.65,1.82c1.49.57,3.25,1.31,5.17,2.34,1.93,1,4.26,2.03,6.38,3.52,2.24,1.4,4.63,2.95,6.88,4.82,2.43,1.75,4.57,3.89,6.8,6.09,1.12,1.1,2.02,2.35,3.06,3.55,1.05,1.2,2.03,2.45,2.81,3.79,1.83,2.59,3.23,5.38,4.56,8.2,1.05,2.87,2.23,5.75,2.68,8.68.77,2.9.77,5.81.94,8.6-.19,2.79-.19,5.51-.9,8.02-.29,1.26-.57,2.48-.84,3.66-.37,1.17-.82,2.28-1.2,3.35-.66,2.17-1.72,4.04-2.66,5.69-.85,1.67-1.73,3.08-2.59,4.19-1.64,2.23-2.58,3.5-2.58,3.5,0,0,.69-1.36,1.9-3.74.69-1.16,1.34-2.61,1.93-4.33.66-1.69,1.41-3.59,1.91-5.72.27-1.06.62-2.15.87-3.29.16-1.15.32-2.35.49-3.57.23-1.22.3-2.48.26-3.77-.03-1.29.11-2.6.04-3.94-.27-2.67-.48-5.42-1.21-8.17-.46-2.78-1.64-5.5-2.67-8.22-1.23-2.68-2.51-5.35-4.22-7.83-1.5-2.56-3.5-4.87-5.33-7.14-2.08-2.14-3.9-4.33-6.1-6.13-2.01-1.93-4.18-3.55-6.24-5.02-1.97-1.55-4.03-2.72-5.77-3.87-1.71-1.17-3.36-2.06-4.76-2.76-2.72-1.47-4.27-2.31-4.27-2.31Z"/>
      <path class="st0" d="M238.3,124.2s4.32,2.65,9.69,7.51c2.59,2.48,5.65,5.38,8.34,8.82,1.39,1.7,2.75,3.49,3.91,5.41,1.31,1.86,2.25,3.9,3.34,5.88.96,2.02,1.65,4.13,2.41,6.17.45,2.11,1.06,4.16,1.18,6.2.02,2.04.39,4-.06,5.86-.39,1.84-.39,3.62-1.05,5.17-.56,1.56-1.15,2.97-1.68,4.21-.65,1.2-1.42,2.19-1.95,3.02-1.15,1.63-1.81,2.55-1.81,2.55,0,0,.41-1.01,1.12-2.78.35-.88.89-1.9,1.28-3.13.25-1.26.53-2.67.92-4.18.45-1.5.22-3.21.38-4.95.22-1.75-.42-3.6-.5-5.5-.2-1.9-1.02-3.82-1.42-5.8-.76-1.93-1.46-3.91-2.4-5.83-1-1.9-1.84-3.86-3.07-5.67-1.1-1.84-2.23-3.65-3.49-5.34-2.39-3.42-4.86-6.54-7.14-9.13-2.33-2.56-4.21-4.77-5.7-6.2-1.45-1.47-2.28-2.31-2.28-2.31Z"/>
      <path class="st0" d="M275.18,98.96s1.53.66,3.99,2.07c2.45,1.41,5.94,3.49,9.68,6.36,3.74,2.86,7.9,6.41,11.73,10.6,1.87,2.11,3.71,4.36,5.4,6.72,1.49,2.44,3.3,4.82,4.41,7.44l1.82,3.87c.48,1.32.87,2.65,1.3,3.96,1.01,2.6,1.3,5.27,1.66,7.83.56,2.55.27,5.05.19,7.4-.08,1.17-.04,2.32-.2,3.41-.23,1.09-.45,2.14-.67,3.15-.47,2.01-.72,3.88-1.4,5.45-.66,1.57-1.24,2.94-1.72,4.07-1,2.23-1.56,3.5-1.56,3.5,0,0,.31-1.33.84-3.65.29-1.15.64-2.54,1.04-4.14.4-1.59.35-3.45.65-5.42.11-.99.23-2.02.35-3.09.05-1.07-.09-2.18-.13-3.31-.15-2.27-.13-4.66-.75-7.09-.44-2.44-.92-4.96-1.9-7.44-.43-1.25-.86-2.51-1.3-3.77l-1.8-3.68c-1.02-2.51-2.73-4.81-4.11-7.17-1.6-2.27-3.2-4.52-4.93-6.61-1.83-2.04-3.43-4.1-5.28-5.89-1.72-1.86-3.54-3.5-5.22-5.02-3.42-3-6.36-5.47-8.59-7.06-2.18-1.64-3.51-2.51-3.51-2.51Z"/>
      <path class="st0" d="M317.63,128.43s.74.76,1.78,2.22c1,1.47,2.51,3.57,3.73,6.27,1.31,2.68,2.52,5.91,3.39,9.46.25,1.79.82,3.62.83,5.53.15,1.9.24,3.82.08,5.76-.04,1.94-.42,3.85-.78,5.73-.22,1.9-1.06,3.68-1.58,5.44-.46,1.78-1.52,3.36-2.26,4.9-.72,1.56-1.69,2.93-2.57,4.19-.88,1.26-1.61,2.45-2.53,3.38-.88.94-1.65,1.76-2.28,2.44-1.27,1.34-2.04,2.07-2.04,2.07,0,0,.51-.86,1.4-2.37.46-.74,1.02-1.63,1.67-2.66.66-1.02,1.1-2.28,1.82-3.55.67-1.29,1.43-2.68,1.9-4.23.49-1.54,1.26-3.11,1.62-4.82.4-1.7.99-3.42,1.19-5.22.3-1.79.62-3.61.62-5.44.2-1.83.16-3.66.06-5.47,0-1.81-.33-3.58-.47-5.3-.36-1.7-.52-3.38-.92-4.94-.36-1.57-.73-3.05-1.19-4.4-1.63-5.45-3.46-8.98-3.46-8.98Z"/>
      <path class="st0" d="M87.64,205.61s-.88.63-2.24,1.82c-1.3,1.18-2.88,3.05-4.41,5.43-3.06,4.75-5.78,11.5-7.42,18.37-.93,3.43-1.47,6.89-1.98,10.14-.43,3.25-.71,6.3-.91,8.92-.12,2.62-.35,4.83-.31,6.36-.04,1.54-.12,2.43-.12,2.43,0,0-.26-.84-.62-2.34-.37-1.5-.84-3.65-1.14-6.28-.29-2.63-.42-5.73-.25-9.08.19-3.35.7-6.93,1.59-10.49,1.73-7.13,5.22-14.15,9.3-18.81,1.99-2.35,4.2-4.02,5.81-5.08.77-.56,1.53-.79,1.97-1.05.47-.23.72-.35.72-.35Z"/>
      <path class="st0" d="M329.42,202.03s.86.27,2.32.82c.71.31,1.65.52,2.58,1.08.96.51,2.07,1.09,3.25,1.79,1.06.76,2.19,1.6,3.37,2.53,1.08.97,2.18,2.04,3.27,3.17.94,1.19,2.05,2.37,2.93,3.67.82,1.31,1.8,2.6,2.5,3.97,1.49,2.71,2.69,5.48,3.52,8.11.88,2.62,1.41,5.1,1.74,7.21.61,4.25.37,7.05.37,7.05,0,0-.94-2.78-2.51-6.84-.79-2.03-1.71-4.39-2.8-6.87-1.11-2.48-2.31-5.12-3.78-7.66-1.35-2.59-3.07-5.03-4.7-7.31-.92-1.09-1.81-2.15-2.65-3.15-.95-.95-1.85-1.84-2.68-2.67-.93-.72-1.77-1.43-2.52-2.07-.71-.68-1.62-1.07-2.22-1.5-1.27-.8-1.97-1.3-1.97-1.3Z"/>
      <path class="st0" d="M336.75,194.65s2.3.24,5.39,1.41c3.1,1.14,6.81,3.34,9.72,6.1,1.42,1.4,2.68,2.89,3.64,4.37.93,1.49,1.67,2.93,2.07,4.22.52,1.25.59,2.38.75,3.12.12.76.13,1.2.13,1.2,0,0-.34-.37-.84-1.02-.47-.66-1.19-1.57-2.06-2.64-1.68-2.15-3.99-4.9-6.67-7.4-1.3-1.28-2.7-2.49-4.07-3.6-1.37-1.11-2.71-2.11-3.9-2.97-2.35-1.73-4.15-2.8-4.15-2.8Z"/>
      <path class="st0" d="M82.04,120.39s.31-.15.9-.42c.58-.28,1.46-.66,2.61-1.09,2.28-.83,5.7-1.88,9.81-2.32,4.11-.51,8.85-.57,13.75-.17,2.45.2,4.94.5,7.45.85,2.56.41,4.89.67,7.46.67,5.16.03,10.57-.25,15.52.06,2.46.2,4.83.46,6.99.92,2.16.42,4.14,1,5.84,1.66,1.74.63,3.12,1.47,4.38,2.16,1.17.78,2.15,1.49,2.93,2.09,1.4,1.33,2.2,2.1,2.2,2.1,0,0-.93-.65-2.55-1.78-.86-.52-1.92-1.12-3.17-1.76-1.32-.57-2.79-1.21-4.53-1.71-1.7-.55-3.65-.99-5.77-1.28-2.11-.33-4.43-.45-6.84-.52-2.43-.02-4.94-.02-7.55.09-2.6.1-5.27.22-7.96.2-2.71.02-5.53-.24-7.88-.67-2.45-.39-4.89-.68-7.25-.95-4.74-.49-9.22-.76-13.15-.55-3.92.22-7.24.79-9.56,1.39-2.3.6-3.63,1.04-3.63,1.04Z"/>
      <path class="st0" d="M201.99,106.74s.4.19,1.15.56c.73.39,1.89.84,3.21,1.64,2.68,1.55,6.58,3.73,10.73,6.87,2.16,1.49,4.26,3.32,6.61,5.15,2.17,1.96,4.65,3.92,6.78,6.22,2.28,2.21,4.44,4.62,6.52,7.12,2.04,2.52,3.99,5.15,5.74,7.84,1.66,2.73,3.3,5.47,4.46,8.28,1.46,2.75,2.11,5.59,2.99,8.28.76,2.71.93,5.36,1.3,7.83-.06,2.46-.04,4.79-.17,6.91-.37,2.08-.8,3.97-1.18,5.63-.35,1.67-1.15,2.98-1.55,4.13-.99,2.23-1.55,3.5-1.55,3.5,0,0,.3-1.35.84-3.72.22-1.19.79-2.55.87-4.24.1-1.69.22-3.58.44-5.61-.07-2.08-.3-4.34-.45-6.71-.59-2.39-1-4.9-1.8-7.47-.94-2.56-1.74-5.23-3.15-7.85-1.14-2.67-2.76-5.27-4.38-7.88-1.64-2.59-3.48-5.14-5.41-7.58-1.99-2.42-3.91-4.83-6.06-7.02-4.12-4.47-8.34-8.47-12.24-11.68-3.85-3.26-7.26-5.84-9.74-7.55-2.49-1.72-3.98-2.65-3.98-2.65Z"/>
      <path class="st0" d="M319.69,193.08s1.75-1.82,3.77-4.7c1.04-1.43,2.12-3.13,3.18-4.96.98-1.85,2.04-3.82,2.72-5.86.45-1,.7-2.03,1.01-3.03.34-1,.47-2.01.71-2.97.25-.97.26-1.91.42-2.81.15-.9.16-1.75.18-2.53,0-.79.12-1.52.08-2.16-.04-.64-.07-1.21-.09-1.67-.02-.94-.03-1.47-.03-1.47,0,0,.23.51.55,1.42.31.91.86,2.22,1.05,3.83.15.8.32,1.68.29,2.6-.02.92.13,1.91-.06,2.92-.17,1.01-.15,2.07-.5,3.11-.29,1.05-.52,2.12-.96,3.17-.39,1.05-.86,2.09-1.4,3.1-.47,1.02-1.16,1.98-1.74,2.92-1.27,1.85-2.66,3.52-4.04,4.87-2.71,2.73-5.14,4.22-5.14,4.22Z"/>
      <path class="st0" d="M244.18,86.32s1.42-.3,3.89-.53c2.45-.17,6.01-.5,10.1-.24,4.11.18,8.85.68,13.68,1.75,4.82,1.09,9.76,2.69,14.28,4.87,2.35.97,4.35,2.38,6.49,3.57,2.13,1.19,3.83,2.8,5.68,4.12,1.83,1.35,3.19,3.03,4.66,4.44,1.51,1.39,2.56,2.99,3.67,4.36,1.05,1.41,2.14,2.61,2.75,3.92.68,1.25,1.28,2.34,1.77,3.24.93,1.81,1.47,2.84,1.47,2.84,0,0-.76-.89-2.09-2.44-.64-.78-1.42-1.74-2.32-2.83-.83-1.13-2.14-2.13-3.28-3.42-1.24-1.22-2.43-2.66-4.07-3.86-1.6-1.22-3.11-2.67-4.93-3.92-1.86-1.21-3.64-2.6-5.69-3.74-2.08-1.1-4.03-2.43-6.31-3.33-2.17-1.05-4.38-2.05-6.7-2.82-2.24-.89-4.58-1.57-6.83-2.23-4.56-1.23-8.94-2.24-12.87-2.7-7.78-1.14-13.35-1.04-13.35-1.04Z"/>
      <path class="st0" d="M287.66,178.06s.61-.63,1.29-1.88c.74-1.23,1.62-3.04,2.49-5.24,1.81-4.38,3.36-10.37,4.06-16.44.36-3.04.44-6.08.51-8.96-.09-2.87-.13-5.56-.34-7.87-.1-2.32-.34-4.26-.48-5.62-.13-1.36-.15-2.16-.15-2.16,0,0,.35.73.89,2.05.47,1.32,1.4,3.18,1.93,5.5.71,2.31,1.17,5.05,1.53,8,.08,1.48.19,3.02.21,4.58-.09,1.56-.18,3.15-.27,4.73-.47,3.16-1.05,6.32-2.15,9.19-.98,2.89-2.33,5.49-3.69,7.62-1.31,2.16-2.85,3.78-3.89,4.9-1.07,1.13-1.93,1.58-1.93,1.58Z"/>
      <path class="st0" d="M223.79,88.05s1.38-.17,3.93.19c2.46.33,5.94.94,9.98,1.98,3.98,1.09,8.61,2.48,13.22,4.39,4.69,1.83,9.36,4.15,13.8,6.67,4.33,2.61,8.53,5.35,11.87,8.28,1.77,1.4,3.32,2.85,4.66,4.28,1.4,1.4,2.7,2.73,3.65,4.07,2.16,2.57,3.47,4.86,4.35,6.47.9,1.6,1.34,2.53,1.34,2.53,0,0-.88-.79-2.29-2.18-.69-.7-1.53-1.54-2.49-2.52-1.08-.92-2.3-1.94-3.54-3.09-1.21-1.17-2.76-2.3-4.28-3.55-1.49-1.27-3.23-2.51-5.02-3.79-1.71-1.33-3.71-2.55-5.65-3.85-1.89-1.33-4.06-2.51-6.13-3.75-4.17-2.47-8.59-4.73-12.85-6.76-4.23-2.07-8.4-3.75-11.97-5.25-3.64-1.38-6.68-2.61-8.94-3.23-2.15-.71-3.62-.89-3.62-.89Z"/>
      <path class="st0" d="M336.24,235.05s.64.19,1.7.57c1.06.39,2.59.89,4.25,1.89.89.45,1.78.99,2.59,1.65.86.63,1.8,1.29,2.55,2.11,1.68,1.54,3.1,3.41,4.22,5.37,1.1,1.97,1.85,4.03,2.28,5.99.41,1.96.54,3.81.43,5.38-.19,3.16-1.1,5.15-1.1,5.15,0,0-.28-2.08-1.09-5.03-.37-1.48-.9-3.17-1.53-4.94-.7-1.76-1.44-3.63-2.5-5.38-.94-1.8-2.16-3.49-3.43-5.02-1.26-1.52-2.59-2.94-3.85-4.01-1.19-1.13-2.37-2.09-3.24-2.69-.83-.64-1.28-1.04-1.28-1.04Z"/>
      <path class="st0" d="M345.27,267.43s-1.03-.52-2.6-1.69c-1.55-1.17-3.66-2.96-5.77-5.36-1.04-1.2-2.14-2.53-3.1-4.01-1.08-1.44-1.91-3.06-2.86-4.71-.75-1.69-1.71-3.41-2.3-5.23-.6-1.81-1.31-3.64-1.7-5.5-.92-3.7-1.41-7.43-1.5-10.89-.17-3.47.1-6.66.46-9.37.23-2.73,1.01-4.91,1.28-6.47.37-1.55.63-2.42.63-2.42,0,0,.04.92.1,2.52.06,1.6-.04,3.86.16,6.58.07,1.35.14,2.82.22,4.37.08,1.55.37,3.18.49,4.87.08,1.69.51,3.42.76,5.18.21,1.77.68,3.54,1.13,5.32.77,3.56,2.1,7.05,3.39,10.31.83,1.58,1.4,3.19,2.27,4.61.78,1.46,1.6,2.81,2.41,4.04,3.21,4.97,6.54,7.83,6.54,7.83Z"/>
      <path class="st0" d="M341.96,278.07s1.66,1.95,3.16,5.19c1.53,3.22,2.65,7.69,2.69,12.07-.02,2.18-.25,4.33-.71,6.28-.5,1.94-1.09,3.7-1.86,5.11-.64,1.45-1.52,2.52-2.03,3.29-.55.76-.91,1.17-.91,1.17,0,0,.05-.54.21-1.45.2-.89.42-2.17.63-3.71.5-3.04.98-7.07.91-11.17.03-2.04-.11-4.11-.3-6.05-.18-1.95-.45-3.78-.72-5.36-.49-3.17-1.09-5.36-1.09-5.36Z"/>
      <path class="st0" d="M336.91,179.35s1.99-.24,4.88.38c1.42.32,3.06.83,4.63,1.63,1.62.74,3.08,1.81,4.47,2.92,1.27,1.19,2.41,2.45,3.23,3.73.81,1.28,1.4,2.53,1.72,3.63.43,1.07.4,2.05.54,2.69.08.65.07,1.03.07,1.03,0,0-.32-.3-.77-.85-.45-.54-1.06-1.32-1.86-2.2-.74-.9-1.64-1.9-2.59-2.96-1.01-1.03-2.05-2.11-3.21-3.12-2.29-2.02-4.94-3.78-7.15-4.98-2.19-1.23-3.95-1.91-3.95-1.91Z"/>
      <path class="st0" d="M60.95,279.31s-.15.66-.5,1.79c-.32,1.12-.6,2.7-.91,4.58-.59,3.77-.96,8.71-.85,13.56.04,4.87.57,9.63,1.11,13.2.31,1.77.46,3.31.73,4.32.21,1.04.29,1.67.29,1.67,0,0-1.55-1.85-3.04-5.16-1.46-3.31-2.63-8.14-2.7-13.25-.09-5.1.92-10.43,2.46-14.37.73-1.96,1.66-3.58,2.27-4.68.69-1.07,1.13-1.67,1.13-1.67Z"/>
      <path class="st0" d="M162.66,194.65s.29-1.1.65-3.01c.39-1.91.67-4.66.83-7.94.03-1.64.05-3.41-.15-5.27-.19-1.86-.48-3.81-.97-5.79-.28-2.02-1.29-3.96-1.9-6.01-1.1-1.92-1.78-4.02-3.3-5.81l-1.97-2.8-2.45-2.53c-1.49-1.77-3.57-3.1-5.34-4.57-1.76-1.49-3.98-2.48-5.8-3.7-1.81-1.25-3.95-1.94-5.75-2.81-1.86-.77-3.46-1.68-5.09-2.15-1.59-.55-2.98-1.02-4.12-1.41-2.29-.82-3.6-1.3-3.6-1.3,0,0,1.4.27,3.84.75,1.22.26,2.71.58,4.41.94,1.76.28,3.54.99,5.54,1.68,1.95.76,4.26,1.33,6.31,2.49,2.05,1.13,4.55,2.01,6.51,3.56,1.97,1.51,4.36,2.83,5.99,4.74l2.71,2.72,2.2,3.01c1.59,1.97,2.31,4.24,3.43,6.33.65,2.2,1.5,4.34,1.7,6.48.44,2.12.46,4.18.43,6.13-.02,1.94-.26,3.78-.49,5.45-.51,3.36-1.55,6.07-2.25,7.94-.77,1.87-1.38,2.88-1.38,2.88Z"/>
      <path class="st0" d="M70.71,142.93s2.92-1.21,7.65-2.17c2.36-.48,5.17-.88,8.22-1.07,3.05-.23,6.33-.18,9.6.07,3.26.33,6.52.78,9.45,1.62,1.48.36,2.88.79,4.16,1.3,1.29.48,2.52.91,3.55,1.49,2.15,1,3.74,2.07,4.82,2.85,1.09.76,1.66,1.22,1.66,1.22,0,0-.78-.23-2.07-.68-.64-.23-1.41-.51-2.29-.82-.93-.24-1.97-.51-3.06-.85-1.08-.36-2.34-.57-3.61-.9-1.26-.34-2.65-.55-4.06-.81-1.4-.31-2.89-.44-4.38-.66-1.48-.26-3.03-.33-4.56-.48-3.07-.3-6.17-.39-9.09-.45-2.92-.04-5.66,0-8.03.04-4.74.08-7.97.3-7.97.3Z"/>
      <path class="st0" d="M143.42,196.92s-1.6-.27-4.41-.75c-1.41-.23-3.04-.62-4.93-1.09-1.93-.43-4.03-1.01-6.19-1.74-4.41-1.4-9.38-3.2-14.55-5.16-2.56-1.01-5.3-1.92-8.01-2.9-2.77-.91-5.61-1.78-8.57-2.45-2.95-.66-5.94-1.33-9.05-1.56-3.05-.41-6.18-.42-9.21-.52-3.05.2-6.04.14-8.86.49-2.82.38-5.56.51-7.99,1.05-2.45.47-4.73.84-6.76,1.18-1.99.45-3.72.84-5.15,1.16-2.9.62-4.55.97-4.55.97,0,0,1.53-.54,4.22-1.5,1.36-.46,3.02-1.02,4.92-1.67,1.96-.55,4.21-1.15,6.69-1.75,2.44-.7,5.28-1.02,8.21-1.59,2.94-.55,6.18-.73,9.48-.99,3.3.01,6.79-.15,10.17.3,1.73.13,3.43.32,5.06.65,1.64.31,3.38.51,4.92.96,12.88,3.11,22.43,8.69,30.57,11.86,4.04,1.65,7.38,2.98,9.99,3.76,2.54.83,3.99,1.3,3.99,1.3Z"/>
      <path class="st0" d="M49.35,230.15s.44.68,1.09,1.95c.51,1.37,1.22,3.47,1.47,5.9.65,4.92.32,11.14-.03,17.18-.4,6.04-.64,12.01-.35,16.6.03,1.15.18,2.2.26,3.14.06.95.19,1.78.35,2.45.25,1.36.36,2.18.36,2.18,0,0-.36-.72-.93-2.05-.3-.66-.61-1.49-.89-2.45-.3-.96-.69-2.06-.89-3.27-.54-2.42-.94-5.28-1.05-8.27-.18-3.01-.07-6.13.08-9.22.38-6.15,1.21-12.04,1.35-16.52.1-2.26-.02-4.11-.24-5.45-.36-1.38-.56-2.17-.56-2.17Z"/>
      <path class="st0" d="M151.13,140.61s1.01.41,2.77,1.13c.96.27,1.81.95,2.9,1.56,1.11.59,2.17,1.47,3.4,2.37,1.27.85,2.43,1.99,3.71,3.15,1.32,1.11,2.44,2.55,3.82,3.82,2.55,2.75,5.22,5.72,7.77,8.82,2.63,3.02,5.17,6.15,7.71,8.96,2.5,2.84,5.05,5.32,7.34,7.37,2.27,2.06,4.56,3.44,6.38,4.14.8.47,1.76.43,2.29.53.55.07.85.1.85.1,0,0-.26-.1-.74-.28-.47-.2-1.22-.35-1.89-.94-1.55-.92-3.21-2.8-5.17-5.05-1.99-2.24-3.99-5.14-6.29-8.12-2.26-3.01-4.76-6.18-7.35-9.28-2.64-3.06-5.4-6.04-8.25-8.61-1.47-1.25-2.83-2.5-4.35-3.49-1.48-1.02-2.82-2.03-4.27-2.75-1.37-.81-2.68-1.48-4.03-1.88-1.31-.43-2.34-.94-3.39-1.04-2.02-.33-3.18-.52-3.18-.52Z"/>
      <path class="st0" d="M208.51,197.08s.37-2.53,1.3-6.23c.89-3.69,2.42-8.5,2.32-13.23.05-1.18-.09-2.36-.27-3.52-.21-1.15-.42-2.29-.78-3.38-.65-2.19-1.58-4.19-2.41-5.92-.93-1.7-1.61-3.18-2.27-4.15-.58-1-.88-1.61-.88-1.61,0,0,.57.45,1.51,1.3.94.84,2.24,2.08,3.6,3.69,1.32,1.63,2.71,3.64,3.69,5.98.5,1.17.96,2.39,1.2,3.68.24,1.28.46,2.6.44,3.92.06,5.33-2.24,10.25-4.05,13.73-1.9,3.48-3.4,5.74-3.4,5.74Z"/>
      <path class="st0" d="M58.01,271.21s.24-.92.65-2.53c.15-.81.25-1.82.4-2.93.05-1.16.11-2.46.17-3.88.09-5.73-.67-13.52-.67-21.3,0-1.94.06-3.88.15-5.79.03-1.91.34-3.76.5-5.57.54-3.58,1.37-6.85,2.45-9.52.47-1.36,1.06-2.55,1.73-3.53.61-1.01,1.11-1.89,1.71-2.53,1.12-1.31,1.79-2.01,1.79-2.01,0,0-.4.86-1.11,2.35-.73,1.47-1.44,3.7-2.03,6.42-.38,1.33-.55,2.86-.76,4.45-.25,1.58-.21,3.33-.44,5.07-.12,3.56-.27,7.36-.19,11.22-.04,3.84.04,7.72-.1,11.34-.06,3.63-.51,6.98-.91,9.84-.44,2.85-1.36,5.13-2.01,6.65-.87,1.43-1.36,2.24-1.36,2.24Z"/>
      <path class="st0" d="M41.55,223.79s.03-.58.14-1.57c.12-.98.23-2.39.8-4.05.22-.86.53-1.75.97-2.6.4-.89.81-1.85,1.43-2.7,1.08-1.82,2.55-3.52,4.18-4.99,1.64-1.46,3.45-2.67,5.25-3.57,1.8-.89,3.56-1.52,5.11-1.87,3.1-.73,5.25-.54,5.25-.54,0,0-1.94.82-4.6,2.32-1.34.72-2.85,1.64-4.41,2.65-1.53,1.08-3.16,2.21-4.6,3.58-1.51,1.28-2.86,2.77-4.03,4.25-1.17,1.47-2.23,2.97-2.95,4.31-.81,1.3-1.46,2.54-1.82,3.43-.42.87-.7,1.35-.7,1.35Z"/>
      <path class="st0" d="M205.88,174.72s-2.03-2.45-4.81-6.2c-2.79-3.73-6.25-8.76-10.42-12.96-1.01-1.09-2.11-2.08-3.2-3.03-1.11-.94-2.2-1.86-3.33-2.67-2.22-1.66-4.41-3.02-6.32-4.19-1.93-1.09-3.55-2.1-4.72-2.67-1.16-.63-1.82-1.03-1.82-1.03,0,0,.67.14,1.86.46,1.19.31,2.89.82,4.96,1.63,2.06.85,4.48,2,6.99,3.64,1.26.81,2.55,1.7,3.79,2.74,1.23,1.03,2.49,2.12,3.63,3.31,4.68,4.76,7.87,10.25,10.03,14.22,2.13,4.01,3.38,6.74,3.38,6.74Z"/>
      <path class="st0" d="M195.07,194.48s-1.58-1.18-4.12-2.68c-2.51-1.51-6.01-3.28-8.49-5.94-.67-.62-1.21-1.36-1.72-2.1-.49-.76-.98-1.51-1.34-2.32-.79-1.58-1.3-3.23-1.73-4.67-.35-1.48-.74-2.69-.87-3.61-.19-.89-.33-1.4-.33-1.4,0,0-.1.58-.21,1.6-.12,1.01-.23,2.46-.18,4.14.08,1.67.33,3.59.99,5.45.33.93.7,1.88,1.25,2.73.54.85,1.12,1.7,1.84,2.42,2.82,2.97,6.84,4.35,9.79,5.21,3.01.82,5.12,1.19,5.12,1.19Z"/>
      <path class="st0" d="M108.27,111.26s4.48-2.36,11.41-4.5c3.45-.96,7.52-2.11,11.84-2.67,2.17-.33,4.4-.58,6.65-.6,2.27-.18,4.5.06,6.76.13,2.23.21,4.4.69,6.54,1.08,2.04.69,4.12,1.21,5.94,2.14,1.77,1.02,3.64,1.71,5.01,3.04,1.39,1.27,2.91,2.18,3.91,3.54,1.06,1.28,1.97,2.51,2.76,3.59.7,1.17,1.16,2.34,1.6,3.22.81,1.82,1.28,2.86,1.28,2.86,0,0-.66-.87-1.82-2.38-.58-.74-1.18-1.74-2.04-2.7-.96-.86-2.03-1.81-3.12-2.92-1.07-1.15-2.65-1.83-4.07-2.85-1.39-1.08-3.31-1.48-4.99-2.37-1.74-.8-3.8-1.07-5.71-1.73-2.05-.33-4.11-.74-6.24-.91-2.15-.11-4.26-.39-6.44-.25-2.15,0-4.28.05-6.37.28-4.16.31-8.1.85-11.5,1.48-3.39.7-6.25,1.19-8.24,1.74-2,.5-3.15.78-3.15.78Z"/>
      <path class="st0" d="M304.66,152.25s.25.52.41,1.57c.16,1.01.33,2.46.38,4.19.02,1.71-.01,3.72-.28,5.8-.22,2.09-.65,4.25-1.21,6.35-.6,2.06-1.28,4.09-2.15,5.81-.39.89-.83,1.7-1.3,2.43-.44.74-.86,1.44-1.33,2-.86,1.21-1.7,2.04-2.3,2.61-.59.58-.94.88-.94.88,0,0,.24-.46.67-1.2.22-.37.49-.82.79-1.33.27-.55.57-1.17.92-1.82.36-.64.67-1.4,1.02-2.18.37-.76.7-1.62,1.04-2.5.37-.86.66-1.81.98-2.75.35-.93.59-1.94.88-2.93.56-1.98,1.01-4.03,1.36-5.98.38-1.95.6-3.82.81-5.43.15-1.62.31-2.98.3-3.96.04-.94-.06-1.54-.06-1.54Z"/>
      <path class="st0" d="M191.92,84.89s.88-.2,2.54.01c1.6.19,3.87.58,6.52,1.31,2.62.78,5.66,1.79,8.73,3.24,3.11,1.38,6.23,3.18,9.22,5.15,2.92,2.05,5.75,4.22,8.05,6.59,1.21,1.12,2.28,2.29,3.21,3.46.97,1.14,1.87,2.22,2.55,3.32,1.51,2.1,2.48,4,3.12,5.33.66,1.32.98,2.09.98,2.09,0,0-.61-.63-1.58-1.77-.48-.57-1.06-1.25-1.73-2.04-.74-.74-1.58-1.56-2.43-2.49-.83-.94-1.89-1.85-2.93-2.86-1.02-1.02-2.2-2.01-3.42-3.03-1.17-1.07-2.51-2.03-3.83-3.05-1.28-1.06-2.74-1.98-4.13-2.95-2.81-1.94-5.77-3.7-8.61-5.26-2.82-1.6-5.6-2.87-7.97-4.01-2.41-1.04-4.43-1.96-5.92-2.41-1.42-.52-2.37-.62-2.37-.62Z"/>
      <path class="st0" d="M196.51,115.33s-2.03-2.45-4.81-6.2c-2.79-3.73-6.25-8.76-10.42-12.96-1.01-1.09-2.11-2.08-3.2-3.03-1.11-.94-2.2-1.86-3.33-2.67-2.22-1.66-4.41-3.02-6.32-4.19-1.93-1.09-3.55-2.1-4.72-2.67-1.16-.63-1.82-1.03-1.82-1.03,0,0,.67.14,1.86.46,1.19.31,2.89.82,4.96,1.63,2.06.85,4.48,2,6.99,3.64,1.26.81,2.55,1.7,3.79,2.74,1.23,1.03,2.49,2.12,3.63,3.31,4.68,4.76,7.87,10.25,10.03,14.22,2.13,4.01,3.38,6.74,3.38,6.74Z"/>
      <path class="st0" d="M243.08,112.14s.56.12,1.48.65c.9.5,2.14,1.26,3.53,2.29,1.36,1.04,2.92,2.31,4.38,3.8,1.51,1.47,2.94,3.14,4.24,4.87,1.25,1.75,2.42,3.54,3.24,5.28.46.86.82,1.71,1.1,2.52.31.81.6,1.57.75,2.28.42,1.42.55,2.6.63,3.42.09.82.11,1.28.11,1.28,0,0-.21-.47-.53-1.27-.15-.4-.34-.89-.55-1.45-.27-.55-.57-1.17-.87-1.85-.28-.68-.69-1.39-1.08-2.15-.37-.76-.84-1.55-1.32-2.36-.44-.82-1.02-1.64-1.56-2.48-.51-.85-1.16-1.67-1.76-2.5-1.21-1.67-2.55-3.28-3.86-4.77-1.3-1.5-2.63-2.83-3.77-3.99-1.18-1.12-2.15-2.09-2.93-2.69-.71-.62-1.25-.9-1.25-.9Z"/>
    </g>
  </g>
</svg>