<?xml version="1.0" encoding="UTF-8"?>
<svg id="Layer_1" xmlns="http://www.w3.org/2000/svg" version="1.1" viewBox="0 0 400 600">
  <!-- Generator: Adobe Illustrator 29.5.1, SVG Export Plug-In . SVG Version: 2.1.0 Build 141)  -->
  <defs>
    <style>
      .st0 {
        fill: #fff;
      }

      .st1 {
        opacity: .4;
      }

      .st2 {
        fill: #151812;
      }
    </style>
  </defs>
  <g id="hair_10">
    <path id="hair" class="st2" d="M49.55,261.56c-1.02-2.83-4.46-46.43,9.45-87.7,1.76-6.57,4.63-13.56,9.01-20.97.08-.13.19-.32.27-.46,2.06-3.83,4.37-7.67,6.91-11.49,12.31-19.85,34.54-51.77,55.94-55.51,5.95-1.04,16.51-.88,24.37,9.79,0,0,9.72-32.49,54.42-32.49s82.09,29.37,105.37,54.2c8.75,8.54,15.82,17.41,21.53,26.35.05.07.11.15.16.22,1.61,2.54,3.04,4.96,4.38,7.38.28.54.58,1.08.84,1.62,26.48,49.42,14.29,98.18,13.09,101.48-6.11,16.88-6.28,14.36-19.35,12.84s-33.28-17.7-34.03-20.18c.14.46-37.37-5.1-71.3-26.07-11.57-7.15-21.1-17.66-32.05-25.9,10.93,18.99,18.43,23.83,33.18,37.41,2.75,2.53,22.2,16.81,25.22,19.17-3.41-.16-6.74-.46-10.01-.84-.12-.01-.24-.04-.37-.05-3.18-.38-6.29-.87-9.34-1.44-40-7.54-68.89-31.2-88.89-55.9-14.46,26.94-44.15,38.36-53.16,47.41-.61,2.14-12.09,17.48-24.17,21.13s-21.46,0-21.46,0Z"/>
    <g id="details" class="st1">
      <path class="st0" d="M253.24,210.23s4.24-.65,10.4-.44c3.04.19,6.63.4,10.28,1.16,1.84.34,3.71.77,5.54,1.37,1.88.49,3.63,1.31,5.44,2,1.75.79,3.38,1.78,5.01,2.7,1.47,1.13,3.02,2.13,4.24,3.39,1.16,1.32,2.5,2.39,3.26,3.85.79,1.41,1.79,2.57,2.24,3.94.52,1.33.94,2.57,1.3,3.67.26,1.14.33,2.21.46,3.04.18,1.69.29,2.66.29,2.66,0,0-.31-.88-.85-2.43-.27-.76-.5-1.73-.95-2.74-.55-.96-1.17-2.03-1.77-3.23-.56-1.22-1.67-2.21-2.55-3.44-.85-1.26-2.3-2.12-3.42-3.31-1.2-1.13-2.8-1.93-4.17-2.99-1.57-.84-3.13-1.75-4.81-2.48-1.71-.69-3.35-1.5-5.15-2-1.74-.6-3.47-1.15-5.23-1.56-3.45-.91-6.78-1.58-9.69-2.02-2.93-.39-5.36-.79-7.12-.91-1.75-.16-2.75-.25-2.75-.25Z"/>
      <path class="st0" d="M134.28,111.43s4.24-.65,10.4-.44c3.04.19,6.63.4,10.28,1.16,1.84.34,3.71.77,5.54,1.37,1.88.49,3.63,1.31,5.44,2,1.75.79,3.38,1.78,5.01,2.7,1.47,1.13,3.02,2.13,4.24,3.39,1.16,1.32,2.5,2.39,3.26,3.85.79,1.41,1.79,2.57,2.24,3.94.52,1.33.94,2.57,1.3,3.67.26,1.14.33,2.21.46,3.04.18,1.69.29,2.66.29,2.66,0,0-.31-.88-.85-2.43-.27-.76-.5-1.73-.95-2.74-.55-.96-1.17-2.03-1.77-3.23-.56-1.22-1.67-2.21-2.55-3.44-.85-1.26-2.3-2.12-3.42-3.31-1.2-1.13-2.8-1.93-4.17-2.99-1.57-.84-3.13-1.75-4.81-2.48-1.71-.69-3.35-1.5-5.15-2-1.74-.6-3.47-1.15-5.23-1.56-3.45-.91-6.78-1.58-9.69-2.02-2.93-.39-5.36-.79-7.12-.91-1.75-.16-2.75-.25-2.75-.25Z"/>
      <path class="st0" d="M159.49,104.53s4.24-.65,10.4-.44c3.04.19,6.63.4,10.28,1.16,1.84.34,3.71.77,5.54,1.37,1.88.49,3.63,1.31,5.44,2,1.75.79,3.38,1.78,5.01,2.7,1.47,1.13,3.02,2.13,4.24,3.39,1.16,1.32,2.5,2.39,3.26,3.85.79,1.41,1.79,2.57,2.24,3.94.52,1.33.94,2.57,1.3,3.67.26,1.14.33,2.21.46,3.04.18,1.69.29,2.66.29,2.66,0,0-.31-.88-.85-2.43-.27-.76-.5-1.73-.95-2.74-.55-.96-1.17-2.03-1.77-3.23-.56-1.22-1.67-2.21-2.55-3.44-.85-1.26-2.3-2.12-3.42-3.31-1.2-1.13-2.8-1.93-4.17-2.99-1.57-.84-3.13-1.75-4.81-2.48-1.71-.69-3.35-1.5-5.15-2-1.74-.6-3.47-1.15-5.23-1.56-3.45-.91-6.78-1.58-9.69-2.02-2.93-.39-5.36-.79-7.12-.91-1.75-.16-2.75-.25-2.75-.25Z"/>
      <path class="st0" d="M290.31,175.36s1.29.57,3.36,1.79c2.06,1.22,5,3,8.15,5.48,3.15,2.47,6.65,5.52,9.87,9.13,1.57,1.82,3.13,3.75,4.54,5.79,1.25,2.1,2.77,4.15,3.71,6.41l1.53,3.33c.41,1.13.73,2.28,1.09,3.41.85,2.24,1.09,4.54,1.39,6.74.47,2.19.23,4.35.16,6.37-.06,1.01-.04,2-.17,2.94-.19.94-.38,1.85-.56,2.72-.39,1.73-.61,3.34-1.18,4.7-.56,1.35-1.05,2.53-1.45,3.5-.84,1.92-1.32,3.02-1.32,3.02,0,0,.26-1.14.71-3.14.24-.99.54-2.19.88-3.56.34-1.37.29-2.97.55-4.67.09-.85.19-1.74.29-2.66.04-.92-.08-1.87-.11-2.85-.13-1.95-.11-4.01-.63-6.1-.37-2.11-.77-4.27-1.6-6.41-.36-1.07-.73-2.16-1.09-3.25l-1.52-3.17c-.86-2.17-2.3-4.14-3.46-6.18-1.35-1.96-2.69-3.89-4.15-5.69-1.54-1.75-2.89-3.53-4.44-5.07-1.45-1.6-2.98-3.02-4.39-4.33-2.88-2.58-5.35-4.71-7.24-6.08-1.83-1.41-2.96-2.16-2.96-2.16Z"/>
      <path class="st0" d="M334.45,203.03s.63.66,1.5,1.91c.84,1.26,2.11,3.07,3.14,5.4,1.1,2.31,2.12,5.09,2.85,8.15.21,1.54.69,3.12.7,4.76.13,1.63.2,3.29.07,4.96-.03,1.67-.36,3.31-.66,4.93-.19,1.64-.89,3.17-1.33,4.69-.39,1.53-1.28,2.89-1.9,4.22-.6,1.34-1.43,2.52-2.16,3.61-.74,1.09-1.36,2.11-2.13,2.91-.74.81-1.39,1.52-1.92,2.1-1.07,1.15-1.72,1.78-1.72,1.78,0,0,.43-.74,1.18-2.04.39-.64.86-1.41,1.4-2.29.56-.87.92-1.96,1.53-3.06.57-1.11,1.2-2.31,1.6-3.64.41-1.33,1.06-2.68,1.36-4.15.34-1.46.83-2.94,1-4.5.25-1.54.52-3.11.52-4.69.17-1.58.13-3.16.05-4.71,0-1.56-.28-3.08-.4-4.57-.31-1.47-.43-2.91-.77-4.26-.3-1.35-.62-2.63-1-3.79-1.37-4.69-2.92-7.73-2.92-7.73Z"/>
      <path class="st0" d="M194.63,208.01s.2.9.68,2.36c.49,1.41,1.43,3.28,2.79,5.28,2.71,4,7.12,8.43,11.99,12.07,2.39,1.9,4.94,3.51,7.33,5.03,2.42,1.46,4.73,2.72,6.73,3.79,2.02,1,3.69,1.94,4.91,2.43,1.2.57,1.88.93,1.88.93,0,0-.75-.09-2.05-.33-1.3-.23-3.16-.61-5.34-1.29-2.17-.68-4.66-1.66-7.24-2.95-2.57-1.3-5.23-2.94-7.74-4.85-5.04-3.79-9.4-8.91-11.7-13.67-1.18-2.35-1.75-4.63-2.04-6.24-.18-.78-.11-1.45-.16-1.88-.02-.44-.03-.67-.03-.67Z"/>
      <path class="st0" d="M193.55,171.87s.3.06.87.16c.57.1,1.4.28,2.45.57,2.08.58,5.08,1.6,8.26,3.42,3.21,1.77,6.64,4.22,9.93,7.07,1.65,1.43,3.27,2.95,4.87,4.53,1.61,1.64,3.13,3.05,4.97,4.4,3.67,2.72,7.7,5.35,11.07,8.17,1.65,1.44,3.21,2.87,4.51,4.33,1.32,1.45,2.43,2.9,3.29,4.28.91,1.38,1.45,2.72,1.98,3.88.42,1.19.74,2.23.98,3.08.29,1.72.45,2.7.45,2.7,0,0-.32-.96-.88-2.65-.34-.83-.78-1.83-1.32-2.96-.64-1.11-1.35-2.35-2.33-3.63-.92-1.3-2.08-2.64-3.44-3.97-1.33-1.35-2.93-2.65-4.61-3.97-1.73-1.29-3.52-2.61-5.45-3.89-1.91-1.29-3.88-2.6-5.8-4.02-1.95-1.41-3.82-3.07-5.28-4.62-1.54-1.57-3.14-3.06-4.68-4.5-3.12-2.84-6.19-5.39-9.11-7.29-2.92-1.89-5.61-3.21-7.58-3.98-1.97-.76-3.16-1.14-3.16-1.14Z"/>
      <path class="st0" d="M340.59,261.62s1.48-1.57,3.18-4.05c.88-1.23,1.79-2.69,2.67-4.27.83-1.59,1.72-3.29,2.29-5.05.38-.86.59-1.75.85-2.61.29-.86.4-1.73.6-2.56.21-.83.22-1.65.35-2.42.13-.77.13-1.5.15-2.18,0-.68.1-1.31.07-1.86-.03-.56-.06-1.04-.08-1.44-.01-.81-.02-1.27-.02-1.27,0,0,.19.44.47,1.23.26.79.72,1.91.89,3.3.13.69.27,1.44.24,2.24-.01.8.11,1.65-.05,2.51-.14.87-.13,1.78-.42,2.68-.24.9-.44,1.83-.81,2.73-.33.91-.72,1.8-1.18,2.67-.39.88-.98,1.7-1.46,2.51-1.07,1.6-2.24,3.03-3.4,4.2-2.29,2.35-4.33,3.64-4.33,3.64Z"/>
      <path class="st0" d="M324.14,164.29s1.08.57,2.8,1.75c1.68,1.21,4.16,2.92,6.66,5.3,2.56,2.34,5.34,5.23,7.87,8.55,2.51,3.32,4.82,7.05,6.53,10.93.98,1.91,1.5,3.92,2.22,5.86.72,1.94.93,3.91,1.39,5.79.44,1.88.39,3.72.56,5.45.21,1.73,0,3.36-.04,4.86-.1,1.5-.06,2.88-.39,4.07-.25,1.2-.47,2.24-.64,3.09-.4,1.7-.62,2.67-.62,2.67,0,0,0-1,0-2.74.02-.86.04-1.91.07-3.12.09-1.2-.2-2.56-.23-4.04-.12-1.48-.1-3.07-.49-4.75-.36-1.67-.53-3.45-1.02-5.25-.53-1.8-.91-3.68-1.61-5.54-.73-1.85-1.26-3.78-2.24-5.61-.82-1.87-1.69-3.72-2.77-5.48-.96-1.8-2.09-3.51-3.18-5.17-2.27-3.27-4.53-6.31-6.82-8.73-4.39-4.96-8.05-7.89-8.05-7.89Z"/>
      <path class="st0" d="M334.06,163.08s-.15-.74-.7-1.82c-.51-1.12-1.35-2.62-2.48-4.31-2.2-3.42-5.67-7.46-9.6-10.95-1.96-1.76-4.07-3.32-6.06-4.79-2.06-1.36-3.97-2.67-5.71-3.67-1.68-1.08-3.16-1.88-4.19-2.46-1.02-.59-1.59-.96-1.59-.96,0,0,.69.12,1.87.41,1.15.33,2.92.62,4.81,1.4,1.97.65,4.12,1.7,6.38,2.92,1.08.68,2.22,1.37,3.32,2.13,1.06.84,2.13,1.69,3.2,2.54,1.99,1.89,3.94,3.86,5.42,6.04,1.56,2.1,2.73,4.33,3.57,6.32.88,1.97,1.28,3.84,1.56,5.11.28,1.29.18,2.11.18,2.11Z"/>
      <path class="st0" d="M162.69,133.19s-.74-.12-1.95.02c-1.22.09-2.93.35-4.9.82-3.97.87-8.97,2.71-13.61,5.18-2.33,1.22-4.53,2.65-6.61,4-2,1.46-3.89,2.79-5.43,4.07-1.6,1.2-2.86,2.3-3.76,3.07-.91.75-1.46,1.16-1.46,1.16,0,0,.35-.6,1.03-1.61.72-.97,1.59-2.52,2.99-4.02,1.3-1.62,3.03-3.27,4.96-4.96,1.02-.77,2.05-1.6,3.16-2.37,1.15-.7,2.32-1.41,3.49-2.11,2.47-1.21,4.99-2.34,7.55-2.97,2.52-.72,5.01-1.05,7.17-1.14,2.16-.14,4.04.14,5.33.32,1.31.19,2.04.57,2.04.57Z"/>
      <path class="st0" d="M242.58,87.34s1.16-.15,3.31.16c2.07.29,5,.81,8.4,1.7,3.35.94,7.25,2.14,11.13,3.78,3.94,1.58,7.88,3.58,11.62,5.75,3.65,2.24,7.18,4.6,9.99,7.13,1.49,1.21,2.8,2.45,3.92,3.69,1.18,1.21,2.27,2.35,3.08,3.5,1.82,2.21,2.92,4.19,3.66,5.57.76,1.38,1.13,2.18,1.13,2.18,0,0-.74-.68-1.92-1.88-.58-.6-1.29-1.33-2.1-2.17-.91-.79-1.94-1.67-2.98-2.66-1.02-1-2.32-1.98-3.61-3.06-1.26-1.09-2.72-2.16-4.23-3.26-1.44-1.15-3.12-2.2-4.76-3.31-1.59-1.15-3.42-2.16-5.16-3.23-3.51-2.12-7.23-4.08-10.82-5.82-3.56-1.78-7.07-3.23-10.08-4.52-3.06-1.19-5.62-2.24-7.53-2.79-1.81-.61-3.05-.77-3.05-.77Z"/>
      <path class="st0" d="M93.21,128.73s.36-.98,1.47-2.56c1.06-1.53,2.65-3.65,4.72-6,2.08-2.29,4.58-4.91,7.42-7.34,2.81-2.51,5.94-4.85,9.13-6.96,3.2-2.01,6.45-3.89,9.53-5.13,1.53-.71,3.02-1.26,4.42-1.66,1.4-.46,2.73-.88,3.94-1.06,2.43-.57,4.4-.68,5.76-.72,1.37-.06,2.13-.04,2.13-.04,0,0-.82.32-2.22.79-.7.22-1.54.5-2.51.81-.98.41-2.07.88-3.25,1.32-1.18.41-2.46,1.06-3.81,1.66-1.35.57-2.76,1.31-4.22,2.07-1.46.69-2.95,1.61-4.47,2.48-1.53.81-3.04,1.86-4.57,2.83-3.06,1.95-6.07,4.14-8.86,6.3-2.81,2.13-5.35,4.34-7.56,6.22-2.16,1.97-4.01,3.58-5.19,4.88-1.2,1.2-1.82,2.12-1.82,2.12Z"/>
      <path class="st0" d="M118.82,161.8s-.98-.08-2.65-.11c-1.68-.05-4.05.12-6.86.46-1.39.21-2.9.45-4.45.89-1.56.42-3.16.95-4.78,1.64-1.67.52-3.18,1.64-4.84,2.44-1.47,1.19-3.16,2.06-4.47,3.57l-2.1,2.04-1.8,2.4c-1.29,1.49-2.13,3.41-3.13,5.09-1.01,1.67-1.55,3.66-2.32,5.35-.81,1.68-1.09,3.56-1.58,5.17-.39,1.66-.94,3.12-1.11,4.54-.24,1.4-.45,2.62-.62,3.62-.38,2.02-.59,3.17-.59,3.17,0,0,.04-1.2.1-3.29.05-1.05.11-2.33.17-3.8-.01-1.5.35-3.08.65-4.84.37-1.73.53-3.73,1.23-5.59.67-1.87,1.07-4.07,2.1-5.91,1-1.85,1.79-4.03,3.18-5.66l1.93-2.64,2.24-2.26c1.45-1.6,3.27-2.53,4.89-3.76,1.77-.86,3.47-1.87,5.26-2.34,1.74-.67,3.49-.98,5.14-1.24,1.65-.26,3.24-.33,4.7-.38,2.92-.06,5.37.41,7.06.72,1.7.37,2.64.73,2.64.73Z"/>
      <path class="st0" d="M99.92,216.05s.89-.62,2.46-1.71c.78-.55,1.76-1.12,2.91-1.77,1.14-.69,2.45-1.39,3.89-2.03,2.87-1.35,6.26-2.76,9.83-4.16,1.8-.68,3.61-1.5,5.45-2.26,1.82-.83,3.65-1.72,5.41-2.78,1.74-1.06,3.51-2.13,5.05-3.5,1.63-1.24,3.04-2.75,4.45-4.16,1.24-1.58,2.61-2.99,3.64-4.55,1.01-1.57,2.15-2.96,2.89-4.44.79-1.44,1.57-2.75,2.26-3.91.6-1.21,1.12-2.26,1.55-3.13.9-1.74,1.41-2.73,1.41-2.73,0,0-.33,1.04-.92,2.86-.31.91-.69,2.02-1.12,3.3-.52,1.25-1.14,2.67-1.86,4.2-.64,1.57-1.7,3.12-2.64,4.84-.96,1.72-2.29,3.38-3.6,5.12-1.49,1.59-2.94,3.36-4.74,4.74-.85.76-1.74,1.48-2.68,2.08-.93.62-1.84,1.35-2.82,1.84-7.76,4.49-15.63,6.01-21.31,8.19-2.87,1.03-5.22,1.91-6.89,2.74-1.67.77-2.62,1.21-2.62,1.21Z"/>
      <path class="st0" d="M96.3,220.95s-.07.69-.32,1.88c-.4,1.19-1.05,2.98-2.18,4.75-2.19,3.67-5.74,7.7-9.19,11.6-3.49,3.87-6.83,7.78-9.09,11.03-.59.79-1.05,1.58-1.51,2.26-.47.68-.82,1.3-1.08,1.84-.56,1.05-.93,1.66-.93,1.66,0,0,.15-.67.48-1.87.15-.61.39-1.32.72-2.12.32-.81.64-1.76,1.16-2.68.93-1.92,2.2-4.06,3.72-6.14,1.48-2.13,3.23-4.18,4.97-6.19,3.54-3.96,7.23-7.51,9.71-10.46,1.27-1.48,2.18-2.79,2.75-3.81.5-1.12.79-1.76.79-1.76Z"/>
      <path class="st0" d="M210.36,77.65s.85.35,2.33.97c.81.23,1.52.82,2.44,1.35.93.51,1.83,1.27,2.86,2.04,1.07.73,2.05,1.72,3.12,2.71,1.11.95,2.05,2.2,3.21,3.29,2.14,2.37,4.4,4.93,6.54,7.59,2.22,2.6,4.35,5.3,6.49,7.71,2.1,2.45,4.25,4.59,6.18,6.35,1.91,1.77,3.84,2.97,5.37,3.57.67.41,1.48.37,1.92.46.46.06.71.09.71.09,0,0-.22-.08-.63-.24-.39-.18-1.03-.31-1.6-.81-1.31-.79-2.7-2.41-4.35-4.35-1.67-1.93-3.36-4.42-5.3-6.99-1.91-2.6-4.01-5.32-6.19-7.99-2.22-2.64-4.54-5.2-6.94-7.41-1.24-1.08-2.38-2.16-3.66-3-1.24-.88-2.38-1.74-3.6-2.37-1.15-.69-2.26-1.27-3.39-1.62-1.1-.37-1.97-.81-2.85-.9-1.7-.28-2.68-.45-2.68-.45Z"/>
      <path class="st0" d="M66.28,186.62s.1-.91.26-2.51c-.01-.84.35-1.69.59-2.72.22-1.04.69-2.12,1.13-3.33.39-1.23,1.05-2.46,1.7-3.77.59-1.34,1.51-2.6,2.23-4.02,1.65-2.74,3.45-5.63,5.38-8.45,1.86-2.87,3.82-5.69,5.52-8.43,1.74-2.72,3.17-5.39,4.3-7.75,1.15-2.34,1.73-4.53,1.87-6.17.19-.76-.07-1.53-.12-1.97-.08-.46-.12-.71-.12-.71,0,0-.02.23-.05.67-.05.43,0,1.07-.32,1.76-.38,1.48-1.53,3.28-2.91,5.42-1.37,2.16-3.27,4.49-5.17,7.08-1.94,2.57-3.94,5.37-5.87,8.23-1.89,2.88-3.67,5.85-5.1,8.79-.67,1.49-1.38,2.9-1.82,4.37-.48,1.44-.99,2.78-1.23,4.13-.33,1.3-.57,2.53-.57,3.72-.04,1.16-.2,2.12-.04,2.99.22,1.71.34,2.69.34,2.69Z"/>
      <path class="st0" d="M281.55,240.61s-1.59-1.52-3.73-4c-2.15-2.46-4.77-5.91-8.14-8.2-.8-.63-1.7-1.12-2.6-1.57-.91-.43-1.81-.86-2.75-1.15-1.85-.65-3.71-1.01-5.33-1.31-1.64-.21-3.02-.49-4.02-.52-.99-.1-1.56-.2-1.56-.2,0,0,.6-.17,1.65-.39,1.05-.23,2.55-.5,4.35-.62,1.79-.09,3.88-.04,5.99.46,1.06.24,2.15.53,3.17,1.02,1.02.47,2.05.99,2.96,1.66,3.76,2.63,6.09,6.66,7.65,9.64,1.52,3.04,2.37,5.2,2.37,5.2Z"/>
      <path class="st0" d="M58.54,252.21s.2-.79.55-2.18c.13-.7.21-1.56.34-2.52.04-1,.09-2.12.15-3.34.07-4.94-.56-11.64-.57-18.35,0-1.67.05-3.34.13-4.99.03-1.65.29-3.24.42-4.79.45-3.08,1.15-5.9,2.07-8.2.39-1.17.89-2.19,1.46-3.04.51-.87.93-1.63,1.44-2.18.94-1.13,1.5-1.73,1.5-1.73,0,0-.34.74-.93,2.03-.61,1.26-1.22,3.18-1.71,5.53-.32,1.15-.46,2.46-.64,3.83-.21,1.36-.18,2.87-.37,4.37-.1,3.07-.23,6.34-.16,9.67-.03,3.31.04,6.65-.08,9.77-.05,3.13-.43,6.01-.77,8.47-.37,2.45-1.14,4.41-1.69,5.73-.73,1.23-1.14,1.93-1.14,1.93Z"/>
      <path class="st0" d="M187.87,217.56s-.57,0-1.54-.09c-.97-.08-2.35-.15-3.96-.59-.84-.17-1.7-.41-2.52-.77-.86-.32-1.79-.65-2.6-1.15-1.74-.88-3.35-2.09-4.72-3.43-1.36-1.35-2.45-2.86-3.25-4.36-.78-1.5-1.32-2.98-1.58-4.28-.56-2.61-.25-4.43-.25-4.43,0,0,.71,1.63,2.05,3.84.64,1.12,1.47,2.37,2.39,3.68.98,1.27,2.01,2.63,3.3,3.82,1.18,1.25,2.59,2.36,3.98,3.32,1.39.95,2.82,1.82,4.11,2.41,1.25.65,2.44,1.18,3.3,1.47.84.34,1.29.56,1.29.56Z"/>
      <path class="st0" d="M263.53,147.12s1.72-.18,4.2.38c1.22.29,2.63.74,3.96,1.43,1.38.65,2.63,1.56,3.8,2.52,1.08,1.02,2.04,2.09,2.73,3.18.68,1.09,1.17,2.14,1.43,3.08.36.91.32,1.73.43,2.27.06.55.04.87.04.87,0,0-.27-.26-.65-.72-.38-.46-.9-1.12-1.57-1.87-.62-.77-1.39-1.62-2.19-2.53-.85-.88-1.73-1.8-2.72-2.66-1.94-1.73-4.2-3.24-6.09-4.28-1.87-1.07-3.37-1.65-3.37-1.65Z"/>
      <path class="st0" d="M193.55,79.9s1.72-.18,4.2.38c1.22.29,2.63.74,3.96,1.43,1.38.65,2.63,1.56,3.8,2.52,1.08,1.02,2.04,2.09,2.73,3.18.68,1.09,1.17,2.14,1.43,3.08.36.91.32,1.73.43,2.27.06.55.04.87.04.87,0,0-.27-.26-.65-.72-.38-.46-.9-1.12-1.57-1.87-.62-.77-1.39-1.62-2.19-2.53-.85-.88-1.73-1.8-2.72-2.66-1.94-1.73-4.2-3.24-6.09-4.28-1.87-1.07-3.37-1.65-3.37-1.65Z"/>
      <path class="st0" d="M275.21,184.62s-1.63-2.18-3.78-5.59c-2.17-3.38-4.78-8.01-8.3-11.63-.83-.95-1.78-1.78-2.73-2.57-.97-.78-1.92-1.54-2.93-2.17-1.98-1.32-3.99-2.34-5.74-3.2-1.79-.78-3.27-1.54-4.37-1.91-1.08-.44-1.69-.74-1.69-.74,0,0,.67.02,1.84.13,1.17.1,2.84.31,4.82.78,1.97.5,4.25,1.25,6.54,2.5,1.14.62,2.31,1.3,3.39,2.16,1.08.85,2.17,1.76,3.12,2.79,3.93,4.11,6.17,9.27,7.64,13.02,1.43,3.81,2.2,6.43,2.2,6.43Z"/>
      <path class="st0" d="M185.52,202.88s-1.03-1.32-2.77-3.1c-1.72-1.79-4.19-4-5.63-6.75-.41-.66-.69-1.39-.95-2.11-.24-.74-.47-1.46-.59-2.22-.3-1.49-.36-2.97-.4-4.26.03-1.31-.02-2.4.08-3.2.04-.78.03-1.24.03-1.24,0,0-.21.47-.52,1.29-.31.82-.72,2-1.04,3.41-.29,1.41-.51,3.06-.37,4.75.06.85.17,1.72.43,2.54.25.82.54,1.66.97,2.4,1.66,3.08,4.63,5.08,6.85,6.42,2.27,1.32,3.91,2.07,3.91,2.07Z"/>
      <path class="st0" d="M205.75,153.32s-1.03-1.32-2.77-3.1c-1.72-1.79-4.19-4-5.63-6.75-.41-.66-.69-1.39-.95-2.11-.24-.74-.47-1.46-.59-2.22-.3-1.49-.36-2.97-.4-4.26.03-1.31-.02-2.4.08-3.2.04-.78.03-1.24.03-1.24,0,0-.21.47-.52,1.29-.31.82-.72,2-1.04,3.41-.29,1.41-.51,3.06-.37,4.75.06.85.17,1.72.43,2.54.25.82.54,1.66.97,2.4,1.66,3.08,4.63,5.08,6.85,6.42,2.27,1.32,3.91,2.07,3.91,2.07Z"/>
      <path class="st0" d="M189.82,99.53s-1.03-1.32-2.77-3.1c-1.72-1.79-4.19-4-5.63-6.75-.41-.66-.69-1.39-.95-2.11-.24-.74-.47-1.46-.59-2.22-.3-1.49-.36-2.97-.4-4.26.03-1.31-.02-2.4.08-3.2.04-.78.03-1.24.03-1.24,0,0-.21.47-.52,1.29-.31.82-.72,2-1.04,3.41-.29,1.41-.51,3.06-.37,4.75.06.85.17,1.72.43,2.54.25.82.54,1.66.97,2.4,1.66,3.08,4.63,5.08,6.85,6.42,2.27,1.32,3.91,2.07,3.91,2.07Z"/>
      <path class="st0" d="M189.82,181.13s-1.03-1.32-2.77-3.1c-1.72-1.79-4.19-4-5.63-6.75-.41-.66-.69-1.39-.95-2.11-.24-.74-.47-1.46-.59-2.22-.3-1.49-.36-2.97-.4-4.26.03-1.31-.02-2.4.08-3.2.04-.78.03-1.24.03-1.24,0,0-.21.47-.52,1.29-.31.82-.72,2-1.04,3.41-.29,1.41-.51,3.06-.37,4.75.06.85.17,1.72.43,2.54.25.82.54,1.66.97,2.4,1.66,3.08,4.63,5.08,6.85,6.42,2.27,1.32,3.91,2.07,3.91,2.07Z"/>
      <path class="st0" d="M164.84,149.67s-.23,2.74-.3,6.78c-.09,4.03.05,9.32-.94,14.35-.19,1.27-.53,2.51-.88,3.72-.37,1.21-.74,2.4-1.21,3.51-.88,2.26-1.92,4.29-2.85,6.05-.98,1.7-1.75,3.21-2.4,4.18-.61,1-.93,1.61-.93,1.61,0,0,.49-.42,1.31-1.22.83-.79,1.98-1.97,3.25-3.54,1.24-1.59,2.61-3.58,3.76-5.96.58-1.19,1.14-2.44,1.56-3.79.42-1.33.83-2.72,1.07-4.12,1.08-5.67.42-11.17-.18-15.07-.66-3.92-1.27-6.49-1.27-6.49Z"/>
      <path class="st0" d="M206.02,164s1.63.38,4.11.68c2.46.32,5.77.5,8.61,1.74.73.26,1.41.65,2.06,1.05.65.43,1.28.85,1.85,1.36,1.16.97,2.14,2.09,2.98,3.07.79,1.04,1.52,1.86,1.94,2.54.46.64.75.98.75.98,0,0-.13-.49-.4-1.33-.27-.84-.69-2.01-1.32-3.31-.65-1.28-1.52-2.71-2.68-3.94-.58-.62-1.2-1.23-1.93-1.71-.71-.48-1.46-.95-2.26-1.27-3.22-1.36-6.79-1.06-9.36-.72-2.6.39-4.35.83-4.35.83Z"/>
      <path class="st0" d="M233.61,159.49s-1.01-1.33-2.73-3.14c-1.69-1.82-4.13-4.06-5.53-6.83-.4-.67-.67-1.4-.92-2.13-.23-.74-.45-1.47-.56-2.23-.28-1.49-.32-2.97-.34-4.26.05-1.31.01-2.4.12-3.19.05-.78.05-1.24.05-1.24,0,0-.22.46-.53,1.28-.32.82-.75,1.99-1.09,3.4-.31,1.4-.55,3.05-.44,4.75.05.85.14,1.72.4,2.55.24.82.52,1.66.94,2.42,1.61,3.1,4.56,5.14,6.76,6.51,2.25,1.35,3.88,2.13,3.88,2.13Z"/>
      <path class="st0" d="M70.47,230.25s1.26-4.1,4.12-9.5c1.49-2.63,3.23-5.74,5.49-8.64,1.1-1.48,2.29-2.96,3.62-4.3,1.25-1.45,2.73-2.62,4.13-3.91,1.46-1.19,3.05-2.18,4.57-3.2,1.64-.78,3.2-1.69,4.86-2.19,1.68-.42,3.22-1.11,4.84-1.1,1.6-.04,3.06-.38,4.48-.14,1.41.16,2.7.37,3.83.57,1.13.31,2.11.75,2.91,1.03,1.59.64,2.49,1,2.49,1,0,0-.92-.14-2.53-.38-.8-.12-1.76-.37-2.85-.45-1.09.04-2.31.09-3.64.06-1.33-.08-2.69.44-4.16.66-1.49.16-2.88,1.05-4.43,1.49-1.53.54-2.93,1.59-4.47,2.31-1.43,1.01-2.91,1.97-4.29,3.13-1.35,1.2-2.79,2.28-4.01,3.65-1.28,1.27-2.53,2.56-3.65,3.93-2.31,2.65-4.35,5.31-6,7.71-1.61,2.43-3.03,4.42-3.89,5.94-.9,1.49-1.41,2.34-1.41,2.34Z"/>
      <path class="st0" d="M305.08,167.11s.49.07,1.32.45c.8.36,1.93.93,3.19,1.71,1.24.79,2.68,1.76,4.05,2.93,1.41,1.14,2.76,2.46,4.02,3.84,1.21,1.4,2.36,2.83,3.2,4.26.46.7.84,1.39,1.15,2.06.33.66.64,1.29.83,1.88.47,1.17.69,2.16.82,2.85.14.69.2,1.08.2,1.08,0,0-.22-.38-.56-1.04-.16-.33-.36-.73-.59-1.19-.27-.45-.59-.95-.89-1.5-.29-.55-.7-1.13-1.1-1.75-.38-.62-.84-1.25-1.32-1.91-.45-.67-1-1.32-1.53-1.99-.51-.68-1.13-1.33-1.71-2-1.17-1.33-2.44-2.61-3.69-3.78-1.23-1.18-2.48-2.22-3.54-3.13-1.1-.87-2.01-1.62-2.71-2.08-.66-.47-1.14-.68-1.14-.68Z"/>
      <path class="st0" d="M259.32,118.97s.73-.22,2.11.06c1.33.25,3.22.74,5.44,1.64,2.19.95,4.73,2.18,7.3,3.92,2.6,1.66,5.23,3.81,7.74,6.16,2.46,2.44,4.85,5.02,6.79,7.8,1.02,1.33,1.93,2.71,2.72,4.09.82,1.34,1.59,2.61,2.18,3.9,1.29,2.47,2.13,4.7,2.68,6.26.57,1.55.85,2.45.85,2.45,0,0-.51-.75-1.34-2.09-.41-.67-.9-1.48-1.47-2.41-.63-.87-1.34-1.85-2.06-2.94-.71-1.11-1.6-2.19-2.48-3.38-.87-1.21-1.86-2.38-2.89-3.59-.99-1.26-2.12-2.4-3.23-3.62-1.08-1.26-2.31-2.35-3.48-3.51-2.36-2.31-4.85-4.41-7.23-6.27-2.37-1.91-4.69-3.44-6.68-4.81-2.02-1.25-3.71-2.36-4.95-2.91-1.19-.63-1.98-.76-1.98-.76Z"/>
      <path class="st0" d="M116.49,190.71s-.18-.73.17-2.07c.32-1.3.91-3.13,1.92-5.26,1.06-2.1,2.42-4.54,4.3-6.98,1.79-2.47,4.08-4.95,6.55-7.3,2.56-2.29,5.26-4.51,8.15-6.29,1.38-.94,2.81-1.76,4.22-2.47,1.38-.74,2.69-1.43,4.01-1.94,2.53-1.15,4.8-1.85,6.39-2.32,1.58-.48,2.5-.72,2.5-.72,0,0-.78.47-2.15,1.21-.69.37-1.52.81-2.48,1.32-.91.57-1.91,1.22-3.05,1.88-1.15.64-2.27,1.46-3.5,2.27-1.25.79-2.47,1.71-3.73,2.66-1.31.91-2.51,1.96-3.79,2.99-1.31,1-2.47,2.15-3.69,3.24-2.43,2.21-4.65,4.54-6.64,6.8-2.03,2.24-3.68,4.44-5.15,6.33-1.35,1.92-2.55,3.53-3.17,4.72-.69,1.13-.87,1.91-.87,1.91Z"/>
      <path class="st0" d="M95.6,154.15s-.03-.76.41-2.1c.41-1.29,1.11-3.11,2.14-5.18,1.07-2.04,2.41-4.39,4.12-6.69,1.66-2.34,3.68-4.64,5.82-6.78,2.2-2.08,4.48-4.07,6.85-5.58,1.14-.82,2.3-1.51,3.44-2.09,1.12-.62,2.17-1.19,3.21-1.57,2.01-.91,3.77-1.4,5-1.71,1.22-.33,1.93-.47,1.93-.47,0,0-.63.4-1.75,1.02-.56.3-1.23.67-2,1.1-.74.49-1.57,1.05-2.49,1.61-.93.54-1.87,1.26-2.88,1.96-1.03.68-2.05,1.49-3.11,2.33-1.09.79-2.11,1.75-3.19,2.67-1.1.89-2.11,1.94-3.15,2.94-2.09,2.01-4.04,4.17-5.81,6.26-1.8,2.08-3.32,4.16-4.66,5.94-1.26,1.83-2.36,3.34-2.98,4.5-.67,1.09-.9,1.86-.9,1.86Z"/>
      <path class="st0" d="M274.34,201.23s-2.18-1.62-5.24-4.17c-3.07-2.53-6.97-6-11.27-8.64-1.05-.7-2.16-1.29-3.26-1.86-1.1-.55-2.19-1.09-3.28-1.53-2.17-.92-4.25-1.6-6.05-2.18-1.8-.5-3.35-1.01-4.41-1.24-1.08-.28-1.71-.48-1.71-.48,0,0,.58-.02,1.61,0,1.03.01,2.53.08,4.39.33,1.86.28,4.08.73,6.48,1.58,1.2.42,2.44.88,3.67,1.5,1.23.6,2.48,1.25,3.67,2,4.83,2.99,8.61,6.91,11.21,9.77,2.59,2.9,4.19,4.92,4.19,4.92Z"/>
      <path class="st0" d="M289.61,195.49s.47.11,1.25.56c.75.43,1.8,1.09,2.97,1.97,1.14.9,2.46,1.99,3.69,3.27,1.27,1.26,2.47,2.71,3.57,4.19,1.05,1.51,2.04,3.05,2.73,4.55.38.74.69,1.47.93,2.17.26.69.51,1.35.63,1.97.35,1.22.47,2.24.53,2.95.07.71.09,1.11.09,1.11,0,0-.18-.4-.44-1.1-.13-.35-.29-.76-.47-1.25-.22-.48-.48-1.01-.73-1.59-.23-.58-.58-1.2-.91-1.85-.31-.66-.71-1.33-1.11-2.03-.37-.71-.86-1.41-1.31-2.13-.43-.73-.98-1.44-1.48-2.15-1.02-1.43-2.14-2.83-3.25-4.11-1.09-1.29-2.22-2.44-3.17-3.44-.99-.96-1.81-1.8-2.46-2.31-.6-.53-1.05-.78-1.05-.78Z"/>
      <path class="st0" d="M204.19,106.45s.76-1.8,4.13-1.46c1.7.23,3.99.9,6.89,2.5,2.82,1.4,6.29,3.87,9.81,6.52,3.63,2.94,7.34,6.17,10.88,9.63,3.54,3.48,6.85,6.94,9.65,10.15,2.8,3.03,5.08,6.04,6.65,7.89,1.58,1.94,2.45,3.1,2.45,3.1,0,0-.92-.76-2.49-2.16-1.57-1.42-3.8-3.45-6.38-5.7-2.61-2.36-5.55-4.92-8.66-7.64-3.07-2.59-6.3-5.34-9.43-7.77-6.25-4.93-12.12-8.86-16.42-11.35-4.35-2.59-7.09-3.7-7.09-3.7Z"/>
    </g>
  </g>
</svg>