<?xml version="1.0" encoding="UTF-8"?>
<svg id="Layer_1" xmlns="http://www.w3.org/2000/svg" version="1.1" viewBox="0 0 400 600">
  <!-- Generator: Adobe Illustrator 29.5.1, SVG Export Plug-In . SVG Version: 2.1.0 Build 141)  -->
  <defs>
    <style>
      .st0 {
        opacity: .33;
      }

      .st1 {
        fill: #fff;
      }

      .st2 {
        opacity: .15;
      }

      .st3 {
        fill: #251f12;
      }
    </style>
  </defs>
  <g id="hair_9">
    <path id="hair" class="st3" d="M342.56,156.75c-.13-.17-.28-.34-.41-.51,2.09-19-5.64-39.36-38-53.63,0,0-9.94-25.6-62.61-21.26,0,0-28.57-29.47-87.49,6.07,0,0-58.03-8-73.21,45.83,0,0-41.07,17.3-36.6,56.37,0,0-21.15,16.94,0,72.7,0,0,0-.01,0-.03,3.71,22.02,5.19,33.51,5.19,33.51,5.98-19.78,21.89-66.23,35.19-83.87,36.99-10.87,43.71-23.39,114.07-22.3,0,0,61.14-36.29,117.53,18.11-.88,23.35,27.92,37.85,36.9,84.8,29.28-67.82,6.25-114.07-10.55-135.76Z"/>
    <g id="details">
      <path class="st2" d="M316.21,207.72s66.46-70.48-12.06-105.1c0,0-9.94-25.6-62.61-21.26,0,0-28.57-29.47-87.49,6.07,0,0-58.03-8-73.21,45.83,0,0-41.07,17.3-36.6,56.37,0,0-21.15,16.94,0,72.7,0,0-10.71-37.11,33.03-48.37,43.75-11.27,46.64-25.48,121.42-24.33,0,0,61.14-36.29,117.53,18.11Z"/>
      <g class="st0">
        <path class="st1" d="M304.15,102.62s29.62,44.27-12.95,85.96c0,0,11.21,6.67,15.62,11.06,0,0,51.57-67.1-2.67-97.02Z"/>
        <path class="st1" d="M241.06,81.02s50.42,37.17,21.43,98.16c0,0,11.13,1.55,18.23,4.87,0,0,31.87-85.74-39.66-103.03Z"/>
        <path class="st1" d="M154.04,87.42s64.84,13.56,65,94.2c0,0,10.18-4.22,23.29-3.77,0,0-14.79-99.2-88.28-90.42Z"/>
        <path class="st1" d="M80.84,133.25s79.53-9.51,93.52,56.65c0,0,9.52-.31,24.33-.29,0,0-30.35-95.6-117.85-56.37Z"/>
        <path class="st1" d="M44.23,189.61s54.44-24.33,75.33,9.78c0,0,12.83-5.63,24.43-6.53,0,0-46.58-63.07-99.76-3.24Z"/>
      </g>
    </g>
  </g>
</svg>