<?xml version="1.0" encoding="UTF-8"?>
<svg id="Layer_1" xmlns="http://www.w3.org/2000/svg" version="1.1" viewBox="0 0 400 600">
  <!-- Generator: Adobe Illustrator 29.5.1, SVG Export Plug-In . SVG Version: 2.1.0 Build 141)  -->
  <defs>
    <style>
      .st0 {
        fill: #3d3b32;
      }

      .st1 {
        fill: #fff;
      }

      .st2 {
        opacity: .25;
      }
    </style>
  </defs>
  <g id="hair_3">
    <path id="hair" class="st0" d="M376.77,206.56c3.88-29.98-15.86-49.54-32.75-67.32-5.58-5.88-13.91-11.65-23.51-16.98,0,0-41.65-72.6-169.77-42.28-60.48,14.31-117.72,51.45-128.21,100.69-.59,2.77-1.1,5.61-1.51,8.52l7.35-5.13c-6.39,15.86-9.36,32.79-7.35,49.76,3.22-7.65,4.58-11.63,11.44-21.47,0,0-1.21,8.03-2.66,18.54-.37,2.65-.56,6-.64,9.61-.27,12.81,2.53,34.14,10.72,45.19,11.88,16.02,15.69,49.44,15.69,49.44,9.82-18.37,8.38-37.16,8.56-50.75.14-10.84,7.04-40.84,14.86-59.26,1.81-4.26,3.85-8.12,6.08-11.63,41.69,6.39,107.03,4.78,204.7-24.66h0s0,0,0,0c38.53,17.71,47.71,84.7,47.85,95.54.18,13.59-4.75,29.5,8.56,50.75,0,0,1.62-37.01,15.08-51.09,9.3-9.74,13.09-31.5,13.28-43.71.11-7.58-.17-16.25-1.21-25.65-1.45-19.13-12.44-31.47-12.44-31.47,5.17,3.7,10.07,7.67,15.88,23.34Z"/>
    <g id="details" class="st2">
      <path class="st1" d="M82.22,184.87s-1.05-.83-2.79-2.36c-1.62-1.62-4.02-3.98-6.23-7.14-2.25-3.15-4.4-7.09-6.02-11.54-.62-2.26-1.5-4.57-1.74-7.03-.48-2.43-.44-4.94-.53-7.44.32-2.5.43-5.02,1.21-7.42.48-2.45,1.63-4.71,2.61-6.9,1.04-2.17,2.5-4.11,3.75-5.96,1.51-1.72,2.9-3.37,4.35-4.76,1.53-1.34,2.99-2.5,4.27-3.53,1.3-1.01,2.62-1.71,3.61-2.37,2.04-1.26,3.23-1.92,3.23-1.92,0,0-.9.97-2.52,2.55-.79.81-1.87,1.69-2.87,2.87-.97,1.2-2.05,2.54-3.29,3.94-1.11,1.48-2.11,3.18-3.34,4.87-.92,1.82-2,3.7-2.83,5.72-.77,2.04-1.53,4.14-1.95,6.36-.66,2.17-.67,4.46-.93,6.72.03,2.27-.08,4.56.31,6.79.18,2.25.73,4.43,1.17,6.56.69,2.08,1.15,4.16,1.96,6.04.68,1.92,1.53,3.68,2.26,5.33,1.61,3.26,3.1,5.93,4.34,7.75,1.29,1.81,1.97,2.88,1.97,2.88Z"/>
      <path class="st1" d="M59.49,175.51s.23.93.64,2.55c.51,1.55,1.19,3.73,2.47,6.1,1.23,2.38,2.92,4.97,5.21,7.32,1.03,1.26,2.45,2.26,3.74,3.39,1.38,1.05,2.82,2.05,4.44,2.85,1.48.97,3.25,1.57,4.87,2.31,1.78.47,3.36,1.31,5.15,1.61,1.74.4,3.39.89,5.08,1.09,1.66.25,3.22.6,4.73.69,1.5.16,2.88.31,4.1.44,1.25.06,2.34.12,3.24.16,1.81.15,2.85.23,2.85.23,0,0-1.07.26-2.95.71-1.89.47-4.6.98-7.85,1.18-1.64.21-3.38.17-5.22.11-1.86.03-3.77-.21-5.71-.53-1.99-.21-3.89-.84-5.86-1.37-1.85-.76-3.84-1.39-5.55-2.43-1.78-.96-3.37-2.14-4.88-3.37-1.44-1.29-2.79-2.64-3.84-4.14-1.17-1.4-1.95-3.01-2.73-4.48-.65-1.55-1.26-3.01-1.55-4.47-.79-2.83-.77-5.42-.72-7.19.18-1.76.36-2.78.36-2.78Z"/>
      <path class="st1" d="M162.83,114.39s.36-.36,1.03-1.03c.75-.62,1.47-1.79,3.08-2.78.77-.54,1.61-1.14,2.53-1.79.97-.6,2.08-1.14,3.25-1.78,1.15-.68,2.49-1.18,3.9-1.75,1.4-.6,2.92-1.12,4.56-1.53,3.22-.98,6.85-1.71,10.71-2.26,3.87-.55,8.01-.91,12.29-.86,4.28,0,8.72.19,13.15.82,2.23.26,4.46.61,6.67,1.08,2.24.38,4.43.93,6.62,1.5,4.38,1.15,8.6,2.71,12.63,4.46,4.04,1.85,7.5,3.98,11.03,5.69,3.41,1.58,6.96,3.01,10.44,3.96,3.49.91,6.91,1.55,10.12,1.65,6.4.33,11.87-.61,15.37-1.89,3.58-1.19,5.3-2.44,5.3-2.44,0,0-.39.33-1.13.96-.79.57-1.97,1.46-3.71,2.25-3.4,1.63-8.91,3.54-15.88,3.61-6.96.15-15.04-1.33-22.86-4.73-3.74-1.69-7.43-3.62-11.07-5.28-3.77-1.58-7.73-2.99-11.86-4.03-2.05-.57-4.1-1.11-6.21-1.49-2.08-.47-4.18-.83-6.29-1.09-4.19-.62-8.37-1.03-12.43-1.15-8.1-.29-15.75.21-22.04,1.61-1.6.27-3.07.71-4.46,1.12-1.41.39-2.78.72-3.95,1.24-1.19.48-2.36.88-3.36,1.34-.96.51-1.85.99-2.65,1.41-1.68.79-2.72,1.81-3.56,2.31-.8.56-1.23.86-1.23.86Z"/>
      <path class="st1" d="M153.14,171.36s-1.11-.7-2.96-1.99c-.95-.62-2-1.48-3.15-2.55-1.19-1.04-2.56-2.24-3.7-3.72-.62-.72-1.26-1.48-1.92-2.25-.56-.83-1.13-1.7-1.72-2.58-1.26-1.75-2.2-3.75-3.21-5.82-.85-2.1-1.79-4.29-2.32-6.59-.58-2.3-1.03-4.66-1.2-7.05-.25-2.38-.04-4.8.14-7.15.3-2.36.81-4.66,1.64-6.83.56-2.21,1.93-4.17,2.9-6.05,1.38-1.75,2.42-3.51,4.02-4.78.73-.66,1.43-1.3,2.09-1.9.7-.56,1.52-.98,2.19-1.43,1.39-.87,2.57-1.62,3.73-2.02,2.22-.9,3.47-1.34,3.47-1.34,0,0-1.06.8-2.88,2.05-.98.55-1.91,1.49-2.97,2.52-1.15.96-2.13,2.25-3.18,3.63-1.2,1.29-1.83,3.05-2.88,4.67-.63,1.8-1.59,3.59-1.97,5.62-.62,1.97-.78,4.08-1.05,6.21-.1,2.14-.24,4.33.05,6.51.09,2.19.45,4.36.93,6.49.46,2.12,1.06,4.21,1.72,6.2.83,1.95,1.39,3.92,2.36,5.65.82,1.79,1.71,3.44,2.66,4.92.86,1.54,1.8,2.83,2.64,4.01.8,1.2,1.6,2.22,2.37,3,1.44,1.62,2.22,2.58,2.22,2.58Z"/>
      <path class="st1" d="M220.86,202.26s-.49-.08-1.42-.23c-.91-.16-2.3-.41-3.97-.92-3.34-1-8.04-2.93-12.68-6.44-4.58-3.51-9.01-8.68-11.21-15.13-2.21-6.41-1.81-14.02,1.67-20.6,1.67-3.29,3.91-6.36,6.55-9.05,2.52-2.6,5.78-5.15,9.04-6.97,6.71-3.79,14.29-5.23,20.53-5.26,6.3-.06,11.33,1.09,14.7,2.03,3.39.94,5.13,1.84,5.13,1.84,0,0-1.97-.43-5.41-.87-3.44-.43-8.43-.71-14.18-.11-5.72.6-12.24,2.3-17.88,5.83-2.92,1.78-5.4,3.71-7.82,6.28-2.34,2.44-4.42,5.11-5.91,7.99-1.5,2.87-2.46,5.92-2.87,8.98-.37,3.06-.05,6.12.68,9.02,1.53,5.8,5.08,10.8,8.94,14.42,3.85,3.67,8,6.04,11.1,7.34,3.07,1.35,5.03,1.86,5.03,1.86Z"/>
      <path class="st1" d="M243.04,200.07s-.99.09-2.72.17c-.86-.11-1.98-.2-3.25-.44-1.15-.35-2.59-.62-3.94-1.22-2.82-1.05-5.82-2.77-8.66-4.95-1.34-1.15-2.82-2.3-4-3.69-1.24-1.35-2.4-2.79-3.38-4.34-1.05-1.5-1.68-3.21-2.41-4.82-.52-1.69-1.03-3.35-1.07-5.03-.28-1.66,0-3.28.26-4.78.15-1.52.98-2.85,1.43-4.08.58-1.21,1.47-2.19,2.09-3.08.57-.93,1.5-1.49,2.06-2.05,1.24-1.05,1.96-1.6,1.96-1.6,0,0-.4.76-1.09,2.09-.31.66-.89,1.36-1.13,2.33-.27.95-.74,1.94-.99,3.06-.07,1.16-.5,2.34-.39,3.64.03,1.29.07,2.63.43,4,.13,1.39.88,2.74,1.3,4.16.7,1.36,1.26,2.79,2.23,4.08.79,1.36,1.76,2.65,2.82,3.88,1.02,1.24,2.14,2.41,3.24,3.52,2.3,2.16,4.64,4.06,6.87,5.48,1.09.75,2.2,1.25,3.15,1.83,1.01.44,1.88.82,2.6,1.13,1.66.45,2.6.7,2.6.7Z"/>
      <path class="st1" d="M117.37,142.29s-.02.32-.06.91c.02.59-.22,1.48-.04,2.56.08,2.13.78,5.18,2.08,8.68.67,1.74,1.51,3.61,2.5,5.52,1.01,1.92,2.18,3.89,3.55,5.86,1.22,2.03,3,3.88,4.54,5.87,1.76,1.86,3.46,3.82,5.55,5.48,1.86,1.85,4.12,3.35,6.23,4.93,2.25,1.43,4.48,2.85,6.76,4.06,2.41,1.01,4.54,2.37,6.88,3.11,2.32.75,4.41,1.79,6.54,2.27,2.11.53,4.03,1.09,5.75,1.59,1.75.38,3.31.6,4.59.85,2.57.47,4.05.8,4.05.8,0,0-1.5.06-4.16.06-1.33-.03-2.96,0-4.82-.08-1.84-.2-3.94-.43-6.22-.76-2.32-.23-4.65-1.04-7.22-1.66-2.59-.58-5.05-1.79-7.72-2.8-2.53-1.2-5.15-2.53-7.6-4.09-2.35-1.67-4.84-3.27-6.91-5.25-2.22-1.86-4.02-4-5.87-6.05-1.66-2.16-3.29-4.3-4.48-6.53-1.35-2.17-2.3-4.39-3.12-6.52-.83-2.12-1.37-4.19-1.75-6.1-.78-3.84-.55-7.12-.15-9.37.07-1.14.64-1.9.78-2.49.22-.56.34-.86.34-.86Z"/>
      <path class="st1" d="M108.46,177.14s-.42-.45-1.21-1.3c-.73-.88-2.08-1.99-3.24-3.77-.63-.87-1.32-1.83-2.08-2.87-.65-1.09-1.35-2.27-2.1-3.53-1.41-2.55-2.91-5.51-3.96-8.87-.63-1.66-1.13-3.43-1.55-5.27-.52-1.83-.85-3.76-1.14-5.75-.66-3.97-.82-8.22-.51-12.62.5-4.37,1.19-8.95,3.06-13.38,1.63-4.48,4.34-8.8,7.79-12.67,3.34-3.87,8.41-7.05,12.95-9.28,5.26-2.5,10.82-3.45,16.19-3.77,5.37-.31,10.44.25,15.08.8,4.66.53,8.99,1.12,12.99,1.28,4,.24,7.64.08,10.88-.19,1.6-.26,3.09-.51,4.47-.73,1.37-.28,2.58-.7,3.7-.99,2.28-.55,3.87-1.4,5.06-1.8,1.16-.46,1.78-.7,1.78-.7,0,0-.57.32-1.64.91-1.11.52-2.54,1.64-4.8,2.38-1.1.4-2.29.95-3.67,1.37-1.4.37-2.92.76-4.54,1.19-3.31.61-7.15,1.13-11.33,1.07-8.34.13-17.95-1.42-27.62-.69-4.78.37-9.7,1.56-13.82,3.5-1.09.45-2.22,1.21-3.33,1.8l-1.68.95c-.19.18-.86.67-1.26.98-.92.72-1.9,1.4-2.79,2.16l-2.42,2.47c-3.08,3.39-5.6,7.23-7.14,11.33-1.74,4.03-2.66,8.26-3.27,12.36-.38,4.13-.64,8.16-.29,11.98.12,1.91.29,3.78.66,5.56.26,1.8.6,3.52,1.08,5.15.8,3.29,1.86,6.26,2.89,8.86.57,1.29,1.1,2.5,1.59,3.61.6,1.07,1.15,2.06,1.65,2.95.93,1.82,2.02,3.13,2.6,4.08.63.93.97,1.43.97,1.43Z"/>
      <path class="st1" d="M134.87,193.29s1.92,1.74,5.34,3.31c1.68.81,3.73,1.62,5.98,2.36,2.25.74,4.7,1.47,7.24,2.02,2.49.66,5.07,1.18,7.51,1.67,2.42.54,4.75.91,6.73,1.37,4,.76,6.7,1.56,6.7,1.56,0,0-.72.17-1.98.38-1.26.19-3.07.52-5.23.63-2.16.11-4.69.22-7.36-.03-2.69-.13-5.49-.62-8.25-1.25-2.72-.7-5.4-1.58-7.69-2.77-1.19-.5-2.19-1.25-3.18-1.85-.94-.68-1.81-1.33-2.5-2.05-1.45-1.35-2.34-2.72-2.79-3.72-.47-1.01-.53-1.64-.53-1.64Z"/>
      <path class="st1" d="M49.11,173.3s-.27.21-.79.6c-.48.44-.9,1.13-1.37,2.1-.92,1.94-1.2,4.99-1.45,8.61-.42,7.27-.12,17.1-.72,27-.64,9.87-2.17,19.92-5.62,27.04-1.64,3.57-3.91,6.25-5.73,7.85-1.86,1.62-3.35,2.04-3.27,2.11,0,0,.24-.23.7-.67.5-.4,1.06-1.1,1.75-1.98,1.39-1.77,2.65-4.59,3.64-8.08,2-7,2.63-16.73,3.23-26.5.64-9.78,1.22-19.68,3.01-27.08.86-3.69,2.11-6.75,3.53-8.68,1.47-2.02,3.16-2.28,3.08-2.32Z"/>
      <path class="st1" d="M64.93,229.32s-.76.84-1.93,2.44c-.58.79-1.26,1.75-1.94,2.99-.74,1.16-1.38,2.66-2.17,4.16-.68,1.62-1.44,3.32-2.08,5.24-.73,1.86-1.2,3.99-1.8,6.1-.5,2.18-.94,4.44-1.25,6.79-.44,2.31-.48,4.77-.69,7.17,0,2.44-.22,4.87-.02,7.29.05,1.21.1,2.41.15,3.59.12,1.19.24,2.36.35,3.51.2,2.31.52,4.54.88,6.65.3,2.12.65,4.12,1.08,5.95.42,1.83.68,3.55,1.04,5.04.38,1.49.71,2.79.98,3.85.54,2.15.8,3.41.8,3.41,0,0-.55-1.11-1.44-3.11-.88-2.01-2.21-4.86-3.34-8.53-.3-.91-.62-1.86-.95-2.84-.25-1.01-.51-2.06-.77-3.13-.55-2.15-1.1-4.44-1.4-6.87-.42-2.41-.73-4.92-.83-7.5-.26-2.57-.09-5.18-.1-7.8.26-2.58.36-5.21.87-7.69.35-2.53,1.03-4.9,1.66-7.19.73-2.24,1.46-4.4,2.39-6.28.82-1.96,1.85-3.61,2.76-5.15,1.96-2.97,3.9-5.05,5.37-6.34.69-.71,1.35-1.02,1.75-1.33.42-.28.64-.44.64-.44Z"/>
      <path class="st1" d="M237.81,184.14s-.29-.46-.83-1.31c-.49-.87-1.26-2.17-1.87-3.92-1.25-3.45-2.57-8.76-1.2-15.12.74-3.14,2.09-6.53,4.55-9.7,2.43-3.16,5.95-6.11,10.34-8.06,4.35-2.03,9.38-3.1,14.44-3.56,5.03-.36,10.31-.16,15.29.63,5.24.8,10.23,2.7,14.35,5.48,4.13,2.78,7.08,6.35,9.36,9.84,2.32,3.49,4.04,6.97,5.66,10.22,1.63,3.25,3.2,6.27,4.88,8.95,3.33,5.37,6.87,9.49,9.9,12.02,2.97,2.55,4.93,3.84,4.93,3.84,0,0-.53-.27-1.52-.77-1-.49-2.43-1.27-4.13-2.41-3.36-2.28-7.98-5.99-11.83-11.41-3.99-5.32-7.53-12.03-11.99-18.46-2.29-3.18-5.04-6.16-8.48-8.46-3.43-2.3-7.69-3.76-12.09-4.51-4.66-.79-9.29-.99-13.89-.72-4.54.3-8.96,1.1-12.75,2.72-3.8,1.58-7.05,3.79-9.39,6.45-2.38,2.63-3.88,5.61-4.8,8.45-1.78,5.74-1.48,10.92-.66,14.39.39,1.75.82,3.11,1.16,4.02.37.91.57,1.4.57,1.4Z"/>
      <path class="st1" d="M279.39,135.12s1.17-.21,3.23-.45c2.08-.17,5.12-.43,8.79.04,1.82.26,3.82.59,5.82,1.27,2,.62,4.12,1.42,6.03,2.55,2,1.04,3.86,2.33,5.65,3.73,1.69,1.46,3.41,2.95,4.87,4.58,1.56,1.59,2.77,3.34,4.09,5.01,1.29,1.67,2.24,3.46,3.33,5.11,1.91,3.4,3.5,6.63,4.56,9.48,1.21,2.8,1.84,5.25,2.34,6.93.44,1.7.69,2.67.69,2.67,0,0-.61-.86-1.67-2.35-1-1.5-2.43-3.65-4.14-6.23-1.67-2.58-3.72-5.51-5.88-8.64-2.31-3.04-4.66-6.34-7.5-9.26-1.31-1.55-2.82-2.91-4.29-4.27-1.58-1.24-3.04-2.58-4.72-3.57-1.61-1.08-3.28-1.98-4.95-2.72-1.66-.76-3.34-1.32-4.92-1.81-3.2-.92-6.07-1.31-8.08-1.63-2.05-.27-3.23-.42-3.23-.42Z"/>
      <path class="st1" d="M315.27,200.09s.9,0,2.44.36c1.51.37,3.68,1.08,5.95,2.43,1.15.66,2.29,1.48,3.39,2.46,1.09.97,2.18,2.06,3.12,3.28,1.91,2.43,3.44,5.29,4.44,8.23.59,1.46.84,2.97,1.18,4.44.41,1.47.45,2.94.57,4.35.34,2.82.02,5.46-.13,7.69-.03,1.12-.34,2.13-.51,3.03-.19.9-.35,1.68-.49,2.32-.29,1.28-.5,2-.5,2,0,0-.13-.75-.27-2.04-.06-.64-.13-1.43-.22-2.32-.12-.89-.12-1.9-.3-2.99-.36-2.18-.48-4.72-1.07-7.37-.22-1.34-.48-2.71-.87-4.07-.36-1.37-.64-2.78-1.22-4.11-.84-2.75-2.17-5.33-3.61-7.65-1.53-2.27-3.19-4.32-5-5.8-3.49-3.11-6.91-4.24-6.91-4.24Z"/>
      <path class="st1" d="M260.68,156.65s-.64.46-1.79,1.2c-.91.87-2.12,2.02-2.95,3.79-.89,1.68-1.46,3.79-1.49,6.07-.16,1.13.14,2.32.22,3.49.21,1.19.47,2.38.96,3.54.28,1.2.99,2.31,1.49,3.45.78,1.03,1.18,2.23,2.05,3.17.79.97,1.44,2.01,2.3,2.85.83.86,1.51,1.77,2.34,2.46.78.75,1.5,1.44,2.14,2.06.7.58,1.31,1.09,1.81,1.5.99.89,1.56,1.41,1.56,1.41,0,0-.78-.21-2.14-.67-1.39-.42-3.29-1.17-5.38-2.39-2.12-1.17-4.43-2.83-6.44-4.97-1.09-1.02-1.91-2.28-2.81-3.51-.67-1.33-1.56-2.63-1.98-4.09-.52-1.43-.78-2.9-.96-4.37-.09-1.47-.09-2.93.24-4.32.17-1.4.78-2.7,1.29-3.9.69-1.17,1.34-2.26,2.26-3.11.75-.93,1.8-1.55,2.61-2.12.9-.54,1.83-.85,2.47-1.13,1.41-.28,2.24-.4,2.24-.4Z"/>
      <path class="st1" d="M282,159.16s.14,1.84.73,4.42c.27,1.29.66,2.76,1.17,4.3.59,1.52,1.18,3.13,2.18,4.63.8,1.55,2.04,2.98,3.24,4.3,1.25,1.3,2.54,2.51,3.85,3.47,2.46,2.02,4.64,3.22,4.54,3.3,0,0-.68-.11-1.83-.39-1.13-.3-2.88-.65-4.63-1.47-.93-.36-1.92-.78-2.8-1.36-.91-.55-1.98-1.09-2.76-1.83-1.78-1.36-3.31-3.04-4.35-4.82-1.05-1.78-1.65-3.66-1.86-5.41-.19-1.76-.04-3.39.35-4.76.76-2.75,2.18-4.38,2.18-4.38Z"/>
      <path class="st1" d="M343.36,316.5s.09-.29.27-.82c.11-.55.58-1.31.61-2.35.04-1.06.32-2.16.18-3.66-.06-1.46-.11-3.07-.29-4.87-.6-7.16-2.07-16.78-2.71-26.5-.25-4.85-.45-9.73-.1-14.29.02-2.28.48-4.48.72-6.55.35-2.07.9-4,1.38-5.76.72-1.73,1.25-3.32,2.08-4.62.91-1.26,1.54-2.41,2.32-3.21,1.74-1.49,2.74-2.23,2.74-2.23,0,0-.68,1.07-1.86,2.74-.52.88-.84,2.12-1.36,3.4-.43,1.33-.55,2.98-.96,4.63-.14,1.75-.33,3.63-.44,5.64.02,2.04-.11,4.14,0,6.38.1,4.44.36,9.22.72,14.02.59,9.59,1.2,19.31.47,26.59-.09,1.82-.46,3.48-.77,4.93-.21,1.44-.85,2.74-1.16,3.73-.28,1.04-1.04,1.59-1.3,2.08-.34.46-.53.7-.53.7Z"/>
      <path class="st1" d="M359.98,227.07s.95,3.05,2.38,7.63c1.4,4.55,3.09,10.74,3.38,17.15.11,3.19-.05,6.42-.75,9.39-.61,2.97-1.76,5.67-3.08,7.8-.55,1.11-1.4,1.98-2.03,2.79-.6.82-1.3,1.44-1.89,1.93-1.15,1-1.83,1.52-1.83,1.52,0,0,.34-.73.92-2,.33-.61.67-1.36.96-2.25.29-.89.75-1.83.98-2.94.6-2.17,1.1-4.71,1.3-7.49.21-1.37.07-2.84.21-4.29-.03-1.48.02-2.96-.13-4.48-.23-6.02-1-12.18-1.08-16.89-.07-2.34.06-4.35.23-5.73.23-1.36.42-2.13.42-2.13Z"/>
      <path class="st1" d="M192.84,141.61s-.85.22-2.34.61c-1.36.54-3.2,1.29-5.11,2.67-1.94,1.29-3.86,3.15-5.57,5.35-.93,1.05-1.57,2.34-2.38,3.55-.63,1.31-1.4,2.58-1.8,4.03-1.18,2.73-1.56,5.76-1.94,8.6.04,1.46-.22,2.85-.1,4.22.14,1.37.04,2.67.25,3.89.19,1.21.32,2.35.43,3.36.2,1.01.38,1.9.52,2.62.25,1.49.4,2.35.4,2.35,0,0-.51-.77-1.35-2.16-.91-1.38-1.93-3.44-2.86-6.01-.54-1.28-.79-2.7-1.17-4.21-.39-1.51-.45-3.11-.61-4.76.04-1.63-.03-3.36.29-5.03.31-1.67.65-3.37,1.28-4.96.53-1.63,1.46-3.08,2.26-4.55.94-1.4,1.96-2.7,3.14-3.82,1.05-1.21,2.44-2.07,3.64-2.94,1.3-.79,2.56-1.48,3.87-1.91,2.48-1.02,4.95-1.19,6.59-1.22,1.62.15,2.56.31,2.56.31Z"/>
      <path class="st1" d="M184.68,187.58s.51,1.62,1.73,3.46c1.22,1.84,3.07,3.9,5.46,5.36,1.14.81,2.42,1.44,3.65,2.04,1.23.6,2.44,1.08,3.5,1.53,1.08.45,1.97.82,2.6,1.09.64.27,1,.48,1,.48,0,0-.44.12-1.21.24-.74.05-1.9.38-3.17.31-1.3.01-2.79-.1-4.3-.5-1.53-.35-3.05-1.03-4.45-1.91-1.36-.93-2.58-2.09-3.42-3.44-.88-1.31-1.36-2.79-1.61-4.09-.42-2.68.23-4.57.23-4.57Z"/>
      <path class="st1" d="M161.53,164.01s-.85-1.76-1.78-5.01c-.45-1.62-.96-3.61-1.3-5.93-.4-2.31-.68-4.97-.48-7.88.08-2.92.71-6.07,1.79-9.38,1.41-3.19,3.16-6.73,6.58-9.41,3.11-2.92,7.48-4.83,11.97-6.19,2.29-.54,4.65-.85,6.99-1.28,2.43-.26,4.54-.37,6.83-.56,4.68-.17,9.39-.14,13.94.3,4.59.34,9,1.31,13.18,2.31,8.32,2.2,15.33,5.28,21.63,7.11,3.14.94,6.05,1.76,8.68,2.34,2.61.67,4.97.96,6.89,1.32,3.9.52,6.13.82,6.13.82,0,0-2.26.09-6.25.04-1.98-.15-4.42-.18-7.17-.56-2.77-.28-5.89-.78-9.19-1.58-6.64-1.52-14.08-3.92-22.01-5.74-3.99-.83-8.14-1.5-12.41-1.81-4.29-.37-8.64-.32-12.97-.14-2.2.16-4.61.27-6.63.47-2.04.37-4.14.6-6.12,1.04-3.8,1.17-7.55,2.49-10.2,4.86-2.9,2.12-4.7,4.98-6.24,7.73-1.24,2.89-2.12,5.76-2.46,8.51-.39,2.73-.55,5.29-.52,7.56-.02,2.27.17,4.27.36,5.9.37,3.28.77,5.15.77,5.15Z"/>
      <path class="st1" d="M54.69,205.87s.51,1.62,1.73,3.46c1.22,1.84,3.07,3.9,5.46,5.36,1.14.81,2.42,1.44,3.65,2.04,1.23.6,2.44,1.08,3.5,1.53,1.08.45,1.97.82,2.6,1.09.64.27,1,.48,1,.48,0,0-.44.12-1.21.24-.74.05-1.9.38-3.17.31-1.3.01-2.79-.1-4.3-.5-1.53-.35-3.05-1.03-4.45-1.91-1.36-.93-2.58-2.09-3.42-3.44-.88-1.31-1.36-2.79-1.61-4.09-.42-2.68.23-4.57.23-4.57Z"/>
      <path class="st1" d="M91.17,174.82s1.38,2.2,4.24,4.63c1.4,1.24,3.15,2.57,5.11,3.9,1.97,1.32,4.12,2.69,6.41,3.92,2.22,1.31,4.56,2.51,6.77,3.65,2.18,1.18,4.33,2.17,6.1,3.15,3.64,1.82,6.03,3.33,6.03,3.33,0,0-.74-.04-2.01-.17-1.26-.16-3.1-.33-5.2-.82-2.11-.48-4.57-1.07-7.07-2.03-2.55-.85-5.11-2.1-7.6-3.44-2.43-1.42-4.77-2.99-6.64-4.76-1.01-.81-1.77-1.8-2.56-2.64-.72-.91-1.38-1.77-1.85-2.65-1.03-1.69-1.51-3.25-1.67-4.34-.17-1.1-.06-1.72-.06-1.72Z"/>
      <path class="st1" d="M346.15,227.05s.39-1.8.64-4.41c.15-1.3.25-2.8.28-4.38-.04-1.59-.04-3.26-.39-4.92-.18-1.67-.73-3.3-1.27-4.82-.59-1.51-1.23-2.96-1.96-4.15-1.3-2.46-2.62-4.08-2.52-4.13,0,0,.48.25,1.27.76.77.53,1.99,1.23,3.09,2.39.6.54,1.24,1.16,1.74,1.9.54.72,1.19,1.47,1.58,2.34.97,1.68,1.67,3.62,1.97,5.55.31,1.94.26,3.87-.06,5.6-.33,1.73-.88,3.28-1.55,4.51-1.31,2.48-2.82,3.76-2.82,3.76Z"/>
      <path class="st1" d="M363.88,218.6s-.6-3.21-2-7.64c-.66-2.22-1.53-4.73-2.56-7.34-1.15-2.57-2.32-5.3-4.03-7.76-1.44-2.59-3.46-4.88-5.4-6.99-2-2.07-4.04-3.97-6.05-5.42-3.82-3.11-7.08-4.85-6.97-5.01,0,0,.95.08,2.6.37,1.62.33,4.09.64,6.68,1.77,1.35.48,2.81,1.03,4.14,1.9,1.37.81,2.96,1.57,4.19,2.73,2.75,2.08,5.22,4.76,7.05,7.7,1.85,2.95,3.08,6.14,3.77,9.19.65,3.06.82,5.96.59,8.43-.43,4.96-2.01,8.07-2.01,8.07Z"/>
      <path class="st1" d="M356.45,175.63s-.93-2.76-2.96-6.14c-2.02-3.39-5.02-7.39-8.77-10.69-1.8-1.74-3.79-3.27-5.69-4.72-1.91-1.45-3.78-2.71-5.41-3.86-1.66-1.15-3.05-2.11-4.02-2.79-.99-.7-1.55-1.17-1.55-1.17,0,0,.65,0,1.79.12,1.11.23,2.81.19,4.72.83,1.94.52,4.2,1.32,6.51,2.58,2.34,1.19,4.69,2.89,6.89,4.84,2.14,2.02,4.09,4.36,5.5,6.82,1.47,2.42,2.34,4.95,2.85,7.09.92,4.38.14,7.08.14,7.08Z"/>
      <path class="st1" d="M276.17,103.09s-3.84-2.31-9.6-4.62c-5.76-2.32-13.3-4.69-21.05-5.88-3.87-.73-7.76-1.13-11.47-1.5-3.72-.37-7.2-.56-10.29-.78-3.13-.21-5.74-.38-7.56-.5-1.87-.13-3.01-.3-3.01-.3,0,0,.77-.4,2.26-.94,1.56-.43,3.55-1.47,6.47-1.95,2.84-.62,6.32-1.14,10.34-1.2,3.97-.16,8.46.2,13.02.92,4.56.82,9.19,2.08,13.31,3.8,4.15,1.64,7.7,3.75,10.42,5.66,5.42,4,7.17,7.27,7.17,7.27Z"/>
      <path class="st1" d="M57.22,140.82s-1.18,1.22-2.2,3.17c-1.03,1.95-1.95,4.56-2.08,7.37-.16,1.39-.1,2.82-.04,4.18.06,1.37.23,2.66.34,3.81.12,1.16.22,2.13.3,2.8.07.69.05,1.11.05,1.11,0,0-.32-.33-.79-.94-.4-.63-1.24-1.48-1.79-2.63-.63-1.13-1.25-2.49-1.62-4.02-.43-1.51-.56-3.17-.46-4.82.16-1.64.6-3.26,1.37-4.65.72-1.4,1.8-2.54,2.81-3.38,2.15-1.66,4.12-2,4.12-2Z"/>
    </g>
  </g>
</svg>