<?xml version="1.0" encoding="UTF-8"?>
<svg id="Layer_1" xmlns="http://www.w3.org/2000/svg" version="1.1" viewBox="0 0 400 600">
  <!-- Generator: Adobe Illustrator 29.5.1, SVG Export Plug-In . SVG Version: 2.1.0 Build 141)  -->
  <defs>
    <style>
      .st0 {
        fill: #080808;
      }

      .st1, .st2 {
        fill: #fff;
      }

      .st3 {
        opacity: .25;
      }

      .st2, .st4 {
        opacity: .5;
      }
    </style>
  </defs>
  <g id="hair_8">
    <path id="hair" class="st0" d="M360.34,126.03c-2.64-7.74-7.11-17.7-13.73-28.05,3.15,21.68-5.35,41.57-5.35,41.57,0,0,9.01-45.05-32.53-79.92-11.61-9.75-28-14.24-46.25-16.77,0,0,31.65,39.68,33.1,58.99,0,0-13.47-11.67-82.98-69.84,0,0-18.65,23.62,16.14,65.45,0,0-39.88-53.07-103.63-56.54,0,0,41.37,35.75,39.87,53.19,0,0-23.28.81-95.59-41.82,0,0-9.72,31.97,40.03,61.91,0,0-39.27-21.14-98-1.36,0,0,56.4,19.63,62.31,33.65,0,0-30.07-14.68-67.64,12.56,8.56,5.09,51.65,28.39,47.27,69.39,0,0,70.82-32.32,134.6,10.96,0,0,75.77-39.27,158.72-21.74,0,0,34.2-31.44,13.66-91.62Z"/>
    <g id="details" class="st3">
      <path class="st2" d="M110.81,170.45c-10.34-14.87-10.93-31.48-25.28-41.91,23.91,3.48,40.77,15.67,61.87,27.89.32-17.76-4.75-35.48-14.26-49.87,28.24,3.29,54.73,19.48,71.46,43.69,3.51-18.21.43-37.66-8.46-53.41,20.19,9.67,37.16,26.59,47.55,47.4,7.97-17.31,9.05-37.98,2.91-55.85,19.29,9.91,26.93,17.88,38.14,31.79,6.89,8.55,11.99,25.3,12.65,36.63,14.28-15.33,29.62-33.39,28.69-54.75,8.98,24.46,8.55,52.84-1.18,77.33,15.36-5.07,29.33-14.73,40.32-27.31-.33-8.14-1.71-16.8-4.87-26.04-2.64-7.74-7.11-17.7-13.73-28.05,3.15,21.68-5.35,41.57-5.35,41.57,0,0,9.01-45.05-32.53-79.92-11.61-9.75-28-14.24-46.25-16.77,0,0,31.65,39.68,33.1,58.99,0,0-13.47-11.67-82.98-69.84,0,0-18.65,23.62,16.14,65.45,0,0-39.88-53.07-103.63-56.54,0,0,41.37,35.75,39.87,53.19,0,0-23.28.81-95.59-41.82,0,0-9.72,31.97,40.03,61.91,0,0-39.27-21.14-98-1.36,0,0,56.4,19.63,62.31,33.65,0,0-30.11-14.81-67.64,12.56,0,0,44.21,15.58,104.72,11.41Z"/>
      <g class="st4">
        <path class="st1" d="M75.43,176.4s.26.99.71,2.73c.57,1.66,1.33,3.99,2.75,6.54,1.37,2.55,3.26,5.33,5.81,7.84,1.15,1.35,2.74,2.42,4.17,3.63,1.54,1.12,3.15,2.2,4.95,3.06,1.65,1.04,3.62,1.68,5.43,2.48,1.99.51,3.75,1.4,5.75,1.73,1.94.43,3.78.96,5.67,1.17,1.86.27,3.59.64,5.28.73,1.68.17,3.22.33,4.58.47,1.4.07,2.62.13,3.62.18,2.02.16,3.18.25,3.18.25,0,0-1.2.28-3.3.76-2.11.5-5.14,1.05-8.76,1.27-1.83.23-3.77.18-5.82.12-2.08.03-4.2-.23-6.38-.57-2.22-.23-4.35-.9-6.54-1.47-2.06-.82-4.29-1.49-6.2-2.6-1.98-1.03-3.76-2.29-5.44-3.61-1.61-1.38-3.12-2.82-4.28-4.43-1.31-1.5-2.17-3.23-3.05-4.8-.72-1.66-1.4-3.22-1.73-4.79-.88-3.03-.86-5.81-.8-7.7.2-1.89.4-2.97.4-2.97Z"/>
        <path class="st1" d="M271.14,201.76s-1.56.14-4.27.26c-1.35-.16-3.11-.3-5.11-.67-1.81-.52-4.07-.93-6.19-1.83-4.44-1.59-9.15-4.17-13.62-7.46-2.1-1.74-4.44-3.46-6.29-5.56-1.95-2.04-3.77-4.21-5.31-6.55-1.65-2.27-2.64-4.85-3.79-7.27-.82-2.55-1.62-5.05-1.68-7.59-.44-2.5,0-4.94.41-7.21.23-2.29,1.54-4.3,2.24-6.16.91-1.82,2.31-3.3,3.28-4.64.89-1.4,2.35-2.25,3.24-3.09,1.95-1.59,3.09-2.41,3.09-2.41,0,0-.62,1.15-1.71,3.15-.49,1-1.4,2.06-1.78,3.51-.42,1.43-1.17,2.92-1.56,4.62-.11,1.76-.79,3.53-.62,5.49.05,1.95.1,3.96.68,6.03.21,2.1,1.38,4.13,2.04,6.27,1.09,2.04,1.98,4.21,3.51,6.15,1.25,2.06,2.77,4,4.42,5.85,1.6,1.87,3.36,3.63,5.09,5.31,3.61,3.26,7.3,6.12,10.79,8.26,1.71,1.13,3.47,1.88,4.95,2.76,1.58.66,2.96,1.23,4.09,1.71,2.6.67,4.09,1.06,4.09,1.06Z"/>
        <path class="st1" d="M158.1,192.89s1.54,2.35,4.73,4.96c1.56,1.33,3.51,2.75,5.7,4.18,2.19,1.41,4.6,2.88,7.16,4.19,2.48,1.4,5.09,2.69,7.56,3.91,2.44,1.26,4.83,2.32,6.81,3.38,4.06,1.94,6.72,3.57,6.72,3.57,0,0-.82-.04-2.24-.18-1.41-.17-3.46-.36-5.81-.88-2.35-.52-5.11-1.15-7.89-2.18-2.85-.92-5.71-2.24-8.48-3.69-2.71-1.52-5.32-3.21-7.42-5.1-1.13-.87-1.97-1.93-2.85-2.83-.8-.98-1.54-1.9-2.06-2.84-1.15-1.81-1.69-3.48-1.87-4.65-.19-1.18-.07-1.84-.07-1.84Z"/>
        <path class="st1" d="M285.01,151.84s-.74.95-2.11,2.53c-.98,1.71-2.27,3.97-2.8,7.09-.63,3-.65,6.58.19,10.25.21,1.86,1.09,3.66,1.66,5.52.76,1.83,1.59,3.65,2.74,5.34.87,1.83,2.32,3.35,3.47,5.01,1.52,1.38,2.56,3.16,4.17,4.38,1.51,1.29,2.84,2.72,4.41,3.77,1.52,1.09,2.86,2.3,4.32,3.13,1.42.94,2.72,1.79,3.87,2.55,1.23.69,2.3,1.29,3.18,1.78,1.77,1.09,2.78,1.71,2.78,1.71,0,0-1.21-.07-3.34-.33-2.16-.19-5.19-.73-8.67-1.96-3.5-1.14-7.47-3-11.19-5.74-1.96-1.25-3.63-2.99-5.4-4.66-1.48-1.9-3.26-3.68-4.43-5.87-1.3-2.1-2.25-4.38-3.07-6.67-.7-2.32-1.26-4.66-1.32-7-.3-2.3.09-4.59.36-6.7.54-2.11,1.05-4.08,2.05-5.76.72-1.75,1.99-3.11,2.94-4.3,1.08-1.17,2.31-1.99,3.13-2.66,1.92-.94,3.07-1.42,3.07-1.42Z"/>
        <path class="st1" d="M321.59,160.91s-1.14,2.58-2.29,6.41c-.61,1.9-1.2,4.12-1.72,6.49-.41,2.4-.89,4.92-.84,7.52-.21,2.56.16,5.2.56,7.67.47,2.47,1.04,4.86,1.81,6.89,1.3,4.14,2.86,7.01,2.7,7.06,0,0-.67-.54-1.74-1.58-1.04-1.05-2.72-2.52-4.08-4.63-.77-1.02-1.58-2.15-2.13-3.44-.62-1.27-1.42-2.61-1.76-4.05-1.01-2.86-1.52-6-1.43-9.01.09-3.02.74-5.9,1.74-8.4,1.03-2.49,2.33-4.63,3.72-6.26,2.76-3.29,5.47-4.7,5.47-4.7Z"/>
        <path class="st1" d="M340.05,209.71s.39-2.94.97-7.35c.59-4.37,1.58-10.22,3.86-15.55,1.16-2.64,2.57-5.18,4.34-7.24,1.69-2.11,3.73-3.73,5.71-4.8.9-.63,1.98-.92,2.83-1.26.84-.37,1.68-.53,2.38-.64,1.38-.24,2.16-.33,2.16-.33,0,0-.57.42-1.58,1.17-.52.33-1.11.77-1.71,1.35-.6.58-1.36,1.12-2,1.9-1.37,1.46-2.79,3.28-4.06,5.43-.72,1-1.17,2.27-1.86,3.37-.55,1.21-1.18,2.39-1.65,3.69-2.17,4.99-3.94,10.36-5.73,14.22-.86,1.94-1.77,3.5-2.45,4.53-.73.99-1.2,1.52-1.2,1.52Z"/>
        <path class="st1" d="M172.56,133.09s-.1.96-.28,2.64c.03,1.59.08,3.76.77,6.2.58,2.45,1.74,5.08,3.33,7.6.72,1.32,1.8,2.43,2.73,3.68,1.1,1.1,2.11,2.34,3.44,3.24,2.34,2.16,5.31,3.59,8.08,4.95,1.51.46,2.84,1.21,4.3,1.55,1.46.32,2.76.87,4.09,1.08,1.32.22,2.53.48,3.61.71,1.12.14,2.09.26,2.9.36,1.63.25,2.56.39,2.56.39,0,0-.98.27-2.74.66-1.77.46-4.27.82-7.28.9-1.52.12-3.08-.1-4.77-.23-1.7-.11-3.36-.6-5.12-1.01-1.65-.6-3.46-1.12-5.05-2.03-1.6-.89-3.2-1.83-4.6-3.03-1.47-1.11-2.6-2.57-3.8-3.89-1.07-1.45-2.01-2.96-2.7-4.55-.84-1.5-1.18-3.23-1.61-4.77-.3-1.62-.53-3.15-.46-4.66-.09-2.92.7-5.53,1.3-7.24.79-1.63,1.31-2.55,1.31-2.55Z"/>
        <path class="st1" d="M212.03,186.69s.81,2.6,2.81,5.52c2,2.93,5.05,6.19,9.04,8.49,1.9,1.27,4.04,2.25,6.08,3.18,2.05.93,4.08,1.67,5.84,2.37,1.8.69,3.3,1.27,4.34,1.68,1.07.42,1.66.75,1.66.75,0,0-.75.21-2.04.42-1.25.1-3.2.66-5.33.58-2.18.06-4.68-.08-7.22-.69-2.57-.52-5.1-1.57-7.43-2.95-2.26-1.46-4.27-3.3-5.66-5.44-1.45-2.08-2.22-4.46-2.6-6.55-.64-4.31.5-7.37.5-7.37Z"/>
        <path class="st1" d="M57.38,197.13s.57,1.74,1.93,3.7c1.36,1.97,3.42,4.17,6.1,5.75,1.27.86,2.71,1.54,4.07,2.18,1.37.64,2.73,1.16,3.9,1.64,1.2.48,2.2.88,2.9,1.16.71.29,1.11.52,1.11.52,0,0-.49.13-1.35.26-.83.05-2.12.41-3.53.33-1.45.01-3.11-.11-4.8-.54-1.71-.37-3.41-1.1-4.97-2.04-1.52-.99-2.88-2.24-3.82-3.68-.99-1.4-1.52-2.99-1.8-4.38-.47-2.87.25-4.9.25-4.9Z"/>
        <path class="st1" d="M115.7,180.8s1.54,2.35,4.73,4.96c1.56,1.33,3.51,2.75,5.7,4.18,2.19,1.41,4.6,2.88,7.16,4.19,2.48,1.4,5.09,2.69,7.56,3.91,2.44,1.26,4.83,2.32,6.81,3.38,4.06,1.94,6.72,3.57,6.72,3.57,0,0-.82-.04-2.24-.18-1.41-.17-3.46-.36-5.81-.88-2.35-.52-5.11-1.15-7.89-2.18-2.85-.92-5.71-2.24-8.48-3.69-2.71-1.52-5.32-3.21-7.42-5.1-1.13-.87-1.97-1.93-2.85-2.83-.8-.98-1.54-1.9-2.06-2.84-1.15-1.81-1.69-3.48-1.87-4.65-.19-1.18-.07-1.84-.07-1.84Z"/>
        <path class="st1" d="M264.35,136.76s-1.75,2.09-3.11,5.36c-1.37,3.26-2.45,7.61-2.22,12.2-.03,2.28.3,4.61.63,6.83.33,2.23.81,4.33,1.18,6.19.39,1.89.72,3.46.95,4.56.22,1.13.27,1.8.27,1.8,0,0-.58-.52-1.46-1.48-.77-1-2.3-2.33-3.39-4.16-1.23-1.8-2.48-3.98-3.34-6.43-.96-2.44-1.45-5.14-1.56-7.84,0-2.69.45-5.38,1.5-7.71.96-2.35,2.54-4.29,4.08-5.74,3.27-2.87,6.46-3.58,6.46-3.58Z"/>
        <path class="st1" d="M122.61,155.19s4.37,3.66,11.17,7.84c6.8,4.2,15.85,8.95,25.42,12.45,4.75,1.9,9.61,3.43,14.23,4.88,4.64,1.45,9.02,2.64,12.89,3.74,3.93,1.1,7.2,2.02,9.49,2.67,2.34.67,3.76,1.17,3.76,1.17,0,0-1.07.23-3.08.42-2.07.04-4.84.66-8.65.37-3.74-.1-8.28-.49-13.39-1.54-5.08-.93-10.7-2.58-16.33-4.67-5.6-2.19-11.21-4.9-16.05-7.96-4.9-2.99-8.94-6.34-11.97-9.24-6-5.99-7.48-10.13-7.48-10.13Z"/>
      </g>
    </g>
  </g>
</svg>