<?xml version="1.0" encoding="UTF-8"?>
<svg id="Layer_1" xmlns="http://www.w3.org/2000/svg" version="1.1" viewBox="0 0 400 600">
  <!-- Generator: Adobe Illustrator 29.5.1, SVG Export Plug-In . SVG Version: 2.1.0 Build 141)  -->
  <defs>
    <style>
      .st0 {
        fill: #222;
      }

      .st1 {
        fill: #fff;
        opacity: .15;
      }
    </style>
  </defs>
  <g id="hair_7">
    <path id="hair" class="st0" d="M334.44,261.74c2.9,11.13,9.74,38.76,8,54.76,0,0,9.67-7.46,14.25-25.89,2.3-4.3,4.14-14.59,6.96-80.35,3.19-74.09-37.71-108.57-88.72-130.53-32.37-13.94-120.79-19.43-156.6,9.65-14.74.31-49.11,5.57-60.43,47.04-8.01,29.32-22.83,119.49-16.22,140.02s7.08,26.97,16.58,40.06c0,0,9.04-45.02,19.29-71.46s34.25-44.23,40.58-51.06c9.33,16.91,25.55,33.09,52.42,46.02,0,0-17.55-39.45-15.69-59.02,1.83,5.48,3.04,11.27,5.41,16.78,14.28,33.19,34.54,41.53,51.73,40.5,0,0-11.66-18.1-10.15-53.22.76,2.29,1.53,4.56,2.28,6.97,10,31.98,37.08,36.86,55.34,53.21,3.76,3.37,50.41-16.5,50.88-16.26,8.61,4.43,21.18,21.65,24.09,32.78Z"/>
    <path id="details" class="st1" d="M337.34,160.58c-2.31-42.01-24.39-64.49-62.4-80.86-32.37-13.94-120.79-19.43-156.6,9.65-14.74.31-49.11,5.57-60.43,47.04-1.95,7.15-3.11,15.87-3.39,25.77,5.37,17.43,13.52,38.91,23.19,48,0,0,1.8-43.45,26.93-62.2,0,0,18.89,43.07,38.6,58.54,0,0-4.94-37.04,12.12-58.99,0,0,12.42,62.65,39.43,74.09,0,0-11.6-44.36,5.46-66.31,0,0,30.04,54.59,55.65,70.25-2.54-11.5-10.89-28.22-4.48-43.04,0,0,21.17-7.17,30.15,49.99,0,0,33.82-12.95,24.06-49.99,0,0,11.98,15.26,15.55,40.79,7.4-19.38,14.06-41.61,16.17-62.73ZM73.43,179.34c-2.23-5.5-1.98-12.28.64-17.72,1.38-2.87,3.94-5.61,6.72-5.07-3.92,6.89-6.46,14.75-7.36,22.8ZM79.87,122.44c-2.75,3.06-5.51,6.71-5.66,11.01-1.98-7.84,1.99-17.25,8.7-20.6,4.22-2.11,9.19-2.03,13.01-4.99-5.75,4.23-11.14,9.12-16.04,14.58ZM114.87,139.3c-2.23-5.5-1.98-12.28.64-17.72,1.38-2.87,3.94-5.61,6.72-5.07-3.92,6.89-6.46,14.75-7.36,22.8ZM134.47,164.24c-1.77,3.42-4.77,6.58-4.44,10.46-1.05-5.21-.91-10.84.82-15.91,1.73-5.08,5.11-9.55,9.46-11.84-3.18,5.08-3.07,11.92-5.84,17.29ZM152.71,100.27c-3.66,2.93-7.33,5.86-10.99,8.79,2.71-10.54,12.02-19.07,22.75-20.86-2.83,4.89-7.35,8.53-11.76,12.06ZM178.53,90.05c3.1,9.26-1.73,19.05-5.1,28.22-1.72-9.61.13-19.82,5.1-28.22ZM181.59,172.28c-1.74-9.24-4.65-19.23-.89-27.87,3.2,8.67,3.52,18.75.89,27.87ZM208.04,110.14c-.69-8.81-6.44-17.04-14.47-20.73,4.91,1.08,9.88,3.02,13.17,6.83,3.28,3.81,4.34,9.88,1.3,13.9ZM213.21,155.32c-1.74-9.24-4.65-19.23-.89-27.87,3.2,8.67,3.52,18.75.89,27.87ZM234.69,184.38c-3.23-9.42-8.26-19.68-3.14-28.15,5.39,8.94,6.52,19.12,3.14,28.15ZM249.99,136.28c.95-3.9-2.08-7.5-3.63-11.2-2.43-5.81-1.3-12.76-4.25-18.33,4.72,2.88,7.99,7.86,9.25,13.24,1.26,5.38.6,11.12-1.37,16.28ZM253.19,92.88c-5.7-1.47-9.92-6.5-15.55-8.21-2.02-.61-4.14-.78-6.24-.94-7.38-.57-14.77-1.13-22.15-1.7,7.6-1.85,15.42-2.84,23.24-2.94,3.19-.04,6.43.08,9.45,1.1,8.38,2.85,14.28,12.4,23.13,12.16-3.92.76-8.01,1.53-11.88.53ZM284.53,199.14c.95-3.9-2.08-7.5-3.63-11.2-2.43-5.81-1.3-12.76-4.25-18.33,4.72,2.88,7.99,7.86,9.25,13.24,1.26,5.38.6,11.12-1.37,16.28ZM277.42,124.83c3.31-.19,5.87,2.92,7.05,6.02,2.25,5.88,1.54,12.8-1.84,18.1.12-8.29-1.67-16.61-5.21-24.12ZM302.36,123.29c.46-4.39-2.21-8.46-4.96-11.92-4.89-6.17-10.43-11.84-16.48-16.87,4,3.5,9.77,4.06,14.35,6.74,7.3,4.27,10.53,14.33,7.09,22.05ZM307.96,154.32c8.9,2.88,15.76,12.13,16.77,22.63-2.75-3.23-5.51-6.46-8.26-9.69-3.32-3.89-6.7-7.9-8.51-12.94Z"/>
  </g>
</svg>