<?xml version="1.0" encoding="UTF-8"?>
<svg id="Layer_1" xmlns="http://www.w3.org/2000/svg" version="1.1" viewBox="0 0 400 600">
  <!-- Generator: Adobe Illustrator 29.5.1, SVG Export Plug-In . SVG Version: 2.1.0 Build 141)  -->
  <defs>
    <style>
      .st0 {
        fill: #fff;
      }

      .st1 {
        opacity: .4;
      }

      .st2 {
        fill: $[hairColor];
      }
    </style>
  </defs>
  <g id="hair_5">
    <path id="hair" class="st2" d="M346.16,161.31c10.37-16.42-29.01-90.5-145.23-86-113.38.68-150.91,68.4-144.95,85.82-14.95,9.64-31.24,20.72-14.95,96.3,8.36,38.78,15.6,51.01,15.6,51.01,13.85-38.56,9.13-23.56,22.05-48.05,19.54-37.02,10.34-35.07,13.88-45.73,3.51-2.59,12.13-5.01,22.09-7.3,30.29-6.98,131.97-9.77,162.26-2.78,9.96,2.3,31.65,1.91,31.65,1.91,3.54,10.66-4.52,25.22,14.6,53.9,15.36,23.04,8.2,9.5,22.05,48.05,0,0,7.24-12.23,15.6-51.01,16.2-75.11.2-86.52-14.67-96.12Z"/>
    <g id="details" class="st1">
      <g>
        <path class="st0" d="M53.36,193.64s-.36.92-1.06,2.5c-.64,1.58-1.39,3.86-2.1,6.64-1.47,5.54-2.47,13.06-2.71,20.63-.19,3.79-.09,7.58-.03,11.15.11,3.57.32,6.9.47,9.77.25,2.86.3,5.28.5,6.95.13,1.68.16,2.66.16,2.66,0,0-1.44-3.67-2.82-9.37-.65-2.85-1.27-6.21-1.65-9.84-.39-3.63-.54-7.53-.42-11.43.27-7.8,1.96-15.59,4.42-21.07,1.14-2.76,2.57-4.9,3.52-6.38,1.06-1.41,1.71-2.2,1.71-2.2Z"/>
        <path class="st0" d="M67.54,187.99s-.39.74-1.14,2c-.7,1.26-1.56,3.1-2.46,5.35-1.83,4.47-3.54,10.61-4.67,16.85-.63,3.12-1.03,6.27-1.45,9.23-.34,2.98-.65,5.76-.92,8.14-.23,2.41-.43,4.41-.57,5.82-.13,1.41-.26,2.23-.26,2.23,0,0-.83-3.18-1.35-8.05-.49-4.86-.39-11.43.8-17.91,1.2-6.47,3.64-12.8,6.44-17.1,1.33-2.17,2.84-3.8,3.83-4.93,1.08-1.06,1.75-1.63,1.75-1.63Z"/>
        <path class="st0" d="M71.12,212.04s-.17.69-.54,1.85c-.35,1.16-.85,2.81-1.46,4.8-1.19,3.95-2.5,9.17-3.44,14.51-1.02,5.33-1.89,10.73-2.76,14.78-.41,2.03-.89,3.71-1.15,4.9-.3,1.18-.52,1.86-.52,1.86,0,0-.39-2.77-.5-6.91-.08-4.14.17-9.67,1.2-15.16.99-5.5,3.01-10.89,5.14-14.64,2.14-3.75,4.03-5.99,4.03-5.99Z"/>
        <path class="st0" d="M86.39,199.03s-.21.64-.61,1.72c-.39,1.06-.96,2.56-1.64,4.37-1.36,3.57-3.07,8.16-4.75,12.87-1.71,4.69-3.46,9.46-4.93,13.03-1.47,3.57-2.59,5.95-2.59,5.95,0,0,.39-2.49,1.26-6.21.89-3.72,2.29-8.67,4.07-13.6,1.77-4.93,4.02-9.76,5.89-13.01,1.89-3.26,3.29-5.11,3.29-5.11Z"/>
        <path class="st0" d="M71.12,253.25s.31-.53.93-1.39c.58-.87,1.28-2.14,2.08-3.69,1.6-3.07,3.31-7.28,4.71-11.59,1.44-4.31,2.65-8.7,3.59-12.05.42-1.67.94-3.07,1.17-4.06.29-.99.51-1.55.51-1.55,0,0,.45,2.32.48,5.84,0,3.51-.63,8.2-2.11,12.74-1.5,4.53-3.95,8.85-6.5,11.65-1.22,1.43-2.53,2.43-3.39,3.13-.92.63-1.48.97-1.48.97Z"/>
        <path class="st0" d="M54.15,289.09s.23-.44.7-1.16c.44-.71.95-1.77,1.55-3.02,1.2-2.5,2.5-5.88,3.62-9.33,1.15-3.44,2.19-6.96,3.03-9.63.38-1.34.87-2.45,1.08-3.25.27-.79.48-1.24.48-1.24,0,0,.48,1.88.59,4.73.1,2.84-.35,6.65-1.56,10.32-1.22,3.67-3.27,7.16-5.41,9.39-2.12,2.28-4.09,3.2-4.09,3.2Z"/>
        <path class="st0" d="M49.38,275.27s.14-.4.45-1.04c.3-.63.59-1.56.96-2.64.74-2.17,1.52-5.04,2.2-7.96.71-2.91,1.37-5.88,1.96-8.15.25-1.13.64-2.09.79-2.76.2-.67.37-1.06.37-1.06,0,0,.63,1.54,1.01,3.92.37,2.37.31,5.59-.43,8.74-.76,3.14-2.27,6.18-3.98,8.14-1.69,2-3.34,2.83-3.34,2.83Z"/>
        <path class="st0" d="M45.22,183.57s-.21.57-.64,1.51c-.41.94-.85,2.3-1.33,3.94-.98,3.27-1.84,7.67-2.38,12.13-.57,4.46-.91,8.97-1.19,12.41-.09,1.71-.33,3.16-.37,4.18-.09,1.02-.2,1.6-.2,1.6,0,0-.9-2.22-1.61-5.69-.69-3.46-.98-8.17-.4-12.87.59-4.69,2.17-9.31,4.13-12.45.92-1.59,2.02-2.77,2.73-3.59.78-.76,1.27-1.17,1.27-1.17Z"/>
      </g>
      <g>
        <path class="st0" d="M348.6,193.64s.36.92,1.06,2.5c.64,1.58,1.39,3.86,2.1,6.64,1.47,5.54,2.47,13.06,2.71,20.63.19,3.79.09,7.58.03,11.15-.11,3.57-.32,6.9-.47,9.77-.25,2.86-.3,5.28-.5,6.95-.13,1.68-.16,2.66-.16,2.66,0,0,1.44-3.67,2.82-9.37.65-2.85,1.27-6.21,1.65-9.84.39-3.63.54-7.53.42-11.43-.27-7.8-1.96-15.59-4.42-21.07-1.14-2.76-2.57-4.9-3.52-6.38-1.06-1.41-1.71-2.2-1.71-2.2Z"/>
        <path class="st0" d="M334.43,187.99s.39.74,1.14,2c.7,1.26,1.56,3.1,2.46,5.35,1.83,4.47,3.54,10.61,4.67,16.85.63,3.12,1.03,6.27,1.45,9.23.34,2.98.65,5.76.92,8.14.23,2.41.43,4.41.57,5.82.13,1.41.26,2.23.26,2.23,0,0,.83-3.18,1.35-8.05.49-4.86.39-11.43-.8-17.91-1.2-6.47-3.64-12.8-6.44-17.1-1.33-2.17-2.84-3.8-3.83-4.93-1.08-1.06-1.75-1.63-1.75-1.63Z"/>
        <path class="st0" d="M330.85,212.04s.17.69.54,1.85c.35,1.16.85,2.81,1.46,4.8,1.19,3.95,2.5,9.17,3.44,14.51,1.02,5.33,1.89,10.73,2.76,14.78.41,2.03.89,3.71,1.15,4.9.3,1.18.52,1.86.52,1.86,0,0,.39-2.77.5-6.91.08-4.14-.17-9.67-1.2-15.16-.99-5.5-3.01-10.89-5.14-14.64-2.14-3.75-4.03-5.99-4.03-5.99Z"/>
        <path class="st0" d="M315.57,199.03s.21.64.61,1.72c.39,1.06.96,2.56,1.64,4.37,1.36,3.57,3.07,8.16,4.75,12.87,1.71,4.69,3.46,9.46,4.93,13.03,1.47,3.57,2.59,5.95,2.59,5.95,0,0-.39-2.49-1.26-6.21-.89-3.72-2.29-8.67-4.07-13.6-1.77-4.93-4.02-9.76-5.89-13.01-1.89-3.26-3.29-5.11-3.29-5.11Z"/>
        <path class="st0" d="M330.85,253.25s-.31-.53-.93-1.39c-.58-.87-1.28-2.14-2.08-3.69-1.6-3.07-3.31-7.28-4.71-11.59-1.44-4.31-2.65-8.7-3.59-12.05-.42-1.67-.94-3.07-1.17-4.06-.29-.99-.51-1.55-.51-1.55,0,0-.45,2.32-.48,5.84,0,3.51.63,8.2,2.11,12.74,1.5,4.53,3.95,8.85,6.5,11.65,1.22,1.43,2.53,2.43,3.39,3.13.92.63,1.48.97,1.48.97Z"/>
        <path class="st0" d="M347.82,289.09s-.23-.44-.7-1.16c-.44-.71-.95-1.77-1.55-3.02-1.2-2.5-2.5-5.88-3.62-9.33-1.15-3.44-2.19-6.96-3.03-9.63-.38-1.34-.87-2.45-1.08-3.25-.27-.79-.48-1.24-.48-1.24,0,0-.48,1.88-.59,4.73-.1,2.84.35,6.65,1.56,10.32,1.22,3.67,3.27,7.16,5.41,9.39,2.12,2.28,4.09,3.2,4.09,3.2Z"/>
        <path class="st0" d="M352.58,275.27s-.14-.4-.45-1.04c-.3-.63-.59-1.56-.96-2.64-.74-2.17-1.52-5.04-2.2-7.96-.71-2.91-1.37-5.88-1.96-8.15-.25-1.13-.64-2.09-.79-2.76-.2-.67-.37-1.06-.37-1.06,0,0-.63,1.54-1.01,3.92-.37,2.37-.31,5.59.43,8.74.76,3.14,2.27,6.18,3.98,8.14,1.69,2,3.34,2.83,3.34,2.83Z"/>
        <path class="st0" d="M356.74,183.57s.21.57.64,1.51c.41.94.85,2.3,1.33,3.94.98,3.27,1.84,7.67,2.38,12.13.57,4.46.91,8.97,1.19,12.41.09,1.71.33,3.16.37,4.18.09,1.02.2,1.6.2,1.6,0,0,.9-2.22,1.61-5.69.69-3.46.98-8.17.4-12.87-.59-4.69-2.17-9.31-4.13-12.45-.92-1.59-2.02-2.77-2.73-3.59-.78-.76-1.27-1.17-1.27-1.17Z"/>
      </g>
      <path class="st0" d="M332.58,203.9s-.19-.2-.55-.5c-.35-.3-.76-.78-1.28-1.33-1.01-1.1-2.21-2.62-3.35-4.19-1.16-1.56-2.3-3.16-3.23-4.36-.44-.61-.92-1.08-1.18-1.45-.29-.35-.5-.54-.5-.54,0,0-.09,1.09.18,2.62.28,1.52,1.05,3.43,2.29,5.12,1.24,1.68,3,3.1,4.64,3.82,1.64.75,2.99.8,2.99.8Z"/>
      <path class="st0" d="M69.03,203.9s.19-.2.55-.5c.35-.3.76-.78,1.28-1.33,1.01-1.1,2.21-2.62,3.35-4.19,1.16-1.56,2.3-3.16,3.23-4.36.44-.61.92-1.08,1.18-1.45.29-.35.5-.54.5-.54,0,0,.09,1.09-.18,2.62-.28,1.52-1.05,3.43-2.29,5.12-1.24,1.68-3,3.1-4.64,3.82-1.64.75-2.99.8-2.99.8Z"/>
      <path class="st0" d="M356.78,191.53s-.19-.2-.55-.5c-.35-.3-.76-.78-1.28-1.33-1.01-1.1-2.21-2.62-3.35-4.19-1.16-1.56-2.3-3.16-3.23-4.36-.44-.61-.92-1.08-1.18-1.45-.29-.35-.5-.54-.5-.54,0,0-.09,1.09.18,2.62.28,1.52,1.05,3.43,2.29,5.12,1.24,1.68,3,3.1,4.64,3.82,1.64.75,2.99.8,2.99.8Z"/>
      <path class="st0" d="M45.51,191.53s.19-.2.55-.5c.35-.3.76-.78,1.28-1.33,1.01-1.1,2.21-2.62,3.35-4.19,1.16-1.56,2.3-3.16,3.23-4.36.44-.61.92-1.08,1.18-1.45.29-.35.5-.54.5-.54,0,0,.09,1.09-.18,2.62-.28,1.52-1.05,3.43-2.29,5.12-1.24,1.68-3,3.1-4.64,3.82-1.64.75-2.99.8-2.99.8Z"/>
    </g>
  </g>
</svg>