<?xml version="1.0" encoding="UTF-8"?>
<svg id="Layer_1" xmlns="http://www.w3.org/2000/svg" version="1.1" viewBox="0 0 400 600">
  <!-- Generator: Adobe Illustrator 29.5.1, SVG Export Plug-In . SVG Version: 2.1.0 Build 141)  -->
  <defs>
    <style>
      .st0 {
        fill: #fff;
      }

      .st1 {
        opacity: .25;
      }

      .st2 {
        fill: #222;
      }
    </style>
  </defs>
  <path id="hair_elderly_1" class="st2" d="M388.82,203.1s-14.53-2.08-17.11-39.47c-2.3-33.26-36.23-42.13-36.23-42.13,11.83-10.68,10.3-34.81,10.3-34.81-8.13,4.15-30.26,17.6-57.62,1.38-27.36-16.22-49.54-10.11-49.54-10.11-19.96-19.81-59.15,2-59.15,2,0,0-29.7-7.96-66.54,7.12-22.56-6.48-38.48,2.09-30.19,3.78s11.71,5.81,9.69,6.78c-33.73,16.29-44.6,39.13-30.6,54.99,0,0-26.83,1.54-33.53,33.42-6.71,31.88,9.56,45.35-11.52,53.15,0,0,15.72,22.6,24.05,18.22,0,0,0,0,0,0,0,.06,2.21,40.59,11.75,57.46,0,0,7.38,7.01,11.87-.76-1.23-9.13.28-17.1,6.14-25.82s15.33-53.86,23.46-62.55c8.13-8.7,35.51-19.65,44.86-19.61s20.47,7.8,29.75,12.18c28.1,13.24,28.9-3.34,54.3.18,25.4,3.53,48.35-6.45,60.48-10.03s23.35-1.45,27.26,4.2c3.91,5.65,1.03,34.3,7.43,40.23,6.41,5.93,11.42,23.66,12.15,34.7s7.66,17.14,6.4,26.53c5.28,9.07,11.87.76,11.87.76,14.37-18.05,12.45-48.62,12.45-48.62,0,0,10.22-33.4,5.78-59.54-.02-.75-.04-1.5-.07-2.25,14.65,1.55,22.12-1.4,22.12-1.4Z"/>
  <g id="details" class="st1">
    <path class="st0" d="M86.95,177.28s-1.17-.89-3.11-2.53c-1.81-1.73-4.48-4.26-6.96-7.65-2.52-3.38-4.91-7.6-6.71-12.36-.69-2.42-1.68-4.9-1.94-7.53-.54-2.6-.49-5.29-.59-7.97.36-2.67.48-5.37,1.35-7.94.53-2.63,1.81-5.04,2.91-7.39,1.16-2.33,2.79-4.4,4.19-6.38,1.69-1.85,3.23-3.61,4.85-5.1,1.71-1.43,3.33-2.68,4.77-3.78,1.45-1.08,2.93-1.83,4.03-2.54,2.27-1.35,3.6-2.06,3.6-2.06,0,0-1,1.04-2.82,2.74-.88.87-2.09,1.81-3.2,3.07-1.08,1.29-2.29,2.72-3.67,4.22-1.24,1.59-2.36,3.41-3.72,5.21-1.03,1.95-2.23,3.96-3.15,6.12-.86,2.19-1.71,4.44-2.17,6.81-.74,2.32-.75,4.78-1.04,7.19.03,2.44-.09,4.88.35,7.28.21,2.41.82,4.75,1.31,7.03.77,2.23,1.28,4.45,2.18,6.47.75,2.06,1.71,3.94,2.52,5.71,1.8,3.49,3.46,6.35,4.84,8.3,1.44,1.94,2.2,3.08,2.2,3.08Z"/>
    <path class="st0" d="M67.6,173.69s.26.99.71,2.73c.57,1.66,1.33,3.99,2.75,6.54,1.37,2.55,3.26,5.33,5.81,7.84,1.15,1.35,2.74,2.42,4.17,3.63,1.54,1.12,3.15,2.2,4.95,3.06,1.65,1.04,3.62,1.68,5.43,2.48,1.99.51,3.75,1.4,5.75,1.73,1.94.43,3.78.96,5.67,1.17,1.86.27,3.59.64,5.28.73,1.68.17,3.22.33,4.58.47,1.4.07,2.62.13,3.62.18,2.02.16,3.18.25,3.18.25,0,0-1.2.28-3.3.76-2.11.5-5.14,1.05-8.76,1.27-1.83.23-3.77.18-5.82.12-2.08.03-4.2-.23-6.38-.57-2.22-.23-4.35-.9-6.54-1.47-2.06-.82-4.29-1.49-6.2-2.6-1.98-1.03-3.76-2.29-5.44-3.61-1.61-1.38-3.12-2.82-4.28-4.43-1.31-1.5-2.17-3.23-3.05-4.8-.72-1.66-1.4-3.22-1.73-4.79-.88-3.03-.86-5.81-.8-7.7.2-1.89.4-2.97.4-2.97Z"/>
    <path class="st0" d="M182.93,108.23s.4-.38,1.14-1.11c.83-.66,1.64-1.92,3.44-2.98.85-.58,1.8-1.22,2.83-1.92,1.08-.64,2.33-1.22,3.63-1.9,1.28-.73,2.78-1.27,4.35-1.88,1.56-.65,3.26-1.19,5.09-1.64,3.6-1.05,7.64-1.83,11.95-2.42,4.32-.59,8.94-.97,13.71-.93,4.77,0,9.73.2,14.68.88,2.49.28,4.98.65,7.45,1.15,2.5.4,4.95.99,7.39,1.61,4.88,1.23,9.6,2.9,14.1,4.78,4.51,1.98,8.37,4.26,12.31,6.1,3.81,1.69,7.76,3.23,11.65,4.24,3.89.98,7.72,1.66,11.3,1.77,7.15.35,13.24-.66,17.15-2.02,3.99-1.27,5.92-2.61,5.92-2.61,0,0-.44.36-1.26,1.03-.89.61-2.2,1.56-4.15,2.41-3.79,1.75-9.94,3.79-17.72,3.86-7.77.16-16.79-1.43-25.51-5.07-4.17-1.81-8.3-3.88-12.36-5.66-4.21-1.69-8.63-3.2-13.24-4.31-2.28-.61-4.58-1.19-6.93-1.59-2.32-.5-4.66-.88-7.02-1.17-4.67-.66-9.34-1.1-13.87-1.23-9.04-.31-17.58.22-24.6,1.72-1.79.29-3.42.76-4.98,1.2-1.57.41-3.1.78-4.4,1.33-1.33.51-2.63.94-3.75,1.43-1.08.55-2.06,1.06-2.96,1.51-1.87.85-3.03,1.94-3.97,2.48-.89.6-1.37.93-1.37.93Z"/>
    <path class="st0" d="M165.71,164.73s-1.24-.75-3.3-2.14c-1.07-.66-2.23-1.58-3.51-2.73-1.33-1.11-2.86-2.4-4.13-3.98-.69-.77-1.4-1.58-2.15-2.41-.62-.89-1.26-1.82-1.92-2.77-1.41-1.88-2.46-4.02-3.58-6.23-.94-2.25-2-4.59-2.59-7.06-.65-2.46-1.15-4.99-1.34-7.55-.28-2.55-.04-5.14.16-7.66.34-2.53.91-4.99,1.83-7.31.63-2.37,2.15-4.47,3.24-6.48,1.54-1.87,2.7-3.76,4.49-5.12.81-.71,1.59-1.39,2.33-2.03.79-.6,1.69-1.05,2.45-1.53,1.55-.93,2.86-1.74,4.16-2.16,2.47-.97,3.87-1.43,3.87-1.43,0,0-1.18.85-3.22,2.19-1.09.59-2.13,1.59-3.32,2.7-1.28,1.03-2.38,2.41-3.55,3.89-1.34,1.38-2.05,3.27-3.22,5-.71,1.93-1.78,3.85-2.19,6.02-.69,2.11-.87,4.37-1.18,6.65-.11,2.29-.27,4.64.05,6.97.1,2.35.5,4.67,1.04,6.95.51,2.28,1.19,4.51,1.92,6.64.92,2.09,1.56,4.2,2.63,6.05.92,1.91,1.9,3.68,2.97,5.26.96,1.64,2,3.03,2.95,4.29.89,1.28,1.78,2.38,2.65,3.21,1.61,1.73,2.47,2.77,2.47,2.77Z"/>
    <path class="st0" d="M247.7,202.34s-.55-.09-1.59-.25c-1.02-.17-2.57-.44-4.43-.99-3.73-1.07-8.97-3.14-14.15-6.89-5.11-3.76-10.05-9.3-12.5-16.21-2.47-6.86-2.02-15.02,1.86-22.06,1.87-3.53,4.37-6.82,7.31-9.7,2.81-2.78,6.45-5.52,10.09-7.46,7.48-4.06,15.95-5.6,22.91-5.63,7.03-.07,12.65,1.17,16.4,2.18,3.78,1.01,5.73,1.97,5.73,1.97,0,0-2.2-.46-6.04-.94-3.84-.46-9.41-.76-15.83-.12-6.39.65-13.66,2.47-19.96,6.24-3.26,1.91-6.03,3.97-8.72,6.73-2.61,2.62-4.93,5.48-6.6,8.56-1.67,3.08-2.74,6.34-3.2,9.61-.42,3.28-.06,6.56.76,9.66,1.71,6.21,5.67,11.56,9.97,15.44,4.29,3.93,8.93,6.47,12.38,7.86,3.43,1.45,5.61,1.99,5.61,1.99Z"/>
    <path class="st0" d="M272.45,199.99s-1.11.1-3.03.18c-.96-.11-2.21-.22-3.63-.47-1.28-.37-2.89-.66-4.4-1.3-3.15-1.13-6.5-2.96-9.67-5.3-1.49-1.23-3.15-2.46-4.47-3.95-1.39-1.45-2.68-2.99-3.77-4.65-1.17-1.61-1.88-3.44-2.69-5.16-.58-1.81-1.15-3.59-1.19-5.39-.31-1.77,0-3.51.29-5.12.16-1.62,1.09-3.05,1.59-4.37.65-1.29,1.64-2.34,2.33-3.29.63-.99,1.67-1.6,2.3-2.19,1.39-1.13,2.19-1.71,2.19-1.71,0,0-.44.81-1.21,2.24-.34.71-.99,1.46-1.26,2.49-.3,1.01-.83,2.08-1.11,3.28-.07,1.25-.56,2.51-.44,3.9.04,1.38.07,2.81.48,4.28.15,1.49.98,2.93,1.45,4.45.78,1.45,1.41,2.99,2.49,4.37.89,1.46,1.96,2.84,3.14,4.15,1.13,1.33,2.38,2.58,3.61,3.77,2.56,2.31,5.18,4.34,7.66,5.87,1.22.8,2.46,1.34,3.52,1.96,1.12.47,2.1.88,2.91,1.21,1.85.48,2.9.75,2.9.75Z"/>
    <path class="st0" d="M132.2,138.11s-.02.34-.06.98c.02.63-.24,1.59-.05,2.74.09,2.28.87,5.55,2.32,9.3.75,1.87,1.69,3.86,2.79,5.92,1.13,2.06,2.44,4.16,3.96,6.27,1.36,2.18,3.34,4.16,5.06,6.29,1.97,2,3.87,4.09,6.2,5.87,2.08,1.98,4.59,3.59,6.95,5.28,2.51,1.53,5,3.05,7.54,4.35,2.69,1.08,5.07,2.54,7.68,3.33,2.59.8,4.92,1.91,7.29,2.43,2.35.57,4.5,1.16,6.42,1.7,1.95.41,3.7.65,5.12.9,2.86.5,4.52.86,4.52.86,0,0-1.67.07-4.65.06-1.48-.03-3.3.01-5.38-.08-2.06-.21-4.4-.46-6.94-.81-2.58-.25-5.19-1.11-8.06-1.78-2.9-.62-5.64-1.91-8.62-2.99-2.83-1.29-5.75-2.71-8.48-4.38-2.62-1.79-5.41-3.5-7.71-5.62-2.48-1.99-4.49-4.28-6.56-6.48-1.85-2.31-3.68-4.6-5-6.99-1.5-2.32-2.57-4.71-3.49-6.98-.93-2.27-1.53-4.49-1.96-6.53-.87-4.11-.61-7.62-.17-10.04.07-1.22.71-2.04.87-2.66.25-.6.38-.93.38-.93Z"/>
    <path class="st0" d="M122.25,175.44s-.47-.48-1.34-1.39c-.81-.95-2.32-2.14-3.62-4.04-.7-.93-1.48-1.95-2.32-3.07-.72-1.17-1.5-2.43-2.34-3.78-1.57-2.73-3.25-5.9-4.41-9.5-.7-1.78-1.26-3.67-1.73-5.65-.58-1.96-.95-4.02-1.27-6.15-.74-4.25-.91-8.81-.57-13.51.56-4.68,1.33-9.59,3.42-14.33,1.81-4.8,4.85-9.42,8.69-13.57,3.72-4.15,9.38-7.55,14.45-9.94,5.86-2.67,12.08-3.7,18.07-4.04,5.99-.34,11.65.26,16.83.86,5.2.56,10.04,1.2,14.49,1.37,4.47.25,8.52.08,12.14-.21,1.78-.28,3.45-.54,4.99-.79,1.53-.3,2.87-.75,4.13-1.06,2.55-.59,4.32-1.5,5.64-1.92,1.3-.49,1.99-.75,1.99-.75,0,0-.63.34-1.83.97-1.24.56-2.84,1.76-5.35,2.55-1.23.43-2.56,1.02-4.09,1.46-1.57.39-3.26.82-5.07,1.27-3.7.65-7.98,1.21-12.65,1.14-9.31.14-20.04-1.52-30.83-.74-5.33.39-10.82,1.67-15.42,3.75-1.21.48-2.48,1.3-3.72,1.93l-1.87,1.02c-.22.19-.96.71-1.41,1.05-1.03.78-2.12,1.5-3.11,2.31l-2.7,2.65c-3.43,3.63-6.25,7.74-7.96,12.13-1.94,4.32-2.97,8.84-3.65,13.24-.43,4.42-.71,8.74-.33,12.83.14,2.05.32,4.04.73,5.95.29,1.92.67,3.77,1.21,5.52.9,3.53,2.08,6.7,3.23,9.49.63,1.38,1.23,2.68,1.77,3.87.67,1.15,1.28,2.21,1.84,3.16,1.04,1.95,2.25,3.36,2.9,4.37.7,1,1.08,1.53,1.08,1.53Z"/>
    <path class="st0" d="M158.1,192.89s1.54,2.35,4.73,4.96c1.56,1.33,3.51,2.75,5.7,4.18,2.19,1.41,4.6,2.88,7.16,4.19,2.48,1.4,5.09,2.69,7.56,3.91,2.44,1.26,4.83,2.32,6.81,3.38,4.06,1.94,6.72,3.57,6.72,3.57,0,0-.82-.04-2.24-.18-1.41-.17-3.46-.36-5.81-.88-2.35-.52-5.11-1.15-7.89-2.18-2.85-.92-5.71-2.24-8.48-3.69-2.71-1.52-5.32-3.21-7.42-5.1-1.13-.87-1.97-1.93-2.85-2.83-.8-.98-1.54-1.9-2.06-2.84-1.15-1.81-1.69-3.48-1.87-4.65-.19-1.18-.07-1.84-.07-1.84Z"/>
    <path class="st0" d="M56.02,171.32s-.31.22-.88.64c-.53.47-1.01,1.21-1.53,2.24-1.03,2.08-1.34,5.34-1.61,9.22-.47,7.79-.14,18.32-.81,28.91-.71,10.57-2.42,21.33-6.27,28.96-1.83,3.82-4.36,6.69-6.4,8.4-2.07,1.73-3.74,2.19-3.65,2.26,0,0,.27-.25.79-.72.56-.43,1.18-1.18,1.96-2.12,1.55-1.89,2.95-4.92,4.06-8.65,2.23-7.5,2.94-17.92,3.61-28.38.71-10.47,1.37-21.08,3.36-29.01.96-3.96,2.35-7.23,3.94-9.29,1.64-2.17,3.53-2.44,3.44-2.48Z"/>
    <path class="st0" d="M82.74,233.78s-1.04.7-2.71,2.09c-.83.69-1.81,1.53-2.85,2.66-1.09,1.03-2.15,2.45-3.39,3.83-1.14,1.53-2.39,3.12-3.56,4.98-1.25,1.77-2.29,3.88-3.47,5.95-1.08,2.16-2.12,4.41-3.04,6.79-1.05,2.31-1.7,4.87-2.52,7.33-.61,2.55-1.45,5.03-1.82,7.61-.25,1.27-.49,2.54-.73,3.79-.16,1.27-.33,2.52-.49,3.75-.36,2.46-.56,4.86-.69,7.15-.19,2.29-.31,4.46-.3,6.47,0,2.01-.13,3.87-.12,5.51.05,1.64.09,3.08.12,4.26.05,2.37.03,3.76.03,3.76,0,0-.32-1.29-.8-3.59-.46-2.3-1.2-5.6-1.52-9.7-.1-1.02-.21-2.09-.33-3.19-.02-1.12-.04-2.27-.07-3.45-.07-2.38-.1-4.89.18-7.5.14-2.61.42-5.31.95-8.03.36-2.74,1.19-5.43,1.82-8.17.93-2.63,1.68-5.35,2.85-7.82,1.01-2.56,2.33-4.87,3.58-7.11,1.35-2.17,2.67-4.25,4.16-5.99,1.38-1.85,2.91-3.33,4.28-4.72,2.87-2.64,5.49-4.35,7.42-5.34.92-.58,1.72-.74,2.23-.98.52-.2.8-.3.8-.3Z"/>
    <path class="st0" d="M266.61,182.93s-.32-.49-.92-1.4c-.54-.94-1.4-2.32-2.09-4.19-1.39-3.7-2.86-9.39-1.34-16.19.82-3.37,2.34-7,5.08-10.39,2.71-3.38,6.63-6.54,11.54-8.64,4.86-2.17,10.46-3.32,16.11-3.82,5.61-.39,11.5-.17,17.06.67,5.85.86,11.42,2.89,16.02,5.87,4.6,2.98,7.9,6.81,10.44,10.54,2.59,3.74,4.51,7.47,6.32,10.95,1.81,3.48,3.58,6.71,5.44,9.59,3.72,5.75,7.67,10.17,11.05,12.87,3.31,2.74,5.5,4.11,5.5,4.11,0,0-.59-.29-1.69-.82-1.12-.53-2.71-1.36-4.61-2.58-3.74-2.44-8.91-6.42-13.21-12.22-4.45-5.69-8.41-12.89-13.38-19.77-2.55-3.41-5.63-6.59-9.46-9.06-3.82-2.46-8.59-4.03-13.49-4.83-5.2-.84-10.36-1.06-15.5-.77-5.06.32-10,1.18-14.23,2.92-4.24,1.69-7.87,4.06-10.48,6.91-2.66,2.82-4.33,6.01-5.36,9.05-1.98,6.15-1.66,11.7-.74,15.41.43,1.87.91,3.33,1.3,4.31.42.98.64,1.5.64,1.5Z"/>
    <path class="st0" d="M313.02,130.43s1.3-.22,3.6-.49c2.32-.18,5.72-.46,9.81.05,2.03.28,4.27.63,6.49,1.35,2.23.67,4.6,1.52,6.73,2.73,2.23,1.12,4.31,2.5,6.3,3.99,1.89,1.56,3.8,3.16,5.44,4.91,1.74,1.71,3.09,3.58,4.56,5.36,1.44,1.79,2.5,3.71,3.71,5.47,2.14,3.64,3.9,7.1,5.09,10.15,1.35,3,2.05,5.62,2.61,7.42.49,1.82.77,2.86.77,2.86,0,0-.68-.92-1.87-2.52-1.12-1.61-2.71-3.91-4.62-6.67-1.86-2.76-4.15-5.91-6.56-9.26-2.58-3.26-5.2-6.79-8.37-9.92-1.46-1.66-3.14-3.12-4.79-4.57-1.77-1.33-3.4-2.76-5.27-3.82-1.79-1.15-3.66-2.12-5.53-2.91-1.85-.82-3.73-1.41-5.49-1.94-3.57-.99-6.77-1.4-9.02-1.75-2.29-.29-3.6-.45-3.6-.45Z"/>
    <path class="st0" d="M331.8,180.6s1.01,0,2.72.39c1.69.4,4.11,1.16,6.63,2.6,1.28.71,2.56,1.59,3.78,2.63,1.22,1.03,2.44,2.21,3.48,3.51,2.14,2.6,3.84,5.66,4.95,8.82.65,1.57.93,3.18,1.31,4.76.46,1.57.5,3.15.64,4.66.38,3.03.03,5.84-.14,8.24-.03,1.2-.38,2.28-.56,3.25-.21.96-.39,1.8-.55,2.48-.32,1.37-.56,2.15-.56,2.15,0,0-.15-.8-.3-2.19-.07-.69-.15-1.53-.24-2.49-.13-.96-.13-2.04-.33-3.2-.41-2.33-.53-5.05-1.2-7.9-.24-1.43-.53-2.9-.97-4.36-.4-1.47-.72-2.98-1.36-4.4-.94-2.94-2.42-5.71-4.03-8.19-1.71-2.43-3.56-4.62-5.58-6.21-3.89-3.33-7.71-4.54-7.71-4.54Z"/>
    <path class="st0" d="M291.76,162.71s-.71.49-2,1.28c-1.02.93-2.37,2.16-3.3,4.05-.99,1.8-1.63,4.06-1.67,6.51-.18,1.2.15,2.48.24,3.74.23,1.27.52,2.55,1.07,3.79.31,1.29,1.11,2.47,1.66,3.69.87,1.1,1.32,2.39,2.28,3.4.88,1.04,1.6,2.15,2.57,3.05.92.92,1.69,1.89,2.61,2.64.87.81,1.68,1.55,2.39,2.2.78.62,1.46,1.16,2.02,1.61,1.11.96,1.74,1.5,1.74,1.5,0,0-.87-.23-2.39-.72-1.55-.45-3.67-1.25-6.01-2.56-2.36-1.25-4.94-3.03-7.19-5.33-1.22-1.09-2.13-2.44-3.13-3.76-.75-1.43-1.74-2.82-2.21-4.38-.58-1.53-.87-3.11-1.08-4.68-.1-1.57-.1-3.14.26-4.62.19-1.5.87-2.89,1.44-4.18.77-1.25,1.49-2.42,2.52-3.33.84-.99,2.01-1.66,2.91-2.27,1-.58,2.04-.91,2.76-1.21,1.57-.3,2.5-.43,2.5-.43Z"/>
    <path class="st0" d="M310.85,166.96s.12,1.97.64,4.74c.23,1.38.58,2.96,1.02,4.6.52,1.63,1.03,3.35,1.9,4.96.7,1.67,1.77,3.19,2.82,4.6,1.09,1.39,2.21,2.69,3.35,3.71,2.14,2.16,4.04,3.45,3.96,3.53,0,0-.59-.12-1.59-.42-.99-.32-2.51-.7-4.04-1.57-.81-.39-1.68-.84-2.44-1.46-.79-.59-1.72-1.17-2.4-1.96-1.55-1.46-2.88-3.25-3.79-5.16-.92-1.91-1.44-3.92-1.62-5.8-.16-1.88-.03-3.63.31-5.1.66-2.94,1.9-4.69,1.9-4.69Z"/>
    <path class="st0" d="M326.94,227.97s-.02.32-.05.93c.04.6-.24,1.51.02,2.6.27,1.11.28,2.32.87,3.83.49,1.49,1.01,3.14,1.74,4.95,2.74,7.23,7.12,16.76,10.65,26.63,1.68,4.95,3.32,9.94,4.28,14.75.64,2.36.79,4.76,1.13,6.97.23,2.24.2,4.39.19,6.34-.27,1.99-.38,3.79-.89,5.36-.61,1.56-.96,2.92-1.56,3.96-1.44,2.03-2.3,3.07-2.3,3.07,0,0,.42-1.3,1.2-3.35.3-1.05.28-2.42.47-3.9.08-1.5-.28-3.23-.31-5.06-.36-1.85-.71-3.85-1.17-5.95-.62-2.1-1.09-4.31-1.85-6.6-1.41-4.56-3.08-9.43-4.86-14.29-3.43-9.74-6.93-19.63-8.27-27.35-.44-1.9-.52-3.72-.61-5.31-.2-1.55.12-3.07.17-4.18,0-1.16.66-1.93.8-2.52.24-.57.36-.88.36-.88Z"/>
    <path class="st0" d="M323.83,209.82s2.83,2.08,7.08,5.2c4.21,3.11,9.73,7.48,14.13,12.9,2.16,2.72,4.09,5.65,5.37,8.67,1.36,2.98,2.05,6.04,2.21,8.73.22,1.3,0,2.6-.05,3.69-.02,1.09-.26,2.06-.47,2.86-.41,1.58-.69,2.46-.69,2.46,0,0-.16-.84-.45-2.32-.09-.73-.26-1.6-.58-2.56-.31-.96-.5-2.06-1-3.18-.85-2.27-2.03-4.8-3.64-7.35-.69-1.33-1.77-2.52-2.57-3.88-.98-1.27-1.9-2.6-3-3.84-4.08-5.12-8.76-10.03-11.86-14.11-1.58-2-2.75-3.85-3.48-5.15-.66-1.33-.99-2.12-.99-2.12Z"/>
    <path class="st0" d="M204.61,132.31s-.7.66-1.93,1.82c-1.01,1.22-2.39,2.9-3.47,5.2-1.16,2.23-2,4.98-2.43,7.93-.31,1.47-.23,3.02-.33,4.57.12,1.55.07,3.14.49,4.7.37,3.16,1.68,6.19,2.89,9.03.85,1.34,1.37,2.77,2.24,3.98.89,1.19,1.52,2.46,2.39,3.48.86,1.03,1.61,2.01,2.27,2.9.76.83,1.42,1.56,1.96,2.16,1.07,1.25,1.69,1.97,1.69,1.97,0,0-.92-.44-2.51-1.29-1.64-.8-3.77-2.17-6.1-4.07-1.23-.9-2.27-2.09-3.46-3.29-1.22-1.19-2.15-2.65-3.23-4.11-.86-1.53-1.89-3.11-2.5-4.83-.63-1.72-1.23-3.47-1.51-5.29-.39-1.8-.3-3.64-.34-5.43.14-1.8.41-3.55.92-5.21.34-1.68,1.21-3.22,1.89-4.67.83-1.42,1.66-2.73,2.69-3.83,1.84-2.27,4.14-3.74,5.71-4.64,1.66-.72,2.65-1.08,2.65-1.08Z"/>
    <path class="st0" d="M210.51,197.13s.57,1.74,1.93,3.7c1.36,1.97,3.42,4.17,6.1,5.75,1.27.86,2.71,1.54,4.07,2.18,1.37.64,2.73,1.16,3.9,1.64,1.2.48,2.2.88,2.9,1.16.71.29,1.11.52,1.11.52,0,0-.49.13-1.35.26-.83.05-2.12.41-3.53.33-1.45.01-3.11-.11-4.8-.54-1.71-.37-3.41-1.1-4.97-2.04-1.52-.99-2.88-2.24-3.82-3.68-.99-1.4-1.52-2.99-1.8-4.38-.47-2.87.25-4.9.25-4.9Z"/>
    <path class="st0" d="M181.48,161.37s-.95-1.89-1.99-5.36c-.5-1.74-1.07-3.87-1.45-6.35-.45-2.48-.76-5.32-.54-8.43.09-3.12.79-6.5,2-10.05,1.57-3.41,3.53-7.2,7.34-10.08,3.47-3.13,8.34-5.17,13.36-6.63,2.55-.58,5.19-.91,7.81-1.37,2.72-.28,5.07-.4,7.62-.6,5.23-.18,10.48-.15,15.56.32,5.12.36,10.05,1.41,14.71,2.48,9.29,2.35,17.1,5.66,24.14,7.61,3.51,1.01,6.75,1.88,9.68,2.5,2.91.71,5.55,1.03,7.69,1.42,4.35.56,6.84.88,6.84.88,0,0-2.52.1-6.97.04-2.21-.16-4.93-.19-8-.6-3.09-.3-6.57-.84-10.25-1.69-7.41-1.63-15.72-4.2-24.56-6.14-4.45-.89-9.08-1.6-13.85-1.93-4.79-.4-9.64-.35-14.47-.15-2.46.17-5.14.29-7.4.5-2.28.39-4.62.65-6.83,1.12-4.24,1.25-8.43,2.67-11.38,5.2-3.24,2.27-5.24,5.33-6.97,8.28-1.38,3.09-2.37,6.17-2.74,9.11-.43,2.92-.61,5.67-.58,8.1-.03,2.44.19,4.57.4,6.32.41,3.51.86,5.51.86,5.51Z"/>
    <path class="st0" d="M62.25,206.2s.57,1.74,1.93,3.7c1.36,1.97,3.42,4.17,6.1,5.75,1.27.86,2.71,1.54,4.07,2.18,1.37.64,2.73,1.16,3.9,1.64,1.2.48,2.2.88,2.9,1.16.71.29,1.11.52,1.11.52,0,0-.49.13-1.35.26-.83.05-2.12.41-3.53.33-1.45.01-3.11-.11-4.8-.54-1.71-.37-3.41-1.1-4.97-2.04-1.52-.99-2.88-2.24-3.82-3.68-.99-1.4-1.52-2.99-1.8-4.38-.47-2.87.25-4.9.25-4.9Z"/>
    <path class="st0" d="M102.96,172.94s1.54,2.35,4.73,4.96c1.56,1.33,3.51,2.75,5.7,4.18,2.19,1.41,4.6,2.88,7.16,4.19,2.48,1.4,5.09,2.69,7.56,3.91,2.44,1.26,4.83,2.32,6.81,3.38,4.06,1.94,6.72,3.57,6.72,3.57,0,0-.82-.04-2.24-.18-1.41-.17-3.46-.36-5.81-.88-2.35-.52-5.11-1.15-7.89-2.18-2.85-.92-5.71-2.24-8.48-3.69-2.71-1.52-5.32-3.21-7.42-5.1-1.13-.87-1.97-1.93-2.85-2.83-.8-.98-1.54-1.9-2.06-2.84-1.15-1.81-1.69-3.48-1.87-4.65-.19-1.18-.07-1.84-.07-1.84Z"/>
  </g>
</svg>