<svg xmlns="http://www.w3.org/2000/svg" viewBox="0 0 75 50" width="75" height="50">
	<defs>
		<pattern id="star" x="10" y="10" width="1" height="1" patternUnits="userSpaceOnUse">
		  <polygon points="0,0 2,5 0,10 5,8 10,10 8,5 10,0 5,2" />
		</pattern>
	</defs>
	<style>
		tspan { white-space:pre }
		.white { fill: #f5f3ee } 
		.black{fill:#000000;}
		.eyeColor { fill:$[eyeColor];stroke:#272727;stroke-width:0.5}
	</style>
	<g id="eye">
		<path id="Shape 1" class="white" d="M5.55 28.46C5.55 28.46 17.08 11.77 40 11.77C62.92 11.77 68.58 28.46 68.58 28.46C68.58 28.46 62.85 39.92 39.93 39.92C17.01 39.92 5.55 28.46 5.55 28.46Z" />
		<path class="eyeColor" d="M39.93 33.04C33.59 33.04 28.47 27.92 28.47 21.58 28.47 15.25 33 11 40 12 46 11 51.39 15.25 51.39 21.58 51.39 27.92 46.27 33.04 39.93 33.04Z" />
		<path class="black" d="M39.965 27.52C36.795 27.52 34.235 24.96 34.235 21.79 34.235 18.625 36.795 16.06 39.965 16.06 43.135 16.06 45.695 18.625 45.695 21.79 45.695 24.96 43.135 27.52 39.965 27.52Z" />
		<path fill="url(#star)" opacity="0.3" stroke="#272727" stroke-width="0.5" d="M39.93 33.04C33.59 33.04 28.47 27.92 28.47 21.58 28.47 15.25 33 11 40 12 46 11 51.39 15.25 51.39 21.58 51.39 27.92 46.27 33.04 39.93 33.04Z" />
		<path id="Layer 2" class="black" d="M5.55 28.46C2.68 25.6 17.08 9.77 40 9.77C62.92 9.77 71.44 25.6 68.58 28.46C65.71 31.33 62.92 16.27 40 16.27C17.08 16.27 8.41 31.33 5.55 28.46Z" />
		<path id="Shape 3" class="black" d="" />
	</g>
</svg>