<?xml version="1.0" encoding="UTF-8" standalone="no"?>
<svg
   xmlns:dc="http://purl.org/dc/elements/1.1/"
   xmlns:cc="http://creativecommons.org/ns#"
   xmlns:rdf="http://www.w3.org/1999/02/22-rdf-syntax-ns#"
   xmlns:svg="http://www.w3.org/2000/svg"
   xmlns="http://www.w3.org/2000/svg"
   xmlns:sodipodi="http://sodipodi.sourceforge.net/DTD/sodipodi-0.dtd"
   xmlns:inkscape="http://www.inkscape.org/namespaces/inkscape"
   viewBox="0 0 400 600"
   width="400"
   height="600"
   version="1.1"
   id="svg1258"
   sodipodi:docname="eye14.svg"
   inkscape:version="1.0 (4035a4fb49, 2020-05-01)">
  <metadata
     id="metadata1264">
    <rdf:RDF>
      <cc:Work
         rdf:about="">
        <dc:format>image/svg+xml</dc:format>
        <dc:type
           rdf:resource="http://purl.org/dc/dcmitype/StillImage" />
        <dc:title></dc:title>
      </cc:Work>
    </rdf:RDF>
  </metadata>
	<defs>
		<pattern id="star" x="10" y="10" width="1" height="1" patternUnits="userSpaceOnUse">
		  <polygon points="0,0 2,5 0,10 5,8 10,10 8,5 10,0 5,2" />
		</pattern>
	</defs>
  <sodipodi:namedview
     inkscape:document-rotation="0"
     pagecolor="#ffffff"
     bordercolor="#666666"
     borderopacity="1"
     objecttolerance="10"
     gridtolerance="10"
     guidetolerance="10"
     inkscape:pageopacity="0"
     inkscape:pageshadow="2"
     inkscape:window-width="2560"
     inkscape:window-height="1417"
     id="namedview1260"
     showgrid="false"
     inkscape:zoom="15.44"
     inkscape:cx="281.00606"
     inkscape:cy="331.97568"
     inkscape:window-x="1912"
     inkscape:window-y="-8"
     inkscape:window-maximized="1"
     inkscape:current-layer="eye3" />
  <style
     id="style1248">
		tspan { white-space:pre }
		.shp0 { fill: none;stroke: #000000;stroke-linecap:round;stroke-linejoin:round;stroke-width: 5 } 
		.shp1 { fill: #ffffff;stroke: #000000;stroke-linecap:round;stroke-linejoin:round;stroke-width: 5 }
		.black{fill:#000000;}
		.eyeColor { fill:$[eyeColor];stroke:#272727;stroke-width:0.5}
	</style>
  <g id="eye3">
    <path
       id="path1251"
       class="shp1"
       d="m 259.00957,349.53965 c -13.86594,-0.39802 -24.57938,-15.35031 -24.57938,-28.3114 14.97436,0.007 34.49188,0.10017 51.24971,-0.27478 0.2044,12.79035 -11.73707,29.01483 -26.67033,28.58618 z"
       sodipodi:nodetypes="sccs" />
    <path id="path1253" class="shp1" d="" />
    <path id="path1255" class="eyeColor" d="m 259.55151,325.17695 c -10,0 -10,15 0,15 10,0 10,-15 0,-15 z" />
	<path class="black" d="M259.7 337.7C257.044 337.7 254.9 335.556 254.9 332.9 254.9 330.244 257.044 328.1 259.7 328.1 262.356 328.1 264.5 330.244 264.5 332.9 264.5 335.556 262.356 337.7 259.7 337.7Z" />
    <path fill="url(#star)" opacity="0.3" stroke="#272727" stroke-width="0.5" d="m 259.55151,325.17695 c -10,0 -10,15 0,15 10,0 10,-15 0,-15 z" />
  </g>
</svg>
