<svg xmlns="http://www.w3.org/2000/svg" viewBox="0 0 75 50" width="75" height="50">
	<defs>
		<pattern id="star" viewBox="0,0,10,10" width="20%" height="20%">
		  <polygon points="0,0 2,5 0,10 5,8 10,10 8,5 10,0 5,2" />
		</pattern>
	</defs>
	<style>
		tspan { white-space:pre }
		.white { fill: #f5f3ee }
		.black{fill:#000000;}
		.eyeColor { fill:lime;stroke:#272727;stroke-width:0.5}
	</style>
	
	<g id="eye">
		<path id="white" class="white" d="M5 35C5 35 17.08 5 40 5C62.92 5 70 35 70 35C70 35 62.85 42.92 39.93 42.92C17.01 42.92 5 35 5 35Z" />
		<path id="black" class="black" d="M5 35.6C2.13 32.73 17.08 1.88 40 1.88C62.92 1.88 72.87 32.13 70 35C67.13 37.87 62.92 6.73 40 6.73C17.08 6.73 7.87 38.46 5 35.6Z" />
		<path class="eyeColor"  d="M40.916 35.536C35.48 35.536 31.076 31.144 31.076 25.696 31.076 20.26 35.48 15.868 40.916 15.868 46.352 15.868 50.744 20.26 50.744 25.696 50.744 31.144 46.352 35.536 40.916 35.536Z" />
		
		<path id="Shape 2" class="black" d="M40.965 31.52C37.795 31.52 35.235 28.96 35.235 25.79 35.235 22.625 37.795 20.06 40.965 20.06 44.135 20.06 46.695 22.625 46.695 25.79 46.695 28.96 44.135 31.52 40.965 31.52Z" />
		
		<path fill="url(#star)" opacity="0.3" stroke="#272727" stroke-width="0.5" d="M40.916 35.536C35.48 35.536 31.076 31.144 31.076 25.696 31.076 20.26 35.48 15.868 40.916 15.868 46.352 15.868 50.744 20.26 50.744 25.696 50.744 31.144 46.352 35.536 40.916 35.536Z" />
		<path id="Shape 1" class="shp1" d="" />
		
		
	</g>
</svg>