<?xml version="1.0" encoding="UTF-8" standalone="no"?>
<svg
   xmlns:dc="http://purl.org/dc/elements/1.1/"
   xmlns:cc="http://creativecommons.org/ns#"
   xmlns:rdf="http://www.w3.org/1999/02/22-rdf-syntax-ns#"
   xmlns:svg="http://www.w3.org/2000/svg"
   xmlns="http://www.w3.org/2000/svg"
   xmlns:sodipodi="http://sodipodi.sourceforge.net/DTD/sodipodi-0.dtd"
   xmlns:inkscape="http://www.inkscape.org/namespaces/inkscape"
   inkscape:version="1.0 (4035a4fb49, 2020-05-01)"
   sodipodi:docname="eye10.svg"
   id="svg1258"
   version="1.1"
   height="600"
   width="400"
   viewBox="0 0 400 600">
  <metadata
     id="metadata1264">
    <rdf:RDF>
      <cc:Work
         rdf:about="">
        <dc:format>image/svg+xml</dc:format>
        <dc:type
           rdf:resource="http://purl.org/dc/dcmitype/StillImage" />
      </cc:Work>
    </rdf:RDF>
  </metadata>
	<defs>
		<pattern id="star" x="10" y="10" width="1" height="1" patternUnits="userSpaceOnUse">
		  <polygon points="0,0 2,5 0,10 5,8 10,10 8,5 10,0 5,2" />
		</pattern>
	</defs>
  <sodipodi:namedview
     inkscape:current-layer="eye3"
     inkscape:window-maximized="1"
     inkscape:window-y="-8"
     inkscape:window-x="1912"
     inkscape:cy="340.67238"
     inkscape:cx="269.13445"
     inkscape:zoom="10.917729"
     showgrid="false"
     id="namedview1260"
     inkscape:window-height="1417"
     inkscape:window-width="2560"
     inkscape:pageshadow="2"
     inkscape:pageopacity="0"
     guidetolerance="10"
     gridtolerance="10"
     objecttolerance="10"
     borderopacity="1"
     bordercolor="#666666"
     pagecolor="#ffffff" />
  <style
     id="style1248">
		tspan { white-space:pre }
		.shp0 { fill: none;stroke: #000000;stroke-linecap:round;stroke-linejoin:round;stroke-width: 5 } 
		.shp1 { fill: #ffffff;stroke: #000000;stroke-linecap:round;stroke-linejoin:round;stroke-width: 5 }
		.black{fill:#000000;}
		.eyeColor { fill:$[eyeColor];stroke:#272727;stroke-width:0.5}
  </style>
  <g id="eye3">
    <path
       sodipodi:nodetypes="sccs"
       d="m 259.00957,349.53965 c -13.86594,-0.39802 -24.70891,-6.08865 -24.70891,-19.04974 10.69975,-18.06303 40.38566,-18.35838 51.24971,-0.27478 4.41424,12.20745 -11.60754,19.75317 -26.5408,19.32452 z"
       class="shp1"
       id="path1251" />
    <path
       d=""
       class="shp1"
       id="path1253" />
    <path d="m259.4618 324.2123c-12 0-12 18 0 18 12 0 12-18 0-18z" class="eyeColor" id="path1255" />
	<path class="black" d="M259.7 337.7C257.044 337.7 254.9 335.556 254.9 332.9 254.9 330.244 257.044 328.1 259.7 328.1 262.356 328.1 264.5 330.244 264.5 332.9 264.5 335.556 262.356 337.7 259.7 337.7Z" />
    <path fill="url(#star)" opacity="0.3" stroke="#272727" stroke-width="0.5" d="m259.4618 324.2123c-12 0-12 18 0 18 12 0 12-18 0-18z" />
  </g>
</svg>
