<svg xmlns="http://www.w3.org/2000/svg" viewBox="0 0 60 40" width="60" height="40">
	<defs>
		<pattern id="star" x="10" y="10" width="1" height="1" patternUnits="userSpaceOnUse">
		  <polygon points="0,0 2,5 0,10 5,8 10,10 8,5 10,0 5,2" />
		</pattern>
	</defs>
	<style>
		tspan { white-space:pre }
		.shp0 { fill: #ffffff;stroke: #000000;stroke-width: 5 } 
		.shp1 { fill: #000000;stroke: $[eyeColor];stroke-width: 5 } 
		.eyeColor { fill: $[eyeColor];stroke:#272727;stroke-width:0.5}
	</style>
	<g id="eye2">
		<path class="shp0" d="M55.37 34.72C55.37 34.72 58.4 2.3 28.53 5.07C-1.35 7.83 7.21 35.16 7.21 35.16" />
		<path class="eyeColor" d="M32.11 31.455C27.145 31.905 22.78 28.275 22.315 23.31 21.85 18.36 25.495 13.98 30.445 13.53 35.41 13.065 39.775 16.695 40.24 21.66 40.69 26.61 37.06 30.99 32.11 31.455Z" />
		<path class="shp1" d="M31.37 25.485C29.715 25.635 28.26 24.425 28.105 22.77 27.95 21.12 29.165 19.66 30.815 19.51 32.47 19.355 33.925 20.565 34.08 22.22 34.23 23.87 33.02 25.33 31.37 25.485Z" />		
		<path fill="url(#star)" opacity="0.3" stroke="#000000" stroke-width="0.5" d="M32.11 31.455C27.145 31.905 22.78 28.275 22.315 23.31 21.85 18.36 25.495 13.98 30.445 13.53 35.41 13.065 39.775 16.695 40.24 21.66 40.69 26.61 37.06 30.99 32.11 31.455Z" />
	</g>
</svg>