<svg xmlns="http://www.w3.org/2000/svg" viewBox="0 0 60 40" width="60" height="40">
	<defs>
		<pattern id="star" x="10" y="10" width="1" height="1" patternUnits="userSpaceOnUse">
		  <polygon points="0,0 2,5 0,10 5,8 10,10 8,5 10,0 5,2" />
		</pattern>
	</defs>
	<style>
		tspan { white-space:pre }
		.shp0 { fill: #ffffff;stroke: #000000;stroke-width: 5 } 
		.shp1 { fill: #000000;stroke: $[eyeColor];stroke-width: 5 } 
		.eyeColor { fill: $[eyeColor];stroke:#272727;stroke-width:0.5} 
	</style>
	<g id="eye2">
		<path class="shp0" d="M55.37 34.72C55.37 34.72 58.4 2.3 28.53 5.07C-1.35 7.83 7.21 35.16 7.21 35.16" />
		<path class="eyeColor" d="M30.74 28.97C27.43 29.27 24.52 26.85 24.21 23.54C23.9 20.24 26.33 17.32 29.63 17.02C32.94 16.71 35.85 19.13 36.16 22.44C36.46 25.74 34.04 28.66 30.74 28.97Z" />
		<path class="shp1" d="M30.37 25.485C28.715 25.635 27.26 24.425 27.105 22.77 26.95 21.12 28.165 19.66 29.815 19.51 31.47 19.355 32.925 20.565 33.08 22.22 33.23 23.87 32.02 25.33 30.37 25.485Z" />		
		<path fill="url(#star)" opacity="0.3" stroke="#000000" stroke-width="0.5" d="M30.74 28.97C27.43 29.27 24.52 26.85 24.21 23.54C23.9 20.24 26.33 17.32 29.63 17.02C32.94 16.71 35.85 19.13 36.16 22.44C36.46 25.74 34.04 28.66 30.74 28.97Z" />
	</g>
</svg>