<svg xmlns="http://www.w3.org/2000/svg" viewBox="0 0 75 50" width="75" height="50">
	<defs>
		<pattern id="star" x="10" y="10" width="1" height="1" patternUnits="userSpaceOnUse">
		  <polygon points="0,0 2,5 0,10 5,8 10,10 8,5 10,0 5,2" />
		</pattern>
	</defs>
	<style>
		tspan { white-space:pre }
		.shp0 { fill: #ffffff;stroke: #000000;stroke-width: 5 } 
		.shp1 { fill: #000000;stroke: $[eyeColor];stroke-linecap:round;stroke-linejoin:round;stroke-width: 4 } 
		.black{fill:#000000;}
		.eyeColor { fill: $[eyeColor];stroke:#272727;stroke-width:0.5}
	</style>
	<g id="eye4">
		<path class="shp0" d="M68.08 23.19C68.08 23.19 69.97 38.07 40.21 41.86C15.41 45.02 6.66 15.89 6.03 10.93C25.87 8.4 65.55 3.35 68.08 23.19Z" />
		<path class="eyeColor" d="M39.04 16.81C48.96 15.54 50.85 30.42 40.93 31.69C31.01 32.95 29.12 18.07 39.04 16.81Z" />
		<path class="black" d="M39.52 20.405C44.48 19.77 45.425 27.21 40.465 27.845 35.505 28.475 34.56 21.035 39.52 20.405Z" />
		
		<path fill="url(#star)" opacity="0.3" stroke="#272727" stroke-width="0.5" d="M39.04 16.81C48.96 15.54 50.85 30.42 40.93 31.69C31.01 32.95 29.12 18.07 39.04 16.81Z" />
	</g>
</svg>