<svg xmlns="http://www.w3.org/2000/svg" viewBox="0 0 78 21" width="78" height="21">
	<defs>
		<pattern id="star" x="10" y="10" width="1" height="1" patternUnits="userSpaceOnUse">
		  <polygon points="0,0 2,5 0,10 5,8 10,10 8,5 10,0 5,2" />
		</pattern>
	</defs>
	<style>
		tspan { white-space:pre }
		.shp0 { fill: none;stroke: #000000;stroke-width: 5 }
		.white { fill: #ffffff;}	
		.black{fill:#000000;}
		.eyeColor { fill:$[eyeColor];stroke:#272727;stroke-width:0.5}
	</style>
	<g id="eye7">
		<path id="White" class="white" d="M74 18L69 3L4 3L9 18L74 18Z" />
		<path class="eyeColor" d="M40.2 18.6C35.22 18.6 31.2 14.58 31.2 9.6 31.2 4.62 35.22.6 40.2.6 45.18.6 49.2 4.62 49.2 9.6 49.2 14.58 45.18 18.6 40.2 18.6Z" />
		<path class="black" d="M40.1 15.3C37.61 15.3 35.6 13.29 35.6 10.8 35.6 8.31 37.61 6.3 40.1 6.3 42.59 6.3 44.6 8.31 44.6 10.8 44.6 13.29 42.59 15.3 40.1 15.3Z" />
		<path fill="url(#star)" opacity="0.3" stroke="#272727" stroke-width="0.5" d="M40.2 18.6C35.22 18.6 31.2 14.58 31.2 9.6 31.2 4.62 35.22.6 40.2.6 45.18.6 49.2 4.62 49.2 9.6 49.2 14.58 45.18 18.6 40.2 18.6Z" />
		<path id="White" class="shp0" d="M74 18L69 3L4 3L9 18L74 18Z" />
	</g>
</svg>