<svg xmlns="http://www.w3.org/2000/svg" viewBox="0 0 70 46" width="70" height="46">
	<defs>
		<pattern id="star" x="10" y="10" width="1" height="1" patternUnits="userSpaceOnUse">
		  <polygon points="0,0 2,5 0,10 5,8 10,10 8,5 10,0 5,2" />
		</pattern>
	</defs>
	<style>
		tspan { white-space:pre }
		.shp0 { fill: #ffffff;stroke: #000000;stroke-width: 5 }
		.black{fill:#000000;}
		.eyeColor { fill:$[eyeColor];stroke:#272727;stroke-width:0.5}
	</style>
	<g id="eye8">
		<path id="Shape 10" class="shp0" d="M67 35C67 31 73 3 43 3C13 3 3 15 3 23C3 31 15 43 27 43C39 43 67 39 67 35Z" />
		<path class="eyeColor" d="M39.4 33.4C34.088 33.4 29.8 29.112 29.8 23.8 29.8 18.488 34.088 14.2 39.4 14.2 44.712 14.2 49 18.488 49 23.8 49 29.112 44.712 33.4 39.4 33.4Z" />
		<path id="Shape 10" class="black" d="M39.7 27.7C37.044 27.7 34.9 25.556 34.9 22.9 34.9 20.244 37.044 18.1 39.7 18.1 42.356 18.1 44.5 20.244 44.5 22.9 44.5 25.556 42.356 27.7 39.7 27.7Z" />
		<path fill="url(#star)" opacity="0.3" stroke="#272727" stroke-width="0.5" d="M39.4 33.4C34.088 33.4 29.8 29.112 29.8 23.8 29.8 18.488 34.088 14.2 39.4 14.2 44.712 14.2 49 18.488 49 23.8 49 29.112 44.712 33.4 39.4 33.4Z" />
	</g>
</svg>