<?xml version="1.0" encoding="utf-8"?>
<svg version="1.1" id="Layer_1" xmlns="http://www.w3.org/2000/svg" xmlns:xlink="http://www.w3.org/1999/xlink" x="0px" y="0px"
	 viewBox="0 0 400 600" style="enable-background:new 0 0 400 600;" xml:space="preserve">
	<defs>
		<pattern id="star" x="10" y="10" width="1" height="1" patternUnits="userSpaceOnUse">
		  <polygon points="0,0 2,5 0,10 5,8 10,10 8,5 10,0 5,2" />
		</pattern>
	</defs>
	<style type="text/css">
		.st0{fill:#FFFFFF;}
		.st1{fill:none;stroke:#000000;stroke-width:5;}
		.st2{fill:none;stroke:#000000;stroke-width:5;stroke-miterlimit:10;}
		
		.black{fill:#000000;}
		.eyeColor {fill:$[eyeColor]}
	</style>
	<g id="eye5">
		<path id="White" class="st0" d="M232.2,315.6c3.9-10.5,2.3-25.4,2.3-25.4s-35.9-6.3-45.8-5.2c-9.9,1-24.3,7.6-24.3,7.6
			s-1.4,10.2,7.6,24.3L232.2,315.6z"/>
		<path id="Shape_9" class="eyeColor" d="M204 316c-5.72-1.55-10.66-7.67-11.7-18.33-1.17-10.66 1.7-14.67 8.7-13.67 5.4 1.2 10.66 7.67 11.7 18.33C212.43 307.93 209.05 317.03 205 316z"/>
		<path fill="url(#star)" opacity="0.7" stroke="#272727" stroke-width="0.5" d="M204 316c-5.72-1.55-10.66-7.67-11.7-18.33-1.17-10.66 1.7-14.67 8.7-13.67 5.4 1.2 10.66 7.67 11.7 18.33C212.43 307.93 209.05 317.03 205 316z"/>
		<path id="Outline" class="st1" d="M232.2,315.6c4.4-5.5,2.3-25.4,2.3-25.4s-35.9-6.3-45.8-5.2c-9.9,1-24.3,7.6-24.3,7.6
			s1.6,14.9,7.6,24.3"/>
		<path class="black" d="M201.3 292.5c9.9-1.3 11.8 13.6 1.9 14.9C193.3 308.6 191.4 293.7 201.3 292.5z"/>
	</g>
	<path class="st2" d="M140.5,287.5c2.1,1.5,5.8,3.8,11,5c5.7,1.3,10.4,0.6,13,0"/>
	<path class="st2" d="M167.5,305.5c-2,0.8-5.1,1.8-9,2c-0.9,0-4.5,0.2-9-1c-3.9-1-6.9-2.6-9-4"/>
</svg>
