<?xml version="1.0" encoding="utf-8"?>
<!-- Generator: Adobe Illustrator 27.2.0, SVG Export Plug-In . SVG Version: 6.00 Build 0)  -->
<svg version="1.1" id="Layer_3" xmlns="http://www.w3.org/2000/svg" xmlns:xlink="http://www.w3.org/1999/xlink" x="0px" y="0px"
	 viewBox="0 0 400 600" style="enable-background:new 0 0 400 600;" xml:space="preserve">
<style type="text/css">
	.white{fill:#fff;stroke:#fff;}
	.st0{fill:none;stroke:#000000;stroke-width:5;stroke-miterlimit:10;}
	.st1{stroke:#000000;stroke-width:5;stroke-miterlimit:10;}
	.eyeColor{stroke:$[eyeColor];stroke-width:4;}
</style>
<path id="Shape 1" class="white" d="M172.196 380.0912C172.196 380.0912 180.4976 368.0744 197 368.0744 213.5024 368.0744 217.5776 380.0912 217.5776 380.0912 217.5776 380.0912 213.452 388.3424 196.9496 388.3424 180.4472 388.3424 172.196 380.0912 172.196 380.0912Z" />
<path class="st0" d="M224,379.5c-0.9-2.3-2.7-6-6.2-9c-4.3-3.8-8.6-4.4-13.2-5c-11.9-1.6-21.1,2.7-23.8,4c-5.4,2.7-9.4,6.1-12.3,9"
	/>
<ellipse class="eyeColor" cx="200.2" cy="379.5" rx="7.5" ry="8"/>
<path class="st1" d="M161.5,368.5c2.7,2.3,5.3,4.7,8,7"/>
<path class="st1" d="M169.5,360.5c3,3.3,6,6.7,9,10"/>
</svg>
