<?xml version="1.0" encoding="utf-8"?>
<svg version="1.1" id="Layer_1" xmlns="http://www.w3.org/2000/svg" xmlns:xlink="http://www.w3.org/1999/xlink" x="0px" y="0px"
	 viewBox="0 0 400 600" style="enable-background:new 0 0 400 600;" xml:space="preserve">
	<defs>
		<pattern id="star" x="10" y="10" width="1" height="1" patternUnits="userSpaceOnUse">
		  <polygon points="0,0 2,5 0,10 5,8 10,10 8,5 10,0 5,2" />
		</pattern>
	</defs>
	<style type="text/css">
		.st0{fill:#FFFFFF;stroke:#000000;stroke-width:5;}
		.st2{stroke:#000000;}
		.black{fill:#000000;}
		.eyeColor {fill:$[eyeColor]}
	</style>
	<g id="eye4">
		<path id="Shape_9" class="st0" d="M230.8,299.3c0,0,1.9,14.9-27.9,18.7c-24.8,3.2-33.6-26-34.2-30.9
			C188.6,284.5,228.3,279.5,230.8,299.3z"/>
		<path id="Shape_7_copy" class="eyeColor" d="M200.88 287.8c15.84-2.08 18.88 21.76 3.04 23.84C188.08 313.56 185.04 289.72 200.88 287.8z"/>
		<path fill="url(#star)" opacity="0.7" stroke="#272727" stroke-width="0.5" d="M200.88 287.8c15.84-2.08 18.88 21.76 3.04 23.84C188.08 313.56 185.04 289.72 200.88 287.8z"/>
		<path class="black" d="M201.3 292.5c9.9-1.3 11.8 13.6 1.9 14.9C193.3 308.6 191.4 293.7 201.3 292.5z"/>
	</g>
	<path class="st2" d="M149.5,276.5c3.9,5.5,6.9,9.9,9,13c2.2,3.2,3.1,4.7,5,7c2,2.4,4,4.3,8,8c3.7,3.5,5.6,5.2,6,5
	c1.4-0.8-12.8-18.5-9-23c1.4-1.7,4.5-0.4,12,0c7.2,0.4,8.6-0.9,16-1c3.5-0.1,8.7,0.1,15,1"/>
</svg>
