<?xml version="1.0" encoding="utf-8"?>
<svg version="1.1" id="Layer_1" xmlns="http://www.w3.org/2000/svg" xmlns:xlink="http://www.w3.org/1999/xlink" x="0px" y="0px"
	 viewBox="0 0 400 600" style="enable-background:new 0 0 400 600;" xml:space="preserve">
	<defs>
		<pattern id="star" x="10" y="10" width="1" height="1" patternUnits="userSpaceOnUse">
		  <polygon points="0,0 2,5 0,10 5,8 10,10 8,5 10,0 5,2" />
		</pattern>
	</defs>
	<style type="text/css">
		.st0{fill:#FFFFFF;stroke:#000000;stroke-width:5;}
		.st2{fill:none;stroke:#000000;stroke-width:5;}
		.black{fill:#000000;}
		.eyeColor {fill:$[eyeColor]}
	</style>
	<g id="eye2">
		<path class="st0" d="M207.5,315.9c0,0,3-32.4-26.8-29.6c-29.9,2.8-21.3,30.1-21.3,30.1"/>
		<path class="eyeColor" d="M183.685 314.53c-5.445.495-10.23-3.465-10.725-8.91-.495-5.445 3.465-10.23 8.91-10.725 5.445-.495 10.23 3.465 10.725 8.91C193.09 309.25 189.13 314.035 183.685 314.53z"/>
		<path fill="url(#star)" opacity="0.7" stroke="#272727" stroke-width="0.5" d="M183.685 314.53c-5.445.495-10.23-3.465-10.725-8.91-.495-5.445 3.465-10.23 8.91-10.725 5.445-.495 10.23 3.465 10.725 8.91C193.09 309.25 189.13 314.035 183.685 314.53z"/>
		<path class="black" d="M182.9 311.2c-3.3.3-6.2-2.1-6.5-5.4-.3-3.3 2.1-6.2 5.4-6.5 3.3-.3 6.2 2.1 6.5 5.4C188.6 308 186.2 310.9 182.9 311.2z"/>
	</g>
	<path class="st2" d="M137.5,310.5c1,1.2,3.3,3.6,7,5c0.9,0.3,3.5,1.2,7,1c3.2-0.2,5.7-1.3,7-2"/>
	<path class="st2" d="M141.5,293.5c0.6,2.2,1.4,3.8,2,5c0.7,1.3,1.5,2.6,3,4c0.2,0.2,1.4,1.2,3,2c3.7,1.8,7.5,1.3,9,1"/>
</svg>
