<?xml version="1.0" encoding="utf-8"?>
<svg version="1.1" id="Layer_1" xmlns="http://www.w3.org/2000/svg" xmlns:xlink="http://www.w3.org/1999/xlink" x="0px" y="0px"
	 viewBox="0 0 400 600" style="enable-background:new 0 0 400 600;" xml:space="preserve">
	<defs>
		<pattern id="star" x="10" y="10" width="1" height="1" patternUnits="userSpaceOnUse">
		  <polygon points="0,0 2,5 0,10 5,8 10,10 8,5 10,0 5,2" />
		</pattern>
	</defs>
	<style type="text/css">
		.st0{fill:#FFFFFF;stroke:#000000;stroke-width:5;stroke-miterlimit:10;}
		.st1{fill:none;stroke:#000000;stroke-width:5;stroke-miterlimit:10;}
		.st2{stroke:#000000;stroke-width:5;stroke-miterlimit:10;}
		.black{fill:#000000;}
		.eyeColor {fill:lime}
	</style>
	<path class="st0" d="M229.6,340.2c-1.5-15-9.7-27.1-21.2-30.9c-8.4-2.8-15.9-0.4-19.1,0.7c-20.3,6.8-26.8,30.1-27.6,33"/>
	<path class="st1" d="M151,321.9c5.4,2.6,10.9,5.1,16.3,7.7"/>
	<path class="st1" d="M147.5,332.5c5.2,1.9,10.4,3.7,15.6,5.6"/>
	<ellipse class="eyeColor" cx="202" cy="325.6" rx="15.2" ry="12.0"/>
	<ellipse fill="url(#star)" opacity="0.7" stroke="#272727" stroke-width="0.5" cx="202" cy="325.6" rx="15.2" ry="12.0"/>
	<path class="black" d="M202.3 316.5c9.9-1.3 11.8 13.6 1.9 14.9C194.3 332.6 192.4 317.7 202.3 316.5z"/>
	<path class="st0" d="M160.9,342.1c23.4-0.9,46.7-1.9,70.1-2.8"/>
</svg>
