<?xml version="1.0" encoding="utf-8"?>
<svg version="1.1" id="Layer_3" xmlns="http://www.w3.org/2000/svg" xmlns:xlink="http://www.w3.org/1999/xlink" x="0px" y="0px"
	 viewBox="0 0 400 600" style="enable-background:new 0 0 400 600;" xml:space="preserve">
	<defs>
		<pattern id="star" x="10" y="10" width="1" height="1" patternUnits="userSpaceOnUse">
		  <polygon points="0,0 2,5 0,10 5,8 10,10 8,5 10,0 5,2" />
		</pattern>
	</defs>
	<style type="text/css">
		.st0{fill:#FFFFFF;stroke:#000000;stroke-width:5;stroke-miterlimit:10;}
		.st1{stroke:#000000;stroke-width:5;stroke-miterlimit:10;}
		.st2{fill:none;stroke:#000000;stroke-width:5;stroke-miterlimit:10;}
		.black{fill:#000000;}
		.eyeColor {fill:$[eyeColor]}
	</style>
	<circle class="st0" cx="147.5" cy="279.5" r="23"/>
	<circle class="eyeColor" cx="147.5" cy="279.5" r="11"/>
	<circle fill="url(#star)" opacity="0.3" stroke="#000000" stroke-width="0.5" cx="147.5" cy="279.5" r="11"/>
	<path class="black" d="M146.908 276.42c5.544-.728 6.608 7.616 1.064 8.344C142.428 285.436 141.364 277.092 146.908 276.42z"/>
	<path class="st1" d="M120.5,260.5c2,1.3,4,2.7,6,4"/>
	<path class="st1" d="M116.5,270.5c3,1.3,6,2.7,9,4"/>
	<ellipse class="st2" cx="147.5" cy="280.9" rx="23" ry="24.6"/>
	<ellipse class="st2" cx="147.3" cy="282.2" rx="23" ry="25.3"/>
</svg>
