<?xml version="1.0" encoding="utf-8"?>
<svg version="1.1" id="Layer_3" xmlns="http://www.w3.org/2000/svg" xmlns:xlink="http://www.w3.org/1999/xlink" x="0px" y="0px"
	 viewBox="0 0 400 600" style="enable-background:new 0 0 400 600;" xml:space="preserve">
	<defs>
		<pattern id="star" x="10" y="10" width="1" height="1" patternUnits="userSpaceOnUse">
		  <polygon points="0,0 2,5 0,10 5,8 10,10 8,5 10,0 5,2" />
		</pattern>
	</defs>
	<style type="text/css">
		.white{fill:white;stroke:white;stroke-width:3}
		.st0{fill:none;stroke:#000000;stroke-width:5;stroke-miterlimit:10;}
		.st1{stroke:#000000;stroke-width:5;stroke-miterlimit:10;}
		.black{fill:#000000;}
		.eyeColor {fill:$[eyeColor]}
	</style>
	<path id="Shape 1" class="white" d="M172 380C172 380 183.4976 367.0744 200 367.0744 216.5024 367.0744 220.5776 379.0912 220.5776 379.0912 220.5776 379.0912 216.452 387.3424 199.9496 387.3424 183.4472 387.3424 172 380 172 380Z" />
	<path class="st0" d="M224,379.5c-0.9-2.3-2.7-6-6.2-9c-4.3-3.8-8.6-4.4-13.2-5c-11.9-1.6-21.1,2.7-23.8,4c-5.4,2.7-9.4,6.1-12.3,9"	/>
	<ellipse class="eyeColor" cx="199.2" cy="378.5" rx="8.5" ry="9"/>
	<ellipse fill="url(#star)" opacity="0.7" stroke="#272727" stroke-width="0.5" cx="199.2" cy="378.5" rx="8.5" ry="9"/>
	<path class="black" d="M198.908 374.42c5.544-.728 6.608 7.616 1.064 8.344C194.428 383.436 193.364 375.092 198.908 374.42z"/>
	<path class="st1" d="M161.5,368.5c2.7,2.3,5.3,4.7,8,7"/>
	<path class="st1" d="M169.5,360.5c3,3.3,6,6.7,9,10"/>
</svg>
