<?xml version="1.0" encoding="utf-8"?>
<svg version="1.1" id="Layer_3" xmlns="http://www.w3.org/2000/svg" xmlns:xlink="http://www.w3.org/1999/xlink" x="0px" y="0px"
	 viewBox="0 0 400 600" style="enable-background:new 0 0 400 600;" xml:space="preserve">
	<defs>
		<pattern id="star" x="10" y="10" width="1" height="1" patternUnits="userSpaceOnUse">
		  <polygon points="0,0 2,5 0,10 5,8 10,10 8,5 10,0 5,2" />
		</pattern>
	</defs>
	<style type="text/css">
		.st0{fill:#FFFFFF;stroke:#000000;stroke-width:5;stroke-miterlimit:10;}
		.st1{stroke:#000000;stroke-width:5;stroke-miterlimit:10;}
		.black{fill:#000000;}
		.eyeColor {fill:$[eyeColor]}
	</style>
	<circle class="st0" cx="151.3" cy="330.5" r="25"/>
	<circle class="eyeColor" cx="151.3" cy="330.5" r="13"/>
	<circle fill="url(#star)" opacity="0.7" stroke="#272727" stroke-width="0.5" cx="151.3" cy="330.5" r="13"/>
	<path class="black" d="M150.908 327.42c5.544-.728 6.608 7.616 1.064 8.344C146.428 336.436 145.364 328.092 150.908 327.42z"/>
	<path class="st1" d="M124.3,311.5c2,1.3,4,2.7,6,4"/>
	<path class="st1" d="M120.3,321.5c3,1.3,6,2.7,9,4"/>
</svg>
