<?xml version="1.0" encoding="utf-8"?>
<svg version="1.1" id="Layer_2" xmlns="http://www.w3.org/2000/svg" xmlns:xlink="http://www.w3.org/1999/xlink" x="0px" y="0px"
	 viewBox="0 0 400 600" style="enable-background:new 0 0 400 600;" xml:space="preserve">
	<defs>
		<pattern id="star" x="10" y="10" width="2" height="2" patternUnits="userSpaceOnUse">
		  <polygon points="0,0 2,5 0,10 5,8 10,10 8,5 10,0 5,2" />
		</pattern>
	</defs>
	<style type="text/css">
		.st0{fill:#FFFFFF;stroke:#000000;stroke-width:5;stroke-miterlimit:10;}
		.st1{fill:none;stroke:#000000;stroke-width:5;stroke-miterlimit:10;}
		.st2{stroke:#000000;stroke-width:5;stroke-miterlimit:10;}
		.black{fill:#000000;}
		.eyeColor {fill:$[eyeColor]}
	</style>
	<path class="st0" d="M174.4,258.5c48.8,6.4,58.7,10.5,58.6,13c-0.2,5.6-50.1,15.5-57.8-4C173.8,264,174.1,260.3,174.4,258.5z"/>
	<path class="st1" d="M161.5,256.5c4,0.7,8,1.3,12,2"/>
	<path class="st1" d="M162.4,270.5c4.1-1.1,8.2-2.1,12.4-3.2"/>
	<ellipse transform="matrix(0.1008 -0.9949 0.9949 0.1008 -85.0082 447.0974)" class="eyeColor" cx="204.8" cy="270.6" rx="4" ry="9"/>
	<ellipse transform="matrix(0.1008 -0.9949 0.9949 0.1008 -85.0082 447.0974)" fill="url(#star)" opacity="0.3" stroke="#000000" stroke-width="0.5" cx="204.8" cy="270.6" rx="4" ry="9"/>
	<ellipse transform="matrix(0.1008 -0.9949 0.9949 0.1008 -85.0082 447.0974)" class="black" cx="204.8" cy="270.6" rx="2" ry="4"/>
</svg>
