<?xml version="1.0" encoding="utf-8"?>
<svg version="1.1" xmlns="http://www.w3.org/2000/svg" xmlns:xlink="http://www.w3.org/1999/xlink" x="0px" y="0px"
	 viewBox="0 0 400 600" style="enable-background:new 0 0 400 600;" xml:space="preserve">
	<defs>
		<pattern id="star" x="10" y="10" width="2" height="2" patternUnits="userSpaceOnUse">
		  <polygon points="0,0 2,5 0,10 5,8 10,10 8,5 10,0 5,2" />
		</pattern>
	</defs>
	<style type="text/css">
		.st0{fill:#FFFFFF;stroke:#000000;stroke-width:5;stroke-miterlimit:10;}
		.st1{stroke:#000;stroke-width:5;stroke-miterlimit:10;}
		.black{fill:#000000;}
		.eyeColor {fill:$[eyeColor]}
	</style>
	<g id="Layer_3">
		<path class="st0" d="M212.9,211.3c-0.5,4.1-4.5,7.6-8,9.1c-5.4,2.3-8-0.8-18.5-1.7c-11.3-0.9-14.7,2.1-19.7-1.2
			c-3.3-2.2-6.4-6.6-5.9-10.8c1-8.4,15.8-14.7,27.8-13.6C203,194.4,213.9,202.5,212.9,211.3z"/>
		<path class="st0" d="M161.5,211.5c-2.6,1.6-5.1,3.2-7.7,4.8"/>
		<path class="st0" d="M165.4,216.1c-2.4,2.1-4.9,4.2-7.3,6.3"/>
		
		<ellipse transform="matrix(0.2011 -0.9796 0.9796 0.2011 -49.6206 349.6834)" class="eyeColor" cx="189.6" cy="205.3" rx="8" ry="10"/>
		<ellipse transform="matrix(0.2011 -0.9796 0.9796 0.2011 -49.6206 349.6834)" fill="url(#star)" opacity="0.3" stroke="#000000" stroke-width="0.5" cx="189.6" cy="205.3" rx="8" ry="10"/>
		<ellipse transform="matrix(0.2011 -0.9796 0.9796 0.2011 -49.6206 349.6834)" class="black" cx="189.6" cy="205.3" rx="3.5" ry="4.2"/>
	</g>
</svg>
