<?xml version="1.0" encoding="utf-8"?>
<svg version="1.1" id="Layer_1" xmlns="http://www.w3.org/2000/svg" xmlns:xlink="http://www.w3.org/1999/xlink" x="0px" y="0px"
	 viewBox="0 0 400 600" style="enable-background:new 0 0 400 600;" xml:space="preserve">
	<defs>
		<pattern id="star" x="10" y="10" width="1" height="1" patternUnits="userSpaceOnUse">
		  <polygon points="0,0 2,5 0,10 5,8 10,10 8,5 10,0 5,2" />
		</pattern>
	</defs>
	<style type="text/css">
		.st0{fill:none;stroke:#000000;stroke-width:5;stroke-linecap:round;stroke-linejoin:round;}
		.st1{fill:none;stroke:#000000;stroke-width:5;stroke-linecap:round;stroke-linejoin:round;}
		.white{fill:#fff;}
		.black{fill:#000000;}
		.eyeColor {fill:$[eyeColor]}
	</style>
	<g id="eye3">
		<path class="st0" d="M265,360c-13.8,0-25-11.2-25-25c0-13.8,11.2-25,25-25c13.8,0,25,11.2,25,25
			C290,348.8,278.8,360,265,360z"/>
		<path class="white" d="M265,360c-13.8,0-25-11.2-25-25c0-5,0-5,0-5h50c0,0,0,0,0,5C290,348.8,278.8,360,265,360z"/>
			
		<path class="eyeColor" d="M266 327.8c-16 0-16 24 0 24S282 327.8 266 327.8z"/>
		<path fill="url(#star)" opacity="0.7" stroke="#272727" stroke-width="0.5" d="M266 327.8c-16 0-16 24 0 24S282 327.8 266 327.8z"/>
		<path class="st1" d="M265,360c-13.8,0-25-11.2-25-25c0-5,0-5,0-5h50c0,0,0,0,0,5C290,348.8,278.8,360,265,360z"/>
		
		<path class="st1" d="M0,0"/>
		
		<path class="black" d="M266.9 346.2c-3.3.3-6.2-2.1-6.5-5.4-.3-3.3 2.1-6.2 5.4-6.5 3.3-.3 6.2 2.1 6.5 5.4C272.6 343 270.2 345.9 266.9 346.2z"/>
		
	</g>
	<path class="st0" d="M217.7,324.9c1,1.5,3.4,4.7,7.5,6c2.7,0.9,5.2,0.6,7.1,0.5c2.2-0.2,4.1-0.7,5.4-1.1"/>
</svg>
