<?xml version="1.0" encoding="utf-8"?>
<svg version="1.1" id="Layer_1" xmlns="http://www.w3.org/2000/svg" xmlns:xlink="http://www.w3.org/1999/xlink" x="0px" y="0px"
	 viewBox="0 0 400 600" style="enable-background:new 0 0 400 600;" xml:space="preserve">
	<defs>
		<pattern id="star" x="10" y="10" width="1" height="1" patternUnits="userSpaceOnUse">
		  <polygon points="0,0 2,5 0,10 5,8 10,10 8,5 10,0 5,2" />
		</pattern>
	</defs>
	<style type="text/css">
		.st0{fill:#FFFFFF;}
		.st1{fill:none;stroke:#000000;stroke-width:5;}
		.st2{fill:none;stroke:#000000;stroke-width:5;stroke-miterlimit:10;}
		.black{fill:#000000;}
		.eyeColor {fill:$[eyeColor]}
	</style>
	<g id="eye6">
		<path class="st0" d="M232.6,309.6c0,0-11.4-24.4-41.3-22.7c-20,1.1-24.4,11.4-24.4,11.4l5.8,14.7
			C203,316.3,232.6,309.6,232.6,309.6z"/>
		<path class="eyeColor" d="M199.52 312.6c6.6-.36 11.64-6 11.28-12.6-.36-6.6-6-11.64-12.6-11.28s-11.64 6-11.28 12.6C187.28 307.92 192.92 312.96 199.52 312.6z"/>
		<path fill="url(#star)" opacity="0.7" stroke="#272727" stroke-width="0.5" d="M199.52 312.6c6.6-.36 11.64-6 11.28-12.6-.36-6.6-6-11.64-12.6-11.28s-11.64 6-11.28 12.6C187.28 307.92 192.92 312.96 199.52 312.6z"/>
		
		<path class="black" d="M198.3 293.5c9.9-1.3 11.8 13.6 1.9 14.9C190.3 309.6 188.4 294.7 198.3 293.5z"/>
		<path id="Outline" class="st1" d="M232.6,309.6c0,0-1.1-20-41.3-22.7c-20,1.1-24.4,11.4-24.4,11.4l5.8,14.7"/>
	</g>
	<path class="st2" d="M151.5,289.5c0.2,0.7,1.3,5.4,6,8c4.1,2.3,8.2,1.2,9,1"/>
	<path class="st2" d="M149.5,304.5c0.8,0.9,3.8,4.2,9,5c5.1,0.8,9-1.4,10-2"/>
</svg>
