<?xml version="1.0" encoding="utf-8"?>
<svg version="1.1" id="Layer_2" xmlns="http://www.w3.org/2000/svg" xmlns:xlink="http://www.w3.org/1999/xlink" x="0px" y="0px"
	 viewBox="0 0 400 600" style="enable-background:new 0 0 400 600;" xml:space="preserve">
	<defs>
		<pattern id="star" x="10" y="10" width="1" height="1" patternUnits="userSpaceOnUse">
		  <polygon points="0,0 2,5 0,10 5,8 10,10 8,5 10,0 5,2" />
		</pattern>
	</defs>
	<style type="text/css">
		.st0{fill:#FFFFFF;stroke:#000000;stroke-width:5;stroke-miterlimit:10;}
		.st1{stroke:#000000;stroke-width:5;stroke-miterlimit:10;}
		.black{fill:#000000;}
		.eyeColor {fill:$[eyeColor]}
	</style>
	<path class="st0" d="M182.8,349.5c0.6-1.5,5.9-15.2-2.5-25.3c-2.9-3.5-6.7-5.6-7.7-6.2c-2.9-1.5-8.9-4.1-16.6-3.5
		c-7.6,0.6-12.7,4-14.5,5.2c-12.5,8.5-12.1,23.4-12.1,25.3"/>
	<path class="st0" d="M151.4,345.8c-7.5-1.1-14.9-2.2-22.4-3.3"/>
	<ellipse class="eyeColor" cx="163.3" cy="333.8" rx="11.9" ry="10.4"/>
	<ellipse fill="url(#star)" opacity="0.7" stroke="#272727" stroke-width="0.5" cx="163.3" cy="333.8" rx="11.9" ry="10.4"/>
	<path class="black" d="M162.908 330.42c5.544-.728 6.608 7.616 1.064 8.344C158.428 339.436 157.364 331.092 162.908 330.42z"/>
	<path class="st0" d="M113.5,322.3c6,2.8,12.1,5.7,18.1,8.5"/>
	<path class="st0" d="M111,335.4c6.1,1,12.2,2,18.3,3"/>
	<path class="st0" d="M125.9,310c4,4.2,7.9,8.4,11.9,12.7"/>
</svg>
