<?xml version="1.0" encoding="utf-8"?>
<svg version="1.1" id="Layer_1" xmlns="http://www.w3.org/2000/svg" xmlns:xlink="http://www.w3.org/1999/xlink" x="0px" y="0px"
	 viewBox="0 0 400 600" style="enable-background:new 0 0 400 600;" xml:space="preserve">
	 <defs>
		<pattern id="star" viewBox="0,0,10,10" width="20%" height="20%">
		  <polygon points="0,0 2,5 0,10 5,8 10,10 8,5 10,0 5,2" />
		</pattern>
	</defs>
	<style type="text/css">
	.st0{fill:#FFFFFF;stroke:#000000;stroke-width:5;}
	.st1{stroke:$[eyeColor];stroke-width:5;}
	.black{fill:#000000;}
	.eyeColor { fill:lime;}
	</style>
	<g id="eye1">
		<path id="Shape_7" class="st0" d="M208,315.3c0,0-5,10-35,10s-25-10-25-10s0-40,30-40S208,315.3,208,315.3z"/>
		<path class="eyeColor" d="M178.6 313.36c-12 0-12-24 0-24S190.6 313.36 178.6 313.36z"/>
		<path fill="url(#star)" opacity="0.7" stroke="#272727" stroke-width="0.5" d="M178.6 313.36c-12 0-12-24 0-24S190.6 313.36 178.6 313.36z"/>
		<path class="black" d="M177.965 307.52C174.795 307.52 172.235 304.96 172.235 301.79 172.235 298.625 174.795 296.06 177.965 296.06 181.135 296.06 183.695 298.625 183.695 301.79 183.695 304.96 181.135 307.52 177.965 307.52Z" />
	</g>
	<g>
		<path class="st0" d="M132.4,309.7c1.5,1.3,3.5,2.7,6,4c3.5,1.8,6.7,2.6,9,3"/>
		<path class="st0" d="M138.4,292.7c1.1,1.8,2.2,3.1,3,4c2.1,2.5,4,4.2,5.3,5.3c1.2,1,2.2,1.9,3,2.4"/>
	</g>
</svg>
